<?xml version="1.0" encoding="UTF-8" standalone="no"?>
<!DOCTYPE svg PUBLIC "-//W3C//DTD SVG 1.1//EN"
 "http://www.w3.org/Graphics/SVG/1.1/DTD/svg11.dtd">
<!-- Generated by graphviz version 14.0.5 (0)
 -->
<!-- Title: print_number Pages: 1 -->
<svg width="373pt" height="109pt"
 viewBox="0.00 0.00 373.00 109.00" xmlns="http://www.w3.org/2000/svg" xmlns:xlink="http://www.w3.org/1999/xlink">
<g id="graph0" class="graph" transform="scale(1 1) rotate(0) translate(4 105.25)">
<title>print_number</title>
<!-- Node1 -->
<g id="Node000001" class="node">
<title>Node1</title>
<g id="a_Node000001"><a xlink:title=" ">
<polygon fill="#999999" stroke="#666666" points="72.25,-56.25 0,-56.25 0,-37 72.25,-37 72.25,-56.25"/>
<text xml:space="preserve" text-anchor="middle" x="36.12" y="-42.75" font-family="Helvetica,sans-Serif" font-size="10.00">print_number</text>
</a>
</g>
</g>
<!-- Node2 -->
<g id="Node000002" class="node">
<title>Node2</title>
<g id="a_Node000002"><a xlink:href="cJSON_8c.html#aa7a85b63f1830e7e666e1f56872d5d3e" target="_top" xlink:title=" ">
<polygon fill="white" stroke="#666666" points="199.25,-93.25 112,-93.25 112,-74 199.25,-74 199.25,-93.25"/>
<text xml:space="preserve" text-anchor="middle" x="155.62" y="-79.75" font-family="Helvetica,sans-Serif" font-size="10.00">compare_double</text>
</a>
</g>
</g>
<!-- Node1&#45;&gt;Node2 -->
<g id="edge1_Node000001_Node000002" class="edge">
<title>Node1&#45;&gt;Node2</title>
<g id="a_edge1_Node000001_Node000002"><a xlink:title=" ">
<path fill="none" stroke="#63b8ff" d="M69.23,-56.74C82.31,-60.85 97.63,-65.68 111.66,-70.09"/>
<polygon fill="#63b8ff" stroke="#63b8ff" points="110.52,-73.41 121.11,-73.07 112.63,-66.73 110.52,-73.41"/>
</a>
</g>
</g>
<!-- Node3 -->
<g id="Node000003" class="node">
<title>Node3</title>
<g id="a_Node000003"><a xlink:href="cJSON_8c.html#ad9f9a9b2ad3154fc8033756f23c023a6" target="_top" xlink:title=" ">
<polygon fill="white" stroke="#666666" points="178.25,-56.25 133,-56.25 133,-37 178.25,-37 178.25,-56.25"/>
<text xml:space="preserve" text-anchor="middle" x="155.62" y="-42.75" font-family="Helvetica,sans-Serif" font-size="10.00">ensure</text>
</a>
</g>
</g>
<!-- Node1&#45;&gt;Node3 -->
<g id="edge2_Node000001_Node000003" class="edge">
<title>Node1&#45;&gt;Node3</title>
<g id="a_edge2_Node000001_Node000003"><a xlink:title=" ">
<path fill="none" stroke="#63b8ff" d="M72.7,-46.62C88.15,-46.62 106.16,-46.62 121.35,-46.62"/>
<polygon fill="#63b8ff" stroke="#63b8ff" points="121.31,-50.13 131.31,-46.63 121.31,-43.13 121.31,-50.13"/>
</a>
</g>
</g>
<!-- Node6 -->
<g id="Node000006" class="node">
<title>Node6</title>
<g id="a_Node000006"><a xlink:href="cJSON_8c.html#ab25412ae56c8c594831918169bea100d" target="_top" xlink:title=" ">
<polygon fill="white" stroke="#666666" points="203,-19.25 108.25,-19.25 108.25,0 203,0 203,-19.25"/>
<text xml:space="preserve" text-anchor="middle" x="155.62" y="-5.75" font-family="Helvetica,sans-Serif" font-size="10.00">get_decimal_point</text>
</a>
</g>
</g>
<!-- Node1&#45;&gt;Node6 -->
<g id="edge7_Node000001_Node000006" class="edge">
<title>Node1&#45;&gt;Node6</title>
<g id="a_edge7_Node000001_Node000006"><a xlink:title=" ">
<path fill="none" stroke="#63b8ff" d="M69.23,-36.51C82.31,-32.4 97.63,-27.57 111.66,-23.16"/>
<polygon fill="#63b8ff" stroke="#63b8ff" points="112.63,-26.52 121.11,-20.18 110.52,-19.84 112.63,-26.52"/>
</a>
</g>
</g>
<!-- Node4 -->
<g id="Node000004" class="node">
<title>Node4</title>
<g id="a_Node000004"><a xlink:href="structinternal__hooks.html#a8b8f7ff45faa5da18dd3ccd2a2c8e416" target="_top" xlink:title=" ">
<polygon fill="white" stroke="#666666" points="360.38,-83.25 243.12,-83.25 243.12,-64 360.38,-64 360.38,-83.25"/>
<text xml:space="preserve" text-anchor="middle" x="301.75" y="-69.75" font-family="Helvetica,sans-Serif" font-size="10.00">internal_hooks::allocate</text>
</a>
</g>
</g>
<!-- Node3&#45;&gt;Node4 -->
<g id="edge3_Node000003_Node000004" class="edge">
<title>Node3&#45;&gt;Node4</title>
<g id="a_edge3_Node000003_Node000004"><a xlink:title=" ">
<path fill="none" stroke="#63b8ff" d="M178.51,-50.73C193.8,-53.59 215.05,-57.57 235.56,-61.41"/>
<polygon fill="#63b8ff" stroke="#63b8ff" points="234.88,-64.85 245.35,-63.25 236.16,-57.96 234.88,-64.85"/>
</a>
</g>
</g>
<!-- Node5 -->
<g id="Node000005" class="node">
<title>Node5</title>
<g id="a_Node000005"><a xlink:href="structinternal__hooks.html#a7c3921493fab83f33cd509145d8a5393" target="_top" xlink:title=" ">
<polygon fill="white" stroke="#666666" points="364.5,-28.25 239,-28.25 239,-9 364.5,-9 364.5,-28.25"/>
<text xml:space="preserve" text-anchor="middle" x="301.75" y="-14.75" font-family="Helvetica,sans-Serif" font-size="10.00">internal_hooks::reallocate</text>
</a>
</g>
</g>
<!-- Node3&#45;&gt;Node5 -->
<g id="edge5_Node000003_Node000005" class="edge">
<title>Node3&#45;&gt;Node5</title>
<g id="a_edge5_Node000003_Node000005"><a xlink:title=" ">
<path fill="none" stroke="#63b8ff" d="M178.51,-42.37C194.27,-39.31 216.37,-35.02 237.46,-30.92"/>
<polygon fill="#63b8ff" stroke="#63b8ff" points="238.05,-34.37 247.2,-29.03 236.72,-27.5 238.05,-34.37"/>
</a>
</g>
</g>
<!-- Node4&#45;&gt;Node4 -->
<g id="edge4_Node000004_Node000004" class="edge">
<title>Node4&#45;&gt;Node4</title>
<g id="a_edge4_Node000004_Node000004"><a xlink:title=" ">
<path fill="none" stroke="#63b8ff" d="M278.87,-83.54C268.44,-92.15 276.06,-101.25 301.75,-101.25 316.2,-101.25 324.93,-98.37 327.95,-94.32"/>
<polygon fill="#63b8ff" stroke="#63b8ff" points="331.37,-93.51 325.07,-84.98 324.68,-95.57 331.37,-93.51"/>
</a>
</g>
</g>
<!-- Node5&#45;&gt;Node5 -->
<g id="edge6_Node000005_Node000005" class="edge">
<title>Node5&#45;&gt;Node5</title>
<g id="a_edge6_Node000005_Node000005"><a xlink:title=" ">
<path fill="none" stroke="#63b8ff" d="M278.87,-28.54C268.44,-37.15 276.06,-46.25 301.75,-46.25 316.2,-46.25 324.93,-43.37 327.95,-39.32"/>
<polygon fill="#63b8ff" stroke="#63b8ff" points="331.37,-38.51 325.07,-29.98 324.68,-40.57 331.37,-38.51"/>
</a>
</g>
</g>
</g>
</svg>
