<?xml version="1.0" encoding="UTF-8" standalone="no"?>
<!DOCTYPE svg PUBLIC "-//W3C//DTD SVG 1.1//EN"
 "http://www.w3.org/Graphics/SVG/1.1/DTD/svg11.dtd">
<!-- Generated by graphviz version 14.0.5 (0)
 -->
<!-- Title: print_string_ptr Pages: 1 -->
<svg width="331pt" height="100pt"
 viewBox="0.00 0.00 331.00 100.00" xmlns="http://www.w3.org/2000/svg" xmlns:xlink="http://www.w3.org/1999/xlink">
<g id="graph0" class="graph" transform="scale(1 1) rotate(0) translate(4 96.25)">
<title>print_string_ptr</title>
<!-- Node1 -->
<g id="Node000001" class="node">
<title>Node1</title>
<g id="a_Node000001"><a xlink:title=" ">
<polygon fill="#999999" stroke="#666666" points="80.5,-46.25 0,-46.25 0,-27 80.5,-27 80.5,-46.25"/>
<text xml:space="preserve" text-anchor="middle" x="40.25" y="-32.75" font-family="Helvetica,sans-Serif" font-size="10.00">print_string_ptr</text>
</a>
</g>
</g>
<!-- Node2 -->
<g id="Node000002" class="node">
<title>Node2</title>
<g id="a_Node000002"><a xlink:href="cJSON_8c.html#ad9f9a9b2ad3154fc8033756f23c023a6" target="_top" xlink:title=" ">
<polygon fill="white" stroke="#666666" points="161.75,-46.25 116.5,-46.25 116.5,-27 161.75,-27 161.75,-46.25"/>
<text xml:space="preserve" text-anchor="middle" x="139.12" y="-32.75" font-family="Helvetica,sans-Serif" font-size="10.00">ensure</text>
</a>
</g>
</g>
<!-- Node1&#45;&gt;Node2 -->
<g id="edge1_Node000001_Node000002" class="edge">
<title>Node1&#45;&gt;Node2</title>
<g id="a_edge1_Node000001_Node000002"><a xlink:title=" ">
<path fill="none" stroke="#63b8ff" d="M80.93,-36.62C88.82,-36.62 97.03,-36.62 104.68,-36.62"/>
<polygon fill="#63b8ff" stroke="#63b8ff" points="104.61,-40.13 114.61,-36.63 104.61,-33.13 104.61,-40.13"/>
</a>
</g>
</g>
<!-- Node3 -->
<g id="Node000003" class="node">
<title>Node3</title>
<g id="a_Node000003"><a xlink:href="structinternal__hooks.html#a8b8f7ff45faa5da18dd3ccd2a2c8e416" target="_top" xlink:title=" ">
<polygon fill="white" stroke="#666666" points="319.12,-74.25 201.88,-74.25 201.88,-55 319.12,-55 319.12,-74.25"/>
<text xml:space="preserve" text-anchor="middle" x="260.5" y="-60.75" font-family="Helvetica,sans-Serif" font-size="10.00">internal_hooks::allocate</text>
</a>
</g>
</g>
<!-- Node2&#45;&gt;Node3 -->
<g id="edge2_Node000002_Node000003" class="edge">
<title>Node2&#45;&gt;Node3</title>
<g id="a_edge2_Node000002_Node000003"><a xlink:title=" ">
<path fill="none" stroke="#63b8ff" d="M162.02,-41.76C174.26,-44.63 190.1,-48.35 205.45,-51.95"/>
<polygon fill="#63b8ff" stroke="#63b8ff" points="204.46,-55.31 215,-54.19 206.06,-48.5 204.46,-55.31"/>
</a>
</g>
</g>
<!-- Node4 -->
<g id="Node000004" class="node">
<title>Node4</title>
<g id="a_Node000004"><a xlink:href="structinternal__hooks.html#a7c3921493fab83f33cd509145d8a5393" target="_top" xlink:title=" ">
<polygon fill="white" stroke="#666666" points="323.25,-19.25 197.75,-19.25 197.75,0 323.25,0 323.25,-19.25"/>
<text xml:space="preserve" text-anchor="middle" x="260.5" y="-5.75" font-family="Helvetica,sans-Serif" font-size="10.00">internal_hooks::reallocate</text>
</a>
</g>
</g>
<!-- Node2&#45;&gt;Node4 -->
<g id="edge4_Node000002_Node000004" class="edge">
<title>Node2&#45;&gt;Node4</title>
<g id="a_edge4_Node000002_Node000004"><a xlink:title=" ">
<path fill="none" stroke="#63b8ff" d="M162.02,-31.67C173.82,-29 188.97,-25.58 203.79,-22.23"/>
<polygon fill="#63b8ff" stroke="#63b8ff" points="204.54,-25.64 213.52,-20.02 202.99,-18.82 204.54,-25.64"/>
</a>
</g>
</g>
<!-- Node3&#45;&gt;Node3 -->
<g id="edge3_Node000003_Node000003" class="edge">
<title>Node3&#45;&gt;Node3</title>
<g id="a_edge3_Node000003_Node000003"><a xlink:title=" ">
<path fill="none" stroke="#63b8ff" d="M241.5,-74.54C232.83,-83.15 239.16,-92.25 260.5,-92.25 272.17,-92.25 279.35,-89.53 282.04,-85.65"/>
<polygon fill="#63b8ff" stroke="#63b8ff" points="285.48,-84.98 279.84,-76.01 278.66,-86.54 285.48,-84.98"/>
</a>
</g>
</g>
<!-- Node4&#45;&gt;Node4 -->
<g id="edge5_Node000004_Node000004" class="edge">
<title>Node4&#45;&gt;Node4</title>
<g id="a_edge5_Node000004_Node000004"><a xlink:title=" ">
<path fill="none" stroke="#63b8ff" d="M241.5,-19.54C232.83,-28.15 239.16,-37.25 260.5,-37.25 272.17,-37.25 279.35,-34.53 282.04,-30.65"/>
<polygon fill="#63b8ff" stroke="#63b8ff" points="285.48,-29.98 279.84,-21.01 278.66,-31.54 285.48,-29.98"/>
</a>
</g>
</g>
</g>
</svg>
