<?xml version="1.0" encoding="UTF-8" standalone="no"?>
<!DOCTYPE svg PUBLIC "-//W3C//DTD SVG 1.1//EN"
 "http://www.w3.org/Graphics/SVG/1.1/DTD/svg11.dtd">
<!-- Generated by graphviz version 14.0.5 (0)
 -->
<!-- Title: cJSON_Duplicate_rec Pages: 1 -->
<svg width="409pt" height="64pt"
 viewBox="0.00 0.00 409.00 64.00" xmlns="http://www.w3.org/2000/svg" xmlns:xlink="http://www.w3.org/1999/xlink">
<g id="graph0" class="graph" transform="scale(1 1) rotate(0) translate(4 60.25)">
<title>cJSON_Duplicate_rec</title>
<!-- Node1 -->
<g id="Node000001" class="node">
<title>Node1</title>
<g id="a_Node000001"><a xlink:title=" ">
<polygon fill="#999999" stroke="#666666" points="112.75,-37.25 0,-37.25 0,-18 112.75,-18 112.75,-37.25"/>
<text xml:space="preserve" text-anchor="middle" x="56.38" y="-23.75" font-family="Helvetica,sans-Serif" font-size="10.00">cJSON_Duplicate_rec</text>
</a>
</g>
</g>
<!-- Node1&#45;&gt;Node1 -->
<g id="edge1_Node000001_Node000001" class="edge">
<title>Node1&#45;&gt;Node1</title>
<g id="a_edge1_Node000001_Node000001"><a xlink:title=" ">
<path fill="none" stroke="#63b8ff" d="M34.2,-37.54C24.09,-46.15 31.48,-55.25 56.38,-55.25 69.99,-55.25 78.37,-52.53 81.51,-48.65"/>
<polygon fill="#63b8ff" stroke="#63b8ff" points="84.9,-47.76 78.94,-39 78.13,-49.56 84.9,-47.76"/>
</a>
</g>
</g>
<!-- Node2 -->
<g id="Node000002" class="node">
<title>Node2</title>
<g id="a_Node000002"><a xlink:href="cJSON_8c.html#aa05c1f56de8779ae1584c525cc81aeb5" target="_top" xlink:title=" ">
<polygon fill="white" stroke="#666666" points="247.25,-56.25 148.75,-56.25 148.75,-37 247.25,-37 247.25,-56.25"/>
<text xml:space="preserve" text-anchor="middle" x="198" y="-42.75" font-family="Helvetica,sans-Serif" font-size="10.00">cJSON_New_Item</text>
</a>
</g>
</g>
<!-- Node1&#45;&gt;Node2 -->
<g id="edge2_Node000001_Node000002" class="edge">
<title>Node1&#45;&gt;Node2</title>
<g id="a_edge2_Node000001_Node000002"><a xlink:title=" ">
<path fill="none" stroke="#63b8ff" d="M112.96,-35.19C120.92,-36.27 129.14,-37.39 137.18,-38.48"/>
<polygon fill="#63b8ff" stroke="#63b8ff" points="136.49,-41.92 146.87,-39.8 137.44,-34.99 136.49,-41.92"/>
</a>
</g>
</g>
<!-- Node4 -->
<g id="Node000004" class="node">
<title>Node4</title>
<g id="a_Node000004"><a xlink:href="cJSON_8c.html#a15067642a12599c13a0e6c0da9009be7" target="_top" xlink:title=" ">
<polygon fill="white" stroke="#666666" points="238.25,-19.25 157.75,-19.25 157.75,0 238.25,0 238.25,-19.25"/>
<text xml:space="preserve" text-anchor="middle" x="198" y="-5.75" font-family="Helvetica,sans-Serif" font-size="10.00">cJSON_strdup</text>
</a>
</g>
</g>
<!-- Node1&#45;&gt;Node4 -->
<g id="edge5_Node000001_Node000004" class="edge">
<title>Node1&#45;&gt;Node4</title>
<g id="a_edge5_Node000001_Node000004"><a xlink:title=" ">
<path fill="none" stroke="#63b8ff" d="M112.96,-20.46C123.91,-19.05 135.34,-17.57 146.12,-16.18"/>
<polygon fill="#63b8ff" stroke="#63b8ff" points="146.54,-19.66 156.01,-14.91 145.64,-12.72 146.54,-19.66"/>
</a>
</g>
</g>
<!-- Node3 -->
<g id="Node000003" class="node">
<title>Node3</title>
<g id="a_Node000003"><a xlink:href="structinternal__hooks.html#a8b8f7ff45faa5da18dd3ccd2a2c8e416" target="_top" xlink:title=" ">
<polygon fill="white" stroke="#666666" points="400.5,-37.25 283.25,-37.25 283.25,-18 400.5,-18 400.5,-37.25"/>
<text xml:space="preserve" text-anchor="middle" x="341.88" y="-23.75" font-family="Helvetica,sans-Serif" font-size="10.00">internal_hooks::allocate</text>
</a>
</g>
</g>
<!-- Node2&#45;&gt;Node3 -->
<g id="edge3_Node000002_Node000003" class="edge">
<title>Node2&#45;&gt;Node3</title>
<g id="a_edge3_Node000002_Node000003"><a xlink:title=" ">
<path fill="none" stroke="#63b8ff" d="M247.43,-40.14C255.27,-39.09 263.51,-37.99 271.72,-36.89"/>
<polygon fill="#63b8ff" stroke="#63b8ff" points="271.92,-40.39 281.36,-35.59 270.99,-33.45 271.92,-40.39"/>
</a>
</g>
</g>
<!-- Node3&#45;&gt;Node3 -->
<g id="edge4_Node000003_Node000003" class="edge">
<title>Node3&#45;&gt;Node3</title>
<g id="a_edge4_Node000003_Node000003"><a xlink:title=" ">
<path fill="none" stroke="#63b8ff" d="M319.35,-37.54C309.08,-46.15 316.58,-55.25 341.88,-55.25 356.1,-55.25 364.7,-52.37 367.67,-48.32"/>
<polygon fill="#63b8ff" stroke="#63b8ff" points="371.09,-47.54 364.84,-38.99 364.4,-49.57 371.09,-47.54"/>
</a>
</g>
</g>
<!-- Node4&#45;&gt;Node3 -->
<g id="edge6_Node000004_Node000003" class="edge">
<title>Node4&#45;&gt;Node3</title>
<g id="a_edge6_Node000004_Node000003"><a xlink:title=" ">
<path fill="none" stroke="#63b8ff" d="M238.52,-14.64C248.85,-15.95 260.3,-17.4 271.68,-18.85"/>
<polygon fill="#63b8ff" stroke="#63b8ff" points="271.14,-22.31 281.5,-20.09 272.02,-15.36 271.14,-22.31"/>
</a>
</g>
</g>
</g>
</svg>
