<?xml version="1.0" encoding="UTF-8" standalone="no"?>
<!DOCTYPE svg PUBLIC "-//W3C//DTD SVG 1.1//EN"
 "http://www.w3.org/Graphics/SVG/1.1/DTD/svg11.dtd">
<!-- Generated by graphviz version 14.0.5 (0)
 -->
<!-- Title: update_offset Pages: 1 -->
<svg width="407pt" height="101pt"
 viewBox="0.00 0.00 407.00 101.00" xmlns="http://www.w3.org/2000/svg" xmlns:xlink="http://www.w3.org/1999/xlink">
<g id="graph0" class="graph" transform="scale(1 1) rotate(0) translate(4 97.25)">
<title>update_offset</title>
<!-- Node1 -->
<g id="Node000001" class="node">
<title>Node1</title>
<g id="a_Node000001"><a xlink:title=" ">
<polygon fill="#999999" stroke="#666666" points="398.5,-56.25 324,-56.25 324,-37 398.5,-37 398.5,-56.25"/>
<text xml:space="preserve" text-anchor="middle" x="361.25" y="-42.75" font-family="Helvetica,sans-Serif" font-size="10.00">update_offset</text>
</a>
</g>
</g>
<!-- Node2 -->
<g id="Node000002" class="node">
<title>Node2</title>
<g id="a_Node000002"><a xlink:href="cJSON_8c.html#a36b0c212c0d382a4714afa8b70c1a2ee" target="_top" xlink:title=" ">
<polygon fill="white" stroke="#666666" points="63.25,-93.25 28.5,-93.25 28.5,-74 63.25,-74 63.25,-93.25"/>
<text xml:space="preserve" text-anchor="middle" x="45.88" y="-79.75" font-family="Helvetica,sans-Serif" font-size="10.00">print</text>
</a>
</g>
</g>
<!-- Node1&#45;&gt;Node2 -->
<g id="edge1_Node000001_Node000002" class="edge">
<title>Node1&#45;&gt;Node2</title>
<g id="a_edge1_Node000001_Node000002"><a xlink:title=" ">
<path fill="none" stroke="#63b8ff" d="M316.13,-59.59C306.9,-61.92 297.19,-64.09 288,-65.62 204.57,-79.59 103.09,-82.72 63.66,-83.42"/>
<polygon fill="#63b8ff" stroke="#63b8ff" points="316.83,-63.03 325.61,-57.09 315.05,-56.26 316.83,-63.03"/>
</a>
</g>
</g>
<!-- Node3 -->
<g id="Node000003" class="node">
<title>Node3</title>
<g id="a_Node000003"><a xlink:href="cJSON_8c.html#ae84642817f3965a85c7c617663250c16" target="_top" xlink:title=" ">
<polygon fill="white" stroke="#666666" points="288,-56.25 227,-56.25 227,-37 288,-37 288,-56.25"/>
<text xml:space="preserve" text-anchor="middle" x="257.5" y="-42.75" font-family="Helvetica,sans-Serif" font-size="10.00">print_array</text>
</a>
</g>
</g>
<!-- Node1&#45;&gt;Node3 -->
<g id="edge2_Node000001_Node000003" class="edge">
<title>Node1&#45;&gt;Node3</title>
<g id="a_edge2_Node000001_Node000003"><a xlink:title=" ">
<path fill="none" stroke="#63b8ff" d="M312.23,-46.62C304.14,-46.62 295.96,-46.62 288.5,-46.62"/>
<polygon fill="#63b8ff" stroke="#63b8ff" points="312,-50.13 322,-46.63 312,-43.13 312,-50.13"/>
</a>
</g>
</g>
<!-- Node6 -->
<g id="Node000006" class="node">
<title>Node6</title>
<g id="a_Node000006"><a xlink:href="cJSON_8c.html#a3d742f5c68799bca291432a9cd72f8dd" target="_top" xlink:title=" ">
<polygon fill="white" stroke="#666666" points="79,-19.25 12.75,-19.25 12.75,0 79,0 79,-19.25"/>
<text xml:space="preserve" text-anchor="middle" x="45.88" y="-5.75" font-family="Helvetica,sans-Serif" font-size="10.00">print_object</text>
</a>
</g>
</g>
<!-- Node1&#45;&gt;Node6 -->
<g id="edge9_Node000001_Node000006" class="edge">
<title>Node1&#45;&gt;Node6</title>
<g id="a_edge9_Node000001_Node000006"><a xlink:title=" ">
<path fill="none" stroke="#63b8ff" d="M316.13,-33.66C306.9,-31.33 297.19,-29.16 288,-27.62 214.1,-15.26 126.02,-11.38 79.47,-10.17"/>
<polygon fill="#63b8ff" stroke="#63b8ff" points="315.05,-36.99 325.61,-36.16 316.83,-30.22 315.05,-36.99"/>
</a>
</g>
</g>
<!-- Node4 -->
<g id="Node000004" class="node">
<title>Node4</title>
<g id="a_Node000004"><a xlink:href="cJSON_8c.html#a5ba141f183b9abb4b49e38a211299c7e" target="_top" xlink:title=" ">
<polygon fill="white" stroke="#666666" points="191,-56.25 127.75,-56.25 127.75,-37 191,-37 191,-56.25"/>
<text xml:space="preserve" text-anchor="middle" x="159.38" y="-42.75" font-family="Helvetica,sans-Serif" font-size="10.00">print_value</text>
</a>
</g>
</g>
<!-- Node3&#45;&gt;Node4 -->
<g id="edge3_Node000003_Node000004" class="edge">
<title>Node3&#45;&gt;Node4</title>
<g id="a_edge3_Node000003_Node000004"><a xlink:title=" ">
<path fill="none" stroke="#63b8ff" d="M215.15,-39.93C207.13,-39.79 198.85,-39.91 191.24,-40.27"/>
<polygon fill="#63b8ff" stroke="#63b8ff" points="214.99,-43.43 225.1,-40.27 215.22,-36.43 214.99,-43.43"/>
</a>
</g>
</g>
<!-- Node4&#45;&gt;Node2 -->
<g id="edge5_Node000004_Node000002" class="edge">
<title>Node4&#45;&gt;Node2</title>
<g id="a_edge5_Node000004_Node000002"><a xlink:title=" ">
<path fill="none" stroke="#63b8ff" d="M117.02,-60.35C98.45,-66.51 77.6,-73.43 63.49,-78.11"/>
<polygon fill="#63b8ff" stroke="#63b8ff" points="118.08,-63.68 126.47,-57.21 115.88,-57.04 118.08,-63.68"/>
</a>
</g>
</g>
<!-- Node4&#45;&gt;Node3 -->
<g id="edge6_Node000004_Node000003" class="edge">
<title>Node4&#45;&gt;Node3</title>
<g id="a_edge6_Node000004_Node000003"><a xlink:title=" ">
<path fill="none" stroke="#63b8ff" d="M202.48,-53.33C210.61,-53.46 218.97,-53.32 226.61,-52.93"/>
<polygon fill="#63b8ff" stroke="#63b8ff" points="202.86,-49.84 192.75,-53.02 202.64,-56.84 202.86,-49.84"/>
</a>
</g>
</g>
<!-- Node5 -->
<g id="Node000005" class="node">
<title>Node5</title>
<g id="a_Node000005"><a xlink:href="cJSON_8c.html#aed7e219a2b9187880c97c6f0ea5fa1b4" target="_top" xlink:title=" ">
<polygon fill="white" stroke="#666666" points="91.75,-56.25 0,-56.25 0,-37 91.75,-37 91.75,-56.25"/>
<text xml:space="preserve" text-anchor="middle" x="45.88" y="-42.75" font-family="Helvetica,sans-Serif" font-size="10.00">CJSON_PUBLIC</text>
</a>
</g>
</g>
<!-- Node4&#45;&gt;Node5 -->
<g id="edge4_Node000004_Node000005" class="edge">
<title>Node4&#45;&gt;Node5</title>
<g id="a_edge4_Node000004_Node000005"><a xlink:title=" ">
<path fill="none" stroke="#63b8ff" d="M115.82,-46.62C108.01,-46.62 99.82,-46.62 91.94,-46.62"/>
<polygon fill="#63b8ff" stroke="#63b8ff" points="115.8,-50.13 125.8,-46.63 115.8,-43.13 115.8,-50.13"/>
</a>
</g>
</g>
<!-- Node4&#45;&gt;Node6 -->
<g id="edge7_Node000004_Node000006" class="edge">
<title>Node4&#45;&gt;Node6</title>
<g id="a_edge7_Node000004_Node000006"><a xlink:title=" ">
<path fill="none" stroke="#63b8ff" d="M132.7,-32.32C116.79,-25.91 96.21,-18.94 79.19,-14.16"/>
<polygon fill="#63b8ff" stroke="#63b8ff" points="130.91,-35.36 141.48,-36.04 133.64,-28.91 130.91,-35.36"/>
</a>
</g>
</g>
<!-- Node6&#45;&gt;Node4 -->
<g id="edge8_Node000006_Node000004" class="edge">
<title>Node6&#45;&gt;Node4</title>
<g id="a_edge8_Node000006_Node000004"><a xlink:title=" ">
<path fill="none" stroke="#63b8ff" d="M72.78,-24.02C89.05,-30.57 110.14,-37.67 127.32,-42.44"/>
<polygon fill="#63b8ff" stroke="#63b8ff" points="74.35,-20.89 63.78,-20.21 71.62,-27.33 74.35,-20.89"/>
</a>
</g>
</g>
</g>
</svg>
