<?xml version="1.0" encoding="UTF-8" standalone="no"?>
<!DOCTYPE svg PUBLIC "-//W3C//DTD SVG 1.1//EN"
 "http://www.w3.org/Graphics/SVG/1.1/DTD/svg11.dtd">
<!-- Generated by graphviz version 14.0.5 (0)
 -->
<!-- Title: print_array Pages: 1 -->
<svg width="650pt" height="267pt"
 viewBox="0.00 0.00 650.00 267.00" xmlns="http://www.w3.org/2000/svg" xmlns:xlink="http://www.w3.org/1999/xlink">
<g id="graph0" class="graph" transform="scale(1 1) rotate(0) translate(4 262.67)">
<title>print_array</title>
<!-- Node1 -->
<g id="Node000001" class="node">
<title>Node1</title>
<g id="a_Node000001"><a xlink:title=" ">
<polygon fill="#999999" stroke="#666666" points="61,-69.67 0,-69.67 0,-50.42 61,-50.42 61,-69.67"/>
<text xml:space="preserve" text-anchor="middle" x="30.5" y="-56.17" font-family="Helvetica,sans-Serif" font-size="10.00">print_array</text>
</a>
</g>
</g>
<!-- Node2 -->
<g id="Node000002" class="node">
<title>Node2</title>
<g id="a_Node000002"><a xlink:href="cJSON_8c.html#ad9f9a9b2ad3154fc8033756f23c023a6" target="_top" xlink:title=" ">
<polygon fill="white" stroke="#666666" points="480.5,-107.67 435.25,-107.67 435.25,-88.42 480.5,-88.42 480.5,-107.67"/>
<text xml:space="preserve" text-anchor="middle" x="457.88" y="-94.17" font-family="Helvetica,sans-Serif" font-size="10.00">ensure</text>
</a>
</g>
</g>
<!-- Node1&#45;&gt;Node2 -->
<g id="edge1_Node000001_Node000002" class="edge">
<title>Node1&#45;&gt;Node2</title>
<g id="a_edge1_Node000001_Node000002"><a xlink:title=" ">
<path fill="none" stroke="#63b8ff" d="M54.5,-49.97C114.68,-25.2 280.36,32.57 399.25,-25.05 421.76,-35.96 438.14,-60.4 447.55,-78"/>
<polygon fill="#63b8ff" stroke="#63b8ff" points="444.34,-79.4 451.94,-86.78 450.6,-76.27 444.34,-79.4"/>
</a>
</g>
</g>
<!-- Node5 -->
<g id="Node000005" class="node">
<title>Node5</title>
<g id="a_Node000005"><a xlink:href="cJSON_8c.html#a5ba141f183b9abb4b49e38a211299c7e" target="_top" xlink:title=" ">
<polygon fill="white" stroke="#666666" points="160.25,-107.67 97,-107.67 97,-88.42 160.25,-88.42 160.25,-107.67"/>
<text xml:space="preserve" text-anchor="middle" x="128.62" y="-94.17" font-family="Helvetica,sans-Serif" font-size="10.00">print_value</text>
</a>
</g>
</g>
<!-- Node1&#45;&gt;Node5 -->
<g id="edge6_Node000001_Node000005" class="edge">
<title>Node1&#45;&gt;Node5</title>
<g id="a_edge6_Node000001_Node000005"><a xlink:title=" ">
<path fill="none" stroke="#63b8ff" d="M61.39,-65.56C75.34,-70.35 91.68,-76.96 104.65,-83.11"/>
<polygon fill="#63b8ff" stroke="#63b8ff" points="102.75,-86.07 113.26,-87.43 105.89,-79.82 102.75,-86.07"/>
</a>
</g>
</g>
<!-- Node11 -->
<g id="Node000011" class="node">
<title>Node11</title>
<g id="a_Node000011"><a xlink:href="cJSON_8c.html#af5fb173126786c1e3f90b6df6e2500c5" target="_top" xlink:title=" ">
<polygon fill="white" stroke="#666666" points="389.12,-69.67 314.62,-69.67 314.62,-50.42 389.12,-50.42 389.12,-69.67"/>
<text xml:space="preserve" text-anchor="middle" x="351.88" y="-56.17" font-family="Helvetica,sans-Serif" font-size="10.00">update_offset</text>
</a>
</g>
</g>
<!-- Node1&#45;&gt;Node11 -->
<g id="edge21_Node000001_Node000011" class="edge">
<title>Node1&#45;&gt;Node11</title>
<g id="a_edge21_Node000001_Node000011"><a xlink:title=" ">
<path fill="none" stroke="#63b8ff" d="M61.26,-60.05C116.62,-60.05 235.89,-60.05 302.82,-60.05"/>
<polygon fill="#63b8ff" stroke="#63b8ff" points="302.77,-63.55 312.77,-60.05 302.77,-56.55 302.77,-63.55"/>
</a>
</g>
</g>
<!-- Node3 -->
<g id="Node000003" class="node">
<title>Node3</title>
<g id="a_Node000003"><a xlink:href="structinternal__hooks.html#a8b8f7ff45faa5da18dd3ccd2a2c8e416" target="_top" xlink:title=" ">
<polygon fill="white" stroke="#666666" points="637.88,-135.67 520.62,-135.67 520.62,-116.42 637.88,-116.42 637.88,-135.67"/>
<text xml:space="preserve" text-anchor="middle" x="579.25" y="-122.17" font-family="Helvetica,sans-Serif" font-size="10.00">internal_hooks::allocate</text>
</a>
</g>
</g>
<!-- Node2&#45;&gt;Node3 -->
<g id="edge2_Node000002_Node000003" class="edge">
<title>Node2&#45;&gt;Node3</title>
<g id="a_edge2_Node000002_Node000003"><a xlink:title=" ">
<path fill="none" stroke="#63b8ff" d="M480.77,-103.18C493.01,-106.05 508.85,-109.77 524.2,-113.37"/>
<polygon fill="#63b8ff" stroke="#63b8ff" points="523.21,-116.73 533.75,-115.61 524.81,-109.92 523.21,-116.73"/>
</a>
</g>
</g>
<!-- Node4 -->
<g id="Node000004" class="node">
<title>Node4</title>
<g id="a_Node000004"><a xlink:href="structinternal__hooks.html#a7c3921493fab83f33cd509145d8a5393" target="_top" xlink:title=" ">
<polygon fill="white" stroke="#666666" points="642,-80.67 516.5,-80.67 516.5,-61.42 642,-61.42 642,-80.67"/>
<text xml:space="preserve" text-anchor="middle" x="579.25" y="-67.17" font-family="Helvetica,sans-Serif" font-size="10.00">internal_hooks::reallocate</text>
</a>
</g>
</g>
<!-- Node2&#45;&gt;Node4 -->
<g id="edge4_Node000002_Node000004" class="edge">
<title>Node2&#45;&gt;Node4</title>
<g id="a_edge4_Node000002_Node000004"><a xlink:title=" ">
<path fill="none" stroke="#63b8ff" d="M480.77,-93.09C492.57,-90.42 507.72,-87 522.54,-83.65"/>
<polygon fill="#63b8ff" stroke="#63b8ff" points="523.29,-87.07 532.27,-81.45 521.74,-80.24 523.29,-87.07"/>
</a>
</g>
</g>
<!-- Node3&#45;&gt;Node3 -->
<g id="edge3_Node000003_Node000003" class="edge">
<title>Node3&#45;&gt;Node3</title>
<g id="a_edge3_Node000003_Node000003"><a xlink:title=" ">
<path fill="none" stroke="#63b8ff" d="M560.25,-135.96C551.58,-144.57 557.91,-153.67 579.25,-153.67 590.92,-153.67 598.1,-150.95 600.79,-147.07"/>
<polygon fill="#63b8ff" stroke="#63b8ff" points="604.23,-146.4 598.59,-137.43 597.41,-147.96 604.23,-146.4"/>
</a>
</g>
</g>
<!-- Node4&#45;&gt;Node4 -->
<g id="edge5_Node000004_Node000004" class="edge">
<title>Node4&#45;&gt;Node4</title>
<g id="a_edge5_Node000004_Node000004"><a xlink:title=" ">
<path fill="none" stroke="#63b8ff" d="M560.25,-80.96C551.58,-89.57 557.91,-98.67 579.25,-98.67 590.92,-98.67 598.1,-95.95 600.79,-92.07"/>
<polygon fill="#63b8ff" stroke="#63b8ff" points="604.23,-91.4 598.59,-82.43 597.41,-92.96 604.23,-91.4"/>
</a>
</g>
</g>
<!-- Node5&#45;&gt;Node1 -->
<g id="edge8_Node000005_Node000001" class="edge">
<title>Node5&#45;&gt;Node1</title>
<g id="a_edge8_Node000005_Node000001"><a xlink:title=" ">
<path fill="none" stroke="#63b8ff" d="M96.7,-92.17C83.03,-87.43 67.23,-81.02 54.61,-75.05"/>
<polygon fill="#63b8ff" stroke="#63b8ff" points="56.32,-71.99 45.82,-70.64 53.19,-78.25 56.32,-71.99"/>
</a>
</g>
</g>
<!-- Node5&#45;&gt;Node2 -->
<g id="edge7_Node000005_Node000002" class="edge">
<title>Node5&#45;&gt;Node2</title>
<g id="a_edge7_Node000005_Node000002"><a xlink:title=" ">
<path fill="none" stroke="#63b8ff" d="M146.03,-88.08C189.05,-63.32 308.09,-3.58 399.25,-41.05 417.89,-48.71 433.71,-65.64 444.03,-79.07"/>
<polygon fill="#63b8ff" stroke="#63b8ff" points="440.95,-80.78 449.65,-86.82 446.62,-76.67 440.95,-80.78"/>
</a>
</g>
</g>
<!-- Node6 -->
<g id="Node000006" class="node">
<title>Node6</title>
<g id="a_Node000006"><a xlink:href="cJSON_8c.html#ad93d84de08872da0eaa6624be0e74a68" target="_top" xlink:title=" ">
<polygon fill="white" stroke="#666666" points="268.5,-202.67 196.25,-202.67 196.25,-183.42 268.5,-183.42 268.5,-202.67"/>
<text xml:space="preserve" text-anchor="middle" x="232.38" y="-189.17" font-family="Helvetica,sans-Serif" font-size="10.00">print_number</text>
</a>
</g>
</g>
<!-- Node5&#45;&gt;Node6 -->
<g id="edge9_Node000005_Node000006" class="edge">
<title>Node5&#45;&gt;Node6</title>
<g id="a_edge9_Node000005_Node000006"><a xlink:title=" ">
<path fill="none" stroke="#63b8ff" d="M140.13,-107.85C157.19,-123.78 191.16,-155.49 212.49,-175.41"/>
<polygon fill="#63b8ff" stroke="#63b8ff" points="209.97,-177.85 219.67,-182.12 214.75,-172.73 209.97,-177.85"/>
</a>
</g>
</g>
<!-- Node9 -->
<g id="Node000009" class="node">
<title>Node9</title>
<g id="a_Node000009"><a xlink:href="cJSON_8c.html#a3d742f5c68799bca291432a9cd72f8dd" target="_top" xlink:title=" ">
<polygon fill="white" stroke="#666666" points="265.5,-107.67 199.25,-107.67 199.25,-88.42 265.5,-88.42 265.5,-107.67"/>
<text xml:space="preserve" text-anchor="middle" x="232.38" y="-94.17" font-family="Helvetica,sans-Serif" font-size="10.00">print_object</text>
</a>
</g>
</g>
<!-- Node5&#45;&gt;Node9 -->
<g id="edge13_Node000005_Node000009" class="edge">
<title>Node5&#45;&gt;Node9</title>
<g id="a_edge13_Node000005_Node000009"><a xlink:title=" ">
<path fill="none" stroke="#63b8ff" d="M160.71,-91.77C169.25,-91.34 178.68,-91.2 187.8,-91.36"/>
<polygon fill="#63b8ff" stroke="#63b8ff" points="187.46,-94.85 197.56,-91.67 187.68,-87.85 187.46,-94.85"/>
</a>
</g>
</g>
<!-- Node12 -->
<g id="Node000012" class="node">
<title>Node12</title>
<g id="a_Node000012"><a xlink:href="cJSON_8c.html#ad087dd738e49b4258f0a3d378a121df6" target="_top" xlink:title=" ">
<polygon fill="white" stroke="#666666" points="264.38,-145.67 200.38,-145.67 200.38,-126.42 264.38,-126.42 264.38,-145.67"/>
<text xml:space="preserve" text-anchor="middle" x="232.38" y="-132.17" font-family="Helvetica,sans-Serif" font-size="10.00">print_string</text>
</a>
</g>
</g>
<!-- Node5&#45;&gt;Node12 -->
<g id="edge19_Node000005_Node000012" class="edge">
<title>Node5&#45;&gt;Node12</title>
<g id="a_edge19_Node000005_Node000012"><a xlink:title=" ">
<path fill="none" stroke="#63b8ff" d="M156.62,-108.13C168.1,-112.42 181.67,-117.48 194.08,-122.12"/>
<polygon fill="#63b8ff" stroke="#63b8ff" points="192.59,-125.3 203.18,-125.52 195.04,-118.74 192.59,-125.3"/>
</a>
</g>
</g>
<!-- Node6&#45;&gt;Node2 -->
<g id="edge11_Node000006_Node000002" class="edge">
<title>Node6&#45;&gt;Node2</title>
<g id="a_edge11_Node000006_Node000002"><a xlink:title=" ">
<path fill="none" stroke="#63b8ff" d="M268.71,-190.59C303.73,-186.91 357.95,-177.74 399.25,-155.05 416.55,-145.54 432.19,-129.34 442.79,-116.64"/>
<polygon fill="#63b8ff" stroke="#63b8ff" points="445.42,-118.95 448.92,-108.95 439.95,-114.59 445.42,-118.95"/>
</a>
</g>
</g>
<!-- Node7 -->
<g id="Node000007" class="node">
<title>Node7</title>
<g id="a_Node000007"><a xlink:href="cJSON_8c.html#aa7a85b63f1830e7e666e1f56872d5d3e" target="_top" xlink:title=" ">
<polygon fill="white" stroke="#666666" points="395.5,-258.67 308.25,-258.67 308.25,-239.42 395.5,-239.42 395.5,-258.67"/>
<text xml:space="preserve" text-anchor="middle" x="351.88" y="-245.17" font-family="Helvetica,sans-Serif" font-size="10.00">compare_double</text>
</a>
</g>
</g>
<!-- Node6&#45;&gt;Node7 -->
<g id="edge10_Node000006_Node000007" class="edge">
<title>Node6&#45;&gt;Node7</title>
<g id="a_edge10_Node000006_Node000007"><a xlink:title=" ">
<path fill="none" stroke="#63b8ff" d="M250.62,-203.01C264.84,-211.05 285.67,-222.4 304.5,-231.05 307.11,-232.24 309.82,-233.43 312.57,-234.6"/>
<polygon fill="#63b8ff" stroke="#63b8ff" points="311.2,-237.82 321.78,-238.35 313.84,-231.34 311.2,-237.82"/>
</a>
</g>
</g>
<!-- Node8 -->
<g id="Node000008" class="node">
<title>Node8</title>
<g id="a_Node000008"><a xlink:href="cJSON_8c.html#ab25412ae56c8c594831918169bea100d" target="_top" xlink:title=" ">
<polygon fill="white" stroke="#666666" points="399.25,-221.67 304.5,-221.67 304.5,-202.42 399.25,-202.42 399.25,-221.67"/>
<text xml:space="preserve" text-anchor="middle" x="351.88" y="-208.17" font-family="Helvetica,sans-Serif" font-size="10.00">get_decimal_point</text>
</a>
</g>
</g>
<!-- Node6&#45;&gt;Node8 -->
<g id="edge12_Node000006_Node000008" class="edge">
<title>Node6&#45;&gt;Node8</title>
<g id="a_edge12_Node000006_Node000008"><a xlink:title=" ">
<path fill="none" stroke="#63b8ff" d="M268.95,-198.8C276.56,-200.03 284.8,-201.36 293.01,-202.69"/>
<polygon fill="#63b8ff" stroke="#63b8ff" points="292.21,-206.1 302.64,-204.25 293.33,-199.19 292.21,-206.1"/>
</a>
</g>
</g>
<!-- Node9&#45;&gt;Node2 -->
<g id="edge14_Node000009_Node000002" class="edge">
<title>Node9&#45;&gt;Node2</title>
<g id="a_edge14_Node000009_Node000002"><a xlink:title=" ">
<path fill="none" stroke="#63b8ff" d="M265.87,-98.05C307.95,-98.05 380.9,-98.05 423.43,-98.05"/>
<polygon fill="#63b8ff" stroke="#63b8ff" points="423.31,-101.55 433.31,-98.05 423.31,-94.55 423.31,-101.55"/>
</a>
</g>
</g>
<!-- Node9&#45;&gt;Node5 -->
<g id="edge17_Node000009_Node000005" class="edge">
<title>Node9&#45;&gt;Node5</title>
<g id="a_edge17_Node000009_Node000005"><a xlink:title=" ">
<path fill="none" stroke="#63b8ff" d="M199.08,-104.38C190.45,-104.78 180.99,-104.89 171.91,-104.71"/>
<polygon fill="#63b8ff" stroke="#63b8ff" points="172.33,-101.22 162.22,-104.37 172.09,-108.22 172.33,-101.22"/>
</a>
</g>
</g>
<!-- Node10 -->
<g id="Node000010" class="node">
<title>Node10</title>
<g id="a_Node000010"><a xlink:href="cJSON_8c.html#af5b4e769356f10d99a7f66697c42c1bb" target="_top" xlink:title=" ">
<polygon fill="white" stroke="#666666" points="392.12,-145.67 311.62,-145.67 311.62,-126.42 392.12,-126.42 392.12,-145.67"/>
<text xml:space="preserve" text-anchor="middle" x="351.88" y="-132.17" font-family="Helvetica,sans-Serif" font-size="10.00">print_string_ptr</text>
</a>
</g>
</g>
<!-- Node9&#45;&gt;Node10 -->
<g id="edge15_Node000009_Node000010" class="edge">
<title>Node9&#45;&gt;Node10</title>
<g id="a_edge15_Node000009_Node000010"><a xlink:title=" ">
<path fill="none" stroke="#63b8ff" d="M264.55,-108.13C278.21,-112.54 294.43,-117.79 309.1,-122.54"/>
<polygon fill="#63b8ff" stroke="#63b8ff" points="307.93,-125.83 318.52,-125.58 310.08,-119.17 307.93,-125.83"/>
</a>
</g>
</g>
<!-- Node9&#45;&gt;Node11 -->
<g id="edge18_Node000009_Node000011" class="edge">
<title>Node9&#45;&gt;Node11</title>
<g id="a_edge18_Node000009_Node000011"><a xlink:title=" ">
<path fill="none" stroke="#63b8ff" d="M264.55,-87.96C278.21,-83.55 294.43,-78.3 309.1,-73.55"/>
<polygon fill="#63b8ff" stroke="#63b8ff" points="310.08,-76.92 318.52,-70.51 307.93,-70.26 310.08,-76.92"/>
</a>
</g>
</g>
<!-- Node10&#45;&gt;Node2 -->
<g id="edge16_Node000010_Node000002" class="edge">
<title>Node10&#45;&gt;Node2</title>
<g id="a_edge16_Node000010_Node000002"><a xlink:title=" ">
<path fill="none" stroke="#63b8ff" d="M380.47,-125.96C393.96,-121.04 410.27,-115.07 424.36,-109.93"/>
<polygon fill="#63b8ff" stroke="#63b8ff" points="425.47,-113.25 433.66,-106.53 423.07,-106.67 425.47,-113.25"/>
</a>
</g>
</g>
<!-- Node12&#45;&gt;Node10 -->
<g id="edge20_Node000012_Node000010" class="edge">
<title>Node12&#45;&gt;Node10</title>
<g id="a_edge20_Node000012_Node000010"><a xlink:title=" ">
<path fill="none" stroke="#63b8ff" d="M264.86,-136.05C275.68,-136.05 288.08,-136.05 300.04,-136.05"/>
<polygon fill="#63b8ff" stroke="#63b8ff" points="299.79,-139.55 309.79,-136.05 299.79,-132.55 299.79,-139.55"/>
</a>
</g>
</g>
</g>
</svg>
