<?xml version="1.0" encoding="UTF-8" standalone="no"?>
<!DOCTYPE svg PUBLIC "-//W3C//DTD SVG 1.1//EN"
 "http://www.w3.org/Graphics/SVG/1.1/DTD/svg11.dtd">
<!-- Generated by graphviz version 14.0.5 (0)
 -->
<!-- Title: parse_object Pages: 1 -->
<svg width="605pt" height="216pt"
 viewBox="0.00 0.00 605.00 216.00" xmlns="http://www.w3.org/2000/svg" xmlns:xlink="http://www.w3.org/1999/xlink">
<g id="graph0" class="graph" transform="scale(1 1) rotate(0) translate(4 212.25)">
<title>parse_object</title>
<!-- Node1 -->
<g id="Node000001" class="node">
<title>Node1</title>
<g id="a_Node000001"><a xlink:title=" ">
<polygon fill="#999999" stroke="#666666" points="71.5,-132.25 0,-132.25 0,-113 71.5,-113 71.5,-132.25"/>
<text xml:space="preserve" text-anchor="middle" x="35.75" y="-118.75" font-family="Helvetica,sans-Serif" font-size="10.00">parse_object</text>
</a>
</g>
</g>
<!-- Node2 -->
<g id="Node000002" class="node">
<title>Node2</title>
<g id="a_Node000002"><a xlink:href="cJSON_8c.html#a0a9c3a7f6f01d4a8d9c552fa82274b4b" target="_top" xlink:title=" ">
<polygon fill="white" stroke="#666666" points="443.5,-208.25 325.5,-208.25 325.5,-189 443.5,-189 443.5,-208.25"/>
<text xml:space="preserve" text-anchor="middle" x="384.5" y="-194.75" font-family="Helvetica,sans-Serif" font-size="10.00">buffer_skip_whitespace</text>
</a>
</g>
</g>
<!-- Node1&#45;&gt;Node2 -->
<g id="edge1_Node000001_Node000002" class="edge">
<title>Node1&#45;&gt;Node2</title>
<g id="a_edge1_Node000001_Node000002"><a xlink:title=" ">
<path fill="none" stroke="#63b8ff" d="M52.09,-132.62C65.98,-141.18 87.31,-153.13 107.5,-159.62 175.6,-181.52 257.07,-191.13 313.77,-195.35"/>
<polygon fill="#63b8ff" stroke="#63b8ff" points="313.4,-198.83 323.62,-196.04 313.89,-191.85 313.4,-198.83"/>
</a>
</g>
</g>
<!-- Node3 -->
<g id="Node000003" class="node">
<title>Node3</title>
<g id="a_Node000003"><a xlink:href="cJSON_8c.html#aa05c1f56de8779ae1584c525cc81aeb5" target="_top" xlink:title=" ">
<polygon fill="white" stroke="#666666" points="433.75,-171.25 335.25,-171.25 335.25,-152 433.75,-152 433.75,-171.25"/>
<text xml:space="preserve" text-anchor="middle" x="384.5" y="-157.75" font-family="Helvetica,sans-Serif" font-size="10.00">cJSON_New_Item</text>
</a>
</g>
</g>
<!-- Node1&#45;&gt;Node3 -->
<g id="edge2_Node000001_Node000003" class="edge">
<title>Node1&#45;&gt;Node3</title>
<g id="a_edge2_Node000001_Node000003"><a xlink:title=" ">
<path fill="none" stroke="#63b8ff" d="M69.22,-132.73C81.15,-136.08 94.83,-139.49 107.5,-141.62 181.29,-154.09 267.47,-158.79 323.64,-160.56"/>
<polygon fill="#63b8ff" stroke="#63b8ff" points="323.19,-164.05 333.29,-160.84 323.4,-157.05 323.19,-164.05"/>
</a>
</g>
</g>
<!-- Node5 -->
<g id="Node000005" class="node">
<title>Node5</title>
<g id="a_Node000005"><a xlink:href="cJSON_8c.html#adf47b520af96d1bbefa2390016fbdb51" target="_top" xlink:title=" ">
<polygon fill="white" stroke="#666666" points="285.38,-58.25 216.12,-58.25 216.12,-39 285.38,-39 285.38,-58.25"/>
<text xml:space="preserve" text-anchor="middle" x="250.75" y="-44.75" font-family="Helvetica,sans-Serif" font-size="10.00">parse_string</text>
</a>
</g>
</g>
<!-- Node1&#45;&gt;Node5 -->
<g id="edge5_Node000001_Node000005" class="edge">
<title>Node1&#45;&gt;Node5</title>
<g id="a_edge5_Node000001_Node000005"><a xlink:title=" ">
<path fill="none" stroke="#63b8ff" d="M65.48,-112.65C102.79,-99.68 168.12,-76.98 210.13,-62.39"/>
<polygon fill="#63b8ff" stroke="#63b8ff" points="211.07,-65.77 219.37,-59.18 208.77,-59.16 211.07,-65.77"/>
</a>
</g>
</g>
<!-- Node8 -->
<g id="Node000008" class="node">
<title>Node8</title>
<g id="a_Node000008"><a xlink:href="cJSON_8c.html#afd5c0b7089e4de2fc9b2af599d4b596f" target="_top" xlink:title=" ">
<polygon fill="white" stroke="#666666" points="176,-132.25 107.5,-132.25 107.5,-113 176,-113 176,-132.25"/>
<text xml:space="preserve" text-anchor="middle" x="141.75" y="-118.75" font-family="Helvetica,sans-Serif" font-size="10.00">parse_value</text>
</a>
</g>
</g>
<!-- Node1&#45;&gt;Node8 -->
<g id="edge9_Node000001_Node000008" class="edge">
<title>Node1&#45;&gt;Node8</title>
<g id="a_edge9_Node000001_Node000008"><a xlink:title=" ">
<path fill="none" stroke="#63b8ff" d="M71.96,-116.2C79.64,-115.89 87.87,-115.8 95.87,-115.93"/>
<polygon fill="#63b8ff" stroke="#63b8ff" points="95.72,-119.43 105.82,-116.23 95.93,-112.43 95.72,-119.43"/>
</a>
</g>
</g>
<!-- Node4 -->
<g id="Node000004" class="node">
<title>Node4</title>
<g id="a_Node000004"><a xlink:href="structinternal__hooks.html#a8b8f7ff45faa5da18dd3ccd2a2c8e416" target="_top" xlink:title=" ">
<polygon fill="white" stroke="#666666" points="596.75,-133.25 479.5,-133.25 479.5,-114 596.75,-114 596.75,-133.25"/>
<text xml:space="preserve" text-anchor="middle" x="538.12" y="-119.75" font-family="Helvetica,sans-Serif" font-size="10.00">internal_hooks::allocate</text>
</a>
</g>
</g>
<!-- Node3&#45;&gt;Node4 -->
<g id="edge3_Node000003_Node000004" class="edge">
<title>Node3&#45;&gt;Node4</title>
<g id="a_edge3_Node000003_Node000004"><a xlink:title=" ">
<path fill="none" stroke="#63b8ff" d="M425.73,-151.54C444.23,-146.91 466.38,-141.36 486.03,-136.43"/>
<polygon fill="#63b8ff" stroke="#63b8ff" points="486.65,-139.88 495.5,-134.06 484.95,-133.09 486.65,-139.88"/>
</a>
</g>
</g>
<!-- Node4&#45;&gt;Node4 -->
<g id="edge4_Node000004_Node000004" class="edge">
<title>Node4&#45;&gt;Node4</title>
<g id="a_edge4_Node000004_Node000004"><a xlink:title=" ">
<path fill="none" stroke="#63b8ff" d="M514.07,-133.54C503.1,-142.15 511.12,-151.25 538.12,-151.25 553.31,-151.25 562.5,-148.37 565.67,-144.32"/>
<polygon fill="#63b8ff" stroke="#63b8ff" points="569.06,-143.41 562.64,-134.98 562.4,-145.57 569.06,-143.41"/>
</a>
</g>
</g>
<!-- Node5&#45;&gt;Node4 -->
<g id="edge6_Node000005_Node000004" class="edge">
<title>Node5&#45;&gt;Node4</title>
<g id="a_edge6_Node000005_Node000004"><a xlink:title=" ">
<path fill="none" stroke="#63b8ff" d="M285.6,-47.27C324.66,-46.73 390.34,-48.99 443.5,-66.62 470.47,-75.57 497.84,-93.48 515.96,-106.85"/>
<polygon fill="#63b8ff" stroke="#63b8ff" points="513.73,-109.55 523.81,-112.8 517.96,-103.97 513.73,-109.55"/>
</a>
</g>
</g>
<!-- Node6 -->
<g id="Node000006" class="node">
<title>Node6</title>
<g id="a_Node000006"><a xlink:href="cJSON_8c.html#a0e2851b1b595b3b430fd186e7deaf987" target="_top" xlink:title=" ">
<polygon fill="white" stroke="#666666" points="435.25,-19.25 333.75,-19.25 333.75,0 435.25,0 435.25,-19.25"/>
<text xml:space="preserve" text-anchor="middle" x="384.5" y="-5.75" font-family="Helvetica,sans-Serif" font-size="10.00">utf16_literal_to_utf8</text>
</a>
</g>
</g>
<!-- Node5&#45;&gt;Node6 -->
<g id="edge7_Node000005_Node000006" class="edge">
<title>Node5&#45;&gt;Node6</title>
<g id="a_edge7_Node000005_Node000006"><a xlink:title=" ">
<path fill="none" stroke="#63b8ff" d="M285.68,-38.58C301.82,-33.8 321.33,-28.03 338.66,-22.9"/>
<polygon fill="#63b8ff" stroke="#63b8ff" points="339.64,-26.26 348.23,-20.06 337.65,-19.55 339.64,-26.26"/>
</a>
</g>
</g>
<!-- Node7 -->
<g id="Node000007" class="node">
<title>Node7</title>
<g id="a_Node000007"><a xlink:href="cJSON_8c.html#a1aa736fdc6ba20c7d46622d20766e916" target="_top" xlink:title=" ">
<polygon fill="white" stroke="#666666" points="570.88,-19.25 505.38,-19.25 505.38,0 570.88,0 570.88,-19.25"/>
<text xml:space="preserve" text-anchor="middle" x="538.12" y="-5.75" font-family="Helvetica,sans-Serif" font-size="10.00">parse_hex4</text>
</a>
</g>
</g>
<!-- Node6&#45;&gt;Node7 -->
<g id="edge8_Node000006_Node000007" class="edge">
<title>Node6&#45;&gt;Node7</title>
<g id="a_edge8_Node000006_Node000007"><a xlink:title=" ">
<path fill="none" stroke="#63b8ff" d="M435.57,-9.62C454.39,-9.62 475.61,-9.62 493.78,-9.62"/>
<polygon fill="#63b8ff" stroke="#63b8ff" points="493.7,-13.13 503.7,-9.63 493.7,-6.13 493.7,-13.13"/>
</a>
</g>
</g>
<!-- Node8&#45;&gt;Node1 -->
<g id="edge17_Node000008_Node000001" class="edge">
<title>Node8&#45;&gt;Node1</title>
<g id="a_edge17_Node000008_Node000001"><a xlink:title=" ">
<path fill="none" stroke="#63b8ff" d="M107.33,-128.98C99.66,-129.32 91.35,-129.44 83.23,-129.34"/>
<polygon fill="#63b8ff" stroke="#63b8ff" points="83.56,-125.85 73.47,-129.09 83.38,-132.85 83.56,-125.85"/>
</a>
</g>
</g>
<!-- Node8&#45;&gt;Node5 -->
<g id="edge18_Node000008_Node000005" class="edge">
<title>Node8&#45;&gt;Node5</title>
<g id="a_edge18_Node000008_Node000005"><a xlink:title=" ">
<path fill="none" stroke="#63b8ff" d="M153.42,-112.66C166.52,-100.74 189.76,-80.64 212,-66.62 213.42,-65.73 214.89,-64.85 216.39,-63.99"/>
<polygon fill="#63b8ff" stroke="#63b8ff" points="217.98,-67.11 225.19,-59.34 214.72,-60.92 217.98,-67.11"/>
</a>
</g>
</g>
<!-- Node9 -->
<g id="Node000009" class="node">
<title>Node9</title>
<g id="a_Node000009"><a xlink:href="cJSON_8c.html#a367cc7ac5a592211d9f18dc02dd23069" target="_top" xlink:title=" ">
<polygon fill="white" stroke="#666666" points="283.88,-132.25 217.62,-132.25 217.62,-113 283.88,-113 283.88,-132.25"/>
<text xml:space="preserve" text-anchor="middle" x="250.75" y="-118.75" font-family="Helvetica,sans-Serif" font-size="10.00">parse_array</text>
</a>
</g>
</g>
<!-- Node8&#45;&gt;Node9 -->
<g id="edge10_Node000008_Node000009" class="edge">
<title>Node8&#45;&gt;Node9</title>
<g id="a_edge10_Node000008_Node000009"><a xlink:title=" ">
<path fill="none" stroke="#63b8ff" d="M176.31,-116.31C185.74,-115.88 196.13,-115.77 206.05,-115.98"/>
<polygon fill="#63b8ff" stroke="#63b8ff" points="205.78,-119.47 215.89,-116.32 206.02,-112.47 205.78,-119.47"/>
</a>
</g>
</g>
<!-- Node10 -->
<g id="Node000010" class="node">
<title>Node10</title>
<g id="a_Node000010"><a xlink:href="cJSON_8c.html#a699e1cebda71c2846a9a10b29b4dc407" target="_top" xlink:title=" ">
<polygon fill="white" stroke="#666666" points="289.5,-95.25 212,-95.25 212,-76 289.5,-76 289.5,-95.25"/>
<text xml:space="preserve" text-anchor="middle" x="250.75" y="-81.75" font-family="Helvetica,sans-Serif" font-size="10.00">parse_number</text>
</a>
</g>
</g>
<!-- Node8&#45;&gt;Node10 -->
<g id="edge14_Node000008_Node000010" class="edge">
<title>Node8&#45;&gt;Node10</title>
<g id="a_edge14_Node000008_Node000010"><a xlink:title=" ">
<path fill="none" stroke="#63b8ff" d="M171.99,-112.51C183.67,-108.48 197.3,-103.76 209.86,-99.42"/>
<polygon fill="#63b8ff" stroke="#63b8ff" points="210.81,-102.79 219.12,-96.22 208.52,-96.18 210.81,-102.79"/>
</a>
</g>
</g>
<!-- Node9&#45;&gt;Node2 -->
<g id="edge11_Node000009_Node000002" class="edge">
<title>Node9&#45;&gt;Node2</title>
<g id="a_edge11_Node000009_Node000002"><a xlink:title=" ">
<path fill="none" stroke="#63b8ff" d="M261.88,-132.61C275.35,-145.39 300.41,-167.44 325.5,-180.62 328.03,-181.95 330.68,-183.21 333.39,-184.38"/>
<polygon fill="#63b8ff" stroke="#63b8ff" points="332.03,-187.6 342.62,-187.97 334.57,-181.08 332.03,-187.6"/>
</a>
</g>
</g>
<!-- Node9&#45;&gt;Node3 -->
<g id="edge12_Node000009_Node000003" class="edge">
<title>Node9&#45;&gt;Node3</title>
<g id="a_edge12_Node000009_Node000003"><a xlink:title=" ">
<path fill="none" stroke="#63b8ff" d="M284.32,-132.27C300.65,-137.1 320.68,-143.03 338.46,-148.29"/>
<polygon fill="#63b8ff" stroke="#63b8ff" points="337.44,-151.64 348.02,-151.12 339.42,-144.93 337.44,-151.64"/>
</a>
</g>
</g>
<!-- Node9&#45;&gt;Node8 -->
<g id="edge13_Node000009_Node000008" class="edge">
<title>Node9&#45;&gt;Node8</title>
<g id="a_edge13_Node000009_Node000008"><a xlink:title=" ">
<path fill="none" stroke="#63b8ff" d="M217.4,-128.88C208.06,-129.34 197.7,-129.48 187.74,-129.3"/>
<polygon fill="#63b8ff" stroke="#63b8ff" points="187.93,-125.8 177.82,-128.99 187.71,-132.8 187.93,-125.8"/>
</a>
</g>
</g>
<!-- Node10&#45;&gt;Node4 -->
<g id="edge15_Node000010_Node000004" class="edge">
<title>Node10&#45;&gt;Node4</title>
<g id="a_edge15_Node000010_Node000004"><a xlink:title=" ">
<path fill="none" stroke="#63b8ff" d="M286.02,-95.69C298.37,-98.99 312.47,-102.38 325.5,-104.62 372.68,-112.77 426.42,-117.54 467.94,-120.26"/>
<polygon fill="#63b8ff" stroke="#63b8ff" points="467.6,-123.75 477.8,-120.88 468.04,-116.76 467.6,-123.75"/>
</a>
</g>
</g>
<!-- Node11 -->
<g id="Node000011" class="node">
<title>Node11</title>
<g id="a_Node000011"><a xlink:href="cJSON_8c.html#ab25412ae56c8c594831918169bea100d" target="_top" xlink:title=" ">
<polygon fill="white" stroke="#666666" points="431.88,-95.25 337.12,-95.25 337.12,-76 431.88,-76 431.88,-95.25"/>
<text xml:space="preserve" text-anchor="middle" x="384.5" y="-81.75" font-family="Helvetica,sans-Serif" font-size="10.00">get_decimal_point</text>
</a>
</g>
</g>
<!-- Node10&#45;&gt;Node11 -->
<g id="edge16_Node000010_Node000011" class="edge">
<title>Node10&#45;&gt;Node11</title>
<g id="a_edge16_Node000010_Node000011"><a xlink:title=" ">
<path fill="none" stroke="#63b8ff" d="M289.86,-85.62C301.03,-85.62 313.51,-85.62 325.62,-85.62"/>
<polygon fill="#63b8ff" stroke="#63b8ff" points="325.55,-89.13 335.55,-85.63 325.55,-82.13 325.55,-89.13"/>
</a>
</g>
</g>
</g>
</svg>
