<?xml version="1.0" encoding="UTF-8" standalone="no"?>
<!DOCTYPE svg PUBLIC "-//W3C//DTD SVG 1.1//EN"
 "http://www.w3.org/Graphics/SVG/1.1/DTD/svg11.dtd">
<!-- Generated by graphviz version 14.0.5 (0)
 -->
<!-- Title: parse_string Pages: 1 -->
<svg width="332pt" height="82pt"
 viewBox="0.00 0.00 332.00 82.00" xmlns="http://www.w3.org/2000/svg" xmlns:xlink="http://www.w3.org/1999/xlink">
<g id="graph0" class="graph" transform="scale(1 1) rotate(0) translate(4 78.25)">
<title>parse_string</title>
<!-- Node1 -->
<g id="Node000001" class="node">
<title>Node1</title>
<g id="a_Node000001"><a xlink:title=" ">
<polygon fill="#999999" stroke="#666666" points="69.25,-37.25 0,-37.25 0,-18 69.25,-18 69.25,-37.25"/>
<text xml:space="preserve" text-anchor="middle" x="34.62" y="-23.75" font-family="Helvetica,sans-Serif" font-size="10.00">parse_string</text>
</a>
</g>
</g>
<!-- Node2 -->
<g id="Node000002" class="node">
<title>Node2</title>
<g id="a_Node000002"><a xlink:href="structinternal__hooks.html#a8b8f7ff45faa5da18dd3ccd2a2c8e416" target="_top" xlink:title=" ">
<polygon fill="white" stroke="#666666" points="222.5,-56.25 105.25,-56.25 105.25,-37 222.5,-37 222.5,-56.25"/>
<text xml:space="preserve" text-anchor="middle" x="163.88" y="-42.75" font-family="Helvetica,sans-Serif" font-size="10.00">internal_hooks::allocate</text>
</a>
</g>
</g>
<!-- Node1&#45;&gt;Node2 -->
<g id="edge1_Node000001_Node000002" class="edge">
<title>Node1&#45;&gt;Node2</title>
<g id="a_edge1_Node000001_Node000002"><a xlink:title=" ">
<path fill="none" stroke="#63b8ff" d="M69.73,-32.72C77.22,-33.84 85.41,-35.06 93.73,-36.3"/>
<polygon fill="#63b8ff" stroke="#63b8ff" points="93.19,-39.76 103.6,-37.77 94.23,-32.84 93.19,-39.76"/>
</a>
</g>
</g>
<!-- Node3 -->
<g id="Node000003" class="node">
<title>Node3</title>
<g id="a_Node000003"><a xlink:href="cJSON_8c.html#a0e2851b1b595b3b430fd186e7deaf987" target="_top" xlink:title=" ">
<polygon fill="white" stroke="#666666" points="214.62,-19.25 113.12,-19.25 113.12,0 214.62,0 214.62,-19.25"/>
<text xml:space="preserve" text-anchor="middle" x="163.88" y="-5.75" font-family="Helvetica,sans-Serif" font-size="10.00">utf16_literal_to_utf8</text>
</a>
</g>
</g>
<!-- Node1&#45;&gt;Node3 -->
<g id="edge3_Node000001_Node000003" class="edge">
<title>Node1&#45;&gt;Node3</title>
<g id="a_edge3_Node000001_Node000003"><a xlink:title=" ">
<path fill="none" stroke="#63b8ff" d="M69.73,-22.8C79.56,-21.41 90.61,-19.85 101.56,-18.3"/>
<polygon fill="#63b8ff" stroke="#63b8ff" points="101.98,-21.77 111.39,-16.91 100.99,-14.84 101.98,-21.77"/>
</a>
</g>
</g>
<!-- Node2&#45;&gt;Node2 -->
<g id="edge2_Node000002_Node000002" class="edge">
<title>Node2&#45;&gt;Node2</title>
<g id="a_edge2_Node000002_Node000002"><a xlink:title=" ">
<path fill="none" stroke="#63b8ff" d="M143.93,-56.54C134.84,-65.15 141.48,-74.25 163.88,-74.25 176.12,-74.25 183.66,-71.53 186.48,-67.65"/>
<polygon fill="#63b8ff" stroke="#63b8ff" points="189.91,-66.92 184.17,-58.01 183.1,-68.55 189.91,-66.92"/>
</a>
</g>
</g>
<!-- Node4 -->
<g id="Node000004" class="node">
<title>Node4</title>
<g id="a_Node000004"><a xlink:href="cJSON_8c.html#a1aa736fdc6ba20c7d46622d20766e916" target="_top" xlink:title=" ">
<polygon fill="white" stroke="#666666" points="324,-19.25 258.5,-19.25 258.5,0 324,0 324,-19.25"/>
<text xml:space="preserve" text-anchor="middle" x="291.25" y="-5.75" font-family="Helvetica,sans-Serif" font-size="10.00">parse_hex4</text>
</a>
</g>
</g>
<!-- Node3&#45;&gt;Node4 -->
<g id="edge4_Node000003_Node000004" class="edge">
<title>Node3&#45;&gt;Node4</title>
<g id="a_edge4_Node000003_Node000004"><a xlink:title=" ">
<path fill="none" stroke="#63b8ff" d="M214.79,-9.62C225.4,-9.62 236.53,-9.62 246.88,-9.62"/>
<polygon fill="#63b8ff" stroke="#63b8ff" points="246.65,-13.13 256.65,-9.63 246.65,-6.13 246.65,-13.13"/>
</a>
</g>
</g>
</g>
</svg>
