<?xml version="1.0" encoding="UTF-8" standalone="no"?>
<!DOCTYPE svg PUBLIC "-//W3C//DTD SVG 1.1//EN"
 "http://www.w3.org/Graphics/SVG/1.1/DTD/svg11.dtd">
<!-- Generated by graphviz version 14.0.5 (0)
 -->
<!-- Title: CJSON_PUBLIC Pages: 1 -->
<svg width="738pt" height="254pt"
 viewBox="0.00 0.00 738.00 254.00" xmlns="http://www.w3.org/2000/svg" xmlns:xlink="http://www.w3.org/1999/xlink">
<g id="graph0" class="graph" transform="scale(1 1) rotate(0) translate(4 250.25)">
<title>CJSON_PUBLIC</title>
<!-- Node1 -->
<g id="Node000001" class="node">
<title>Node1</title>
<g id="a_Node000001"><a xlink:title=" ">
<polygon fill="#999999" stroke="#666666" points="91.75,-95.25 0,-95.25 0,-76 91.75,-76 91.75,-95.25"/>
<text xml:space="preserve" text-anchor="middle" x="45.88" y="-81.75" font-family="Helvetica,sans-Serif" font-size="10.00">CJSON_PUBLIC</text>
</a>
</g>
</g>
<!-- Node2 -->
<g id="Node000002" class="node">
<title>Node2</title>
<g id="a_Node000002"><a xlink:href="cJSON_8c.html#a0a9c3a7f6f01d4a8d9c552fa82274b4b" target="_top" xlink:title=" ">
<polygon fill="white" stroke="#666666" points="475,-133.25 357,-133.25 357,-114 475,-114 475,-133.25"/>
<text xml:space="preserve" text-anchor="middle" x="416" y="-119.75" font-family="Helvetica,sans-Serif" font-size="10.00">buffer_skip_whitespace</text>
</a>
</g>
</g>
<!-- Node1&#45;&gt;Node2 -->
<g id="edge1_Node000001_Node000002" class="edge">
<title>Node1&#45;&gt;Node2</title>
<g id="a_edge1_Node000001_Node000002"><a xlink:title=" ">
<path fill="none" stroke="#63b8ff" d="M92.17,-86.96C146.67,-88.98 240.87,-93.8 321,-104.62 333.76,-106.35 347.39,-108.77 360.2,-111.3"/>
<polygon fill="#63b8ff" stroke="#63b8ff" points="359.22,-114.67 369.72,-113.24 360.62,-107.81 359.22,-114.67"/>
</a>
</g>
</g>
<!-- Node3 -->
<g id="Node000003" class="node">
<title>Node3</title>
<g id="a_Node000003"><a xlink:href="cJSON_8c.html#aa05c1f56de8779ae1584c525cc81aeb5" target="_top" xlink:title=" ">
<polygon fill="white" stroke="#666666" points="465.25,-170.25 366.75,-170.25 366.75,-151 465.25,-151 465.25,-170.25"/>
<text xml:space="preserve" text-anchor="middle" x="416" y="-156.75" font-family="Helvetica,sans-Serif" font-size="10.00">cJSON_New_Item</text>
</a>
</g>
</g>
<!-- Node1&#45;&gt;Node3 -->
<g id="edge2_Node000001_Node000003" class="edge">
<title>Node1&#45;&gt;Node3</title>
<g id="a_edge2_Node000001_Node000003"><a xlink:title=" ">
<path fill="none" stroke="#63b8ff" d="M58.48,-95.54C73.56,-108.01 101.14,-129.39 127.75,-142.62 176.1,-166.68 190.14,-171.3 243.5,-179.62 284.32,-185.99 330.93,-179.98 365.25,-173.09"/>
<polygon fill="#63b8ff" stroke="#63b8ff" points="365.85,-176.54 374.91,-171.04 364.4,-169.69 365.85,-176.54"/>
</a>
</g>
</g>
<!-- Node5 -->
<g id="Node000005" class="node">
<title>Node5</title>
<g id="a_Node000005"><a xlink:href="cJSON_8c.html#afd5c0b7089e4de2fc9b2af599d4b596f" target="_top" xlink:title=" ">
<polygon fill="white" stroke="#666666" points="201.88,-133.25 133.38,-133.25 133.38,-114 201.88,-114 201.88,-133.25"/>
<text xml:space="preserve" text-anchor="middle" x="167.62" y="-119.75" font-family="Helvetica,sans-Serif" font-size="10.00">parse_value</text>
</a>
</g>
</g>
<!-- Node1&#45;&gt;Node5 -->
<g id="edge5_Node000001_Node000005" class="edge">
<title>Node1&#45;&gt;Node5</title>
<g id="a_edge5_Node000001_Node000005"><a xlink:title=" ">
<path fill="none" stroke="#63b8ff" d="M78.65,-95.71C92.7,-100.17 109.42,-105.47 124.49,-110.26"/>
<polygon fill="#63b8ff" stroke="#63b8ff" points="123.08,-113.48 133.67,-113.17 125.2,-106.81 123.08,-113.48"/>
</a>
</g>
</g>
<!-- Node13 -->
<g id="Node000013" class="node">
<title>Node13</title>
<g id="a_Node000013"><a xlink:href="cJSON_8c.html#a3bb0de8275d39e5a31ea006a7dae65b7" target="_top" xlink:title=" ">
<polygon fill="white" stroke="#666666" points="207.5,-19.25 127.75,-19.25 127.75,0 207.5,0 207.5,-19.25"/>
<text xml:space="preserve" text-anchor="middle" x="167.62" y="-5.75" font-family="Helvetica,sans-Serif" font-size="10.00">skip_utf8_bom</text>
</a>
</g>
</g>
<!-- Node1&#45;&gt;Node13 -->
<g id="edge22_Node000001_Node000013" class="edge">
<title>Node1&#45;&gt;Node13</title>
<g id="a_edge22_Node000001_Node000013"><a xlink:title=" ">
<path fill="none" stroke="#63b8ff" d="M62.33,-75.57C78.56,-65.04 104.87,-48.04 127.75,-33.62 131.9,-31.01 136.32,-28.26 140.63,-25.58"/>
<polygon fill="#63b8ff" stroke="#63b8ff" points="142.36,-28.63 149.03,-20.4 138.68,-22.67 142.36,-28.63"/>
</a>
</g>
</g>
<!-- Node4 -->
<g id="Node000004" class="node">
<title>Node4</title>
<g id="a_Node000004"><a xlink:href="structinternal__hooks.html#a8b8f7ff45faa5da18dd3ccd2a2c8e416" target="_top" xlink:title=" ">
<polygon fill="white" stroke="#666666" points="628.25,-170.25 511,-170.25 511,-151 628.25,-151 628.25,-170.25"/>
<text xml:space="preserve" text-anchor="middle" x="569.62" y="-156.75" font-family="Helvetica,sans-Serif" font-size="10.00">internal_hooks::allocate</text>
</a>
</g>
</g>
<!-- Node3&#45;&gt;Node4 -->
<g id="edge3_Node000003_Node000004" class="edge">
<title>Node3&#45;&gt;Node4</title>
<g id="a_edge3_Node000003_Node000004"><a xlink:title=" ">
<path fill="none" stroke="#63b8ff" d="M465.39,-160.62C476.18,-160.62 487.83,-160.62 499.28,-160.62"/>
<polygon fill="#63b8ff" stroke="#63b8ff" points="499.11,-164.13 509.11,-160.63 499.11,-157.13 499.11,-164.13"/>
</a>
</g>
</g>
<!-- Node4&#45;&gt;Node4 -->
<g id="edge4_Node000004_Node000004" class="edge">
<title>Node4&#45;&gt;Node4</title>
<g id="a_edge4_Node000004_Node000004"><a xlink:title=" ">
<path fill="none" stroke="#63b8ff" d="M549.68,-170.54C540.59,-179.15 547.23,-188.25 569.62,-188.25 581.87,-188.25 589.41,-185.53 592.23,-181.65"/>
<polygon fill="#63b8ff" stroke="#63b8ff" points="595.66,-180.92 589.92,-172.01 588.85,-182.55 595.66,-180.92"/>
</a>
</g>
</g>
<!-- Node6 -->
<g id="Node000006" class="node">
<title>Node6</title>
<g id="a_Node000006"><a xlink:href="cJSON_8c.html#a367cc7ac5a592211d9f18dc02dd23069" target="_top" xlink:title=" ">
<polygon fill="white" stroke="#666666" points="315.38,-170.25 249.12,-170.25 249.12,-151 315.38,-151 315.38,-170.25"/>
<text xml:space="preserve" text-anchor="middle" x="282.25" y="-156.75" font-family="Helvetica,sans-Serif" font-size="10.00">parse_array</text>
</a>
</g>
</g>
<!-- Node5&#45;&gt;Node6 -->
<g id="edge6_Node000005_Node000006" class="edge">
<title>Node5&#45;&gt;Node6</title>
<g id="a_edge6_Node000005_Node000006"><a xlink:title=" ">
<path fill="none" stroke="#63b8ff" d="M202.11,-128.4C219.02,-133.14 239.23,-139.92 254.99,-146.19"/>
<polygon fill="#63b8ff" stroke="#63b8ff" points="253.6,-149.4 264.18,-150.04 256.31,-142.95 253.6,-149.4"/>
</a>
</g>
</g>
<!-- Node7 -->
<g id="Node000007" class="node">
<title>Node7</title>
<g id="a_Node000007"><a xlink:href="cJSON_8c.html#a699e1cebda71c2846a9a10b29b4dc407" target="_top" xlink:title=" ">
<polygon fill="white" stroke="#666666" points="321,-246.25 243.5,-246.25 243.5,-227 321,-227 321,-246.25"/>
<text xml:space="preserve" text-anchor="middle" x="282.25" y="-232.75" font-family="Helvetica,sans-Serif" font-size="10.00">parse_number</text>
</a>
</g>
</g>
<!-- Node5&#45;&gt;Node7 -->
<g id="edge10_Node000005_Node000007" class="edge">
<title>Node5&#45;&gt;Node7</title>
<g id="a_edge10_Node000005_Node000007"><a xlink:title=" ">
<path fill="none" stroke="#63b8ff" d="M178.62,-133.65C197.7,-152.8 239.55,-194.79 263.5,-218.82"/>
<polygon fill="#63b8ff" stroke="#63b8ff" points="260.83,-221.1 270.37,-225.71 265.79,-216.16 260.83,-221.1"/>
</a>
</g>
</g>
<!-- Node9 -->
<g id="Node000009" class="node">
<title>Node9</title>
<g id="a_Node000009"><a xlink:href="cJSON_8c.html#a1472ac5d1becd7d9a5e558b4c053b06a" target="_top" xlink:title=" ">
<polygon fill="white" stroke="#666666" points="318,-133.25 246.5,-133.25 246.5,-114 318,-114 318,-133.25"/>
<text xml:space="preserve" text-anchor="middle" x="282.25" y="-119.75" font-family="Helvetica,sans-Serif" font-size="10.00">parse_object</text>
</a>
</g>
</g>
<!-- Node5&#45;&gt;Node9 -->
<g id="edge13_Node000005_Node000009" class="edge">
<title>Node5&#45;&gt;Node9</title>
<g id="a_edge13_Node000005_Node000009"><a xlink:title=" ">
<path fill="none" stroke="#63b8ff" d="M202.11,-117.39C212.41,-116.9 223.93,-116.76 234.93,-116.97"/>
<polygon fill="#63b8ff" stroke="#63b8ff" points="234.52,-120.46 244.62,-117.27 234.73,-113.46 234.52,-120.46"/>
</a>
</g>
</g>
<!-- Node10 -->
<g id="Node000010" class="node">
<title>Node10</title>
<g id="a_Node000010"><a xlink:href="cJSON_8c.html#adf47b520af96d1bbefa2390016fbdb51" target="_top" xlink:title=" ">
<polygon fill="white" stroke="#666666" points="450.62,-96.25 381.38,-96.25 381.38,-77 450.62,-77 450.62,-96.25"/>
<text xml:space="preserve" text-anchor="middle" x="416" y="-82.75" font-family="Helvetica,sans-Serif" font-size="10.00">parse_string</text>
</a>
</g>
</g>
<!-- Node5&#45;&gt;Node10 -->
<g id="edge21_Node000005_Node000010" class="edge">
<title>Node5&#45;&gt;Node10</title>
<g id="a_edge21_Node000005_Node000010"><a xlink:title=" ">
<path fill="none" stroke="#63b8ff" d="M202.32,-113.98C215.12,-110.6 229.9,-107.05 243.5,-104.62 286,-97.04 335.03,-92.29 369.76,-89.59"/>
<polygon fill="#63b8ff" stroke="#63b8ff" points="369.74,-93.1 379.45,-88.86 369.21,-86.12 369.74,-93.1"/>
</a>
</g>
</g>
<!-- Node6&#45;&gt;Node2 -->
<g id="edge7_Node000006_Node000002" class="edge">
<title>Node6&#45;&gt;Node2</title>
<g id="a_edge7_Node000006_Node000002"><a xlink:title=" ">
<path fill="none" stroke="#63b8ff" d="M315.82,-151.48C331.57,-147.06 350.77,-141.66 368.07,-136.81"/>
<polygon fill="#63b8ff" stroke="#63b8ff" points="368.96,-140.19 377.64,-134.12 367.07,-133.45 368.96,-140.19"/>
</a>
</g>
</g>
<!-- Node6&#45;&gt;Node3 -->
<g id="edge8_Node000006_Node000003" class="edge">
<title>Node6&#45;&gt;Node3</title>
<g id="a_edge8_Node000006_Node000003"><a xlink:title=" ">
<path fill="none" stroke="#63b8ff" d="M315.82,-160.62C327.72,-160.62 341.6,-160.62 355.14,-160.62"/>
<polygon fill="#63b8ff" stroke="#63b8ff" points="354.86,-164.13 364.86,-160.63 354.86,-157.13 354.86,-164.13"/>
</a>
</g>
</g>
<!-- Node6&#45;&gt;Node5 -->
<g id="edge9_Node000006_Node000005" class="edge">
<title>Node6&#45;&gt;Node5</title>
<g id="a_edge9_Node000006_Node000005"><a xlink:title=" ">
<path fill="none" stroke="#63b8ff" d="M249.07,-156.22C231.82,-151.44 210.85,-144.43 194.64,-137.96"/>
<polygon fill="#63b8ff" stroke="#63b8ff" points="196.26,-134.85 185.68,-134.2 193.54,-141.3 196.26,-134.85"/>
</a>
</g>
</g>
<!-- Node7&#45;&gt;Node4 -->
<g id="edge11_Node000007_Node000004" class="edge">
<title>Node7&#45;&gt;Node4</title>
<g id="a_edge11_Node000007_Node000004"><a xlink:title=" ">
<path fill="none" stroke="#63b8ff" d="M321.4,-237.78C360.86,-237.84 423.76,-234.76 475,-217.62 501.8,-208.66 529.01,-190.92 547.14,-177.59"/>
<polygon fill="#63b8ff" stroke="#63b8ff" points="549.14,-180.47 555.01,-171.65 544.92,-174.88 549.14,-180.47"/>
</a>
</g>
</g>
<!-- Node8 -->
<g id="Node000008" class="node">
<title>Node8</title>
<g id="a_Node000008"><a xlink:href="cJSON_8c.html#ab25412ae56c8c594831918169bea100d" target="_top" xlink:title=" ">
<polygon fill="white" stroke="#666666" points="463.38,-208.25 368.62,-208.25 368.62,-189 463.38,-189 463.38,-208.25"/>
<text xml:space="preserve" text-anchor="middle" x="416" y="-194.75" font-family="Helvetica,sans-Serif" font-size="10.00">get_decimal_point</text>
</a>
</g>
</g>
<!-- Node7&#45;&gt;Node8 -->
<g id="edge12_Node000007_Node000008" class="edge">
<title>Node7&#45;&gt;Node8</title>
<g id="a_edge12_Node000007_Node000008"><a xlink:title=" ">
<path fill="none" stroke="#63b8ff" d="M318.21,-226.54C333.97,-222 352.78,-216.57 369.61,-211.72"/>
<polygon fill="#63b8ff" stroke="#63b8ff" points="370.24,-215.18 378.88,-209.04 368.3,-208.45 370.24,-215.18"/>
</a>
</g>
</g>
<!-- Node9&#45;&gt;Node2 -->
<g id="edge14_Node000009_Node000002" class="edge">
<title>Node9&#45;&gt;Node2</title>
<g id="a_edge14_Node000009_Node000002"><a xlink:title=" ">
<path fill="none" stroke="#63b8ff" d="M318.21,-123.62C326.61,-123.62 335.88,-123.62 345.25,-123.62"/>
<polygon fill="#63b8ff" stroke="#63b8ff" points="345.17,-127.13 355.17,-123.63 345.17,-120.13 345.17,-127.13"/>
</a>
</g>
</g>
<!-- Node9&#45;&gt;Node3 -->
<g id="edge15_Node000009_Node000003" class="edge">
<title>Node9&#45;&gt;Node3</title>
<g id="a_edge15_Node000009_Node000003"><a xlink:title=" ">
<path fill="none" stroke="#63b8ff" d="M318.21,-133.44C333.45,-137.72 351.54,-142.8 367.93,-147.41"/>
<polygon fill="#63b8ff" stroke="#63b8ff" points="366.93,-150.76 377.5,-150.09 368.82,-144.02 366.93,-150.76"/>
</a>
</g>
</g>
<!-- Node9&#45;&gt;Node5 -->
<g id="edge20_Node000009_Node000005" class="edge">
<title>Node9&#45;&gt;Node5</title>
<g id="a_edge20_Node000009_Node000005"><a xlink:title=" ">
<path fill="none" stroke="#63b8ff" d="M246.13,-129.93C235.82,-130.38 224.4,-130.49 213.56,-130.25"/>
<polygon fill="#63b8ff" stroke="#63b8ff" points="213.74,-126.76 203.62,-129.91 213.5,-133.75 213.74,-126.76"/>
</a>
</g>
</g>
<!-- Node9&#45;&gt;Node10 -->
<g id="edge16_Node000009_Node000010" class="edge">
<title>Node9&#45;&gt;Node10</title>
<g id="a_edge16_Node000009_Node000010"><a xlink:title=" ">
<path fill="none" stroke="#63b8ff" d="M318.21,-113.81C334.22,-109.31 353.38,-103.93 370.41,-99.15"/>
<polygon fill="#63b8ff" stroke="#63b8ff" points="371.1,-102.59 379.79,-96.51 369.21,-95.85 371.1,-102.59"/>
</a>
</g>
</g>
<!-- Node10&#45;&gt;Node4 -->
<g id="edge17_Node000010_Node000004" class="edge">
<title>Node10&#45;&gt;Node4</title>
<g id="a_edge17_Node000010_Node000004"><a xlink:title=" ">
<path fill="none" stroke="#63b8ff" d="M450.93,-95.67C458.96,-98.21 467.39,-101.23 475,-104.62 499.95,-115.77 526.52,-132.14 544.95,-144.3"/>
<polygon fill="#63b8ff" stroke="#63b8ff" points="542.78,-147.06 553.04,-149.73 546.68,-141.25 542.78,-147.06"/>
</a>
</g>
</g>
<!-- Node11 -->
<g id="Node000011" class="node">
<title>Node11</title>
<g id="a_Node000011"><a xlink:href="cJSON_8c.html#a0e2851b1b595b3b430fd186e7deaf987" target="_top" xlink:title=" ">
<polygon fill="white" stroke="#666666" points="620.38,-96.25 518.88,-96.25 518.88,-77 620.38,-77 620.38,-96.25"/>
<text xml:space="preserve" text-anchor="middle" x="569.62" y="-82.75" font-family="Helvetica,sans-Serif" font-size="10.00">utf16_literal_to_utf8</text>
</a>
</g>
</g>
<!-- Node10&#45;&gt;Node11 -->
<g id="edge18_Node000010_Node000011" class="edge">
<title>Node10&#45;&gt;Node11</title>
<g id="a_edge18_Node000010_Node000011"><a xlink:title=" ">
<path fill="none" stroke="#63b8ff" d="M451.03,-86.62C467.59,-86.62 488.02,-86.62 507.19,-86.62"/>
<polygon fill="#63b8ff" stroke="#63b8ff" points="507.08,-90.13 517.08,-86.63 507.08,-83.13 507.08,-90.13"/>
</a>
</g>
</g>
<!-- Node12 -->
<g id="Node000012" class="node">
<title>Node12</title>
<g id="a_Node000012"><a xlink:href="cJSON_8c.html#a1aa736fdc6ba20c7d46622d20766e916" target="_top" xlink:title=" ">
<polygon fill="white" stroke="#666666" points="729.75,-96.25 664.25,-96.25 664.25,-77 729.75,-77 729.75,-96.25"/>
<text xml:space="preserve" text-anchor="middle" x="697" y="-82.75" font-family="Helvetica,sans-Serif" font-size="10.00">parse_hex4</text>
</a>
</g>
</g>
<!-- Node11&#45;&gt;Node12 -->
<g id="edge19_Node000011_Node000012" class="edge">
<title>Node11&#45;&gt;Node12</title>
<g id="a_edge19_Node000011_Node000012"><a xlink:title=" ">
<path fill="none" stroke="#63b8ff" d="M620.54,-86.62C631.15,-86.62 642.28,-86.62 652.63,-86.62"/>
<polygon fill="#63b8ff" stroke="#63b8ff" points="652.4,-90.13 662.4,-86.63 652.4,-83.13 652.4,-90.13"/>
</a>
</g>
</g>
</g>
</svg>
