<?xml version="1.0" encoding="UTF-8" standalone="no"?>
<!DOCTYPE svg PUBLIC "-//W3C//DTD SVG 1.1//EN"
 "http://www.w3.org/Graphics/SVG/1.1/DTD/svg11.dtd">
<!-- Generated by graphviz version 14.0.5 (0)
 -->
<!-- Title: replace_item_in_object Pages: 1 -->
<svg width="405pt" height="82pt"
 viewBox="0.00 0.00 405.00 82.00" xmlns="http://www.w3.org/2000/svg" xmlns:xlink="http://www.w3.org/1999/xlink">
<g id="graph0" class="graph" transform="scale(1 1) rotate(0) translate(4 78.25)">
<title>replace_item_in_object</title>
<!-- Node1 -->
<g id="Node000001" class="node">
<title>Node1</title>
<g id="a_Node000001"><a xlink:title=" ">
<polygon fill="#999999" stroke="#666666" points="115.75,-37.25 0,-37.25 0,-18 115.75,-18 115.75,-37.25"/>
<text xml:space="preserve" text-anchor="middle" x="57.88" y="-23.75" font-family="Helvetica,sans-Serif" font-size="10.00">replace_item_in_object</text>
</a>
</g>
</g>
<!-- Node2 -->
<g id="Node000002" class="node">
<title>Node2</title>
<g id="a_Node000002"><a xlink:href="cJSON_8c.html#a15067642a12599c13a0e6c0da9009be7" target="_top" xlink:title=" ">
<polygon fill="white" stroke="#666666" points="234.5,-56.25 154,-56.25 154,-37 234.5,-37 234.5,-56.25"/>
<text xml:space="preserve" text-anchor="middle" x="194.25" y="-42.75" font-family="Helvetica,sans-Serif" font-size="10.00">cJSON_strdup</text>
</a>
</g>
</g>
<!-- Node1&#45;&gt;Node2 -->
<g id="edge1_Node000001_Node000002" class="edge">
<title>Node1&#45;&gt;Node2</title>
<g id="a_edge1_Node000001_Node000002"><a xlink:title=" ">
<path fill="none" stroke="#63b8ff" d="M115.86,-35.68C124.72,-36.93 133.81,-38.22 142.51,-39.45"/>
<polygon fill="#63b8ff" stroke="#63b8ff" points="141.78,-42.88 152.18,-40.82 142.76,-35.95 141.78,-42.88"/>
</a>
</g>
</g>
<!-- Node4 -->
<g id="Node000004" class="node">
<title>Node4</title>
<g id="a_Node000004"><a xlink:href="cJSON_8c.html#aa2509ddde1c1a0be7417e4f40520338f" target="_top" xlink:title=" ">
<polygon fill="white" stroke="#666666" points="236.75,-19.25 151.75,-19.25 151.75,0 236.75,0 236.75,-19.25"/>
<text xml:space="preserve" text-anchor="middle" x="194.25" y="-5.75" font-family="Helvetica,sans-Serif" font-size="10.00">get_object_item</text>
</a>
</g>
</g>
<!-- Node1&#45;&gt;Node4 -->
<g id="edge4_Node000001_Node000004" class="edge">
<title>Node1&#45;&gt;Node4</title>
<g id="a_edge4_Node000001_Node000004"><a xlink:title=" ">
<path fill="none" stroke="#63b8ff" d="M115.86,-19.99C123.84,-18.92 132.01,-17.83 139.92,-16.77"/>
<polygon fill="#63b8ff" stroke="#63b8ff" points="140.31,-20.25 149.76,-15.45 139.38,-13.31 140.31,-20.25"/>
</a>
</g>
</g>
<!-- Node3 -->
<g id="Node000003" class="node">
<title>Node3</title>
<g id="a_Node000003"><a xlink:href="structinternal__hooks.html#a8b8f7ff45faa5da18dd3ccd2a2c8e416" target="_top" xlink:title=" ">
<polygon fill="white" stroke="#666666" points="393.38,-56.25 276.12,-56.25 276.12,-37 393.38,-37 393.38,-56.25"/>
<text xml:space="preserve" text-anchor="middle" x="334.75" y="-42.75" font-family="Helvetica,sans-Serif" font-size="10.00">internal_hooks::allocate</text>
</a>
</g>
</g>
<!-- Node2&#45;&gt;Node3 -->
<g id="edge2_Node000002_Node000003" class="edge">
<title>Node2&#45;&gt;Node3</title>
<g id="a_edge2_Node000002_Node000003"><a xlink:title=" ">
<path fill="none" stroke="#63b8ff" d="M234.94,-46.62C244.17,-46.62 254.27,-46.62 264.37,-46.62"/>
<polygon fill="#63b8ff" stroke="#63b8ff" points="264.22,-50.13 274.22,-46.63 264.22,-43.13 264.22,-50.13"/>
</a>
</g>
</g>
<!-- Node3&#45;&gt;Node3 -->
<g id="edge3_Node000003_Node000003" class="edge">
<title>Node3&#45;&gt;Node3</title>
<g id="a_edge3_Node000003_Node000003"><a xlink:title=" ">
<path fill="none" stroke="#63b8ff" d="M312.75,-56.54C302.72,-65.15 310.05,-74.25 334.75,-74.25 348.26,-74.25 356.57,-71.53 359.69,-67.65"/>
<polygon fill="#63b8ff" stroke="#63b8ff" points="363.08,-66.77 357.13,-58 356.31,-68.56 363.08,-66.77"/>
</a>
</g>
</g>
<!-- Node5 -->
<g id="Node000005" class="node">
<title>Node5</title>
<g id="a_Node000005"><a xlink:href="cJSON_8c.html#a9b295e9edc859c11ad8c1e3d2cef0467" target="_top" xlink:title=" ">
<polygon fill="white" stroke="#666666" points="396.75,-19.25 272.75,-19.25 272.75,0 396.75,0 396.75,-19.25"/>
<text xml:space="preserve" text-anchor="middle" x="334.75" y="-5.75" font-family="Helvetica,sans-Serif" font-size="10.00">case_insensitive_strcmp</text>
</a>
</g>
</g>
<!-- Node4&#45;&gt;Node5 -->
<g id="edge5_Node000004_Node000005" class="edge">
<title>Node4&#45;&gt;Node5</title>
<g id="a_edge5_Node000004_Node000005"><a xlink:title=" ">
<path fill="none" stroke="#63b8ff" d="M237.18,-9.62C244.7,-9.62 252.74,-9.62 260.84,-9.62"/>
<polygon fill="#63b8ff" stroke="#63b8ff" points="260.78,-13.13 270.78,-9.63 260.78,-6.13 260.78,-13.13"/>
</a>
</g>
</g>
</g>
</svg>
