<?xml version="1.0" encoding="UTF-8" standalone="no"?>
<!DOCTYPE svg PUBLIC "-//W3C//DTD SVG 1.1//EN"
 "http://www.w3.org/Graphics/SVG/1.1/DTD/svg11.dtd">
<!-- Generated by graphviz version 14.0.5 (0)
 -->
<!-- Title: cJSON_New_Item Pages: 1 -->
<svg width="260pt" height="45pt"
 viewBox="0.00 0.00 260.00 45.00" xmlns="http://www.w3.org/2000/svg" xmlns:xlink="http://www.w3.org/1999/xlink">
<g id="graph0" class="graph" transform="scale(1 1) rotate(0) translate(4 41.25)">
<title>cJSON_New_Item</title>
<!-- Node1 -->
<g id="Node000001" class="node">
<title>Node1</title>
<g id="a_Node000001"><a xlink:title=" ">
<polygon fill="#999999" stroke="#666666" points="98.5,-19.25 0,-19.25 0,0 98.5,0 98.5,-19.25"/>
<text xml:space="preserve" text-anchor="middle" x="49.25" y="-5.75" font-family="Helvetica,sans-Serif" font-size="10.00">cJSON_New_Item</text>
</a>
</g>
</g>
<!-- Node2 -->
<g id="Node000002" class="node">
<title>Node2</title>
<g id="a_Node000002"><a xlink:href="structinternal__hooks.html#a8b8f7ff45faa5da18dd3ccd2a2c8e416" target="_top" xlink:title=" ">
<polygon fill="white" stroke="#666666" points="251.75,-19.25 134.5,-19.25 134.5,0 251.75,0 251.75,-19.25"/>
<text xml:space="preserve" text-anchor="middle" x="193.12" y="-5.75" font-family="Helvetica,sans-Serif" font-size="10.00">internal_hooks::allocate</text>
</a>
</g>
</g>
<!-- Node1&#45;&gt;Node2 -->
<g id="edge1_Node000001_Node000002" class="edge">
<title>Node1&#45;&gt;Node2</title>
<g id="a_edge1_Node000001_Node000002"><a xlink:title=" ">
<path fill="none" stroke="#63b8ff" d="M98.68,-9.62C106.43,-9.62 114.57,-9.62 122.69,-9.62"/>
<polygon fill="#63b8ff" stroke="#63b8ff" points="122.6,-13.13 132.6,-9.63 122.6,-6.13 122.6,-13.13"/>
</a>
</g>
</g>
<!-- Node2&#45;&gt;Node2 -->
<g id="edge2_Node000002_Node000002" class="edge">
<title>Node2&#45;&gt;Node2</title>
<g id="a_edge2_Node000002_Node000002"><a xlink:title=" ">
<path fill="none" stroke="#63b8ff" d="M170.6,-19.54C160.33,-28.15 167.83,-37.25 193.12,-37.25 207.35,-37.25 215.95,-34.37 218.92,-30.32"/>
<polygon fill="#63b8ff" stroke="#63b8ff" points="222.34,-29.54 216.09,-20.99 215.65,-31.57 222.34,-29.54"/>
</a>
</g>
</g>
</g>
</svg>
