<?xml version="1.0" encoding="UTF-8" standalone="no"?>
<!DOCTYPE svg PUBLIC "-//W3C//DTD SVG 1.1//EN"
 "http://www.w3.org/Graphics/SVG/1.1/DTD/svg11.dtd">
<!-- Generated by graphviz version 14.0.5 (0)
 -->
<!-- Title: print_value Pages: 1 -->
<svg width="553pt" height="277pt"
 viewBox="0.00 0.00 553.00 277.00" xmlns="http://www.w3.org/2000/svg" xmlns:xlink="http://www.w3.org/1999/xlink">
<g id="graph0" class="graph" transform="scale(1 1) rotate(0) translate(4 272.83)">
<title>print_value</title>
<!-- Node1 -->
<g id="Node000001" class="node">
<title>Node1</title>
<g id="a_Node000001"><a xlink:title=" ">
<polygon fill="#999999" stroke="#666666" points="63.25,-165.83 0,-165.83 0,-146.58 63.25,-146.58 63.25,-165.83"/>
<text xml:space="preserve" text-anchor="middle" x="31.62" y="-152.33" font-family="Helvetica,sans-Serif" font-size="10.00">print_value</text>
</a>
</g>
</g>
<!-- Node2 -->
<g id="Node000002" class="node">
<title>Node2</title>
<g id="a_Node000002"><a xlink:href="cJSON_8c.html#ad9f9a9b2ad3154fc8033756f23c023a6" target="_top" xlink:title=" ">
<polygon fill="white" stroke="#666666" points="383.5,-154.83 338.25,-154.83 338.25,-135.58 383.5,-135.58 383.5,-154.83"/>
<text xml:space="preserve" text-anchor="middle" x="360.88" y="-141.33" font-family="Helvetica,sans-Serif" font-size="10.00">ensure</text>
</a>
</g>
</g>
<!-- Node1&#45;&gt;Node2 -->
<g id="edge1_Node000001_Node000002" class="edge">
<title>Node1&#45;&gt;Node2</title>
<g id="a_edge1_Node000001_Node000002"><a xlink:title=" ">
<path fill="none" stroke="#63b8ff" d="M38.26,-146.19C48.51,-128.71 71.69,-92.29 99.25,-69.2 140.77,-34.42 154.87,-26.01 207.5,-13.2 248.42,-3.24 267.02,9.86 302.25,-13.2 340.13,-38 353.25,-93.75 357.69,-124.26"/>
<polygon fill="#63b8ff" stroke="#63b8ff" points="354.17,-124.3 358.88,-133.79 361.11,-123.43 354.17,-124.3"/>
</a>
</g>
</g>
<!-- Node5 -->
<g id="Node000005" class="node">
<title>Node5</title>
<g id="a_Node000005"><a xlink:href="cJSON_8c.html#ae84642817f3965a85c7c617663250c16" target="_top" xlink:title=" ">
<polygon fill="white" stroke="#666666" points="165.88,-165.83 104.88,-165.83 104.88,-146.58 165.88,-146.58 165.88,-165.83"/>
<text xml:space="preserve" text-anchor="middle" x="135.38" y="-152.33" font-family="Helvetica,sans-Serif" font-size="10.00">print_array</text>
</a>
</g>
</g>
<!-- Node1&#45;&gt;Node5 -->
<g id="edge6_Node000001_Node000005" class="edge">
<title>Node1&#45;&gt;Node5</title>
<g id="a_edge6_Node000001_Node000005"><a xlink:title=" ">
<path fill="none" stroke="#63b8ff" d="M63.71,-149.93C73.03,-149.46 83.41,-149.34 93.27,-149.56"/>
<polygon fill="#63b8ff" stroke="#63b8ff" points="92.89,-153.05 103.02,-149.94 93.16,-146.06 92.89,-153.05"/>
</a>
</g>
</g>
<!-- Node7 -->
<g id="Node000007" class="node">
<title>Node7</title>
<g id="a_Node000007"><a xlink:href="cJSON_8c.html#ad93d84de08872da0eaa6624be0e74a68" target="_top" xlink:title=" ">
<polygon fill="white" stroke="#666666" points="171.5,-97.83 99.25,-97.83 99.25,-78.58 171.5,-78.58 171.5,-97.83"/>
<text xml:space="preserve" text-anchor="middle" x="135.38" y="-84.33" font-family="Helvetica,sans-Serif" font-size="10.00">print_number</text>
</a>
</g>
</g>
<!-- Node1&#45;&gt;Node7 -->
<g id="edge10_Node000001_Node000007" class="edge">
<title>Node1&#45;&gt;Node7</title>
<g id="a_edge10_Node000001_Node000007"><a xlink:title=" ">
<path fill="none" stroke="#63b8ff" d="M47.64,-146.17C64.02,-135.22 90.5,-117.53 109.89,-104.56"/>
<polygon fill="#63b8ff" stroke="#63b8ff" points="111.67,-107.58 118.04,-99.12 107.78,-101.76 111.67,-107.58"/>
</a>
</g>
</g>
<!-- Node10 -->
<g id="Node000010" class="node">
<title>Node10</title>
<g id="a_Node000010"><a xlink:href="cJSON_8c.html#a3d742f5c68799bca291432a9cd72f8dd" target="_top" xlink:title=" ">
<polygon fill="white" stroke="#666666" points="168.5,-202.83 102.25,-202.83 102.25,-183.58 168.5,-183.58 168.5,-202.83"/>
<text xml:space="preserve" text-anchor="middle" x="135.38" y="-189.33" font-family="Helvetica,sans-Serif" font-size="10.00">print_object</text>
</a>
</g>
</g>
<!-- Node1&#45;&gt;Node10 -->
<g id="edge14_Node000001_Node000010" class="edge">
<title>Node1&#45;&gt;Node10</title>
<g id="a_edge14_Node000001_Node000010"><a xlink:title=" ">
<path fill="none" stroke="#63b8ff" d="M63.71,-161.23C78.56,-165.88 96.07,-172.38 109.95,-178.46"/>
<polygon fill="#63b8ff" stroke="#63b8ff" points="108.26,-181.53 118.8,-182.55 111.2,-175.18 108.26,-181.53"/>
</a>
</g>
</g>
<!-- Node12 -->
<g id="Node000012" class="node">
<title>Node12</title>
<g id="a_Node000012"><a xlink:href="cJSON_8c.html#ad087dd738e49b4258f0a3d378a121df6" target="_top" xlink:title=" ">
<polygon fill="white" stroke="#666666" points="167.38,-258.83 103.38,-258.83 103.38,-239.58 167.38,-239.58 167.38,-258.83"/>
<text xml:space="preserve" text-anchor="middle" x="135.38" y="-245.33" font-family="Helvetica,sans-Serif" font-size="10.00">print_string</text>
</a>
</g>
</g>
<!-- Node1&#45;&gt;Node12 -->
<g id="edge20_Node000001_Node000012" class="edge">
<title>Node1&#45;&gt;Node12</title>
<g id="a_edge20_Node000001_Node000012"><a xlink:title=" ">
<path fill="none" stroke="#63b8ff" d="M43.51,-166.15C60.65,-181.82 94.14,-212.42 115.32,-231.79"/>
<polygon fill="#63b8ff" stroke="#63b8ff" points="112.7,-234.14 122.45,-238.3 117.43,-228.97 112.7,-234.14"/>
</a>
</g>
</g>
<!-- Node3 -->
<g id="Node000003" class="node">
<title>Node3</title>
<g id="a_Node000003"><a xlink:href="structinternal__hooks.html#a8b8f7ff45faa5da18dd3ccd2a2c8e416" target="_top" xlink:title=" ">
<polygon fill="white" stroke="#666666" points="540.88,-182.83 423.62,-182.83 423.62,-163.58 540.88,-163.58 540.88,-182.83"/>
<text xml:space="preserve" text-anchor="middle" x="482.25" y="-169.33" font-family="Helvetica,sans-Serif" font-size="10.00">internal_hooks::allocate</text>
</a>
</g>
</g>
<!-- Node2&#45;&gt;Node3 -->
<g id="edge2_Node000002_Node000003" class="edge">
<title>Node2&#45;&gt;Node3</title>
<g id="a_edge2_Node000002_Node000003"><a xlink:title=" ">
<path fill="none" stroke="#63b8ff" d="M383.77,-150.34C396.01,-153.21 411.85,-156.92 427.2,-160.52"/>
<polygon fill="#63b8ff" stroke="#63b8ff" points="426.21,-163.89 436.75,-162.76 427.81,-157.07 426.21,-163.89"/>
</a>
</g>
</g>
<!-- Node4 -->
<g id="Node000004" class="node">
<title>Node4</title>
<g id="a_Node000004"><a xlink:href="structinternal__hooks.html#a7c3921493fab83f33cd509145d8a5393" target="_top" xlink:title=" ">
<polygon fill="white" stroke="#666666" points="545,-127.83 419.5,-127.83 419.5,-108.58 545,-108.58 545,-127.83"/>
<text xml:space="preserve" text-anchor="middle" x="482.25" y="-114.33" font-family="Helvetica,sans-Serif" font-size="10.00">internal_hooks::reallocate</text>
</a>
</g>
</g>
<!-- Node2&#45;&gt;Node4 -->
<g id="edge4_Node000002_Node000004" class="edge">
<title>Node2&#45;&gt;Node4</title>
<g id="a_edge4_Node000002_Node000004"><a xlink:title=" ">
<path fill="none" stroke="#63b8ff" d="M383.77,-140.25C395.57,-137.58 410.72,-134.15 425.54,-130.8"/>
<polygon fill="#63b8ff" stroke="#63b8ff" points="426.29,-134.22 435.27,-128.6 424.74,-127.39 426.29,-134.22"/>
</a>
</g>
</g>
<!-- Node3&#45;&gt;Node3 -->
<g id="edge3_Node000003_Node000003" class="edge">
<title>Node3&#45;&gt;Node3</title>
<g id="a_edge3_Node000003_Node000003"><a xlink:title=" ">
<path fill="none" stroke="#63b8ff" d="M463.25,-183.11C454.58,-191.72 460.91,-200.83 482.25,-200.83 493.92,-200.83 501.1,-198.1 503.79,-194.23"/>
<polygon fill="#63b8ff" stroke="#63b8ff" points="507.23,-193.56 501.59,-184.59 500.41,-195.12 507.23,-193.56"/>
</a>
</g>
</g>
<!-- Node4&#45;&gt;Node4 -->
<g id="edge5_Node000004_Node000004" class="edge">
<title>Node4&#45;&gt;Node4</title>
<g id="a_edge5_Node000004_Node000004"><a xlink:title=" ">
<path fill="none" stroke="#63b8ff" d="M463.25,-128.11C454.58,-136.72 460.91,-145.83 482.25,-145.83 493.92,-145.83 501.1,-143.1 503.79,-139.23"/>
<polygon fill="#63b8ff" stroke="#63b8ff" points="507.23,-138.56 501.59,-129.59 500.41,-140.12 507.23,-138.56"/>
</a>
</g>
</g>
<!-- Node5&#45;&gt;Node1 -->
<g id="edge8_Node000005_Node000001" class="edge">
<title>Node5&#45;&gt;Node1</title>
<g id="a_edge8_Node000005_Node000001"><a xlink:title=" ">
<path fill="none" stroke="#63b8ff" d="M104.53,-162.41C95.3,-162.91 84.95,-163.07 75.04,-162.87"/>
<polygon fill="#63b8ff" stroke="#63b8ff" points="75.33,-159.38 65.22,-162.53 75.09,-166.37 75.33,-159.38"/>
</a>
</g>
</g>
<!-- Node5&#45;&gt;Node2 -->
<g id="edge7_Node000005_Node000002" class="edge">
<title>Node5&#45;&gt;Node2</title>
<g id="a_edge7_Node000005_Node000002"><a xlink:title=" ">
<path fill="none" stroke="#63b8ff" d="M166.05,-154.74C207.62,-152.7 282.96,-148.99 326.46,-146.85"/>
<polygon fill="#63b8ff" stroke="#63b8ff" points="326.5,-150.35 336.31,-146.36 326.15,-143.36 326.5,-150.35"/>
</a>
</g>
</g>
<!-- Node6 -->
<g id="Node000006" class="node">
<title>Node6</title>
<g id="a_Node000006"><a xlink:href="cJSON_8c.html#af5fb173126786c1e3f90b6df6e2500c5" target="_top" xlink:title=" ">
<polygon fill="white" stroke="#666666" points="292.12,-192.83 217.62,-192.83 217.62,-173.58 292.12,-173.58 292.12,-192.83"/>
<text xml:space="preserve" text-anchor="middle" x="254.88" y="-179.33" font-family="Helvetica,sans-Serif" font-size="10.00">update_offset</text>
</a>
</g>
</g>
<!-- Node5&#45;&gt;Node6 -->
<g id="edge9_Node000005_Node000006" class="edge">
<title>Node5&#45;&gt;Node6</title>
<g id="a_edge9_Node000005_Node000006"><a xlink:title=" ">
<path fill="none" stroke="#63b8ff" d="M166.33,-163.08C178.44,-165.87 192.72,-169.15 206.2,-172.25"/>
<polygon fill="#63b8ff" stroke="#63b8ff" points="205.25,-175.62 215.78,-174.45 206.82,-168.8 205.25,-175.62"/>
</a>
</g>
</g>
<!-- Node7&#45;&gt;Node2 -->
<g id="edge12_Node000007_Node000002" class="edge">
<title>Node7&#45;&gt;Node2</title>
<g id="a_edge12_Node000007_Node000002"><a xlink:title=" ">
<path fill="none" stroke="#63b8ff" d="M171.79,-97.23C214.34,-108.09 285.17,-126.15 326.7,-136.74"/>
<polygon fill="#63b8ff" stroke="#63b8ff" points="325.82,-140.13 336.37,-139.21 327.55,-133.34 325.82,-140.13"/>
</a>
</g>
</g>
<!-- Node8 -->
<g id="Node000008" class="node">
<title>Node8</title>
<g id="a_Node000008"><a xlink:href="cJSON_8c.html#aa7a85b63f1830e7e666e1f56872d5d3e" target="_top" xlink:title=" ">
<polygon fill="white" stroke="#666666" points="298.5,-78.83 211.25,-78.83 211.25,-59.58 298.5,-59.58 298.5,-78.83"/>
<text xml:space="preserve" text-anchor="middle" x="254.88" y="-65.33" font-family="Helvetica,sans-Serif" font-size="10.00">compare_double</text>
</a>
</g>
</g>
<!-- Node7&#45;&gt;Node8 -->
<g id="edge11_Node000007_Node000008" class="edge">
<title>Node7&#45;&gt;Node8</title>
<g id="a_edge11_Node000007_Node000008"><a xlink:title=" ">
<path fill="none" stroke="#63b8ff" d="M171.95,-82.45C180.69,-81.04 190.24,-79.49 199.64,-77.97"/>
<polygon fill="#63b8ff" stroke="#63b8ff" points="200.16,-81.43 209.47,-76.38 199.04,-74.52 200.16,-81.43"/>
</a>
</g>
</g>
<!-- Node9 -->
<g id="Node000009" class="node">
<title>Node9</title>
<g id="a_Node000009"><a xlink:href="cJSON_8c.html#ab25412ae56c8c594831918169bea100d" target="_top" xlink:title=" ">
<polygon fill="white" stroke="#666666" points="302.25,-41.83 207.5,-41.83 207.5,-22.58 302.25,-22.58 302.25,-41.83"/>
<text xml:space="preserve" text-anchor="middle" x="254.88" y="-28.33" font-family="Helvetica,sans-Serif" font-size="10.00">get_decimal_point</text>
</a>
</g>
</g>
<!-- Node7&#45;&gt;Node9 -->
<g id="edge13_Node000007_Node000009" class="edge">
<title>Node7&#45;&gt;Node9</title>
<g id="a_edge13_Node000007_Node000009"><a xlink:title=" ">
<path fill="none" stroke="#63b8ff" d="M153.62,-78.24C167.84,-70.2 188.67,-58.85 207.5,-50.2 210.11,-49 212.82,-47.81 215.57,-46.65"/>
<polygon fill="#63b8ff" stroke="#63b8ff" points="216.84,-49.91 224.78,-42.89 214.2,-43.43 216.84,-49.91"/>
</a>
</g>
</g>
<!-- Node10&#45;&gt;Node1 -->
<g id="edge18_Node000010_Node000001" class="edge">
<title>Node10&#45;&gt;Node1</title>
<g id="a_edge18_Node000010_Node000001"><a xlink:title=" ">
<path fill="none" stroke="#63b8ff" d="M101.92,-187.74C87.4,-183.13 70.58,-176.86 57.14,-170.99"/>
<polygon fill="#63b8ff" stroke="#63b8ff" points="58.69,-167.85 48.15,-166.83 55.75,-174.2 58.69,-167.85"/>
</a>
</g>
</g>
<!-- Node10&#45;&gt;Node2 -->
<g id="edge15_Node000010_Node000002" class="edge">
<title>Node10&#45;&gt;Node2</title>
<g id="a_edge15_Node000010_Node000002"><a xlink:title=" ">
<path fill="none" stroke="#63b8ff" d="M168.93,-202.98C203.41,-211.54 258.77,-220.07 302.25,-202.2 320.89,-194.54 336.71,-177.61 347.03,-164.18"/>
<polygon fill="#63b8ff" stroke="#63b8ff" points="349.62,-166.58 352.65,-156.43 343.95,-162.47 349.62,-166.58"/>
</a>
</g>
</g>
<!-- Node10&#45;&gt;Node6 -->
<g id="edge19_Node000010_Node000006" class="edge">
<title>Node10&#45;&gt;Node6</title>
<g id="a_edge19_Node000010_Node000006"><a xlink:title=" ">
<path fill="none" stroke="#63b8ff" d="M168.79,-190.44C180.34,-189.46 193.6,-188.33 206.15,-187.26"/>
<polygon fill="#63b8ff" stroke="#63b8ff" points="206.25,-190.77 215.91,-186.43 205.65,-183.79 206.25,-190.77"/>
</a>
</g>
</g>
<!-- Node11 -->
<g id="Node000011" class="node">
<title>Node11</title>
<g id="a_Node000011"><a xlink:href="cJSON_8c.html#af5b4e769356f10d99a7f66697c42c1bb" target="_top" xlink:title=" ">
<polygon fill="white" stroke="#666666" points="295.12,-268.83 214.62,-268.83 214.62,-249.58 295.12,-249.58 295.12,-268.83"/>
<text xml:space="preserve" text-anchor="middle" x="254.88" y="-255.33" font-family="Helvetica,sans-Serif" font-size="10.00">print_string_ptr</text>
</a>
</g>
</g>
<!-- Node10&#45;&gt;Node11 -->
<g id="edge16_Node000010_Node000011" class="edge">
<title>Node10&#45;&gt;Node11</title>
<g id="a_edge16_Node000010_Node000011"><a xlink:title=" ">
<path fill="none" stroke="#63b8ff" d="M152.89,-203.31C167.21,-211.99 188.55,-224.72 207.5,-235.2 212.72,-238.09 218.32,-241.08 223.76,-243.93"/>
<polygon fill="#63b8ff" stroke="#63b8ff" points="222.05,-246.98 232.54,-248.47 225.27,-240.77 222.05,-246.98"/>
</a>
</g>
</g>
<!-- Node11&#45;&gt;Node2 -->
<g id="edge17_Node000011_Node000002" class="edge">
<title>Node11&#45;&gt;Node2</title>
<g id="a_edge17_Node000011_Node000002"><a xlink:title=" ">
<path fill="none" stroke="#63b8ff" d="M281,-249.19C288.37,-245.5 296.09,-240.82 302.25,-235.2 324.02,-215.34 340.96,-185.48 350.68,-165.68"/>
<polygon fill="#63b8ff" stroke="#63b8ff" points="353.82,-167.23 354.91,-156.7 347.48,-164.25 353.82,-167.23"/>
</a>
</g>
</g>
<!-- Node12&#45;&gt;Node11 -->
<g id="edge21_Node000012_Node000011" class="edge">
<title>Node12&#45;&gt;Node11</title>
<g id="a_edge21_Node000012_Node000011"><a xlink:title=" ">
<path fill="none" stroke="#63b8ff" d="M167.86,-251.88C178.68,-252.8 191.08,-253.86 203.04,-254.88"/>
<polygon fill="#63b8ff" stroke="#63b8ff" points="202.53,-258.34 212.79,-255.71 203.13,-251.37 202.53,-258.34"/>
</a>
</g>
</g>
</g>
</svg>
