<?xml version="1.0" encoding="UTF-8" standalone="no"?>
<!DOCTYPE svg PUBLIC "-//W3C//DTD SVG 1.1//EN"
 "http://www.w3.org/Graphics/SVG/1.1/DTD/svg11.dtd">
<!-- Generated by graphviz version 14.0.5 (0)
 -->
<!-- Title: get_decimal_point Pages: 1 -->
<svg width="449pt" height="249pt"
 viewBox="0.00 0.00 449.00 249.00" xmlns="http://www.w3.org/2000/svg" xmlns:xlink="http://www.w3.org/1999/xlink">
<g id="graph0" class="graph" transform="scale(1 1) rotate(0) translate(4 245.25)">
<title>get_decimal_point</title>
<!-- Node1 -->
<g id="Node000001" class="node">
<title>Node1</title>
<g id="a_Node000001"><a xlink:title=" ">
<polygon fill="#999999" stroke="#666666" points="440.5,-111.25 345.75,-111.25 345.75,-92 440.5,-92 440.5,-111.25"/>
<text xml:space="preserve" text-anchor="middle" x="393.12" y="-97.75" font-family="Helvetica,sans-Serif" font-size="10.00">get_decimal_point</text>
</a>
</g>
</g>
<!-- Node2 -->
<g id="Node000002" class="node">
<title>Node2</title>
<g id="a_Node000002"><a xlink:href="cJSON_8c.html#a699e1cebda71c2846a9a10b29b4dc407" target="_top" xlink:title=" ">
<polygon fill="white" stroke="#666666" points="309.75,-167.25 232.25,-167.25 232.25,-148 309.75,-148 309.75,-167.25"/>
<text xml:space="preserve" text-anchor="middle" x="271" y="-153.75" font-family="Helvetica,sans-Serif" font-size="10.00">parse_number</text>
</a>
</g>
</g>
<!-- Node1&#45;&gt;Node2 -->
<g id="edge1_Node000001_Node000002" class="edge">
<title>Node1&#45;&gt;Node2</title>
<g id="a_edge1_Node000001_Node000002"><a xlink:title=" ">
<path fill="none" stroke="#63b8ff" d="M360.28,-116.47C339.25,-126.27 312.27,-138.85 293.7,-147.51"/>
<polygon fill="#63b8ff" stroke="#63b8ff" points="361.69,-119.67 369.28,-112.28 358.73,-113.33 361.69,-119.67"/>
</a>
</g>
</g>
<!-- Node7 -->
<g id="Node000007" class="node">
<title>Node7</title>
<g id="a_Node000007"><a xlink:href="cJSON_8c.html#ad93d84de08872da0eaa6624be0e74a68" target="_top" xlink:title=" ">
<polygon fill="white" stroke="#666666" points="307.12,-93.25 234.88,-93.25 234.88,-74 307.12,-74 307.12,-93.25"/>
<text xml:space="preserve" text-anchor="middle" x="271" y="-79.75" font-family="Helvetica,sans-Serif" font-size="10.00">print_number</text>
</a>
</g>
</g>
<!-- Node1&#45;&gt;Node7 -->
<g id="edge8_Node000001_Node000007" class="edge">
<title>Node1&#45;&gt;Node7</title>
<g id="a_edge8_Node000001_Node000007"><a xlink:title=" ">
<path fill="none" stroke="#63b8ff" d="M334.22,-92.95C325.03,-91.57 315.77,-90.18 307.31,-88.92"/>
<polygon fill="#63b8ff" stroke="#63b8ff" points="333.43,-96.37 343.84,-94.39 334.47,-89.45 333.43,-96.37"/>
</a>
</g>
</g>
<!-- Node3 -->
<g id="Node000003" class="node">
<title>Node3</title>
<g id="a_Node000003"><a xlink:href="cJSON_8c.html#afd5c0b7089e4de2fc9b2af599d4b596f" target="_top" xlink:title=" ">
<polygon fill="white" stroke="#666666" points="196.25,-185.25 127.75,-185.25 127.75,-166 196.25,-166 196.25,-185.25"/>
<text xml:space="preserve" text-anchor="middle" x="162" y="-171.75" font-family="Helvetica,sans-Serif" font-size="10.00">parse_value</text>
</a>
</g>
</g>
<!-- Node2&#45;&gt;Node3 -->
<g id="edge2_Node000002_Node000003" class="edge">
<title>Node2&#45;&gt;Node3</title>
<g id="a_edge2_Node000002_Node000003"><a xlink:title=" ">
<path fill="none" stroke="#63b8ff" d="M220.65,-165.93C212.52,-167.29 204.26,-168.68 196.64,-169.97"/>
<polygon fill="#63b8ff" stroke="#63b8ff" points="221.2,-169.38 230.48,-164.27 220.04,-162.48 221.2,-169.38"/>
</a>
</g>
</g>
<!-- Node4 -->
<g id="Node000004" class="node">
<title>Node4</title>
<g id="a_Node000004"><a xlink:href="cJSON_8h.html#abd55c37a5af547c3c1ada176e38afbc6" target="_top" xlink:title=" ">
<polygon fill="white" stroke="#666666" points="91.75,-241.25 0,-241.25 0,-222 91.75,-222 91.75,-241.25"/>
<text xml:space="preserve" text-anchor="middle" x="45.88" y="-227.75" font-family="Helvetica,sans-Serif" font-size="10.00">CJSON_PUBLIC</text>
</a>
</g>
</g>
<!-- Node3&#45;&gt;Node4 -->
<g id="edge3_Node000003_Node000004" class="edge">
<title>Node3&#45;&gt;Node4</title>
<g id="a_edge3_Node000003_Node000004"><a xlink:title=" ">
<path fill="none" stroke="#63b8ff" d="M134.04,-191.4C121.39,-198.55 105.99,-206.89 91.75,-213.62 85.83,-216.42 79.35,-219.19 73.21,-221.68"/>
<polygon fill="#63b8ff" stroke="#63b8ff" points="135.69,-194.5 142.63,-186.49 132.21,-188.42 135.69,-194.5"/>
</a>
</g>
</g>
<!-- Node5 -->
<g id="Node000005" class="node">
<title>Node5</title>
<g id="a_Node000005"><a xlink:href="cJSON_8c.html#a367cc7ac5a592211d9f18dc02dd23069" target="_top" xlink:title=" ">
<polygon fill="white" stroke="#666666" points="79,-204.25 12.75,-204.25 12.75,-185 79,-185 79,-204.25"/>
<text xml:space="preserve" text-anchor="middle" x="45.88" y="-190.75" font-family="Helvetica,sans-Serif" font-size="10.00">parse_array</text>
</a>
</g>
</g>
<!-- Node3&#45;&gt;Node5 -->
<g id="edge4_Node000003_Node000005" class="edge">
<title>Node3&#45;&gt;Node5</title>
<g id="a_edge4_Node000003_Node000005"><a xlink:title=" ">
<path fill="none" stroke="#63b8ff" d="M116.35,-176.45C101.54,-178.57 85.55,-181.52 72.66,-184.58"/>
<polygon fill="#63b8ff" stroke="#63b8ff" points="116.42,-179.97 125.88,-175.2 115.51,-173.03 116.42,-179.97"/>
</a>
</g>
</g>
<!-- Node6 -->
<g id="Node000006" class="node">
<title>Node6</title>
<g id="a_Node000006"><a xlink:href="cJSON_8c.html#a1472ac5d1becd7d9a5e558b4c053b06a" target="_top" xlink:title=" ">
<polygon fill="white" stroke="#666666" points="81.62,-167.25 10.12,-167.25 10.12,-148 81.62,-148 81.62,-167.25"/>
<text xml:space="preserve" text-anchor="middle" x="45.88" y="-153.75" font-family="Helvetica,sans-Serif" font-size="10.00">parse_object</text>
</a>
</g>
</g>
<!-- Node3&#45;&gt;Node6 -->
<g id="edge6_Node000003_Node000006" class="edge">
<title>Node3&#45;&gt;Node6</title>
<g id="a_edge6_Node000003_Node000006"><a xlink:title=" ">
<path fill="none" stroke="#63b8ff" d="M122.82,-163.19C109.62,-160.62 94.89,-158.34 81.95,-156.87"/>
<polygon fill="#63b8ff" stroke="#63b8ff" points="121.97,-166.59 132.47,-165.21 123.4,-159.74 121.97,-166.59"/>
</a>
</g>
</g>
<!-- Node5&#45;&gt;Node3 -->
<g id="edge5_Node000005_Node000003" class="edge">
<title>Node5&#45;&gt;Node3</title>
<g id="a_edge5_Node000005_Node000003"><a xlink:title=" ">
<path fill="none" stroke="#63b8ff" d="M90.4,-193.96C105.48,-191.84 121.9,-188.83 135.1,-185.7"/>
<polygon fill="#63b8ff" stroke="#63b8ff" points="90.18,-190.46 80.7,-195.2 91.07,-197.4 90.18,-190.46"/>
</a>
</g>
</g>
<!-- Node6&#45;&gt;Node3 -->
<g id="edge7_Node000006_Node000003" class="edge">
<title>Node6&#45;&gt;Node3</title>
<g id="a_edge7_Node000006_Node000003"><a xlink:title=" ">
<path fill="none" stroke="#63b8ff" d="M84.84,-170.01C98.59,-172.7 114.02,-175.07 127.38,-176.54"/>
<polygon fill="#63b8ff" stroke="#63b8ff" points="85.75,-166.63 75.24,-168 84.31,-173.48 85.75,-166.63"/>
</a>
</g>
</g>
<!-- Node8 -->
<g id="Node000008" class="node">
<title>Node8</title>
<g id="a_Node000008"><a xlink:href="cJSON_8c.html#a5ba141f183b9abb4b49e38a211299c7e" target="_top" xlink:title=" ">
<polygon fill="white" stroke="#666666" points="193.62,-56.25 130.38,-56.25 130.38,-37 193.62,-37 193.62,-56.25"/>
<text xml:space="preserve" text-anchor="middle" x="162" y="-42.75" font-family="Helvetica,sans-Serif" font-size="10.00">print_value</text>
</a>
</g>
</g>
<!-- Node7&#45;&gt;Node8 -->
<g id="edge9_Node000007_Node000008" class="edge">
<title>Node7&#45;&gt;Node8</title>
<g id="a_edge9_Node000007_Node000008"><a xlink:title=" ">
<path fill="none" stroke="#63b8ff" d="M230.07,-69.82C217.51,-65.47 203.88,-60.76 192.2,-56.72"/>
<polygon fill="#63b8ff" stroke="#63b8ff" points="228.74,-73.06 239.33,-73.02 231.02,-66.44 228.74,-73.06"/>
</a>
</g>
</g>
<!-- Node9 -->
<g id="Node000009" class="node">
<title>Node9</title>
<g id="a_Node000009"><a xlink:href="cJSON_8c.html#aed7e219a2b9187880c97c6f0ea5fa1b4" target="_top" xlink:title=" ">
<polygon fill="white" stroke="#666666" points="91.75,-130.25 0,-130.25 0,-111 91.75,-111 91.75,-130.25"/>
<text xml:space="preserve" text-anchor="middle" x="45.88" y="-116.75" font-family="Helvetica,sans-Serif" font-size="10.00">CJSON_PUBLIC</text>
</a>
</g>
</g>
<!-- Node8&#45;&gt;Node9 -->
<g id="edge10_Node000008_Node000009" class="edge">
<title>Node8&#45;&gt;Node9</title>
<g id="a_edge10_Node000008_Node000009"><a xlink:title=" ">
<path fill="none" stroke="#63b8ff" d="M142.66,-64.01C129.31,-76 110.39,-91.69 91.75,-102.62 86.68,-105.6 81.03,-108.29 75.49,-110.64"/>
<polygon fill="#63b8ff" stroke="#63b8ff" points="144.82,-66.78 149.82,-57.43 140.09,-61.62 144.82,-66.78"/>
</a>
</g>
</g>
<!-- Node10 -->
<g id="Node000010" class="node">
<title>Node10</title>
<g id="a_Node000010"><a xlink:href="cJSON_8c.html#a36b0c212c0d382a4714afa8b70c1a2ee" target="_top" xlink:title=" ">
<polygon fill="white" stroke="#666666" points="63.25,-93.25 28.5,-93.25 28.5,-74 63.25,-74 63.25,-93.25"/>
<text xml:space="preserve" text-anchor="middle" x="45.88" y="-79.75" font-family="Helvetica,sans-Serif" font-size="10.00">print</text>
</a>
</g>
</g>
<!-- Node8&#45;&gt;Node10 -->
<g id="edge11_Node000008_Node000010" class="edge">
<title>Node8&#45;&gt;Node10</title>
<g id="a_edge11_Node000008_Node000010"><a xlink:title=" ">
<path fill="none" stroke="#63b8ff" d="M119.43,-60.1C100.13,-66.36 78.28,-73.44 63.65,-78.19"/>
<polygon fill="#63b8ff" stroke="#63b8ff" points="120.24,-63.52 128.68,-57.1 118.08,-56.86 120.24,-63.52"/>
</a>
</g>
</g>
<!-- Node11 -->
<g id="Node000011" class="node">
<title>Node11</title>
<g id="a_Node000011"><a xlink:href="cJSON_8c.html#ae84642817f3965a85c7c617663250c16" target="_top" xlink:title=" ">
<polygon fill="white" stroke="#666666" points="76.38,-56.25 15.37,-56.25 15.37,-37 76.38,-37 76.38,-56.25"/>
<text xml:space="preserve" text-anchor="middle" x="45.88" y="-42.75" font-family="Helvetica,sans-Serif" font-size="10.00">print_array</text>
</a>
</g>
</g>
<!-- Node8&#45;&gt;Node11 -->
<g id="edge12_Node000008_Node000011" class="edge">
<title>Node8&#45;&gt;Node11</title>
<g id="a_edge12_Node000008_Node000011"><a xlink:title=" ">
<path fill="none" stroke="#63b8ff" d="M118.74,-40.08C104.73,-39.68 89.46,-39.86 76.6,-40.62"/>
<polygon fill="#63b8ff" stroke="#63b8ff" points="118.47,-43.57 128.6,-40.49 118.76,-36.58 118.47,-43.57"/>
</a>
</g>
</g>
<!-- Node12 -->
<g id="Node000012" class="node">
<title>Node12</title>
<g id="a_Node000012"><a xlink:href="cJSON_8c.html#a3d742f5c68799bca291432a9cd72f8dd" target="_top" xlink:title=" ">
<polygon fill="white" stroke="#666666" points="79,-19.25 12.75,-19.25 12.75,0 79,0 79,-19.25"/>
<text xml:space="preserve" text-anchor="middle" x="45.88" y="-5.75" font-family="Helvetica,sans-Serif" font-size="10.00">print_object</text>
</a>
</g>
</g>
<!-- Node8&#45;&gt;Node12 -->
<g id="edge14_Node000008_Node000012" class="edge">
<title>Node8&#45;&gt;Node12</title>
<g id="a_edge14_Node000008_Node000012"><a xlink:title=" ">
<path fill="none" stroke="#63b8ff" d="M134.64,-32.29C118.22,-25.82 96.96,-18.81 79.48,-14.03"/>
<polygon fill="#63b8ff" stroke="#63b8ff" points="133.16,-35.46 143.73,-36.06 135.84,-28.99 133.16,-35.46"/>
</a>
</g>
</g>
<!-- Node11&#45;&gt;Node8 -->
<g id="edge13_Node000011_Node000008" class="edge">
<title>Node11&#45;&gt;Node8</title>
<g id="a_edge13_Node000011_Node000008"><a xlink:title=" ">
<path fill="none" stroke="#63b8ff" d="M87.89,-53.13C101.81,-53.56 117.12,-53.42 130.12,-52.7"/>
<polygon fill="#63b8ff" stroke="#63b8ff" points="88.26,-49.64 78.11,-52.7 87.95,-56.64 88.26,-49.64"/>
</a>
</g>
</g>
<!-- Node12&#45;&gt;Node8 -->
<g id="edge15_Node000012_Node000008" class="edge">
<title>Node12&#45;&gt;Node8</title>
<g id="a_edge15_Node000012_Node000008"><a xlink:title=" ">
<path fill="none" stroke="#63b8ff" d="M73.32,-24C90.27,-30.66 112.35,-37.91 130.12,-42.69"/>
<polygon fill="#63b8ff" stroke="#63b8ff" points="74.99,-20.9 64.41,-20.31 72.31,-27.37 74.99,-20.9"/>
</a>
</g>
</g>
</g>
</svg>
