<?xml version="1.0" encoding="UTF-8" standalone="no"?>
<!DOCTYPE svg PUBLIC "-//W3C//DTD SVG 1.1//EN"
 "http://www.w3.org/Graphics/SVG/1.1/DTD/svg11.dtd">
<!-- Generated by graphviz version 14.0.5 (0)
 -->
<!-- Title: print_object Pages: 1 -->
<svg width="655pt" height="293pt"
 viewBox="0.00 0.00 655.00 293.00" xmlns="http://www.w3.org/2000/svg" xmlns:xlink="http://www.w3.org/1999/xlink">
<g id="graph0" class="graph" transform="scale(1 1) rotate(0) translate(4 288.66)">
<title>print_object</title>
<!-- Node1 -->
<g id="Node000001" class="node">
<title>Node1</title>
<g id="a_Node000001"><a xlink:title=" ">
<polygon fill="#999999" stroke="#666666" points="66.25,-115.56 0,-115.56 0,-96.31 66.25,-96.31 66.25,-115.56"/>
<text xml:space="preserve" text-anchor="middle" x="33.12" y="-102.06" font-family="Helvetica,sans-Serif" font-size="10.00">print_object</text>
</a>
</g>
</g>
<!-- Node2 -->
<g id="Node000002" class="node">
<title>Node2</title>
<g id="a_Node000002"><a xlink:href="cJSON_8c.html#ad9f9a9b2ad3154fc8033756f23c023a6" target="_top" xlink:title=" ">
<polygon fill="white" stroke="#666666" points="485.75,-115.56 440.5,-115.56 440.5,-96.31 485.75,-96.31 485.75,-115.56"/>
<text xml:space="preserve" text-anchor="middle" x="463.12" y="-102.06" font-family="Helvetica,sans-Serif" font-size="10.00">ensure</text>
</a>
</g>
</g>
<!-- Node1&#45;&gt;Node2 -->
<g id="edge1_Node000001_Node000002" class="edge">
<title>Node1&#45;&gt;Node2</title>
<g id="a_edge1_Node000001_Node000002"><a xlink:title=" ">
<path fill="none" stroke="#63b8ff" d="M50.14,-95.9C63.64,-87.77 83.66,-76.47 102.25,-68.94 191,-32.97 214.88,-23.95 309.75,-10.94 351.47,-5.21 367.8,9.72 404.5,-10.94 432.57,-26.74 448.54,-62.35 456.25,-85.2"/>
<polygon fill="#63b8ff" stroke="#63b8ff" points="452.88,-86.13 459.18,-94.65 459.56,-84.06 452.88,-86.13"/>
</a>
</g>
</g>
<!-- Node5 -->
<g id="Node000005" class="node">
<title>Node5</title>
<g id="a_Node000005"><a xlink:href="cJSON_8c.html#af5b4e769356f10d99a7f66697c42c1bb" target="_top" xlink:title=" ">
<polygon fill="white" stroke="#666666" points="397.38,-266.56 316.88,-266.56 316.88,-247.31 397.38,-247.31 397.38,-266.56"/>
<text xml:space="preserve" text-anchor="middle" x="357.12" y="-253.06" font-family="Helvetica,sans-Serif" font-size="10.00">print_string_ptr</text>
</a>
</g>
</g>
<!-- Node1&#45;&gt;Node5 -->
<g id="edge6_Node000001_Node000005" class="edge">
<title>Node1&#45;&gt;Node5</title>
<g id="a_edge6_Node000001_Node000005"><a xlink:title=" ">
<path fill="none" stroke="#63b8ff" d="M39.82,-115.83C58.29,-146.8 120.13,-241.86 201.5,-275.94 240.44,-292.24 289.38,-281.6 321.65,-270.81"/>
<polygon fill="#63b8ff" stroke="#63b8ff" points="322.64,-274.17 330.9,-267.54 320.3,-267.57 322.64,-274.17"/>
</a>
</g>
</g>
<!-- Node6 -->
<g id="Node000006" class="node">
<title>Node6</title>
<g id="a_Node000006"><a xlink:href="cJSON_8c.html#a5ba141f183b9abb4b49e38a211299c7e" target="_top" xlink:title=" ">
<polygon fill="white" stroke="#666666" points="165.5,-115.56 102.25,-115.56 102.25,-96.31 165.5,-96.31 165.5,-115.56"/>
<text xml:space="preserve" text-anchor="middle" x="133.88" y="-102.06" font-family="Helvetica,sans-Serif" font-size="10.00">print_value</text>
</a>
</g>
</g>
<!-- Node1&#45;&gt;Node6 -->
<g id="edge8_Node000001_Node000006" class="edge">
<title>Node1&#45;&gt;Node6</title>
<g id="a_edge8_Node000001_Node000006"><a xlink:title=" ">
<path fill="none" stroke="#63b8ff" d="M66.73,-99.54C74.36,-99.21 82.59,-99.11 90.57,-99.25"/>
<polygon fill="#63b8ff" stroke="#63b8ff" points="90.35,-102.74 100.46,-99.57 90.58,-95.75 90.35,-102.74"/>
</a>
</g>
</g>
<!-- Node8 -->
<g id="Node000008" class="node">
<title>Node8</title>
<g id="a_Node000008"><a xlink:href="cJSON_8c.html#af5fb173126786c1e3f90b6df6e2500c5" target="_top" xlink:title=" ">
<polygon fill="white" stroke="#666666" points="394.38,-39.56 319.88,-39.56 319.88,-20.31 394.38,-20.31 394.38,-39.56"/>
<text xml:space="preserve" text-anchor="middle" x="357.12" y="-26.06" font-family="Helvetica,sans-Serif" font-size="10.00">update_offset</text>
</a>
</g>
</g>
<!-- Node1&#45;&gt;Node8 -->
<g id="edge21_Node000001_Node000008" class="edge">
<title>Node1&#45;&gt;Node8</title>
<g id="a_edge21_Node000001_Node000008"><a xlink:title=" ">
<path fill="none" stroke="#63b8ff" d="M66.61,-96.51C77.86,-93.34 90.58,-89.87 102.25,-86.94 173.73,-68.96 257.22,-50.74 308.38,-39.89"/>
<polygon fill="#63b8ff" stroke="#63b8ff" points="308.87,-43.37 317.93,-37.88 307.42,-36.52 308.87,-43.37"/>
</a>
</g>
</g>
<!-- Node3 -->
<g id="Node000003" class="node">
<title>Node3</title>
<g id="a_Node000003"><a xlink:href="structinternal__hooks.html#a8b8f7ff45faa5da18dd3ccd2a2c8e416" target="_top" xlink:title=" ">
<polygon fill="white" stroke="#666666" points="643.12,-143.56 525.88,-143.56 525.88,-124.31 643.12,-124.31 643.12,-143.56"/>
<text xml:space="preserve" text-anchor="middle" x="584.5" y="-130.06" font-family="Helvetica,sans-Serif" font-size="10.00">internal_hooks::allocate</text>
</a>
</g>
</g>
<!-- Node2&#45;&gt;Node3 -->
<g id="edge2_Node000002_Node000003" class="edge">
<title>Node2&#45;&gt;Node3</title>
<g id="a_edge2_Node000002_Node000003"><a xlink:title=" ">
<path fill="none" stroke="#63b8ff" d="M486.02,-111.07C498.26,-113.94 514.1,-117.66 529.45,-121.26"/>
<polygon fill="#63b8ff" stroke="#63b8ff" points="528.46,-124.62 539,-123.5 530.06,-117.81 528.46,-124.62"/>
</a>
</g>
</g>
<!-- Node4 -->
<g id="Node000004" class="node">
<title>Node4</title>
<g id="a_Node000004"><a xlink:href="structinternal__hooks.html#a7c3921493fab83f33cd509145d8a5393" target="_top" xlink:title=" ">
<polygon fill="white" stroke="#666666" points="647.25,-88.56 521.75,-88.56 521.75,-69.31 647.25,-69.31 647.25,-88.56"/>
<text xml:space="preserve" text-anchor="middle" x="584.5" y="-75.06" font-family="Helvetica,sans-Serif" font-size="10.00">internal_hooks::reallocate</text>
</a>
</g>
</g>
<!-- Node2&#45;&gt;Node4 -->
<g id="edge4_Node000002_Node000004" class="edge">
<title>Node2&#45;&gt;Node4</title>
<g id="a_edge4_Node000002_Node000004"><a xlink:title=" ">
<path fill="none" stroke="#63b8ff" d="M486.02,-100.98C497.82,-98.31 512.97,-94.89 527.79,-91.54"/>
<polygon fill="#63b8ff" stroke="#63b8ff" points="528.54,-94.96 537.52,-89.34 526.99,-88.13 528.54,-94.96"/>
</a>
</g>
</g>
<!-- Node3&#45;&gt;Node3 -->
<g id="edge3_Node000003_Node000003" class="edge">
<title>Node3&#45;&gt;Node3</title>
<g id="a_edge3_Node000003_Node000003"><a xlink:title=" ">
<path fill="none" stroke="#63b8ff" d="M565.5,-143.85C556.83,-152.46 563.16,-161.56 584.5,-161.56 596.17,-161.56 603.35,-158.84 606.04,-154.96"/>
<polygon fill="#63b8ff" stroke="#63b8ff" points="609.48,-154.29 603.84,-145.32 602.66,-155.85 609.48,-154.29"/>
</a>
</g>
</g>
<!-- Node4&#45;&gt;Node4 -->
<g id="edge5_Node000004_Node000004" class="edge">
<title>Node4&#45;&gt;Node4</title>
<g id="a_edge5_Node000004_Node000004"><a xlink:title=" ">
<path fill="none" stroke="#63b8ff" d="M565.5,-88.85C556.83,-97.46 563.16,-106.56 584.5,-106.56 596.17,-106.56 603.35,-103.84 606.04,-99.96"/>
<polygon fill="#63b8ff" stroke="#63b8ff" points="609.48,-99.29 603.84,-90.32 602.66,-100.85 609.48,-99.29"/>
</a>
</g>
</g>
<!-- Node5&#45;&gt;Node2 -->
<g id="edge7_Node000005_Node000002" class="edge">
<title>Node5&#45;&gt;Node2</title>
<g id="a_edge7_Node000005_Node000002"><a xlink:title=" ">
<path fill="none" stroke="#63b8ff" d="M384.73,-246.97C391.81,-243.36 399.01,-238.72 404.5,-232.94 433.71,-202.18 449.92,-154.05 457.25,-126.72"/>
<polygon fill="#63b8ff" stroke="#63b8ff" points="460.59,-127.79 459.64,-117.24 453.81,-126.08 460.59,-127.79"/>
</a>
</g>
</g>
<!-- Node6&#45;&gt;Node1 -->
<g id="edge18_Node000006_Node000001" class="edge">
<title>Node6&#45;&gt;Node1</title>
<g id="a_edge18_Node000006_Node000001"><a xlink:title=" ">
<path fill="none" stroke="#63b8ff" d="M101.98,-112.25C94.45,-112.62 86.25,-112.76 78.24,-112.65"/>
<polygon fill="#63b8ff" stroke="#63b8ff" points="78.34,-109.15 68.25,-112.37 78.14,-116.15 78.34,-109.15"/>
</a>
</g>
</g>
<!-- Node6&#45;&gt;Node2 -->
<g id="edge9_Node000006_Node000002" class="edge">
<title>Node6&#45;&gt;Node2</title>
<g id="a_edge9_Node000006_Node000002"><a xlink:title=" ">
<path fill="none" stroke="#63b8ff" d="M147.95,-116.05C175.78,-136.87 243.77,-183.88 309.75,-199.94 350.67,-209.89 367.76,-220.51 404.5,-199.94 432.25,-184.4 448.25,-149.44 456.07,-126.81"/>
<polygon fill="#63b8ff" stroke="#63b8ff" points="459.35,-128.02 459.05,-117.43 452.68,-125.9 459.35,-128.02"/>
</a>
</g>
</g>
<!-- Node7 -->
<g id="Node000007" class="node">
<title>Node7</title>
<g id="a_Node000007"><a xlink:href="cJSON_8c.html#ae84642817f3965a85c7c617663250c16" target="_top" xlink:title=" ">
<polygon fill="white" stroke="#666666" points="268.12,-97.56 207.12,-97.56 207.12,-78.31 268.12,-78.31 268.12,-97.56"/>
<text xml:space="preserve" text-anchor="middle" x="237.62" y="-84.06" font-family="Helvetica,sans-Serif" font-size="10.00">print_array</text>
</a>
</g>
</g>
<!-- Node6&#45;&gt;Node7 -->
<g id="edge10_Node000006_Node000007" class="edge">
<title>Node6&#45;&gt;Node7</title>
<g id="a_edge10_Node000006_Node000007"><a xlink:title=" ">
<path fill="none" stroke="#63b8ff" d="M158.99,-95.83C169.97,-93.06 183.27,-90.45 195.74,-88.54"/>
<polygon fill="#63b8ff" stroke="#63b8ff" points="195.94,-92.04 205.37,-87.2 194.98,-85.11 195.94,-92.04"/>
</a>
</g>
</g>
<!-- Node9 -->
<g id="Node000009" class="node">
<title>Node9</title>
<g id="a_Node000009"><a xlink:href="cJSON_8c.html#ad93d84de08872da0eaa6624be0e74a68" target="_top" xlink:title=" ">
<polygon fill="white" stroke="#666666" points="273.75,-134.56 201.5,-134.56 201.5,-115.31 273.75,-115.31 273.75,-134.56"/>
<text xml:space="preserve" text-anchor="middle" x="237.62" y="-121.06" font-family="Helvetica,sans-Serif" font-size="10.00">print_number</text>
</a>
</g>
</g>
<!-- Node6&#45;&gt;Node9 -->
<g id="edge14_Node000006_Node000009" class="edge">
<title>Node6&#45;&gt;Node9</title>
<g id="a_edge14_Node000006_Node000009"><a xlink:title=" ">
<path fill="none" stroke="#63b8ff" d="M165.96,-111.74C173.5,-113.15 181.74,-114.69 189.84,-116.2"/>
<polygon fill="#63b8ff" stroke="#63b8ff" points="189.14,-119.63 199.62,-118.03 190.43,-112.75 189.14,-119.63"/>
</a>
</g>
</g>
<!-- Node12 -->
<g id="Node000012" class="node">
<title>Node12</title>
<g id="a_Node000012"><a xlink:href="cJSON_8c.html#ad087dd738e49b4258f0a3d378a121df6" target="_top" xlink:title=" ">
<polygon fill="white" stroke="#666666" points="269.62,-266.56 205.62,-266.56 205.62,-247.31 269.62,-247.31 269.62,-266.56"/>
<text xml:space="preserve" text-anchor="middle" x="237.62" y="-253.06" font-family="Helvetica,sans-Serif" font-size="10.00">print_string</text>
</a>
</g>
</g>
<!-- Node6&#45;&gt;Node12 -->
<g id="edge19_Node000006_Node000012" class="edge">
<title>Node6&#45;&gt;Node12</title>
<g id="a_edge19_Node000006_Node000012"><a xlink:title=" ">
<path fill="none" stroke="#63b8ff" d="M138.17,-115.83C146.13,-138.58 168.23,-195.55 201.5,-232.94 203.83,-235.55 206.5,-238.03 209.31,-240.32"/>
<polygon fill="#63b8ff" stroke="#63b8ff" points="207.12,-243.05 217.27,-246.08 211.23,-237.38 207.12,-243.05"/>
</a>
</g>
</g>
<!-- Node7&#45;&gt;Node2 -->
<g id="edge11_Node000007_Node000002" class="edge">
<title>Node7&#45;&gt;Node2</title>
<g id="a_edge11_Node000007_Node000002"><a xlink:title=" ">
<path fill="none" stroke="#63b8ff" d="M268.44,-86.74C301.76,-85.85 357.24,-85.7 404.5,-91.94 412.52,-92.99 421.05,-94.72 429.02,-96.61"/>
<polygon fill="#63b8ff" stroke="#63b8ff" points="428.15,-100 438.7,-99.06 429.87,-93.21 428.15,-100"/>
</a>
</g>
</g>
<!-- Node7&#45;&gt;Node6 -->
<g id="edge12_Node000007_Node000006" class="edge">
<title>Node7&#45;&gt;Node6</title>
<g id="a_edge12_Node000007_Node000006"><a xlink:title=" ">
<path fill="none" stroke="#63b8ff" d="M212.51,-98.04C201.96,-100.7 189.26,-103.22 177.21,-105.11"/>
<polygon fill="#63b8ff" stroke="#63b8ff" points="176.86,-101.63 167.45,-106.5 177.85,-108.56 176.86,-101.63"/>
</a>
</g>
</g>
<!-- Node7&#45;&gt;Node8 -->
<g id="edge13_Node000007_Node000008" class="edge">
<title>Node7&#45;&gt;Node8</title>
<g id="a_edge13_Node000007_Node000008"><a xlink:title=" ">
<path fill="none" stroke="#63b8ff" d="M259.09,-77.83C277.46,-68.77 304.66,-55.34 325.6,-45"/>
<polygon fill="#63b8ff" stroke="#63b8ff" points="327.12,-48.16 334.54,-40.59 324.02,-41.88 327.12,-48.16"/>
</a>
</g>
</g>
<!-- Node9&#45;&gt;Node2 -->
<g id="edge16_Node000009_Node000002" class="edge">
<title>Node9&#45;&gt;Node2</title>
<g id="a_edge16_Node000009_Node000002"><a xlink:title=" ">
<path fill="none" stroke="#63b8ff" d="M274.04,-121.93C316.5,-118.32 387.12,-112.31 428.68,-108.78"/>
<polygon fill="#63b8ff" stroke="#63b8ff" points="428.91,-112.27 438.58,-107.94 428.32,-105.3 428.91,-112.27"/>
</a>
</g>
</g>
<!-- Node10 -->
<g id="Node000010" class="node">
<title>Node10</title>
<g id="a_Node000010"><a xlink:href="cJSON_8c.html#aa7a85b63f1830e7e666e1f56872d5d3e" target="_top" xlink:title=" ">
<polygon fill="white" stroke="#666666" points="400.75,-190.56 313.5,-190.56 313.5,-171.31 400.75,-171.31 400.75,-190.56"/>
<text xml:space="preserve" text-anchor="middle" x="357.12" y="-177.06" font-family="Helvetica,sans-Serif" font-size="10.00">compare_double</text>
</a>
</g>
</g>
<!-- Node9&#45;&gt;Node10 -->
<g id="edge15_Node000009_Node000010" class="edge">
<title>Node9&#45;&gt;Node10</title>
<g id="a_edge15_Node000009_Node000010"><a xlink:title=" ">
<path fill="none" stroke="#63b8ff" d="M255.87,-134.9C270.09,-142.94 290.92,-154.29 309.75,-162.94 312.36,-164.13 315.07,-165.32 317.82,-166.49"/>
<polygon fill="#63b8ff" stroke="#63b8ff" points="316.45,-169.71 327.03,-170.24 319.09,-163.23 316.45,-169.71"/>
</a>
</g>
</g>
<!-- Node11 -->
<g id="Node000011" class="node">
<title>Node11</title>
<g id="a_Node000011"><a xlink:href="cJSON_8c.html#ab25412ae56c8c594831918169bea100d" target="_top" xlink:title=" ">
<polygon fill="white" stroke="#666666" points="404.5,-153.56 309.75,-153.56 309.75,-134.31 404.5,-134.31 404.5,-153.56"/>
<text xml:space="preserve" text-anchor="middle" x="357.12" y="-140.06" font-family="Helvetica,sans-Serif" font-size="10.00">get_decimal_point</text>
</a>
</g>
</g>
<!-- Node9&#45;&gt;Node11 -->
<g id="edge17_Node000009_Node000011" class="edge">
<title>Node9&#45;&gt;Node11</title>
<g id="a_edge17_Node000009_Node000011"><a xlink:title=" ">
<path fill="none" stroke="#63b8ff" d="M274.2,-130.69C281.81,-131.92 290.05,-133.25 298.26,-134.58"/>
<polygon fill="#63b8ff" stroke="#63b8ff" points="297.46,-137.99 307.89,-136.14 298.58,-131.08 297.46,-137.99"/>
</a>
</g>
</g>
<!-- Node12&#45;&gt;Node5 -->
<g id="edge20_Node000012_Node000005" class="edge">
<title>Node12&#45;&gt;Node5</title>
<g id="a_edge20_Node000012_Node000005"><a xlink:title=" ">
<path fill="none" stroke="#63b8ff" d="M270.11,-256.94C280.93,-256.94 293.33,-256.94 305.29,-256.94"/>
<polygon fill="#63b8ff" stroke="#63b8ff" points="305.04,-260.44 315.04,-256.94 305.04,-253.44 305.04,-260.44"/>
</a>
</g>
</g>
</g>
</svg>
