<?xml version="1.0" encoding="UTF-8" standalone="no"?>
<!DOCTYPE svg PUBLIC "-//W3C//DTD SVG 1.1//EN"
 "http://www.w3.org/Graphics/SVG/1.1/DTD/svg11.dtd">
<!-- Generated by graphviz version 14.0.5 (0)
 -->
<!-- Title: CJSON_PUBLIC Pages: 1 -->
<svg width="370pt" height="45pt"
 viewBox="0.00 0.00 370.00 45.00" xmlns="http://www.w3.org/2000/svg" xmlns:xlink="http://www.w3.org/1999/xlink">
<g id="graph0" class="graph" transform="scale(1 1) rotate(0) translate(4 41.25)">
<title>CJSON_PUBLIC</title>
<!-- Node1 -->
<g id="Node000001" class="node">
<title>Node1</title>
<g id="a_Node000001"><a xlink:title=" ">
<polygon fill="#999999" stroke="#666666" points="91.75,-19.25 0,-19.25 0,0 91.75,0 91.75,-19.25"/>
<text xml:space="preserve" text-anchor="middle" x="45.88" y="-5.75" font-family="Helvetica,sans-Serif" font-size="10.00">CJSON_PUBLIC</text>
</a>
</g>
</g>
<!-- Node2 -->
<g id="Node000002" class="node">
<title>Node2</title>
<g id="a_Node000002"><a xlink:href="cJSON_8c.html#a15067642a12599c13a0e6c0da9009be7" target="_top" xlink:title=" ">
<polygon fill="white" stroke="#666666" points="208.25,-19.25 127.75,-19.25 127.75,0 208.25,0 208.25,-19.25"/>
<text xml:space="preserve" text-anchor="middle" x="168" y="-5.75" font-family="Helvetica,sans-Serif" font-size="10.00">cJSON_strdup</text>
</a>
</g>
</g>
<!-- Node1&#45;&gt;Node2 -->
<g id="edge1_Node000001_Node000002" class="edge">
<title>Node1&#45;&gt;Node2</title>
<g id="a_edge1_Node000001_Node000002"><a xlink:title=" ">
<path fill="none" stroke="#63b8ff" d="M91.95,-9.62C99.91,-9.62 108.25,-9.62 116.36,-9.62"/>
<polygon fill="#63b8ff" stroke="#63b8ff" points="116.08,-13.13 126.08,-9.63 116.08,-6.13 116.08,-13.13"/>
</a>
</g>
</g>
<!-- Node3 -->
<g id="Node000003" class="node">
<title>Node3</title>
<g id="a_Node000003"><a xlink:href="structinternal__hooks.html#a8b8f7ff45faa5da18dd3ccd2a2c8e416" target="_top" xlink:title=" ">
<polygon fill="white" stroke="#666666" points="361.5,-19.25 244.25,-19.25 244.25,0 361.5,0 361.5,-19.25"/>
<text xml:space="preserve" text-anchor="middle" x="302.88" y="-5.75" font-family="Helvetica,sans-Serif" font-size="10.00">internal_hooks::allocate</text>
</a>
</g>
</g>
<!-- Node2&#45;&gt;Node3 -->
<g id="edge2_Node000002_Node000003" class="edge">
<title>Node2&#45;&gt;Node3</title>
<g id="a_edge2_Node000002_Node000003"><a xlink:title=" ">
<path fill="none" stroke="#63b8ff" d="M208.51,-9.62C216.19,-9.62 224.44,-9.62 232.75,-9.62"/>
<polygon fill="#63b8ff" stroke="#63b8ff" points="232.56,-13.13 242.56,-9.63 232.56,-6.13 232.56,-13.13"/>
</a>
</g>
</g>
<!-- Node3&#45;&gt;Node3 -->
<g id="edge3_Node000003_Node000003" class="edge">
<title>Node3&#45;&gt;Node3</title>
<g id="a_edge3_Node000003_Node000003"><a xlink:title=" ">
<path fill="none" stroke="#63b8ff" d="M281.76,-19.54C272.13,-28.15 279.17,-37.25 302.88,-37.25 315.84,-37.25 323.82,-34.53 326.82,-30.65"/>
<polygon fill="#63b8ff" stroke="#63b8ff" points="330.22,-29.83 324.36,-21 323.43,-31.56 330.22,-29.83"/>
</a>
</g>
</g>
</g>
</svg>
