<?xml version="1.0" encoding="UTF-8" standalone="no"?>
<!DOCTYPE svg PUBLIC "-//W3C//DTD SVG 1.1//EN"
 "http://www.w3.org/Graphics/SVG/1.1/DTD/svg11.dtd">
<!-- Generated by graphviz version 14.0.5 (0)
 -->
<!-- Title: ensure Pages: 1 -->
<svg width="497pt" height="180pt"
 viewBox="0.00 0.00 497.00 180.00" xmlns="http://www.w3.org/2000/svg" xmlns:xlink="http://www.w3.org/1999/xlink">
<g id="graph0" class="graph" transform="scale(1 1) rotate(0) translate(4 176.4)">
<title>ensure</title>
<!-- Node1 -->
<g id="Node000001" class="node">
<title>Node1</title>
<g id="a_Node000001"><a xlink:title=" ">
<polygon fill="#999999" stroke="#666666" points="488.75,-96.4 443.5,-96.4 443.5,-77.15 488.75,-77.15 488.75,-96.4"/>
<text xml:space="preserve" text-anchor="middle" x="466.12" y="-82.9" font-family="Helvetica,sans-Serif" font-size="10.00">ensure</text>
</a>
</g>
</g>
<!-- Node2 -->
<g id="Node000002" class="node">
<title>Node2</title>
<g id="a_Node000002"><a xlink:href="cJSON_8c.html#ae84642817f3965a85c7c617663250c16" target="_top" xlink:title=" ">
<polygon fill="white" stroke="#666666" points="289.5,-134.4 228.5,-134.4 228.5,-115.15 289.5,-115.15 289.5,-134.4"/>
<text xml:space="preserve" text-anchor="middle" x="259" y="-120.9" font-family="Helvetica,sans-Serif" font-size="10.00">print_array</text>
</a>
</g>
</g>
<!-- Node1&#45;&gt;Node2 -->
<g id="edge1_Node000001_Node000002" class="edge">
<title>Node1&#45;&gt;Node2</title>
<g id="a_edge1_Node000001_Node000002"><a xlink:title=" ">
<path fill="none" stroke="#63b8ff" d="M431.89,-95.31C423.93,-97.23 415.43,-99.17 407.5,-100.77 366.94,-108.99 319.67,-116.28 289.79,-120.62"/>
<polygon fill="#63b8ff" stroke="#63b8ff" points="432.71,-98.71 441.58,-92.92 431.03,-91.92 432.71,-98.71"/>
</a>
</g>
</g>
<!-- Node3 -->
<g id="Node000003" class="node">
<title>Node3</title>
<g id="a_Node000003"><a xlink:href="cJSON_8c.html#a5ba141f183b9abb4b49e38a211299c7e" target="_top" xlink:title=" ">
<polygon fill="white" stroke="#666666" points="191,-96.4 127.75,-96.4 127.75,-77.15 191,-77.15 191,-96.4"/>
<text xml:space="preserve" text-anchor="middle" x="159.38" y="-82.9" font-family="Helvetica,sans-Serif" font-size="10.00">print_value</text>
</a>
</g>
</g>
<!-- Node1&#45;&gt;Node3 -->
<g id="edge15_Node000001_Node000003" class="edge">
<title>Node1&#45;&gt;Node3</title>
<g id="a_edge15_Node000001_Node000003"><a xlink:title=" ">
<path fill="none" stroke="#63b8ff" d="M431.89,-86.77C372.52,-86.77 249.06,-86.77 191.36,-86.77"/>
<polygon fill="#63b8ff" stroke="#63b8ff" points="431.69,-90.28 441.69,-86.77 431.69,-83.28 431.69,-90.28"/>
</a>
</g>
</g>
<!-- Node6 -->
<g id="Node000006" class="node">
<title>Node6</title>
<g id="a_Node000006"><a xlink:href="cJSON_8c.html#a3d742f5c68799bca291432a9cd72f8dd" target="_top" xlink:title=" ">
<polygon fill="white" stroke="#666666" points="79,-39.4 12.75,-39.4 12.75,-20.15 79,-20.15 79,-39.4"/>
<text xml:space="preserve" text-anchor="middle" x="45.88" y="-25.9" font-family="Helvetica,sans-Serif" font-size="10.00">print_object</text>
</a>
</g>
</g>
<!-- Node1&#45;&gt;Node6 -->
<g id="edge10_Node000001_Node000006" class="edge">
<title>Node1&#45;&gt;Node6</title>
<g id="a_edge10_Node000001_Node000006"><a xlink:title=" ">
<path fill="none" stroke="#63b8ff" d="M451.8,-67.83C441.38,-54.67 425.66,-38.07 407.5,-29.77 296.31,21.02 144.95,-5.67 79.38,-21.19"/>
<polygon fill="#63b8ff" stroke="#63b8ff" points="448.98,-69.9 457.77,-75.81 454.58,-65.71 448.98,-69.9"/>
</a>
</g>
</g>
<!-- Node7 -->
<g id="Node000007" class="node">
<title>Node7</title>
<g id="a_Node000007"><a xlink:href="cJSON_8c.html#ad93d84de08872da0eaa6624be0e74a68" target="_top" xlink:title=" ">
<polygon fill="white" stroke="#666666" points="403.38,-172.4 331.12,-172.4 331.12,-153.15 403.38,-153.15 403.38,-172.4"/>
<text xml:space="preserve" text-anchor="middle" x="367.25" y="-158.9" font-family="Helvetica,sans-Serif" font-size="10.00">print_number</text>
</a>
</g>
</g>
<!-- Node1&#45;&gt;Node7 -->
<g id="edge8_Node000001_Node000007" class="edge">
<title>Node1&#45;&gt;Node7</title>
<g id="a_edge8_Node000001_Node000007"><a xlink:title=" ">
<path fill="none" stroke="#63b8ff" d="M447.44,-104.31C436.4,-114.85 421.64,-128.21 407.5,-138.77 400.84,-143.75 393.12,-148.64 386.29,-152.7"/>
<polygon fill="#63b8ff" stroke="#63b8ff" points="449.58,-107.1 454.33,-97.63 444.71,-102.08 449.58,-107.1"/>
</a>
</g>
</g>
<!-- Node8 -->
<g id="Node000008" class="node">
<title>Node8</title>
<g id="a_Node000008"><a xlink:href="cJSON_8c.html#af5b4e769356f10d99a7f66697c42c1bb" target="_top" xlink:title=" ">
<polygon fill="white" stroke="#666666" points="407.5,-58.4 327,-58.4 327,-39.15 407.5,-39.15 407.5,-58.4"/>
<text xml:space="preserve" text-anchor="middle" x="367.25" y="-44.9" font-family="Helvetica,sans-Serif" font-size="10.00">print_string_ptr</text>
</a>
</g>
</g>
<!-- Node1&#45;&gt;Node8 -->
<g id="edge11_Node000001_Node000008" class="edge">
<title>Node1&#45;&gt;Node8</title>
<g id="a_edge11_Node000001_Node000008"><a xlink:title=" ">
<path fill="none" stroke="#63b8ff" d="M432.59,-74.01C419.99,-69.07 405.78,-63.49 393.92,-58.84"/>
<polygon fill="#63b8ff" stroke="#63b8ff" points="431.15,-77.21 441.73,-77.6 433.7,-70.69 431.15,-77.21"/>
</a>
</g>
</g>
<!-- Node2&#45;&gt;Node3 -->
<g id="edge2_Node000002_Node000003" class="edge">
<title>Node2&#45;&gt;Node3</title>
<g id="a_edge2_Node000002_Node000003"><a xlink:title=" ">
<path fill="none" stroke="#63b8ff" d="M234.84,-109.92C221.84,-103.84 205.46,-97.3 191.37,-92.51"/>
<polygon fill="#63b8ff" stroke="#63b8ff" points="232.96,-112.89 243.48,-114.19 236.07,-106.62 232.96,-112.89"/>
</a>
</g>
</g>
<!-- Node3&#45;&gt;Node2 -->
<g id="edge5_Node000003_Node000002" class="edge">
<title>Node3&#45;&gt;Node2</title>
<g id="a_edge5_Node000003_Node000002"><a xlink:title=" ">
<path fill="none" stroke="#63b8ff" d="M183.96,-101.83C197.25,-108.02 213.99,-114.66 228.18,-119.44"/>
<polygon fill="#63b8ff" stroke="#63b8ff" points="185.61,-98.74 175.1,-97.46 182.52,-105.02 185.61,-98.74"/>
</a>
</g>
</g>
<!-- Node4 -->
<g id="Node000004" class="node">
<title>Node4</title>
<g id="a_Node000004"><a xlink:href="cJSON_8c.html#aed7e219a2b9187880c97c6f0ea5fa1b4" target="_top" xlink:title=" ">
<polygon fill="white" stroke="#666666" points="91.75,-114.4 0,-114.4 0,-95.15 91.75,-95.15 91.75,-114.4"/>
<text xml:space="preserve" text-anchor="middle" x="45.88" y="-100.9" font-family="Helvetica,sans-Serif" font-size="10.00">CJSON_PUBLIC</text>
</a>
</g>
</g>
<!-- Node3&#45;&gt;Node4 -->
<g id="edge3_Node000003_Node000004" class="edge">
<title>Node3&#45;&gt;Node4</title>
<g id="a_edge3_Node000003_Node000004"><a xlink:title=" ">
<path fill="none" stroke="#63b8ff" d="M116.1,-93.6C108.2,-94.88 99.92,-96.21 91.94,-97.5"/>
<polygon fill="#63b8ff" stroke="#63b8ff" points="116.51,-97.08 125.82,-92.03 115.39,-90.17 116.51,-97.08"/>
</a>
</g>
</g>
<!-- Node5 -->
<g id="Node000005" class="node">
<title>Node5</title>
<g id="a_Node000005"><a xlink:href="cJSON_8c.html#a36b0c212c0d382a4714afa8b70c1a2ee" target="_top" xlink:title=" ">
<polygon fill="white" stroke="#666666" points="63.25,-77.4 28.5,-77.4 28.5,-58.15 63.25,-58.15 63.25,-77.4"/>
<text xml:space="preserve" text-anchor="middle" x="45.88" y="-63.9" font-family="Helvetica,sans-Serif" font-size="10.00">print</text>
</a>
</g>
</g>
<!-- Node3&#45;&gt;Node5 -->
<g id="edge4_Node000003_Node000005" class="edge">
<title>Node3&#45;&gt;Node5</title>
<g id="a_edge4_Node000003_Node000005"><a xlink:title=" ">
<path fill="none" stroke="#63b8ff" d="M116,-79.55C97.75,-76.44 77.48,-72.99 63.63,-70.63"/>
<polygon fill="#63b8ff" stroke="#63b8ff" points="115.38,-83 125.82,-81.23 116.55,-76.1 115.38,-83"/>
</a>
</g>
</g>
<!-- Node3&#45;&gt;Node6 -->
<g id="edge6_Node000003_Node000006" class="edge">
<title>Node3&#45;&gt;Node6</title>
<g id="a_edge6_Node000003_Node000006"><a xlink:title=" ">
<path fill="none" stroke="#63b8ff" d="M142.3,-69.64C128.98,-59.88 109.44,-48.53 91.75,-39.77 87.81,-37.82 83.61,-35.88 79.44,-34.1"/>
<polygon fill="#63b8ff" stroke="#63b8ff" points="139.96,-72.25 149.95,-75.77 144.34,-66.79 139.96,-72.25"/>
</a>
</g>
</g>
<!-- Node6&#45;&gt;Node3 -->
<g id="edge7_Node000006_Node000003" class="edge">
<title>Node6&#45;&gt;Node3</title>
<g id="a_edge7_Node000006_Node000003"><a xlink:title=" ">
<path fill="none" stroke="#63b8ff" d="M65.57,-45.37C73.71,-49.46 83.3,-53.6 91.75,-57.77 103.69,-63.68 116.46,-70.77 127.6,-76.68"/>
<polygon fill="#63b8ff" stroke="#63b8ff" points="67.38,-42.37 56.94,-40.57 63.98,-48.49 67.38,-42.37"/>
</a>
</g>
</g>
<!-- Node7&#45;&gt;Node3 -->
<g id="edge9_Node000007_Node000003" class="edge">
<title>Node7&#45;&gt;Node3</title>
<g id="a_edge9_Node000007_Node000003"><a xlink:title=" ">
<path fill="none" stroke="#63b8ff" d="M319.25,-162.93C291.36,-161.45 255.93,-156.75 227,-143.77 202.56,-132.81 180.23,-109.98 168.67,-96.78"/>
<polygon fill="#63b8ff" stroke="#63b8ff" points="319.05,-166.42 329.18,-163.32 319.33,-159.43 319.05,-166.42"/>
</a>
</g>
</g>
<!-- Node8&#45;&gt;Node6 -->
<g id="edge12_Node000008_Node000006" class="edge">
<title>Node8&#45;&gt;Node6</title>
<g id="a_edge12_Node000008_Node000006"><a xlink:title=" ">
<path fill="none" stroke="#63b8ff" d="M322.77,-35.86C312.45,-33.33 301.41,-31.07 291,-29.77 215.71,-20.42 126.36,-24.15 79.41,-27.24"/>
<polygon fill="#63b8ff" stroke="#63b8ff" points="321.6,-39.17 332.15,-38.29 323.35,-32.39 321.6,-39.17"/>
</a>
</g>
</g>
<!-- Node9 -->
<g id="Node000009" class="node">
<title>Node9</title>
<g id="a_Node000009"><a xlink:href="cJSON_8c.html#ad087dd738e49b4258f0a3d378a121df6" target="_top" xlink:title=" ">
<polygon fill="white" stroke="#666666" points="291,-58.4 227,-58.4 227,-39.15 291,-39.15 291,-58.4"/>
<text xml:space="preserve" text-anchor="middle" x="259" y="-44.9" font-family="Helvetica,sans-Serif" font-size="10.00">print_string</text>
</a>
</g>
</g>
<!-- Node8&#45;&gt;Node9 -->
<g id="edge13_Node000008_Node000009" class="edge">
<title>Node8&#45;&gt;Node9</title>
<g id="a_edge13_Node000008_Node000009"><a xlink:title=" ">
<path fill="none" stroke="#63b8ff" d="M315.25,-48.77C307.08,-48.77 298.83,-48.77 291.3,-48.77"/>
<polygon fill="#63b8ff" stroke="#63b8ff" points="315.17,-52.28 325.17,-48.77 315.17,-45.28 315.17,-52.28"/>
</a>
</g>
</g>
<!-- Node9&#45;&gt;Node3 -->
<g id="edge14_Node000009_Node000003" class="edge">
<title>Node9&#45;&gt;Node3</title>
<g id="a_edge14_Node000009_Node000003"><a xlink:title=" ">
<path fill="none" stroke="#63b8ff" d="M221.62,-62.94C209.8,-67.54 196.93,-72.54 186.06,-76.78"/>
<polygon fill="#63b8ff" stroke="#63b8ff" points="222.63,-66.3 230.68,-59.41 220.1,-59.77 222.63,-66.3"/>
</a>
</g>
</g>
</g>
</svg>
