<?xml version="1.0" encoding="UTF-8" standalone="no"?>
<!DOCTYPE svg PUBLIC "-//W3C//DTD SVG 1.1//EN"
 "http://www.w3.org/Graphics/SVG/1.1/DTD/svg11.dtd">
<!-- Generated by graphviz version 14.0.5 (0)
 -->
<!-- Title: create_reference Pages: 1 -->
<svg width="385pt" height="45pt"
 viewBox="0.00 0.00 385.00 45.00" xmlns="http://www.w3.org/2000/svg" xmlns:xlink="http://www.w3.org/1999/xlink">
<g id="graph0" class="graph" transform="scale(1 1) rotate(0) translate(4 41.25)">
<title>create_reference</title>
<!-- Node1 -->
<g id="Node000001" class="node">
<title>Node1</title>
<g id="a_Node000001"><a xlink:title=" ">
<polygon fill="#999999" stroke="#666666" points="88.75,-19.25 0,-19.25 0,0 88.75,0 88.75,-19.25"/>
<text xml:space="preserve" text-anchor="middle" x="44.38" y="-5.75" font-family="Helvetica,sans-Serif" font-size="10.00">create_reference</text>
</a>
</g>
</g>
<!-- Node2 -->
<g id="Node000002" class="node">
<title>Node2</title>
<g id="a_Node000002"><a xlink:href="cJSON_8c.html#aa05c1f56de8779ae1584c525cc81aeb5" target="_top" xlink:title=" ">
<polygon fill="white" stroke="#666666" points="223.25,-19.25 124.75,-19.25 124.75,0 223.25,0 223.25,-19.25"/>
<text xml:space="preserve" text-anchor="middle" x="174" y="-5.75" font-family="Helvetica,sans-Serif" font-size="10.00">cJSON_New_Item</text>
</a>
</g>
</g>
<!-- Node1&#45;&gt;Node2 -->
<g id="edge1_Node000001_Node000002" class="edge">
<title>Node1&#45;&gt;Node2</title>
<g id="a_edge1_Node000001_Node000002"><a xlink:title=" ">
<path fill="none" stroke="#63b8ff" d="M88.94,-9.62C96.69,-9.62 104.89,-9.62 113.01,-9.62"/>
<polygon fill="#63b8ff" stroke="#63b8ff" points="112.86,-13.13 122.86,-9.63 112.86,-6.13 112.86,-13.13"/>
</a>
</g>
</g>
<!-- Node3 -->
<g id="Node000003" class="node">
<title>Node3</title>
<g id="a_Node000003"><a xlink:href="structinternal__hooks.html#a8b8f7ff45faa5da18dd3ccd2a2c8e416" target="_top" xlink:title=" ">
<polygon fill="white" stroke="#666666" points="376.5,-19.25 259.25,-19.25 259.25,0 376.5,0 376.5,-19.25"/>
<text xml:space="preserve" text-anchor="middle" x="317.88" y="-5.75" font-family="Helvetica,sans-Serif" font-size="10.00">internal_hooks::allocate</text>
</a>
</g>
</g>
<!-- Node2&#45;&gt;Node3 -->
<g id="edge2_Node000002_Node000003" class="edge">
<title>Node2&#45;&gt;Node3</title>
<g id="a_edge2_Node000002_Node000003"><a xlink:title=" ">
<path fill="none" stroke="#63b8ff" d="M223.43,-9.62C231.18,-9.62 239.32,-9.62 247.44,-9.62"/>
<polygon fill="#63b8ff" stroke="#63b8ff" points="247.35,-13.13 257.35,-9.63 247.35,-6.13 247.35,-13.13"/>
</a>
</g>
</g>
<!-- Node3&#45;&gt;Node3 -->
<g id="edge3_Node000003_Node000003" class="edge">
<title>Node3&#45;&gt;Node3</title>
<g id="a_edge3_Node000003_Node000003"><a xlink:title=" ">
<path fill="none" stroke="#63b8ff" d="M295.35,-19.54C285.08,-28.15 292.58,-37.25 317.88,-37.25 332.1,-37.25 340.7,-34.37 343.67,-30.32"/>
<polygon fill="#63b8ff" stroke="#63b8ff" points="347.09,-29.54 340.84,-20.99 340.4,-31.57 347.09,-29.54"/>
</a>
</g>
</g>
</g>
</svg>
