<?xml version="1.0" encoding="UTF-8" standalone="no"?>
<!DOCTYPE svg PUBLIC "-//W3C//DTD SVG 1.1//EN"
 "http://www.w3.org/Graphics/SVG/1.1/DTD/svg11.dtd">
<!-- Generated by graphviz version 14.0.5 (0)
 -->
<!-- Title: print_value Pages: 1 -->
<svg width="199pt" height="138pt"
 viewBox="0.00 0.00 199.00 138.00" xmlns="http://www.w3.org/2000/svg" xmlns:xlink="http://www.w3.org/1999/xlink">
<g id="graph0" class="graph" transform="scale(1 1) rotate(0) translate(4 134.25)">
<title>print_value</title>
<!-- Node1 -->
<g id="Node000001" class="node">
<title>Node1</title>
<g id="a_Node000001"><a xlink:title=" ">
<polygon fill="#999999" stroke="#666666" points="191,-56.25 127.75,-56.25 127.75,-37 191,-37 191,-56.25"/>
<text xml:space="preserve" text-anchor="middle" x="159.38" y="-42.75" font-family="Helvetica,sans-Serif" font-size="10.00">print_value</text>
</a>
</g>
</g>
<!-- Node2 -->
<g id="Node000002" class="node">
<title>Node2</title>
<g id="a_Node000002"><a xlink:href="cJSON_8c.html#aed7e219a2b9187880c97c6f0ea5fa1b4" target="_top" xlink:title=" ">
<polygon fill="white" stroke="#666666" points="91.75,-130.25 0,-130.25 0,-111 91.75,-111 91.75,-130.25"/>
<text xml:space="preserve" text-anchor="middle" x="45.88" y="-116.75" font-family="Helvetica,sans-Serif" font-size="10.00">CJSON_PUBLIC</text>
</a>
</g>
</g>
<!-- Node1&#45;&gt;Node2 -->
<g id="edge1_Node000001_Node000002" class="edge">
<title>Node1&#45;&gt;Node2</title>
<g id="a_edge1_Node000001_Node000002"><a xlink:title=" ">
<path fill="none" stroke="#63b8ff" d="M140.47,-64.41C127.7,-76.37 109.69,-91.87 91.75,-102.62 86.85,-105.56 81.39,-108.21 76.01,-110.51"/>
<polygon fill="#63b8ff" stroke="#63b8ff" points="142.89,-66.94 147.67,-57.49 138.04,-61.89 142.89,-66.94"/>
</a>
</g>
</g>
<!-- Node3 -->
<g id="Node000003" class="node">
<title>Node3</title>
<g id="a_Node000003"><a xlink:href="cJSON_8c.html#a36b0c212c0d382a4714afa8b70c1a2ee" target="_top" xlink:title=" ">
<polygon fill="white" stroke="#666666" points="63.25,-93.25 28.5,-93.25 28.5,-74 63.25,-74 63.25,-93.25"/>
<text xml:space="preserve" text-anchor="middle" x="45.88" y="-79.75" font-family="Helvetica,sans-Serif" font-size="10.00">print</text>
</a>
</g>
</g>
<!-- Node1&#45;&gt;Node3 -->
<g id="edge2_Node000001_Node000003" class="edge">
<title>Node1&#45;&gt;Node3</title>
<g id="a_edge2_Node000001_Node000003"><a xlink:title=" ">
<path fill="none" stroke="#63b8ff" d="M117.02,-60.35C98.45,-66.51 77.6,-73.43 63.49,-78.11"/>
<polygon fill="#63b8ff" stroke="#63b8ff" points="118.08,-63.68 126.47,-57.21 115.88,-57.04 118.08,-63.68"/>
</a>
</g>
</g>
<!-- Node4 -->
<g id="Node000004" class="node">
<title>Node4</title>
<g id="a_Node000004"><a xlink:href="cJSON_8c.html#ae84642817f3965a85c7c617663250c16" target="_top" xlink:title=" ">
<polygon fill="white" stroke="#666666" points="76.38,-56.25 15.37,-56.25 15.37,-37 76.38,-37 76.38,-56.25"/>
<text xml:space="preserve" text-anchor="middle" x="45.88" y="-42.75" font-family="Helvetica,sans-Serif" font-size="10.00">print_array</text>
</a>
</g>
</g>
<!-- Node1&#45;&gt;Node4 -->
<g id="edge3_Node000001_Node000004" class="edge">
<title>Node1&#45;&gt;Node4</title>
<g id="a_edge3_Node000001_Node000004"><a xlink:title=" ">
<path fill="none" stroke="#63b8ff" d="M116.11,-40.05C102.95,-39.7 88.73,-39.87 76.62,-40.58"/>
<polygon fill="#63b8ff" stroke="#63b8ff" points="115.67,-43.54 125.8,-40.44 115.95,-36.54 115.67,-43.54"/>
</a>
</g>
</g>
<!-- Node5 -->
<g id="Node000005" class="node">
<title>Node5</title>
<g id="a_Node000005"><a xlink:href="cJSON_8c.html#a3d742f5c68799bca291432a9cd72f8dd" target="_top" xlink:title=" ">
<polygon fill="white" stroke="#666666" points="79,-19.25 12.75,-19.25 12.75,0 79,0 79,-19.25"/>
<text xml:space="preserve" text-anchor="middle" x="45.88" y="-5.75" font-family="Helvetica,sans-Serif" font-size="10.00">print_object</text>
</a>
</g>
</g>
<!-- Node1&#45;&gt;Node5 -->
<g id="edge5_Node000001_Node000005" class="edge">
<title>Node1&#45;&gt;Node5</title>
<g id="a_edge5_Node000001_Node000005"><a xlink:title=" ">
<path fill="none" stroke="#63b8ff" d="M132.7,-32.32C116.79,-25.91 96.21,-18.94 79.19,-14.16"/>
<polygon fill="#63b8ff" stroke="#63b8ff" points="130.91,-35.36 141.48,-36.04 133.64,-28.91 130.91,-35.36"/>
</a>
</g>
</g>
<!-- Node4&#45;&gt;Node1 -->
<g id="edge4_Node000004_Node000001" class="edge">
<title>Node4&#45;&gt;Node1</title>
<g id="a_edge4_Node000004_Node000001"><a xlink:title=" ">
<path fill="none" stroke="#63b8ff" d="M87.72,-53.16C100.8,-53.55 115.06,-53.41 127.32,-52.75"/>
<polygon fill="#63b8ff" stroke="#63b8ff" points="88.27,-49.68 78.13,-52.74 87.97,-56.67 88.27,-49.68"/>
</a>
</g>
</g>
<!-- Node5&#45;&gt;Node1 -->
<g id="edge6_Node000005_Node000001" class="edge">
<title>Node5&#45;&gt;Node1</title>
<g id="a_edge6_Node000005_Node000001"><a xlink:title=" ">
<path fill="none" stroke="#63b8ff" d="M72.78,-24.02C89.05,-30.57 110.14,-37.67 127.32,-42.44"/>
<polygon fill="#63b8ff" stroke="#63b8ff" points="74.35,-20.89 63.78,-20.21 71.62,-27.33 74.35,-20.89"/>
</a>
</g>
</g>
</g>
</svg>
