<?xml version="1.0" encoding="UTF-8" standalone="no"?>
<!DOCTYPE svg PUBLIC "-//W3C//DTD SVG 1.1//EN"
 "http://www.w3.org/Graphics/SVG/1.1/DTD/svg11.dtd">
<!-- Generated by graphviz version 14.0.5 (0)
 -->
<!-- Title: CJSON_PUBLIC Pages: 1 -->
<svg width="681pt" height="277pt"
 viewBox="0.00 0.00 681.00 277.00" xmlns="http://www.w3.org/2000/svg" xmlns:xlink="http://www.w3.org/1999/xlink">
<g id="graph0" class="graph" transform="scale(1 1) rotate(0) translate(4 272.83)">
<title>CJSON_PUBLIC</title>
<!-- Node1 -->
<g id="Node000001" class="node">
<title>Node1</title>
<g id="a_Node000001"><a xlink:title=" ">
<polygon fill="#999999" stroke="#666666" points="91.75,-165.83 0,-165.83 0,-146.58 91.75,-146.58 91.75,-165.83"/>
<text xml:space="preserve" text-anchor="middle" x="45.88" y="-152.33" font-family="Helvetica,sans-Serif" font-size="10.00">CJSON_PUBLIC</text>
</a>
</g>
</g>
<!-- Node2 -->
<g id="Node000002" class="node">
<title>Node2</title>
<g id="a_Node000002"><a xlink:href="cJSON_8c.html#a5ba141f183b9abb4b49e38a211299c7e" target="_top" xlink:title=" ">
<polygon fill="white" stroke="#666666" points="191,-165.83 127.75,-165.83 127.75,-146.58 191,-146.58 191,-165.83"/>
<text xml:space="preserve" text-anchor="middle" x="159.38" y="-152.33" font-family="Helvetica,sans-Serif" font-size="10.00">print_value</text>
</a>
</g>
</g>
<!-- Node1&#45;&gt;Node2 -->
<g id="edge1_Node000001_Node000002" class="edge">
<title>Node1&#45;&gt;Node2</title>
<g id="a_edge1_Node000001_Node000002"><a xlink:title=" ">
<path fill="none" stroke="#63b8ff" d="M92.23,-156.2C100.07,-156.2 108.21,-156.2 115.97,-156.2"/>
<polygon fill="#63b8ff" stroke="#63b8ff" points="115.88,-159.7 125.88,-156.2 115.88,-152.7 115.88,-159.7"/>
</a>
</g>
</g>
<!-- Node3 -->
<g id="Node000003" class="node">
<title>Node3</title>
<g id="a_Node000003"><a xlink:href="cJSON_8c.html#ad9f9a9b2ad3154fc8033756f23c023a6" target="_top" xlink:title=" ">
<polygon fill="white" stroke="#666666" points="511.25,-154.83 466,-154.83 466,-135.58 511.25,-135.58 511.25,-154.83"/>
<text xml:space="preserve" text-anchor="middle" x="488.62" y="-141.33" font-family="Helvetica,sans-Serif" font-size="10.00">ensure</text>
</a>
</g>
</g>
<!-- Node2&#45;&gt;Node3 -->
<g id="edge2_Node000002_Node000003" class="edge">
<title>Node2&#45;&gt;Node3</title>
<g id="a_edge2_Node000002_Node000003"><a xlink:title=" ">
<path fill="none" stroke="#63b8ff" d="M166.01,-146.19C176.26,-128.71 199.44,-92.29 227,-69.2 268.52,-34.42 282.62,-26.01 335.25,-13.2 376.17,-3.24 394.77,9.86 430,-13.2 467.88,-38 481,-93.75 485.44,-124.26"/>
<polygon fill="#63b8ff" stroke="#63b8ff" points="481.92,-124.3 486.63,-133.79 488.86,-123.43 481.92,-124.3"/>
</a>
</g>
</g>
<!-- Node6 -->
<g id="Node000006" class="node">
<title>Node6</title>
<g id="a_Node000006"><a xlink:href="cJSON_8c.html#ae84642817f3965a85c7c617663250c16" target="_top" xlink:title=" ">
<polygon fill="white" stroke="#666666" points="293.62,-165.83 232.62,-165.83 232.62,-146.58 293.62,-146.58 293.62,-165.83"/>
<text xml:space="preserve" text-anchor="middle" x="263.12" y="-152.33" font-family="Helvetica,sans-Serif" font-size="10.00">print_array</text>
</a>
</g>
</g>
<!-- Node2&#45;&gt;Node6 -->
<g id="edge7_Node000002_Node000006" class="edge">
<title>Node2&#45;&gt;Node6</title>
<g id="a_edge7_Node000002_Node000006"><a xlink:title=" ">
<path fill="none" stroke="#63b8ff" d="M191.46,-149.93C200.78,-149.46 211.16,-149.34 221.02,-149.56"/>
<polygon fill="#63b8ff" stroke="#63b8ff" points="220.64,-153.05 230.77,-149.94 220.91,-146.06 220.64,-153.05"/>
</a>
</g>
</g>
<!-- Node8 -->
<g id="Node000008" class="node">
<title>Node8</title>
<g id="a_Node000008"><a xlink:href="cJSON_8c.html#ad93d84de08872da0eaa6624be0e74a68" target="_top" xlink:title=" ">
<polygon fill="white" stroke="#666666" points="299.25,-97.83 227,-97.83 227,-78.58 299.25,-78.58 299.25,-97.83"/>
<text xml:space="preserve" text-anchor="middle" x="263.12" y="-84.33" font-family="Helvetica,sans-Serif" font-size="10.00">print_number</text>
</a>
</g>
</g>
<!-- Node2&#45;&gt;Node8 -->
<g id="edge11_Node000002_Node000008" class="edge">
<title>Node2&#45;&gt;Node8</title>
<g id="a_edge11_Node000002_Node000008"><a xlink:title=" ">
<path fill="none" stroke="#63b8ff" d="M175.39,-146.17C191.77,-135.22 218.25,-117.53 237.64,-104.56"/>
<polygon fill="#63b8ff" stroke="#63b8ff" points="239.42,-107.58 245.79,-99.12 235.53,-101.76 239.42,-107.58"/>
</a>
</g>
</g>
<!-- Node11 -->
<g id="Node000011" class="node">
<title>Node11</title>
<g id="a_Node000011"><a xlink:href="cJSON_8c.html#a3d742f5c68799bca291432a9cd72f8dd" target="_top" xlink:title=" ">
<polygon fill="white" stroke="#666666" points="296.25,-202.83 230,-202.83 230,-183.58 296.25,-183.58 296.25,-202.83"/>
<text xml:space="preserve" text-anchor="middle" x="263.12" y="-189.33" font-family="Helvetica,sans-Serif" font-size="10.00">print_object</text>
</a>
</g>
</g>
<!-- Node2&#45;&gt;Node11 -->
<g id="edge15_Node000002_Node000011" class="edge">
<title>Node2&#45;&gt;Node11</title>
<g id="a_edge15_Node000002_Node000011"><a xlink:title=" ">
<path fill="none" stroke="#63b8ff" d="M191.46,-161.23C206.31,-165.88 223.82,-172.38 237.7,-178.46"/>
<polygon fill="#63b8ff" stroke="#63b8ff" points="236.01,-181.53 246.55,-182.55 238.95,-175.18 236.01,-181.53"/>
</a>
</g>
</g>
<!-- Node13 -->
<g id="Node000013" class="node">
<title>Node13</title>
<g id="a_Node000013"><a xlink:href="cJSON_8c.html#ad087dd738e49b4258f0a3d378a121df6" target="_top" xlink:title=" ">
<polygon fill="white" stroke="#666666" points="295.12,-258.83 231.12,-258.83 231.12,-239.58 295.12,-239.58 295.12,-258.83"/>
<text xml:space="preserve" text-anchor="middle" x="263.12" y="-245.33" font-family="Helvetica,sans-Serif" font-size="10.00">print_string</text>
</a>
</g>
</g>
<!-- Node2&#45;&gt;Node13 -->
<g id="edge21_Node000002_Node000013" class="edge">
<title>Node2&#45;&gt;Node13</title>
<g id="a_edge21_Node000002_Node000013"><a xlink:title=" ">
<path fill="none" stroke="#63b8ff" d="M171.26,-166.15C188.4,-181.82 221.89,-212.42 243.07,-231.79"/>
<polygon fill="#63b8ff" stroke="#63b8ff" points="240.45,-234.14 250.2,-238.3 245.18,-228.97 240.45,-234.14"/>
</a>
</g>
</g>
<!-- Node4 -->
<g id="Node000004" class="node">
<title>Node4</title>
<g id="a_Node000004"><a xlink:href="structinternal__hooks.html#a8b8f7ff45faa5da18dd3ccd2a2c8e416" target="_top" xlink:title=" ">
<polygon fill="white" stroke="#666666" points="668.62,-182.83 551.38,-182.83 551.38,-163.58 668.62,-163.58 668.62,-182.83"/>
<text xml:space="preserve" text-anchor="middle" x="610" y="-169.33" font-family="Helvetica,sans-Serif" font-size="10.00">internal_hooks::allocate</text>
</a>
</g>
</g>
<!-- Node3&#45;&gt;Node4 -->
<g id="edge3_Node000003_Node000004" class="edge">
<title>Node3&#45;&gt;Node4</title>
<g id="a_edge3_Node000003_Node000004"><a xlink:title=" ">
<path fill="none" stroke="#63b8ff" d="M511.52,-150.34C523.76,-153.21 539.6,-156.92 554.95,-160.52"/>
<polygon fill="#63b8ff" stroke="#63b8ff" points="553.96,-163.89 564.5,-162.76 555.56,-157.07 553.96,-163.89"/>
</a>
</g>
</g>
<!-- Node5 -->
<g id="Node000005" class="node">
<title>Node5</title>
<g id="a_Node000005"><a xlink:href="structinternal__hooks.html#a7c3921493fab83f33cd509145d8a5393" target="_top" xlink:title=" ">
<polygon fill="white" stroke="#666666" points="672.75,-127.83 547.25,-127.83 547.25,-108.58 672.75,-108.58 672.75,-127.83"/>
<text xml:space="preserve" text-anchor="middle" x="610" y="-114.33" font-family="Helvetica,sans-Serif" font-size="10.00">internal_hooks::reallocate</text>
</a>
</g>
</g>
<!-- Node3&#45;&gt;Node5 -->
<g id="edge5_Node000003_Node000005" class="edge">
<title>Node3&#45;&gt;Node5</title>
<g id="a_edge5_Node000003_Node000005"><a xlink:title=" ">
<path fill="none" stroke="#63b8ff" d="M511.52,-140.25C523.32,-137.58 538.47,-134.15 553.29,-130.8"/>
<polygon fill="#63b8ff" stroke="#63b8ff" points="554.04,-134.22 563.02,-128.6 552.49,-127.39 554.04,-134.22"/>
</a>
</g>
</g>
<!-- Node4&#45;&gt;Node4 -->
<g id="edge4_Node000004_Node000004" class="edge">
<title>Node4&#45;&gt;Node4</title>
<g id="a_edge4_Node000004_Node000004"><a xlink:title=" ">
<path fill="none" stroke="#63b8ff" d="M591,-183.11C582.33,-191.72 588.66,-200.83 610,-200.83 621.67,-200.83 628.85,-198.1 631.54,-194.23"/>
<polygon fill="#63b8ff" stroke="#63b8ff" points="634.98,-193.56 629.34,-184.59 628.16,-195.12 634.98,-193.56"/>
</a>
</g>
</g>
<!-- Node5&#45;&gt;Node5 -->
<g id="edge6_Node000005_Node000005" class="edge">
<title>Node5&#45;&gt;Node5</title>
<g id="a_edge6_Node000005_Node000005"><a xlink:title=" ">
<path fill="none" stroke="#63b8ff" d="M591,-128.11C582.33,-136.72 588.66,-145.83 610,-145.83 621.67,-145.83 628.85,-143.1 631.54,-139.23"/>
<polygon fill="#63b8ff" stroke="#63b8ff" points="634.98,-138.56 629.34,-129.59 628.16,-140.12 634.98,-138.56"/>
</a>
</g>
</g>
<!-- Node6&#45;&gt;Node2 -->
<g id="edge9_Node000006_Node000002" class="edge">
<title>Node6&#45;&gt;Node2</title>
<g id="a_edge9_Node000006_Node000002"><a xlink:title=" ">
<path fill="none" stroke="#63b8ff" d="M232.28,-162.41C223.05,-162.91 212.7,-163.07 202.79,-162.87"/>
<polygon fill="#63b8ff" stroke="#63b8ff" points="203.08,-159.38 192.97,-162.53 202.84,-166.37 203.08,-159.38"/>
</a>
</g>
</g>
<!-- Node6&#45;&gt;Node3 -->
<g id="edge8_Node000006_Node000003" class="edge">
<title>Node6&#45;&gt;Node3</title>
<g id="a_edge8_Node000006_Node000003"><a xlink:title=" ">
<path fill="none" stroke="#63b8ff" d="M293.8,-154.74C335.37,-152.7 410.71,-148.99 454.21,-146.85"/>
<polygon fill="#63b8ff" stroke="#63b8ff" points="454.25,-150.35 464.06,-146.36 453.9,-143.36 454.25,-150.35"/>
</a>
</g>
</g>
<!-- Node7 -->
<g id="Node000007" class="node">
<title>Node7</title>
<g id="a_Node000007"><a xlink:href="cJSON_8c.html#af5fb173126786c1e3f90b6df6e2500c5" target="_top" xlink:title=" ">
<polygon fill="white" stroke="#666666" points="419.88,-192.83 345.38,-192.83 345.38,-173.58 419.88,-173.58 419.88,-192.83"/>
<text xml:space="preserve" text-anchor="middle" x="382.62" y="-179.33" font-family="Helvetica,sans-Serif" font-size="10.00">update_offset</text>
</a>
</g>
</g>
<!-- Node6&#45;&gt;Node7 -->
<g id="edge10_Node000006_Node000007" class="edge">
<title>Node6&#45;&gt;Node7</title>
<g id="a_edge10_Node000006_Node000007"><a xlink:title=" ">
<path fill="none" stroke="#63b8ff" d="M294.08,-163.08C306.19,-165.87 320.47,-169.15 333.95,-172.25"/>
<polygon fill="#63b8ff" stroke="#63b8ff" points="333,-175.62 343.53,-174.45 334.57,-168.8 333,-175.62"/>
</a>
</g>
</g>
<!-- Node8&#45;&gt;Node3 -->
<g id="edge13_Node000008_Node000003" class="edge">
<title>Node8&#45;&gt;Node3</title>
<g id="a_edge13_Node000008_Node000003"><a xlink:title=" ">
<path fill="none" stroke="#63b8ff" d="M299.54,-97.23C342.09,-108.09 412.92,-126.15 454.45,-136.74"/>
<polygon fill="#63b8ff" stroke="#63b8ff" points="453.57,-140.13 464.12,-139.21 455.3,-133.34 453.57,-140.13"/>
</a>
</g>
</g>
<!-- Node9 -->
<g id="Node000009" class="node">
<title>Node9</title>
<g id="a_Node000009"><a xlink:href="cJSON_8c.html#aa7a85b63f1830e7e666e1f56872d5d3e" target="_top" xlink:title=" ">
<polygon fill="white" stroke="#666666" points="426.25,-78.83 339,-78.83 339,-59.58 426.25,-59.58 426.25,-78.83"/>
<text xml:space="preserve" text-anchor="middle" x="382.62" y="-65.33" font-family="Helvetica,sans-Serif" font-size="10.00">compare_double</text>
</a>
</g>
</g>
<!-- Node8&#45;&gt;Node9 -->
<g id="edge12_Node000008_Node000009" class="edge">
<title>Node8&#45;&gt;Node9</title>
<g id="a_edge12_Node000008_Node000009"><a xlink:title=" ">
<path fill="none" stroke="#63b8ff" d="M299.7,-82.45C308.44,-81.04 317.99,-79.49 327.39,-77.97"/>
<polygon fill="#63b8ff" stroke="#63b8ff" points="327.91,-81.43 337.22,-76.38 326.79,-74.52 327.91,-81.43"/>
</a>
</g>
</g>
<!-- Node10 -->
<g id="Node000010" class="node">
<title>Node10</title>
<g id="a_Node000010"><a xlink:href="cJSON_8c.html#ab25412ae56c8c594831918169bea100d" target="_top" xlink:title=" ">
<polygon fill="white" stroke="#666666" points="430,-41.83 335.25,-41.83 335.25,-22.58 430,-22.58 430,-41.83"/>
<text xml:space="preserve" text-anchor="middle" x="382.62" y="-28.33" font-family="Helvetica,sans-Serif" font-size="10.00">get_decimal_point</text>
</a>
</g>
</g>
<!-- Node8&#45;&gt;Node10 -->
<g id="edge14_Node000008_Node000010" class="edge">
<title>Node8&#45;&gt;Node10</title>
<g id="a_edge14_Node000008_Node000010"><a xlink:title=" ">
<path fill="none" stroke="#63b8ff" d="M281.37,-78.24C295.59,-70.2 316.42,-58.85 335.25,-50.2 337.86,-49 340.57,-47.81 343.32,-46.65"/>
<polygon fill="#63b8ff" stroke="#63b8ff" points="344.59,-49.91 352.53,-42.89 341.95,-43.43 344.59,-49.91"/>
</a>
</g>
</g>
<!-- Node11&#45;&gt;Node2 -->
<g id="edge19_Node000011_Node000002" class="edge">
<title>Node11&#45;&gt;Node2</title>
<g id="a_edge19_Node000011_Node000002"><a xlink:title=" ">
<path fill="none" stroke="#63b8ff" d="M229.67,-187.74C215.15,-183.13 198.33,-176.86 184.89,-170.99"/>
<polygon fill="#63b8ff" stroke="#63b8ff" points="186.44,-167.85 175.9,-166.83 183.5,-174.2 186.44,-167.85"/>
</a>
</g>
</g>
<!-- Node11&#45;&gt;Node3 -->
<g id="edge16_Node000011_Node000003" class="edge">
<title>Node11&#45;&gt;Node3</title>
<g id="a_edge16_Node000011_Node000003"><a xlink:title=" ">
<path fill="none" stroke="#63b8ff" d="M296.68,-202.98C331.16,-211.54 386.52,-220.07 430,-202.2 448.64,-194.54 464.46,-177.61 474.78,-164.18"/>
<polygon fill="#63b8ff" stroke="#63b8ff" points="477.37,-166.58 480.4,-156.43 471.7,-162.47 477.37,-166.58"/>
</a>
</g>
</g>
<!-- Node11&#45;&gt;Node7 -->
<g id="edge20_Node000011_Node000007" class="edge">
<title>Node11&#45;&gt;Node7</title>
<g id="a_edge20_Node000011_Node000007"><a xlink:title=" ">
<path fill="none" stroke="#63b8ff" d="M296.54,-190.44C308.09,-189.46 321.35,-188.33 333.9,-187.26"/>
<polygon fill="#63b8ff" stroke="#63b8ff" points="334,-190.77 343.66,-186.43 333.4,-183.79 334,-190.77"/>
</a>
</g>
</g>
<!-- Node12 -->
<g id="Node000012" class="node">
<title>Node12</title>
<g id="a_Node000012"><a xlink:href="cJSON_8c.html#af5b4e769356f10d99a7f66697c42c1bb" target="_top" xlink:title=" ">
<polygon fill="white" stroke="#666666" points="422.88,-268.83 342.38,-268.83 342.38,-249.58 422.88,-249.58 422.88,-268.83"/>
<text xml:space="preserve" text-anchor="middle" x="382.62" y="-255.33" font-family="Helvetica,sans-Serif" font-size="10.00">print_string_ptr</text>
</a>
</g>
</g>
<!-- Node11&#45;&gt;Node12 -->
<g id="edge17_Node000011_Node000012" class="edge">
<title>Node11&#45;&gt;Node12</title>
<g id="a_edge17_Node000011_Node000012"><a xlink:title=" ">
<path fill="none" stroke="#63b8ff" d="M280.64,-203.31C294.96,-211.99 316.3,-224.72 335.25,-235.2 340.47,-238.09 346.07,-241.08 351.51,-243.93"/>
<polygon fill="#63b8ff" stroke="#63b8ff" points="349.8,-246.98 360.29,-248.47 353.02,-240.77 349.8,-246.98"/>
</a>
</g>
</g>
<!-- Node12&#45;&gt;Node3 -->
<g id="edge18_Node000012_Node000003" class="edge">
<title>Node12&#45;&gt;Node3</title>
<g id="a_edge18_Node000012_Node000003"><a xlink:title=" ">
<path fill="none" stroke="#63b8ff" d="M408.75,-249.19C416.12,-245.5 423.84,-240.82 430,-235.2 451.77,-215.34 468.71,-185.48 478.43,-165.68"/>
<polygon fill="#63b8ff" stroke="#63b8ff" points="481.57,-167.23 482.66,-156.7 475.23,-164.25 481.57,-167.23"/>
</a>
</g>
</g>
<!-- Node13&#45;&gt;Node12 -->
<g id="edge22_Node000013_Node000012" class="edge">
<title>Node13&#45;&gt;Node12</title>
<g id="a_edge22_Node000013_Node000012"><a xlink:title=" ">
<path fill="none" stroke="#63b8ff" d="M295.61,-251.88C306.43,-252.8 318.83,-253.86 330.79,-254.88"/>
<polygon fill="#63b8ff" stroke="#63b8ff" points="330.28,-258.34 340.54,-255.71 330.88,-251.37 330.28,-258.34"/>
</a>
</g>
</g>
</g>
</svg>
