<?xml version="1.0" encoding="UTF-8" standalone="no"?>
<!DOCTYPE svg PUBLIC "-//W3C//DTD SVG 1.1//EN"
 "http://www.w3.org/Graphics/SVG/1.1/DTD/svg11.dtd">
<!-- Generated by graphviz version 14.0.5 (0)
 -->
<!-- Title: print_object Pages: 1 -->
<svg width="301pt" height="101pt"
 viewBox="0.00 0.00 301.00 101.00" xmlns="http://www.w3.org/2000/svg" xmlns:xlink="http://www.w3.org/1999/xlink">
<g id="graph0" class="graph" transform="scale(1 1) rotate(0) translate(4 97.25)">
<title>print_object</title>
<!-- Node1 -->
<g id="Node000001" class="node">
<title>Node1</title>
<g id="a_Node000001"><a xlink:title=" ">
<polygon fill="#999999" stroke="#666666" points="293.25,-37.25 227,-37.25 227,-18 293.25,-18 293.25,-37.25"/>
<text xml:space="preserve" text-anchor="middle" x="260.12" y="-23.75" font-family="Helvetica,sans-Serif" font-size="10.00">print_object</text>
</a>
</g>
</g>
<!-- Node2 -->
<g id="Node000002" class="node">
<title>Node2</title>
<g id="a_Node000002"><a xlink:href="cJSON_8c.html#a5ba141f183b9abb4b49e38a211299c7e" target="_top" xlink:title=" ">
<polygon fill="white" stroke="#666666" points="191,-37.25 127.75,-37.25 127.75,-18 191,-18 191,-37.25"/>
<text xml:space="preserve" text-anchor="middle" x="159.38" y="-23.75" font-family="Helvetica,sans-Serif" font-size="10.00">print_value</text>
</a>
</g>
</g>
<!-- Node1&#45;&gt;Node2 -->
<g id="edge1_Node000001_Node000002" class="edge">
<title>Node1&#45;&gt;Node2</title>
<g id="a_edge1_Node000001_Node000002"><a xlink:title=" ">
<path fill="none" stroke="#63b8ff" d="M215.01,-20.91C207,-20.8 198.8,-20.94 191.27,-21.31"/>
<polygon fill="#63b8ff" stroke="#63b8ff" points="214.91,-24.41 225,-21.19 215.11,-17.41 214.91,-24.41"/>
</a>
</g>
</g>
<!-- Node2&#45;&gt;Node1 -->
<g id="edge6_Node000002_Node000001" class="edge">
<title>Node2&#45;&gt;Node1</title>
<g id="a_edge6_Node000002_Node000001"><a xlink:title=" ">
<path fill="none" stroke="#63b8ff" d="M202.68,-34.31C210.66,-34.45 218.89,-34.35 226.52,-34.02"/>
<polygon fill="#63b8ff" stroke="#63b8ff" points="202.9,-30.82 192.79,-33.99 202.67,-37.81 202.9,-30.82"/>
</a>
</g>
</g>
<!-- Node3 -->
<g id="Node000003" class="node">
<title>Node3</title>
<g id="a_Node000003"><a xlink:href="cJSON_8c.html#aed7e219a2b9187880c97c6f0ea5fa1b4" target="_top" xlink:title=" ">
<polygon fill="white" stroke="#666666" points="91.75,-93.25 0,-93.25 0,-74 91.75,-74 91.75,-93.25"/>
<text xml:space="preserve" text-anchor="middle" x="45.88" y="-79.75" font-family="Helvetica,sans-Serif" font-size="10.00">CJSON_PUBLIC</text>
</a>
</g>
</g>
<!-- Node2&#45;&gt;Node3 -->
<g id="edge2_Node000002_Node000003" class="edge">
<title>Node2&#45;&gt;Node3</title>
<g id="a_edge2_Node000002_Node000003"><a xlink:title=" ">
<path fill="none" stroke="#63b8ff" d="M132.75,-43.33C120.55,-50.53 105.61,-58.93 91.75,-65.62 86.01,-68.4 79.72,-71.11 73.71,-73.56"/>
<polygon fill="#63b8ff" stroke="#63b8ff" points="134.2,-46.55 140.98,-38.41 130.6,-40.54 134.2,-46.55"/>
</a>
</g>
</g>
<!-- Node4 -->
<g id="Node000004" class="node">
<title>Node4</title>
<g id="a_Node000004"><a xlink:href="cJSON_8c.html#a36b0c212c0d382a4714afa8b70c1a2ee" target="_top" xlink:title=" ">
<polygon fill="white" stroke="#666666" points="63.25,-56.25 28.5,-56.25 28.5,-37 63.25,-37 63.25,-56.25"/>
<text xml:space="preserve" text-anchor="middle" x="45.88" y="-42.75" font-family="Helvetica,sans-Serif" font-size="10.00">print</text>
</a>
</g>
</g>
<!-- Node2&#45;&gt;Node4 -->
<g id="edge3_Node000002_Node000004" class="edge">
<title>Node2&#45;&gt;Node4</title>
<g id="a_edge3_Node000002_Node000004"><a xlink:title=" ">
<path fill="none" stroke="#63b8ff" d="M116,-34.85C97.75,-37.96 77.48,-41.41 63.63,-43.77"/>
<polygon fill="#63b8ff" stroke="#63b8ff" points="116.55,-38.3 125.82,-33.17 115.38,-31.4 116.55,-38.3"/>
</a>
</g>
</g>
<!-- Node5 -->
<g id="Node000005" class="node">
<title>Node5</title>
<g id="a_Node000005"><a xlink:href="cJSON_8c.html#ae84642817f3965a85c7c617663250c16" target="_top" xlink:title=" ">
<polygon fill="white" stroke="#666666" points="76.38,-19.25 15.37,-19.25 15.37,0 76.38,0 76.38,-19.25"/>
<text xml:space="preserve" text-anchor="middle" x="45.88" y="-5.75" font-family="Helvetica,sans-Serif" font-size="10.00">print_array</text>
</a>
</g>
</g>
<!-- Node2&#45;&gt;Node5 -->
<g id="edge4_Node000002_Node000005" class="edge">
<title>Node2&#45;&gt;Node5</title>
<g id="a_edge4_Node000002_Node000005"><a xlink:title=" ">
<path fill="none" stroke="#63b8ff" d="M120.87,-15.15C106.47,-12.28 90.23,-9.79 76.65,-8.38"/>
<polygon fill="#63b8ff" stroke="#63b8ff" points="119.96,-18.54 130.47,-17.2 121.42,-11.69 119.96,-18.54"/>
</a>
</g>
</g>
<!-- Node5&#45;&gt;Node2 -->
<g id="edge5_Node000005_Node000002" class="edge">
<title>Node5&#45;&gt;Node2</title>
<g id="a_edge5_Node000005_Node000002"><a xlink:title=" ">
<path fill="none" stroke="#63b8ff" d="M84.45,-22.11C98.39,-24.88 114.03,-27.31 127.32,-28.73"/>
<polygon fill="#63b8ff" stroke="#63b8ff" points="85.23,-18.7 74.72,-20.03 83.77,-25.54 85.23,-18.7"/>
</a>
</g>
</g>
</g>
</svg>
