<?xml version="1.0" encoding="UTF-8" standalone="no"?>
<!DOCTYPE svg PUBLIC "-//W3C//DTD SVG 1.1//EN"
 "http://www.w3.org/Graphics/SVG/1.1/DTD/svg11.dtd">
<!-- Generated by graphviz version 14.0.5 (0)
 -->
<!-- Title: parse_number Pages: 1 -->
<svg width="239pt" height="82pt"
 viewBox="0.00 0.00 239.00 82.00" xmlns="http://www.w3.org/2000/svg" xmlns:xlink="http://www.w3.org/1999/xlink">
<g id="graph0" class="graph" transform="scale(1 1) rotate(0) translate(4 78.25)">
<title>parse_number</title>
<!-- Node1 -->
<g id="Node000001" class="node">
<title>Node1</title>
<g id="a_Node000001"><a xlink:title=" ">
<polygon fill="#999999" stroke="#666666" points="77.5,-37.25 0,-37.25 0,-18 77.5,-18 77.5,-37.25"/>
<text xml:space="preserve" text-anchor="middle" x="38.75" y="-23.75" font-family="Helvetica,sans-Serif" font-size="10.00">parse_number</text>
</a>
</g>
</g>
<!-- Node2 -->
<g id="Node000002" class="node">
<title>Node2</title>
<g id="a_Node000002"><a xlink:href="structinternal__hooks.html#a8b8f7ff45faa5da18dd3ccd2a2c8e416" target="_top" xlink:title=" ">
<polygon fill="white" stroke="#666666" points="230.75,-56.25 113.5,-56.25 113.5,-37 230.75,-37 230.75,-56.25"/>
<text xml:space="preserve" text-anchor="middle" x="172.12" y="-42.75" font-family="Helvetica,sans-Serif" font-size="10.00">internal_hooks::allocate</text>
</a>
</g>
</g>
<!-- Node1&#45;&gt;Node2 -->
<g id="edge1_Node000001_Node000002" class="edge">
<title>Node1&#45;&gt;Node2</title>
<g id="a_edge1_Node000001_Node000002"><a xlink:title=" ">
<path fill="none" stroke="#63b8ff" d="M77.75,-33.12C85.36,-34.22 93.57,-35.41 101.86,-36.61"/>
<polygon fill="#63b8ff" stroke="#63b8ff" points="101.26,-40.06 111.66,-38.02 102.26,-33.13 101.26,-40.06"/>
</a>
</g>
</g>
<!-- Node3 -->
<g id="Node000003" class="node">
<title>Node3</title>
<g id="a_Node000003"><a xlink:href="cJSON_8c.html#ab25412ae56c8c594831918169bea100d" target="_top" xlink:title=" ">
<polygon fill="white" stroke="#666666" points="219.5,-19.25 124.75,-19.25 124.75,0 219.5,0 219.5,-19.25"/>
<text xml:space="preserve" text-anchor="middle" x="172.12" y="-5.75" font-family="Helvetica,sans-Serif" font-size="10.00">get_decimal_point</text>
</a>
</g>
</g>
<!-- Node1&#45;&gt;Node3 -->
<g id="edge3_Node000001_Node000003" class="edge">
<title>Node1&#45;&gt;Node3</title>
<g id="a_edge3_Node000001_Node000003"><a xlink:title=" ">
<path fill="none" stroke="#63b8ff" d="M77.75,-22.42C88.78,-20.91 101.08,-19.22 113.04,-17.58"/>
<polygon fill="#63b8ff" stroke="#63b8ff" points="113.41,-21.07 122.85,-16.24 112.46,-14.13 113.41,-21.07"/>
</a>
</g>
</g>
<!-- Node2&#45;&gt;Node2 -->
<g id="edge2_Node000002_Node000002" class="edge">
<title>Node2&#45;&gt;Node2</title>
<g id="a_edge2_Node000002_Node000002"><a xlink:title=" ">
<path fill="none" stroke="#63b8ff" d="M151.24,-56.54C141.72,-65.15 148.68,-74.25 172.12,-74.25 184.95,-74.25 192.84,-71.53 195.8,-67.65"/>
<polygon fill="#63b8ff" stroke="#63b8ff" points="199.21,-66.85 193.37,-58.01 192.42,-68.56 199.21,-66.85"/>
</a>
</g>
</g>
</g>
</svg>
