<?xml version="1.0" encoding="UTF-8" standalone="no"?>
<!DOCTYPE svg PUBLIC "-//W3C//DTD SVG 1.1//EN"
 "http://www.w3.org/Graphics/SVG/1.1/DTD/svg11.dtd">
<!-- Generated by graphviz version 14.0.5 (0)
 -->
<!-- Title: cJSON_strdup Pages: 1 -->
<svg width="242pt" height="45pt"
 viewBox="0.00 0.00 242.00 45.00" xmlns="http://www.w3.org/2000/svg" xmlns:xlink="http://www.w3.org/1999/xlink">
<g id="graph0" class="graph" transform="scale(1 1) rotate(0) translate(4 41.25)">
<title>cJSON_strdup</title>
<!-- Node1 -->
<g id="Node000001" class="node">
<title>Node1</title>
<g id="a_Node000001"><a xlink:title=" ">
<polygon fill="#999999" stroke="#666666" points="80.5,-19.25 0,-19.25 0,0 80.5,0 80.5,-19.25"/>
<text xml:space="preserve" text-anchor="middle" x="40.25" y="-5.75" font-family="Helvetica,sans-Serif" font-size="10.00">cJSON_strdup</text>
</a>
</g>
</g>
<!-- Node2 -->
<g id="Node000002" class="node">
<title>Node2</title>
<g id="a_Node000002"><a xlink:href="structinternal__hooks.html#a8b8f7ff45faa5da18dd3ccd2a2c8e416" target="_top" xlink:title=" ">
<polygon fill="white" stroke="#666666" points="233.75,-19.25 116.5,-19.25 116.5,0 233.75,0 233.75,-19.25"/>
<text xml:space="preserve" text-anchor="middle" x="175.12" y="-5.75" font-family="Helvetica,sans-Serif" font-size="10.00">internal_hooks::allocate</text>
</a>
</g>
</g>
<!-- Node1&#45;&gt;Node2 -->
<g id="edge1_Node000001_Node000002" class="edge">
<title>Node1&#45;&gt;Node2</title>
<g id="a_edge1_Node000001_Node000002"><a xlink:title=" ">
<path fill="none" stroke="#63b8ff" d="M80.76,-9.62C88.44,-9.62 96.69,-9.62 105,-9.62"/>
<polygon fill="#63b8ff" stroke="#63b8ff" points="104.81,-13.13 114.81,-9.63 104.81,-6.13 104.81,-13.13"/>
</a>
</g>
</g>
<!-- Node2&#45;&gt;Node2 -->
<g id="edge2_Node000002_Node000002" class="edge">
<title>Node2&#45;&gt;Node2</title>
<g id="a_edge2_Node000002_Node000002"><a xlink:title=" ">
<path fill="none" stroke="#63b8ff" d="M154.01,-19.54C144.38,-28.15 151.42,-37.25 175.12,-37.25 188.09,-37.25 196.07,-34.53 199.07,-30.65"/>
<polygon fill="#63b8ff" stroke="#63b8ff" points="202.47,-29.83 196.61,-21 195.68,-31.56 202.47,-29.83"/>
</a>
</g>
</g>
</g>
</svg>
