<?xml version="1.0" encoding="UTF-8" standalone="no"?>
<!DOCTYPE svg PUBLIC "-//W3C//DTD SVG 1.1//EN"
 "http://www.w3.org/Graphics/SVG/1.1/DTD/svg11.dtd">
<!-- Generated by graphviz version 14.0.5 (0)
 -->
<!-- Title: ensure Pages: 1 -->
<svg width="215pt" height="100pt"
 viewBox="0.00 0.00 215.00 100.00" xmlns="http://www.w3.org/2000/svg" xmlns:xlink="http://www.w3.org/1999/xlink">
<g id="graph0" class="graph" transform="scale(1 1) rotate(0) translate(4 96.25)">
<title>ensure</title>
<!-- Node1 -->
<g id="Node000001" class="node">
<title>Node1</title>
<g id="a_Node000001"><a xlink:title=" ">
<polygon fill="#999999" stroke="#666666" points="45.25,-46.25 0,-46.25 0,-27 45.25,-27 45.25,-46.25"/>
<text xml:space="preserve" text-anchor="middle" x="22.62" y="-32.75" font-family="Helvetica,sans-Serif" font-size="10.00">ensure</text>
</a>
</g>
</g>
<!-- Node2 -->
<g id="Node000002" class="node">
<title>Node2</title>
<g id="a_Node000002"><a xlink:href="structinternal__hooks.html#a8b8f7ff45faa5da18dd3ccd2a2c8e416" target="_top" xlink:title=" ">
<polygon fill="white" stroke="#666666" points="202.62,-74.25 85.38,-74.25 85.38,-55 202.62,-55 202.62,-74.25"/>
<text xml:space="preserve" text-anchor="middle" x="144" y="-60.75" font-family="Helvetica,sans-Serif" font-size="10.00">internal_hooks::allocate</text>
</a>
</g>
</g>
<!-- Node1&#45;&gt;Node2 -->
<g id="edge1_Node000001_Node000002" class="edge">
<title>Node1&#45;&gt;Node2</title>
<g id="a_edge1_Node000001_Node000002"><a xlink:title=" ">
<path fill="none" stroke="#63b8ff" d="M45.52,-41.76C57.76,-44.63 73.6,-48.35 88.95,-51.95"/>
<polygon fill="#63b8ff" stroke="#63b8ff" points="87.96,-55.31 98.5,-54.19 89.56,-48.5 87.96,-55.31"/>
</a>
</g>
</g>
<!-- Node3 -->
<g id="Node000003" class="node">
<title>Node3</title>
<g id="a_Node000003"><a xlink:href="structinternal__hooks.html#a7c3921493fab83f33cd509145d8a5393" target="_top" xlink:title=" ">
<polygon fill="white" stroke="#666666" points="206.75,-19.25 81.25,-19.25 81.25,0 206.75,0 206.75,-19.25"/>
<text xml:space="preserve" text-anchor="middle" x="144" y="-5.75" font-family="Helvetica,sans-Serif" font-size="10.00">internal_hooks::reallocate</text>
</a>
</g>
</g>
<!-- Node1&#45;&gt;Node3 -->
<g id="edge3_Node000001_Node000003" class="edge">
<title>Node1&#45;&gt;Node3</title>
<g id="a_edge3_Node000001_Node000003"><a xlink:title=" ">
<path fill="none" stroke="#63b8ff" d="M45.52,-31.67C57.32,-29 72.47,-25.58 87.29,-22.23"/>
<polygon fill="#63b8ff" stroke="#63b8ff" points="88.04,-25.64 97.02,-20.02 86.49,-18.82 88.04,-25.64"/>
</a>
</g>
</g>
<!-- Node2&#45;&gt;Node2 -->
<g id="edge2_Node000002_Node000002" class="edge">
<title>Node2&#45;&gt;Node2</title>
<g id="a_edge2_Node000002_Node000002"><a xlink:title=" ">
<path fill="none" stroke="#63b8ff" d="M125,-74.54C116.33,-83.15 122.66,-92.25 144,-92.25 155.67,-92.25 162.85,-89.53 165.54,-85.65"/>
<polygon fill="#63b8ff" stroke="#63b8ff" points="168.98,-84.98 163.34,-76.01 162.16,-86.54 168.98,-84.98"/>
</a>
</g>
</g>
<!-- Node3&#45;&gt;Node3 -->
<g id="edge4_Node000003_Node000003" class="edge">
<title>Node3&#45;&gt;Node3</title>
<g id="a_edge4_Node000003_Node000003"><a xlink:title=" ">
<path fill="none" stroke="#63b8ff" d="M125,-19.54C116.33,-28.15 122.66,-37.25 144,-37.25 155.67,-37.25 162.85,-34.53 165.54,-30.65"/>
<polygon fill="#63b8ff" stroke="#63b8ff" points="168.98,-29.98 163.34,-21.01 162.16,-31.54 168.98,-29.98"/>
</a>
</g>
</g>
</g>
</svg>
