<?xml version="1.0" encoding="UTF-8" standalone="no"?>
<!DOCTYPE svg PUBLIC "-//W3C//DTD SVG 1.1//EN"
 "http://www.w3.org/Graphics/SVG/1.1/DTD/svg11.dtd">
<!-- Generated by graphviz version 14.0.5 (0)
 -->
<!-- Title: cJSON.c Pages: 1 -->
<svg width="510pt" height="138pt"
 viewBox="0.00 0.00 510.00 138.00" xmlns="http://www.w3.org/2000/svg" xmlns:xlink="http://www.w3.org/1999/xlink">
<g id="graph0" class="graph" transform="scale(1 1) rotate(0) translate(4 133.75)">
<title>cJSON.c</title>
<!-- Node1 -->
<g id="Node000001" class="node">
<title>Node1</title>
<g id="a_Node000001"><a xlink:title=" ">
<polygon fill="#999999" stroke="#666666" points="274.62,-129.75 218.88,-129.75 218.88,-110.5 274.62,-110.5 274.62,-129.75"/>
<text xml:space="preserve" text-anchor="middle" x="246.75" y="-116.25" font-family="Helvetica,sans-Serif" font-size="10.00">cJSON.c</text>
</a>
</g>
</g>
<!-- Node2 -->
<g id="Node000002" class="node">
<title>Node2</title>
<g id="a_Node000002"><a xlink:title=" ">
<polygon fill="#e0e0e0" stroke="#999999" points="47.5,-74.5 0,-74.5 0,-55.25 47.5,-55.25 47.5,-74.5"/>
<text xml:space="preserve" text-anchor="middle" x="23.75" y="-61" font-family="Helvetica,sans-Serif" font-size="10.00">string.h</text>
</a>
</g>
</g>
<!-- Node1&#45;&gt;Node2 -->
<g id="edge1_Node000001_Node000002" class="edge">
<title>Node1&#45;&gt;Node2</title>
<g id="a_edge1_Node000001_Node000002"><a xlink:title=" ">
<path fill="none" stroke="#63b8ff" d="M218.69,-112.76C183.6,-104.76 121.42,-90.42 58.76,-74.95"/>
<polygon fill="#63b8ff" stroke="#63b8ff" points="59.9,-71.63 49.35,-72.62 58.22,-78.42 59.9,-71.63"/>
</a>
</g>
</g>
<!-- Node3 -->
<g id="Node000003" class="node">
<title>Node3</title>
<g id="a_Node000003"><a xlink:title=" ">
<polygon fill="#e0e0e0" stroke="#999999" points="110,-74.5 65.5,-74.5 65.5,-55.25 110,-55.25 110,-74.5"/>
<text xml:space="preserve" text-anchor="middle" x="87.75" y="-61" font-family="Helvetica,sans-Serif" font-size="10.00">stdio.h</text>
</a>
</g>
</g>
<!-- Node1&#45;&gt;Node3 -->
<g id="edge2_Node000001_Node000003" class="edge">
<title>Node1&#45;&gt;Node3</title>
<g id="a_edge2_Node000001_Node000003"><a xlink:title=" ">
<path fill="none" stroke="#63b8ff" d="M219.78,-110.09C192.44,-100.94 150.1,-86.75 120.77,-76.93"/>
<polygon fill="#63b8ff" stroke="#63b8ff" points="122.25,-73.74 111.66,-73.88 120.03,-80.38 122.25,-73.74"/>
</a>
</g>
</g>
<!-- Node4 -->
<g id="Node000004" class="node">
<title>Node4</title>
<g id="a_Node000004"><a xlink:title=" ">
<polygon fill="#e0e0e0" stroke="#999999" points="173.38,-74.5 128.12,-74.5 128.12,-55.25 173.38,-55.25 173.38,-74.5"/>
<text xml:space="preserve" text-anchor="middle" x="150.75" y="-61" font-family="Helvetica,sans-Serif" font-size="10.00">math.h</text>
</a>
</g>
</g>
<!-- Node1&#45;&gt;Node4 -->
<g id="edge3_Node000001_Node000004" class="edge">
<title>Node1&#45;&gt;Node4</title>
<g id="a_edge3_Node000001_Node000004"><a xlink:title=" ">
<path fill="none" stroke="#63b8ff" d="M230.46,-110.09C215.85,-101.98 194.12,-89.93 177.04,-80.46"/>
<polygon fill="#63b8ff" stroke="#63b8ff" points="178.88,-77.48 168.44,-75.69 175.49,-83.6 178.88,-77.48"/>
</a>
</g>
</g>
<!-- Node5 -->
<g id="Node000005" class="node">
<title>Node5</title>
<g id="a_Node000005"><a xlink:title=" ">
<polygon fill="#e0e0e0" stroke="#999999" points="238.12,-74.5 191.38,-74.5 191.38,-55.25 238.12,-55.25 238.12,-74.5"/>
<text xml:space="preserve" text-anchor="middle" x="214.75" y="-61" font-family="Helvetica,sans-Serif" font-size="10.00">stdlib.h</text>
</a>
</g>
</g>
<!-- Node1&#45;&gt;Node5 -->
<g id="edge4_Node000001_Node000005" class="edge">
<title>Node1&#45;&gt;Node5</title>
<g id="a_edge4_Node000001_Node000005"><a xlink:title=" ">
<path fill="none" stroke="#63b8ff" d="M241.47,-110.33C237.28,-103.36 231.27,-93.37 226.02,-84.62"/>
<polygon fill="#63b8ff" stroke="#63b8ff" points="229.08,-82.93 220.93,-76.16 223.08,-86.53 229.08,-82.93"/>
</a>
</g>
</g>
<!-- Node6 -->
<g id="Node000006" class="node">
<title>Node6</title>
<g id="a_Node000006"><a xlink:title=" ">
<polygon fill="#e0e0e0" stroke="#999999" points="303.12,-74.5 256.38,-74.5 256.38,-55.25 303.12,-55.25 303.12,-74.5"/>
<text xml:space="preserve" text-anchor="middle" x="279.75" y="-61" font-family="Helvetica,sans-Serif" font-size="10.00">limits.h</text>
</a>
</g>
</g>
<!-- Node1&#45;&gt;Node6 -->
<g id="edge5_Node000001_Node000006" class="edge">
<title>Node1&#45;&gt;Node6</title>
<g id="a_edge5_Node000001_Node000006"><a xlink:title=" ">
<path fill="none" stroke="#63b8ff" d="M252.2,-110.33C256.52,-103.36 262.71,-93.37 268.13,-84.62"/>
<polygon fill="#63b8ff" stroke="#63b8ff" points="271.09,-86.49 273.39,-76.15 265.14,-82.8 271.09,-86.49"/>
</a>
</g>
</g>
<!-- Node7 -->
<g id="Node000007" class="node">
<title>Node7</title>
<g id="a_Node000007"><a xlink:title=" ">
<polygon fill="#e0e0e0" stroke="#999999" points="368.12,-74.5 321.38,-74.5 321.38,-55.25 368.12,-55.25 368.12,-74.5"/>
<text xml:space="preserve" text-anchor="middle" x="344.75" y="-61" font-family="Helvetica,sans-Serif" font-size="10.00">ctype.h</text>
</a>
</g>
</g>
<!-- Node1&#45;&gt;Node7 -->
<g id="edge6_Node000001_Node000007" class="edge">
<title>Node1&#45;&gt;Node7</title>
<g id="a_edge6_Node000001_Node000007"><a xlink:title=" ">
<path fill="none" stroke="#63b8ff" d="M263.37,-110.09C278.44,-101.91 300.89,-89.71 318.4,-80.19"/>
<polygon fill="#63b8ff" stroke="#63b8ff" points="319.6,-83.52 326.71,-75.68 316.26,-77.37 319.6,-83.52"/>
</a>
</g>
</g>
<!-- Node8 -->
<g id="Node000008" class="node">
<title>Node8</title>
<g id="a_Node000008"><a xlink:title=" ">
<polygon fill="#e0e0e0" stroke="#999999" points="427.5,-74.5 386,-74.5 386,-55.25 427.5,-55.25 427.5,-74.5"/>
<text xml:space="preserve" text-anchor="middle" x="406.75" y="-61" font-family="Helvetica,sans-Serif" font-size="10.00">float.h</text>
</a>
</g>
</g>
<!-- Node1&#45;&gt;Node8 -->
<g id="edge7_Node000001_Node000008" class="edge">
<title>Node1&#45;&gt;Node8</title>
<g id="a_edge7_Node000001_Node000008"><a xlink:title=" ">
<path fill="none" stroke="#63b8ff" d="M273.89,-110.09C301.88,-100.78 345.49,-86.26 375.04,-76.43"/>
<polygon fill="#63b8ff" stroke="#63b8ff" points="375.8,-79.86 384.18,-73.39 373.59,-73.22 375.8,-79.86"/>
</a>
</g>
</g>
<!-- Node9 -->
<g id="Node000009" class="node">
<title>Node9</title>
<g id="a_Node000009"><a xlink:href="cJSON_8h.html" target="_top" xlink:title=" ">
<polygon fill="white" stroke="#666666" points="501.62,-74.5 445.88,-74.5 445.88,-55.25 501.62,-55.25 501.62,-74.5"/>
<text xml:space="preserve" text-anchor="middle" x="473.75" y="-61" font-family="Helvetica,sans-Serif" font-size="10.00">cJSON.h</text>
</a>
</g>
</g>
<!-- Node1&#45;&gt;Node9 -->
<g id="edge8_Node000001_Node000009" class="edge">
<title>Node1&#45;&gt;Node9</title>
<g id="a_edge8_Node000001_Node000009"><a xlink:title=" ">
<path fill="none" stroke="#63b8ff" d="M275.04,-112.49C315.17,-103.08 388.77,-85.81 434.26,-75.14"/>
<polygon fill="#63b8ff" stroke="#63b8ff" points="435.05,-78.55 443.99,-72.86 433.45,-71.73 435.05,-78.55"/>
</a>
</g>
</g>
<!-- Node10 -->
<g id="Node000010" class="node">
<title>Node10</title>
<g id="a_Node000010"><a xlink:title=" ">
<polygon fill="#e0e0e0" stroke="#999999" points="499,-19.25 448.5,-19.25 448.5,0 499,0 499,-19.25"/>
<text xml:space="preserve" text-anchor="middle" x="473.75" y="-5.75" font-family="Helvetica,sans-Serif" font-size="10.00">stddef.h</text>
</a>
</g>
</g>
<!-- Node9&#45;&gt;Node10 -->
<g id="edge9_Node000009_Node000010" class="edge">
<title>Node9&#45;&gt;Node10</title>
<g id="a_edge9_Node000009_Node000010"><a xlink:title=" ">
<path fill="none" stroke="#63b8ff" d="M473.75,-55.08C473.75,-48.57 473.75,-39.42 473.75,-31.12"/>
<polygon fill="#63b8ff" stroke="#63b8ff" points="477.25,-31.12 473.75,-21.12 470.25,-31.12 477.25,-31.12"/>
</a>
</g>
</g>
</g>
</svg>
