<?xml version="1.0" encoding="UTF-8" standalone="no"?>
<!DOCTYPE svg PUBLIC "-//W3C//DTD SVG 1.1//EN"
 "http://www.w3.org/Graphics/SVG/1.1/DTD/svg11.dtd">
<!-- Generated by graphviz version 14.0.5 (0)
 -->
<!-- Title: parse_array Pages: 1 -->
<svg width="307pt" height="64pt"
 viewBox="0.00 0.00 307.00 64.00" xmlns="http://www.w3.org/2000/svg" xmlns:xlink="http://www.w3.org/1999/xlink">
<g id="graph0" class="graph" transform="scale(1 1) rotate(0) translate(4 60.25)">
<title>parse_array</title>
<!-- Node1 -->
<g id="Node000001" class="node">
<title>Node1</title>
<g id="a_Node000001"><a xlink:title=" ">
<polygon fill="#999999" stroke="#666666" points="298.5,-19.25 232.25,-19.25 232.25,0 298.5,0 298.5,-19.25"/>
<text xml:space="preserve" text-anchor="middle" x="265.38" y="-5.75" font-family="Helvetica,sans-Serif" font-size="10.00">parse_array</text>
</a>
</g>
</g>
<!-- Node2 -->
<g id="Node000002" class="node">
<title>Node2</title>
<g id="a_Node000002"><a xlink:href="cJSON_8c.html#afd5c0b7089e4de2fc9b2af599d4b596f" target="_top" xlink:title=" ">
<polygon fill="white" stroke="#666666" points="196.25,-19.25 127.75,-19.25 127.75,0 196.25,0 196.25,-19.25"/>
<text xml:space="preserve" text-anchor="middle" x="162" y="-5.75" font-family="Helvetica,sans-Serif" font-size="10.00">parse_value</text>
</a>
</g>
</g>
<!-- Node1&#45;&gt;Node2 -->
<g id="edge1_Node000001_Node000002" class="edge">
<title>Node1&#45;&gt;Node2</title>
<g id="a_edge1_Node000001_Node000002"><a xlink:title=" ">
<path fill="none" stroke="#63b8ff" d="M220.76,-2.93C212.61,-2.8 204.22,-2.9 196.44,-3.23"/>
<polygon fill="#63b8ff" stroke="#63b8ff" points="220.4,-6.42 230.51,-3.24 220.62,0.57 220.4,-6.42"/>
</a>
</g>
</g>
<!-- Node2&#45;&gt;Node1 -->
<g id="edge3_Node000002_Node000001" class="edge">
<title>Node2&#45;&gt;Node1</title>
<g id="a_edge3_Node000002_Node000001"><a xlink:title=" ">
<path fill="none" stroke="#63b8ff" d="M207.76,-16.33C215.93,-16.45 224.3,-16.33 232.02,-15.97"/>
<polygon fill="#63b8ff" stroke="#63b8ff" points="208.05,-12.84 197.95,-16.06 207.85,-19.84 208.05,-12.84"/>
</a>
</g>
</g>
<!-- Node3 -->
<g id="Node000003" class="node">
<title>Node3</title>
<g id="a_Node000003"><a xlink:href="cJSON_8h.html#abd55c37a5af547c3c1ada176e38afbc6" target="_top" xlink:title=" ">
<polygon fill="white" stroke="#666666" points="91.75,-56.25 0,-56.25 0,-37 91.75,-37 91.75,-56.25"/>
<text xml:space="preserve" text-anchor="middle" x="45.88" y="-42.75" font-family="Helvetica,sans-Serif" font-size="10.00">CJSON_PUBLIC</text>
</a>
</g>
</g>
<!-- Node2&#45;&gt;Node3 -->
<g id="edge2_Node000002_Node000003" class="edge">
<title>Node2&#45;&gt;Node3</title>
<g id="a_edge2_Node000002_Node000003"><a xlink:title=" ">
<path fill="none" stroke="#63b8ff" d="M119.22,-23.17C105.6,-27.59 90.72,-32.41 78.02,-36.53"/>
<polygon fill="#63b8ff" stroke="#63b8ff" points="119.94,-26.62 128.38,-20.2 117.78,-19.96 119.94,-26.62"/>
</a>
</g>
</g>
<!-- Node4 -->
<g id="Node000004" class="node">
<title>Node4</title>
<g id="a_Node000004"><a xlink:href="cJSON_8c.html#a1472ac5d1becd7d9a5e558b4c053b06a" target="_top" xlink:title=" ">
<polygon fill="white" stroke="#666666" points="81.62,-19.25 10.12,-19.25 10.12,0 81.62,0 81.62,-19.25"/>
<text xml:space="preserve" text-anchor="middle" x="45.88" y="-5.75" font-family="Helvetica,sans-Serif" font-size="10.00">parse_object</text>
</a>
</g>
</g>
<!-- Node2&#45;&gt;Node4 -->
<g id="edge4_Node000002_Node000004" class="edge">
<title>Node2&#45;&gt;Node4</title>
<g id="a_edge4_Node000002_Node000004"><a xlink:title=" ">
<path fill="none" stroke="#63b8ff" d="M115.89,-3.01C104.57,-2.75 92.59,-2.86 81.84,-3.35"/>
<polygon fill="#63b8ff" stroke="#63b8ff" points="115.75,-6.51 125.86,-3.36 115.99,0.49 115.75,-6.51"/>
</a>
</g>
</g>
<!-- Node4&#45;&gt;Node2 -->
<g id="edge5_Node000004_Node000002" class="edge">
<title>Node4&#45;&gt;Node2</title>
<g id="a_edge5_Node000004_Node000002"><a xlink:title=" ">
<path fill="none" stroke="#63b8ff" d="M93.05,-16.26C104.53,-16.5 116.63,-16.36 127.38,-15.84"/>
<polygon fill="#63b8ff" stroke="#63b8ff" points="93.46,-12.78 83.36,-15.95 93.24,-19.77 93.46,-12.78"/>
</a>
</g>
</g>
</g>
</svg>
