<?xml version="1.0" encoding="UTF-8" standalone="no"?>
<!DOCTYPE svg PUBLIC "-//W3C//DTD SVG 1.1//EN"
 "http://www.w3.org/Graphics/SVG/1.1/DTD/svg11.dtd">
<!-- Generated by graphviz version 14.0.5 (0)
 -->
<!-- Title: add_item_to_object Pages: 1 -->
<svg width="394pt" height="101pt"
 viewBox="0.00 0.00 394.00 101.00" xmlns="http://www.w3.org/2000/svg" xmlns:xlink="http://www.w3.org/1999/xlink">
<g id="graph0" class="graph" transform="scale(1 1) rotate(0) translate(4 97.25)">
<title>add_item_to_object</title>
<!-- Node1 -->
<g id="Node000001" class="node">
<title>Node1</title>
<g id="a_Node000001"><a xlink:title=" ">
<polygon fill="#999999" stroke="#666666" points="100.75,-56.25 0,-56.25 0,-37 100.75,-37 100.75,-56.25"/>
<text xml:space="preserve" text-anchor="middle" x="50.38" y="-42.75" font-family="Helvetica,sans-Serif" font-size="10.00">add_item_to_object</text>
</a>
</g>
</g>
<!-- Node2 -->
<g id="Node000002" class="node">
<title>Node2</title>
<g id="a_Node000002"><a xlink:href="cJSON_8c.html#a816d10c908af6be844a1f8277363e2f1" target="_top" xlink:title=" ">
<polygon fill="white" stroke="#666666" points="232.25,-93.25 136.75,-93.25 136.75,-74 232.25,-74 232.25,-93.25"/>
<text xml:space="preserve" text-anchor="middle" x="184.5" y="-79.75" font-family="Helvetica,sans-Serif" font-size="10.00">add_item_to_array</text>
</a>
</g>
</g>
<!-- Node1&#45;&gt;Node2 -->
<g id="edge1_Node000001_Node000002" class="edge">
<title>Node1&#45;&gt;Node2</title>
<g id="a_edge1_Node000001_Node000002"><a xlink:title=" ">
<path fill="none" stroke="#63b8ff" d="M87.48,-56.74C102.63,-60.98 120.44,-65.97 136.58,-70.49"/>
<polygon fill="#63b8ff" stroke="#63b8ff" points="135.41,-73.79 145.98,-73.12 137.3,-67.05 135.41,-73.79"/>
</a>
</g>
</g>
<!-- Node4 -->
<g id="Node000004" class="node">
<title>Node4</title>
<g id="a_Node000004"><a xlink:href="cJSON_8c.html#afed51aa9c43b82e72456fd04730643ce" target="_top" xlink:title=" ">
<polygon fill="white" stroke="#666666" points="230.38,-56.25 138.62,-56.25 138.62,-37 230.38,-37 230.38,-56.25"/>
<text xml:space="preserve" text-anchor="middle" x="184.5" y="-42.75" font-family="Helvetica,sans-Serif" font-size="10.00">cast_away_const</text>
</a>
</g>
</g>
<!-- Node1&#45;&gt;Node4 -->
<g id="edge3_Node000001_Node000004" class="edge">
<title>Node1&#45;&gt;Node4</title>
<g id="a_edge3_Node000001_Node000004"><a xlink:title=" ">
<path fill="none" stroke="#63b8ff" d="M100.95,-46.62C109.5,-46.62 118.45,-46.62 127.17,-46.62"/>
<polygon fill="#63b8ff" stroke="#63b8ff" points="126.93,-50.13 136.93,-46.63 126.93,-43.13 126.93,-50.13"/>
</a>
</g>
</g>
<!-- Node5 -->
<g id="Node000005" class="node">
<title>Node5</title>
<g id="a_Node000005"><a xlink:href="cJSON_8c.html#a15067642a12599c13a0e6c0da9009be7" target="_top" xlink:title=" ">
<polygon fill="white" stroke="#666666" points="224.75,-19.25 144.25,-19.25 144.25,0 224.75,0 224.75,-19.25"/>
<text xml:space="preserve" text-anchor="middle" x="184.5" y="-5.75" font-family="Helvetica,sans-Serif" font-size="10.00">cJSON_strdup</text>
</a>
</g>
</g>
<!-- Node1&#45;&gt;Node5 -->
<g id="edge4_Node000001_Node000005" class="edge">
<title>Node1&#45;&gt;Node5</title>
<g id="a_edge4_Node000001_Node000005"><a xlink:title=" ">
<path fill="none" stroke="#63b8ff" d="M87.48,-36.51C102.63,-32.27 120.44,-27.28 136.58,-22.76"/>
<polygon fill="#63b8ff" stroke="#63b8ff" points="137.3,-26.2 145.98,-20.13 135.41,-19.46 137.3,-26.2"/>
</a>
</g>
</g>
<!-- Node3 -->
<g id="Node000003" class="node">
<title>Node3</title>
<g id="a_Node000003"><a xlink:href="cJSON_8c.html#a5d61bcc0045ace88c2ae04f0928eeace" target="_top" xlink:title=" ">
<polygon fill="white" stroke="#666666" points="361.5,-93.25 292.25,-93.25 292.25,-74 361.5,-74 361.5,-93.25"/>
<text xml:space="preserve" text-anchor="middle" x="326.88" y="-79.75" font-family="Helvetica,sans-Serif" font-size="10.00">suffix_object</text>
</a>
</g>
</g>
<!-- Node2&#45;&gt;Node3 -->
<g id="edge2_Node000002_Node000003" class="edge">
<title>Node2&#45;&gt;Node3</title>
<g id="a_edge2_Node000002_Node000003"><a xlink:title=" ">
<path fill="none" stroke="#63b8ff" d="M232.63,-83.62C248.12,-83.62 265.29,-83.62 280.63,-83.62"/>
<polygon fill="#63b8ff" stroke="#63b8ff" points="280.44,-87.13 290.44,-83.63 280.44,-80.13 280.44,-87.13"/>
</a>
</g>
</g>
<!-- Node6 -->
<g id="Node000006" class="node">
<title>Node6</title>
<g id="a_Node000006"><a xlink:href="structinternal__hooks.html#a8b8f7ff45faa5da18dd3ccd2a2c8e416" target="_top" xlink:title=" ">
<polygon fill="white" stroke="#666666" points="385.5,-19.25 268.25,-19.25 268.25,0 385.5,0 385.5,-19.25"/>
<text xml:space="preserve" text-anchor="middle" x="326.88" y="-5.75" font-family="Helvetica,sans-Serif" font-size="10.00">internal_hooks::allocate</text>
</a>
</g>
</g>
<!-- Node5&#45;&gt;Node6 -->
<g id="edge5_Node000005_Node000006" class="edge">
<title>Node5&#45;&gt;Node6</title>
<g id="a_edge5_Node000005_Node000006"><a xlink:title=" ">
<path fill="none" stroke="#63b8ff" d="M224.98,-9.62C234.85,-9.62 245.73,-9.62 256.58,-9.62"/>
<polygon fill="#63b8ff" stroke="#63b8ff" points="256.32,-13.13 266.32,-9.63 256.32,-6.13 256.32,-13.13"/>
</a>
</g>
</g>
<!-- Node6&#45;&gt;Node6 -->
<g id="edge6_Node000006_Node000006" class="edge">
<title>Node6&#45;&gt;Node6</title>
<g id="a_edge6_Node000006_Node000006"><a xlink:title=" ">
<path fill="none" stroke="#63b8ff" d="M304.59,-19.54C294.42,-28.15 301.85,-37.25 326.88,-37.25 340.56,-37.25 348.99,-34.53 352.15,-30.65"/>
<polygon fill="#63b8ff" stroke="#63b8ff" points="355.53,-29.75 349.56,-21 348.77,-31.57 355.53,-29.75"/>
</a>
</g>
</g>
</g>
</svg>
