<?xml version="1.0" encoding="UTF-8" standalone="no"?>
<!DOCTYPE svg PUBLIC "-//W3C//DTD SVG 1.1//EN"
 "http://www.w3.org/Graphics/SVG/1.1/DTD/svg11.dtd">
<!-- Generated by graphviz version 14.0.5 (0)
 -->
<!-- Title: print Pages: 1 -->
<svg width="624pt" height="348pt"
 viewBox="0.00 0.00 624.00 348.00" xmlns="http://www.w3.org/2000/svg" xmlns:xlink="http://www.w3.org/1999/xlink">
<g id="graph0" class="graph" transform="scale(1 1) rotate(0) translate(4 344)">
<title>print</title>
<!-- Node1 -->
<g id="Node000001" class="node">
<title>Node1</title>
<g id="a_Node000001"><a xlink:title=" ">
<polygon fill="#999999" stroke="#666666" points="34.75,-271.62 0,-271.62 0,-252.38 34.75,-252.38 34.75,-271.62"/>
<text xml:space="preserve" text-anchor="middle" x="17.38" y="-258.12" font-family="Helvetica,sans-Serif" font-size="10.00">print</text>
</a>
</g>
</g>
<!-- Node2 -->
<g id="Node000002" class="node">
<title>Node2</title>
<g id="a_Node000002"><a xlink:href="structinternal__hooks.html#a8b8f7ff45faa5da18dd3ccd2a2c8e416" target="_top" xlink:title=" ">
<polygon fill="white" stroke="#666666" points="611.62,-257.62 494.38,-257.62 494.38,-238.38 611.62,-238.38 611.62,-257.62"/>
<text xml:space="preserve" text-anchor="middle" x="553" y="-244.12" font-family="Helvetica,sans-Serif" font-size="10.00">internal_hooks::allocate</text>
</a>
</g>
</g>
<!-- Node1&#45;&gt;Node2 -->
<g id="edge1_Node000001_Node000002" class="edge">
<title>Node1&#45;&gt;Node2</title>
<g id="a_edge1_Node000001_Node000002"><a xlink:title=" ">
<path fill="none" stroke="#63b8ff" d="M31.63,-271.88C61.14,-292.87 135.2,-340 205.12,-340 205.12,-340 205.12,-340 326.62,-340 405.57,-340 489.31,-291.01 528.81,-264.53"/>
<polygon fill="#63b8ff" stroke="#63b8ff" points="530.79,-267.42 537.05,-258.88 526.83,-261.64 530.79,-267.42"/>
</a>
</g>
</g>
<!-- Node3 -->
<g id="Node000003" class="node">
<title>Node3</title>
<g id="a_Node000003"><a xlink:href="cJSON_8c.html#a5ba141f183b9abb4b49e38a211299c7e" target="_top" xlink:title=" ">
<polygon fill="white" stroke="#666666" points="134,-234.62 70.75,-234.62 70.75,-215.38 134,-215.38 134,-234.62"/>
<text xml:space="preserve" text-anchor="middle" x="102.38" y="-221.12" font-family="Helvetica,sans-Serif" font-size="10.00">print_value</text>
</a>
</g>
</g>
<!-- Node1&#45;&gt;Node3 -->
<g id="edge3_Node000001_Node000003" class="edge">
<title>Node1&#45;&gt;Node3</title>
<g id="a_edge3_Node000001_Node000003"><a xlink:title=" ">
<path fill="none" stroke="#63b8ff" d="M35.17,-254.51C44.82,-250.21 57.27,-244.66 68.76,-239.54"/>
<polygon fill="#63b8ff" stroke="#63b8ff" points="69.85,-242.89 77.56,-235.62 67,-236.49 69.85,-242.89"/>
</a>
</g>
</g>
<!-- Node5 -->
<g id="Node000005" class="node">
<title>Node5</title>
<g id="a_Node000005"><a xlink:href="structinternal__hooks.html#a7c3921493fab83f33cd509145d8a5393" target="_top" xlink:title=" ">
<polygon fill="white" stroke="#666666" points="615.75,-136.62 490.25,-136.62 490.25,-117.38 615.75,-117.38 615.75,-136.62"/>
<text xml:space="preserve" text-anchor="middle" x="553" y="-123.12" font-family="Helvetica,sans-Serif" font-size="10.00">internal_hooks::reallocate</text>
</a>
</g>
</g>
<!-- Node1&#45;&gt;Node5 -->
<g id="edge24_Node000001_Node000005" class="edge">
<title>Node1&#45;&gt;Node5</title>
<g id="a_edge24_Node000001_Node000005"><a xlink:title=" ">
<path fill="none" stroke="#63b8ff" d="M20.27,-252.05C29.99,-204.19 78.88,0 205.12,0 205.12,0 205.12,0 326.62,0 414.4,0 499.51,-74.02 534.87,-109.04"/>
<polygon fill="#63b8ff" stroke="#63b8ff" points="532.18,-111.3 541.69,-115.96 537.16,-106.38 532.18,-111.3"/>
</a>
</g>
</g>
<!-- Node7 -->
<g id="Node000007" class="node">
<title>Node7</title>
<g id="a_Node000007"><a xlink:href="cJSON_8c.html#af5fb173126786c1e3f90b6df6e2500c5" target="_top" xlink:title=" ">
<polygon fill="white" stroke="#666666" points="362.88,-273.62 288.38,-273.62 288.38,-254.38 362.88,-254.38 362.88,-273.62"/>
<text xml:space="preserve" text-anchor="middle" x="325.62" y="-260.12" font-family="Helvetica,sans-Serif" font-size="10.00">update_offset</text>
</a>
</g>
</g>
<!-- Node1&#45;&gt;Node7 -->
<g id="edge25_Node000001_Node000007" class="edge">
<title>Node1&#45;&gt;Node7</title>
<g id="a_edge25_Node000001_Node000007"><a xlink:title=" ">
<path fill="none" stroke="#63b8ff" d="M35.24,-265.58C72.58,-273.03 165.03,-288.89 242.25,-281 253.58,-279.84 265.65,-277.81 276.97,-275.55"/>
<polygon fill="#63b8ff" stroke="#63b8ff" points="277.42,-279.03 286.49,-273.54 275.98,-272.18 277.42,-279.03"/>
</a>
</g>
</g>
<!-- Node2&#45;&gt;Node2 -->
<g id="edge2_Node000002_Node000002" class="edge">
<title>Node2&#45;&gt;Node2</title>
<g id="a_edge2_Node000002_Node000002"><a xlink:title=" ">
<path fill="none" stroke="#63b8ff" d="M534,-257.91C525.33,-266.52 531.66,-275.62 553,-275.62 564.67,-275.62 571.85,-272.9 574.54,-269.03"/>
<polygon fill="#63b8ff" stroke="#63b8ff" points="577.98,-268.36 572.34,-259.39 571.16,-269.92 577.98,-268.36"/>
</a>
</g>
</g>
<!-- Node4 -->
<g id="Node000004" class="node">
<title>Node4</title>
<g id="a_Node000004"><a xlink:href="cJSON_8c.html#ad9f9a9b2ad3154fc8033756f23c023a6" target="_top" xlink:title=" ">
<polygon fill="white" stroke="#666666" points="454.25,-197.62 409,-197.62 409,-178.38 454.25,-178.38 454.25,-197.62"/>
<text xml:space="preserve" text-anchor="middle" x="431.62" y="-184.12" font-family="Helvetica,sans-Serif" font-size="10.00">ensure</text>
</a>
</g>
</g>
<!-- Node3&#45;&gt;Node4 -->
<g id="edge4_Node000003_Node000004" class="edge">
<title>Node3&#45;&gt;Node4</title>
<g id="a_edge4_Node000003_Node000004"><a xlink:title=" ">
<path fill="none" stroke="#63b8ff" d="M106.53,-214.92C113.91,-192.98 134.45,-140.63 170,-113 209.61,-82.21 228.6,-88.19 278.25,-81 319.93,-74.97 336.85,-59.41 373,-81 404.13,-99.59 419.44,-141.45 426.13,-166.95"/>
<polygon fill="#63b8ff" stroke="#63b8ff" points="422.69,-167.6 428.41,-176.51 429.5,-165.97 422.69,-167.6"/>
</a>
</g>
</g>
<!-- Node6 -->
<g id="Node000006" class="node">
<title>Node6</title>
<g id="a_Node000006"><a xlink:href="cJSON_8c.html#ae84642817f3965a85c7c617663250c16" target="_top" xlink:title=" ">
<polygon fill="white" stroke="#666666" points="236.62,-271.62 175.62,-271.62 175.62,-252.38 236.62,-252.38 236.62,-271.62"/>
<text xml:space="preserve" text-anchor="middle" x="206.12" y="-258.12" font-family="Helvetica,sans-Serif" font-size="10.00">print_array</text>
</a>
</g>
</g>
<!-- Node3&#45;&gt;Node6 -->
<g id="edge8_Node000003_Node000006" class="edge">
<title>Node3&#45;&gt;Node6</title>
<g id="a_edge8_Node000003_Node000006"><a xlink:title=" ">
<path fill="none" stroke="#63b8ff" d="M134.46,-230.03C149.31,-234.68 166.82,-241.18 180.7,-247.25"/>
<polygon fill="#63b8ff" stroke="#63b8ff" points="179.01,-250.33 189.55,-251.35 181.95,-243.98 179.01,-250.33"/>
</a>
</g>
</g>
<!-- Node8 -->
<g id="Node000008" class="node">
<title>Node8</title>
<g id="a_Node000008"><a xlink:href="cJSON_8c.html#ad93d84de08872da0eaa6624be0e74a68" target="_top" xlink:title=" ">
<polygon fill="white" stroke="#666666" points="242.25,-141.62 170,-141.62 170,-122.38 242.25,-122.38 242.25,-141.62"/>
<text xml:space="preserve" text-anchor="middle" x="206.12" y="-128.12" font-family="Helvetica,sans-Serif" font-size="10.00">print_number</text>
</a>
</g>
</g>
<!-- Node3&#45;&gt;Node8 -->
<g id="edge12_Node000003_Node000008" class="edge">
<title>Node3&#45;&gt;Node8</title>
<g id="a_edge12_Node000003_Node000008"><a xlink:title=" ">
<path fill="none" stroke="#63b8ff" d="M114.26,-215.05C131.4,-199.38 164.89,-168.78 186.07,-149.42"/>
<polygon fill="#63b8ff" stroke="#63b8ff" points="188.18,-152.23 193.2,-142.9 183.45,-147.07 188.18,-152.23"/>
</a>
</g>
</g>
<!-- Node11 -->
<g id="Node000011" class="node">
<title>Node11</title>
<g id="a_Node000011"><a xlink:href="cJSON_8c.html#a3d742f5c68799bca291432a9cd72f8dd" target="_top" xlink:title=" ">
<polygon fill="white" stroke="#666666" points="239.25,-234.62 173,-234.62 173,-215.38 239.25,-215.38 239.25,-234.62"/>
<text xml:space="preserve" text-anchor="middle" x="206.12" y="-221.12" font-family="Helvetica,sans-Serif" font-size="10.00">print_object</text>
</a>
</g>
</g>
<!-- Node3&#45;&gt;Node11 -->
<g id="edge16_Node000003_Node000011" class="edge">
<title>Node3&#45;&gt;Node11</title>
<g id="a_edge16_Node000003_Node000011"><a xlink:title=" ">
<path fill="none" stroke="#63b8ff" d="M134.46,-218.73C143,-218.29 152.43,-218.16 161.55,-218.31"/>
<polygon fill="#63b8ff" stroke="#63b8ff" points="161.21,-221.8 171.31,-218.62 161.43,-214.81 161.21,-221.8"/>
</a>
</g>
</g>
<!-- Node13 -->
<g id="Node000013" class="node">
<title>Node13</title>
<g id="a_Node000013"><a xlink:href="cJSON_8c.html#ad087dd738e49b4258f0a3d378a121df6" target="_top" xlink:title=" ">
<polygon fill="white" stroke="#666666" points="238.12,-197.62 174.12,-197.62 174.12,-178.38 238.12,-178.38 238.12,-197.62"/>
<text xml:space="preserve" text-anchor="middle" x="206.12" y="-184.12" font-family="Helvetica,sans-Serif" font-size="10.00">print_string</text>
</a>
</g>
</g>
<!-- Node3&#45;&gt;Node13 -->
<g id="edge22_Node000003_Node000013" class="edge">
<title>Node3&#45;&gt;Node13</title>
<g id="a_edge22_Node000003_Node000013"><a xlink:title=" ">
<path fill="none" stroke="#63b8ff" d="M131.18,-214.89C142.17,-210.89 154.99,-206.23 166.83,-201.93"/>
<polygon fill="#63b8ff" stroke="#63b8ff" points="167.73,-205.32 175.93,-198.62 165.34,-198.74 167.73,-205.32"/>
</a>
</g>
</g>
<!-- Node4&#45;&gt;Node2 -->
<g id="edge5_Node000004_Node000002" class="edge">
<title>Node4&#45;&gt;Node2</title>
<g id="a_edge5_Node000004_Node000002"><a xlink:title=" ">
<path fill="none" stroke="#63b8ff" d="M452.61,-198.04C471.54,-207.56 500.24,-221.98 521.94,-232.89"/>
<polygon fill="#63b8ff" stroke="#63b8ff" points="520.1,-235.88 530.6,-237.24 523.24,-229.63 520.1,-235.88"/>
</a>
</g>
</g>
<!-- Node4&#45;&gt;Node5 -->
<g id="edge6_Node000004_Node000005" class="edge">
<title>Node4&#45;&gt;Node5</title>
<g id="a_edge6_Node000004_Node000005"><a xlink:title=" ">
<path fill="none" stroke="#63b8ff" d="M452.34,-177.93C471.35,-168.21 500.36,-153.39 522.19,-142.23"/>
<polygon fill="#63b8ff" stroke="#63b8ff" points="523.6,-145.44 530.91,-137.78 520.41,-139.21 523.6,-145.44"/>
</a>
</g>
</g>
<!-- Node5&#45;&gt;Node5 -->
<g id="edge7_Node000005_Node000005" class="edge">
<title>Node5&#45;&gt;Node5</title>
<g id="a_edge7_Node000005_Node000005"><a xlink:title=" ">
<path fill="none" stroke="#63b8ff" d="M534,-136.91C525.33,-145.52 531.66,-154.62 553,-154.62 564.67,-154.62 571.85,-151.9 574.54,-148.03"/>
<polygon fill="#63b8ff" stroke="#63b8ff" points="577.98,-147.36 572.34,-138.39 571.16,-148.92 577.98,-147.36"/>
</a>
</g>
</g>
<!-- Node6&#45;&gt;Node3 -->
<g id="edge10_Node000006_Node000003" class="edge">
<title>Node6&#45;&gt;Node3</title>
<g id="a_edge10_Node000006_Node000003"><a xlink:title=" ">
<path fill="none" stroke="#63b8ff" d="M175.22,-257.34C160.04,-252.64 141.85,-245.9 127.57,-239.64"/>
<polygon fill="#63b8ff" stroke="#63b8ff" points="129.44,-236.65 118.9,-235.63 126.5,-243.01 129.44,-236.65"/>
</a>
</g>
</g>
<!-- Node6&#45;&gt;Node4 -->
<g id="edge9_Node000006_Node000004" class="edge">
<title>Node6&#45;&gt;Node4</title>
<g id="a_edge9_Node000006_Node000004"><a xlink:title=" ">
<path fill="none" stroke="#63b8ff" d="M227.53,-272.03C260.42,-286.65 326.21,-309.35 373,-283 401.07,-267.2 417.04,-231.59 424.75,-208.74"/>
<polygon fill="#63b8ff" stroke="#63b8ff" points="428.06,-209.87 427.68,-199.29 421.38,-207.8 428.06,-209.87"/>
</a>
</g>
</g>
<!-- Node6&#45;&gt;Node7 -->
<g id="edge11_Node000006_Node000007" class="edge">
<title>Node6&#45;&gt;Node7</title>
<g id="a_edge11_Node000006_Node000007"><a xlink:title=" ">
<path fill="none" stroke="#63b8ff" d="M237.08,-262.51C249.07,-262.71 263.19,-262.95 276.54,-263.18"/>
<polygon fill="#63b8ff" stroke="#63b8ff" points="276.44,-266.68 286.5,-263.35 276.56,-259.68 276.44,-266.68"/>
</a>
</g>
</g>
<!-- Node8&#45;&gt;Node4 -->
<g id="edge14_Node000008_Node000004" class="edge">
<title>Node8&#45;&gt;Node4</title>
<g id="a_edge14_Node000008_Node000004"><a xlink:title=" ">
<path fill="none" stroke="#63b8ff" d="M222.33,-121.93C252.8,-103.13 322.73,-67.01 373,-95 400.57,-110.35 416.63,-144.95 424.5,-167.34"/>
<polygon fill="#63b8ff" stroke="#63b8ff" points="421.09,-168.18 427.51,-176.61 427.75,-166.02 421.09,-168.18"/>
</a>
</g>
</g>
<!-- Node9 -->
<g id="Node000009" class="node">
<title>Node9</title>
<g id="a_Node000009"><a xlink:href="cJSON_8c.html#aa7a85b63f1830e7e666e1f56872d5d3e" target="_top" xlink:title=" ">
<polygon fill="white" stroke="#666666" points="369.25,-160.62 282,-160.62 282,-141.38 369.25,-141.38 369.25,-160.62"/>
<text xml:space="preserve" text-anchor="middle" x="325.62" y="-147.12" font-family="Helvetica,sans-Serif" font-size="10.00">compare_double</text>
</a>
</g>
</g>
<!-- Node8&#45;&gt;Node9 -->
<g id="edge13_Node000008_Node000009" class="edge">
<title>Node8&#45;&gt;Node9</title>
<g id="a_edge13_Node000008_Node000009"><a xlink:title=" ">
<path fill="none" stroke="#63b8ff" d="M242.7,-137.75C251.44,-139.17 260.99,-140.71 270.39,-142.23"/>
<polygon fill="#63b8ff" stroke="#63b8ff" points="269.79,-145.68 280.22,-143.82 270.91,-138.77 269.79,-145.68"/>
</a>
</g>
</g>
<!-- Node10 -->
<g id="Node000010" class="node">
<title>Node10</title>
<g id="a_Node000010"><a xlink:href="cJSON_8c.html#ab25412ae56c8c594831918169bea100d" target="_top" xlink:title=" ">
<polygon fill="white" stroke="#666666" points="373,-123.62 278.25,-123.62 278.25,-104.38 373,-104.38 373,-123.62"/>
<text xml:space="preserve" text-anchor="middle" x="325.62" y="-110.12" font-family="Helvetica,sans-Serif" font-size="10.00">get_decimal_point</text>
</a>
</g>
</g>
<!-- Node8&#45;&gt;Node10 -->
<g id="edge15_Node000008_Node000010" class="edge">
<title>Node8&#45;&gt;Node10</title>
<g id="a_edge15_Node000008_Node000010"><a xlink:title=" ">
<path fill="none" stroke="#63b8ff" d="M242.7,-126.55C250.31,-125.38 258.55,-124.12 266.76,-122.86"/>
<polygon fill="#63b8ff" stroke="#63b8ff" points="267.03,-126.36 276.39,-121.39 265.97,-119.44 267.03,-126.36"/>
</a>
</g>
</g>
<!-- Node11&#45;&gt;Node3 -->
<g id="edge20_Node000011_Node000003" class="edge">
<title>Node11&#45;&gt;Node3</title>
<g id="a_edge20_Node000011_Node000003"><a xlink:title=" ">
<path fill="none" stroke="#63b8ff" d="M172.83,-231.33C164.2,-231.74 154.74,-231.85 145.66,-231.66"/>
<polygon fill="#63b8ff" stroke="#63b8ff" points="146.08,-228.18 135.97,-231.33 145.84,-235.17 146.08,-228.18"/>
</a>
</g>
</g>
<!-- Node11&#45;&gt;Node4 -->
<g id="edge17_Node000011_Node000004" class="edge">
<title>Node11&#45;&gt;Node4</title>
<g id="a_edge17_Node000011_Node000004"><a xlink:title=" ">
<path fill="none" stroke="#63b8ff" d="M239.56,-223.5C273.23,-221.47 327.28,-216.9 373,-207 381.19,-205.23 389.85,-202.72 397.9,-200.11"/>
<polygon fill="#63b8ff" stroke="#63b8ff" points="398.99,-203.44 407.33,-196.9 396.73,-196.81 398.99,-203.44"/>
</a>
</g>
</g>
<!-- Node11&#45;&gt;Node7 -->
<g id="edge21_Node000011_Node000007" class="edge">
<title>Node11&#45;&gt;Node7</title>
<g id="a_edge21_Node000011_Node000007"><a xlink:title=" ">
<path fill="none" stroke="#63b8ff" d="M237.38,-235.04C251.5,-239.73 268.51,-245.38 283.75,-250.43"/>
<polygon fill="#63b8ff" stroke="#63b8ff" points="282.44,-253.69 293.03,-253.51 284.64,-247.04 282.44,-253.69"/>
</a>
</g>
</g>
<!-- Node12 -->
<g id="Node000012" class="node">
<title>Node12</title>
<g id="a_Node000012"><a xlink:href="cJSON_8c.html#af5b4e769356f10d99a7f66697c42c1bb" target="_top" xlink:title=" ">
<polygon fill="white" stroke="#666666" points="365.88,-197.62 285.38,-197.62 285.38,-178.38 365.88,-178.38 365.88,-197.62"/>
<text xml:space="preserve" text-anchor="middle" x="325.62" y="-184.12" font-family="Helvetica,sans-Serif" font-size="10.00">print_string_ptr</text>
</a>
</g>
</g>
<!-- Node11&#45;&gt;Node12 -->
<g id="edge18_Node000011_Node000012" class="edge">
<title>Node11&#45;&gt;Node12</title>
<g id="a_edge18_Node000011_Node000012"><a xlink:title=" ">
<path fill="none" stroke="#63b8ff" d="M239.23,-214.89C252.31,-210.77 267.63,-205.95 281.66,-201.53"/>
<polygon fill="#63b8ff" stroke="#63b8ff" points="282.63,-204.89 291.11,-198.55 280.52,-198.22 282.63,-204.89"/>
</a>
</g>
</g>
<!-- Node12&#45;&gt;Node4 -->
<g id="edge19_Node000012_Node000004" class="edge">
<title>Node12&#45;&gt;Node4</title>
<g id="a_edge19_Node000012_Node000004"><a xlink:title=" ">
<path fill="none" stroke="#63b8ff" d="M366.24,-188C376.44,-188 387.32,-188 397.17,-188"/>
<polygon fill="#63b8ff" stroke="#63b8ff" points="397.06,-191.5 407.06,-188 397.06,-184.5 397.06,-191.5"/>
</a>
</g>
</g>
<!-- Node13&#45;&gt;Node12 -->
<g id="edge23_Node000013_Node000012" class="edge">
<title>Node13&#45;&gt;Node12</title>
<g id="a_edge23_Node000013_Node000012"><a xlink:title=" ">
<path fill="none" stroke="#63b8ff" d="M238.61,-188C249.43,-188 261.83,-188 273.79,-188"/>
<polygon fill="#63b8ff" stroke="#63b8ff" points="273.54,-191.5 283.54,-188 273.54,-184.5 273.54,-191.5"/>
</a>
</g>
</g>
</g>
</svg>
