<?xml version="1.0" encoding="UTF-8" standalone="no"?>
<!DOCTYPE svg PUBLIC "-//W3C//DTD SVG 1.1//EN"
 "http://www.w3.org/Graphics/SVG/1.1/DTD/svg11.dtd">
<!-- Generated by graphviz version 14.0.5 (0)
 -->
<!-- Title: parse_value Pages: 1 -->
<svg width="204pt" height="101pt"
 viewBox="0.00 0.00 204.00 101.00" xmlns="http://www.w3.org/2000/svg" xmlns:xlink="http://www.w3.org/1999/xlink">
<g id="graph0" class="graph" transform="scale(1 1) rotate(0) translate(4 97.25)">
<title>parse_value</title>
<!-- Node1 -->
<g id="Node000001" class="node">
<title>Node1</title>
<g id="a_Node000001"><a xlink:title=" ">
<polygon fill="#999999" stroke="#666666" points="196.25,-56.25 127.75,-56.25 127.75,-37 196.25,-37 196.25,-56.25"/>
<text xml:space="preserve" text-anchor="middle" x="162" y="-42.75" font-family="Helvetica,sans-Serif" font-size="10.00">parse_value</text>
</a>
</g>
</g>
<!-- Node2 -->
<g id="Node000002" class="node">
<title>Node2</title>
<g id="a_Node000002"><a xlink:href="cJSON_8h.html#abd55c37a5af547c3c1ada176e38afbc6" target="_top" xlink:title=" ">
<polygon fill="white" stroke="#666666" points="91.75,-93.25 0,-93.25 0,-74 91.75,-74 91.75,-93.25"/>
<text xml:space="preserve" text-anchor="middle" x="45.88" y="-79.75" font-family="Helvetica,sans-Serif" font-size="10.00">CJSON_PUBLIC</text>
</a>
</g>
</g>
<!-- Node1&#45;&gt;Node2 -->
<g id="edge1_Node000001_Node000002" class="edge">
<title>Node1&#45;&gt;Node2</title>
<g id="a_edge1_Node000001_Node000002"><a xlink:title=" ">
<path fill="none" stroke="#63b8ff" d="M119.22,-60.17C105.6,-64.59 90.72,-69.41 78.02,-73.53"/>
<polygon fill="#63b8ff" stroke="#63b8ff" points="119.94,-63.62 128.38,-57.2 117.78,-56.96 119.94,-63.62"/>
</a>
</g>
</g>
<!-- Node3 -->
<g id="Node000003" class="node">
<title>Node3</title>
<g id="a_Node000003"><a xlink:href="cJSON_8c.html#a367cc7ac5a592211d9f18dc02dd23069" target="_top" xlink:title=" ">
<polygon fill="white" stroke="#666666" points="79,-56.25 12.75,-56.25 12.75,-37 79,-37 79,-56.25"/>
<text xml:space="preserve" text-anchor="middle" x="45.88" y="-42.75" font-family="Helvetica,sans-Serif" font-size="10.00">parse_array</text>
</a>
</g>
</g>
<!-- Node1&#45;&gt;Node3 -->
<g id="edge2_Node000001_Node000003" class="edge">
<title>Node1&#45;&gt;Node3</title>
<g id="a_edge2_Node000001_Node000003"><a xlink:title=" ">
<path fill="none" stroke="#63b8ff" d="M116,-40.01C103.8,-39.73 90.84,-39.88 79.47,-40.46"/>
<polygon fill="#63b8ff" stroke="#63b8ff" points="115.75,-43.5 125.86,-40.36 115.99,-36.51 115.75,-43.5"/>
</a>
</g>
</g>
<!-- Node4 -->
<g id="Node000004" class="node">
<title>Node4</title>
<g id="a_Node000004"><a xlink:href="cJSON_8c.html#a1472ac5d1becd7d9a5e558b4c053b06a" target="_top" xlink:title=" ">
<polygon fill="white" stroke="#666666" points="81.62,-19.25 10.12,-19.25 10.12,0 81.62,0 81.62,-19.25"/>
<text xml:space="preserve" text-anchor="middle" x="45.88" y="-5.75" font-family="Helvetica,sans-Serif" font-size="10.00">parse_object</text>
</a>
</g>
</g>
<!-- Node1&#45;&gt;Node4 -->
<g id="edge4_Node000001_Node000004" class="edge">
<title>Node1&#45;&gt;Node4</title>
<g id="a_edge4_Node000001_Node000004"><a xlink:title=" ">
<path fill="none" stroke="#63b8ff" d="M134.59,-32.27C118.91,-26.1 98.83,-19.43 81.84,-14.68"/>
<polygon fill="#63b8ff" stroke="#63b8ff" points="133.16,-35.46 143.73,-36.06 135.84,-28.99 133.16,-35.46"/>
</a>
</g>
</g>
<!-- Node3&#45;&gt;Node1 -->
<g id="edge3_Node000003_Node000001" class="edge">
<title>Node3&#45;&gt;Node1</title>
<g id="a_edge3_Node000003_Node000001"><a xlink:title=" ">
<path fill="none" stroke="#63b8ff" d="M90.78,-53.21C102.93,-53.52 115.92,-53.39 127.38,-52.84"/>
<polygon fill="#63b8ff" stroke="#63b8ff" points="91.11,-49.72 80.99,-52.85 90.85,-56.72 91.11,-49.72"/>
</a>
</g>
</g>
<!-- Node4&#45;&gt;Node1 -->
<g id="edge5_Node000004_Node000001" class="edge">
<title>Node4&#45;&gt;Node1</title>
<g id="a_edge5_Node000004_Node000001"><a xlink:title=" ">
<path fill="none" stroke="#63b8ff" d="M73.16,-23.93C89.28,-30.28 110.07,-37.16 127.38,-41.94"/>
<polygon fill="#63b8ff" stroke="#63b8ff" points="74.82,-20.84 64.25,-20.24 72.14,-27.3 74.82,-20.84"/>
</a>
</g>
</g>
</g>
</svg>
