<?xml version="1.0" encoding="UTF-8" standalone="no"?>
<!DOCTYPE svg PUBLIC "-//W3C//DTD SVG 1.1//EN"
 "http://www.w3.org/Graphics/SVG/1.1/DTD/svg11.dtd">
<!-- Generated by graphviz version 14.0.5 (0)
 -->
<!-- Title: parse_array Pages: 1 -->
<svg width="701pt" height="159pt"
 viewBox="0.00 0.00 701.00 159.00" xmlns="http://www.w3.org/2000/svg" xmlns:xlink="http://www.w3.org/1999/xlink">
<g id="graph0" class="graph" transform="scale(1 1) rotate(0) translate(4 155.42)">
<title>parse_array</title>
<!-- Node1 -->
<g id="Node000001" class="node">
<title>Node1</title>
<g id="a_Node000001"><a xlink:title=" ">
<polygon fill="#999999" stroke="#666666" points="66.25,-75.25 0,-75.25 0,-56 66.25,-56 66.25,-75.25"/>
<text xml:space="preserve" text-anchor="middle" x="33.12" y="-61.75" font-family="Helvetica,sans-Serif" font-size="10.00">parse_array</text>
</a>
</g>
</g>
<!-- Node2 -->
<g id="Node000002" class="node">
<title>Node2</title>
<g id="a_Node000002"><a xlink:href="cJSON_8c.html#a0a9c3a7f6f01d4a8d9c552fa82274b4b" target="_top" xlink:title=" ">
<polygon fill="white" stroke="#666666" points="438.25,-19.25 320.25,-19.25 320.25,0 438.25,0 438.25,-19.25"/>
<text xml:space="preserve" text-anchor="middle" x="379.25" y="-5.75" font-family="Helvetica,sans-Serif" font-size="10.00">buffer_skip_whitespace</text>
</a>
</g>
</g>
<!-- Node1&#45;&gt;Node2 -->
<g id="edge1_Node000001_Node000002" class="edge">
<title>Node1&#45;&gt;Node2</title>
<g id="a_edge1_Node000001_Node000002"><a xlink:title=" ">
<path fill="none" stroke="#63b8ff" d="M66.47,-55.61C77.72,-52.4 90.46,-49.05 102.25,-46.62 171.92,-32.31 252.66,-22.23 308.74,-16.24"/>
<polygon fill="#63b8ff" stroke="#63b8ff" points="308.89,-19.75 318.47,-15.22 308.15,-12.79 308.89,-19.75"/>
</a>
</g>
</g>
<!-- Node3 -->
<g id="Node000003" class="node">
<title>Node3</title>
<g id="a_Node000003"><a xlink:href="cJSON_8c.html#aa05c1f56de8779ae1584c525cc81aeb5" target="_top" xlink:title=" ">
<polygon fill="white" stroke="#666666" points="428.5,-94.25 330,-94.25 330,-75 428.5,-75 428.5,-94.25"/>
<text xml:space="preserve" text-anchor="middle" x="379.25" y="-80.75" font-family="Helvetica,sans-Serif" font-size="10.00">cJSON_New_Item</text>
</a>
</g>
</g>
<!-- Node1&#45;&gt;Node3 -->
<g id="edge2_Node000001_Node000003" class="edge">
<title>Node1&#45;&gt;Node3</title>
<g id="a_edge2_Node000001_Node000003"><a xlink:title=" ">
<path fill="none" stroke="#63b8ff" d="M63.6,-75.73C75.46,-79.3 89.35,-82.86 102.25,-84.62 176.2,-94.74 262.34,-92.55 318.46,-89.28"/>
<polygon fill="#63b8ff" stroke="#63b8ff" points="318.34,-92.79 328.11,-88.68 317.91,-85.81 318.34,-92.79"/>
</a>
</g>
</g>
<!-- Node5 -->
<g id="Node000005" class="node">
<title>Node5</title>
<g id="a_Node000005"><a xlink:href="cJSON_8c.html#afd5c0b7089e4de2fc9b2af599d4b596f" target="_top" xlink:title=" ">
<polygon fill="white" stroke="#666666" points="170.75,-75.25 102.25,-75.25 102.25,-56 170.75,-56 170.75,-75.25"/>
<text xml:space="preserve" text-anchor="middle" x="136.5" y="-61.75" font-family="Helvetica,sans-Serif" font-size="10.00">parse_value</text>
</a>
</g>
</g>
<!-- Node1&#45;&gt;Node5 -->
<g id="edge5_Node000001_Node000005" class="edge">
<title>Node1&#45;&gt;Node5</title>
<g id="a_edge5_Node000001_Node000005"><a xlink:title=" ">
<path fill="none" stroke="#63b8ff" d="M66.48,-59.28C74.2,-58.92 82.57,-58.8 90.74,-58.92"/>
<polygon fill="#63b8ff" stroke="#63b8ff" points="90.45,-62.41 100.55,-59.19 90.65,-55.41 90.45,-62.41"/>
</a>
</g>
</g>
<!-- Node4 -->
<g id="Node000004" class="node">
<title>Node4</title>
<g id="a_Node000004"><a xlink:href="structinternal__hooks.html#a8b8f7ff45faa5da18dd3ccd2a2c8e416" target="_top" xlink:title=" ">
<polygon fill="white" stroke="#666666" points="591.5,-94.25 474.25,-94.25 474.25,-75 591.5,-75 591.5,-94.25"/>
<text xml:space="preserve" text-anchor="middle" x="532.88" y="-80.75" font-family="Helvetica,sans-Serif" font-size="10.00">internal_hooks::allocate</text>
</a>
</g>
</g>
<!-- Node3&#45;&gt;Node4 -->
<g id="edge3_Node000003_Node000004" class="edge">
<title>Node3&#45;&gt;Node4</title>
<g id="a_edge3_Node000003_Node000004"><a xlink:title=" ">
<path fill="none" stroke="#63b8ff" d="M428.64,-84.62C439.43,-84.62 451.08,-84.62 462.53,-84.62"/>
<polygon fill="#63b8ff" stroke="#63b8ff" points="462.36,-88.13 472.36,-84.63 462.36,-81.13 462.36,-88.13"/>
</a>
</g>
</g>
<!-- Node4&#45;&gt;Node4 -->
<g id="edge4_Node000004_Node000004" class="edge">
<title>Node4&#45;&gt;Node4</title>
<g id="a_edge4_Node000004_Node000004"><a xlink:title=" ">
<path fill="none" stroke="#63b8ff" d="M512.93,-94.54C503.84,-103.15 510.48,-112.25 532.88,-112.25 545.12,-112.25 552.66,-109.53 555.48,-105.65"/>
<polygon fill="#63b8ff" stroke="#63b8ff" points="558.91,-104.92 553.17,-96.01 552.1,-106.55 558.91,-104.92"/>
</a>
</g>
</g>
<!-- Node5&#45;&gt;Node1 -->
<g id="edge6_Node000005_Node000001" class="edge">
<title>Node5&#45;&gt;Node1</title>
<g id="a_edge6_Node000005_Node000001"><a xlink:title=" ">
<path fill="none" stroke="#63b8ff" d="M102.06,-72.02C94.28,-72.35 85.89,-72.45 77.74,-72.32"/>
<polygon fill="#63b8ff" stroke="#63b8ff" points="78.1,-68.83 67.99,-72.01 77.88,-75.82 78.1,-68.83"/>
</a>
</g>
</g>
<!-- Node6 -->
<g id="Node000006" class="node">
<title>Node6</title>
<g id="a_Node000006"><a xlink:href="cJSON_8c.html#a699e1cebda71c2846a9a10b29b4dc407" target="_top" xlink:title=" ">
<polygon fill="white" stroke="#666666" points="284.25,-151.25 206.75,-151.25 206.75,-132 284.25,-132 284.25,-151.25"/>
<text xml:space="preserve" text-anchor="middle" x="245.5" y="-137.75" font-family="Helvetica,sans-Serif" font-size="10.00">parse_number</text>
</a>
</g>
</g>
<!-- Node5&#45;&gt;Node6 -->
<g id="edge7_Node000005_Node000006" class="edge">
<title>Node5&#45;&gt;Node6</title>
<g id="a_edge7_Node000005_Node000006"><a xlink:title=" ">
<path fill="none" stroke="#63b8ff" d="M151.49,-75.56C169.19,-88.13 199.93,-109.97 221.2,-125.08"/>
<polygon fill="#63b8ff" stroke="#63b8ff" points="219.09,-127.87 229.27,-130.81 223.15,-122.17 219.09,-127.87"/>
</a>
</g>
</g>
<!-- Node8 -->
<g id="Node000008" class="node">
<title>Node8</title>
<g id="a_Node000008"><a xlink:href="cJSON_8c.html#a1472ac5d1becd7d9a5e558b4c053b06a" target="_top" xlink:title=" ">
<polygon fill="white" stroke="#666666" points="281.25,-75.25 209.75,-75.25 209.75,-56 281.25,-56 281.25,-75.25"/>
<text xml:space="preserve" text-anchor="middle" x="245.5" y="-61.75" font-family="Helvetica,sans-Serif" font-size="10.00">parse_object</text>
</a>
</g>
</g>
<!-- Node5&#45;&gt;Node8 -->
<g id="edge10_Node000005_Node000008" class="edge">
<title>Node5&#45;&gt;Node8</title>
<g id="a_edge10_Node000005_Node000008"><a xlink:title=" ">
<path fill="none" stroke="#63b8ff" d="M171.06,-59.31C179.68,-58.92 189.1,-58.79 198.24,-58.93"/>
<polygon fill="#63b8ff" stroke="#63b8ff" points="197.97,-62.42 208.07,-59.21 198.17,-55.43 197.97,-62.42"/>
</a>
</g>
</g>
<!-- Node9 -->
<g id="Node000009" class="node">
<title>Node9</title>
<g id="a_Node000009"><a xlink:href="cJSON_8c.html#adf47b520af96d1bbefa2390016fbdb51" target="_top" xlink:title=" ">
<polygon fill="white" stroke="#666666" points="413.88,-57.25 344.62,-57.25 344.62,-38 413.88,-38 413.88,-57.25"/>
<text xml:space="preserve" text-anchor="middle" x="379.25" y="-43.75" font-family="Helvetica,sans-Serif" font-size="10.00">parse_string</text>
</a>
</g>
</g>
<!-- Node5&#45;&gt;Node9 -->
<g id="edge18_Node000005_Node000009" class="edge">
<title>Node5&#45;&gt;Node9</title>
<g id="a_edge18_Node000005_Node000009"><a xlink:title=" ">
<path fill="none" stroke="#63b8ff" d="M167.47,-55.52C179.53,-51.95 193.65,-48.39 206.75,-46.62 249.3,-40.89 298.33,-41.94 333.04,-43.94"/>
<polygon fill="#63b8ff" stroke="#63b8ff" points="332.52,-47.41 342.72,-44.55 332.96,-40.43 332.52,-47.41"/>
</a>
</g>
</g>
<!-- Node6&#45;&gt;Node4 -->
<g id="edge8_Node000006_Node000004" class="edge">
<title>Node6&#45;&gt;Node4</title>
<g id="a_edge8_Node000006_Node000004"><a xlink:title=" ">
<path fill="none" stroke="#63b8ff" d="M284.43,-147.22C323.7,-151.69 386.46,-155.08 438.25,-140.62 465.65,-132.98 493.12,-115.03 511.15,-101.5"/>
<polygon fill="#63b8ff" stroke="#63b8ff" points="513.19,-104.35 518.94,-95.46 508.9,-98.82 513.19,-104.35"/>
</a>
</g>
</g>
<!-- Node7 -->
<g id="Node000007" class="node">
<title>Node7</title>
<g id="a_Node000007"><a xlink:href="cJSON_8c.html#ab25412ae56c8c594831918169bea100d" target="_top" xlink:title=" ">
<polygon fill="white" stroke="#666666" points="426.62,-131.25 331.88,-131.25 331.88,-112 426.62,-112 426.62,-131.25"/>
<text xml:space="preserve" text-anchor="middle" x="379.25" y="-117.75" font-family="Helvetica,sans-Serif" font-size="10.00">get_decimal_point</text>
</a>
</g>
</g>
<!-- Node6&#45;&gt;Node7 -->
<g id="edge9_Node000006_Node000007" class="edge">
<title>Node6&#45;&gt;Node7</title>
<g id="a_edge9_Node000006_Node000007"><a xlink:title=" ">
<path fill="none" stroke="#63b8ff" d="M284.61,-135.84C295.9,-134.13 308.52,-132.21 320.74,-130.35"/>
<polygon fill="#63b8ff" stroke="#63b8ff" points="320.96,-133.86 330.32,-128.9 319.91,-126.94 320.96,-133.86"/>
</a>
</g>
</g>
<!-- Node8&#45;&gt;Node2 -->
<g id="edge11_Node000008_Node000002" class="edge">
<title>Node8&#45;&gt;Node2</title>
<g id="a_edge11_Node000008_Node000002"><a xlink:title=" ">
<path fill="none" stroke="#63b8ff" d="M264.64,-55.58C279.35,-47.66 300.78,-36.65 320.25,-28.62 324.6,-26.83 329.19,-25.09 333.81,-23.43"/>
<polygon fill="#63b8ff" stroke="#63b8ff" points="334.77,-26.8 343.08,-20.23 332.49,-20.18 334.77,-26.8"/>
</a>
</g>
</g>
<!-- Node8&#45;&gt;Node3 -->
<g id="edge12_Node000008_Node000003" class="edge">
<title>Node8&#45;&gt;Node3</title>
<g id="a_edge12_Node000008_Node000003"><a xlink:title=" ">
<path fill="none" stroke="#63b8ff" d="M281.46,-70.67C292.9,-72.32 305.95,-74.2 318.68,-76.03"/>
<polygon fill="#63b8ff" stroke="#63b8ff" points="317.84,-79.45 328.24,-77.41 318.84,-72.52 317.84,-79.45"/>
</a>
</g>
</g>
<!-- Node8&#45;&gt;Node5 -->
<g id="edge17_Node000008_Node000005" class="edge">
<title>Node8&#45;&gt;Node5</title>
<g id="a_edge17_Node000008_Node000005"><a xlink:title=" ">
<path fill="none" stroke="#63b8ff" d="M209.58,-72C200.88,-72.36 191.43,-72.46 182.33,-72.3"/>
<polygon fill="#63b8ff" stroke="#63b8ff" points="182.68,-68.81 172.57,-71.99 182.46,-75.8 182.68,-68.81"/>
</a>
</g>
</g>
<!-- Node8&#45;&gt;Node9 -->
<g id="edge13_Node000008_Node000009" class="edge">
<title>Node8&#45;&gt;Node9</title>
<g id="a_edge13_Node000008_Node000009"><a xlink:title=" ">
<path fill="none" stroke="#63b8ff" d="M281.46,-60.85C297.32,-58.68 316.26,-56.09 333.17,-53.78"/>
<polygon fill="#63b8ff" stroke="#63b8ff" points="333.56,-57.26 342.99,-52.44 332.61,-50.33 333.56,-57.26"/>
</a>
</g>
</g>
<!-- Node9&#45;&gt;Node4 -->
<g id="edge14_Node000009_Node000004" class="edge">
<title>Node9&#45;&gt;Node4</title>
<g id="a_edge14_Node000009_Node000004"><a xlink:title=" ">
<path fill="none" stroke="#63b8ff" d="M414.28,-55.93C433.46,-60.61 457.83,-66.56 479.41,-71.82"/>
<polygon fill="#63b8ff" stroke="#63b8ff" points="478.38,-75.17 488.93,-74.14 480.04,-68.37 478.38,-75.17"/>
</a>
</g>
</g>
<!-- Node10 -->
<g id="Node000010" class="node">
<title>Node10</title>
<g id="a_Node000010"><a xlink:href="cJSON_8c.html#a0e2851b1b595b3b430fd186e7deaf987" target="_top" xlink:title=" ">
<polygon fill="white" stroke="#666666" points="583.62,-57.25 482.12,-57.25 482.12,-38 583.62,-38 583.62,-57.25"/>
<text xml:space="preserve" text-anchor="middle" x="532.88" y="-43.75" font-family="Helvetica,sans-Serif" font-size="10.00">utf16_literal_to_utf8</text>
</a>
</g>
</g>
<!-- Node9&#45;&gt;Node10 -->
<g id="edge15_Node000009_Node000010" class="edge">
<title>Node9&#45;&gt;Node10</title>
<g id="a_edge15_Node000009_Node000010"><a xlink:title=" ">
<path fill="none" stroke="#63b8ff" d="M414.28,-47.62C430.84,-47.62 451.27,-47.62 470.44,-47.62"/>
<polygon fill="#63b8ff" stroke="#63b8ff" points="470.33,-51.13 480.33,-47.63 470.33,-44.13 470.33,-51.13"/>
</a>
</g>
</g>
<!-- Node11 -->
<g id="Node000011" class="node">
<title>Node11</title>
<g id="a_Node000011"><a xlink:href="cJSON_8c.html#a1aa736fdc6ba20c7d46622d20766e916" target="_top" xlink:title=" ">
<polygon fill="white" stroke="#666666" points="693,-57.25 627.5,-57.25 627.5,-38 693,-38 693,-57.25"/>
<text xml:space="preserve" text-anchor="middle" x="660.25" y="-43.75" font-family="Helvetica,sans-Serif" font-size="10.00">parse_hex4</text>
</a>
</g>
</g>
<!-- Node10&#45;&gt;Node11 -->
<g id="edge16_Node000010_Node000011" class="edge">
<title>Node10&#45;&gt;Node11</title>
<g id="a_edge16_Node000010_Node000011"><a xlink:title=" ">
<path fill="none" stroke="#63b8ff" d="M583.79,-47.62C594.4,-47.62 605.53,-47.62 615.88,-47.62"/>
<polygon fill="#63b8ff" stroke="#63b8ff" points="615.65,-51.13 625.65,-47.63 615.65,-44.13 615.65,-51.13"/>
</a>
</g>
</g>
</g>
</svg>
