<?xml version="1.0" encoding="UTF-8" standalone="no"?>
<!DOCTYPE svg PUBLIC "-//W3C//DTD SVG 1.1//EN"
 "http://www.w3.org/Graphics/SVG/1.1/DTD/svg11.dtd">
<!-- Generated by graphviz version 14.0.5 (0)
 -->
<!-- Title: parse_string Pages: 1 -->
<svg width="417pt" height="83pt"
 viewBox="0.00 0.00 417.00 83.00" xmlns="http://www.w3.org/2000/svg" xmlns:xlink="http://www.w3.org/1999/xlink">
<g id="graph0" class="graph" transform="scale(1 1) rotate(0) translate(4 79.25)">
<title>parse_string</title>
<!-- Node1 -->
<g id="Node000001" class="node">
<title>Node1</title>
<g id="a_Node000001"><a xlink:title=" ">
<polygon fill="#999999" stroke="#666666" points="409,-19.25 339.75,-19.25 339.75,0 409,0 409,-19.25"/>
<text xml:space="preserve" text-anchor="middle" x="374.38" y="-5.75" font-family="Helvetica,sans-Serif" font-size="10.00">parse_string</text>
</a>
</g>
</g>
<!-- Node2 -->
<g id="Node000002" class="node">
<title>Node2</title>
<g id="a_Node000002"><a xlink:href="cJSON_8c.html#a1472ac5d1becd7d9a5e558b4c053b06a" target="_top" xlink:title=" ">
<polygon fill="white" stroke="#666666" points="303.75,-38.25 232.25,-38.25 232.25,-19 303.75,-19 303.75,-38.25"/>
<text xml:space="preserve" text-anchor="middle" x="268" y="-24.75" font-family="Helvetica,sans-Serif" font-size="10.00">parse_object</text>
</a>
</g>
</g>
<!-- Node1&#45;&gt;Node2 -->
<g id="edge1_Node000001_Node000002" class="edge">
<title>Node1&#45;&gt;Node2</title>
<g id="a_edge1_Node000001_Node000002"><a xlink:title=" ">
<path fill="none" stroke="#63b8ff" d="M328.3,-17.83C320.22,-19.3 311.9,-20.82 304.15,-22.23"/>
<polygon fill="#63b8ff" stroke="#63b8ff" points="328.79,-21.3 338,-16.06 327.53,-14.41 328.79,-21.3"/>
</a>
</g>
</g>
<!-- Node3 -->
<g id="Node000003" class="node">
<title>Node3</title>
<g id="a_Node000003"><a xlink:href="cJSON_8c.html#afd5c0b7089e4de2fc9b2af599d4b596f" target="_top" xlink:title=" ">
<polygon fill="white" stroke="#666666" points="196.25,-38.25 127.75,-38.25 127.75,-19 196.25,-19 196.25,-38.25"/>
<text xml:space="preserve" text-anchor="middle" x="162" y="-24.75" font-family="Helvetica,sans-Serif" font-size="10.00">parse_value</text>
</a>
</g>
</g>
<!-- Node1&#45;&gt;Node3 -->
<g id="edge7_Node000001_Node000003" class="edge">
<title>Node1&#45;&gt;Node3</title>
<g id="a_edge7_Node000001_Node000003"><a xlink:title=" ">
<path fill="none" stroke="#63b8ff" d="M327.92,-6.56C300.16,-5.44 264.01,-5.35 232.25,-9.62 219.15,-11.39 205.03,-14.95 192.97,-18.52"/>
<polygon fill="#63b8ff" stroke="#63b8ff" points="327.61,-10.04 337.76,-7.02 327.93,-3.05 327.61,-10.04"/>
</a>
</g>
</g>
<!-- Node2&#45;&gt;Node3 -->
<g id="edge2_Node000002_Node000003" class="edge">
<title>Node2&#45;&gt;Node3</title>
<g id="a_edge2_Node000002_Node000003"><a xlink:title=" ">
<path fill="none" stroke="#63b8ff" d="M220.52,-21.91C212.4,-21.81 204.09,-21.93 196.42,-22.27"/>
<polygon fill="#63b8ff" stroke="#63b8ff" points="220.19,-25.4 230.28,-22.16 220.37,-18.4 220.19,-25.4"/>
</a>
</g>
</g>
<!-- Node3&#45;&gt;Node2 -->
<g id="edge6_Node000003_Node000002" class="edge">
<title>Node3&#45;&gt;Node2</title>
<g id="a_edge6_Node000003_Node000002"><a xlink:title=" ">
<path fill="none" stroke="#63b8ff" d="M207.88,-35.32C215.88,-35.45 224.11,-35.36 231.79,-35.05"/>
<polygon fill="#63b8ff" stroke="#63b8ff" points="208.03,-31.82 197.93,-35.02 207.82,-38.82 208.03,-31.82"/>
</a>
</g>
</g>
<!-- Node4 -->
<g id="Node000004" class="node">
<title>Node4</title>
<g id="a_Node000004"><a xlink:href="cJSON_8h.html#abd55c37a5af547c3c1ada176e38afbc6" target="_top" xlink:title=" ">
<polygon fill="white" stroke="#666666" points="91.75,-75.25 0,-75.25 0,-56 91.75,-56 91.75,-75.25"/>
<text xml:space="preserve" text-anchor="middle" x="45.88" y="-61.75" font-family="Helvetica,sans-Serif" font-size="10.00">CJSON_PUBLIC</text>
</a>
</g>
</g>
<!-- Node3&#45;&gt;Node4 -->
<g id="edge3_Node000003_Node000004" class="edge">
<title>Node3&#45;&gt;Node4</title>
<g id="a_edge3_Node000003_Node000004"><a xlink:title=" ">
<path fill="none" stroke="#63b8ff" d="M119.22,-42.17C105.6,-46.59 90.72,-51.41 78.02,-55.53"/>
<polygon fill="#63b8ff" stroke="#63b8ff" points="119.94,-45.62 128.38,-39.2 117.78,-38.96 119.94,-45.62"/>
</a>
</g>
</g>
<!-- Node5 -->
<g id="Node000005" class="node">
<title>Node5</title>
<g id="a_Node000005"><a xlink:href="cJSON_8c.html#a367cc7ac5a592211d9f18dc02dd23069" target="_top" xlink:title=" ">
<polygon fill="white" stroke="#666666" points="79,-38.25 12.75,-38.25 12.75,-19 79,-19 79,-38.25"/>
<text xml:space="preserve" text-anchor="middle" x="45.88" y="-24.75" font-family="Helvetica,sans-Serif" font-size="10.00">parse_array</text>
</a>
</g>
</g>
<!-- Node3&#45;&gt;Node5 -->
<g id="edge4_Node000003_Node000005" class="edge">
<title>Node3&#45;&gt;Node5</title>
<g id="a_edge4_Node000003_Node000005"><a xlink:title=" ">
<path fill="none" stroke="#63b8ff" d="M116,-22.01C103.8,-21.73 90.84,-21.88 79.47,-22.46"/>
<polygon fill="#63b8ff" stroke="#63b8ff" points="115.75,-25.5 125.86,-22.36 115.99,-18.51 115.75,-25.5"/>
</a>
</g>
</g>
<!-- Node5&#45;&gt;Node3 -->
<g id="edge5_Node000005_Node000003" class="edge">
<title>Node5&#45;&gt;Node3</title>
<g id="a_edge5_Node000005_Node000003"><a xlink:title=" ">
<path fill="none" stroke="#63b8ff" d="M90.78,-35.21C102.93,-35.52 115.92,-35.39 127.38,-34.84"/>
<polygon fill="#63b8ff" stroke="#63b8ff" points="91.11,-31.72 80.99,-34.85 90.85,-38.72 91.11,-31.72"/>
</a>
</g>
</g>
</g>
</svg>
