<?xml version="1.0" encoding="UTF-8" standalone="no"?>
<!DOCTYPE svg PUBLIC "-//W3C//DTD SVG 1.1//EN"
 "http://www.w3.org/Graphics/SVG/1.1/DTD/svg11.dtd">
<!-- Generated by graphviz version 14.0.5 (0)
 -->
<!-- Title: buffer_skip_whitespace Pages: 1 -->
<svg width="461pt" height="80pt"
 viewBox="0.00 0.00 461.00 80.00" xmlns="http://www.w3.org/2000/svg" xmlns:xlink="http://www.w3.org/1999/xlink">
<g id="graph0" class="graph" transform="scale(1 1) rotate(0) translate(4 75.88)">
<title>buffer_skip_whitespace</title>
<!-- Node1 -->
<g id="Node000001" class="node">
<title>Node1</title>
<g id="a_Node000001"><a xlink:title=" ">
<polygon fill="#999999" stroke="#666666" points="452.5,-34.88 334.5,-34.88 334.5,-15.63 452.5,-15.63 452.5,-34.88"/>
<text xml:space="preserve" text-anchor="middle" x="393.5" y="-21.38" font-family="Helvetica,sans-Serif" font-size="10.00">buffer_skip_whitespace</text>
</a>
</g>
</g>
<!-- Node2 -->
<g id="Node000002" class="node">
<title>Node2</title>
<g id="a_Node000002"><a xlink:href="cJSON_8h.html#abd55c37a5af547c3c1ada176e38afbc6" target="_top" xlink:title=" ">
<polygon fill="white" stroke="#666666" points="91.75,-71.88 0,-71.88 0,-52.63 91.75,-52.63 91.75,-71.88"/>
<text xml:space="preserve" text-anchor="middle" x="45.88" y="-58.38" font-family="Helvetica,sans-Serif" font-size="10.00">CJSON_PUBLIC</text>
</a>
</g>
</g>
<!-- Node1&#45;&gt;Node2 -->
<g id="edge1_Node000001_Node000002" class="edge">
<title>Node1&#45;&gt;Node2</title>
<g id="a_edge1_Node000001_Node000002"><a xlink:title=" ">
<path fill="none" stroke="#63b8ff" d="M337.7,-37.56C324.89,-40.1 311.26,-42.52 298.5,-44.26 226.68,-54.04 142.56,-58.7 92.05,-60.77"/>
<polygon fill="#63b8ff" stroke="#63b8ff" points="338.12,-41.05 347.22,-35.62 336.72,-34.19 338.12,-41.05"/>
</a>
</g>
</g>
<!-- Node3 -->
<g id="Node000003" class="node">
<title>Node3</title>
<g id="a_Node000003"><a xlink:href="cJSON_8c.html#a367cc7ac5a592211d9f18dc02dd23069" target="_top" xlink:title=" ">
<polygon fill="white" stroke="#666666" points="298.5,-34.88 232.25,-34.88 232.25,-15.63 298.5,-15.63 298.5,-34.88"/>
<text xml:space="preserve" text-anchor="middle" x="265.38" y="-21.38" font-family="Helvetica,sans-Serif" font-size="10.00">parse_array</text>
</a>
</g>
</g>
<!-- Node1&#45;&gt;Node3 -->
<g id="edge2_Node000001_Node000003" class="edge">
<title>Node1&#45;&gt;Node3</title>
<g id="a_edge2_Node000001_Node000003"><a xlink:title=" ">
<path fill="none" stroke="#63b8ff" d="M322.85,-25.26C314.52,-25.26 306.35,-25.26 298.93,-25.26"/>
<polygon fill="#63b8ff" stroke="#63b8ff" points="322.72,-28.76 332.72,-25.26 322.72,-21.76 322.72,-28.76"/>
</a>
</g>
</g>
<!-- Node5 -->
<g id="Node000005" class="node">
<title>Node5</title>
<g id="a_Node000005"><a xlink:href="cJSON_8c.html#a1472ac5d1becd7d9a5e558b4c053b06a" target="_top" xlink:title=" ">
<polygon fill="white" stroke="#666666" points="81.62,-34.88 10.12,-34.88 10.12,-15.63 81.62,-15.63 81.62,-34.88"/>
<text xml:space="preserve" text-anchor="middle" x="45.88" y="-21.38" font-family="Helvetica,sans-Serif" font-size="10.00">parse_object</text>
</a>
</g>
</g>
<!-- Node1&#45;&gt;Node5 -->
<g id="edge8_Node000001_Node000005" class="edge">
<title>Node1&#45;&gt;Node5</title>
<g id="a_edge8_Node000001_Node000005"><a xlink:title=" ">
<path fill="none" stroke="#63b8ff" d="M340.48,-12.82C326.9,-10.1 312.22,-7.63 298.5,-6.26 222.99,1.3 203.13,2.48 127.75,-6.26 112.56,-8.02 96.09,-11.58 81.99,-15.14"/>
<polygon fill="#63b8ff" stroke="#63b8ff" points="339.6,-16.21 350.11,-14.83 341.04,-9.36 339.6,-16.21"/>
</a>
</g>
</g>
<!-- Node4 -->
<g id="Node000004" class="node">
<title>Node4</title>
<g id="a_Node000004"><a xlink:href="cJSON_8c.html#afd5c0b7089e4de2fc9b2af599d4b596f" target="_top" xlink:title=" ">
<polygon fill="white" stroke="#666666" points="196.25,-34.88 127.75,-34.88 127.75,-15.63 196.25,-15.63 196.25,-34.88"/>
<text xml:space="preserve" text-anchor="middle" x="162" y="-21.38" font-family="Helvetica,sans-Serif" font-size="10.00">parse_value</text>
</a>
</g>
</g>
<!-- Node3&#45;&gt;Node4 -->
<g id="edge3_Node000003_Node000004" class="edge">
<title>Node3&#45;&gt;Node4</title>
<g id="a_edge3_Node000003_Node000004"><a xlink:title=" ">
<path fill="none" stroke="#63b8ff" d="M220.76,-18.57C212.61,-18.43 204.22,-18.53 196.44,-18.87"/>
<polygon fill="#63b8ff" stroke="#63b8ff" points="220.4,-22.06 230.51,-18.87 220.62,-15.06 220.4,-22.06"/>
</a>
</g>
</g>
<!-- Node4&#45;&gt;Node2 -->
<g id="edge4_Node000004_Node000002" class="edge">
<title>Node4&#45;&gt;Node2</title>
<g id="a_edge4_Node000004_Node000002"><a xlink:title=" ">
<path fill="none" stroke="#63b8ff" d="M119.22,-38.8C105.6,-43.22 90.72,-48.04 78.02,-52.16"/>
<polygon fill="#63b8ff" stroke="#63b8ff" points="119.94,-42.25 128.38,-35.83 117.78,-35.59 119.94,-42.25"/>
</a>
</g>
</g>
<!-- Node4&#45;&gt;Node3 -->
<g id="edge5_Node000004_Node000003" class="edge">
<title>Node4&#45;&gt;Node3</title>
<g id="a_edge5_Node000004_Node000003"><a xlink:title=" ">
<path fill="none" stroke="#63b8ff" d="M207.76,-31.97C215.93,-32.08 224.3,-31.96 232.02,-31.6"/>
<polygon fill="#63b8ff" stroke="#63b8ff" points="208.05,-28.47 197.95,-31.69 207.85,-35.47 208.05,-28.47"/>
</a>
</g>
</g>
<!-- Node4&#45;&gt;Node5 -->
<g id="edge6_Node000004_Node000005" class="edge">
<title>Node4&#45;&gt;Node5</title>
<g id="a_edge6_Node000004_Node000005"><a xlink:title=" ">
<path fill="none" stroke="#63b8ff" d="M115.89,-18.64C104.57,-18.38 92.59,-18.5 81.84,-18.98"/>
<polygon fill="#63b8ff" stroke="#63b8ff" points="115.75,-22.14 125.86,-18.99 115.99,-15.14 115.75,-22.14"/>
</a>
</g>
</g>
<!-- Node5&#45;&gt;Node4 -->
<g id="edge7_Node000005_Node000004" class="edge">
<title>Node5&#45;&gt;Node4</title>
<g id="a_edge7_Node000005_Node000004"><a xlink:title=" ">
<path fill="none" stroke="#63b8ff" d="M93.05,-31.9C104.53,-32.13 116.63,-31.99 127.38,-31.47"/>
<polygon fill="#63b8ff" stroke="#63b8ff" points="93.46,-28.41 83.36,-31.58 93.24,-35.4 93.46,-28.41"/>
</a>
</g>
</g>
</g>
</svg>
