<?xml version="1.0" encoding="UTF-8" standalone="no"?>
<!DOCTYPE svg PUBLIC "-//W3C//DTD SVG 1.1//EN"
 "http://www.w3.org/Graphics/SVG/1.1/DTD/svg11.dtd">
<!-- Generated by graphviz version 14.0.5 (0)
 -->
<!-- Title: cJSON_New_Item Pages: 1 -->
<svg width="488pt" height="182pt"
 viewBox="0.00 0.00 488.00 182.00" xmlns="http://www.w3.org/2000/svg" xmlns:xlink="http://www.w3.org/1999/xlink">
<g id="graph0" class="graph" transform="scale(1 1) rotate(0) translate(4 177.54)">
<title>cJSON_New_Item</title>
<!-- Node1 -->
<g id="Node000001" class="node">
<title>Node1</title>
<g id="a_Node000001"><a xlink:title=" ">
<polygon fill="#999999" stroke="#666666" points="479.5,-79.54 381,-79.54 381,-60.29 479.5,-60.29 479.5,-79.54"/>
<text xml:space="preserve" text-anchor="middle" x="430.25" y="-66.04" font-family="Helvetica,sans-Serif" font-size="10.00">cJSON_New_Item</text>
</a>
</g>
</g>
<!-- Node2 -->
<g id="Node000002" class="node">
<title>Node2</title>
<g id="a_Node000002"><a xlink:href="cJSON_8c.html#a7916f8c63594d49f98777b2f2153e245" target="_top" xlink:title=" ">
<polygon fill="white" stroke="#666666" points="345,-155.54 232.25,-155.54 232.25,-136.29 345,-136.29 345,-155.54"/>
<text xml:space="preserve" text-anchor="middle" x="288.62" y="-142.04" font-family="Helvetica,sans-Serif" font-size="10.00">cJSON_Duplicate_rec</text>
</a>
</g>
</g>
<!-- Node1&#45;&gt;Node2 -->
<g id="edge1_Node000001_Node000002" class="edge">
<title>Node1&#45;&gt;Node2</title>
<g id="a_edge1_Node000001_Node000002"><a xlink:title=" ">
<path fill="none" stroke="#63b8ff" d="M404.96,-86.2C388.42,-96.97 365.82,-111.05 345,-121.92 335.43,-126.91 324.6,-131.77 315.07,-135.8"/>
<polygon fill="#63b8ff" stroke="#63b8ff" points="406.72,-89.24 413.15,-80.82 402.87,-83.39 406.72,-89.24"/>
</a>
</g>
</g>
<!-- Node3 -->
<g id="Node000003" class="node">
<title>Node3</title>
<g id="a_Node000003"><a xlink:href="cJSON_8h.html#abd55c37a5af547c3c1ada176e38afbc6" target="_top" xlink:title=" ">
<polygon fill="white" stroke="#666666" points="91.75,-98.54 0,-98.54 0,-79.29 91.75,-79.29 91.75,-98.54"/>
<text xml:space="preserve" text-anchor="middle" x="45.88" y="-85.04" font-family="Helvetica,sans-Serif" font-size="10.00">CJSON_PUBLIC</text>
</a>
</g>
</g>
<!-- Node1&#45;&gt;Node3 -->
<g id="edge3_Node000001_Node000003" class="edge">
<title>Node1&#45;&gt;Node3</title>
<g id="a_edge3_Node000001_Node000003"><a xlink:title=" ">
<path fill="none" stroke="#63b8ff" d="M381.59,-82.6C369.72,-85.22 356.97,-87.58 345,-88.92 255.75,-98.86 150.54,-95.32 92,-92.01"/>
<polygon fill="#63b8ff" stroke="#63b8ff" points="382.22,-86.04 391.17,-80.37 380.63,-79.22 382.22,-86.04"/>
</a>
</g>
</g>
<!-- Node4 -->
<g id="Node000004" class="node">
<title>Node4</title>
<g id="a_Node000004"><a xlink:href="cJSON_8c.html#a34155b75b0e70b292b338f6f41d090d6" target="_top" xlink:title=" ">
<polygon fill="white" stroke="#666666" points="333,-79.54 244.25,-79.54 244.25,-60.29 333,-60.29 333,-79.54"/>
<text xml:space="preserve" text-anchor="middle" x="288.62" y="-66.04" font-family="Helvetica,sans-Serif" font-size="10.00">create_reference</text>
</a>
</g>
</g>
<!-- Node1&#45;&gt;Node4 -->
<g id="edge4_Node000001_Node000004" class="edge">
<title>Node1&#45;&gt;Node4</title>
<g id="a_edge4_Node000001_Node000004"><a xlink:title=" ">
<path fill="none" stroke="#63b8ff" d="M369.37,-69.92C357.26,-69.92 344.74,-69.92 333.31,-69.92"/>
<polygon fill="#63b8ff" stroke="#63b8ff" points="369.29,-73.42 379.29,-69.92 369.29,-66.42 369.29,-73.42"/>
</a>
</g>
</g>
<!-- Node5 -->
<g id="Node000005" class="node">
<title>Node5</title>
<g id="a_Node000005"><a xlink:href="cJSON_8c.html#a367cc7ac5a592211d9f18dc02dd23069" target="_top" xlink:title=" ">
<polygon fill="white" stroke="#666666" points="321.75,-42.54 255.5,-42.54 255.5,-23.29 321.75,-23.29 321.75,-42.54"/>
<text xml:space="preserve" text-anchor="middle" x="288.62" y="-29.04" font-family="Helvetica,sans-Serif" font-size="10.00">parse_array</text>
</a>
</g>
</g>
<!-- Node1&#45;&gt;Node5 -->
<g id="edge5_Node000001_Node000005" class="edge">
<title>Node1&#45;&gt;Node5</title>
<g id="a_edge5_Node000001_Node000005"><a xlink:title=" ">
<path fill="none" stroke="#63b8ff" d="M380.08,-56.89C360.83,-51.79 339.29,-46.08 322.05,-41.51"/>
<polygon fill="#63b8ff" stroke="#63b8ff" points="379.07,-60.24 389.63,-59.42 380.86,-53.47 379.07,-60.24"/>
</a>
</g>
</g>
<!-- Node7 -->
<g id="Node000007" class="node">
<title>Node7</title>
<g id="a_Node000007"><a xlink:href="cJSON_8c.html#a1472ac5d1becd7d9a5e558b4c053b06a" target="_top" xlink:title=" ">
<polygon fill="white" stroke="#666666" points="81.62,-42.54 10.12,-42.54 10.12,-23.29 81.62,-23.29 81.62,-42.54"/>
<text xml:space="preserve" text-anchor="middle" x="45.88" y="-29.04" font-family="Helvetica,sans-Serif" font-size="10.00">parse_object</text>
</a>
</g>
</g>
<!-- Node1&#45;&gt;Node7 -->
<g id="edge11_Node000001_Node000007" class="edge">
<title>Node1&#45;&gt;Node7</title>
<g id="a_edge11_Node000001_Node000007"><a xlink:title=" ">
<path fill="none" stroke="#63b8ff" d="M410.46,-52.66C394.42,-39.16 370.02,-21.47 345,-13.92 253.15,13.82 138.36,-8.45 81.76,-22.94"/>
<polygon fill="#63b8ff" stroke="#63b8ff" points="407.91,-55.07 417.75,-59.01 412.51,-49.8 407.91,-55.07"/>
</a>
</g>
</g>
<!-- Node2&#45;&gt;Node2 -->
<g id="edge2_Node000002_Node000002" class="edge">
<title>Node2&#45;&gt;Node2</title>
<g id="a_edge2_Node000002_Node000002"><a xlink:title=" ">
<path fill="none" stroke="#63b8ff" d="M311.1,-166.94C308.29,-170.82 300.8,-173.54 288.62,-173.54 266.37,-173.54 259.76,-164.44 268.8,-155.83"/>
<polygon fill="#63b8ff" stroke="#63b8ff" points="314.53,-166.22 308.8,-157.3 307.72,-167.84 314.53,-166.22"/>
</a>
</g>
</g>
<!-- Node6 -->
<g id="Node000006" class="node">
<title>Node6</title>
<g id="a_Node000006"><a xlink:href="cJSON_8c.html#afd5c0b7089e4de2fc9b2af599d4b596f" target="_top" xlink:title=" ">
<polygon fill="white" stroke="#666666" points="196.25,-42.54 127.75,-42.54 127.75,-23.29 196.25,-23.29 196.25,-42.54"/>
<text xml:space="preserve" text-anchor="middle" x="162" y="-29.04" font-family="Helvetica,sans-Serif" font-size="10.00">parse_value</text>
</a>
</g>
</g>
<!-- Node5&#45;&gt;Node6 -->
<g id="edge6_Node000005_Node000006" class="edge">
<title>Node5&#45;&gt;Node6</title>
<g id="a_edge6_Node000005_Node000006"><a xlink:title=" ">
<path fill="none" stroke="#63b8ff" d="M243.75,-26.44C228.25,-25.97 211.07,-26.11 196.56,-26.85"/>
<polygon fill="#63b8ff" stroke="#63b8ff" points="243.56,-29.93 253.69,-26.85 243.85,-22.94 243.56,-29.93"/>
</a>
</g>
</g>
<!-- Node6&#45;&gt;Node3 -->
<g id="edge7_Node000006_Node000003" class="edge">
<title>Node6&#45;&gt;Node3</title>
<g id="a_edge7_Node000006_Node000003"><a xlink:title=" ">
<path fill="none" stroke="#63b8ff" d="M130.47,-47.9C110.54,-57.68 85.05,-70.19 67.49,-78.8"/>
<polygon fill="#63b8ff" stroke="#63b8ff" points="131.8,-51.14 139.24,-43.6 128.72,-44.86 131.8,-51.14"/>
</a>
</g>
</g>
<!-- Node6&#45;&gt;Node5 -->
<g id="edge8_Node000006_Node000005" class="edge">
<title>Node6&#45;&gt;Node5</title>
<g id="a_edge8_Node000006_Node000005"><a xlink:title=" ">
<path fill="none" stroke="#63b8ff" d="M207.65,-39.42C223.36,-39.87 240.7,-39.7 255.21,-38.92"/>
<polygon fill="#63b8ff" stroke="#63b8ff" points="208.2,-35.94 198.07,-39.04 207.93,-42.93 208.2,-35.94"/>
</a>
</g>
</g>
<!-- Node6&#45;&gt;Node7 -->
<g id="edge9_Node000006_Node000007" class="edge">
<title>Node6&#45;&gt;Node7</title>
<g id="a_edge9_Node000006_Node000007"><a xlink:title=" ">
<path fill="none" stroke="#63b8ff" d="M115.89,-26.3C104.57,-26.04 92.59,-26.16 81.84,-26.64"/>
<polygon fill="#63b8ff" stroke="#63b8ff" points="115.75,-29.8 125.86,-26.65 115.99,-22.8 115.75,-29.8"/>
</a>
</g>
</g>
<!-- Node7&#45;&gt;Node6 -->
<g id="edge10_Node000007_Node000006" class="edge">
<title>Node7&#45;&gt;Node6</title>
<g id="a_edge10_Node000007_Node000006"><a xlink:title=" ">
<path fill="none" stroke="#63b8ff" d="M93.05,-39.56C104.53,-39.79 116.63,-39.65 127.38,-39.13"/>
<polygon fill="#63b8ff" stroke="#63b8ff" points="93.46,-36.07 83.36,-39.24 93.24,-43.06 93.46,-36.07"/>
</a>
</g>
</g>
</g>
</svg>
