<?xml version="1.0" encoding="UTF-8" standalone="no"?>
<!DOCTYPE svg PUBLIC "-//W3C//DTD SVG 1.1//EN"
 "http://www.w3.org/Graphics/SVG/1.1/DTD/svg11.dtd">
<!-- Generated by graphviz version 14.0.5 (0)
 -->
<!-- Title: print_string Pages: 1 -->
<svg width="431pt" height="100pt"
 viewBox="0.00 0.00 431.00 100.00" xmlns="http://www.w3.org/2000/svg" xmlns:xlink="http://www.w3.org/1999/xlink">
<g id="graph0" class="graph" transform="scale(1 1) rotate(0) translate(4 96.25)">
<title>print_string</title>
<!-- Node1 -->
<g id="Node000001" class="node">
<title>Node1</title>
<g id="a_Node000001"><a xlink:title=" ">
<polygon fill="#999999" stroke="#666666" points="64,-46.25 0,-46.25 0,-27 64,-27 64,-46.25"/>
<text xml:space="preserve" text-anchor="middle" x="32" y="-32.75" font-family="Helvetica,sans-Serif" font-size="10.00">print_string</text>
</a>
</g>
</g>
<!-- Node2 -->
<g id="Node000002" class="node">
<title>Node2</title>
<g id="a_Node000002"><a xlink:href="cJSON_8c.html#af5b4e769356f10d99a7f66697c42c1bb" target="_top" xlink:title=" ">
<polygon fill="white" stroke="#666666" points="180.5,-46.25 100,-46.25 100,-27 180.5,-27 180.5,-46.25"/>
<text xml:space="preserve" text-anchor="middle" x="140.25" y="-32.75" font-family="Helvetica,sans-Serif" font-size="10.00">print_string_ptr</text>
</a>
</g>
</g>
<!-- Node1&#45;&gt;Node2 -->
<g id="edge1_Node000001_Node000002" class="edge">
<title>Node1&#45;&gt;Node2</title>
<g id="a_edge1_Node000001_Node000002"><a xlink:title=" ">
<path fill="none" stroke="#63b8ff" d="M64.3,-36.62C71.88,-36.62 80.16,-36.62 88.38,-36.62"/>
<polygon fill="#63b8ff" stroke="#63b8ff" points="88.35,-40.13 98.35,-36.63 88.35,-33.13 88.35,-40.13"/>
</a>
</g>
</g>
<!-- Node3 -->
<g id="Node000003" class="node">
<title>Node3</title>
<g id="a_Node000003"><a xlink:href="cJSON_8c.html#ad9f9a9b2ad3154fc8033756f23c023a6" target="_top" xlink:title=" ">
<polygon fill="white" stroke="#666666" points="261.75,-46.25 216.5,-46.25 216.5,-27 261.75,-27 261.75,-46.25"/>
<text xml:space="preserve" text-anchor="middle" x="239.12" y="-32.75" font-family="Helvetica,sans-Serif" font-size="10.00">ensure</text>
</a>
</g>
</g>
<!-- Node2&#45;&gt;Node3 -->
<g id="edge2_Node000002_Node000003" class="edge">
<title>Node2&#45;&gt;Node3</title>
<g id="a_edge2_Node000002_Node000003"><a xlink:title=" ">
<path fill="none" stroke="#63b8ff" d="M180.93,-36.62C188.82,-36.62 197.03,-36.62 204.68,-36.62"/>
<polygon fill="#63b8ff" stroke="#63b8ff" points="204.61,-40.13 214.61,-36.63 204.61,-33.13 204.61,-40.13"/>
</a>
</g>
</g>
<!-- Node4 -->
<g id="Node000004" class="node">
<title>Node4</title>
<g id="a_Node000004"><a xlink:href="structinternal__hooks.html#a8b8f7ff45faa5da18dd3ccd2a2c8e416" target="_top" xlink:title=" ">
<polygon fill="white" stroke="#666666" points="419.12,-74.25 301.88,-74.25 301.88,-55 419.12,-55 419.12,-74.25"/>
<text xml:space="preserve" text-anchor="middle" x="360.5" y="-60.75" font-family="Helvetica,sans-Serif" font-size="10.00">internal_hooks::allocate</text>
</a>
</g>
</g>
<!-- Node3&#45;&gt;Node4 -->
<g id="edge3_Node000003_Node000004" class="edge">
<title>Node3&#45;&gt;Node4</title>
<g id="a_edge3_Node000003_Node000004"><a xlink:title=" ">
<path fill="none" stroke="#63b8ff" d="M262.02,-41.76C274.26,-44.63 290.1,-48.35 305.45,-51.95"/>
<polygon fill="#63b8ff" stroke="#63b8ff" points="304.46,-55.31 315,-54.19 306.06,-48.5 304.46,-55.31"/>
</a>
</g>
</g>
<!-- Node5 -->
<g id="Node000005" class="node">
<title>Node5</title>
<g id="a_Node000005"><a xlink:href="structinternal__hooks.html#a7c3921493fab83f33cd509145d8a5393" target="_top" xlink:title=" ">
<polygon fill="white" stroke="#666666" points="423.25,-19.25 297.75,-19.25 297.75,0 423.25,0 423.25,-19.25"/>
<text xml:space="preserve" text-anchor="middle" x="360.5" y="-5.75" font-family="Helvetica,sans-Serif" font-size="10.00">internal_hooks::reallocate</text>
</a>
</g>
</g>
<!-- Node3&#45;&gt;Node5 -->
<g id="edge5_Node000003_Node000005" class="edge">
<title>Node3&#45;&gt;Node5</title>
<g id="a_edge5_Node000003_Node000005"><a xlink:title=" ">
<path fill="none" stroke="#63b8ff" d="M262.02,-31.67C273.82,-29 288.97,-25.58 303.79,-22.23"/>
<polygon fill="#63b8ff" stroke="#63b8ff" points="304.54,-25.64 313.52,-20.02 302.99,-18.82 304.54,-25.64"/>
</a>
</g>
</g>
<!-- Node4&#45;&gt;Node4 -->
<g id="edge4_Node000004_Node000004" class="edge">
<title>Node4&#45;&gt;Node4</title>
<g id="a_edge4_Node000004_Node000004"><a xlink:title=" ">
<path fill="none" stroke="#63b8ff" d="M341.5,-74.54C332.83,-83.15 339.16,-92.25 360.5,-92.25 372.17,-92.25 379.35,-89.53 382.04,-85.65"/>
<polygon fill="#63b8ff" stroke="#63b8ff" points="385.48,-84.98 379.84,-76.01 378.66,-86.54 385.48,-84.98"/>
</a>
</g>
</g>
<!-- Node5&#45;&gt;Node5 -->
<g id="edge6_Node000005_Node000005" class="edge">
<title>Node5&#45;&gt;Node5</title>
<g id="a_edge6_Node000005_Node000005"><a xlink:title=" ">
<path fill="none" stroke="#63b8ff" d="M341.5,-19.54C332.83,-28.15 339.16,-37.25 360.5,-37.25 372.17,-37.25 379.35,-34.53 382.04,-30.65"/>
<polygon fill="#63b8ff" stroke="#63b8ff" points="385.48,-29.98 379.84,-21.01 378.66,-31.54 385.48,-29.98"/>
</a>
</g>
</g>
</g>
</svg>
