<?xml version="1.0" encoding="UTF-8" standalone="no"?>
<!DOCTYPE svg PUBLIC "-//W3C//DTD SVG 1.1//EN"
 "http://www.w3.org/Graphics/SVG/1.1/DTD/svg11.dtd">
<!-- Generated by graphviz version 14.0.5 (0)
 -->
<!-- Title: cJSON_strdup Pages: 1 -->
<svg width="240pt" height="156pt"
 viewBox="0.00 0.00 240.00 156.00" xmlns="http://www.w3.org/2000/svg" xmlns:xlink="http://www.w3.org/1999/xlink">
<g id="graph0" class="graph" transform="scale(1 1) rotate(0) translate(4 152.25)">
<title>cJSON_strdup</title>
<!-- Node1 -->
<g id="Node000001" class="node">
<title>Node1</title>
<g id="a_Node000001"><a xlink:title=" ">
<polygon fill="#999999" stroke="#666666" points="232.25,-74.25 151.75,-74.25 151.75,-55 232.25,-55 232.25,-74.25"/>
<text xml:space="preserve" text-anchor="middle" x="192" y="-60.75" font-family="Helvetica,sans-Serif" font-size="10.00">cJSON_strdup</text>
</a>
</g>
</g>
<!-- Node2 -->
<g id="Node000002" class="node">
<title>Node2</title>
<g id="a_Node000002"><a xlink:href="cJSON_8c.html#acc48bef0e1b495898d9489e577b91d5c" target="_top" xlink:title=" ">
<polygon fill="white" stroke="#666666" points="108.25,-148.25 7.5,-148.25 7.5,-129 108.25,-129 108.25,-148.25"/>
<text xml:space="preserve" text-anchor="middle" x="57.88" y="-134.75" font-family="Helvetica,sans-Serif" font-size="10.00">add_item_to_object</text>
</a>
</g>
</g>
<!-- Node1&#45;&gt;Node2 -->
<g id="edge1_Node000001_Node000002" class="edge">
<title>Node1&#45;&gt;Node2</title>
<g id="a_edge1_Node000001_Node000002"><a xlink:title=" ">
<path fill="none" stroke="#63b8ff" d="M171.49,-82.02C156.97,-94.22 136.2,-110.15 115.75,-120.62 109.85,-123.65 103.35,-126.28 96.91,-128.53"/>
<polygon fill="#63b8ff" stroke="#63b8ff" points="173.62,-84.8 178.92,-75.62 169.06,-79.49 173.62,-84.8"/>
</a>
</g>
</g>
<!-- Node3 -->
<g id="Node000003" class="node">
<title>Node3</title>
<g id="a_Node000003"><a xlink:href="cJSON_8c.html#a7916f8c63594d49f98777b2f2153e245" target="_top" xlink:title=" ">
<polygon fill="white" stroke="#666666" points="114.25,-93.25 1.5,-93.25 1.5,-74 114.25,-74 114.25,-93.25"/>
<text xml:space="preserve" text-anchor="middle" x="57.88" y="-79.75" font-family="Helvetica,sans-Serif" font-size="10.00">cJSON_Duplicate_rec</text>
</a>
</g>
</g>
<!-- Node1&#45;&gt;Node3 -->
<g id="edge2_Node000001_Node000003" class="edge">
<title>Node1&#45;&gt;Node3</title>
<g id="a_edge2_Node000001_Node000003"><a xlink:title=" ">
<path fill="none" stroke="#63b8ff" d="M140.2,-71.93C131.82,-73.13 123.1,-74.39 114.61,-75.61"/>
<polygon fill="#63b8ff" stroke="#63b8ff" points="140.46,-75.43 149.86,-70.54 139.46,-68.5 140.46,-75.43"/>
</a>
</g>
</g>
<!-- Node4 -->
<g id="Node000004" class="node">
<title>Node4</title>
<g id="a_Node000004"><a xlink:href="cJSON_8h.html#acc0bf2ad0de27db33e6471754c8f3ace" target="_top" xlink:title=" ">
<polygon fill="white" stroke="#666666" points="103.75,-56.25 12,-56.25 12,-37 103.75,-37 103.75,-56.25"/>
<text xml:space="preserve" text-anchor="middle" x="57.88" y="-42.75" font-family="Helvetica,sans-Serif" font-size="10.00">CJSON_PUBLIC</text>
</a>
</g>
</g>
<!-- Node1&#45;&gt;Node4 -->
<g id="edge4_Node000001_Node000004" class="edge">
<title>Node1&#45;&gt;Node4</title>
<g id="a_edge4_Node000001_Node000004"><a xlink:title=" ">
<path fill="none" stroke="#63b8ff" d="M140.21,-57.71C128.3,-56.08 115.69,-54.37 104.05,-52.78"/>
<polygon fill="#63b8ff" stroke="#63b8ff" points="139.48,-61.14 149.86,-59.02 140.42,-54.2 139.48,-61.14"/>
</a>
</g>
</g>
<!-- Node5 -->
<g id="Node000005" class="node">
<title>Node5</title>
<g id="a_Node000005"><a xlink:href="cJSON_8c.html#afdae75197cf2c440ef858a2e93b104f2" target="_top" xlink:title=" ">
<polygon fill="white" stroke="#666666" points="115.75,-19.25 0,-19.25 0,0 115.75,0 115.75,-19.25"/>
<text xml:space="preserve" text-anchor="middle" x="57.88" y="-5.75" font-family="Helvetica,sans-Serif" font-size="10.00">replace_item_in_object</text>
</a>
</g>
</g>
<!-- Node1&#45;&gt;Node5 -->
<g id="edge5_Node000001_Node000005" class="edge">
<title>Node1&#45;&gt;Node5</title>
<g id="a_edge5_Node000001_Node000005"><a xlink:title=" ">
<path fill="none" stroke="#63b8ff" d="M162.57,-49.38C148.67,-42.26 131.58,-33.98 115.75,-27.62 108.64,-24.77 100.88,-22.06 93.46,-19.65"/>
<polygon fill="#63b8ff" stroke="#63b8ff" points="160.66,-52.34 171.15,-53.85 163.9,-46.13 160.66,-52.34"/>
</a>
</g>
</g>
<!-- Node3&#45;&gt;Node3 -->
<g id="edge3_Node000003_Node000003" class="edge">
<title>Node3&#45;&gt;Node3</title>
<g id="a_edge3_Node000003_Node000003"><a xlink:title=" ">
<path fill="none" stroke="#63b8ff" d="M81.68,-104.65C78.7,-108.53 70.77,-111.25 57.88,-111.25 34.3,-111.25 27.3,-102.15 36.88,-93.54"/>
<polygon fill="#63b8ff" stroke="#63b8ff" points="85.09,-103.84 79.24,-95.01 78.3,-105.56 85.09,-103.84"/>
</a>
</g>
</g>
</g>
</svg>
