<?xml version="1.0" encoding="UTF-8" standalone="no"?>
<!DOCTYPE svg PUBLIC "-//W3C//DTD SVG 1.1//EN"
 "http://www.w3.org/Graphics/SVG/1.1/DTD/svg11.dtd">
<!-- Generated by graphviz version 14.0.5 (0)
 -->
<!-- Title: print_string_ptr Pages: 1 -->
<svg width="418pt" height="120pt"
 viewBox="0.00 0.00 418.00 120.00" xmlns="http://www.w3.org/2000/svg" xmlns:xlink="http://www.w3.org/1999/xlink">
<g id="graph0" class="graph" transform="scale(1 1) rotate(0) translate(4 116.25)">
<title>print_string_ptr</title>
<!-- Node1 -->
<g id="Node000001" class="node">
<title>Node1</title>
<g id="a_Node000001"><a xlink:title=" ">
<polygon fill="#999999" stroke="#666666" points="409.75,-37.25 329.25,-37.25 329.25,-18 409.75,-18 409.75,-37.25"/>
<text xml:space="preserve" text-anchor="middle" x="369.5" y="-23.75" font-family="Helvetica,sans-Serif" font-size="10.00">print_string_ptr</text>
</a>
</g>
</g>
<!-- Node2 -->
<g id="Node000002" class="node">
<title>Node2</title>
<g id="a_Node000002"><a xlink:href="cJSON_8c.html#a3d742f5c68799bca291432a9cd72f8dd" target="_top" xlink:title=" ">
<polygon fill="white" stroke="#666666" points="293.25,-56.25 227,-56.25 227,-37 293.25,-37 293.25,-56.25"/>
<text xml:space="preserve" text-anchor="middle" x="260.12" y="-42.75" font-family="Helvetica,sans-Serif" font-size="10.00">print_object</text>
</a>
</g>
</g>
<!-- Node1&#45;&gt;Node2 -->
<g id="edge1_Node000001_Node000002" class="edge">
<title>Node1&#45;&gt;Node2</title>
<g id="a_edge1_Node000001_Node000002"><a xlink:title=" ">
<path fill="none" stroke="#63b8ff" d="M317.76,-36.6C309.54,-38.06 301.24,-39.53 293.62,-40.88"/>
<polygon fill="#63b8ff" stroke="#63b8ff" points="318.1,-40.1 327.33,-34.91 316.88,-33.21 318.1,-40.1"/>
</a>
</g>
</g>
<!-- Node7 -->
<g id="Node000007" class="node">
<title>Node7</title>
<g id="a_Node000007"><a xlink:href="cJSON_8c.html#ad087dd738e49b4258f0a3d378a121df6" target="_top" xlink:title=" ">
<polygon fill="white" stroke="#666666" points="292.12,-19.25 228.12,-19.25 228.12,0 292.12,0 292.12,-19.25"/>
<text xml:space="preserve" text-anchor="middle" x="260.12" y="-5.75" font-family="Helvetica,sans-Serif" font-size="10.00">print_string</text>
</a>
</g>
</g>
<!-- Node1&#45;&gt;Node7 -->
<g id="edge8_Node000001_Node000007" class="edge">
<title>Node1&#45;&gt;Node7</title>
<g id="a_edge8_Node000001_Node000007"><a xlink:title=" ">
<path fill="none" stroke="#63b8ff" d="M317.7,-19.11C309.14,-17.67 300.48,-16.22 292.59,-14.9"/>
<polygon fill="#63b8ff" stroke="#63b8ff" points="316.89,-22.52 327.33,-20.72 318.05,-15.62 316.89,-22.52"/>
</a>
</g>
</g>
<!-- Node3 -->
<g id="Node000003" class="node">
<title>Node3</title>
<g id="a_Node000003"><a xlink:href="cJSON_8c.html#a5ba141f183b9abb4b49e38a211299c7e" target="_top" xlink:title=" ">
<polygon fill="white" stroke="#666666" points="191,-56.25 127.75,-56.25 127.75,-37 191,-37 191,-56.25"/>
<text xml:space="preserve" text-anchor="middle" x="159.38" y="-42.75" font-family="Helvetica,sans-Serif" font-size="10.00">print_value</text>
</a>
</g>
</g>
<!-- Node2&#45;&gt;Node3 -->
<g id="edge2_Node000002_Node000003" class="edge">
<title>Node2&#45;&gt;Node3</title>
<g id="a_edge2_Node000002_Node000003"><a xlink:title=" ">
<path fill="none" stroke="#63b8ff" d="M215.01,-39.91C207,-39.8 198.8,-39.94 191.27,-40.31"/>
<polygon fill="#63b8ff" stroke="#63b8ff" points="214.91,-43.41 225,-40.19 215.11,-36.41 214.91,-43.41"/>
</a>
</g>
</g>
<!-- Node3&#45;&gt;Node2 -->
<g id="edge7_Node000003_Node000002" class="edge">
<title>Node3&#45;&gt;Node2</title>
<g id="a_edge7_Node000003_Node000002"><a xlink:title=" ">
<path fill="none" stroke="#63b8ff" d="M202.68,-53.31C210.66,-53.45 218.89,-53.35 226.52,-53.02"/>
<polygon fill="#63b8ff" stroke="#63b8ff" points="202.9,-49.82 192.79,-52.99 202.67,-56.81 202.9,-49.82"/>
</a>
</g>
</g>
<!-- Node4 -->
<g id="Node000004" class="node">
<title>Node4</title>
<g id="a_Node000004"><a xlink:href="cJSON_8c.html#aed7e219a2b9187880c97c6f0ea5fa1b4" target="_top" xlink:title=" ">
<polygon fill="white" stroke="#666666" points="91.75,-112.25 0,-112.25 0,-93 91.75,-93 91.75,-112.25"/>
<text xml:space="preserve" text-anchor="middle" x="45.88" y="-98.75" font-family="Helvetica,sans-Serif" font-size="10.00">CJSON_PUBLIC</text>
</a>
</g>
</g>
<!-- Node3&#45;&gt;Node4 -->
<g id="edge3_Node000003_Node000004" class="edge">
<title>Node3&#45;&gt;Node4</title>
<g id="a_edge3_Node000003_Node000004"><a xlink:title=" ">
<path fill="none" stroke="#63b8ff" d="M132.75,-62.33C120.55,-69.53 105.61,-77.93 91.75,-84.62 86.01,-87.4 79.72,-90.11 73.71,-92.56"/>
<polygon fill="#63b8ff" stroke="#63b8ff" points="134.2,-65.55 140.98,-57.41 130.6,-59.54 134.2,-65.55"/>
</a>
</g>
</g>
<!-- Node5 -->
<g id="Node000005" class="node">
<title>Node5</title>
<g id="a_Node000005"><a xlink:href="cJSON_8c.html#a36b0c212c0d382a4714afa8b70c1a2ee" target="_top" xlink:title=" ">
<polygon fill="white" stroke="#666666" points="63.25,-75.25 28.5,-75.25 28.5,-56 63.25,-56 63.25,-75.25"/>
<text xml:space="preserve" text-anchor="middle" x="45.88" y="-61.75" font-family="Helvetica,sans-Serif" font-size="10.00">print</text>
</a>
</g>
</g>
<!-- Node3&#45;&gt;Node5 -->
<g id="edge4_Node000003_Node000005" class="edge">
<title>Node3&#45;&gt;Node5</title>
<g id="a_edge4_Node000003_Node000005"><a xlink:title=" ">
<path fill="none" stroke="#63b8ff" d="M116,-53.85C97.75,-56.96 77.48,-60.41 63.63,-62.77"/>
<polygon fill="#63b8ff" stroke="#63b8ff" points="116.55,-57.3 125.82,-52.17 115.38,-50.4 116.55,-57.3"/>
</a>
</g>
</g>
<!-- Node6 -->
<g id="Node000006" class="node">
<title>Node6</title>
<g id="a_Node000006"><a xlink:href="cJSON_8c.html#ae84642817f3965a85c7c617663250c16" target="_top" xlink:title=" ">
<polygon fill="white" stroke="#666666" points="76.38,-38.25 15.37,-38.25 15.37,-19 76.38,-19 76.38,-38.25"/>
<text xml:space="preserve" text-anchor="middle" x="45.88" y="-24.75" font-family="Helvetica,sans-Serif" font-size="10.00">print_array</text>
</a>
</g>
</g>
<!-- Node3&#45;&gt;Node6 -->
<g id="edge5_Node000003_Node000006" class="edge">
<title>Node3&#45;&gt;Node6</title>
<g id="a_edge5_Node000003_Node000006"><a xlink:title=" ">
<path fill="none" stroke="#63b8ff" d="M120.87,-34.15C106.47,-31.28 90.23,-28.79 76.65,-27.38"/>
<polygon fill="#63b8ff" stroke="#63b8ff" points="119.96,-37.54 130.47,-36.2 121.42,-30.69 119.96,-37.54"/>
</a>
</g>
</g>
<!-- Node6&#45;&gt;Node3 -->
<g id="edge6_Node000006_Node000003" class="edge">
<title>Node6&#45;&gt;Node3</title>
<g id="a_edge6_Node000006_Node000003"><a xlink:title=" ">
<path fill="none" stroke="#63b8ff" d="M84.45,-41.11C98.39,-43.88 114.03,-46.31 127.32,-47.73"/>
<polygon fill="#63b8ff" stroke="#63b8ff" points="85.23,-37.7 74.72,-39.03 83.77,-44.54 85.23,-37.7"/>
</a>
</g>
</g>
<!-- Node7&#45;&gt;Node3 -->
<g id="edge9_Node000007_Node000003" class="edge">
<title>Node7&#45;&gt;Node3</title>
<g id="a_edge9_Node000007_Node000003"><a xlink:title=" ">
<path fill="none" stroke="#63b8ff" d="M221.57,-23.7C210.17,-27.97 197.88,-32.57 187.33,-36.53"/>
<polygon fill="#63b8ff" stroke="#63b8ff" points="222.59,-27.05 230.72,-20.27 220.13,-20.5 222.59,-27.05"/>
</a>
</g>
</g>
</g>
</svg>
