<?xml version="1.0" encoding="UTF-8" standalone="no"?>
<!DOCTYPE svg PUBLIC "-//W3C//DTD SVG 1.1//EN"
 "http://www.w3.org/Graphics/SVG/1.1/DTD/svg11.dtd">
<!-- Generated by graphviz version 14.0.5 (0)
 -->
<!-- Title: parse_value Pages: 1 -->
<svg width="599pt" height="159pt"
 viewBox="0.00 0.00 599.00 159.00" xmlns="http://www.w3.org/2000/svg" xmlns:xlink="http://www.w3.org/1999/xlink">
<g id="graph0" class="graph" transform="scale(1 1) rotate(0) translate(4 155.03)">
<title>parse_value</title>
<!-- Node1 -->
<g id="Node000001" class="node">
<title>Node1</title>
<g id="a_Node000001"><a xlink:title=" ">
<polygon fill="#999999" stroke="#666666" points="68.5,-74.25 0,-74.25 0,-55 68.5,-55 68.5,-74.25"/>
<text xml:space="preserve" text-anchor="middle" x="34.25" y="-60.75" font-family="Helvetica,sans-Serif" font-size="10.00">parse_value</text>
</a>
</g>
</g>
<!-- Node2 -->
<g id="Node000002" class="node">
<title>Node2</title>
<g id="a_Node000002"><a xlink:href="cJSON_8c.html#a367cc7ac5a592211d9f18dc02dd23069" target="_top" xlink:title=" ">
<polygon fill="white" stroke="#666666" points="176.38,-93.25 110.12,-93.25 110.12,-74 176.38,-74 176.38,-93.25"/>
<text xml:space="preserve" text-anchor="middle" x="143.25" y="-79.75" font-family="Helvetica,sans-Serif" font-size="10.00">parse_array</text>
</a>
</g>
</g>
<!-- Node1&#45;&gt;Node2 -->
<g id="edge1_Node000001_Node000002" class="edge">
<title>Node1&#45;&gt;Node2</title>
<g id="a_edge1_Node000001_Node000002"><a xlink:title=" ">
<path fill="none" stroke="#63b8ff" d="M68.81,-64.27C80.89,-65.86 94.54,-68.26 106.78,-70.93"/>
<polygon fill="#63b8ff" stroke="#63b8ff" points="105.96,-74.33 116.5,-73.21 107.56,-67.52 105.96,-74.33"/>
</a>
</g>
</g>
<!-- Node6 -->
<g id="Node000006" class="node">
<title>Node6</title>
<g id="a_Node000006"><a xlink:href="cJSON_8c.html#a699e1cebda71c2846a9a10b29b4dc407" target="_top" xlink:title=" ">
<polygon fill="white" stroke="#666666" points="182,-130.25 104.5,-130.25 104.5,-111 182,-111 182,-130.25"/>
<text xml:space="preserve" text-anchor="middle" x="143.25" y="-116.75" font-family="Helvetica,sans-Serif" font-size="10.00">parse_number</text>
</a>
</g>
</g>
<!-- Node1&#45;&gt;Node6 -->
<g id="edge7_Node000001_Node000006" class="edge">
<title>Node1&#45;&gt;Node6</title>
<g id="a_edge7_Node000001_Node000006"><a xlink:title=" ">
<path fill="none" stroke="#63b8ff" d="M53.04,-74.75C66.94,-82.57 86.8,-93.56 104.5,-102.62 106.44,-103.62 108.44,-104.63 110.47,-105.63"/>
<polygon fill="#63b8ff" stroke="#63b8ff" points="108.7,-108.66 119.23,-109.89 111.76,-102.37 108.7,-108.66"/>
</a>
</g>
</g>
<!-- Node8 -->
<g id="Node000008" class="node">
<title>Node8</title>
<g id="a_Node000008"><a xlink:href="cJSON_8c.html#a1472ac5d1becd7d9a5e558b4c053b06a" target="_top" xlink:title=" ">
<polygon fill="white" stroke="#666666" points="179,-56.25 107.5,-56.25 107.5,-37 179,-37 179,-56.25"/>
<text xml:space="preserve" text-anchor="middle" x="143.25" y="-42.75" font-family="Helvetica,sans-Serif" font-size="10.00">parse_object</text>
</a>
</g>
</g>
<!-- Node1&#45;&gt;Node8 -->
<g id="edge10_Node000001_Node000008" class="edge">
<title>Node1&#45;&gt;Node8</title>
<g id="a_edge10_Node000001_Node000008"><a xlink:title=" ">
<path fill="none" stroke="#63b8ff" d="M60.61,-54.52C71.19,-51.98 83.83,-49.57 95.96,-47.72"/>
<polygon fill="#63b8ff" stroke="#63b8ff" points="96.44,-51.18 105.86,-46.33 95.47,-44.25 96.44,-51.18"/>
</a>
</g>
</g>
<!-- Node9 -->
<g id="Node000009" class="node">
<title>Node9</title>
<g id="a_Node000009"><a xlink:href="cJSON_8c.html#adf47b520af96d1bbefa2390016fbdb51" target="_top" xlink:title=" ">
<polygon fill="white" stroke="#666666" points="311.62,-19.25 242.38,-19.25 242.38,0 311.62,0 311.62,-19.25"/>
<text xml:space="preserve" text-anchor="middle" x="277" y="-5.75" font-family="Helvetica,sans-Serif" font-size="10.00">parse_string</text>
</a>
</g>
</g>
<!-- Node1&#45;&gt;Node9 -->
<g id="edge18_Node000001_Node000009" class="edge">
<title>Node1&#45;&gt;Node9</title>
<g id="a_edge18_Node000001_Node000009"><a xlink:title=" ">
<path fill="none" stroke="#63b8ff" d="M49.91,-54.62C63.45,-45.92 84.43,-33.78 104.5,-27.62 146.03,-14.89 195.58,-10.81 230.71,-9.66"/>
<polygon fill="#63b8ff" stroke="#63b8ff" points="230.62,-13.16 240.53,-9.41 230.44,-6.17 230.62,-13.16"/>
</a>
</g>
</g>
<!-- Node2&#45;&gt;Node1 -->
<g id="edge6_Node000002_Node000001" class="edge">
<title>Node2&#45;&gt;Node1</title>
<g id="a_edge6_Node000002_Node000001"><a xlink:title=" ">
<path fill="none" stroke="#63b8ff" d="M109.95,-84.14C97.54,-82.55 83.33,-80.07 70.65,-77.3"/>
<polygon fill="#63b8ff" stroke="#63b8ff" points="71.54,-73.92 61,-75.04 69.94,-80.73 71.54,-73.92"/>
</a>
</g>
</g>
<!-- Node3 -->
<g id="Node000003" class="node">
<title>Node3</title>
<g id="a_Node000003"><a xlink:href="cJSON_8c.html#a0a9c3a7f6f01d4a8d9c552fa82274b4b" target="_top" xlink:title=" ">
<polygon fill="white" stroke="#666666" points="336,-93.25 218,-93.25 218,-74 336,-74 336,-93.25"/>
<text xml:space="preserve" text-anchor="middle" x="277" y="-79.75" font-family="Helvetica,sans-Serif" font-size="10.00">buffer_skip_whitespace</text>
</a>
</g>
</g>
<!-- Node2&#45;&gt;Node3 -->
<g id="edge2_Node000002_Node000003" class="edge">
<title>Node2&#45;&gt;Node3</title>
<g id="a_edge2_Node000002_Node000003"><a xlink:title=" ">
<path fill="none" stroke="#63b8ff" d="M176.82,-83.62C185.88,-83.62 196.09,-83.62 206.42,-83.62"/>
<polygon fill="#63b8ff" stroke="#63b8ff" points="206.11,-87.13 216.11,-83.63 206.11,-80.13 206.11,-87.13"/>
</a>
</g>
</g>
<!-- Node4 -->
<g id="Node000004" class="node">
<title>Node4</title>
<g id="a_Node000004"><a xlink:href="cJSON_8c.html#aa05c1f56de8779ae1584c525cc81aeb5" target="_top" xlink:title=" ">
<polygon fill="white" stroke="#666666" points="326.25,-56.25 227.75,-56.25 227.75,-37 326.25,-37 326.25,-56.25"/>
<text xml:space="preserve" text-anchor="middle" x="277" y="-42.75" font-family="Helvetica,sans-Serif" font-size="10.00">cJSON_New_Item</text>
</a>
</g>
</g>
<!-- Node2&#45;&gt;Node4 -->
<g id="edge3_Node000002_Node000004" class="edge">
<title>Node2&#45;&gt;Node4</title>
<g id="a_edge3_Node000002_Node000004"><a xlink:title=" ">
<path fill="none" stroke="#63b8ff" d="M176.82,-74.48C192.57,-70.06 211.77,-64.66 229.07,-59.81"/>
<polygon fill="#63b8ff" stroke="#63b8ff" points="229.96,-63.19 238.64,-57.12 228.07,-56.45 229.96,-63.19"/>
</a>
</g>
</g>
<!-- Node5 -->
<g id="Node000005" class="node">
<title>Node5</title>
<g id="a_Node000005"><a xlink:href="structinternal__hooks.html#a8b8f7ff45faa5da18dd3ccd2a2c8e416" target="_top" xlink:title=" ">
<polygon fill="white" stroke="#666666" points="489.25,-56.25 372,-56.25 372,-37 489.25,-37 489.25,-56.25"/>
<text xml:space="preserve" text-anchor="middle" x="430.62" y="-42.75" font-family="Helvetica,sans-Serif" font-size="10.00">internal_hooks::allocate</text>
</a>
</g>
</g>
<!-- Node4&#45;&gt;Node5 -->
<g id="edge4_Node000004_Node000005" class="edge">
<title>Node4&#45;&gt;Node5</title>
<g id="a_edge4_Node000004_Node000005"><a xlink:title=" ">
<path fill="none" stroke="#63b8ff" d="M326.39,-46.62C337.18,-46.62 348.83,-46.62 360.28,-46.62"/>
<polygon fill="#63b8ff" stroke="#63b8ff" points="360.11,-50.13 370.11,-46.63 360.11,-43.13 360.11,-50.13"/>
</a>
</g>
</g>
<!-- Node5&#45;&gt;Node5 -->
<g id="edge5_Node000005_Node000005" class="edge">
<title>Node5&#45;&gt;Node5</title>
<g id="a_edge5_Node000005_Node000005"><a xlink:title=" ">
<path fill="none" stroke="#63b8ff" d="M410.68,-56.54C401.59,-65.15 408.23,-74.25 430.62,-74.25 442.87,-74.25 450.41,-71.53 453.23,-67.65"/>
<polygon fill="#63b8ff" stroke="#63b8ff" points="456.66,-66.92 450.92,-58.01 449.85,-68.55 456.66,-66.92"/>
</a>
</g>
</g>
<!-- Node6&#45;&gt;Node5 -->
<g id="edge8_Node000006_Node000005" class="edge">
<title>Node6&#45;&gt;Node5</title>
<g id="a_edge8_Node000006_Node000005"><a xlink:title=" ">
<path fill="none" stroke="#63b8ff" d="M170.2,-130.72C208.15,-143.86 280.33,-162.58 336,-139.62 372,-124.78 401.47,-88.65 417.21,-66.05"/>
<polygon fill="#63b8ff" stroke="#63b8ff" points="419.95,-68.25 422.61,-57.99 414.13,-64.35 419.95,-68.25"/>
</a>
</g>
</g>
<!-- Node7 -->
<g id="Node000007" class="node">
<title>Node7</title>
<g id="a_Node000007"><a xlink:href="cJSON_8c.html#ab25412ae56c8c594831918169bea100d" target="_top" xlink:title=" ">
<polygon fill="white" stroke="#666666" points="324.38,-130.25 229.62,-130.25 229.62,-111 324.38,-111 324.38,-130.25"/>
<text xml:space="preserve" text-anchor="middle" x="277" y="-116.75" font-family="Helvetica,sans-Serif" font-size="10.00">get_decimal_point</text>
</a>
</g>
</g>
<!-- Node6&#45;&gt;Node7 -->
<g id="edge9_Node000006_Node000007" class="edge">
<title>Node6&#45;&gt;Node7</title>
<g id="a_edge9_Node000006_Node000007"><a xlink:title=" ">
<path fill="none" stroke="#63b8ff" d="M182.36,-120.62C193.53,-120.62 206.01,-120.62 218.12,-120.62"/>
<polygon fill="#63b8ff" stroke="#63b8ff" points="218.05,-124.13 228.05,-120.63 218.05,-117.13 218.05,-124.13"/>
</a>
</g>
</g>
<!-- Node8&#45;&gt;Node1 -->
<g id="edge17_Node000008_Node000001" class="edge">
<title>Node8&#45;&gt;Node1</title>
<g id="a_edge17_Node000008_Node000001"><a xlink:title=" ">
<path fill="none" stroke="#63b8ff" d="M116.96,-56.71C105.95,-59.36 92.7,-61.86 80.11,-63.75"/>
<polygon fill="#63b8ff" stroke="#63b8ff" points="79.75,-60.27 70.31,-65.09 80.69,-67.2 79.75,-60.27"/>
</a>
</g>
</g>
<!-- Node8&#45;&gt;Node3 -->
<g id="edge11_Node000008_Node000003" class="edge">
<title>Node8&#45;&gt;Node3</title>
<g id="a_edge11_Node000008_Node000003"><a xlink:title=" ">
<path fill="none" stroke="#63b8ff" d="M179.21,-56.44C194.45,-60.72 212.54,-65.8 228.93,-70.41"/>
<polygon fill="#63b8ff" stroke="#63b8ff" points="227.93,-73.76 238.5,-73.09 229.82,-67.02 227.93,-73.76"/>
</a>
</g>
</g>
<!-- Node8&#45;&gt;Node4 -->
<g id="edge12_Node000008_Node000004" class="edge">
<title>Node8&#45;&gt;Node4</title>
<g id="a_edge12_Node000008_Node000004"><a xlink:title=" ">
<path fill="none" stroke="#63b8ff" d="M179.21,-46.62C190.53,-46.62 203.43,-46.62 216.04,-46.62"/>
<polygon fill="#63b8ff" stroke="#63b8ff" points="215.97,-50.13 225.97,-46.63 215.97,-43.13 215.97,-50.13"/>
</a>
</g>
</g>
<!-- Node8&#45;&gt;Node9 -->
<g id="edge13_Node000008_Node000009" class="edge">
<title>Node8&#45;&gt;Node9</title>
<g id="a_edge13_Node000008_Node000009"><a xlink:title=" ">
<path fill="none" stroke="#63b8ff" d="M179.21,-36.81C195.22,-32.31 214.38,-26.93 231.41,-22.15"/>
<polygon fill="#63b8ff" stroke="#63b8ff" points="232.1,-25.59 240.79,-19.51 230.21,-18.85 232.1,-25.59"/>
</a>
</g>
</g>
<!-- Node9&#45;&gt;Node5 -->
<g id="edge14_Node000009_Node000005" class="edge">
<title>Node9&#45;&gt;Node5</title>
<g id="a_edge14_Node000009_Node000005"><a xlink:title=" ">
<path fill="none" stroke="#63b8ff" d="M312.03,-17.93C331.21,-22.61 355.58,-28.56 377.16,-33.82"/>
<polygon fill="#63b8ff" stroke="#63b8ff" points="376.13,-37.17 386.68,-36.14 377.79,-30.37 376.13,-37.17"/>
</a>
</g>
</g>
<!-- Node10 -->
<g id="Node000010" class="node">
<title>Node10</title>
<g id="a_Node000010"><a xlink:href="cJSON_8c.html#a0e2851b1b595b3b430fd186e7deaf987" target="_top" xlink:title=" ">
<polygon fill="white" stroke="#666666" points="481.38,-19.25 379.88,-19.25 379.88,0 481.38,0 481.38,-19.25"/>
<text xml:space="preserve" text-anchor="middle" x="430.62" y="-5.75" font-family="Helvetica,sans-Serif" font-size="10.00">utf16_literal_to_utf8</text>
</a>
</g>
</g>
<!-- Node9&#45;&gt;Node10 -->
<g id="edge15_Node000009_Node000010" class="edge">
<title>Node9&#45;&gt;Node10</title>
<g id="a_edge15_Node000009_Node000010"><a xlink:title=" ">
<path fill="none" stroke="#63b8ff" d="M312.03,-9.62C328.59,-9.62 349.02,-9.62 368.19,-9.62"/>
<polygon fill="#63b8ff" stroke="#63b8ff" points="368.08,-13.13 378.08,-9.63 368.08,-6.13 368.08,-13.13"/>
</a>
</g>
</g>
<!-- Node11 -->
<g id="Node000011" class="node">
<title>Node11</title>
<g id="a_Node000011"><a xlink:href="cJSON_8c.html#a1aa736fdc6ba20c7d46622d20766e916" target="_top" xlink:title=" ">
<polygon fill="white" stroke="#666666" points="590.75,-19.25 525.25,-19.25 525.25,0 590.75,0 590.75,-19.25"/>
<text xml:space="preserve" text-anchor="middle" x="558" y="-5.75" font-family="Helvetica,sans-Serif" font-size="10.00">parse_hex4</text>
</a>
</g>
</g>
<!-- Node10&#45;&gt;Node11 -->
<g id="edge16_Node000010_Node000011" class="edge">
<title>Node10&#45;&gt;Node11</title>
<g id="a_edge16_Node000010_Node000011"><a xlink:title=" ">
<path fill="none" stroke="#63b8ff" d="M481.54,-9.62C492.15,-9.62 503.28,-9.62 513.63,-9.62"/>
<polygon fill="#63b8ff" stroke="#63b8ff" points="513.4,-13.13 523.4,-9.63 513.4,-6.13 513.4,-13.13"/>
</a>
</g>
</g>
</g>
</svg>
