<?xml version="1.0" encoding="UTF-8" standalone="no"?>
<!DOCTYPE svg PUBLIC "-//W3C//DTD SVG 1.1//EN"
 "http://www.w3.org/Graphics/SVG/1.1/DTD/svg11.dtd">
<!-- Generated by graphviz version 14.0.5 (0)
 -->
<!-- Title: cJSON.h Pages: 1 -->
<svg width="186pt" height="138pt"
 viewBox="0.00 0.00 186.00 138.00" xmlns="http://www.w3.org/2000/svg" xmlns:xlink="http://www.w3.org/1999/xlink">
<g id="graph0" class="graph" transform="scale(1 1) rotate(0) translate(4 133.75)">
<title>cJSON.h</title>
<!-- Node1 -->
<g id="Node000001" class="node">
<title>Node1</title>
<g id="a_Node000001"><a xlink:title=" ">
<polygon fill="#999999" stroke="#666666" points="111.75,-129.75 56,-129.75 56,-110.5 111.75,-110.5 111.75,-129.75"/>
<text xml:space="preserve" text-anchor="middle" x="83.88" y="-116.25" font-family="Helvetica,sans-Serif" font-size="10.00">cJSON.h</text>
</a>
</g>
</g>
<!-- Node2 -->
<g id="Node000002" class="node">
<title>Node2</title>
<g id="a_Node000002"><a xlink:href="cJSON_8c.html" target="_top" xlink:title=" ">
<polygon fill="white" stroke="#666666" points="55.75,-74.5 0,-74.5 0,-55.25 55.75,-55.25 55.75,-74.5"/>
<text xml:space="preserve" text-anchor="middle" x="27.88" y="-61" font-family="Helvetica,sans-Serif" font-size="10.00">cJSON.c</text>
</a>
</g>
</g>
<!-- Node1&#45;&gt;Node2 -->
<g id="edge1_Node000001_Node000002" class="edge">
<title>Node1&#45;&gt;Node2</title>
<g id="a_edge1_Node000001_Node000002"><a xlink:title=" ">
<path fill="none" stroke="#63b8ff" d="M66.24,-102.36C56.63,-93.22 45.12,-82.28 37.23,-74.77"/>
<polygon fill="#63b8ff" stroke="#63b8ff" points="63.62,-104.69 73.28,-109.05 68.44,-99.62 63.62,-104.69"/>
</a>
</g>
</g>
<!-- Node3 -->
<g id="Node000003" class="node">
<title>Node3</title>
<g id="a_Node000003"><a xlink:href="espresso_8c.html" target="_top" xlink:title=" ">
<polygon fill="white" stroke="#666666" points="115.5,-19.25 52.25,-19.25 52.25,0 115.5,0 115.5,-19.25"/>
<text xml:space="preserve" text-anchor="middle" x="83.88" y="-5.75" font-family="Helvetica,sans-Serif" font-size="10.00">espresso.c</text>
</a>
</g>
</g>
<!-- Node1&#45;&gt;Node3 -->
<g id="edge2_Node000001_Node000003" class="edge">
<title>Node1&#45;&gt;Node3</title>
<g id="a_edge2_Node000001_Node000003"><a xlink:title=" ">
<path fill="none" stroke="#63b8ff" d="M83.88,-98.78C83.88,-75.05 83.88,-36.89 83.88,-19.63"/>
<polygon fill="#63b8ff" stroke="#63b8ff" points="80.38,-98.73 83.88,-108.73 87.38,-98.73 80.38,-98.73"/>
</a>
</g>
</g>
<!-- Node4 -->
<g id="Node000004" class="node">
<title>Node4</title>
<g id="a_Node000004"><a xlink:href="espresso_8h.html" target="_top" xlink:title="Espresso &#45; lightweight Express&#45;like HTTP framework for C.">
<polygon fill="white" stroke="#666666" points="175.5,-74.5 112.25,-74.5 112.25,-55.25 175.5,-55.25 175.5,-74.5"/>
<text xml:space="preserve" text-anchor="middle" x="143.88" y="-61" font-family="Helvetica,sans-Serif" font-size="10.00">espresso.h</text>
</a>
</g>
</g>
<!-- Node1&#45;&gt;Node4 -->
<g id="edge3_Node000001_Node000004" class="edge">
<title>Node1&#45;&gt;Node4</title>
<g id="a_edge3_Node000001_Node000004"><a xlink:title=" ">
<path fill="none" stroke="#63b8ff" d="M102.45,-102.64C112.81,-93.44 125.31,-82.35 133.85,-74.77"/>
<polygon fill="#63b8ff" stroke="#63b8ff" points="100.34,-99.83 95.19,-109.09 104.99,-105.07 100.34,-99.83"/>
</a>
</g>
</g>
<!-- Node4&#45;&gt;Node3 -->
<g id="edge4_Node000004_Node000003" class="edge">
<title>Node4&#45;&gt;Node3</title>
<g id="a_edge4_Node000004_Node000003"><a xlink:title=" ">
<path fill="none" stroke="#63b8ff" d="M125.3,-47.39C114.94,-38.19 102.44,-27.1 93.9,-19.52"/>
<polygon fill="#63b8ff" stroke="#63b8ff" points="122.76,-49.82 132.56,-53.84 127.41,-44.58 122.76,-49.82"/>
</a>
</g>
</g>
<!-- Node5 -->
<g id="Node000005" class="node">
<title>Node5</title>
<g id="a_Node000005"><a xlink:href="main_8c.html" target="_top" xlink:title=" ">
<polygon fill="white" stroke="#666666" points="178.12,-19.25 133.62,-19.25 133.62,0 178.12,0 178.12,-19.25"/>
<text xml:space="preserve" text-anchor="middle" x="155.88" y="-5.75" font-family="Helvetica,sans-Serif" font-size="10.00">main.c</text>
</a>
</g>
</g>
<!-- Node4&#45;&gt;Node5 -->
<g id="edge5_Node000004_Node000005" class="edge">
<title>Node4&#45;&gt;Node5</title>
<g id="a_edge5_Node000004_Node000005"><a xlink:title=" ">
<path fill="none" stroke="#63b8ff" d="M148.37,-43.92C150.26,-35.55 152.35,-26.25 153.85,-19.61"/>
<polygon fill="#63b8ff" stroke="#63b8ff" points="144.97,-43.08 146.19,-53.61 151.8,-44.62 144.97,-43.08"/>
</a>
</g>
</g>
</g>
</svg>
