<?xml version="1.0" encoding="UTF-8" standalone="no"?>
<!DOCTYPE svg PUBLIC "-//W3C//DTD SVG 1.1//EN"
 "http://www.w3.org/Graphics/SVG/1.1/DTD/svg11.dtd">
<!-- Generated by graphviz version 14.0.5 (0)
 -->
<!-- Title: client_thread Pages: 1 -->
<svg width="552pt" height="138pt"
 viewBox="0.00 0.00 552.00 138.00" xmlns="http://www.w3.org/2000/svg" xmlns:xlink="http://www.w3.org/1999/xlink">
<g id="graph0" class="graph" transform="scale(1 1) rotate(0) translate(4 134.25)">
<title>client_thread</title>
<!-- Node1 -->
<g id="Node000001" class="node">
<title>Node1</title>
<g id="a_Node000001"><a xlink:title=" ">
<polygon fill="#999999" stroke="#666666" points="71.5,-74.25 0,-74.25 0,-55 71.5,-55 71.5,-74.25"/>
<text xml:space="preserve" text-anchor="middle" x="35.75" y="-60.75" font-family="Helvetica,sans-Serif" font-size="10.00">client_thread</text>
</a>
</g>
</g>
<!-- Node2 -->
<g id="Node000002" class="node">
<title>Node2</title>
<g id="a_Node000002"><a xlink:href="espresso_8c.html#a04c27c6493696fb67ab9b8f5296c14f1" target="_top" xlink:title=" ">
<polygon fill="white" stroke="#666666" points="206.75,-130.25 124,-130.25 124,-111 206.75,-111 206.75,-130.25"/>
<text xml:space="preserve" text-anchor="middle" x="165.38" y="-116.75" font-family="Helvetica,sans-Serif" font-size="10.00">compare_paths</text>
</a>
</g>
</g>
<!-- Node1&#45;&gt;Node2 -->
<g id="edge1_Node000001_Node000002" class="edge">
<title>Node1&#45;&gt;Node2</title>
<g id="a_edge1_Node000001_Node000002"><a xlink:title=" ">
<path fill="none" stroke="#63b8ff" d="M53.19,-74.59C67.26,-82.84 88.23,-94.49 107.5,-102.62 111.04,-104.12 114.75,-105.56 118.51,-106.93"/>
<polygon fill="#63b8ff" stroke="#63b8ff" points="117.09,-110.14 127.68,-110.1 119.37,-103.53 117.09,-110.14"/>
</a>
</g>
</g>
<!-- Node3 -->
<g id="Node000003" class="node">
<title>Node3</title>
<g id="a_Node000003"><a xlink:href="espresso_8c.html#aca61aa31ed57abce18d1d3cffd0d47e3" target="_top" xlink:title=" ">
<polygon fill="white" stroke="#666666" points="223.25,-93.25 107.5,-93.25 107.5,-74 223.25,-74 223.25,-93.25"/>
<text xml:space="preserve" text-anchor="middle" x="165.38" y="-79.75" font-family="Helvetica,sans-Serif" font-size="10.00">generate_allow_header</text>
</a>
</g>
</g>
<!-- Node1&#45;&gt;Node3 -->
<g id="edge2_Node000001_Node000003" class="edge">
<title>Node1&#45;&gt;Node3</title>
<g id="a_edge2_Node000001_Node000003"><a xlink:title=" ">
<path fill="none" stroke="#63b8ff" d="M71.96,-69.87C79.47,-70.98 87.64,-72.2 95.92,-73.43"/>
<polygon fill="#63b8ff" stroke="#63b8ff" points="95.32,-76.88 105.72,-74.89 96.35,-69.96 95.32,-76.88"/>
</a>
</g>
</g>
<!-- Node4 -->
<g id="Node000004" class="node">
<title>Node4</title>
<g id="a_Node000004"><a xlink:href="espresso_8c.html#a1ab07f0a47159856d7446c79d306cd6b" target="_top" xlink:title="Parses an HTTP request string into a Request struct.">
<polygon fill="white" stroke="#666666" points="215,-56.25 115.75,-56.25 115.75,-37 215,-37 215,-56.25"/>
<text xml:space="preserve" text-anchor="middle" x="165.38" y="-42.75" font-family="Helvetica,sans-Serif" font-size="10.00">parse_http_request</text>
</a>
</g>
</g>
<!-- Node1&#45;&gt;Node4 -->
<g id="edge3_Node000001_Node000004" class="edge">
<title>Node1&#45;&gt;Node4</title>
<g id="a_edge3_Node000001_Node000004"><a xlink:title=" ">
<path fill="none" stroke="#63b8ff" d="M71.96,-59.66C81.93,-58.25 93.07,-56.68 104.07,-55.13"/>
<polygon fill="#63b8ff" stroke="#63b8ff" points="104.51,-58.6 113.93,-53.74 103.54,-51.67 104.51,-58.6"/>
</a>
</g>
</g>
<!-- Node5 -->
<g id="Node000005" class="node">
<title>Node5</title>
<g id="a_Node000005"><a xlink:href="espresso_8c.html#a260a9eca1b37d7151fd585fde9e355b8" target="_top" xlink:title=" ">
<polygon fill="white" stroke="#666666" points="218.38,-19.25 112.38,-19.25 112.38,0 218.38,0 218.38,-19.25"/>
<text xml:space="preserve" text-anchor="middle" x="165.38" y="-5.75" font-family="Helvetica,sans-Serif" font-size="10.00">parse_query_params</text>
</a>
</g>
</g>
<!-- Node1&#45;&gt;Node5 -->
<g id="edge4_Node000001_Node000005" class="edge">
<title>Node1&#45;&gt;Node5</title>
<g id="a_edge4_Node000001_Node000005"><a xlink:title=" ">
<path fill="none" stroke="#63b8ff" d="M53.79,-54.63C67.87,-46.64 88.56,-35.5 107.5,-27.62 111.05,-26.15 114.77,-24.72 118.53,-23.36"/>
<polygon fill="#63b8ff" stroke="#63b8ff" points="119.38,-26.77 127.71,-20.21 117.11,-20.15 119.38,-26.77"/>
</a>
</g>
</g>
<!-- Node6 -->
<g id="Node000006" class="node">
<title>Node6</title>
<g id="a_Node000006"><a xlink:href="espresso_8c.html#a2d9a0717a9389e6d178d0f4a8c2ef185" target="_top" xlink:title=" ">
<polygon fill="white" stroke="#666666" points="335.25,-19.25 259.25,-19.25 259.25,0 335.25,0 335.25,-19.25"/>
<text xml:space="preserve" text-anchor="middle" x="297.25" y="-5.75" font-family="Helvetica,sans-Serif" font-size="10.00">append_query</text>
</a>
</g>
</g>
<!-- Node5&#45;&gt;Node6 -->
<g id="edge5_Node000005_Node000006" class="edge">
<title>Node5&#45;&gt;Node6</title>
<g id="a_edge5_Node000005_Node000006"><a xlink:title=" ">
<path fill="none" stroke="#63b8ff" d="M218.83,-9.62C228.23,-9.62 238,-9.62 247.3,-9.62"/>
<polygon fill="#63b8ff" stroke="#63b8ff" points="247.26,-13.13 257.26,-9.63 247.26,-6.13 247.26,-13.13"/>
</a>
</g>
</g>
<!-- Node7 -->
<g id="Node000007" class="node">
<title>Node7</title>
<g id="a_Node000007"><a xlink:href="espresso_8c.html#a755a65a488e1158eee3fdab0ecada8fe" target="_top" xlink:title=" ">
<polygon fill="white" stroke="#666666" points="447.25,-19.25 371.25,-19.25 371.25,0 447.25,0 447.25,-19.25"/>
<text xml:space="preserve" text-anchor="middle" x="409.25" y="-5.75" font-family="Helvetica,sans-Serif" font-size="10.00">decode_query</text>
</a>
</g>
</g>
<!-- Node6&#45;&gt;Node7 -->
<g id="edge6_Node000006_Node000007" class="edge">
<title>Node6&#45;&gt;Node7</title>
<g id="a_edge6_Node000006_Node000007"><a xlink:title=" ">
<path fill="none" stroke="#63b8ff" d="M335.49,-9.62C343.29,-9.62 351.61,-9.62 359.75,-9.62"/>
<polygon fill="#63b8ff" stroke="#63b8ff" points="359.53,-13.13 369.53,-9.63 359.53,-6.13 359.53,-13.13"/>
</a>
</g>
</g>
<!-- Node8 -->
<g id="Node000008" class="node">
<title>Node8</title>
<g id="a_Node000008"><a xlink:href="espresso_8c.html#af4a5274d4719dec853dd32e1d8687553" target="_top" xlink:title=" ">
<polygon fill="white" stroke="#666666" points="543.5,-19.25 483.25,-19.25 483.25,0 543.5,0 543.5,-19.25"/>
<text xml:space="preserve" text-anchor="middle" x="513.38" y="-5.75" font-family="Helvetica,sans-Serif" font-size="10.00">hex_to_int</text>
</a>
</g>
</g>
<!-- Node7&#45;&gt;Node8 -->
<g id="edge7_Node000007_Node000008" class="edge">
<title>Node7&#45;&gt;Node8</title>
<g id="a_edge7_Node000007_Node000008"><a xlink:title=" ">
<path fill="none" stroke="#63b8ff" d="M447.7,-9.62C455.5,-9.62 463.76,-9.62 471.67,-9.62"/>
<polygon fill="#63b8ff" stroke="#63b8ff" points="471.41,-13.13 481.41,-9.63 471.41,-6.13 471.41,-13.13"/>
</a>
</g>
</g>
</g>
</svg>
