<?xml version="1.0" encoding="UTF-8" standalone="no"?>
<!DOCTYPE svg PUBLIC "-//W3C//DTD SVG 1.1//EN"
 "http://www.w3.org/Graphics/SVG/1.1/DTD/svg11.dtd">
<!-- Generated by graphviz version 14.0.5 (0)
 -->
<!-- Title: handle_client_timeout Pages: 1 -->
<svg width="672pt" height="100pt"
 viewBox="0.00 0.00 672.00 100.00" xmlns="http://www.w3.org/2000/svg" xmlns:xlink="http://www.w3.org/1999/xlink">
<g id="graph0" class="graph" transform="scale(1 1) rotate(0) translate(4 96.25)">
<title>handle_client_timeout</title>
<!-- Node1 -->
<g id="Node000001" class="node">
<title>Node1</title>
<g id="a_Node000001"><a xlink:title=" ">
<polygon fill="#999999" stroke="#666666" points="110.5,-37.25 0,-37.25 0,-18 110.5,-18 110.5,-37.25"/>
<text xml:space="preserve" text-anchor="middle" x="55.25" y="-23.75" font-family="Helvetica,sans-Serif" font-size="10.00">handle_client_timeout</text>
</a>
</g>
</g>
<!-- Node2 -->
<g id="Node000002" class="node">
<title>Node2</title>
<g id="a_Node000002"><a xlink:href="espresso_8c.html#a73277811539a2de04ce7e1295fbdba6a" target="_top" xlink:title=" ">
<polygon fill="white" stroke="#666666" points="238.25,-56.25 146.5,-56.25 146.5,-37 238.25,-37 238.25,-56.25"/>
<text xml:space="preserve" text-anchor="middle" x="192.38" y="-42.75" font-family="Helvetica,sans-Serif" font-size="10.00">close_connection</text>
</a>
</g>
</g>
<!-- Node1&#45;&gt;Node2 -->
<g id="edge1_Node000001_Node000002" class="edge">
<title>Node1&#45;&gt;Node2</title>
<g id="a_edge1_Node000001_Node000002"><a xlink:title=" ">
<path fill="none" stroke="#63b8ff" d="M110.82,-35.3C118.7,-36.41 126.81,-37.55 134.73,-38.66"/>
<polygon fill="#63b8ff" stroke="#63b8ff" points="134.23,-42.12 144.62,-40.05 135.21,-35.19 134.23,-42.12"/>
</a>
</g>
</g>
<!-- Node8 -->
<g id="Node000008" class="node">
<title>Node8</title>
<g id="a_Node000008"><a xlink:href="espresso_8c.html#a142b429010a8046d339d36552bd20f7e" target="_top" xlink:title=" ">
<polygon fill="white" stroke="#666666" points="233.38,-19.25 151.38,-19.25 151.38,0 233.38,0 233.38,-19.25"/>
<text xml:space="preserve" text-anchor="middle" x="192.38" y="-5.75" font-family="Helvetica,sans-Serif" font-size="10.00">send_message</text>
</a>
</g>
</g>
<!-- Node1&#45;&gt;Node8 -->
<g id="edge7_Node000001_Node000008" class="edge">
<title>Node1&#45;&gt;Node8</title>
<g id="a_edge7_Node000001_Node000008"><a xlink:title=" ">
<path fill="none" stroke="#63b8ff" d="M110.82,-20.36C120.4,-19.08 130.35,-17.75 139.84,-16.49"/>
<polygon fill="#63b8ff" stroke="#63b8ff" points="140.2,-19.97 149.65,-15.18 139.27,-13.03 140.2,-19.97"/>
</a>
</g>
</g>
<!-- Node3 -->
<g id="Node000003" class="node">
<title>Node3</title>
<g id="a_Node000003"><a xlink:href="espresso_8c.html#aaf78724518167158b66ec656312fabd2" target="_top" xlink:title=" ">
<polygon fill="white" stroke="#666666" points="399.75,-56.25 274.25,-56.25 274.25,-37 399.75,-37 399.75,-56.25"/>
<text xml:space="preserve" text-anchor="middle" x="337" y="-42.75" font-family="Helvetica,sans-Serif" font-size="10.00">handle_connection_close</text>
</a>
</g>
</g>
<!-- Node2&#45;&gt;Node3 -->
<g id="edge2_Node000002_Node000003" class="edge">
<title>Node2&#45;&gt;Node3</title>
<g id="a_edge2_Node000002_Node000003"><a xlink:title=" ">
<path fill="none" stroke="#63b8ff" d="M238.5,-46.62C246.25,-46.62 254.47,-46.62 262.72,-46.62"/>
<polygon fill="#63b8ff" stroke="#63b8ff" points="262.45,-50.13 272.45,-46.63 262.45,-43.13 262.45,-50.13"/>
</a>
</g>
</g>
<!-- Node4 -->
<g id="Node000004" class="node">
<title>Node4</title>
<g id="a_Node000004"><a xlink:href="espresso_8c.html#a1804ce3a25646fd9c6c6ad98d45c6efa" target="_top" xlink:title=" ">
<polygon fill="white" stroke="#666666" points="527.5,-74.25 435.75,-74.25 435.75,-55 527.5,-55 527.5,-74.25"/>
<text xml:space="preserve" text-anchor="middle" x="481.62" y="-60.75" font-family="Helvetica,sans-Serif" font-size="10.00">endpoint_cleanup</text>
</a>
</g>
</g>
<!-- Node3&#45;&gt;Node4 -->
<g id="edge3_Node000003_Node000004" class="edge">
<title>Node3&#45;&gt;Node4</title>
<g id="a_edge3_Node000003_Node000004"><a xlink:title=" ">
<path fill="none" stroke="#63b8ff" d="M400.14,-54.47C408.11,-55.47 416.24,-56.5 424.11,-57.49"/>
<polygon fill="#63b8ff" stroke="#63b8ff" points="423.55,-60.95 433.91,-58.73 424.43,-54.01 423.55,-60.95"/>
</a>
</g>
</g>
<!-- Node7 -->
<g id="Node000007" class="node">
<title>Node7</title>
<g id="a_Node000007"><a xlink:href="espresso_8c.html#a837cf67658f96fc262c83a4882f96f45" target="_top" xlink:title=" ">
<polygon fill="white" stroke="#666666" points="520,-37.25 443.25,-37.25 443.25,-18 520,-18 520,-37.25"/>
<text xml:space="preserve" text-anchor="middle" x="481.62" y="-23.75" font-family="Helvetica,sans-Serif" font-size="10.00">remove_client</text>
</a>
</g>
</g>
<!-- Node3&#45;&gt;Node7 -->
<g id="edge6_Node000003_Node000007" class="edge">
<title>Node3&#45;&gt;Node7</title>
<g id="a_edge6_Node000003_Node000007"><a xlink:title=" ">
<path fill="none" stroke="#63b8ff" d="M400.14,-38.35C410.72,-36.94 421.58,-35.49 431.75,-34.14"/>
<polygon fill="#63b8ff" stroke="#63b8ff" points="431.95,-37.64 441.4,-32.85 431.03,-30.7 431.95,-37.64"/>
</a>
</g>
</g>
<!-- Node5 -->
<g id="Node000005" class="node">
<title>Node5</title>
<g id="a_Node000005"><a xlink:href="espresso_8c.html#a713520bedc85cf92de9f221038f1b737" target="_top" xlink:title=" ">
<polygon fill="white" stroke="#666666" points="663.5,-92.25 563.5,-92.25 563.5,-73 663.5,-73 663.5,-92.25"/>
<text xml:space="preserve" text-anchor="middle" x="613.5" y="-78.75" font-family="Helvetica,sans-Serif" font-size="10.00">handle_timer_close</text>
</a>
</g>
</g>
<!-- Node4&#45;&gt;Node5 -->
<g id="edge4_Node000004_Node000005" class="edge">
<title>Node4&#45;&gt;Node5</title>
<g id="a_edge4_Node000004_Node000005"><a xlink:title=" ">
<path fill="none" stroke="#63b8ff" d="M527.68,-70.87C535.45,-71.95 543.64,-73.08 551.74,-74.2"/>
<polygon fill="#63b8ff" stroke="#63b8ff" points="551.2,-77.66 561.59,-75.57 552.16,-70.73 551.2,-77.66"/>
</a>
</g>
</g>
<!-- Node6 -->
<g id="Node000006" class="node">
<title>Node6</title>
<g id="a_Node000006"><a xlink:href="espresso_8c.html#aff314ce54a1f87e10d08bf4ddeeaf537" target="_top" xlink:title=" ">
<polygon fill="white" stroke="#666666" points="657.12,-55.25 569.88,-55.25 569.88,-36 657.12,-36 657.12,-55.25"/>
<text xml:space="preserve" text-anchor="middle" x="613.5" y="-41.75" font-family="Helvetica,sans-Serif" font-size="10.00">request_cleanup</text>
</a>
</g>
</g>
<!-- Node4&#45;&gt;Node6 -->
<g id="edge5_Node000004_Node000006" class="edge">
<title>Node4&#45;&gt;Node6</title>
<g id="a_edge5_Node000004_Node000006"><a xlink:title=" ">
<path fill="none" stroke="#63b8ff" d="M527.68,-58.03C537.59,-56.58 548.17,-55.04 558.38,-53.54"/>
<polygon fill="#63b8ff" stroke="#63b8ff" points="558.82,-57.02 568.21,-52.1 557.81,-50.09 558.82,-57.02"/>
</a>
</g>
</g>
<!-- Node9 -->
<g id="Node000009" class="node">
<title>Node9</title>
<g id="a_Node000009"><a xlink:href="espresso_8c.html#a5fa30991ad104ba1fe0001e7aefe95ac" target="_top" xlink:title=" ">
<polygon fill="white" stroke="#666666" points="382.88,-19.25 291.12,-19.25 291.12,0 382.88,0 382.88,-19.25"/>
<text xml:space="preserve" text-anchor="middle" x="337" y="-5.75" font-family="Helvetica,sans-Serif" font-size="10.00">handle_write_end</text>
</a>
</g>
</g>
<!-- Node8&#45;&gt;Node9 -->
<g id="edge8_Node000008_Node000009" class="edge">
<title>Node8&#45;&gt;Node9</title>
<g id="a_edge8_Node000008_Node000009"><a xlink:title=" ">
<path fill="none" stroke="#63b8ff" d="M233.86,-9.62C247.97,-9.62 264.08,-9.62 279.26,-9.62"/>
<polygon fill="#63b8ff" stroke="#63b8ff" points="279.13,-13.13 289.13,-9.63 279.13,-6.13 279.13,-13.13"/>
</a>
</g>
</g>
</g>
</svg>
