<?xml version="1.0" encoding="UTF-8" standalone="no"?>
<!DOCTYPE svg PUBLIC "-//W3C//DTD SVG 1.1//EN"
 "http://www.w3.org/Graphics/SVG/1.1/DTD/svg11.dtd">
<!-- Generated by graphviz version 14.0.5 (0)
 -->
<!-- Title: endpoint_cleanup Pages: 1 -->
<svg width="236pt" height="64pt"
 viewBox="0.00 0.00 236.00 64.00" xmlns="http://www.w3.org/2000/svg" xmlns:xlink="http://www.w3.org/1999/xlink">
<g id="graph0" class="graph" transform="scale(1 1) rotate(0) translate(4 60.25)">
<title>endpoint_cleanup</title>
<!-- Node1 -->
<g id="Node000001" class="node">
<title>Node1</title>
<g id="a_Node000001"><a xlink:title=" ">
<polygon fill="#999999" stroke="#666666" points="91.75,-37.25 0,-37.25 0,-18 91.75,-18 91.75,-37.25"/>
<text xml:space="preserve" text-anchor="middle" x="45.88" y="-23.75" font-family="Helvetica,sans-Serif" font-size="10.00">endpoint_cleanup</text>
</a>
</g>
</g>
<!-- Node2 -->
<g id="Node000002" class="node">
<title>Node2</title>
<g id="a_Node000002"><a xlink:href="espresso_8c.html#a713520bedc85cf92de9f221038f1b737" target="_top" xlink:title=" ">
<polygon fill="white" stroke="#666666" points="227.75,-56.25 127.75,-56.25 127.75,-37 227.75,-37 227.75,-56.25"/>
<text xml:space="preserve" text-anchor="middle" x="177.75" y="-42.75" font-family="Helvetica,sans-Serif" font-size="10.00">handle_timer_close</text>
</a>
</g>
</g>
<!-- Node1&#45;&gt;Node2 -->
<g id="edge1_Node000001_Node000002" class="edge">
<title>Node1&#45;&gt;Node2</title>
<g id="a_edge1_Node000001_Node000002"><a xlink:title=" ">
<path fill="none" stroke="#63b8ff" d="M91.93,-34.22C99.7,-35.35 107.89,-36.55 115.99,-37.74"/>
<polygon fill="#63b8ff" stroke="#63b8ff" points="115.44,-41.19 125.84,-39.18 116.45,-34.27 115.44,-41.19"/>
</a>
</g>
</g>
<!-- Node3 -->
<g id="Node000003" class="node">
<title>Node3</title>
<g id="a_Node000003"><a xlink:href="espresso_8c.html#aff314ce54a1f87e10d08bf4ddeeaf537" target="_top" xlink:title=" ">
<polygon fill="white" stroke="#666666" points="221.38,-19.25 134.12,-19.25 134.12,0 221.38,0 221.38,-19.25"/>
<text xml:space="preserve" text-anchor="middle" x="177.75" y="-5.75" font-family="Helvetica,sans-Serif" font-size="10.00">request_cleanup</text>
</a>
</g>
</g>
<!-- Node1&#45;&gt;Node3 -->
<g id="edge2_Node000001_Node000003" class="edge">
<title>Node1&#45;&gt;Node3</title>
<g id="a_edge2_Node000001_Node000003"><a xlink:title=" ">
<path fill="none" stroke="#63b8ff" d="M91.93,-21.38C101.84,-20.01 112.42,-18.54 122.63,-17.13"/>
<polygon fill="#63b8ff" stroke="#63b8ff" points="123.03,-20.6 132.46,-15.76 122.07,-13.67 123.03,-20.6"/>
</a>
</g>
</g>
</g>
</svg>
