<?xml version="1.0" encoding="UTF-8" standalone="no"?>
<!DOCTYPE svg PUBLIC "-//W3C//DTD SVG 1.1//EN"
 "http://www.w3.org/Graphics/SVG/1.1/DTD/svg11.dtd">
<!-- Generated by graphviz version 14.0.5 (0)
 -->
<!-- Title: build_response_headers Pages: 1 -->
<svg width="455pt" height="101pt"
 viewBox="0.00 0.00 455.00 101.00" xmlns="http://www.w3.org/2000/svg" xmlns:xlink="http://www.w3.org/1999/xlink">
<g id="graph0" class="graph" transform="scale(1 1) rotate(0) translate(4 97.25)">
<title>build_response_headers</title>
<!-- Node1 -->
<g id="Node000001" class="node">
<title>Node1</title>
<g id="a_Node000001"><a xlink:title=" ">
<polygon fill="#999999" stroke="#666666" points="446.5,-74.25 325.5,-74.25 325.5,-55 446.5,-55 446.5,-74.25"/>
<text xml:space="preserve" text-anchor="middle" x="386" y="-60.75" font-family="Helvetica,sans-Serif" font-size="10.00">build_response_headers</text>
</a>
</g>
</g>
<!-- Node2 -->
<g id="Node000002" class="node">
<title>Node2</title>
<g id="a_Node000002"><a xlink:href="espresso_8c.html#a1851b4d23bfd00e217b09add89e1aec4" target="_top" xlink:title="Sends JSON response.">
<polygon fill="white" stroke="#666666" points="289.5,-93.25 184.25,-93.25 184.25,-74 289.5,-74 289.5,-93.25"/>
<text xml:space="preserve" text-anchor="middle" x="236.88" y="-79.75" font-family="Helvetica,sans-Serif" font-size="10.00">send_json_response</text>
</a>
</g>
</g>
<!-- Node1&#45;&gt;Node2 -->
<g id="edge1_Node000001_Node000002" class="edge">
<title>Node1&#45;&gt;Node2</title>
<g id="a_edge1_Node000001_Node000002"><a xlink:title=" ">
<path fill="none" stroke="#63b8ff" d="M314.02,-73.79C305.8,-74.85 297.54,-75.92 289.64,-76.94"/>
<polygon fill="#63b8ff" stroke="#63b8ff" points="314.19,-77.3 323.66,-72.55 313.29,-70.36 314.19,-77.3"/>
</a>
</g>
</g>
<!-- Node4 -->
<g id="Node000004" class="node">
<title>Node4</title>
<g id="a_Node000004"><a xlink:href="espresso_8c.html#a74fa803b07b95b5f1446ae4bb85f4f0b" target="_top" xlink:title="Sends text response.">
<polygon fill="white" stroke="#666666" points="288.38,-56.25 185.38,-56.25 185.38,-37 288.38,-37 288.38,-56.25"/>
<text xml:space="preserve" text-anchor="middle" x="236.88" y="-42.75" font-family="Helvetica,sans-Serif" font-size="10.00">send_text_response</text>
</a>
</g>
</g>
<!-- Node1&#45;&gt;Node4 -->
<g id="edge3_Node000001_Node000004" class="edge">
<title>Node1&#45;&gt;Node4</title>
<g id="a_edge3_Node000001_Node000004"><a xlink:title=" ">
<path fill="none" stroke="#63b8ff" d="M314,-55.94C305.46,-54.89 296.88,-53.84 288.71,-52.84"/>
<polygon fill="#63b8ff" stroke="#63b8ff" points="313.31,-59.38 323.66,-57.12 314.16,-52.43 313.31,-59.38"/>
</a>
</g>
</g>
<!-- Node3 -->
<g id="Node000003" class="node">
<title>Node3</title>
<g id="a_Node000003"><a xlink:href="espresso_8c.html#afb4623b096ac903aa1c53a5f0c730328" target="_top" xlink:title="Sends error response with status code and message.">
<polygon fill="white" stroke="#666666" points="141.5,-93.25 79.75,-93.25 79.75,-74 141.5,-74 141.5,-93.25"/>
<text xml:space="preserve" text-anchor="middle" x="110.62" y="-79.75" font-family="Helvetica,sans-Serif" font-size="10.00">send_error</text>
</a>
</g>
</g>
<!-- Node2&#45;&gt;Node3 -->
<g id="edge2_Node000002_Node000003" class="edge">
<title>Node2&#45;&gt;Node3</title>
<g id="a_edge2_Node000002_Node000003"><a xlink:title=" ">
<path fill="none" stroke="#63b8ff" d="M172.7,-83.62C161.91,-83.62 151.16,-83.62 141.76,-83.62"/>
<polygon fill="#63b8ff" stroke="#63b8ff" points="172.39,-87.13 182.39,-83.63 172.39,-80.13 172.39,-87.13"/>
</a>
</g>
</g>
<!-- Node5 -->
<g id="Node000005" class="node">
<title>Node5</title>
<g id="a_Node000005"><a xlink:href="main_8c.html#a3567783714153d35ee83fd6de55968d1" target="_top" xlink:title=" ">
<polygon fill="white" stroke="#666666" points="147.5,-56.25 73.75,-56.25 73.75,-37 147.5,-37 147.5,-56.25"/>
<text xml:space="preserve" text-anchor="middle" x="110.62" y="-42.75" font-family="Helvetica,sans-Serif" font-size="10.00">echo_handler</text>
</a>
</g>
</g>
<!-- Node4&#45;&gt;Node5 -->
<g id="edge4_Node000004_Node000005" class="edge">
<title>Node4&#45;&gt;Node5</title>
<g id="a_edge4_Node000004_Node000005"><a xlink:title=" ">
<path fill="none" stroke="#63b8ff" d="M173.47,-46.62C164.67,-46.62 155.89,-46.62 147.81,-46.62"/>
<polygon fill="#63b8ff" stroke="#63b8ff" points="173.47,-50.13 183.47,-46.63 173.47,-43.13 173.47,-50.13"/>
</a>
</g>
</g>
<!-- Node7 -->
<g id="Node000007" class="node">
<title>Node7</title>
<g id="a_Node000007"><a xlink:href="main_8c.html#a036dbf8db2f30bf4fb436fcc8ea138c7" target="_top" xlink:title=" ">
<polygon fill="white" stroke="#666666" points="148.25,-19.25 73,-19.25 73,0 148.25,0 148.25,-19.25"/>
<text xml:space="preserve" text-anchor="middle" x="110.62" y="-5.75" font-family="Helvetica,sans-Serif" font-size="10.00">index_handler</text>
</a>
</g>
</g>
<!-- Node4&#45;&gt;Node7 -->
<g id="edge6_Node000004_Node000007" class="edge">
<title>Node4&#45;&gt;Node7</title>
<g id="a_edge6_Node000004_Node000007"><a xlink:title=" ">
<path fill="none" stroke="#63b8ff" d="M191.27,-33.34C176.2,-28.86 159.64,-23.92 145.54,-19.72"/>
<polygon fill="#63b8ff" stroke="#63b8ff" points="189.89,-36.58 200.47,-36.08 191.89,-29.87 189.89,-36.58"/>
</a>
</g>
</g>
<!-- Node6 -->
<g id="Node000006" class="node">
<title>Node6</title>
<g id="a_Node000006"><a xlink:href="main_8c.html#ae66f6b31b5ad750f1fe042a706a4e3d4" target="_top" xlink:title=" ">
<polygon fill="white" stroke="#666666" points="37,-37.25 0,-37.25 0,-18 37,-18 37,-37.25"/>
<text xml:space="preserve" text-anchor="middle" x="18.5" y="-23.75" font-family="Helvetica,sans-Serif" font-size="10.00">main</text>
</a>
</g>
</g>
<!-- Node5&#45;&gt;Node6 -->
<g id="edge5_Node000005_Node000006" class="edge">
<title>Node5&#45;&gt;Node6</title>
<g id="a_edge5_Node000005_Node000006"><a xlink:title=" ">
<path fill="none" stroke="#63b8ff" d="M62.47,-36.68C53.41,-34.77 44.46,-32.89 37.09,-31.33"/>
<polygon fill="#63b8ff" stroke="#63b8ff" points="61.5,-40.06 72.01,-38.69 62.94,-33.21 61.5,-40.06"/>
</a>
</g>
</g>
<!-- Node7&#45;&gt;Node6 -->
<g id="edge7_Node000007_Node000006" class="edge">
<title>Node7&#45;&gt;Node6</title>
<g id="a_edge7_Node000007_Node000006"><a xlink:title=" ">
<path fill="none" stroke="#63b8ff" d="M61.68,-19.2C52.95,-20.94 44.37,-22.66 37.25,-24.08"/>
<polygon fill="#63b8ff" stroke="#63b8ff" points="62.1,-22.69 71.22,-17.29 60.73,-15.82 62.1,-22.69"/>
</a>
</g>
</g>
</g>
</svg>
