<?xml version="1.0" encoding="UTF-8" standalone="no"?>
<!DOCTYPE svg PUBLIC "-//W3C//DTD SVG 1.1//EN"
 "http://www.w3.org/Graphics/SVG/1.1/DTD/svg11.dtd">
<!-- Generated by graphviz version 14.0.5 (0)
 -->
<!-- Title: app_listen Pages: 1 -->
<svg width="1138pt" height="416pt"
 viewBox="0.00 0.00 1138.00 416.00" xmlns="http://www.w3.org/2000/svg" xmlns:xlink="http://www.w3.org/1999/xlink">
<g id="graph0" class="graph" transform="scale(1 1) rotate(0) translate(4 411.62)">
<title>app_listen</title>
<!-- Node1 -->
<g id="Node000001" class="node">
<title>Node1</title>
<g id="a_Node000001"><a xlink:title="Starts the HTTP server loop.">
<polygon fill="#999999" stroke="#666666" points="60.25,-293.62 0,-293.62 0,-274.38 60.25,-274.38 60.25,-293.62"/>
<text xml:space="preserve" text-anchor="middle" x="30.12" y="-280.12" font-family="Helvetica,sans-Serif" font-size="10.00">app_listen</text>
</a>
</g>
</g>
<!-- Node2 -->
<g id="Node000002" class="node">
<title>Node2</title>
<g id="a_Node000002"><a xlink:href="espresso_8c.html#a90f2058b8890cfb99e6f595b8f066919" target="_top" xlink:title=" ">
<polygon fill="white" stroke="#666666" points="193.25,-293.62 96.25,-293.62 96.25,-274.38 193.25,-274.38 193.25,-293.62"/>
<text xml:space="preserve" text-anchor="middle" x="144.75" y="-280.12" font-family="Helvetica,sans-Serif" font-size="10.00">handle_connection</text>
</a>
</g>
</g>
<!-- Node1&#45;&gt;Node2 -->
<g id="edge1_Node000001_Node000002" class="edge">
<title>Node1&#45;&gt;Node2</title>
<g id="a_edge1_Node000001_Node000002"><a xlink:title=" ">
<path fill="none" stroke="#63b8ff" d="M60.72,-284C68.15,-284 76.4,-284 84.73,-284"/>
<polygon fill="#63b8ff" stroke="#63b8ff" points="84.55,-287.5 94.55,-284 84.55,-280.5 84.55,-287.5"/>
</a>
</g>
</g>
<!-- Node3 -->
<g id="Node000003" class="node">
<title>Node3</title>
<g id="a_Node000003"><a xlink:href="espresso_8c.html#a16da648ec46c63111e6d0f16c8c861d3" target="_top" xlink:title=" ">
<polygon fill="white" stroke="#666666" points="307.88,-407.62 247.62,-407.62 247.62,-388.38 307.88,-388.38 307.88,-407.62"/>
<text xml:space="preserve" text-anchor="middle" x="277.75" y="-394.12" font-family="Helvetica,sans-Serif" font-size="10.00">add_client</text>
</a>
</g>
</g>
<!-- Node2&#45;&gt;Node3 -->
<g id="edge2_Node000002_Node000003" class="edge">
<title>Node2&#45;&gt;Node3</title>
<g id="a_edge2_Node000002_Node000003"><a xlink:title=" ">
<path fill="none" stroke="#63b8ff" d="M153.09,-294C166.57,-311.86 196.9,-349.64 229.25,-374 233.54,-377.23 238.34,-380.24 243.19,-382.95"/>
<polygon fill="#63b8ff" stroke="#63b8ff" points="241.24,-385.88 251.73,-387.38 244.47,-379.67 241.24,-385.88"/>
</a>
</g>
</g>
<!-- Node4 -->
<g id="Node000004" class="node">
<title>Node4</title>
<g id="a_Node000004"><a xlink:href="espresso_8c.html#afc4191b175ae67f2d0d5b264caa6d08a" target="_top" xlink:title=" ">
<polygon fill="white" stroke="#666666" points="597.88,-388.62 518.88,-388.62 518.88,-369.38 597.88,-369.38 597.88,-388.62"/>
<text xml:space="preserve" text-anchor="middle" x="558.38" y="-375.12" font-family="Helvetica,sans-Serif" font-size="10.00">allocate_buffer</text>
</a>
</g>
</g>
<!-- Node2&#45;&gt;Node4 -->
<g id="edge3_Node000002_Node000004" class="edge">
<title>Node2&#45;&gt;Node4</title>
<g id="a_edge3_Node000002_Node000004"><a xlink:title=" ">
<path fill="none" stroke="#63b8ff" d="M167.68,-293.99C184.29,-301.24 207.84,-310.81 229.25,-317 325.92,-344.96 442.35,-363.51 507.3,-372.55"/>
<polygon fill="#63b8ff" stroke="#63b8ff" points="506.54,-375.98 516.93,-373.87 507.5,-369.05 506.54,-375.98"/>
</a>
</g>
</g>
<!-- Node5 -->
<g id="Node000005" class="node">
<title>Node5</title>
<g id="a_Node000005"><a xlink:href="espresso_8c.html#a73277811539a2de04ce7e1295fbdba6a" target="_top" xlink:title=" ">
<polygon fill="white" stroke="#666666" points="604.25,-351.62 512.5,-351.62 512.5,-332.38 604.25,-332.38 604.25,-351.62"/>
<text xml:space="preserve" text-anchor="middle" x="558.38" y="-338.12" font-family="Helvetica,sans-Serif" font-size="10.00">close_connection</text>
</a>
</g>
</g>
<!-- Node2&#45;&gt;Node5 -->
<g id="edge4_Node000002_Node000005" class="edge">
<title>Node2&#45;&gt;Node5</title>
<g id="a_edge4_Node000002_Node000005"><a xlink:title=" ">
<path fill="none" stroke="#63b8ff" d="M193.37,-290.71C269.77,-301.48 419.41,-322.56 501.02,-334.06"/>
<polygon fill="#63b8ff" stroke="#63b8ff" points="500.18,-337.47 510.57,-335.4 501.15,-330.54 500.18,-337.47"/>
</a>
</g>
</g>
<!-- Node11 -->
<g id="Node000011" class="node">
<title>Node11</title>
<g id="a_Node000011"><a xlink:href="espresso_8c.html#a919e9a8a992f43f0fd82e87f4d40d2d2" target="_top" xlink:title=" ">
<polygon fill="white" stroke="#666666" points="326.25,-255.62 229.25,-255.62 229.25,-236.38 326.25,-236.38 326.25,-255.62"/>
<text xml:space="preserve" text-anchor="middle" x="277.75" y="-242.12" font-family="Helvetica,sans-Serif" font-size="10.00">handle_client_read</text>
</a>
</g>
</g>
<!-- Node2&#45;&gt;Node11 -->
<g id="edge10_Node000002_Node000011" class="edge">
<title>Node2&#45;&gt;Node11</title>
<g id="a_edge10_Node000002_Node000011"><a xlink:title=" ">
<path fill="none" stroke="#63b8ff" d="M180.51,-273.92C196.18,-269.37 214.89,-263.95 231.62,-259.09"/>
<polygon fill="#63b8ff" stroke="#63b8ff" points="232.2,-262.57 240.83,-256.42 230.25,-255.85 232.2,-262.57"/>
</a>
</g>
</g>
<!-- Node20 -->
<g id="Node000020" class="node">
<title>Node20</title>
<g id="a_Node000020"><a xlink:href="espresso_8c.html#abdcfd909d1360f16c6fedab5aac76f2a" target="_top" xlink:title=" ">
<polygon fill="white" stroke="#666666" points="1010,-163.62 956.5,-163.62 956.5,-144.38 1010,-144.38 1010,-163.62"/>
<text xml:space="preserve" text-anchor="middle" x="983.25" y="-150.12" font-family="Helvetica,sans-Serif" font-size="10.00">log_error</text>
</a>
</g>
</g>
<!-- Node2&#45;&gt;Node20 -->
<g id="edge38_Node000002_Node000020" class="edge">
<title>Node2&#45;&gt;Node20</title>
<g id="a_edge38_Node000002_Node000020"><a xlink:title=" ">
<path fill="none" stroke="#63b8ff" d="M149.43,-273.89C168.58,-223.3 261.86,0 416.5,0 416.5,0 416.5,0 707.75,0 797.53,0 821.5,-21.8 897.25,-70 925.42,-87.93 951.77,-116.51 967.45,-135.27"/>
<polygon fill="#63b8ff" stroke="#63b8ff" points="964.64,-137.37 973.67,-142.9 970.06,-132.94 964.64,-137.37"/>
</a>
</g>
</g>
<!-- Node24 -->
<g id="Node000024" class="node">
<title>Node24</title>
<g id="a_Node000024"><a xlink:href="espresso_8c.html#a015718d876f3d5394b1ab3d6e39e989f" target="_top" xlink:title=" ">
<polygon fill="white" stroke="#666666" points="472.75,-85.62 362.25,-85.62 362.25,-66.38 472.75,-66.38 472.75,-85.62"/>
<text xml:space="preserve" text-anchor="middle" x="417.5" y="-72.12" font-family="Helvetica,sans-Serif" font-size="10.00">handle_client_timeout</text>
</a>
</g>
</g>
<!-- Node2&#45;&gt;Node24 -->
<g id="edge35_Node000002_Node000024" class="edge">
<title>Node2&#45;&gt;Node24</title>
<g id="a_edge35_Node000002_Node000024"><a xlink:title=" ">
<path fill="none" stroke="#63b8ff" d="M155.3,-274.07C184.18,-244.45 274.09,-155.33 362.25,-100 367.59,-96.65 373.48,-93.52 379.36,-90.71"/>
<polygon fill="#63b8ff" stroke="#63b8ff" points="380.73,-93.94 388.4,-86.63 377.85,-87.55 380.73,-93.94"/>
</a>
</g>
</g>
<!-- Node6 -->
<g id="Node000006" class="node">
<title>Node6</title>
<g id="a_Node000006"><a xlink:href="espresso_8c.html#aaf78724518167158b66ec656312fabd2" target="_top" xlink:title=" ">
<polygon fill="white" stroke="#666666" points="769.5,-351.62 644,-351.62 644,-332.38 769.5,-332.38 769.5,-351.62"/>
<text xml:space="preserve" text-anchor="middle" x="706.75" y="-338.12" font-family="Helvetica,sans-Serif" font-size="10.00">handle_connection_close</text>
</a>
</g>
</g>
<!-- Node5&#45;&gt;Node6 -->
<g id="edge5_Node000005_Node000006" class="edge">
<title>Node5&#45;&gt;Node6</title>
<g id="a_edge5_Node000005_Node000006"><a xlink:title=" ">
<path fill="none" stroke="#63b8ff" d="M604.49,-342C613.27,-342 622.68,-342 632.1,-342"/>
<polygon fill="#63b8ff" stroke="#63b8ff" points="632.05,-345.5 642.05,-342 632.05,-338.5 632.05,-345.5"/>
</a>
</g>
</g>
<!-- Node7 -->
<g id="Node000007" class="node">
<title>Node7</title>
<g id="a_Node000007"><a xlink:href="espresso_8c.html#a1804ce3a25646fd9c6c6ad98d45c6efa" target="_top" xlink:title=" ">
<polygon fill="white" stroke="#666666" points="897.25,-351.62 805.5,-351.62 805.5,-332.38 897.25,-332.38 897.25,-351.62"/>
<text xml:space="preserve" text-anchor="middle" x="851.38" y="-338.12" font-family="Helvetica,sans-Serif" font-size="10.00">endpoint_cleanup</text>
</a>
</g>
</g>
<!-- Node6&#45;&gt;Node7 -->
<g id="edge6_Node000006_Node000007" class="edge">
<title>Node6&#45;&gt;Node7</title>
<g id="a_edge6_Node000006_Node000007"><a xlink:title=" ">
<path fill="none" stroke="#63b8ff" d="M769.89,-342C777.86,-342 785.99,-342 793.86,-342"/>
<polygon fill="#63b8ff" stroke="#63b8ff" points="793.65,-345.5 803.65,-342 793.65,-338.5 793.65,-345.5"/>
</a>
</g>
</g>
<!-- Node10 -->
<g id="Node000010" class="node">
<title>Node10</title>
<g id="a_Node000010"><a xlink:href="espresso_8c.html#a837cf67658f96fc262c83a4882f96f45" target="_top" xlink:title=" ">
<polygon fill="white" stroke="#666666" points="889.75,-388.62 813,-388.62 813,-369.38 889.75,-369.38 889.75,-388.62"/>
<text xml:space="preserve" text-anchor="middle" x="851.38" y="-375.12" font-family="Helvetica,sans-Serif" font-size="10.00">remove_client</text>
</a>
</g>
</g>
<!-- Node6&#45;&gt;Node10 -->
<g id="edge9_Node000006_Node000010" class="edge">
<title>Node6&#45;&gt;Node10</title>
<g id="a_edge9_Node000006_Node000010"><a xlink:title=" ">
<path fill="none" stroke="#63b8ff" d="M746.72,-352.11C763.8,-356.54 784.01,-361.78 802.03,-366.46"/>
<polygon fill="#63b8ff" stroke="#63b8ff" points="800.9,-369.78 811.46,-368.9 802.66,-363.01 800.9,-369.78"/>
</a>
</g>
</g>
<!-- Node8 -->
<g id="Node000008" class="node">
<title>Node8</title>
<g id="a_Node000008"><a xlink:href="espresso_8c.html#a713520bedc85cf92de9f221038f1b737" target="_top" xlink:title=" ">
<polygon fill="white" stroke="#666666" points="1033.25,-351.62 933.25,-351.62 933.25,-332.38 1033.25,-332.38 1033.25,-351.62"/>
<text xml:space="preserve" text-anchor="middle" x="983.25" y="-338.12" font-family="Helvetica,sans-Serif" font-size="10.00">handle_timer_close</text>
</a>
</g>
</g>
<!-- Node7&#45;&gt;Node8 -->
<g id="edge7_Node000007_Node000008" class="edge">
<title>Node7&#45;&gt;Node8</title>
<g id="a_edge7_Node000007_Node000008"><a xlink:title=" ">
<path fill="none" stroke="#63b8ff" d="M897.43,-342C905.2,-342 913.39,-342 921.49,-342"/>
<polygon fill="#63b8ff" stroke="#63b8ff" points="921.32,-345.5 931.32,-342 921.32,-338.5 921.32,-345.5"/>
</a>
</g>
</g>
<!-- Node9 -->
<g id="Node000009" class="node">
<title>Node9</title>
<g id="a_Node000009"><a xlink:href="espresso_8c.html#aff314ce54a1f87e10d08bf4ddeeaf537" target="_top" xlink:title=" ">
<polygon fill="white" stroke="#666666" points="1026.88,-313.62 939.62,-313.62 939.62,-294.38 1026.88,-294.38 1026.88,-313.62"/>
<text xml:space="preserve" text-anchor="middle" x="983.25" y="-300.12" font-family="Helvetica,sans-Serif" font-size="10.00">request_cleanup</text>
</a>
</g>
</g>
<!-- Node7&#45;&gt;Node9 -->
<g id="edge8_Node000007_Node000009" class="edge">
<title>Node7&#45;&gt;Node9</title>
<g id="a_edge8_Node000007_Node000009"><a xlink:title=" ">
<path fill="none" stroke="#63b8ff" d="M886.84,-331.92C902.22,-327.41 920.56,-322.05 937.03,-317.23"/>
<polygon fill="#63b8ff" stroke="#63b8ff" points="938.01,-320.59 946.62,-314.42 936.04,-313.87 938.01,-320.59"/>
</a>
</g>
</g>
<!-- Node11&#45;&gt;Node5 -->
<g id="edge11_Node000011_Node000005" class="edge">
<title>Node11&#45;&gt;Node5</title>
<g id="a_edge11_Node000011_Node000005"><a xlink:title=" ">
<path fill="none" stroke="#63b8ff" d="M313,-256.12C351.96,-267.83 417.36,-288.05 472.75,-308 489.53,-314.04 507.93,-321.35 523.28,-327.64"/>
<polygon fill="#63b8ff" stroke="#63b8ff" points="521.86,-330.85 532.44,-331.43 524.54,-324.38 521.86,-330.85"/>
</a>
</g>
</g>
<!-- Node12 -->
<g id="Node000012" class="node">
<title>Node12</title>
<g id="a_Node000012"><a xlink:href="espresso_8c.html#a2a7b96459e0adac1061eaec6a5722075" target="_top" xlink:title=" ">
<polygon fill="white" stroke="#666666" points="454.38,-255.62 380.62,-255.62 380.62,-236.38 454.38,-236.38 454.38,-255.62"/>
<text xml:space="preserve" text-anchor="middle" x="417.5" y="-242.12" font-family="Helvetica,sans-Serif" font-size="10.00">handle_buffer</text>
</a>
</g>
</g>
<!-- Node11&#45;&gt;Node12 -->
<g id="edge12_Node000011_Node000012" class="edge">
<title>Node11&#45;&gt;Node12</title>
<g id="a_edge12_Node000011_Node000012"><a xlink:title=" ">
<path fill="none" stroke="#63b8ff" d="M326.54,-239.54C340.38,-239.15 355.48,-239.15 369.29,-239.56"/>
<polygon fill="#63b8ff" stroke="#63b8ff" points="368.88,-243.04 379.01,-239.93 369.15,-236.05 368.88,-243.04"/>
</a>
</g>
</g>
<!-- Node21 -->
<g id="Node000021" class="node">
<title>Node21</title>
<g id="a_Node000021"><a xlink:href="espresso_8c.html#a142b429010a8046d339d36552bd20f7e" target="_top" xlink:title=" ">
<polygon fill="white" stroke="#666666" points="747.75,-123.62 665.75,-123.62 665.75,-104.38 747.75,-104.38 747.75,-123.62"/>
<text xml:space="preserve" text-anchor="middle" x="706.75" y="-110.12" font-family="Helvetica,sans-Serif" font-size="10.00">send_message</text>
</a>
</g>
</g>
<!-- Node11&#45;&gt;Node21 -->
<g id="edge34_Node000011_Node000021" class="edge">
<title>Node11&#45;&gt;Node21</title>
<g id="a_edge34_Node000011_Node000021"><a xlink:title=" ">
<path fill="none" stroke="#63b8ff" d="M293.53,-235.96C328.86,-212.54 421.78,-154.45 508.75,-130 556.7,-116.52 613.62,-113.18 653.91,-112.82"/>
<polygon fill="#63b8ff" stroke="#63b8ff" points="653.83,-116.32 663.82,-112.8 653.81,-109.32 653.83,-116.32"/>
</a>
</g>
</g>
<!-- Node12&#45;&gt;Node4 -->
<g id="edge13_Node000012_Node000004" class="edge">
<title>Node12&#45;&gt;Node4</title>
<g id="a_edge13_Node000012_Node000004"><a xlink:title=" ">
<path fill="none" stroke="#63b8ff" d="M423.68,-255.81C435.72,-277.73 467.73,-331.1 508.75,-361 510.09,-361.98 511.49,-362.91 512.93,-363.79"/>
<polygon fill="#63b8ff" stroke="#63b8ff" points="511.1,-366.78 521.59,-368.29 514.33,-360.57 511.1,-366.78"/>
</a>
</g>
</g>
<!-- Node12&#45;&gt;Node5 -->
<g id="edge14_Node000012_Node000005" class="edge">
<title>Node12&#45;&gt;Node5</title>
<g id="a_edge14_Node000012_Node000005"><a xlink:title=" ">
<path fill="none" stroke="#63b8ff" d="M448.48,-256.03C456.83,-259.66 465.58,-264.29 472.75,-270 493.62,-286.6 488.23,-300.97 508.75,-318 512.6,-321.2 516.95,-324.1 521.43,-326.7"/>
<polygon fill="#63b8ff" stroke="#63b8ff" points="519.46,-329.62 529.94,-331.18 522.72,-323.42 519.46,-329.62"/>
</a>
</g>
</g>
<!-- Node12&#45;&gt;Node9 -->
<g id="edge32_Node000012_Node000009" class="edge">
<title>Node12&#45;&gt;Node9</title>
<g id="a_edge32_Node000012_Node000009"><a xlink:title=" ">
<path fill="none" stroke="#63b8ff" d="M444.73,-256.11C470.17,-265.88 505.43,-279.31 508.75,-280 657.97,-311.1 839.08,-309.76 927.85,-306.65"/>
<polygon fill="#63b8ff" stroke="#63b8ff" points="927.87,-310.15 937.73,-306.27 927.61,-303.15 927.87,-310.15"/>
</a>
</g>
</g>
<!-- Node12&#45;&gt;Node11 -->
<g id="edge16_Node000012_Node000011" class="edge">
<title>Node12&#45;&gt;Node11</title>
<g id="a_edge16_Node000012_Node000011"><a xlink:title=" ">
<path fill="none" stroke="#63b8ff" d="M380.52,-252.01C367.51,-252.64 352.46,-252.87 337.98,-252.69"/>
<polygon fill="#63b8ff" stroke="#63b8ff" points="338.12,-249.19 328.05,-252.49 337.98,-256.19 338.12,-249.19"/>
</a>
</g>
</g>
<!-- Node13 -->
<g id="Node000013" class="node">
<title>Node13</title>
<g id="a_Node000013"><a xlink:href="espresso_8c.html#aca61aa31ed57abce18d1d3cffd0d47e3" target="_top" xlink:title=" ">
<polygon fill="white" stroke="#666666" points="764.62,-237.62 648.88,-237.62 648.88,-218.38 764.62,-218.38 764.62,-237.62"/>
<text xml:space="preserve" text-anchor="middle" x="706.75" y="-224.12" font-family="Helvetica,sans-Serif" font-size="10.00">generate_allow_header</text>
</a>
</g>
</g>
<!-- Node12&#45;&gt;Node13 -->
<g id="edge15_Node000012_Node000013" class="edge">
<title>Node12&#45;&gt;Node13</title>
<g id="a_edge15_Node000012_Node000013"><a xlink:title=" ">
<path fill="none" stroke="#63b8ff" d="M454.59,-243.74C500.29,-240.87 579.97,-235.88 637.35,-232.29"/>
<polygon fill="#63b8ff" stroke="#63b8ff" points="637.24,-235.8 647,-231.68 636.8,-228.81 637.24,-235.8"/>
</a>
</g>
</g>
<!-- Node14 -->
<g id="Node000014" class="node">
<title>Node14</title>
<g id="a_Node000014"><a xlink:href="espresso_8c.html#a041948e0d9b16b9c852053d3fb3f2a69" target="_top" xlink:title="ONLY FOR UNIT TESTS.">
<polygon fill="white" stroke="#666666" points="601.62,-199.62 515.12,-199.62 515.12,-180.38 601.62,-180.38 601.62,-199.62"/>
<text xml:space="preserve" text-anchor="middle" x="558.38" y="-186.12" font-family="Helvetica,sans-Serif" font-size="10.00">handle_endpoint</text>
</a>
</g>
</g>
<!-- Node12&#45;&gt;Node14 -->
<g id="edge17_Node000012_Node000014" class="edge">
<title>Node12&#45;&gt;Node14</title>
<g id="a_edge17_Node000012_Node000014"><a xlink:title=" ">
<path fill="none" stroke="#63b8ff" d="M443.33,-235.99C465.21,-227.16 497.35,-214.21 521.93,-204.29"/>
<polygon fill="#63b8ff" stroke="#63b8ff" points="522.92,-207.67 530.89,-200.68 520.31,-201.17 522.92,-207.67"/>
</a>
</g>
</g>
<!-- Node12&#45;&gt;Node20 -->
<g id="edge28_Node000012_Node000020" class="edge">
<title>Node12&#45;&gt;Node20</title>
<g id="a_edge28_Node000012_Node000020"><a xlink:title=" ">
<path fill="none" stroke="#63b8ff" d="M454.68,-251.27C518.97,-259.49 656.92,-271.99 769.5,-247 840.15,-231.32 916.35,-191.89 955.56,-169.74"/>
<polygon fill="#63b8ff" stroke="#63b8ff" points="957.13,-172.87 964.07,-164.86 953.65,-166.8 957.13,-172.87"/>
</a>
</g>
</g>
<!-- Node12&#45;&gt;Node21 -->
<g id="edge33_Node000012_Node000021" class="edge">
<title>Node12&#45;&gt;Node21</title>
<g id="a_edge33_Node000012_Node000021"><a xlink:title=" ">
<path fill="none" stroke="#63b8ff" d="M427.79,-235.97C443.15,-219.96 475.45,-188.65 508.75,-171 555.04,-146.46 613.21,-131.29 654.31,-122.84"/>
<polygon fill="#63b8ff" stroke="#63b8ff" points="654.81,-126.31 663.94,-120.92 653.45,-119.44 654.81,-126.31"/>
</a>
</g>
</g>
<!-- Node23 -->
<g id="Node000023" class="node">
<title>Node23</title>
<g id="a_Node000023"><a xlink:href="espresso_8c.html#a529711d7a64d90d49fb6a0c3870c5b61" target="_top" xlink:title="ONLY FOR UNIT TESTS.">
<polygon fill="white" stroke="#666666" points="608,-85.62 508.75,-85.62 508.75,-66.38 608,-66.38 608,-85.62"/>
<text xml:space="preserve" text-anchor="middle" x="558.38" y="-72.12" font-family="Helvetica,sans-Serif" font-size="10.00">parse_http_request</text>
</a>
</g>
</g>
<!-- Node12&#45;&gt;Node23 -->
<g id="edge29_Node000012_Node000023" class="edge">
<title>Node12&#45;&gt;Node23</title>
<g id="a_edge29_Node000012_Node000023"><a xlink:title=" ">
<path fill="none" stroke="#63b8ff" d="M426.36,-236.37C448.7,-209.03 512.79,-130.58 542.24,-94.53"/>
<polygon fill="#63b8ff" stroke="#63b8ff" points="544.68,-97.08 548.29,-87.12 539.26,-92.65 544.68,-97.08"/>
</a>
</g>
</g>
<!-- Node14&#45;&gt;Node13 -->
<g id="edge19_Node000014_Node000013" class="edge">
<title>Node14&#45;&gt;Node13</title>
<g id="a_edge19_Node000014_Node000013"><a xlink:title=" ">
<path fill="none" stroke="#63b8ff" d="M598.22,-200.08C615.9,-204.68 637.05,-210.17 655.9,-215.06"/>
<polygon fill="#63b8ff" stroke="#63b8ff" points="654.96,-218.43 665.52,-217.56 656.72,-211.65 654.96,-218.43"/>
</a>
</g>
</g>
<!-- Node15 -->
<g id="Node000015" class="node">
<title>Node15</title>
<g id="a_Node000015"><a xlink:href="espresso_8c.html#a04c27c6493696fb67ab9b8f5296c14f1" target="_top" xlink:title="ONLY FOR UNIT TESTS.">
<polygon fill="white" stroke="#666666" points="748.12,-200.62 665.38,-200.62 665.38,-181.38 748.12,-181.38 748.12,-200.62"/>
<text xml:space="preserve" text-anchor="middle" x="706.75" y="-187.12" font-family="Helvetica,sans-Serif" font-size="10.00">compare_paths</text>
</a>
</g>
</g>
<!-- Node14&#45;&gt;Node15 -->
<g id="edge18_Node000014_Node000015" class="edge">
<title>Node14&#45;&gt;Node15</title>
<g id="a_edge18_Node000014_Node000015"><a xlink:title=" ">
<path fill="none" stroke="#63b8ff" d="M602.11,-190.29C618.29,-190.4 636.88,-190.53 653.82,-190.65"/>
<polygon fill="#63b8ff" stroke="#63b8ff" points="653.69,-194.14 663.71,-190.71 653.74,-187.14 653.69,-194.14"/>
</a>
</g>
</g>
<!-- Node16 -->
<g id="Node000016" class="node">
<title>Node16</title>
<g id="a_Node000016"><a xlink:href="espresso_8c.html#a260a9eca1b37d7151fd585fde9e355b8" target="_top" xlink:title="ONLY FOR UNIT TESTS.">
<polygon fill="white" stroke="#666666" points="759.75,-163.62 653.75,-163.62 653.75,-144.38 759.75,-144.38 759.75,-163.62"/>
<text xml:space="preserve" text-anchor="middle" x="706.75" y="-150.12" font-family="Helvetica,sans-Serif" font-size="10.00">parse_query_params</text>
</a>
</g>
</g>
<!-- Node14&#45;&gt;Node16 -->
<g id="edge20_Node000014_Node000016" class="edge">
<title>Node14&#45;&gt;Node16</title>
<g id="a_edge20_Node000014_Node000016"><a xlink:title=" ">
<path fill="none" stroke="#63b8ff" d="M600.54,-179.88C616.98,-175.83 636.1,-171.13 653.5,-166.85"/>
<polygon fill="#63b8ff" stroke="#63b8ff" points="654.3,-170.26 663.17,-164.47 652.63,-163.46 654.3,-170.26"/>
</a>
</g>
</g>
<!-- Node14&#45;&gt;Node21 -->
<g id="edge26_Node000014_Node000021" class="edge">
<title>Node14&#45;&gt;Node21</title>
<g id="a_edge26_Node000014_Node000021"><a xlink:title=" ">
<path fill="none" stroke="#63b8ff" d="M582.79,-179.91C591.01,-175.99 600.15,-171.2 608,-166 625.61,-154.35 625.67,-145.48 644,-135 648.38,-132.5 653.1,-130.23 657.91,-128.19"/>
<polygon fill="#63b8ff" stroke="#63b8ff" points="659.03,-131.52 667.09,-124.64 656.5,-124.99 659.03,-131.52"/>
</a>
</g>
</g>
<!-- Node17 -->
<g id="Node000017" class="node">
<title>Node17</title>
<g id="a_Node000017"><a xlink:href="espresso_8c.html#a2d9a0717a9389e6d178d0f4a8c2ef185" target="_top" xlink:title=" ">
<polygon fill="white" stroke="#666666" points="889.38,-275.62 813.38,-275.62 813.38,-256.38 889.38,-256.38 889.38,-275.62"/>
<text xml:space="preserve" text-anchor="middle" x="851.38" y="-262.12" font-family="Helvetica,sans-Serif" font-size="10.00">append_query</text>
</a>
</g>
</g>
<!-- Node16&#45;&gt;Node17 -->
<g id="edge21_Node000016_Node000017" class="edge">
<title>Node16&#45;&gt;Node17</title>
<g id="a_edge21_Node000016_Node000017"><a xlink:title=" ">
<path fill="none" stroke="#63b8ff" d="M753.59,-164.09C759.17,-166.25 764.62,-168.86 769.5,-172 799.54,-191.34 824.62,-225.11 838.55,-246.47"/>
<polygon fill="#63b8ff" stroke="#63b8ff" points="835.52,-248.23 843.81,-254.83 841.44,-244.5 835.52,-248.23"/>
</a>
</g>
</g>
<!-- Node16&#45;&gt;Node20 -->
<g id="edge25_Node000016_Node000020" class="edge">
<title>Node16&#45;&gt;Node20</title>
<g id="a_edge25_Node000016_Node000020"><a xlink:title=" ">
<path fill="none" stroke="#63b8ff" d="M760.03,-154C814.09,-154 897.15,-154 944.93,-154"/>
<polygon fill="#63b8ff" stroke="#63b8ff" points="944.77,-157.5 954.77,-154 944.77,-150.5 944.77,-157.5"/>
</a>
</g>
</g>
<!-- Node18 -->
<g id="Node000018" class="node">
<title>Node18</title>
<g id="a_Node000018"><a xlink:href="espresso_8c.html#a755a65a488e1158eee3fdab0ecada8fe" target="_top" xlink:title=" ">
<polygon fill="white" stroke="#666666" points="1021.25,-275.62 945.25,-275.62 945.25,-256.38 1021.25,-256.38 1021.25,-275.62"/>
<text xml:space="preserve" text-anchor="middle" x="983.25" y="-262.12" font-family="Helvetica,sans-Serif" font-size="10.00">decode_query</text>
</a>
</g>
</g>
<!-- Node17&#45;&gt;Node18 -->
<g id="edge22_Node000017_Node000018" class="edge">
<title>Node17&#45;&gt;Node18</title>
<g id="a_edge22_Node000017_Node000018"><a xlink:title=" ">
<path fill="none" stroke="#63b8ff" d="M889.59,-266C903.31,-266 919.07,-266 933.65,-266"/>
<polygon fill="#63b8ff" stroke="#63b8ff" points="933.51,-269.5 943.51,-266 933.51,-262.5 933.51,-269.5"/>
</a>
</g>
</g>
<!-- Node17&#45;&gt;Node20 -->
<g id="edge24_Node000017_Node000020" class="edge">
<title>Node17&#45;&gt;Node20</title>
<g id="a_edge24_Node000017_Node000020"><a xlink:title=" ">
<path fill="none" stroke="#63b8ff" d="M874.2,-256.06C881.81,-252.15 890.2,-247.33 897.25,-242 924.65,-221.3 951.35,-191.65 967.3,-172.6"/>
<polygon fill="#63b8ff" stroke="#63b8ff" points="969.8,-175.07 973.45,-165.12 964.4,-170.62 969.8,-175.07"/>
</a>
</g>
</g>
<!-- Node19 -->
<g id="Node000019" class="node">
<title>Node19</title>
<g id="a_Node000019"><a xlink:href="espresso_8c.html#af4a5274d4719dec853dd32e1d8687553" target="_top" xlink:title=" ">
<polygon fill="white" stroke="#666666" points="1129.5,-275.62 1069.25,-275.62 1069.25,-256.38 1129.5,-256.38 1129.5,-275.62"/>
<text xml:space="preserve" text-anchor="middle" x="1099.38" y="-262.12" font-family="Helvetica,sans-Serif" font-size="10.00">hex_to_int</text>
</a>
</g>
</g>
<!-- Node18&#45;&gt;Node19 -->
<g id="edge23_Node000018_Node000019" class="edge">
<title>Node18&#45;&gt;Node19</title>
<g id="a_edge23_Node000018_Node000019"><a xlink:title=" ">
<path fill="none" stroke="#63b8ff" d="M1021.62,-266C1033.13,-266 1045.85,-266 1057.57,-266"/>
<polygon fill="#63b8ff" stroke="#63b8ff" points="1057.37,-269.5 1067.37,-266 1057.37,-262.5 1057.37,-269.5"/>
</a>
</g>
</g>
<!-- Node22 -->
<g id="Node000022" class="node">
<title>Node22</title>
<g id="a_Node000022"><a xlink:href="espresso_8c.html#a5fa30991ad104ba1fe0001e7aefe95ac" target="_top" xlink:title=" ">
<polygon fill="white" stroke="#666666" points="897.25,-123.62 805.5,-123.62 805.5,-104.38 897.25,-104.38 897.25,-123.62"/>
<text xml:space="preserve" text-anchor="middle" x="851.38" y="-110.12" font-family="Helvetica,sans-Serif" font-size="10.00">handle_write_end</text>
</a>
</g>
</g>
<!-- Node21&#45;&gt;Node22 -->
<g id="edge27_Node000021_Node000022" class="edge">
<title>Node21&#45;&gt;Node22</title>
<g id="a_edge27_Node000021_Node000022"><a xlink:title=" ">
<path fill="none" stroke="#63b8ff" d="M748.24,-114C762.35,-114 778.45,-114 793.64,-114"/>
<polygon fill="#63b8ff" stroke="#63b8ff" points="793.5,-117.5 803.5,-114 793.5,-110.5 793.5,-117.5"/>
</a>
</g>
</g>
<!-- Node23&#45;&gt;Node20 -->
<g id="edge30_Node000023_Node000020" class="edge">
<title>Node23&#45;&gt;Node20</title>
<g id="a_edge30_Node000023_Node000020"><a xlink:title=" ">
<path fill="none" stroke="#63b8ff" d="M608.24,-70.62C675.39,-65.02 799.06,-61.21 897.25,-95 922.67,-103.75 947.41,-122.43 963.58,-136.44"/>
<polygon fill="#63b8ff" stroke="#63b8ff" points="961.15,-138.96 970.93,-143.03 965.82,-133.74 961.15,-138.96"/>
</a>
</g>
</g>
<!-- Node23&#45;&gt;Node21 -->
<g id="edge31_Node000023_Node000021" class="edge">
<title>Node23&#45;&gt;Node21</title>
<g id="a_edge31_Node000023_Node000021"><a xlink:title=" ">
<path fill="none" stroke="#63b8ff" d="M598.22,-86.08C615.9,-90.68 637.05,-96.17 655.9,-101.06"/>
<polygon fill="#63b8ff" stroke="#63b8ff" points="654.96,-104.43 665.52,-103.56 656.72,-97.65 654.96,-104.43"/>
</a>
</g>
</g>
<!-- Node24&#45;&gt;Node5 -->
<g id="edge36_Node000024_Node000005" class="edge">
<title>Node24&#45;&gt;Node5</title>
<g id="a_edge36_Node000024_Node000005"><a xlink:title=" ">
<path fill="none" stroke="#63b8ff" d="M423.77,-86.1C444.31,-125.44 519.16,-268.81 546.92,-321.98"/>
<polygon fill="#63b8ff" stroke="#63b8ff" points="543.66,-323.3 551.39,-330.55 549.87,-320.06 543.66,-323.3"/>
</a>
</g>
</g>
<!-- Node24&#45;&gt;Node21 -->
<g id="edge37_Node000024_Node000021" class="edge">
<title>Node24&#45;&gt;Node21</title>
<g id="a_edge37_Node000024_Node000021"><a xlink:title=" ">
<path fill="none" stroke="#63b8ff" d="M450.25,-65.95C488.36,-55.45 553.9,-42.38 608,-57 636.61,-64.73 665.45,-83.15 684.32,-96.97"/>
<polygon fill="#63b8ff" stroke="#63b8ff" points="682.16,-99.73 692.25,-102.98 686.39,-94.15 682.16,-99.73"/>
</a>
</g>
</g>
</g>
</svg>
