<?xml version="1.0" encoding="UTF-8" standalone="no"?>
<!DOCTYPE svg PUBLIC "-//W3C//DTD SVG 1.1//EN"
 "http://www.w3.org/Graphics/SVG/1.1/DTD/svg11.dtd">
<!-- Generated by graphviz version 14.0.5 (0)
 -->
<!-- Title: create_app Pages: 1 -->
<svg width="292pt" height="27pt"
 viewBox="0.00 0.00 292.00 27.00" xmlns="http://www.w3.org/2000/svg" xmlns:xlink="http://www.w3.org/1999/xlink">
<g id="graph0" class="graph" transform="scale(1 1) rotate(0) translate(4 23.25)">
<title>create_app</title>
<!-- Node1 -->
<g id="Node000001" class="node">
<title>Node1</title>
<g id="a_Node000001"><a xlink:title="Creates a new Espresso app on the specified port.">
<polygon fill="#999999" stroke="#666666" points="64,-19.25 0,-19.25 0,0 64,0 64,-19.25"/>
<text xml:space="preserve" text-anchor="middle" x="32" y="-5.75" font-family="Helvetica,sans-Serif" font-size="10.00">create_app</text>
</a>
</g>
</g>
<!-- Node2 -->
<g id="Node000002" class="node">
<title>Node2</title>
<g id="a_Node000002"><a xlink:href="espresso_8c.html#a1f2696ccccf441f76c9f5161fb903db5" target="_top" xlink:title=" ">
<polygon fill="white" stroke="#666666" points="188,-19.25 100,-19.25 100,0 188,0 188,-19.25"/>
<text xml:space="preserve" text-anchor="middle" x="144" y="-5.75" font-family="Helvetica,sans-Serif" font-size="10.00">lib_handle_sigint</text>
</a>
</g>
</g>
<!-- Node1&#45;&gt;Node2 -->
<g id="edge1_Node000001_Node000002" class="edge">
<title>Node1&#45;&gt;Node2</title>
<g id="a_edge1_Node000001_Node000002"><a xlink:title=" ">
<path fill="none" stroke="#63b8ff" d="M64.23,-9.62C71.83,-9.62 80.17,-9.62 88.51,-9.62"/>
<polygon fill="#63b8ff" stroke="#63b8ff" points="88.27,-13.13 98.27,-9.63 88.27,-6.13 88.27,-13.13"/>
</a>
</g>
</g>
<!-- Node3 -->
<g id="Node000003" class="node">
<title>Node3</title>
<g id="a_Node000003"><a xlink:href="espresso_8c.html#a3489a7e521f0aceb3e050ca4b9f165d7" target="_top" xlink:title="Closes the app and frees resources.">
<polygon fill="white" stroke="#666666" points="284.25,-19.25 224,-19.25 224,0 284.25,0 284.25,-19.25"/>
<text xml:space="preserve" text-anchor="middle" x="254.12" y="-5.75" font-family="Helvetica,sans-Serif" font-size="10.00">app_close</text>
</a>
</g>
</g>
<!-- Node2&#45;&gt;Node3 -->
<g id="edge2_Node000002_Node000003" class="edge">
<title>Node2&#45;&gt;Node3</title>
<g id="a_edge2_Node000002_Node000003"><a xlink:title=" ">
<path fill="none" stroke="#63b8ff" d="M188.36,-9.62C196.24,-9.62 204.43,-9.62 212.24,-9.62"/>
<polygon fill="#63b8ff" stroke="#63b8ff" points="212.18,-13.13 222.18,-9.63 212.18,-6.13 212.18,-13.13"/>
</a>
</g>
</g>
</g>
</svg>
