<?xml version="1.0" encoding="UTF-8" standalone="no"?>
<!DOCTYPE svg PUBLIC "-//W3C//DTD SVG 1.1//EN"
 "http://www.w3.org/Graphics/SVG/1.1/DTD/svg11.dtd">
<!-- Generated by graphviz version 14.0.5 (0)
 -->
<!-- Title: send_json_response Pages: 1 -->
<svg width="398pt" height="64pt"
 viewBox="0.00 0.00 398.00 64.00" xmlns="http://www.w3.org/2000/svg" xmlns:xlink="http://www.w3.org/1999/xlink">
<g id="graph0" class="graph" transform="scale(1 1) rotate(0) translate(4 60.25)">
<title>send_json_response</title>
<!-- Node1 -->
<g id="Node000001" class="node">
<title>Node1</title>
<g id="a_Node000001"><a xlink:title="Sends JSON response.">
<polygon fill="#999999" stroke="#666666" points="105.25,-37.25 0,-37.25 0,-18 105.25,-18 105.25,-37.25"/>
<text xml:space="preserve" text-anchor="middle" x="52.62" y="-23.75" font-family="Helvetica,sans-Serif" font-size="10.00">send_json_response</text>
</a>
</g>
</g>
<!-- Node2 -->
<g id="Node000002" class="node">
<title>Node2</title>
<g id="a_Node000002"><a xlink:href="espresso_8c.html#a61c64a500ef217b0825333b9f35234e3" target="_top" xlink:title=" ">
<polygon fill="white" stroke="#666666" points="262.25,-56.25 141.25,-56.25 141.25,-37 262.25,-37 262.25,-56.25"/>
<text xml:space="preserve" text-anchor="middle" x="201.75" y="-42.75" font-family="Helvetica,sans-Serif" font-size="10.00">build_response_headers</text>
</a>
</g>
</g>
<!-- Node1&#45;&gt;Node2 -->
<g id="edge1_Node000001_Node000002" class="edge">
<title>Node1&#45;&gt;Node2</title>
<g id="a_edge1_Node000001_Node000002"><a xlink:title=" ">
<path fill="none" stroke="#63b8ff" d="M105.5,-34.32C113.26,-35.33 121.37,-36.37 129.45,-37.42"/>
<polygon fill="#63b8ff" stroke="#63b8ff" points="128.93,-40.88 139.3,-38.69 129.83,-33.94 128.93,-40.88"/>
</a>
</g>
</g>
<!-- Node3 -->
<g id="Node000003" class="node">
<title>Node3</title>
<g id="a_Node000003"><a xlink:href="espresso_8c.html#a142b429010a8046d339d36552bd20f7e" target="_top" xlink:title=" ">
<polygon fill="white" stroke="#666666" points="242.75,-19.25 160.75,-19.25 160.75,0 242.75,0 242.75,-19.25"/>
<text xml:space="preserve" text-anchor="middle" x="201.75" y="-5.75" font-family="Helvetica,sans-Serif" font-size="10.00">send_message</text>
</a>
</g>
</g>
<!-- Node1&#45;&gt;Node3 -->
<g id="edge2_Node000001_Node000003" class="edge">
<title>Node1&#45;&gt;Node3</title>
<g id="a_edge2_Node000001_Node000003"><a xlink:title=" ">
<path fill="none" stroke="#63b8ff" d="M105.5,-21.28C119.73,-19.54 135.15,-17.65 149.35,-15.91"/>
<polygon fill="#63b8ff" stroke="#63b8ff" points="149.43,-19.43 158.93,-14.74 148.58,-12.48 149.43,-19.43"/>
</a>
</g>
</g>
<!-- Node4 -->
<g id="Node000004" class="node">
<title>Node4</title>
<g id="a_Node000004"><a xlink:href="espresso_8c.html#a5fa30991ad104ba1fe0001e7aefe95ac" target="_top" xlink:title=" ">
<polygon fill="white" stroke="#666666" points="390,-19.25 298.25,-19.25 298.25,0 390,0 390,-19.25"/>
<text xml:space="preserve" text-anchor="middle" x="344.12" y="-5.75" font-family="Helvetica,sans-Serif" font-size="10.00">handle_write_end</text>
</a>
</g>
</g>
<!-- Node3&#45;&gt;Node4 -->
<g id="edge3_Node000003_Node000004" class="edge">
<title>Node3&#45;&gt;Node4</title>
<g id="a_edge3_Node000003_Node000004"><a xlink:title=" ">
<path fill="none" stroke="#63b8ff" d="M242.98,-9.62C256.53,-9.62 271.92,-9.62 286.49,-9.62"/>
<polygon fill="#63b8ff" stroke="#63b8ff" points="286.44,-13.13 296.44,-9.63 286.44,-6.13 286.44,-13.13"/>
</a>
</g>
</g>
</g>
</svg>
