<?xml version="1.0" encoding="UTF-8" standalone="no"?>
<!DOCTYPE svg PUBLIC "-//W3C//DTD SVG 1.1//EN"
 "http://www.w3.org/Graphics/SVG/1.1/DTD/svg11.dtd">
<!-- Generated by graphviz version 14.0.5 (0)
 -->
<!-- Title: espresso.c Pages: 1 -->
<svg width="621pt" height="193pt"
 viewBox="0.00 0.00 621.00 193.00" xmlns="http://www.w3.org/2000/svg" xmlns:xlink="http://www.w3.org/1999/xlink">
<g id="graph0" class="graph" transform="scale(1 1) rotate(0) translate(4 189)">
<title>espresso.c</title>
<!-- Node1 -->
<g id="Node000001" class="node">
<title>Node1</title>
<g id="a_Node000001"><a xlink:title=" ">
<polygon fill="#999999" stroke="#666666" points="400.5,-185 337.25,-185 337.25,-165.75 400.5,-165.75 400.5,-185"/>
<text xml:space="preserve" text-anchor="middle" x="368.88" y="-171.5" font-family="Helvetica,sans-Serif" font-size="10.00">espresso.c</text>
</a>
</g>
</g>
<!-- Node2 -->
<g id="Node000002" class="node">
<title>Node2</title>
<g id="a_Node000002"><a xlink:title=" ">
<polygon fill="#e0e0e0" stroke="#999999" points="175.25,-129.75 122.5,-129.75 122.5,-110.5 175.25,-110.5 175.25,-129.75"/>
<text xml:space="preserve" text-anchor="middle" x="148.88" y="-116.25" font-family="Helvetica,sans-Serif" font-size="10.00">strings.h</text>
</a>
</g>
</g>
<!-- Node1&#45;&gt;Node2 -->
<g id="edge1_Node000001_Node000002" class="edge">
<title>Node1&#45;&gt;Node2</title>
<g id="a_edge1_Node000001_Node000002"><a xlink:title=" ">
<path fill="none" stroke="#63b8ff" d="M336.89,-166.63C297.04,-156.99 229.06,-140.53 186.68,-130.28"/>
<polygon fill="#63b8ff" stroke="#63b8ff" points="187.73,-126.93 177.18,-127.98 186.08,-133.73 187.73,-126.93"/>
</a>
</g>
</g>
<!-- Node3 -->
<g id="Node000003" class="node">
<title>Node3</title>
<g id="a_Node000003"><a xlink:title=" ">
<polygon fill="#e0e0e0" stroke="#999999" points="49.75,-74.5 0,-74.5 0,-55.25 49.75,-55.25 49.75,-74.5"/>
<text xml:space="preserve" text-anchor="middle" x="24.88" y="-61" font-family="Helvetica,sans-Serif" font-size="10.00">unistd.h</text>
</a>
</g>
</g>
<!-- Node1&#45;&gt;Node3 -->
<g id="edge2_Node000001_Node000003" class="edge">
<title>Node1&#45;&gt;Node3</title>
<g id="a_edge2_Node000001_Node000003"><a xlink:title=" ">
<path fill="none" stroke="#63b8ff" d="M339.53,-165.28C311.87,-156.58 269.35,-142.89 232.88,-129.75 210.86,-121.82 206.06,-117.95 183.88,-110.5 161.24,-102.9 100.75,-86.3 61.25,-75.63"/>
<polygon fill="#63b8ff" stroke="#63b8ff" points="62.25,-72.27 51.68,-73.05 60.43,-79.03 62.25,-72.27"/>
</a>
</g>
</g>
<!-- Node4 -->
<g id="Node000004" class="node">
<title>Node4</title>
<g id="a_Node000004"><a xlink:href="cJSON_8h.html" target="_top" xlink:title=" ">
<polygon fill="white" stroke="#666666" points="198.25,-74.5 67.5,-74.5 67.5,-55.25 198.25,-55.25 198.25,-74.5"/>
<text xml:space="preserve" text-anchor="middle" x="132.88" y="-61" font-family="Helvetica,sans-Serif" font-size="10.00">../vendor/cJSON/cJSON.h</text>
</a>
</g>
</g>
<!-- Node1&#45;&gt;Node4 -->
<g id="edge3_Node000001_Node000004" class="edge">
<title>Node1&#45;&gt;Node4</title>
<g id="a_edge3_Node000001_Node000004"><a xlink:title=" ">
<path fill="none" stroke="#63b8ff" d="M349.16,-165.31C307.86,-146.32 212.03,-102.27 162.98,-79.72"/>
<polygon fill="#63b8ff" stroke="#63b8ff" points="164.62,-76.62 154.08,-75.62 161.7,-82.98 164.62,-76.62"/>
</a>
</g>
</g>
<!-- Node6 -->
<g id="Node000006" class="node">
<title>Node6</title>
<g id="a_Node000006"><a xlink:href="espresso_8h.html" target="_top" xlink:title="Espresso &#45; lightweight Express&#45;like HTTP framework for C.">
<polygon fill="white" stroke="#666666" points="370.5,-129.75 307.25,-129.75 307.25,-110.5 370.5,-110.5 370.5,-129.75"/>
<text xml:space="preserve" text-anchor="middle" x="338.88" y="-116.25" font-family="Helvetica,sans-Serif" font-size="10.00">espresso.h</text>
</a>
</g>
</g>
<!-- Node1&#45;&gt;Node6 -->
<g id="edge5_Node000001_Node000006" class="edge">
<title>Node1&#45;&gt;Node6</title>
<g id="a_edge5_Node000001_Node000006"><a xlink:title=" ">
<path fill="none" stroke="#63b8ff" d="M363.92,-165.58C359.99,-158.61 354.36,-148.62 349.44,-139.87"/>
<polygon fill="#63b8ff" stroke="#63b8ff" points="352.64,-138.42 344.68,-131.43 346.54,-141.86 352.64,-138.42"/>
</a>
</g>
</g>
<!-- Node7 -->
<g id="Node000007" class="node">
<title>Node7</title>
<g id="a_Node000007"><a xlink:title=" ">
<polygon fill="#e0e0e0" stroke="#999999" points="263.25,-74.5 216.5,-74.5 216.5,-55.25 263.25,-55.25 263.25,-74.5"/>
<text xml:space="preserve" text-anchor="middle" x="239.88" y="-61" font-family="Helvetica,sans-Serif" font-size="10.00">ctype.h</text>
</a>
</g>
</g>
<!-- Node1&#45;&gt;Node7 -->
<g id="edge14_Node000001_Node000007" class="edge">
<title>Node1&#45;&gt;Node7</title>
<g id="a_edge14_Node000001_Node000007"><a xlink:title=" ">
<path fill="none" stroke="#63b8ff" d="M351.64,-165.3C336.69,-157.03 314.84,-143.96 297.88,-129.75 281.24,-115.82 264.87,-97.2 253.78,-83.66"/>
<polygon fill="#63b8ff" stroke="#63b8ff" points="256.64,-81.64 247.66,-76.02 251.18,-86.02 256.64,-81.64"/>
</a>
</g>
</g>
<!-- Node9 -->
<g id="Node000009" class="node">
<title>Node9</title>
<g id="a_Node000009"><a xlink:title=" ">
<polygon fill="#e0e0e0" stroke="#999999" points="458.12,-74.5 413.62,-74.5 413.62,-55.25 458.12,-55.25 458.12,-74.5"/>
<text xml:space="preserve" text-anchor="middle" x="435.88" y="-61" font-family="Helvetica,sans-Serif" font-size="10.00">stdio.h</text>
</a>
</g>
</g>
<!-- Node1&#45;&gt;Node9 -->
<g id="edge16_Node000001_Node000009" class="edge">
<title>Node1&#45;&gt;Node9</title>
<g id="a_edge16_Node000001_Node000009"><a xlink:title=" ">
<path fill="none" stroke="#63b8ff" d="M374.36,-165.5C385.25,-147.85 409.83,-108.05 424.41,-84.45"/>
<polygon fill="#63b8ff" stroke="#63b8ff" points="427.24,-86.51 429.52,-76.16 421.29,-82.83 427.24,-86.51"/>
</a>
</g>
</g>
<!-- Node10 -->
<g id="Node000010" class="node">
<title>Node10</title>
<g id="a_Node000010"><a xlink:title=" ">
<polygon fill="#e0e0e0" stroke="#999999" points="523.25,-74.5 476.5,-74.5 476.5,-55.25 523.25,-55.25 523.25,-74.5"/>
<text xml:space="preserve" text-anchor="middle" x="499.88" y="-61" font-family="Helvetica,sans-Serif" font-size="10.00">stdlib.h</text>
</a>
</g>
</g>
<!-- Node1&#45;&gt;Node10 -->
<g id="edge17_Node000001_Node000010" class="edge">
<title>Node1&#45;&gt;Node10</title>
<g id="a_edge17_Node000001_Node000010"><a xlink:title=" ">
<path fill="none" stroke="#63b8ff" d="M379.6,-165.5C401.67,-147.22 452.45,-105.15 480.46,-81.96"/>
<polygon fill="#63b8ff" stroke="#63b8ff" points="482.37,-84.92 487.84,-75.84 477.91,-79.53 482.37,-84.92"/>
</a>
</g>
</g>
<!-- Node12 -->
<g id="Node000012" class="node">
<title>Node12</title>
<g id="a_Node000012"><a xlink:title=" ">
<polygon fill="#e0e0e0" stroke="#999999" points="574.88,-74.5 540.88,-74.5 540.88,-55.25 574.88,-55.25 574.88,-74.5"/>
<text xml:space="preserve" text-anchor="middle" x="557.88" y="-61" font-family="Helvetica,sans-Serif" font-size="10.00">uv.h</text>
</a>
</g>
</g>
<!-- Node1&#45;&gt;Node12 -->
<g id="edge19_Node000001_Node000012" class="edge">
<title>Node1&#45;&gt;Node12</title>
<g id="a_edge19_Node000001_Node000012"><a xlink:title=" ">
<path fill="none" stroke="#63b8ff" d="M385.17,-165.42C401.38,-156.48 426.92,-142.3 448.88,-129.75 477.84,-113.19 510.86,-93.76 532.9,-80.71"/>
<polygon fill="#63b8ff" stroke="#63b8ff" points="534.65,-83.75 541.47,-75.64 531.08,-77.72 534.65,-83.75"/>
</a>
</g>
</g>
<!-- Node13 -->
<g id="Node000013" class="node">
<title>Node13</title>
<g id="a_Node000013"><a xlink:title=" ">
<polygon fill="#e0e0e0" stroke="#999999" points="553.12,-129.75 502.62,-129.75 502.62,-110.5 553.12,-110.5 553.12,-129.75"/>
<text xml:space="preserve" text-anchor="middle" x="527.88" y="-116.25" font-family="Helvetica,sans-Serif" font-size="10.00">stdarg.h</text>
</a>
</g>
</g>
<!-- Node1&#45;&gt;Node13 -->
<g id="edge15_Node000001_Node000013" class="edge">
<title>Node1&#45;&gt;Node13</title>
<g id="a_edge15_Node000001_Node000013"><a xlink:title=" ">
<path fill="none" stroke="#63b8ff" d="M395.85,-165.34C422.24,-156.5 462.63,-142.98 491.78,-133.21"/>
<polygon fill="#63b8ff" stroke="#63b8ff" points="492.54,-136.65 500.92,-130.15 490.32,-130.01 492.54,-136.65"/>
</a>
</g>
</g>
<!-- Node14 -->
<g id="Node000014" class="node">
<title>Node14</title>
<g id="a_Node000014"><a xlink:title=" ">
<polygon fill="#e0e0e0" stroke="#999999" points="613,-129.75 570.75,-129.75 570.75,-110.5 613,-110.5 613,-129.75"/>
<text xml:space="preserve" text-anchor="middle" x="591.88" y="-116.25" font-family="Helvetica,sans-Serif" font-size="10.00">time.h</text>
</a>
</g>
</g>
<!-- Node1&#45;&gt;Node14 -->
<g id="edge18_Node000001_Node000014" class="edge">
<title>Node1&#45;&gt;Node14</title>
<g id="a_edge18_Node000001_Node000014"><a xlink:title=" ">
<path fill="none" stroke="#63b8ff" d="M400.76,-167.54C436.96,-159.67 498.02,-146.03 559.26,-130.33"/>
<polygon fill="#63b8ff" stroke="#63b8ff" points="560.01,-133.75 568.82,-127.86 558.26,-126.97 560.01,-133.75"/>
</a>
</g>
</g>
<!-- Node5 -->
<g id="Node000005" class="node">
<title>Node5</title>
<g id="a_Node000005"><a xlink:title=" ">
<polygon fill="#e0e0e0" stroke="#999999" points="158.12,-19.25 107.62,-19.25 107.62,0 158.12,0 158.12,-19.25"/>
<text xml:space="preserve" text-anchor="middle" x="132.88" y="-5.75" font-family="Helvetica,sans-Serif" font-size="10.00">stddef.h</text>
</a>
</g>
</g>
<!-- Node4&#45;&gt;Node5 -->
<g id="edge4_Node000004_Node000005" class="edge">
<title>Node4&#45;&gt;Node5</title>
<g id="a_edge4_Node000004_Node000005"><a xlink:title=" ">
<path fill="none" stroke="#63b8ff" d="M132.88,-55.08C132.88,-48.57 132.88,-39.42 132.88,-31.12"/>
<polygon fill="#63b8ff" stroke="#63b8ff" points="136.38,-31.12 132.88,-21.12 129.38,-31.12 136.38,-31.12"/>
</a>
</g>
</g>
<!-- Node6&#45;&gt;Node3 -->
<g id="edge12_Node000006_Node000003" class="edge">
<title>Node6&#45;&gt;Node3</title>
<g id="a_edge12_Node000006_Node000003"><a xlink:title=" ">
<path fill="none" stroke="#63b8ff" d="M306.79,-114.97C256.56,-108.27 156.1,-94.02 61.3,-74.84"/>
<polygon fill="#63b8ff" stroke="#63b8ff" points="62.05,-71.42 51.55,-72.84 60.64,-78.28 62.05,-71.42"/>
</a>
</g>
</g>
<!-- Node6&#45;&gt;Node4 -->
<g id="edge6_Node000006_Node000004" class="edge">
<title>Node6&#45;&gt;Node4</title>
<g id="a_edge6_Node000006_Node000004"><a xlink:title=" ">
<path fill="none" stroke="#63b8ff" d="M307.14,-110.92C272.93,-102.08 218.16,-87.92 179.15,-77.84"/>
<polygon fill="#63b8ff" stroke="#63b8ff" points="180.12,-74.47 169.57,-75.36 178.37,-81.25 180.12,-74.47"/>
</a>
</g>
</g>
<!-- Node6&#45;&gt;Node7 -->
<g id="edge7_Node000006_Node000007" class="edge">
<title>Node6&#45;&gt;Node7</title>
<g id="a_edge7_Node000006_Node000007"><a xlink:title=" ">
<path fill="none" stroke="#63b8ff" d="M322.08,-110.09C306.86,-101.91 284.18,-89.71 266.49,-80.19"/>
<polygon fill="#63b8ff" stroke="#63b8ff" points="268.55,-77.32 258.08,-75.67 265.23,-83.49 268.55,-77.32"/>
</a>
</g>
</g>
<!-- Node8 -->
<g id="Node000008" class="node">
<title>Node8</title>
<g id="a_Node000008"><a xlink:title=" ">
<polygon fill="#e0e0e0" stroke="#999999" points="330.38,-74.5 281.38,-74.5 281.38,-55.25 330.38,-55.25 330.38,-74.5"/>
<text xml:space="preserve" text-anchor="middle" x="305.88" y="-61" font-family="Helvetica,sans-Serif" font-size="10.00">signal.h</text>
</a>
</g>
</g>
<!-- Node6&#45;&gt;Node8 -->
<g id="edge8_Node000006_Node000008" class="edge">
<title>Node6&#45;&gt;Node8</title>
<g id="a_edge8_Node000006_Node000008"><a xlink:title=" ">
<path fill="none" stroke="#63b8ff" d="M333.43,-110.33C329.1,-103.36 322.91,-93.37 317.49,-84.62"/>
<polygon fill="#63b8ff" stroke="#63b8ff" points="320.48,-82.8 312.24,-76.15 314.53,-86.49 320.48,-82.8"/>
</a>
</g>
</g>
<!-- Node6&#45;&gt;Node9 -->
<g id="edge9_Node000006_Node000009" class="edge">
<title>Node6&#45;&gt;Node9</title>
<g id="a_edge9_Node000006_Node000009"><a xlink:title=" ">
<path fill="none" stroke="#63b8ff" d="M355.33,-110.09C370.1,-101.98 392.05,-89.93 409.31,-80.46"/>
<polygon fill="#63b8ff" stroke="#63b8ff" points="410.93,-83.56 418.01,-75.68 407.56,-77.43 410.93,-83.56"/>
</a>
</g>
</g>
<!-- Node6&#45;&gt;Node10 -->
<g id="edge10_Node000006_Node000010" class="edge">
<title>Node6&#45;&gt;Node10</title>
<g id="a_edge10_Node000006_Node000010"><a xlink:title=" ">
<path fill="none" stroke="#63b8ff" d="M366.19,-110.09C393.55,-101.04 435.76,-87.08 465.42,-77.27"/>
<polygon fill="#63b8ff" stroke="#63b8ff" points="466.28,-80.67 474.67,-74.21 464.08,-74.03 466.28,-80.67"/>
</a>
</g>
</g>
<!-- Node11 -->
<g id="Node000011" class="node">
<title>Node11</title>
<g id="a_Node000011"><a xlink:title=" ">
<polygon fill="#e0e0e0" stroke="#999999" points="395.62,-74.5 348.12,-74.5 348.12,-55.25 395.62,-55.25 395.62,-74.5"/>
<text xml:space="preserve" text-anchor="middle" x="371.88" y="-61" font-family="Helvetica,sans-Serif" font-size="10.00">string.h</text>
</a>
</g>
</g>
<!-- Node6&#45;&gt;Node11 -->
<g id="edge11_Node000006_Node000011" class="edge">
<title>Node6&#45;&gt;Node11</title>
<g id="a_edge11_Node000006_Node000011"><a xlink:title=" ">
<path fill="none" stroke="#63b8ff" d="M344.32,-110.33C348.65,-103.36 354.84,-93.37 360.26,-84.62"/>
<polygon fill="#63b8ff" stroke="#63b8ff" points="363.22,-86.49 365.51,-76.15 357.27,-82.8 363.22,-86.49"/>
</a>
</g>
</g>
<!-- Node6&#45;&gt;Node12 -->
<g id="edge13_Node000006_Node000012" class="edge">
<title>Node6&#45;&gt;Node12</title>
<g id="a_edge13_Node000006_Node000012"><a xlink:title=" ">
<path fill="none" stroke="#63b8ff" d="M370.87,-112.68C407.16,-105.16 468.32,-91.88 529.57,-74.94"/>
<polygon fill="#63b8ff" stroke="#63b8ff" points="530.46,-78.33 539.14,-72.26 528.57,-71.59 530.46,-78.33"/>
</a>
</g>
</g>
</g>
</svg>
