<?xml version="1.0" encoding="UTF-8" standalone="no"?>
<!DOCTYPE svg PUBLIC "-//W3C//DTD SVG 1.1//EN"
 "http://www.w3.org/Graphics/SVG/1.1/DTD/svg11.dtd">
<!-- Generated by graphviz version 14.0.5 (0)
 -->
<!-- Title: get_data Pages: 1 -->
<svg width="185pt" height="101pt"
 viewBox="0.00 0.00 185.00 101.00" xmlns="http://www.w3.org/2000/svg" xmlns:xlink="http://www.w3.org/1999/xlink">
<g id="graph0" class="graph" transform="scale(1 1) rotate(0) translate(4 97.25)">
<title>get_data</title>
<!-- Node1 -->
<g id="Node000001" class="node">
<title>Node1</title>
<g id="a_Node000001"><a xlink:title="Retrieve arbitrary data stored in the response context.">
<polygon fill="#999999" stroke="#666666" points="176.75,-56.25 123.25,-56.25 123.25,-37 176.75,-37 176.75,-56.25"/>
<text xml:space="preserve" text-anchor="middle" x="150" y="-42.75" font-family="Helvetica,sans-Serif" font-size="10.00">get_data</text>
</a>
</g>
</g>
<!-- Node2 -->
<g id="Node000002" class="node">
<title>Node2</title>
<g id="a_Node000002"><a xlink:href="espresso_8c.html#a2d70e5ffc8970bfb6b5f3c4839295dad" target="_top" xlink:title="Retrieve a double stored in the response context.">
<polygon fill="white" stroke="#666666" points="87.25,-93.25 0,-93.25 0,-74 87.25,-74 87.25,-93.25"/>
<text xml:space="preserve" text-anchor="middle" x="43.62" y="-79.75" font-family="Helvetica,sans-Serif" font-size="10.00">get_data_double</text>
</a>
</g>
</g>
<!-- Node1&#45;&gt;Node2 -->
<g id="edge1_Node000001_Node000002" class="edge">
<title>Node1&#45;&gt;Node2</title>
<g id="a_edge1_Node000001_Node000002"><a xlink:title=" ">
<path fill="none" stroke="#63b8ff" d="M112.45,-59.58C99.49,-64.18 85.1,-69.28 72.92,-73.59"/>
<polygon fill="#63b8ff" stroke="#63b8ff" points="113.25,-63.01 121.5,-56.37 110.91,-56.41 113.25,-63.01"/>
</a>
</g>
</g>
<!-- Node3 -->
<g id="Node000003" class="node">
<title>Node3</title>
<g id="a_Node000003"><a xlink:href="espresso_8c.html#aeeabc7ba9524a35af8e462611d047974" target="_top" xlink:title="Retrieve an integer stored in the response context.">
<polygon fill="white" stroke="#666666" points="78.25,-56.25 9,-56.25 9,-37 78.25,-37 78.25,-56.25"/>
<text xml:space="preserve" text-anchor="middle" x="43.62" y="-42.75" font-family="Helvetica,sans-Serif" font-size="10.00">get_data_int</text>
</a>
</g>
</g>
<!-- Node1&#45;&gt;Node3 -->
<g id="edge2_Node000001_Node000003" class="edge">
<title>Node1&#45;&gt;Node3</title>
<g id="a_edge2_Node000001_Node000003"><a xlink:title=" ">
<path fill="none" stroke="#63b8ff" d="M111.69,-46.62C100.91,-46.62 89.2,-46.62 78.63,-46.62"/>
<polygon fill="#63b8ff" stroke="#63b8ff" points="111.42,-50.13 121.42,-46.63 111.42,-43.13 111.42,-50.13"/>
</a>
</g>
</g>
<!-- Node4 -->
<g id="Node000004" class="node">
<title>Node4</title>
<g id="a_Node000004"><a xlink:href="espresso_8c.html#adb81281b90fa3913d56882e31fc31f9d" target="_top" xlink:title="Retrieve a string stored in the response context.">
<polygon fill="white" stroke="#666666" points="85,-19.25 2.25,-19.25 2.25,0 85,0 85,-19.25"/>
<text xml:space="preserve" text-anchor="middle" x="43.62" y="-5.75" font-family="Helvetica,sans-Serif" font-size="10.00">get_data_string</text>
</a>
</g>
</g>
<!-- Node1&#45;&gt;Node4 -->
<g id="edge3_Node000001_Node000004" class="edge">
<title>Node1&#45;&gt;Node4</title>
<g id="a_edge3_Node000001_Node000004"><a xlink:title=" ">
<path fill="none" stroke="#63b8ff" d="M112.45,-33.67C99.49,-29.07 85.1,-23.97 72.92,-19.66"/>
<polygon fill="#63b8ff" stroke="#63b8ff" points="110.91,-36.84 121.5,-36.88 113.25,-30.24 110.91,-36.84"/>
</a>
</g>
</g>
</g>
</svg>
