<?xml version="1.0" encoding="UTF-8" standalone="no"?>
<!DOCTYPE svg PUBLIC "-//W3C//DTD SVG 1.1//EN"
 "http://www.w3.org/Graphics/SVG/1.1/DTD/svg11.dtd">
<!-- Generated by graphviz version 14.0.5 (0)
 -->
<!-- Title: send_text_response Pages: 1 -->
<svg width="396pt" height="64pt"
 viewBox="0.00 0.00 396.00 64.00" xmlns="http://www.w3.org/2000/svg" xmlns:xlink="http://www.w3.org/1999/xlink">
<g id="graph0" class="graph" transform="scale(1 1) rotate(0) translate(4 60.25)">
<title>send_text_response</title>
<!-- Node1 -->
<g id="Node000001" class="node">
<title>Node1</title>
<g id="a_Node000001"><a xlink:title="Sends text response.">
<polygon fill="#999999" stroke="#666666" points="103,-37.25 0,-37.25 0,-18 103,-18 103,-37.25"/>
<text xml:space="preserve" text-anchor="middle" x="51.5" y="-23.75" font-family="Helvetica,sans-Serif" font-size="10.00">send_text_response</text>
</a>
</g>
</g>
<!-- Node2 -->
<g id="Node000002" class="node">
<title>Node2</title>
<g id="a_Node000002"><a xlink:href="espresso_8c.html#a61c64a500ef217b0825333b9f35234e3" target="_top" xlink:title=" ">
<polygon fill="white" stroke="#666666" points="260,-56.25 139,-56.25 139,-37 260,-37 260,-56.25"/>
<text xml:space="preserve" text-anchor="middle" x="199.5" y="-42.75" font-family="Helvetica,sans-Serif" font-size="10.00">build_response_headers</text>
</a>
</g>
</g>
<!-- Node1&#45;&gt;Node2 -->
<g id="edge1_Node000001_Node000002" class="edge">
<title>Node1&#45;&gt;Node2</title>
<g id="a_edge1_Node000001_Node000002"><a xlink:title=" ">
<path fill="none" stroke="#63b8ff" d="M103.15,-34.22C111.02,-35.24 119.28,-36.32 127.5,-37.39"/>
<polygon fill="#63b8ff" stroke="#63b8ff" points="126.78,-40.82 137.15,-38.64 127.68,-33.88 126.78,-40.82"/>
</a>
</g>
</g>
<!-- Node3 -->
<g id="Node000003" class="node">
<title>Node3</title>
<g id="a_Node000003"><a xlink:href="espresso_8c.html#a142b429010a8046d339d36552bd20f7e" target="_top" xlink:title=" ">
<polygon fill="white" stroke="#666666" points="240.5,-19.25 158.5,-19.25 158.5,0 240.5,0 240.5,-19.25"/>
<text xml:space="preserve" text-anchor="middle" x="199.5" y="-5.75" font-family="Helvetica,sans-Serif" font-size="10.00">send_message</text>
</a>
</g>
</g>
<!-- Node1&#45;&gt;Node3 -->
<g id="edge2_Node000001_Node000003" class="edge">
<title>Node1&#45;&gt;Node3</title>
<g id="a_edge2_Node000001_Node000003"><a xlink:title=" ">
<path fill="none" stroke="#63b8ff" d="M103.15,-21.38C117.32,-19.63 132.73,-17.73 146.95,-15.98"/>
<polygon fill="#63b8ff" stroke="#63b8ff" points="147.05,-19.49 156.55,-14.8 146.2,-12.55 147.05,-19.49"/>
</a>
</g>
</g>
<!-- Node4 -->
<g id="Node000004" class="node">
<title>Node4</title>
<g id="a_Node000004"><a xlink:href="espresso_8c.html#a5fa30991ad104ba1fe0001e7aefe95ac" target="_top" xlink:title=" ">
<polygon fill="white" stroke="#666666" points="387.75,-19.25 296,-19.25 296,0 387.75,0 387.75,-19.25"/>
<text xml:space="preserve" text-anchor="middle" x="341.88" y="-5.75" font-family="Helvetica,sans-Serif" font-size="10.00">handle_write_end</text>
</a>
</g>
</g>
<!-- Node3&#45;&gt;Node4 -->
<g id="edge3_Node000003_Node000004" class="edge">
<title>Node3&#45;&gt;Node4</title>
<g id="a_edge3_Node000003_Node000004"><a xlink:title=" ">
<path fill="none" stroke="#63b8ff" d="M240.73,-9.62C254.28,-9.62 269.67,-9.62 284.24,-9.62"/>
<polygon fill="#63b8ff" stroke="#63b8ff" points="284.19,-13.13 294.19,-9.63 284.19,-6.13 284.19,-13.13"/>
</a>
</g>
</g>
</g>
</svg>
