<?xml version="1.0" encoding="UTF-8" standalone="no"?>
<!DOCTYPE svg PUBLIC "-//W3C//DTD SVG 1.1//EN"
 "http://www.w3.org/Graphics/SVG/1.1/DTD/svg11.dtd">
<!-- Generated by graphviz version 14.0.5 (0)
 -->
<!-- Title: handle_client_read Pages: 1 -->
<svg width="872pt" height="342pt"
 viewBox="0.00 0.00 872.00 342.00" xmlns="http://www.w3.org/2000/svg" xmlns:xlink="http://www.w3.org/1999/xlink">
<g id="graph0" class="graph" transform="scale(1 1) rotate(0) translate(4 337.79)">
<title>handle_client_read</title>
<!-- Node1 -->
<g id="Node000001" class="node">
<title>Node1</title>
<g id="a_Node000001"><a xlink:title=" ">
<polygon fill="#999999" stroke="#666666" points="97,-163.79 0,-163.79 0,-144.54 97,-144.54 97,-163.79"/>
<text xml:space="preserve" text-anchor="middle" x="48.5" y="-150.29" font-family="Helvetica,sans-Serif" font-size="10.00">handle_client_read</text>
</a>
</g>
</g>
<!-- Node2 -->
<g id="Node000002" class="node">
<title>Node2</title>
<g id="a_Node000002"><a xlink:href="espresso_8c.html#a73277811539a2de04ce7e1295fbdba6a" target="_top" xlink:title=" ">
<polygon fill="white" stroke="#666666" points="338.25,-296.79 246.5,-296.79 246.5,-277.54 338.25,-277.54 338.25,-296.79"/>
<text xml:space="preserve" text-anchor="middle" x="292.38" y="-283.29" font-family="Helvetica,sans-Serif" font-size="10.00">close_connection</text>
</a>
</g>
</g>
<!-- Node1&#45;&gt;Node2 -->
<g id="edge1_Node000001_Node000002" class="edge">
<title>Node1&#45;&gt;Node2</title>
<g id="a_edge1_Node000001_Node000002"><a xlink:title=" ">
<path fill="none" stroke="#63b8ff" d="M66.65,-164.26C100.16,-183.89 176.85,-228.35 242.75,-263.16 248.37,-266.13 254.4,-269.2 260.25,-272.12"/>
<polygon fill="#63b8ff" stroke="#63b8ff" points="258.55,-275.18 269.07,-276.47 261.65,-268.91 258.55,-275.18"/>
</a>
</g>
</g>
<!-- Node8 -->
<g id="Node000008" class="node">
<title>Node8</title>
<g id="a_Node000008"><a xlink:href="espresso_8c.html#a2a7b96459e0adac1061eaec6a5722075" target="_top" xlink:title=" ">
<polygon fill="white" stroke="#666666" points="206.75,-163.79 133,-163.79 133,-144.54 206.75,-144.54 206.75,-163.79"/>
<text xml:space="preserve" text-anchor="middle" x="169.88" y="-150.29" font-family="Helvetica,sans-Serif" font-size="10.00">handle_buffer</text>
</a>
</g>
</g>
<!-- Node1&#45;&gt;Node8 -->
<g id="edge7_Node000001_Node000008" class="edge">
<title>Node1&#45;&gt;Node8</title>
<g id="a_edge7_Node000001_Node000008"><a xlink:title=" ">
<path fill="none" stroke="#63b8ff" d="M97.37,-147.53C105.3,-147.37 113.52,-147.38 121.44,-147.54"/>
<polygon fill="#63b8ff" stroke="#63b8ff" points="121.14,-151.04 131.25,-147.86 121.37,-144.04 121.14,-151.04"/>
</a>
</g>
</g>
<!-- Node18 -->
<g id="Node000018" class="node">
<title>Node18</title>
<g id="a_Node000018"><a xlink:href="espresso_8c.html#a142b429010a8046d339d36552bd20f7e" target="_top" xlink:title=" ">
<polygon fill="white" stroke="#666666" points="481.75,-30.79 399.75,-30.79 399.75,-11.54 481.75,-11.54 481.75,-30.79"/>
<text xml:space="preserve" text-anchor="middle" x="440.75" y="-17.29" font-family="Helvetica,sans-Serif" font-size="10.00">send_message</text>
</a>
</g>
</g>
<!-- Node1&#45;&gt;Node18 -->
<g id="edge29_Node000001_Node000018" class="edge">
<title>Node1&#45;&gt;Node18</title>
<g id="a_edge29_Node000001_Node000018"><a xlink:title=" ">
<path fill="none" stroke="#63b8ff" d="M58.26,-144.17C83.47,-116.25 159.75,-37.69 242.75,-10.16 291.39,5.96 350.45,-0.51 391.14,-8.68"/>
<polygon fill="#63b8ff" stroke="#63b8ff" points="390.38,-12.1 400.89,-10.76 391.84,-5.25 390.38,-12.1"/>
</a>
</g>
</g>
<!-- Node3 -->
<g id="Node000003" class="node">
<title>Node3</title>
<g id="a_Node000003"><a xlink:href="espresso_8c.html#aaf78724518167158b66ec656312fabd2" target="_top" xlink:title=" ">
<polygon fill="white" stroke="#666666" points="503.5,-296.79 378,-296.79 378,-277.54 503.5,-277.54 503.5,-296.79"/>
<text xml:space="preserve" text-anchor="middle" x="440.75" y="-283.29" font-family="Helvetica,sans-Serif" font-size="10.00">handle_connection_close</text>
</a>
</g>
</g>
<!-- Node2&#45;&gt;Node3 -->
<g id="edge2_Node000002_Node000003" class="edge">
<title>Node2&#45;&gt;Node3</title>
<g id="a_edge2_Node000002_Node000003"><a xlink:title=" ">
<path fill="none" stroke="#63b8ff" d="M338.49,-287.16C347.27,-287.16 356.68,-287.16 366.1,-287.16"/>
<polygon fill="#63b8ff" stroke="#63b8ff" points="366.05,-290.67 376.05,-287.16 366.05,-283.67 366.05,-290.67"/>
</a>
</g>
</g>
<!-- Node4 -->
<g id="Node000004" class="node">
<title>Node4</title>
<g id="a_Node000004"><a xlink:href="espresso_8c.html#a1804ce3a25646fd9c6c6ad98d45c6efa" target="_top" xlink:title=" ">
<polygon fill="white" stroke="#666666" points="631.25,-333.79 539.5,-333.79 539.5,-314.54 631.25,-314.54 631.25,-333.79"/>
<text xml:space="preserve" text-anchor="middle" x="585.38" y="-320.29" font-family="Helvetica,sans-Serif" font-size="10.00">endpoint_cleanup</text>
</a>
</g>
</g>
<!-- Node3&#45;&gt;Node4 -->
<g id="edge3_Node000003_Node000004" class="edge">
<title>Node3&#45;&gt;Node4</title>
<g id="a_edge3_Node000003_Node000004"><a xlink:title=" ">
<path fill="none" stroke="#63b8ff" d="M480.72,-297.28C497.31,-301.58 516.86,-306.65 534.48,-311.22"/>
<polygon fill="#63b8ff" stroke="#63b8ff" points="533.43,-314.56 543.98,-313.69 535.18,-307.79 533.43,-314.56"/>
</a>
</g>
</g>
<!-- Node7 -->
<g id="Node000007" class="node">
<title>Node7</title>
<g id="a_Node000007"><a xlink:href="espresso_8c.html#a837cf67658f96fc262c83a4882f96f45" target="_top" xlink:title=" ">
<polygon fill="white" stroke="#666666" points="623.75,-296.79 547,-296.79 547,-277.54 623.75,-277.54 623.75,-296.79"/>
<text xml:space="preserve" text-anchor="middle" x="585.38" y="-283.29" font-family="Helvetica,sans-Serif" font-size="10.00">remove_client</text>
</a>
</g>
</g>
<!-- Node3&#45;&gt;Node7 -->
<g id="edge6_Node000003_Node000007" class="edge">
<title>Node3&#45;&gt;Node7</title>
<g id="a_edge6_Node000003_Node000007"><a xlink:title=" ">
<path fill="none" stroke="#63b8ff" d="M503.89,-287.16C514.36,-287.16 525.09,-287.16 535.18,-287.16"/>
<polygon fill="#63b8ff" stroke="#63b8ff" points="535.14,-290.67 545.14,-287.16 535.14,-283.67 535.14,-290.67"/>
</a>
</g>
</g>
<!-- Node5 -->
<g id="Node000005" class="node">
<title>Node5</title>
<g id="a_Node000005"><a xlink:href="espresso_8c.html#a713520bedc85cf92de9f221038f1b737" target="_top" xlink:title=" ">
<polygon fill="white" stroke="#666666" points="767.25,-333.79 667.25,-333.79 667.25,-314.54 767.25,-314.54 767.25,-333.79"/>
<text xml:space="preserve" text-anchor="middle" x="717.25" y="-320.29" font-family="Helvetica,sans-Serif" font-size="10.00">handle_timer_close</text>
</a>
</g>
</g>
<!-- Node4&#45;&gt;Node5 -->
<g id="edge4_Node000004_Node000005" class="edge">
<title>Node4&#45;&gt;Node5</title>
<g id="a_edge4_Node000004_Node000005"><a xlink:title=" ">
<path fill="none" stroke="#63b8ff" d="M631.43,-324.16C639.2,-324.16 647.39,-324.16 655.49,-324.16"/>
<polygon fill="#63b8ff" stroke="#63b8ff" points="655.32,-327.67 665.32,-324.16 655.32,-320.67 655.32,-327.67"/>
</a>
</g>
</g>
<!-- Node6 -->
<g id="Node000006" class="node">
<title>Node6</title>
<g id="a_Node000006"><a xlink:href="espresso_8c.html#aff314ce54a1f87e10d08bf4ddeeaf537" target="_top" xlink:title=" ">
<polygon fill="white" stroke="#666666" points="760.88,-277.79 673.62,-277.79 673.62,-258.54 760.88,-258.54 760.88,-277.79"/>
<text xml:space="preserve" text-anchor="middle" x="717.25" y="-264.29" font-family="Helvetica,sans-Serif" font-size="10.00">request_cleanup</text>
</a>
</g>
</g>
<!-- Node4&#45;&gt;Node6 -->
<g id="edge5_Node000004_Node000006" class="edge">
<title>Node4&#45;&gt;Node6</title>
<g id="a_edge5_Node000004_Node000006"><a xlink:title=" ">
<path fill="none" stroke="#63b8ff" d="M612.07,-314.06C618.37,-311.53 625.07,-308.79 631.25,-306.16 648.78,-298.73 668.18,-290.09 684.01,-282.93"/>
<polygon fill="#63b8ff" stroke="#63b8ff" points="685.3,-286.19 692.96,-278.87 682.41,-279.82 685.3,-286.19"/>
</a>
</g>
</g>
<!-- Node8&#45;&gt;Node1 -->
<g id="edge11_Node000008_Node000001" class="edge">
<title>Node8&#45;&gt;Node1</title>
<g id="a_edge11_Node000008_Node000001"><a xlink:title=" ">
<path fill="none" stroke="#63b8ff" d="M132.76,-160.42C125.19,-160.76 117.01,-160.92 108.84,-160.91"/>
<polygon fill="#63b8ff" stroke="#63b8ff" points="108.92,-157.42 98.88,-160.81 108.84,-164.42 108.92,-157.42"/>
</a>
</g>
</g>
<!-- Node8&#45;&gt;Node2 -->
<g id="edge9_Node000008_Node000002" class="edge">
<title>Node8&#45;&gt;Node2</title>
<g id="a_edge9_Node000008_Node000002"><a xlink:title=" ">
<path fill="none" stroke="#63b8ff" d="M175.23,-164.16C184.76,-185 209.27,-233.61 242.75,-263.16 246.32,-266.32 250.38,-269.16 254.6,-271.7"/>
<polygon fill="#63b8ff" stroke="#63b8ff" points="252.77,-274.69 263.23,-276.33 256.08,-268.52 252.77,-274.69"/>
</a>
</g>
</g>
<!-- Node8&#45;&gt;Node6 -->
<g id="edge27_Node000008_Node000006" class="edge">
<title>Node8&#45;&gt;Node6</title>
<g id="a_edge27_Node000008_Node000006"><a xlink:title=" ">
<path fill="none" stroke="#63b8ff" d="M178.68,-164.04C193.78,-182.83 226.86,-222.56 242.75,-230.16 279.78,-247.9 545.77,-261.04 662.07,-266"/>
<polygon fill="#63b8ff" stroke="#63b8ff" points="661.85,-269.49 671.99,-266.42 662.15,-262.5 661.85,-269.49"/>
</a>
</g>
</g>
<!-- Node9 -->
<g id="Node000009" class="node">
<title>Node9</title>
<g id="a_Node000009"><a xlink:href="espresso_8c.html#afc4191b175ae67f2d0d5b264caa6d08a" target="_top" xlink:title=" ">
<polygon fill="white" stroke="#666666" points="331.88,-220.79 252.88,-220.79 252.88,-201.54 331.88,-201.54 331.88,-220.79"/>
<text xml:space="preserve" text-anchor="middle" x="292.38" y="-207.29" font-family="Helvetica,sans-Serif" font-size="10.00">allocate_buffer</text>
</a>
</g>
</g>
<!-- Node8&#45;&gt;Node9 -->
<g id="edge8_Node000008_Node000009" class="edge">
<title>Node8&#45;&gt;Node9</title>
<g id="a_edge8_Node000008_Node000009"><a xlink:title=" ">
<path fill="none" stroke="#63b8ff" d="M192.14,-164.22C210.98,-173.14 238.74,-186.27 260.11,-196.38"/>
<polygon fill="#63b8ff" stroke="#63b8ff" points="258.42,-199.45 268.95,-200.56 261.41,-193.12 258.42,-199.45"/>
</a>
</g>
</g>
<!-- Node10 -->
<g id="Node000010" class="node">
<title>Node10</title>
<g id="a_Node000010"><a xlink:href="espresso_8c.html#aca61aa31ed57abce18d1d3cffd0d47e3" target="_top" xlink:title=" ">
<polygon fill="white" stroke="#666666" points="498.62,-218.79 382.88,-218.79 382.88,-199.54 498.62,-199.54 498.62,-218.79"/>
<text xml:space="preserve" text-anchor="middle" x="440.75" y="-205.29" font-family="Helvetica,sans-Serif" font-size="10.00">generate_allow_header</text>
</a>
</g>
</g>
<!-- Node8&#45;&gt;Node10 -->
<g id="edge10_Node000008_Node000010" class="edge">
<title>Node8&#45;&gt;Node10</title>
<g id="a_edge10_Node000008_Node000010"><a xlink:title=" ">
<path fill="none" stroke="#63b8ff" d="M207.14,-161.58C251.21,-170.6 326.22,-185.94 379.13,-196.77"/>
<polygon fill="#63b8ff" stroke="#63b8ff" points="378.42,-200.19 388.92,-198.77 379.82,-193.33 378.42,-200.19"/>
</a>
</g>
</g>
<!-- Node11 -->
<g id="Node000011" class="node">
<title>Node11</title>
<g id="a_Node000011"><a xlink:href="espresso_8c.html#a041948e0d9b16b9c852053d3fb3f2a69" target="_top" xlink:title="ONLY FOR UNIT TESTS.">
<polygon fill="white" stroke="#666666" points="335.62,-144.79 249.12,-144.79 249.12,-125.54 335.62,-125.54 335.62,-144.79"/>
<text xml:space="preserve" text-anchor="middle" x="292.38" y="-131.29" font-family="Helvetica,sans-Serif" font-size="10.00">handle_endpoint</text>
</a>
</g>
</g>
<!-- Node8&#45;&gt;Node11 -->
<g id="edge12_Node000008_Node000011" class="edge">
<title>Node8&#45;&gt;Node11</title>
<g id="a_edge12_Node000008_Node000011"><a xlink:title=" ">
<path fill="none" stroke="#63b8ff" d="M207.03,-148.46C216.7,-146.94 227.37,-145.26 237.76,-143.62"/>
<polygon fill="#63b8ff" stroke="#63b8ff" points="238.06,-147.12 247.39,-142.1 236.97,-140.2 238.06,-147.12"/>
</a>
</g>
</g>
<!-- Node17 -->
<g id="Node000017" class="node">
<title>Node17</title>
<g id="a_Node000017"><a xlink:href="espresso_8c.html#abdcfd909d1360f16c6fedab5aac76f2a" target="_top" xlink:title=" ">
<polygon fill="white" stroke="#666666" points="744,-125.79 690.5,-125.79 690.5,-106.54 744,-106.54 744,-125.79"/>
<text xml:space="preserve" text-anchor="middle" x="717.25" y="-112.29" font-family="Helvetica,sans-Serif" font-size="10.00">log_error</text>
</a>
</g>
</g>
<!-- Node8&#45;&gt;Node17 -->
<g id="edge23_Node000008_Node000017" class="edge">
<title>Node8&#45;&gt;Node17</title>
<g id="a_edge23_Node000008_Node000017"><a xlink:title=" ">
<path fill="none" stroke="#63b8ff" d="M184.89,-144.08C198.8,-134.75 221.1,-121.53 242.75,-116.16 400.76,-76.96 597.68,-98.42 678.73,-110.14"/>
<polygon fill="#63b8ff" stroke="#63b8ff" points="678.15,-113.59 688.56,-111.6 679.18,-106.67 678.15,-113.59"/>
</a>
</g>
</g>
<!-- Node8&#45;&gt;Node18 -->
<g id="edge28_Node000008_Node000018" class="edge">
<title>Node8&#45;&gt;Node18</title>
<g id="a_edge28_Node000008_Node000018"><a xlink:title=" ">
<path fill="none" stroke="#63b8ff" d="M173.86,-144.06C181.24,-121.04 202.71,-64.83 242.75,-40.16 286.33,-13.31 345.92,-11.28 388.11,-14.27"/>
<polygon fill="#63b8ff" stroke="#63b8ff" points="387.76,-17.75 398.01,-15.11 388.34,-10.78 387.76,-17.75"/>
</a>
</g>
</g>
<!-- Node20 -->
<g id="Node000020" class="node">
<title>Node20</title>
<g id="a_Node000020"><a xlink:href="espresso_8c.html#a529711d7a64d90d49fb6a0c3870c5b61" target="_top" xlink:title="ONLY FOR UNIT TESTS.">
<polygon fill="white" stroke="#666666" points="342,-68.79 242.75,-68.79 242.75,-49.54 342,-49.54 342,-68.79"/>
<text xml:space="preserve" text-anchor="middle" x="292.38" y="-55.29" font-family="Helvetica,sans-Serif" font-size="10.00">parse_http_request</text>
</a>
</g>
</g>
<!-- Node8&#45;&gt;Node20 -->
<g id="edge24_Node000008_Node000020" class="edge">
<title>Node8&#45;&gt;Node20</title>
<g id="a_edge24_Node000008_Node000020"><a xlink:title=" ">
<path fill="none" stroke="#63b8ff" d="M178.9,-144.44C191.39,-129.76 216.75,-101.68 242.75,-83.16 247.21,-79.99 252.16,-77.01 257.14,-74.32"/>
<polygon fill="#63b8ff" stroke="#63b8ff" points="258.57,-77.51 265.91,-69.87 255.41,-71.27 258.57,-77.51"/>
</a>
</g>
</g>
<!-- Node11&#45;&gt;Node10 -->
<g id="edge14_Node000011_Node000010" class="edge">
<title>Node11&#45;&gt;Node10</title>
<g id="a_edge14_Node000011_Node000010"><a xlink:title=" ">
<path fill="none" stroke="#63b8ff" d="M316.84,-145.18C325.06,-149.09 334.19,-153.91 342,-159.16 359.76,-171.12 359.27,-180.81 378,-191.16 380.48,-192.54 383.07,-193.81 385.74,-195"/>
<polygon fill="#63b8ff" stroke="#63b8ff" points="384.25,-198.17 394.84,-198.59 386.82,-191.66 384.25,-198.17"/>
</a>
</g>
</g>
<!-- Node12 -->
<g id="Node000012" class="node">
<title>Node12</title>
<g id="a_Node000012"><a xlink:href="espresso_8c.html#a04c27c6493696fb67ab9b8f5296c14f1" target="_top" xlink:title="ONLY FOR UNIT TESTS.">
<polygon fill="white" stroke="#666666" points="482.12,-181.79 399.38,-181.79 399.38,-162.54 482.12,-162.54 482.12,-181.79"/>
<text xml:space="preserve" text-anchor="middle" x="440.75" y="-168.29" font-family="Helvetica,sans-Serif" font-size="10.00">compare_paths</text>
</a>
</g>
</g>
<!-- Node11&#45;&gt;Node12 -->
<g id="edge13_Node000011_Node000012" class="edge">
<title>Node11&#45;&gt;Node12</title>
<g id="a_edge13_Node000011_Node000012"><a xlink:title=" ">
<path fill="none" stroke="#63b8ff" d="M333.37,-145.28C350.48,-149.6 370.65,-154.7 388.8,-159.29"/>
<polygon fill="#63b8ff" stroke="#63b8ff" points="387.78,-162.64 398.33,-161.7 389.5,-155.85 387.78,-162.64"/>
</a>
</g>
</g>
<!-- Node13 -->
<g id="Node000013" class="node">
<title>Node13</title>
<g id="a_Node000013"><a xlink:href="espresso_8c.html#a260a9eca1b37d7151fd585fde9e355b8" target="_top" xlink:title="ONLY FOR UNIT TESTS.">
<polygon fill="white" stroke="#666666" points="493.75,-144.79 387.75,-144.79 387.75,-125.54 493.75,-125.54 493.75,-144.79"/>
<text xml:space="preserve" text-anchor="middle" x="440.75" y="-131.29" font-family="Helvetica,sans-Serif" font-size="10.00">parse_query_params</text>
</a>
</g>
</g>
<!-- Node11&#45;&gt;Node13 -->
<g id="edge15_Node000011_Node000013" class="edge">
<title>Node11&#45;&gt;Node13</title>
<g id="a_edge15_Node000011_Node000013"><a xlink:title=" ">
<path fill="none" stroke="#63b8ff" d="M336.11,-135.16C348.63,-135.16 362.61,-135.16 376.14,-135.16"/>
<polygon fill="#63b8ff" stroke="#63b8ff" points="375.84,-138.67 385.84,-135.16 375.84,-131.67 375.84,-138.67"/>
</a>
</g>
</g>
<!-- Node11&#45;&gt;Node18 -->
<g id="edge21_Node000011_Node000018" class="edge">
<title>Node11&#45;&gt;Node18</title>
<g id="a_edge21_Node000011_Node000018"><a xlink:title=" ">
<path fill="none" stroke="#63b8ff" d="M306.36,-125.05C331.6,-105.39 387.48,-61.88 418.3,-37.87"/>
<polygon fill="#63b8ff" stroke="#63b8ff" points="420.07,-40.93 425.8,-32.03 415.76,-35.41 420.07,-40.93"/>
</a>
</g>
</g>
<!-- Node14 -->
<g id="Node000014" class="node">
<title>Node14</title>
<g id="a_Node000014"><a xlink:href="espresso_8c.html#a2d9a0717a9389e6d178d0f4a8c2ef185" target="_top" xlink:title=" ">
<polygon fill="white" stroke="#666666" points="623.38,-182.79 547.38,-182.79 547.38,-163.54 623.38,-163.54 623.38,-182.79"/>
<text xml:space="preserve" text-anchor="middle" x="585.38" y="-169.29" font-family="Helvetica,sans-Serif" font-size="10.00">append_query</text>
</a>
</g>
</g>
<!-- Node13&#45;&gt;Node14 -->
<g id="edge16_Node000013_Node000014" class="edge">
<title>Node13&#45;&gt;Node14</title>
<g id="a_edge16_Node000013_Node000014"><a xlink:title=" ">
<path fill="none" stroke="#63b8ff" d="M479.6,-145.25C497.04,-149.9 517.93,-155.46 536.46,-160.4"/>
<polygon fill="#63b8ff" stroke="#63b8ff" points="535.31,-163.72 545.88,-162.91 537.12,-156.95 535.31,-163.72"/>
</a>
</g>
</g>
<!-- Node13&#45;&gt;Node17 -->
<g id="edge20_Node000013_Node000017" class="edge">
<title>Node13&#45;&gt;Node17</title>
<g id="a_edge20_Node000013_Node000017"><a xlink:title=" ">
<path fill="none" stroke="#63b8ff" d="M494.03,-131.55C548.09,-127.8 631.15,-122.06 678.93,-118.75"/>
<polygon fill="#63b8ff" stroke="#63b8ff" points="679.04,-122.25 688.77,-118.07 678.55,-115.27 679.04,-122.25"/>
</a>
</g>
</g>
<!-- Node15 -->
<g id="Node000015" class="node">
<title>Node15</title>
<g id="a_Node000015"><a xlink:href="espresso_8c.html#a755a65a488e1158eee3fdab0ecada8fe" target="_top" xlink:title=" ">
<polygon fill="white" stroke="#666666" points="755.25,-182.79 679.25,-182.79 679.25,-163.54 755.25,-163.54 755.25,-182.79"/>
<text xml:space="preserve" text-anchor="middle" x="717.25" y="-169.29" font-family="Helvetica,sans-Serif" font-size="10.00">decode_query</text>
</a>
</g>
</g>
<!-- Node14&#45;&gt;Node15 -->
<g id="edge17_Node000014_Node000015" class="edge">
<title>Node14&#45;&gt;Node15</title>
<g id="a_edge17_Node000014_Node000015"><a xlink:title=" ">
<path fill="none" stroke="#63b8ff" d="M623.59,-173.16C637.31,-173.16 653.07,-173.16 667.65,-173.16"/>
<polygon fill="#63b8ff" stroke="#63b8ff" points="667.51,-176.67 677.51,-173.16 667.51,-169.67 667.51,-176.67"/>
</a>
</g>
</g>
<!-- Node14&#45;&gt;Node17 -->
<g id="edge19_Node000014_Node000017" class="edge">
<title>Node14&#45;&gt;Node17</title>
<g id="a_edge19_Node000014_Node000017"><a xlink:title=" ">
<path fill="none" stroke="#63b8ff" d="M609.3,-163.11C629.79,-154.11 660.07,-140.82 683.18,-130.68"/>
<polygon fill="#63b8ff" stroke="#63b8ff" points="684.42,-133.96 692.17,-126.73 681.61,-127.55 684.42,-133.96"/>
</a>
</g>
</g>
<!-- Node16 -->
<g id="Node000016" class="node">
<title>Node16</title>
<g id="a_Node000016"><a xlink:href="espresso_8c.html#af4a5274d4719dec853dd32e1d8687553" target="_top" xlink:title=" ">
<polygon fill="white" stroke="#666666" points="863.5,-182.79 803.25,-182.79 803.25,-163.54 863.5,-163.54 863.5,-182.79"/>
<text xml:space="preserve" text-anchor="middle" x="833.38" y="-169.29" font-family="Helvetica,sans-Serif" font-size="10.00">hex_to_int</text>
</a>
</g>
</g>
<!-- Node15&#45;&gt;Node16 -->
<g id="edge18_Node000015_Node000016" class="edge">
<title>Node15&#45;&gt;Node16</title>
<g id="a_edge18_Node000015_Node000016"><a xlink:title=" ">
<path fill="none" stroke="#63b8ff" d="M755.62,-173.16C767.13,-173.16 779.85,-173.16 791.57,-173.16"/>
<polygon fill="#63b8ff" stroke="#63b8ff" points="791.37,-176.67 801.37,-173.16 791.37,-169.67 791.37,-176.67"/>
</a>
</g>
</g>
<!-- Node19 -->
<g id="Node000019" class="node">
<title>Node19</title>
<g id="a_Node000019"><a xlink:href="espresso_8c.html#a5fa30991ad104ba1fe0001e7aefe95ac" target="_top" xlink:title=" ">
<polygon fill="white" stroke="#666666" points="631.25,-30.79 539.5,-30.79 539.5,-11.54 631.25,-11.54 631.25,-30.79"/>
<text xml:space="preserve" text-anchor="middle" x="585.38" y="-17.29" font-family="Helvetica,sans-Serif" font-size="10.00">handle_write_end</text>
</a>
</g>
</g>
<!-- Node18&#45;&gt;Node19 -->
<g id="edge22_Node000018_Node000019" class="edge">
<title>Node18&#45;&gt;Node19</title>
<g id="a_edge22_Node000018_Node000019"><a xlink:title=" ">
<path fill="none" stroke="#63b8ff" d="M482.24,-21.16C496.35,-21.16 512.45,-21.16 527.64,-21.16"/>
<polygon fill="#63b8ff" stroke="#63b8ff" points="527.5,-24.67 537.5,-21.16 527.5,-17.67 527.5,-24.67"/>
</a>
</g>
</g>
<!-- Node20&#45;&gt;Node17 -->
<g id="edge25_Node000020_Node000017" class="edge">
<title>Node20&#45;&gt;Node17</title>
<g id="a_edge25_Node000020_Node000017"><a xlink:title=" ">
<path fill="none" stroke="#63b8ff" d="M342.44,-58.09C408.78,-57.67 530.4,-60.55 631.25,-83.16 649.7,-87.3 669.43,-94.76 685.24,-101.54"/>
<polygon fill="#63b8ff" stroke="#63b8ff" points="683.55,-104.62 694.11,-105.47 686.38,-98.22 683.55,-104.62"/>
</a>
</g>
</g>
<!-- Node20&#45;&gt;Node18 -->
<g id="edge26_Node000020_Node000018" class="edge">
<title>Node20&#45;&gt;Node18</title>
<g id="a_edge26_Node000020_Node000018"><a xlink:title=" ">
<path fill="none" stroke="#63b8ff" d="M332.22,-49.08C349.9,-44.49 371.05,-39 389.9,-34.11"/>
<polygon fill="#63b8ff" stroke="#63b8ff" points="390.72,-37.51 399.52,-31.61 388.96,-30.74 390.72,-37.51"/>
</a>
</g>
</g>
</g>
</svg>
