<?xml version="1.0" encoding="UTF-8" standalone="no"?>
<!DOCTYPE svg PUBLIC "-//W3C//DTD SVG 1.1//EN"
 "http://www.w3.org/Graphics/SVG/1.1/DTD/svg11.dtd">
<!-- Generated by graphviz version 14.0.5 (0)
 -->
<!-- Title: send_error Pages: 1 -->
<svg width="368pt" height="27pt"
 viewBox="0.00 0.00 368.00 27.00" xmlns="http://www.w3.org/2000/svg" xmlns:xlink="http://www.w3.org/1999/xlink">
<g id="graph0" class="graph" transform="scale(1 1) rotate(0) translate(4 23.25)">
<title>send_error</title>
<!-- Node1 -->
<g id="Node000001" class="node">
<title>Node1</title>
<g id="a_Node000001"><a xlink:title="Sends error response with status code and message.">
<polygon fill="#999999" stroke="#666666" points="61.75,-19.25 0,-19.25 0,0 61.75,0 61.75,-19.25"/>
<text xml:space="preserve" text-anchor="middle" x="30.88" y="-5.75" font-family="Helvetica,sans-Serif" font-size="10.00">send_error</text>
</a>
</g>
</g>
<!-- Node2 -->
<g id="Node000002" class="node">
<title>Node2</title>
<g id="a_Node000002"><a xlink:href="espresso_8c.html#a1851b4d23bfd00e217b09add89e1aec4" target="_top" xlink:title="Sends JSON response.">
<polygon fill="white" stroke="#666666" points="203,-19.25 97.75,-19.25 97.75,0 203,0 203,-19.25"/>
<text xml:space="preserve" text-anchor="middle" x="150.38" y="-5.75" font-family="Helvetica,sans-Serif" font-size="10.00">send_json_response</text>
</a>
</g>
</g>
<!-- Node1&#45;&gt;Node2 -->
<g id="edge1_Node000001_Node000002" class="edge">
<title>Node1&#45;&gt;Node2</title>
<g id="a_edge1_Node000001_Node000002"><a xlink:title=" ">
<path fill="none" stroke="#63b8ff" d="M62.13,-9.62C69.52,-9.62 77.7,-9.62 86,-9.62"/>
<polygon fill="#63b8ff" stroke="#63b8ff" points="85.82,-13.13 95.82,-9.63 85.82,-6.13 85.82,-13.13"/>
</a>
</g>
</g>
<!-- Node3 -->
<g id="Node000003" class="node">
<title>Node3</title>
<g id="a_Node000003"><a xlink:href="espresso_8c.html#a61c64a500ef217b0825333b9f35234e3" target="_top" xlink:title=" ">
<polygon fill="white" stroke="#666666" points="360,-19.25 239,-19.25 239,0 360,0 360,-19.25"/>
<text xml:space="preserve" text-anchor="middle" x="299.5" y="-5.75" font-family="Helvetica,sans-Serif" font-size="10.00">build_response_headers</text>
</a>
</g>
</g>
<!-- Node2&#45;&gt;Node3 -->
<g id="edge2_Node000002_Node000003" class="edge">
<title>Node2&#45;&gt;Node3</title>
<g id="a_edge2_Node000002_Node000003"><a xlink:title=" ">
<path fill="none" stroke="#63b8ff" d="M203.25,-9.62C211.01,-9.62 219.12,-9.62 227.2,-9.62"/>
<polygon fill="#63b8ff" stroke="#63b8ff" points="227.04,-13.13 237.04,-9.63 227.04,-6.13 227.04,-13.13"/>
</a>
</g>
</g>
</g>
</svg>
