<?xml version="1.0" encoding="UTF-8" standalone="no"?>
<!DOCTYPE svg PUBLIC "-//W3C//DTD SVG 1.1//EN"
 "http://www.w3.org/Graphics/SVG/1.1/DTD/svg11.dtd">
<!-- Generated by graphviz version 14.0.5 (0)
 -->
<!-- Title: send_message Pages: 1 -->
<svg width="811pt" height="256pt"
 viewBox="0.00 0.00 811.00 256.00" xmlns="http://www.w3.org/2000/svg" xmlns:xlink="http://www.w3.org/1999/xlink">
<g id="graph0" class="graph" transform="scale(1 1) rotate(0) translate(4 251.92)">
<title>send_message</title>
<!-- Node1 -->
<g id="Node000001" class="node">
<title>Node1</title>
<g id="a_Node000001"><a xlink:title=" ">
<polygon fill="#999999" stroke="#666666" points="802.75,-149.98 720.75,-149.98 720.75,-130.73 802.75,-130.73 802.75,-149.98"/>
<text xml:space="preserve" text-anchor="middle" x="761.75" y="-136.48" font-family="Helvetica,sans-Serif" font-size="10.00">send_message</text>
</a>
</g>
</g>
<!-- Node2 -->
<g id="Node000002" class="node">
<title>Node2</title>
<g id="a_Node000002"><a xlink:href="espresso_8c.html#a2a7b96459e0adac1061eaec6a5722075" target="_top" xlink:title=" ">
<polygon fill="white" stroke="#666666" points="543.5,-187.98 469.75,-187.98 469.75,-168.73 543.5,-168.73 543.5,-187.98"/>
<text xml:space="preserve" text-anchor="middle" x="506.62" y="-174.48" font-family="Helvetica,sans-Serif" font-size="10.00">handle_buffer</text>
</a>
</g>
</g>
<!-- Node1&#45;&gt;Node2 -->
<g id="edge1_Node000001_Node000002" class="edge">
<title>Node1&#45;&gt;Node2</title>
<g id="a_edge1_Node000001_Node000002"><a xlink:title=" ">
<path fill="none" stroke="#63b8ff" d="M751.37,-160.44C739.5,-183.21 716.67,-219.12 684.75,-234.36 642.54,-254.51 623.74,-249.56 579.5,-234.36 552.87,-225.21 528.52,-201.71 516.16,-188.24"/>
<polygon fill="#63b8ff" stroke="#63b8ff" points="754.47,-162.07 755.77,-151.55 748.2,-158.96 754.47,-162.07"/>
</a>
</g>
</g>
<!-- Node3 -->
<g id="Node000003" class="node">
<title>Node3</title>
<g id="a_Node000003"><a xlink:href="espresso_8c.html#a919e9a8a992f43f0fd82e87f4d40d2d2" target="_top" xlink:title=" ">
<polygon fill="white" stroke="#666666" points="427,-168.98 330,-168.98 330,-149.73 427,-149.73 427,-168.98"/>
<text xml:space="preserve" text-anchor="middle" x="378.5" y="-155.48" font-family="Helvetica,sans-Serif" font-size="10.00">handle_client_read</text>
</a>
</g>
</g>
<!-- Node1&#45;&gt;Node3 -->
<g id="edge7_Node000001_Node000003" class="edge">
<title>Node1&#45;&gt;Node3</title>
<g id="a_edge7_Node000001_Node000003"><a xlink:title=" ">
<path fill="none" stroke="#63b8ff" d="M708.94,-142.94C634.72,-146.64 499.15,-153.39 427.24,-156.98"/>
<polygon fill="#63b8ff" stroke="#63b8ff" points="708.99,-146.44 718.8,-142.45 708.64,-139.45 708.99,-146.44"/>
</a>
</g>
</g>
<!-- Node7 -->
<g id="Node000007" class="node">
<title>Node7</title>
<g id="a_Node000007"><a xlink:href="espresso_8c.html#a015718d876f3d5394b1ab3d6e39e989f" target="_top" xlink:title=" ">
<polygon fill="white" stroke="#666666" points="433.75,-111.98 323.25,-111.98 323.25,-92.73 433.75,-92.73 433.75,-111.98"/>
<text xml:space="preserve" text-anchor="middle" x="378.5" y="-98.48" font-family="Helvetica,sans-Serif" font-size="10.00">handle_client_timeout</text>
</a>
</g>
</g>
<!-- Node1&#45;&gt;Node7 -->
<g id="edge8_Node000001_Node000007" class="edge">
<title>Node1&#45;&gt;Node7</title>
<g id="a_edge8_Node000001_Node000007"><a xlink:title=" ">
<path fill="none" stroke="#63b8ff" d="M709.3,-135.23C637.47,-128.07 507.7,-115.13 434.18,-107.81"/>
<polygon fill="#63b8ff" stroke="#63b8ff" points="708.51,-138.67 718.8,-136.18 709.2,-131.7 708.51,-138.67"/>
</a>
</g>
</g>
<!-- Node8 -->
<g id="Node000008" class="node">
<title>Node8</title>
<g id="a_Node000008"><a xlink:href="espresso_8c.html#a041948e0d9b16b9c852053d3fb3f2a69" target="_top" xlink:title="ONLY FOR UNIT TESTS.">
<polygon fill="white" stroke="#666666" points="675.38,-224.98 588.88,-224.98 588.88,-205.73 675.38,-205.73 675.38,-224.98"/>
<text xml:space="preserve" text-anchor="middle" x="632.12" y="-211.48" font-family="Helvetica,sans-Serif" font-size="10.00">handle_endpoint</text>
</a>
</g>
</g>
<!-- Node1&#45;&gt;Node8 -->
<g id="edge10_Node000001_Node000008" class="edge">
<title>Node1&#45;&gt;Node8</title>
<g id="a_edge10_Node000001_Node000008"><a xlink:title=" ">
<path fill="none" stroke="#63b8ff" d="M740.97,-157.89C726.27,-170.22 705.29,-186.42 684.75,-197.36 679.14,-200.35 672.93,-203 666.81,-205.3"/>
<polygon fill="#63b8ff" stroke="#63b8ff" points="743.2,-160.59 748.51,-151.42 738.64,-155.27 743.2,-160.59"/>
</a>
</g>
</g>
<!-- Node9 -->
<g id="Node000009" class="node">
<title>Node9</title>
<g id="a_Node000009"><a xlink:href="espresso_8c.html#a529711d7a64d90d49fb6a0c3870c5b61" target="_top" xlink:title="ONLY FOR UNIT TESTS.">
<polygon fill="white" stroke="#666666" points="681.75,-187.98 582.5,-187.98 582.5,-168.73 681.75,-168.73 681.75,-187.98"/>
<text xml:space="preserve" text-anchor="middle" x="632.12" y="-174.48" font-family="Helvetica,sans-Serif" font-size="10.00">parse_http_request</text>
</a>
</g>
</g>
<!-- Node1&#45;&gt;Node9 -->
<g id="edge12_Node000001_Node000009" class="edge">
<title>Node1&#45;&gt;Node9</title>
<g id="a_edge12_Node000001_Node000009"><a xlink:title=" ">
<path fill="none" stroke="#63b8ff" d="M716.01,-153.68C699.8,-158.5 681.79,-163.87 666.71,-168.36"/>
<polygon fill="#63b8ff" stroke="#63b8ff" points="716.85,-157.08 725.43,-150.87 714.85,-150.37 716.85,-157.08"/>
</a>
</g>
</g>
<!-- Node10 -->
<g id="Node000010" class="node">
<title>Node10</title>
<g id="a_Node000010"><a xlink:href="espresso_8c.html#a1851b4d23bfd00e217b09add89e1aec4" target="_top" xlink:title="Sends JSON response.">
<polygon fill="white" stroke="#666666" points="684.75,-73.98 579.5,-73.98 579.5,-54.73 684.75,-54.73 684.75,-73.98"/>
<text xml:space="preserve" text-anchor="middle" x="632.12" y="-60.48" font-family="Helvetica,sans-Serif" font-size="10.00">send_json_response</text>
</a>
</g>
</g>
<!-- Node1&#45;&gt;Node10 -->
<g id="edge14_Node000001_Node000010" class="edge">
<title>Node1&#45;&gt;Node10</title>
<g id="a_edge14_Node000001_Node000010"><a xlink:title=" ">
<path fill="none" stroke="#63b8ff" d="M738.55,-123.73C723.72,-112.98 703.55,-99.06 684.75,-88.36 675.9,-83.32 665.82,-78.45 656.92,-74.43"/>
<polygon fill="#63b8ff" stroke="#63b8ff" points="736.1,-126.27 746.24,-129.37 740.24,-120.63 736.1,-126.27"/>
</a>
</g>
</g>
<!-- Node12 -->
<g id="Node000012" class="node">
<title>Node12</title>
<g id="a_Node000012"><a xlink:href="espresso_8c.html#a74fa803b07b95b5f1446ae4bb85f4f0b" target="_top" xlink:title="Sends text response.">
<polygon fill="white" stroke="#666666" points="287.25,-36.98 184.25,-36.98 184.25,-17.73 287.25,-17.73 287.25,-36.98"/>
<text xml:space="preserve" text-anchor="middle" x="235.75" y="-23.48" font-family="Helvetica,sans-Serif" font-size="10.00">send_text_response</text>
</a>
</g>
</g>
<!-- Node1&#45;&gt;Node12 -->
<g id="edge16_Node000001_Node000012" class="edge">
<title>Node1&#45;&gt;Node12</title>
<g id="a_edge16_Node000001_Node000012"><a xlink:title=" ">
<path fill="none" stroke="#63b8ff" d="M751.32,-120.29C739.39,-97.5 716.52,-61.42 684.75,-45.36 552.07,21.73 367.99,-1.27 283.07,-17.27"/>
<polygon fill="#63b8ff" stroke="#63b8ff" points="748.16,-121.79 755.74,-129.18 754.42,-118.67 748.16,-121.79"/>
</a>
</g>
</g>
<!-- Node2&#45;&gt;Node3 -->
<g id="edge2_Node000002_Node000003" class="edge">
<title>Node2&#45;&gt;Node3</title>
<g id="a_edge2_Node000002_Node000003"><a xlink:title=" ">
<path fill="none" stroke="#63b8ff" d="M465.78,-166.03C453.56,-163.72 439.99,-161.6 427.3,-159.99"/>
<polygon fill="#63b8ff" stroke="#63b8ff" points="465.03,-169.45 475.52,-167.99 466.41,-162.58 465.03,-169.45"/>
</a>
</g>
</g>
<!-- Node3&#45;&gt;Node2 -->
<g id="edge3_Node000003_Node000002" class="edge">
<title>Node3&#45;&gt;Node2</title>
<g id="a_edge3_Node000003_Node000002"><a xlink:title=" ">
<path fill="none" stroke="#63b8ff" d="M419.26,-171.67C435.35,-174.71 453.78,-177.44 469.48,-179.08"/>
<polygon fill="#63b8ff" stroke="#63b8ff" points="420.02,-168.25 409.52,-169.71 418.64,-175.11 420.02,-168.25"/>
</a>
</g>
</g>
<!-- Node4 -->
<g id="Node000004" class="node">
<title>Node4</title>
<g id="a_Node000004"><a xlink:href="espresso_8c.html#a90f2058b8890cfb99e6f595b8f066919" target="_top" xlink:title=" ">
<polygon fill="white" stroke="#666666" points="284.25,-111.98 187.25,-111.98 187.25,-92.73 284.25,-92.73 284.25,-111.98"/>
<text xml:space="preserve" text-anchor="middle" x="235.75" y="-98.48" font-family="Helvetica,sans-Serif" font-size="10.00">handle_connection</text>
</a>
</g>
</g>
<!-- Node3&#45;&gt;Node4 -->
<g id="edge4_Node000003_Node000004" class="edge">
<title>Node3&#45;&gt;Node4</title>
<g id="a_edge4_Node000003_Node000004"><a xlink:title=" ">
<path fill="none" stroke="#63b8ff" d="M342.06,-145.01C316.87,-134.8 283.67,-121.36 261.34,-112.32"/>
<polygon fill="#63b8ff" stroke="#63b8ff" points="340.68,-148.22 351.26,-148.73 343.3,-141.73 340.68,-148.22"/>
</a>
</g>
</g>
<!-- Node5 -->
<g id="Node000005" class="node">
<title>Node5</title>
<g id="a_Node000005"><a xlink:href="espresso_8c.html#a0ba22157d15a70c4c22441b040bb0f74" target="_top" xlink:title="Starts the HTTP server loop.">
<polygon fill="white" stroke="#666666" points="140.75,-111.98 80.5,-111.98 80.5,-92.73 140.75,-92.73 140.75,-111.98"/>
<text xml:space="preserve" text-anchor="middle" x="110.62" y="-98.48" font-family="Helvetica,sans-Serif" font-size="10.00">app_listen</text>
</a>
</g>
</g>
<!-- Node4&#45;&gt;Node5 -->
<g id="edge5_Node000004_Node000005" class="edge">
<title>Node4&#45;&gt;Node5</title>
<g id="a_edge5_Node000004_Node000005"><a xlink:title=" ">
<path fill="none" stroke="#63b8ff" d="M175.46,-102.36C163.53,-102.36 151.5,-102.36 141.14,-102.36"/>
<polygon fill="#63b8ff" stroke="#63b8ff" points="175.28,-105.86 185.28,-102.36 175.28,-98.86 175.28,-105.86"/>
</a>
</g>
</g>
<!-- Node6 -->
<g id="Node000006" class="node">
<title>Node6</title>
<g id="a_Node000006"><a xlink:href="main_8c.html#ae66f6b31b5ad750f1fe042a706a4e3d4" target="_top" xlink:title=" ">
<polygon fill="white" stroke="#666666" points="37,-73.98 0,-73.98 0,-54.73 37,-54.73 37,-73.98"/>
<text xml:space="preserve" text-anchor="middle" x="18.5" y="-60.48" font-family="Helvetica,sans-Serif" font-size="10.00">main</text>
</a>
</g>
</g>
<!-- Node5&#45;&gt;Node6 -->
<g id="edge6_Node000005_Node000006" class="edge">
<title>Node5&#45;&gt;Node6</title>
<g id="a_edge6_Node000005_Node000006"><a xlink:title=" ">
<path fill="none" stroke="#63b8ff" d="M75.45,-87.95C62.46,-82.47 48.2,-76.46 37.33,-71.87"/>
<polygon fill="#63b8ff" stroke="#63b8ff" points="73.98,-91.12 84.55,-91.78 76.7,-84.67 73.98,-91.12"/>
</a>
</g>
</g>
<!-- Node7&#45;&gt;Node4 -->
<g id="edge9_Node000007_Node000004" class="edge">
<title>Node7&#45;&gt;Node4</title>
<g id="a_edge9_Node000007_Node000004"><a xlink:title=" ">
<path fill="none" stroke="#63b8ff" d="M311.64,-102.36C302.52,-102.36 293.3,-102.36 284.6,-102.36"/>
<polygon fill="#63b8ff" stroke="#63b8ff" points="311.57,-105.86 321.57,-102.36 311.57,-98.86 311.57,-105.86"/>
</a>
</g>
</g>
<!-- Node8&#45;&gt;Node2 -->
<g id="edge11_Node000008_Node000002" class="edge">
<title>Node8&#45;&gt;Node2</title>
<g id="a_edge11_Node000008_Node000002"><a xlink:title=" ">
<path fill="none" stroke="#63b8ff" d="M586.36,-201.94C571.5,-197.49 555.21,-192.61 541.33,-188.45"/>
<polygon fill="#63b8ff" stroke="#63b8ff" points="585.34,-205.29 595.93,-204.81 587.35,-198.59 585.34,-205.29"/>
</a>
</g>
</g>
<!-- Node9&#45;&gt;Node2 -->
<g id="edge13_Node000009_Node000002" class="edge">
<title>Node9&#45;&gt;Node2</title>
<g id="a_edge13_Node000009_Node000002"><a xlink:title=" ">
<path fill="none" stroke="#63b8ff" d="M571.07,-178.36C561.78,-178.36 552.44,-178.36 543.89,-178.36"/>
<polygon fill="#63b8ff" stroke="#63b8ff" points="570.8,-181.86 580.8,-178.36 570.8,-174.86 570.8,-181.86"/>
</a>
</g>
</g>
<!-- Node11 -->
<g id="Node000011" class="node">
<title>Node11</title>
<g id="a_Node000011"><a xlink:href="espresso_8c.html#afb4623b096ac903aa1c53a5f0c730328" target="_top" xlink:title="Sends error response with status code and message.">
<polygon fill="white" stroke="#666666" points="537.5,-73.98 475.75,-73.98 475.75,-54.73 537.5,-54.73 537.5,-73.98"/>
<text xml:space="preserve" text-anchor="middle" x="506.62" y="-60.48" font-family="Helvetica,sans-Serif" font-size="10.00">send_error</text>
</a>
</g>
</g>
<!-- Node10&#45;&gt;Node11 -->
<g id="edge15_Node000010_Node000011" class="edge">
<title>Node10&#45;&gt;Node11</title>
<g id="a_edge15_Node000010_Node000011"><a xlink:title=" ">
<path fill="none" stroke="#63b8ff" d="M567.78,-64.36C557.3,-64.36 546.89,-64.36 537.75,-64.36"/>
<polygon fill="#63b8ff" stroke="#63b8ff" points="567.59,-67.86 577.59,-64.36 567.59,-60.86 567.59,-67.86"/>
</a>
</g>
</g>
<!-- Node13 -->
<g id="Node000013" class="node">
<title>Node13</title>
<g id="a_Node000013"><a xlink:href="main_8c.html#a3567783714153d35ee83fd6de55968d1" target="_top" xlink:title=" ">
<polygon fill="white" stroke="#666666" points="147.5,-73.98 73.75,-73.98 73.75,-54.73 147.5,-54.73 147.5,-73.98"/>
<text xml:space="preserve" text-anchor="middle" x="110.62" y="-60.48" font-family="Helvetica,sans-Serif" font-size="10.00">echo_handler</text>
</a>
</g>
</g>
<!-- Node12&#45;&gt;Node13 -->
<g id="edge17_Node000012_Node000013" class="edge">
<title>Node12&#45;&gt;Node13</title>
<g id="a_edge17_Node000012_Node000013"><a xlink:title=" ">
<path fill="none" stroke="#63b8ff" d="M190.12,-40.77C175.3,-45.22 159.07,-50.1 145.23,-54.26"/>
<polygon fill="#63b8ff" stroke="#63b8ff" points="191.09,-44.13 199.66,-37.9 189.07,-37.43 191.09,-44.13"/>
</a>
</g>
</g>
<!-- Node14 -->
<g id="Node000014" class="node">
<title>Node14</title>
<g id="a_Node000014"><a xlink:href="main_8c.html#a036dbf8db2f30bf4fb436fcc8ea138c7" target="_top" xlink:title=" ">
<polygon fill="white" stroke="#666666" points="148.25,-36.98 73,-36.98 73,-17.73 148.25,-17.73 148.25,-36.98"/>
<text xml:space="preserve" text-anchor="middle" x="110.62" y="-23.48" font-family="Helvetica,sans-Serif" font-size="10.00">index_handler</text>
</a>
</g>
</g>
<!-- Node12&#45;&gt;Node14 -->
<g id="edge19_Node000012_Node000014" class="edge">
<title>Node12&#45;&gt;Node14</title>
<g id="a_edge19_Node000012_Node000014"><a xlink:title=" ">
<path fill="none" stroke="#63b8ff" d="M172.67,-27.36C164.36,-27.36 156.06,-27.36 148.38,-27.36"/>
<polygon fill="#63b8ff" stroke="#63b8ff" points="172.45,-30.86 182.45,-27.36 172.45,-23.86 172.45,-30.86"/>
</a>
</g>
</g>
<!-- Node13&#45;&gt;Node6 -->
<g id="edge18_Node000013_Node000006" class="edge">
<title>Node13&#45;&gt;Node6</title>
<g id="a_edge18_Node000013_Node000006"><a xlink:title=" ">
<path fill="none" stroke="#63b8ff" d="M62.17,-64.36C53.21,-64.36 44.38,-64.36 37.09,-64.36"/>
<polygon fill="#63b8ff" stroke="#63b8ff" points="61.97,-67.86 71.97,-64.36 61.97,-60.86 61.97,-67.86"/>
</a>
</g>
</g>
<!-- Node14&#45;&gt;Node6 -->
<g id="edge20_Node000014_Node000006" class="edge">
<title>Node14&#45;&gt;Node6</title>
<g id="a_edge20_Node000014_Node000006"><a xlink:title=" ">
<path fill="none" stroke="#63b8ff" d="M74.62,-41.73C61.83,-46.98 47.89,-52.7 37.24,-57.07"/>
<polygon fill="#63b8ff" stroke="#63b8ff" points="75.68,-45.08 83.6,-38.04 73.02,-38.6 75.68,-45.08"/>
</a>
</g>
</g>
</g>
</svg>
