<?xml version="1.0" encoding="UTF-8" standalone="no"?>
<!DOCTYPE svg PUBLIC "-//W3C//DTD SVG 1.1//EN"
 "http://www.w3.org/Graphics/SVG/1.1/DTD/svg11.dtd">
<!-- Generated by graphviz version 14.0.5 (0)
 -->
<!-- Title: app_listen Pages: 1 -->
<svg width="1077pt" height="244pt"
 viewBox="0.00 0.00 1077.00 244.00" xmlns="http://www.w3.org/2000/svg" xmlns:xlink="http://www.w3.org/1999/xlink">
<g id="graph0" class="graph" transform="scale(1 1) rotate(0) translate(4 240.25)">
<title>app_listen</title>
<!-- Node1 -->
<g id="Node000001" class="node">
<title>Node1</title>
<g id="a_Node000001"><a xlink:title="Starts the HTTP server loop.">
<polygon fill="#999999" stroke="#666666" points="60.25,-180.25 0,-180.25 0,-161 60.25,-161 60.25,-180.25"/>
<text xml:space="preserve" text-anchor="middle" x="30.12" y="-166.75" font-family="Helvetica,sans-Serif" font-size="10.00">app_listen</text>
</a>
</g>
</g>
<!-- Node2 -->
<g id="Node000002" class="node">
<title>Node2</title>
<g id="a_Node000002"><a xlink:href="espresso_8c.html#a90f2058b8890cfb99e6f595b8f066919" target="_top" xlink:title=" ">
<polygon fill="white" stroke="#666666" points="193.25,-180.25 96.25,-180.25 96.25,-161 193.25,-161 193.25,-180.25"/>
<text xml:space="preserve" text-anchor="middle" x="144.75" y="-166.75" font-family="Helvetica,sans-Serif" font-size="10.00">handle_connection</text>
</a>
</g>
</g>
<!-- Node1&#45;&gt;Node2 -->
<g id="edge1_Node000001_Node000002" class="edge">
<title>Node1&#45;&gt;Node2</title>
<g id="a_edge1_Node000001_Node000002"><a xlink:title=" ">
<path fill="none" stroke="#63b8ff" d="M60.72,-170.62C68.15,-170.62 76.4,-170.62 84.73,-170.62"/>
<polygon fill="#63b8ff" stroke="#63b8ff" points="84.55,-174.13 94.55,-170.63 84.55,-167.13 84.55,-174.13"/>
</a>
</g>
</g>
<!-- Node3 -->
<g id="Node000003" class="node">
<title>Node3</title>
<g id="a_Node000003"><a xlink:href="espresso_8c.html#a16da648ec46c63111e6d0f16c8c861d3" target="_top" xlink:title=" ">
<polygon fill="white" stroke="#666666" points="307.88,-236.25 247.62,-236.25 247.62,-217 307.88,-217 307.88,-236.25"/>
<text xml:space="preserve" text-anchor="middle" x="277.75" y="-222.75" font-family="Helvetica,sans-Serif" font-size="10.00">add_client</text>
</a>
</g>
</g>
<!-- Node2&#45;&gt;Node3 -->
<g id="edge2_Node000002_Node000003" class="edge">
<title>Node2&#45;&gt;Node3</title>
<g id="a_edge2_Node000002_Node000003"><a xlink:title=" ">
<path fill="none" stroke="#63b8ff" d="M166.86,-180.69C183.64,-188.58 207.78,-199.68 229.25,-208.62 232.26,-209.88 235.4,-211.15 238.56,-212.4"/>
<polygon fill="#63b8ff" stroke="#63b8ff" points="237.25,-215.65 247.84,-216 239.78,-209.12 237.25,-215.65"/>
</a>
</g>
</g>
<!-- Node4 -->
<g id="Node000004" class="node">
<title>Node4</title>
<g id="a_Node000004"><a xlink:href="espresso_8c.html#afc4191b175ae67f2d0d5b264caa6d08a" target="_top" xlink:title=" ">
<polygon fill="white" stroke="#666666" points="317.25,-199.25 238.25,-199.25 238.25,-180 317.25,-180 317.25,-199.25"/>
<text xml:space="preserve" text-anchor="middle" x="277.75" y="-185.75" font-family="Helvetica,sans-Serif" font-size="10.00">allocate_buffer</text>
</a>
</g>
</g>
<!-- Node2&#45;&gt;Node4 -->
<g id="edge3_Node000002_Node000004" class="edge">
<title>Node2&#45;&gt;Node4</title>
<g id="a_edge3_Node000002_Node000004"><a xlink:title=" ">
<path fill="none" stroke="#63b8ff" d="M193.41,-177.54C204.27,-179.11 215.84,-180.79 226.79,-182.38"/>
<polygon fill="#63b8ff" stroke="#63b8ff" points="226.03,-185.81 236.43,-183.78 227.04,-178.88 226.03,-185.81"/>
</a>
</g>
</g>
<!-- Node5 -->
<g id="Node000005" class="node">
<title>Node5</title>
<g id="a_Node000005"><a xlink:href="espresso_8c.html#a73277811539a2de04ce7e1295fbdba6a" target="_top" xlink:title=" ">
<polygon fill="white" stroke="#666666" points="567.5,-171.25 475.75,-171.25 475.75,-152 567.5,-152 567.5,-171.25"/>
<text xml:space="preserve" text-anchor="middle" x="521.62" y="-157.75" font-family="Helvetica,sans-Serif" font-size="10.00">close_connection</text>
</a>
</g>
</g>
<!-- Node2&#45;&gt;Node5 -->
<g id="edge4_Node000002_Node000005" class="edge">
<title>Node2&#45;&gt;Node5</title>
<g id="a_edge4_Node000002_Node000005"><a xlink:title=" ">
<path fill="none" stroke="#63b8ff" d="M193.61,-169.48C262.75,-167.82 390.33,-164.75 464.04,-162.98"/>
<polygon fill="#63b8ff" stroke="#63b8ff" points="463.96,-166.49 473.88,-162.75 463.8,-159.49 463.96,-166.49"/>
</a>
</g>
</g>
<!-- Node9 -->
<g id="Node000009" class="node">
<title>Node9</title>
<g id="a_Node000009"><a xlink:href="espresso_8c.html#a919e9a8a992f43f0fd82e87f4d40d2d2" target="_top" xlink:title=" ">
<polygon fill="white" stroke="#666666" points="326.25,-123.25 229.25,-123.25 229.25,-104 326.25,-104 326.25,-123.25"/>
<text xml:space="preserve" text-anchor="middle" x="277.75" y="-109.75" font-family="Helvetica,sans-Serif" font-size="10.00">handle_client_read</text>
</a>
</g>
</g>
<!-- Node2&#45;&gt;Node9 -->
<g id="edge8_Node000002_Node000009" class="edge">
<title>Node2&#45;&gt;Node9</title>
<g id="a_edge8_Node000002_Node000009"><a xlink:title=" ">
<path fill="none" stroke="#63b8ff" d="M168.87,-160.57C189.54,-151.57 220.08,-138.28 243.4,-128.14"/>
<polygon fill="#63b8ff" stroke="#63b8ff" points="244.7,-131.39 252.47,-124.19 241.91,-124.97 244.7,-131.39"/>
</a>
</g>
</g>
<!-- Node6 -->
<g id="Node000006" class="node">
<title>Node6</title>
<g id="a_Node000006"><a xlink:href="espresso_8c.html#aaf78724518167158b66ec656312fabd2" target="_top" xlink:title=" ">
<polygon fill="white" stroke="#666666" points="732.75,-171.25 607.25,-171.25 607.25,-152 732.75,-152 732.75,-171.25"/>
<text xml:space="preserve" text-anchor="middle" x="670" y="-157.75" font-family="Helvetica,sans-Serif" font-size="10.00">handle_connection_close</text>
</a>
</g>
</g>
<!-- Node5&#45;&gt;Node6 -->
<g id="edge5_Node000005_Node000006" class="edge">
<title>Node5&#45;&gt;Node6</title>
<g id="a_edge5_Node000005_Node000006"><a xlink:title=" ">
<path fill="none" stroke="#63b8ff" d="M567.74,-161.62C576.52,-161.62 585.93,-161.62 595.35,-161.62"/>
<polygon fill="#63b8ff" stroke="#63b8ff" points="595.3,-165.13 605.3,-161.63 595.3,-158.13 595.3,-165.13"/>
</a>
</g>
</g>
<!-- Node7 -->
<g id="Node000007" class="node">
<title>Node7</title>
<g id="a_Node000007"><a xlink:href="espresso_8c.html#a1804ce3a25646fd9c6c6ad98d45c6efa" target="_top" xlink:title=" ">
<polygon fill="white" stroke="#666666" points="860.5,-189.25 768.75,-189.25 768.75,-170 860.5,-170 860.5,-189.25"/>
<text xml:space="preserve" text-anchor="middle" x="814.62" y="-175.75" font-family="Helvetica,sans-Serif" font-size="10.00">endpoint_cleanup</text>
</a>
</g>
</g>
<!-- Node6&#45;&gt;Node7 -->
<g id="edge6_Node000006_Node000007" class="edge">
<title>Node6&#45;&gt;Node7</title>
<g id="a_edge6_Node000006_Node000007"><a xlink:title=" ">
<path fill="none" stroke="#63b8ff" d="M733.14,-169.47C741.11,-170.47 749.24,-171.5 757.11,-172.49"/>
<polygon fill="#63b8ff" stroke="#63b8ff" points="756.55,-175.95 766.91,-173.73 757.43,-169.01 756.55,-175.95"/>
</a>
</g>
</g>
<!-- Node8 -->
<g id="Node000008" class="node">
<title>Node8</title>
<g id="a_Node000008"><a xlink:href="espresso_8c.html#a837cf67658f96fc262c83a4882f96f45" target="_top" xlink:title=" ">
<polygon fill="white" stroke="#666666" points="853,-152.25 776.25,-152.25 776.25,-133 853,-133 853,-152.25"/>
<text xml:space="preserve" text-anchor="middle" x="814.62" y="-138.75" font-family="Helvetica,sans-Serif" font-size="10.00">remove_client</text>
</a>
</g>
</g>
<!-- Node6&#45;&gt;Node8 -->
<g id="edge7_Node000006_Node000008" class="edge">
<title>Node6&#45;&gt;Node8</title>
<g id="a_edge7_Node000006_Node000008"><a xlink:title=" ">
<path fill="none" stroke="#63b8ff" d="M733.14,-153.35C743.72,-151.94 754.58,-150.49 764.75,-149.14"/>
<polygon fill="#63b8ff" stroke="#63b8ff" points="764.95,-152.64 774.4,-147.85 764.03,-145.7 764.95,-152.64"/>
</a>
</g>
</g>
<!-- Node10 -->
<g id="Node000010" class="node">
<title>Node10</title>
<g id="a_Node000010"><a xlink:href="espresso_8c.html#a2a7b96459e0adac1061eaec6a5722075" target="_top" xlink:title=" ">
<polygon fill="white" stroke="#666666" points="436,-114.25 362.25,-114.25 362.25,-95 436,-95 436,-114.25"/>
<text xml:space="preserve" text-anchor="middle" x="399.12" y="-100.75" font-family="Helvetica,sans-Serif" font-size="10.00">handle_buffer</text>
</a>
</g>
</g>
<!-- Node9&#45;&gt;Node10 -->
<g id="edge9_Node000009_Node000010" class="edge">
<title>Node9&#45;&gt;Node10</title>
<g id="a_edge9_Node000009_Node000010"><a xlink:title=" ">
<path fill="none" stroke="#63b8ff" d="M326.62,-110.02C334.55,-109.42 342.77,-108.8 350.69,-108.2"/>
<polygon fill="#63b8ff" stroke="#63b8ff" points="350.79,-111.7 360.5,-107.46 350.27,-104.72 350.79,-111.7"/>
</a>
</g>
</g>
<!-- Node10&#45;&gt;Node5 -->
<g id="edge10_Node000010_Node000005" class="edge">
<title>Node10&#45;&gt;Node5</title>
<g id="a_edge10_Node000010_Node000005"><a xlink:title=" ">
<path fill="none" stroke="#63b8ff" d="M421.39,-114.68C440.23,-123.6 467.99,-136.73 489.36,-146.84"/>
<polygon fill="#63b8ff" stroke="#63b8ff" points="487.67,-149.91 498.2,-151.02 490.66,-143.58 487.67,-149.91"/>
</a>
</g>
</g>
<!-- Node11 -->
<g id="Node000011" class="node">
<title>Node11</title>
<g id="a_Node000011"><a xlink:href="espresso_8c.html#aca61aa31ed57abce18d1d3cffd0d47e3" target="_top" xlink:title=" ">
<polygon fill="white" stroke="#666666" points="727.88,-133.25 612.12,-133.25 612.12,-114 727.88,-114 727.88,-133.25"/>
<text xml:space="preserve" text-anchor="middle" x="670" y="-119.75" font-family="Helvetica,sans-Serif" font-size="10.00">generate_allow_header</text>
</a>
</g>
</g>
<!-- Node10&#45;&gt;Node11 -->
<g id="edge11_Node000010_Node000011" class="edge">
<title>Node10&#45;&gt;Node11</title>
<g id="a_edge11_Node000010_Node000011"><a xlink:title=" ">
<path fill="none" stroke="#63b8ff" d="M436.39,-107.19C478.32,-110.15 548.27,-115.09 600.54,-118.79"/>
<polygon fill="#63b8ff" stroke="#63b8ff" points="600.01,-122.26 610.23,-119.47 600.5,-115.28 600.01,-122.26"/>
</a>
</g>
</g>
<!-- Node12 -->
<g id="Node000012" class="node">
<title>Node12</title>
<g id="a_Node000012"><a xlink:href="espresso_8c.html#a373b955efab67a13fdc71105c53aa5d5" target="_top" xlink:title="ONLY FOR UNIT TESTS.">
<polygon fill="white" stroke="#666666" points="564.88,-95.25 478.38,-95.25 478.38,-76 564.88,-76 564.88,-95.25"/>
<text xml:space="preserve" text-anchor="middle" x="521.62" y="-81.75" font-family="Helvetica,sans-Serif" font-size="10.00">handle_endpoint</text>
</a>
</g>
</g>
<!-- Node10&#45;&gt;Node12 -->
<g id="edge12_Node000010_Node000012" class="edge">
<title>Node10&#45;&gt;Node12</title>
<g id="a_edge12_Node000010_Node000012"><a xlink:title=" ">
<path fill="none" stroke="#63b8ff" d="M436.28,-98.92C445.95,-97.4 456.62,-95.72 467.01,-94.08"/>
<polygon fill="#63b8ff" stroke="#63b8ff" points="467.31,-97.58 476.64,-92.56 466.22,-90.66 467.31,-97.58"/>
</a>
</g>
</g>
<!-- Node18 -->
<g id="Node000018" class="node">
<title>Node18</title>
<g id="a_Node000018"><a xlink:href="espresso_8c.html#a142b429010a8046d339d36552bd20f7e" target="_top" xlink:title=" ">
<polygon fill="white" stroke="#666666" points="711,-22.25 629,-22.25 629,-3 711,-3 711,-22.25"/>
<text xml:space="preserve" text-anchor="middle" x="670" y="-8.75" font-family="Helvetica,sans-Serif" font-size="10.00">send_message</text>
</a>
</g>
</g>
<!-- Node10&#45;&gt;Node18 -->
<g id="edge23_Node000010_Node000018" class="edge">
<title>Node10&#45;&gt;Node18</title>
<g id="a_edge23_Node000010_Node000018"><a xlink:title=" ">
<path fill="none" stroke="#63b8ff" d="M416.48,-94.65C430.74,-86.28 452.18,-74.47 472,-66.62 519.97,-47.64 577.04,-32.79 617.37,-23.51"/>
<polygon fill="#63b8ff" stroke="#63b8ff" points="618.09,-26.94 627.07,-21.32 616.54,-20.11 618.09,-26.94"/>
</a>
</g>
</g>
<!-- Node20 -->
<g id="Node000020" class="node">
<title>Node20</title>
<g id="a_Node000020"><a xlink:href="espresso_8c.html#a8ddc375ff20a190089968e04405e0a70" target="_top" xlink:title="ONLY FOR UNIT TESTS.">
<polygon fill="white" stroke="#666666" points="571.25,-19.25 472,-19.25 472,0 571.25,0 571.25,-19.25"/>
<text xml:space="preserve" text-anchor="middle" x="521.62" y="-5.75" font-family="Helvetica,sans-Serif" font-size="10.00">parse_http_request</text>
</a>
</g>
</g>
<!-- Node10&#45;&gt;Node20 -->
<g id="edge21_Node000010_Node000020" class="edge">
<title>Node10&#45;&gt;Node20</title>
<g id="a_edge21_Node000010_Node000020"><a xlink:title=" ">
<path fill="none" stroke="#63b8ff" d="M408.15,-94.9C420.64,-80.22 446,-52.14 472,-33.62 476.46,-30.45 481.41,-27.47 486.39,-24.78"/>
<polygon fill="#63b8ff" stroke="#63b8ff" points="487.82,-27.97 495.16,-20.33 484.66,-21.73 487.82,-27.97"/>
</a>
</g>
</g>
<!-- Node12&#45;&gt;Node11 -->
<g id="edge14_Node000012_Node000011" class="edge">
<title>Node12&#45;&gt;Node11</title>
<g id="a_edge14_Node000012_Node000011"><a xlink:title=" ">
<path fill="none" stroke="#63b8ff" d="M561.47,-95.71C579.15,-100.3 600.3,-105.79 619.15,-110.68"/>
<polygon fill="#63b8ff" stroke="#63b8ff" points="618.21,-114.05 628.77,-113.18 619.97,-107.28 618.21,-114.05"/>
</a>
</g>
</g>
<!-- Node13 -->
<g id="Node000013" class="node">
<title>Node13</title>
<g id="a_Node000013"><a xlink:href="espresso_8c.html#a04c27c6493696fb67ab9b8f5296c14f1" target="_top" xlink:title="ONLY FOR UNIT TESTS.">
<polygon fill="white" stroke="#666666" points="711.38,-96.25 628.62,-96.25 628.62,-77 711.38,-77 711.38,-96.25"/>
<text xml:space="preserve" text-anchor="middle" x="670" y="-82.75" font-family="Helvetica,sans-Serif" font-size="10.00">compare_paths</text>
</a>
</g>
</g>
<!-- Node12&#45;&gt;Node13 -->
<g id="edge13_Node000012_Node000013" class="edge">
<title>Node12&#45;&gt;Node13</title>
<g id="a_edge13_Node000012_Node000013"><a xlink:title=" ">
<path fill="none" stroke="#63b8ff" d="M565.36,-85.92C581.54,-86.03 600.13,-86.15 617.07,-86.27"/>
<polygon fill="#63b8ff" stroke="#63b8ff" points="616.94,-89.77 626.96,-86.34 616.99,-82.77 616.94,-89.77"/>
</a>
</g>
</g>
<!-- Node14 -->
<g id="Node000014" class="node">
<title>Node14</title>
<g id="a_Node000014"><a xlink:href="espresso_8c.html#a260a9eca1b37d7151fd585fde9e355b8" target="_top" xlink:title="ONLY FOR UNIT TESTS.">
<polygon fill="white" stroke="#666666" points="723,-59.25 617,-59.25 617,-40 723,-40 723,-59.25"/>
<text xml:space="preserve" text-anchor="middle" x="670" y="-45.75" font-family="Helvetica,sans-Serif" font-size="10.00">parse_query_params</text>
</a>
</g>
</g>
<!-- Node12&#45;&gt;Node14 -->
<g id="edge15_Node000012_Node000014" class="edge">
<title>Node12&#45;&gt;Node14</title>
<g id="a_edge15_Node000012_Node000014"><a xlink:title=" ">
<path fill="none" stroke="#63b8ff" d="M563.79,-75.5C580.23,-71.46 599.35,-66.75 616.75,-62.47"/>
<polygon fill="#63b8ff" stroke="#63b8ff" points="617.55,-65.88 626.42,-60.1 615.88,-59.09 617.55,-65.88"/>
</a>
</g>
</g>
<!-- Node12&#45;&gt;Node18 -->
<g id="edge19_Node000012_Node000018" class="edge">
<title>Node12&#45;&gt;Node18</title>
<g id="a_edge19_Node000012_Node000018"><a xlink:title=" ">
<path fill="none" stroke="#63b8ff" d="M546.04,-75.54C554.26,-71.62 563.4,-66.82 571.25,-61.62 588.86,-49.97 588.69,-40.7 607.25,-30.62 610.69,-28.76 614.35,-27.06 618.1,-25.53"/>
<polygon fill="#63b8ff" stroke="#63b8ff" points="619.18,-28.86 627.38,-22.15 616.79,-22.28 619.18,-28.86"/>
</a>
</g>
</g>
<!-- Node15 -->
<g id="Node000015" class="node">
<title>Node15</title>
<g id="a_Node000015"><a xlink:href="espresso_8c.html#a2d9a0717a9389e6d178d0f4a8c2ef185" target="_top" xlink:title=" ">
<polygon fill="white" stroke="#666666" points="852.62,-59.25 776.62,-59.25 776.62,-40 852.62,-40 852.62,-59.25"/>
<text xml:space="preserve" text-anchor="middle" x="814.62" y="-45.75" font-family="Helvetica,sans-Serif" font-size="10.00">append_query</text>
</a>
</g>
</g>
<!-- Node14&#45;&gt;Node15 -->
<g id="edge16_Node000014_Node000015" class="edge">
<title>Node14&#45;&gt;Node15</title>
<g id="a_edge16_Node000014_Node000015"><a xlink:title=" ">
<path fill="none" stroke="#63b8ff" d="M723.3,-49.62C736.95,-49.62 751.6,-49.62 765.05,-49.62"/>
<polygon fill="#63b8ff" stroke="#63b8ff" points="764.99,-53.13 774.99,-49.63 764.99,-46.13 764.99,-53.13"/>
</a>
</g>
</g>
<!-- Node16 -->
<g id="Node000016" class="node">
<title>Node16</title>
<g id="a_Node000016"><a xlink:href="espresso_8c.html#a755a65a488e1158eee3fdab0ecada8fe" target="_top" xlink:title=" ">
<polygon fill="white" stroke="#666666" points="972.5,-59.25 896.5,-59.25 896.5,-40 972.5,-40 972.5,-59.25"/>
<text xml:space="preserve" text-anchor="middle" x="934.5" y="-45.75" font-family="Helvetica,sans-Serif" font-size="10.00">decode_query</text>
</a>
</g>
</g>
<!-- Node15&#45;&gt;Node16 -->
<g id="edge17_Node000015_Node000016" class="edge">
<title>Node15&#45;&gt;Node16</title>
<g id="a_edge17_Node000015_Node000016"><a xlink:title=" ">
<path fill="none" stroke="#63b8ff" d="M852.92,-49.62C863.03,-49.62 874.12,-49.62 884.75,-49.62"/>
<polygon fill="#63b8ff" stroke="#63b8ff" points="884.53,-53.13 894.53,-49.63 884.53,-46.13 884.53,-53.13"/>
</a>
</g>
</g>
<!-- Node17 -->
<g id="Node000017" class="node">
<title>Node17</title>
<g id="a_Node000017"><a xlink:href="espresso_8c.html#af4a5274d4719dec853dd32e1d8687553" target="_top" xlink:title=" ">
<polygon fill="white" stroke="#666666" points="1068.75,-59.25 1008.5,-59.25 1008.5,-40 1068.75,-40 1068.75,-59.25"/>
<text xml:space="preserve" text-anchor="middle" x="1038.62" y="-45.75" font-family="Helvetica,sans-Serif" font-size="10.00">hex_to_int</text>
</a>
</g>
</g>
<!-- Node16&#45;&gt;Node17 -->
<g id="edge18_Node000016_Node000017" class="edge">
<title>Node16&#45;&gt;Node17</title>
<g id="a_edge18_Node000016_Node000017"><a xlink:title=" ">
<path fill="none" stroke="#63b8ff" d="M972.95,-49.62C980.75,-49.62 989.01,-49.62 996.92,-49.62"/>
<polygon fill="#63b8ff" stroke="#63b8ff" points="996.66,-53.13 1006.66,-49.63 996.66,-46.13 996.66,-53.13"/>
</a>
</g>
</g>
<!-- Node19 -->
<g id="Node000019" class="node">
<title>Node19</title>
<g id="a_Node000019"><a xlink:href="espresso_8c.html#a5fa30991ad104ba1fe0001e7aefe95ac" target="_top" xlink:title=" ">
<polygon fill="white" stroke="#666666" points="860.5,-22.25 768.75,-22.25 768.75,-3 860.5,-3 860.5,-22.25"/>
<text xml:space="preserve" text-anchor="middle" x="814.62" y="-8.75" font-family="Helvetica,sans-Serif" font-size="10.00">handle_write_end</text>
</a>
</g>
</g>
<!-- Node18&#45;&gt;Node19 -->
<g id="edge20_Node000018_Node000019" class="edge">
<title>Node18&#45;&gt;Node19</title>
<g id="a_edge20_Node000018_Node000019"><a xlink:title=" ">
<path fill="none" stroke="#63b8ff" d="M711.49,-12.62C725.6,-12.62 741.7,-12.62 756.89,-12.62"/>
<polygon fill="#63b8ff" stroke="#63b8ff" points="756.75,-16.13 766.75,-12.63 756.75,-9.13 756.75,-16.13"/>
</a>
</g>
</g>
<!-- Node20&#45;&gt;Node18 -->
<g id="edge22_Node000020_Node000018" class="edge">
<title>Node20&#45;&gt;Node18</title>
<g id="a_edge22_Node000020_Node000018"><a xlink:title=" ">
<path fill="none" stroke="#63b8ff" d="M571.37,-10.62C586.21,-10.93 602.57,-11.26 617.59,-11.57"/>
<polygon fill="#63b8ff" stroke="#63b8ff" points="617.18,-15.06 627.25,-11.77 617.32,-8.06 617.18,-15.06"/>
</a>
</g>
</g>
</g>
</svg>
