<?xml version="1.0" encoding="UTF-8" standalone="no"?>
<!DOCTYPE svg PUBLIC "-//W3C//DTD SVG 1.1//EN"
 "http://www.w3.org/Graphics/SVG/1.1/DTD/svg11.dtd">
<!-- Generated by graphviz version 14.0.5 (0)
 -->
<!-- Title: close_connection Pages: 1 -->
<svg width="525pt" height="82pt"
 viewBox="0.00 0.00 525.00 82.00" xmlns="http://www.w3.org/2000/svg" xmlns:xlink="http://www.w3.org/1999/xlink">
<g id="graph0" class="graph" transform="scale(1 1) rotate(0) translate(4 78.25)">
<title>close_connection</title>
<!-- Node1 -->
<g id="Node000001" class="node">
<title>Node1</title>
<g id="a_Node000001"><a xlink:title=" ">
<polygon fill="#999999" stroke="#666666" points="91.75,-37.25 0,-37.25 0,-18 91.75,-18 91.75,-37.25"/>
<text xml:space="preserve" text-anchor="middle" x="45.88" y="-23.75" font-family="Helvetica,sans-Serif" font-size="10.00">close_connection</text>
</a>
</g>
</g>
<!-- Node2 -->
<g id="Node000002" class="node">
<title>Node2</title>
<g id="a_Node000002"><a xlink:href="espresso_8c.html#aaf78724518167158b66ec656312fabd2" target="_top" xlink:title=" ">
<polygon fill="white" stroke="#666666" points="253.25,-37.25 127.75,-37.25 127.75,-18 253.25,-18 253.25,-37.25"/>
<text xml:space="preserve" text-anchor="middle" x="190.5" y="-23.75" font-family="Helvetica,sans-Serif" font-size="10.00">handle_connection_close</text>
</a>
</g>
</g>
<!-- Node1&#45;&gt;Node2 -->
<g id="edge1_Node000001_Node000002" class="edge">
<title>Node1&#45;&gt;Node2</title>
<g id="a_edge1_Node000001_Node000002"><a xlink:title=" ">
<path fill="none" stroke="#63b8ff" d="M92,-27.62C99.75,-27.62 107.97,-27.62 116.22,-27.62"/>
<polygon fill="#63b8ff" stroke="#63b8ff" points="115.95,-31.13 125.95,-27.63 115.95,-24.13 115.95,-31.13"/>
</a>
</g>
</g>
<!-- Node3 -->
<g id="Node000003" class="node">
<title>Node3</title>
<g id="a_Node000003"><a xlink:href="espresso_8c.html#a1804ce3a25646fd9c6c6ad98d45c6efa" target="_top" xlink:title=" ">
<polygon fill="white" stroke="#666666" points="381,-56.25 289.25,-56.25 289.25,-37 381,-37 381,-56.25"/>
<text xml:space="preserve" text-anchor="middle" x="335.12" y="-42.75" font-family="Helvetica,sans-Serif" font-size="10.00">endpoint_cleanup</text>
</a>
</g>
</g>
<!-- Node2&#45;&gt;Node3 -->
<g id="edge2_Node000002_Node000003" class="edge">
<title>Node2&#45;&gt;Node3</title>
<g id="a_edge2_Node000002_Node000003"><a xlink:title=" ">
<path fill="none" stroke="#63b8ff" d="M253.64,-35.9C261.61,-36.96 269.74,-38.05 277.61,-39.1"/>
<polygon fill="#63b8ff" stroke="#63b8ff" points="277.04,-42.55 287.41,-40.4 277.96,-35.61 277.04,-42.55"/>
</a>
</g>
</g>
<!-- Node6 -->
<g id="Node000006" class="node">
<title>Node6</title>
<g id="a_Node000006"><a xlink:href="espresso_8c.html#a837cf67658f96fc262c83a4882f96f45" target="_top" xlink:title=" ">
<polygon fill="white" stroke="#666666" points="373.5,-19.25 296.75,-19.25 296.75,0 373.5,0 373.5,-19.25"/>
<text xml:space="preserve" text-anchor="middle" x="335.12" y="-5.75" font-family="Helvetica,sans-Serif" font-size="10.00">remove_client</text>
</a>
</g>
</g>
<!-- Node2&#45;&gt;Node6 -->
<g id="edge5_Node000002_Node000006" class="edge">
<title>Node2&#45;&gt;Node6</title>
<g id="a_edge5_Node000002_Node000006"><a xlink:title=" ">
<path fill="none" stroke="#63b8ff" d="M253.64,-19.78C264.22,-18.45 275.08,-17.08 285.25,-15.79"/>
<polygon fill="#63b8ff" stroke="#63b8ff" points="285.42,-19.3 294.9,-14.58 284.54,-12.35 285.42,-19.3"/>
</a>
</g>
</g>
<!-- Node4 -->
<g id="Node000004" class="node">
<title>Node4</title>
<g id="a_Node000004"><a xlink:href="espresso_8c.html#a713520bedc85cf92de9f221038f1b737" target="_top" xlink:title=" ">
<polygon fill="white" stroke="#666666" points="517,-74.25 417,-74.25 417,-55 517,-55 517,-74.25"/>
<text xml:space="preserve" text-anchor="middle" x="467" y="-60.75" font-family="Helvetica,sans-Serif" font-size="10.00">handle_timer_close</text>
</a>
</g>
</g>
<!-- Node3&#45;&gt;Node4 -->
<g id="edge3_Node000003_Node000004" class="edge">
<title>Node3&#45;&gt;Node4</title>
<g id="a_edge3_Node000003_Node000004"><a xlink:title=" ">
<path fill="none" stroke="#63b8ff" d="M381.18,-52.87C388.95,-53.95 397.14,-55.08 405.24,-56.2"/>
<polygon fill="#63b8ff" stroke="#63b8ff" points="404.7,-59.66 415.09,-57.57 405.66,-52.73 404.7,-59.66"/>
</a>
</g>
</g>
<!-- Node5 -->
<g id="Node000005" class="node">
<title>Node5</title>
<g id="a_Node000005"><a xlink:href="espresso_8c.html#aff314ce54a1f87e10d08bf4ddeeaf537" target="_top" xlink:title=" ">
<polygon fill="white" stroke="#666666" points="510.62,-37.25 423.38,-37.25 423.38,-18 510.62,-18 510.62,-37.25"/>
<text xml:space="preserve" text-anchor="middle" x="467" y="-23.75" font-family="Helvetica,sans-Serif" font-size="10.00">request_cleanup</text>
</a>
</g>
</g>
<!-- Node3&#45;&gt;Node5 -->
<g id="edge4_Node000003_Node000005" class="edge">
<title>Node3&#45;&gt;Node5</title>
<g id="a_edge4_Node000003_Node000005"><a xlink:title=" ">
<path fill="none" stroke="#63b8ff" d="M381.18,-40.03C391.09,-38.58 401.67,-37.04 411.88,-35.54"/>
<polygon fill="#63b8ff" stroke="#63b8ff" points="412.32,-39.02 421.71,-34.1 411.31,-32.09 412.32,-39.02"/>
</a>
</g>
</g>
</g>
</svg>
