<?xml version="1.0" encoding="UTF-8" standalone="no"?>
<!DOCTYPE svg PUBLIC "-//W3C//DTD SVG 1.1//EN"
 "http://www.w3.org/Graphics/SVG/1.1/DTD/svg11.dtd">
<!-- Generated by graphviz version 14.0.5 (0)
 -->
<!-- Title: app_close Pages: 1 -->
<svg width="485pt" height="64pt"
 viewBox="0.00 0.00 485.00 64.00" xmlns="http://www.w3.org/2000/svg" xmlns:xlink="http://www.w3.org/1999/xlink">
<g id="graph0" class="graph" transform="scale(1 1) rotate(0) translate(4 60.25)">
<title>app_close</title>
<!-- Node1 -->
<g id="Node000001" class="node">
<title>Node1</title>
<g id="a_Node000001"><a xlink:title="Closes the app and frees resources.">
<polygon fill="#999999" stroke="#666666" points="60.25,-37.25 0,-37.25 0,-18 60.25,-18 60.25,-37.25"/>
<text xml:space="preserve" text-anchor="middle" x="30.12" y="-23.75" font-family="Helvetica,sans-Serif" font-size="10.00">app_close</text>
</a>
</g>
</g>
<!-- Node2 -->
<g id="Node000002" class="node">
<title>Node2</title>
<g id="a_Node000002"><a xlink:href="espresso_8c.html#a73277811539a2de04ce7e1295fbdba6a" target="_top" xlink:title=" ">
<polygon fill="white" stroke="#666666" points="188,-37.25 96.25,-37.25 96.25,-18 188,-18 188,-37.25"/>
<text xml:space="preserve" text-anchor="middle" x="142.12" y="-23.75" font-family="Helvetica,sans-Serif" font-size="10.00">close_connection</text>
</a>
</g>
</g>
<!-- Node1&#45;&gt;Node2 -->
<g id="edge1_Node000001_Node000002" class="edge">
<title>Node1&#45;&gt;Node2</title>
<g id="a_edge1_Node000001_Node000002"><a xlink:title=" ">
<path fill="none" stroke="#63b8ff" d="M60.6,-27.62C68.04,-27.62 76.28,-27.62 84.56,-27.62"/>
<polygon fill="#63b8ff" stroke="#63b8ff" points="84.31,-31.13 94.31,-27.63 84.31,-24.13 84.31,-31.13"/>
</a>
</g>
</g>
<!-- Node3 -->
<g id="Node000003" class="node">
<title>Node3</title>
<g id="a_Node000003"><a xlink:href="espresso_8c.html#aaf78724518167158b66ec656312fabd2" target="_top" xlink:title=" ">
<polygon fill="white" stroke="#666666" points="349.5,-37.25 224,-37.25 224,-18 349.5,-18 349.5,-37.25"/>
<text xml:space="preserve" text-anchor="middle" x="286.75" y="-23.75" font-family="Helvetica,sans-Serif" font-size="10.00">handle_connection_close</text>
</a>
</g>
</g>
<!-- Node2&#45;&gt;Node3 -->
<g id="edge2_Node000002_Node000003" class="edge">
<title>Node2&#45;&gt;Node3</title>
<g id="a_edge2_Node000002_Node000003"><a xlink:title=" ">
<path fill="none" stroke="#63b8ff" d="M188.25,-27.62C196,-27.62 204.22,-27.62 212.47,-27.62"/>
<polygon fill="#63b8ff" stroke="#63b8ff" points="212.2,-31.13 222.2,-27.63 212.2,-24.13 212.2,-31.13"/>
</a>
</g>
</g>
<!-- Node4 -->
<g id="Node000004" class="node">
<title>Node4</title>
<g id="a_Node000004"><a xlink:href="espresso_8c.html#a1804ce3a25646fd9c6c6ad98d45c6efa" target="_top" xlink:title=" ">
<polygon fill="white" stroke="#666666" points="477.25,-56.25 385.5,-56.25 385.5,-37 477.25,-37 477.25,-56.25"/>
<text xml:space="preserve" text-anchor="middle" x="431.38" y="-42.75" font-family="Helvetica,sans-Serif" font-size="10.00">endpoint_cleanup</text>
</a>
</g>
</g>
<!-- Node3&#45;&gt;Node4 -->
<g id="edge3_Node000003_Node000004" class="edge">
<title>Node3&#45;&gt;Node4</title>
<g id="a_edge3_Node000003_Node000004"><a xlink:title=" ">
<path fill="none" stroke="#63b8ff" d="M349.89,-35.9C357.86,-36.96 365.99,-38.05 373.86,-39.1"/>
<polygon fill="#63b8ff" stroke="#63b8ff" points="373.29,-42.55 383.66,-40.4 374.21,-35.61 373.29,-42.55"/>
</a>
</g>
</g>
<!-- Node5 -->
<g id="Node000005" class="node">
<title>Node5</title>
<g id="a_Node000005"><a xlink:href="espresso_8c.html#a837cf67658f96fc262c83a4882f96f45" target="_top" xlink:title=" ">
<polygon fill="white" stroke="#666666" points="469.75,-19.25 393,-19.25 393,0 469.75,0 469.75,-19.25"/>
<text xml:space="preserve" text-anchor="middle" x="431.38" y="-5.75" font-family="Helvetica,sans-Serif" font-size="10.00">remove_client</text>
</a>
</g>
</g>
<!-- Node3&#45;&gt;Node5 -->
<g id="edge4_Node000003_Node000005" class="edge">
<title>Node3&#45;&gt;Node5</title>
<g id="a_edge4_Node000003_Node000005"><a xlink:title=" ">
<path fill="none" stroke="#63b8ff" d="M349.89,-19.78C360.47,-18.45 371.33,-17.08 381.5,-15.79"/>
<polygon fill="#63b8ff" stroke="#63b8ff" points="381.67,-19.3 391.15,-14.58 380.79,-12.35 381.67,-19.3"/>
</a>
</g>
</g>
</g>
</svg>
