<?xml version="1.0" encoding="UTF-8" standalone="no"?>
<!DOCTYPE svg PUBLIC "-//W3C//DTD SVG 1.1//EN"
 "http://www.w3.org/Graphics/SVG/1.1/DTD/svg11.dtd">
<!-- Generated by graphviz version 14.0.5 (0)
 -->
<!-- Title: append_query Pages: 1 -->
<svg width="292pt" height="27pt"
 viewBox="0.00 0.00 292.00 27.00" xmlns="http://www.w3.org/2000/svg" xmlns:xlink="http://www.w3.org/1999/xlink">
<g id="graph0" class="graph" transform="scale(1 1) rotate(0) translate(4 23.25)">
<title>append_query</title>
<!-- Node1 -->
<g id="Node000001" class="node">
<title>Node1</title>
<g id="a_Node000001"><a xlink:title=" ">
<polygon fill="#999999" stroke="#666666" points="76,-19.25 0,-19.25 0,0 76,0 76,-19.25"/>
<text xml:space="preserve" text-anchor="middle" x="38" y="-5.75" font-family="Helvetica,sans-Serif" font-size="10.00">append_query</text>
</a>
</g>
</g>
<!-- Node2 -->
<g id="Node000002" class="node">
<title>Node2</title>
<g id="a_Node000002"><a xlink:href="espresso_8c.html#a755a65a488e1158eee3fdab0ecada8fe" target="_top" xlink:title=" ">
<polygon fill="white" stroke="#666666" points="188,-19.25 112,-19.25 112,0 188,0 188,-19.25"/>
<text xml:space="preserve" text-anchor="middle" x="150" y="-5.75" font-family="Helvetica,sans-Serif" font-size="10.00">decode_query</text>
</a>
</g>
</g>
<!-- Node1&#45;&gt;Node2 -->
<g id="edge1_Node000001_Node000002" class="edge">
<title>Node1&#45;&gt;Node2</title>
<g id="a_edge1_Node000001_Node000002"><a xlink:title=" ">
<path fill="none" stroke="#63b8ff" d="M76.24,-9.62C84.04,-9.62 92.36,-9.62 100.5,-9.62"/>
<polygon fill="#63b8ff" stroke="#63b8ff" points="100.28,-13.13 110.28,-9.63 100.28,-6.13 100.28,-13.13"/>
</a>
</g>
</g>
<!-- Node3 -->
<g id="Node000003" class="node">
<title>Node3</title>
<g id="a_Node000003"><a xlink:href="espresso_8c.html#af4a5274d4719dec853dd32e1d8687553" target="_top" xlink:title=" ">
<polygon fill="white" stroke="#666666" points="284.25,-19.25 224,-19.25 224,0 284.25,0 284.25,-19.25"/>
<text xml:space="preserve" text-anchor="middle" x="254.12" y="-5.75" font-family="Helvetica,sans-Serif" font-size="10.00">hex_to_int</text>
</a>
</g>
</g>
<!-- Node2&#45;&gt;Node3 -->
<g id="edge2_Node000002_Node000003" class="edge">
<title>Node2&#45;&gt;Node3</title>
<g id="a_edge2_Node000002_Node000003"><a xlink:title=" ">
<path fill="none" stroke="#63b8ff" d="M188.45,-9.62C196.25,-9.62 204.51,-9.62 212.42,-9.62"/>
<polygon fill="#63b8ff" stroke="#63b8ff" points="212.16,-13.13 222.16,-9.63 212.16,-6.13 212.16,-13.13"/>
</a>
</g>
</g>
</g>
</svg>
