<?xml version="1.0" encoding="UTF-8" standalone="no"?>
<!DOCTYPE svg PUBLIC "-//W3C//DTD SVG 1.1//EN"
 "http://www.w3.org/Graphics/SVG/1.1/DTD/svg11.dtd">
<!-- Generated by graphviz version 14.0.5 (0)
 -->
<!-- Title: set_data_double Pages: 1 -->
<svg width="185pt" height="64pt"
 viewBox="0.00 0.00 185.00 64.00" xmlns="http://www.w3.org/2000/svg" xmlns:xlink="http://www.w3.org/1999/xlink">
<g id="graph0" class="graph" transform="scale(1 1) rotate(0) translate(4 60.25)">
<title>set_data_double</title>
<!-- Node1 -->
<g id="Node000001" class="node">
<title>Node1</title>
<g id="a_Node000001"><a xlink:title="Convenience function to store a double in the response context.">
<polygon fill="#999999" stroke="#666666" points="87.25,-37.25 0,-37.25 0,-18 87.25,-18 87.25,-37.25"/>
<text xml:space="preserve" text-anchor="middle" x="43.62" y="-23.75" font-family="Helvetica,sans-Serif" font-size="10.00">set_data_double</text>
</a>
</g>
</g>
<!-- Node2 -->
<g id="Node000002" class="node">
<title>Node2</title>
<g id="a_Node000002"><a xlink:href="espresso_8c.html#abdcfd909d1360f16c6fedab5aac76f2a" target="_top" xlink:title=" ">
<polygon fill="white" stroke="#666666" points="176.75,-56.25 123.25,-56.25 123.25,-37 176.75,-37 176.75,-56.25"/>
<text xml:space="preserve" text-anchor="middle" x="150" y="-42.75" font-family="Helvetica,sans-Serif" font-size="10.00">log_error</text>
</a>
</g>
</g>
<!-- Node1&#45;&gt;Node2 -->
<g id="edge1_Node000001_Node000002" class="edge">
<title>Node1&#45;&gt;Node2</title>
<g id="a_edge1_Node000001_Node000002"><a xlink:title=" ">
<path fill="none" stroke="#63b8ff" d="M87.68,-35.46C95.59,-36.9 103.78,-38.39 111.51,-39.8"/>
<polygon fill="#63b8ff" stroke="#63b8ff" points="110.82,-43.23 121.29,-41.58 112.07,-36.35 110.82,-43.23"/>
</a>
</g>
</g>
<!-- Node3 -->
<g id="Node000003" class="node">
<title>Node3</title>
<g id="a_Node000003"><a xlink:href="espresso_8c.html#accb7e84d4d05bf7501d52de24e8b9c9b" target="_top" xlink:title="Set arbitrary data in the response context.">
<polygon fill="white" stroke="#666666" points="176.75,-19.25 123.25,-19.25 123.25,0 176.75,0 176.75,-19.25"/>
<text xml:space="preserve" text-anchor="middle" x="150" y="-5.75" font-family="Helvetica,sans-Serif" font-size="10.00">set_data</text>
</a>
</g>
</g>
<!-- Node1&#45;&gt;Node3 -->
<g id="edge2_Node000001_Node000003" class="edge">
<title>Node1&#45;&gt;Node3</title>
<g id="a_edge2_Node000001_Node000003"><a xlink:title=" ">
<path fill="none" stroke="#63b8ff" d="M87.68,-20.2C95.59,-18.84 103.78,-17.42 111.51,-16.09"/>
<polygon fill="#63b8ff" stroke="#63b8ff" points="112.02,-19.55 121.28,-14.4 110.83,-12.66 112.02,-19.55"/>
</a>
</g>
</g>
</g>
</svg>
