<?xml version="1.0" encoding="UTF-8" standalone="no"?>
<!DOCTYPE svg PUBLIC "-//W3C//DTD SVG 1.1//EN"
 "http://www.w3.org/Graphics/SVG/1.1/DTD/svg11.dtd">
<!-- Generated by graphviz version 14.0.5 (0)
 -->
<!-- Title: append_query Pages: 1 -->
<svg width="894pt" height="27pt"
 viewBox="0.00 0.00 894.00 27.00" xmlns="http://www.w3.org/2000/svg" xmlns:xlink="http://www.w3.org/1999/xlink">
<g id="graph0" class="graph" transform="scale(1 1) rotate(0) translate(4 23.25)">
<title>append_query</title>
<!-- Node1 -->
<g id="Node000001" class="node">
<title>Node1</title>
<g id="a_Node000001"><a xlink:title=" ">
<polygon fill="#999999" stroke="#666666" points="885.5,-19.25 809.5,-19.25 809.5,0 885.5,0 885.5,-19.25"/>
<text xml:space="preserve" text-anchor="middle" x="847.5" y="-5.75" font-family="Helvetica,sans-Serif" font-size="10.00">append_query</text>
</a>
</g>
</g>
<!-- Node2 -->
<g id="Node000002" class="node">
<title>Node2</title>
<g id="a_Node000002"><a xlink:href="espresso_8c.html#a260a9eca1b37d7151fd585fde9e355b8" target="_top" xlink:title="ONLY FOR UNIT TESTS.">
<polygon fill="white" stroke="#666666" points="773.5,-19.25 667.5,-19.25 667.5,0 773.5,0 773.5,-19.25"/>
<text xml:space="preserve" text-anchor="middle" x="720.5" y="-5.75" font-family="Helvetica,sans-Serif" font-size="10.00">parse_query_params</text>
</a>
</g>
</g>
<!-- Node1&#45;&gt;Node2 -->
<g id="edge1_Node000001_Node000002" class="edge">
<title>Node1&#45;&gt;Node2</title>
<g id="a_edge1_Node000001_Node000002"><a xlink:title=" ">
<path fill="none" stroke="#63b8ff" d="M797.92,-9.62C789.94,-9.62 781.63,-9.62 773.56,-9.62"/>
<polygon fill="#63b8ff" stroke="#63b8ff" points="797.82,-13.13 807.82,-9.63 797.82,-6.13 797.82,-13.13"/>
</a>
</g>
</g>
<!-- Node3 -->
<g id="Node000003" class="node">
<title>Node3</title>
<g id="a_Node000003"><a xlink:href="espresso_8c.html#a373b955efab67a13fdc71105c53aa5d5" target="_top" xlink:title="ONLY FOR UNIT TESTS.">
<polygon fill="white" stroke="#666666" points="631.5,-19.25 545,-19.25 545,0 631.5,0 631.5,-19.25"/>
<text xml:space="preserve" text-anchor="middle" x="588.25" y="-5.75" font-family="Helvetica,sans-Serif" font-size="10.00">handle_endpoint</text>
</a>
</g>
</g>
<!-- Node2&#45;&gt;Node3 -->
<g id="edge2_Node000002_Node000003" class="edge">
<title>Node2&#45;&gt;Node3</title>
<g id="a_edge2_Node000002_Node000003"><a xlink:title=" ">
<path fill="none" stroke="#63b8ff" d="M655.86,-9.62C647.73,-9.62 639.57,-9.62 631.89,-9.62"/>
<polygon fill="#63b8ff" stroke="#63b8ff" points="655.76,-13.13 665.76,-9.63 655.76,-6.13 655.76,-13.13"/>
</a>
</g>
</g>
<!-- Node4 -->
<g id="Node000004" class="node">
<title>Node4</title>
<g id="a_Node000004"><a xlink:href="espresso_8c.html#a2a7b96459e0adac1061eaec6a5722075" target="_top" xlink:title=" ">
<polygon fill="white" stroke="#666666" points="509,-19.25 435.25,-19.25 435.25,0 509,0 509,-19.25"/>
<text xml:space="preserve" text-anchor="middle" x="472.12" y="-5.75" font-family="Helvetica,sans-Serif" font-size="10.00">handle_buffer</text>
</a>
</g>
</g>
<!-- Node3&#45;&gt;Node4 -->
<g id="edge3_Node000003_Node000004" class="edge">
<title>Node3&#45;&gt;Node4</title>
<g id="a_edge3_Node000003_Node000004"><a xlink:title=" ">
<path fill="none" stroke="#63b8ff" d="M533.35,-9.62C525.2,-9.62 516.95,-9.62 509.29,-9.62"/>
<polygon fill="#63b8ff" stroke="#63b8ff" points="533.24,-13.13 543.24,-9.63 533.24,-6.13 533.24,-13.13"/>
</a>
</g>
</g>
<!-- Node5 -->
<g id="Node000005" class="node">
<title>Node5</title>
<g id="a_Node000005"><a xlink:href="espresso_8c.html#a919e9a8a992f43f0fd82e87f4d40d2d2" target="_top" xlink:title=" ">
<polygon fill="white" stroke="#666666" points="399.25,-19.25 302.25,-19.25 302.25,0 399.25,0 399.25,-19.25"/>
<text xml:space="preserve" text-anchor="middle" x="350.75" y="-5.75" font-family="Helvetica,sans-Serif" font-size="10.00">handle_client_read</text>
</a>
</g>
</g>
<!-- Node4&#45;&gt;Node5 -->
<g id="edge4_Node000004_Node000005" class="edge">
<title>Node4&#45;&gt;Node5</title>
<g id="a_edge4_Node000004_Node000005"><a xlink:title=" ">
<path fill="none" stroke="#63b8ff" d="M423.69,-9.62C415.79,-9.62 407.59,-9.62 399.67,-9.62"/>
<polygon fill="#63b8ff" stroke="#63b8ff" points="423.47,-13.13 433.47,-9.63 423.47,-6.13 423.47,-13.13"/>
</a>
</g>
</g>
<!-- Node6 -->
<g id="Node000006" class="node">
<title>Node6</title>
<g id="a_Node000006"><a xlink:href="espresso_8c.html#a90f2058b8890cfb99e6f595b8f066919" target="_top" xlink:title=" ">
<polygon fill="white" stroke="#666666" points="266.25,-19.25 169.25,-19.25 169.25,0 266.25,0 266.25,-19.25"/>
<text xml:space="preserve" text-anchor="middle" x="217.75" y="-5.75" font-family="Helvetica,sans-Serif" font-size="10.00">handle_connection</text>
</a>
</g>
</g>
<!-- Node5&#45;&gt;Node6 -->
<g id="edge5_Node000005_Node000006" class="edge">
<title>Node5&#45;&gt;Node6</title>
<g id="a_edge5_Node000005_Node000006"><a xlink:title=" ">
<path fill="none" stroke="#63b8ff" d="M290.78,-9.62C282.69,-9.62 274.46,-9.62 266.6,-9.62"/>
<polygon fill="#63b8ff" stroke="#63b8ff" points="290.57,-13.13 300.57,-9.63 290.57,-6.13 290.57,-13.13"/>
</a>
</g>
</g>
<!-- Node7 -->
<g id="Node000007" class="node">
<title>Node7</title>
<g id="a_Node000007"><a xlink:href="espresso_8c.html#a0ba22157d15a70c4c22441b040bb0f74" target="_top" xlink:title="Starts the HTTP server loop.">
<polygon fill="white" stroke="#666666" points="133.25,-19.25 73,-19.25 73,0 133.25,0 133.25,-19.25"/>
<text xml:space="preserve" text-anchor="middle" x="103.12" y="-5.75" font-family="Helvetica,sans-Serif" font-size="10.00">app_listen</text>
</a>
</g>
</g>
<!-- Node6&#45;&gt;Node7 -->
<g id="edge6_Node000006_Node000007" class="edge">
<title>Node6&#45;&gt;Node7</title>
<g id="a_edge6_Node000006_Node000007"><a xlink:title=" ">
<path fill="none" stroke="#63b8ff" d="M157.66,-9.62C149.34,-9.62 141.1,-9.62 133.67,-9.62"/>
<polygon fill="#63b8ff" stroke="#63b8ff" points="157.47,-13.13 167.47,-9.63 157.47,-6.13 157.47,-13.13"/>
</a>
</g>
</g>
<!-- Node8 -->
<g id="Node000008" class="node">
<title>Node8</title>
<g id="a_Node000008"><a xlink:href="main_8c.html#ae66f6b31b5ad750f1fe042a706a4e3d4" target="_top" xlink:title=" ">
<polygon fill="white" stroke="#666666" points="37,-19.25 0,-19.25 0,0 37,0 37,-19.25"/>
<text xml:space="preserve" text-anchor="middle" x="18.5" y="-5.75" font-family="Helvetica,sans-Serif" font-size="10.00">main</text>
</a>
</g>
</g>
<!-- Node7&#45;&gt;Node8 -->
<g id="edge7_Node000007_Node000008" class="edge">
<title>Node7&#45;&gt;Node8</title>
<g id="a_edge7_Node000007_Node000008"><a xlink:title=" ">
<path fill="none" stroke="#63b8ff" d="M61.34,-9.62C52.86,-9.62 44.34,-9.62 37.23,-9.62"/>
<polygon fill="#63b8ff" stroke="#63b8ff" points="61.25,-13.13 71.25,-9.63 61.25,-6.13 61.25,-13.13"/>
</a>
</g>
</g>
</g>
</svg>
