<?xml version="1.0" encoding="UTF-8" standalone="no"?>
<!DOCTYPE svg PUBLIC "-//W3C//DTD SVG 1.1//EN"
 "http://www.w3.org/Graphics/SVG/1.1/DTD/svg11.dtd">
<!-- Generated by graphviz version 14.0.5 (0)
 -->
<!-- Title: handle_connection Pages: 1 -->
<svg width="1041pt" height="416pt"
 viewBox="0.00 0.00 1041.00 416.00" xmlns="http://www.w3.org/2000/svg" xmlns:xlink="http://www.w3.org/1999/xlink">
<g id="graph0" class="graph" transform="scale(1 1) rotate(0) translate(4 411.62)">
<title>handle_connection</title>
<!-- Node1 -->
<g id="Node000001" class="node">
<title>Node1</title>
<g id="a_Node000001"><a xlink:title=" ">
<polygon fill="#999999" stroke="#666666" points="97,-293.62 0,-293.62 0,-274.38 97,-274.38 97,-293.62"/>
<text xml:space="preserve" text-anchor="middle" x="48.5" y="-280.12" font-family="Helvetica,sans-Serif" font-size="10.00">handle_connection</text>
</a>
</g>
</g>
<!-- Node2 -->
<g id="Node000002" class="node">
<title>Node2</title>
<g id="a_Node000002"><a xlink:href="espresso_8c.html#a16da648ec46c63111e6d0f16c8c861d3" target="_top" xlink:title=" ">
<polygon fill="white" stroke="#666666" points="211.62,-407.62 151.38,-407.62 151.38,-388.38 211.62,-388.38 211.62,-407.62"/>
<text xml:space="preserve" text-anchor="middle" x="181.5" y="-394.12" font-family="Helvetica,sans-Serif" font-size="10.00">add_client</text>
</a>
</g>
</g>
<!-- Node1&#45;&gt;Node2 -->
<g id="edge1_Node000001_Node000002" class="edge">
<title>Node1&#45;&gt;Node2</title>
<g id="a_edge1_Node000001_Node000002"><a xlink:title=" ">
<path fill="none" stroke="#63b8ff" d="M56.84,-294C70.32,-311.86 100.65,-349.64 133,-374 137.29,-377.23 142.09,-380.24 146.94,-382.95"/>
<polygon fill="#63b8ff" stroke="#63b8ff" points="144.99,-385.88 155.48,-387.38 148.22,-379.67 144.99,-385.88"/>
</a>
</g>
</g>
<!-- Node3 -->
<g id="Node000003" class="node">
<title>Node3</title>
<g id="a_Node000003"><a xlink:href="espresso_8c.html#afc4191b175ae67f2d0d5b264caa6d08a" target="_top" xlink:title=" ">
<polygon fill="white" stroke="#666666" points="501.62,-388.62 422.62,-388.62 422.62,-369.38 501.62,-369.38 501.62,-388.62"/>
<text xml:space="preserve" text-anchor="middle" x="462.12" y="-375.12" font-family="Helvetica,sans-Serif" font-size="10.00">allocate_buffer</text>
</a>
</g>
</g>
<!-- Node1&#45;&gt;Node3 -->
<g id="edge2_Node000001_Node000003" class="edge">
<title>Node1&#45;&gt;Node3</title>
<g id="a_edge2_Node000001_Node000003"><a xlink:title=" ">
<path fill="none" stroke="#63b8ff" d="M71.43,-293.99C88.04,-301.24 111.59,-310.81 133,-317 229.67,-344.96 346.1,-363.51 411.05,-372.55"/>
<polygon fill="#63b8ff" stroke="#63b8ff" points="410.29,-375.98 420.68,-373.87 411.25,-369.05 410.29,-375.98"/>
</a>
</g>
</g>
<!-- Node4 -->
<g id="Node000004" class="node">
<title>Node4</title>
<g id="a_Node000004"><a xlink:href="espresso_8c.html#a73277811539a2de04ce7e1295fbdba6a" target="_top" xlink:title=" ">
<polygon fill="white" stroke="#666666" points="508,-351.62 416.25,-351.62 416.25,-332.38 508,-332.38 508,-351.62"/>
<text xml:space="preserve" text-anchor="middle" x="462.12" y="-338.12" font-family="Helvetica,sans-Serif" font-size="10.00">close_connection</text>
</a>
</g>
</g>
<!-- Node1&#45;&gt;Node4 -->
<g id="edge3_Node000001_Node000004" class="edge">
<title>Node1&#45;&gt;Node4</title>
<g id="a_edge3_Node000001_Node000004"><a xlink:title=" ">
<path fill="none" stroke="#63b8ff" d="M97.12,-290.71C173.52,-301.48 323.16,-322.56 404.77,-334.06"/>
<polygon fill="#63b8ff" stroke="#63b8ff" points="403.93,-337.47 414.32,-335.4 404.9,-330.54 403.93,-337.47"/>
</a>
</g>
</g>
<!-- Node10 -->
<g id="Node000010" class="node">
<title>Node10</title>
<g id="a_Node000010"><a xlink:href="espresso_8c.html#a919e9a8a992f43f0fd82e87f4d40d2d2" target="_top" xlink:title=" ">
<polygon fill="white" stroke="#666666" points="230,-255.62 133,-255.62 133,-236.38 230,-236.38 230,-255.62"/>
<text xml:space="preserve" text-anchor="middle" x="181.5" y="-242.12" font-family="Helvetica,sans-Serif" font-size="10.00">handle_client_read</text>
</a>
</g>
</g>
<!-- Node1&#45;&gt;Node10 -->
<g id="edge9_Node000001_Node000010" class="edge">
<title>Node1&#45;&gt;Node10</title>
<g id="a_edge9_Node000001_Node000010"><a xlink:title=" ">
<path fill="none" stroke="#63b8ff" d="M84.26,-273.92C99.93,-269.37 118.64,-263.95 135.37,-259.09"/>
<polygon fill="#63b8ff" stroke="#63b8ff" points="135.95,-262.57 144.58,-256.42 134,-255.85 135.95,-262.57"/>
</a>
</g>
</g>
<!-- Node19 -->
<g id="Node000019" class="node">
<title>Node19</title>
<g id="a_Node000019"><a xlink:href="espresso_8c.html#abdcfd909d1360f16c6fedab5aac76f2a" target="_top" xlink:title=" ">
<polygon fill="white" stroke="#666666" points="913.75,-163.62 860.25,-163.62 860.25,-144.38 913.75,-144.38 913.75,-163.62"/>
<text xml:space="preserve" text-anchor="middle" x="887" y="-150.12" font-family="Helvetica,sans-Serif" font-size="10.00">log_error</text>
</a>
</g>
</g>
<!-- Node1&#45;&gt;Node19 -->
<g id="edge37_Node000001_Node000019" class="edge">
<title>Node1&#45;&gt;Node19</title>
<g id="a_edge37_Node000001_Node000019"><a xlink:title=" ">
<path fill="none" stroke="#63b8ff" d="M53.18,-273.89C72.33,-223.3 165.61,0 320.25,0 320.25,0 320.25,0 611.5,0 701.28,0 725.25,-21.8 801,-70 829.17,-87.93 855.52,-116.51 871.2,-135.27"/>
<polygon fill="#63b8ff" stroke="#63b8ff" points="868.39,-137.37 877.42,-142.9 873.81,-132.94 868.39,-137.37"/>
</a>
</g>
</g>
<!-- Node23 -->
<g id="Node000023" class="node">
<title>Node23</title>
<g id="a_Node000023"><a xlink:href="espresso_8c.html#a015718d876f3d5394b1ab3d6e39e989f" target="_top" xlink:title=" ">
<polygon fill="white" stroke="#666666" points="376.5,-85.62 266,-85.62 266,-66.38 376.5,-66.38 376.5,-85.62"/>
<text xml:space="preserve" text-anchor="middle" x="321.25" y="-72.12" font-family="Helvetica,sans-Serif" font-size="10.00">handle_client_timeout</text>
</a>
</g>
</g>
<!-- Node1&#45;&gt;Node23 -->
<g id="edge34_Node000001_Node000023" class="edge">
<title>Node1&#45;&gt;Node23</title>
<g id="a_edge34_Node000001_Node000023"><a xlink:title=" ">
<path fill="none" stroke="#63b8ff" d="M59.05,-274.07C87.93,-244.45 177.84,-155.33 266,-100 271.34,-96.65 277.23,-93.52 283.11,-90.71"/>
<polygon fill="#63b8ff" stroke="#63b8ff" points="284.48,-93.94 292.15,-86.63 281.6,-87.55 284.48,-93.94"/>
</a>
</g>
</g>
<!-- Node5 -->
<g id="Node000005" class="node">
<title>Node5</title>
<g id="a_Node000005"><a xlink:href="espresso_8c.html#aaf78724518167158b66ec656312fabd2" target="_top" xlink:title=" ">
<polygon fill="white" stroke="#666666" points="673.25,-351.62 547.75,-351.62 547.75,-332.38 673.25,-332.38 673.25,-351.62"/>
<text xml:space="preserve" text-anchor="middle" x="610.5" y="-338.12" font-family="Helvetica,sans-Serif" font-size="10.00">handle_connection_close</text>
</a>
</g>
</g>
<!-- Node4&#45;&gt;Node5 -->
<g id="edge4_Node000004_Node000005" class="edge">
<title>Node4&#45;&gt;Node5</title>
<g id="a_edge4_Node000004_Node000005"><a xlink:title=" ">
<path fill="none" stroke="#63b8ff" d="M508.24,-342C517.02,-342 526.43,-342 535.85,-342"/>
<polygon fill="#63b8ff" stroke="#63b8ff" points="535.8,-345.5 545.8,-342 535.8,-338.5 535.8,-345.5"/>
</a>
</g>
</g>
<!-- Node6 -->
<g id="Node000006" class="node">
<title>Node6</title>
<g id="a_Node000006"><a xlink:href="espresso_8c.html#a1804ce3a25646fd9c6c6ad98d45c6efa" target="_top" xlink:title=" ">
<polygon fill="white" stroke="#666666" points="801,-351.62 709.25,-351.62 709.25,-332.38 801,-332.38 801,-351.62"/>
<text xml:space="preserve" text-anchor="middle" x="755.12" y="-338.12" font-family="Helvetica,sans-Serif" font-size="10.00">endpoint_cleanup</text>
</a>
</g>
</g>
<!-- Node5&#45;&gt;Node6 -->
<g id="edge5_Node000005_Node000006" class="edge">
<title>Node5&#45;&gt;Node6</title>
<g id="a_edge5_Node000005_Node000006"><a xlink:title=" ">
<path fill="none" stroke="#63b8ff" d="M673.64,-342C681.61,-342 689.74,-342 697.61,-342"/>
<polygon fill="#63b8ff" stroke="#63b8ff" points="697.4,-345.5 707.4,-342 697.4,-338.5 697.4,-345.5"/>
</a>
</g>
</g>
<!-- Node9 -->
<g id="Node000009" class="node">
<title>Node9</title>
<g id="a_Node000009"><a xlink:href="espresso_8c.html#a837cf67658f96fc262c83a4882f96f45" target="_top" xlink:title=" ">
<polygon fill="white" stroke="#666666" points="793.5,-388.62 716.75,-388.62 716.75,-369.38 793.5,-369.38 793.5,-388.62"/>
<text xml:space="preserve" text-anchor="middle" x="755.12" y="-375.12" font-family="Helvetica,sans-Serif" font-size="10.00">remove_client</text>
</a>
</g>
</g>
<!-- Node5&#45;&gt;Node9 -->
<g id="edge8_Node000005_Node000009" class="edge">
<title>Node5&#45;&gt;Node9</title>
<g id="a_edge8_Node000005_Node000009"><a xlink:title=" ">
<path fill="none" stroke="#63b8ff" d="M650.47,-352.11C667.55,-356.54 687.76,-361.78 705.78,-366.46"/>
<polygon fill="#63b8ff" stroke="#63b8ff" points="704.65,-369.78 715.21,-368.9 706.41,-363.01 704.65,-369.78"/>
</a>
</g>
</g>
<!-- Node7 -->
<g id="Node000007" class="node">
<title>Node7</title>
<g id="a_Node000007"><a xlink:href="espresso_8c.html#a713520bedc85cf92de9f221038f1b737" target="_top" xlink:title=" ">
<polygon fill="white" stroke="#666666" points="937,-351.62 837,-351.62 837,-332.38 937,-332.38 937,-351.62"/>
<text xml:space="preserve" text-anchor="middle" x="887" y="-338.12" font-family="Helvetica,sans-Serif" font-size="10.00">handle_timer_close</text>
</a>
</g>
</g>
<!-- Node6&#45;&gt;Node7 -->
<g id="edge6_Node000006_Node000007" class="edge">
<title>Node6&#45;&gt;Node7</title>
<g id="a_edge6_Node000006_Node000007"><a xlink:title=" ">
<path fill="none" stroke="#63b8ff" d="M801.18,-342C808.95,-342 817.14,-342 825.24,-342"/>
<polygon fill="#63b8ff" stroke="#63b8ff" points="825.07,-345.5 835.07,-342 825.07,-338.5 825.07,-345.5"/>
</a>
</g>
</g>
<!-- Node8 -->
<g id="Node000008" class="node">
<title>Node8</title>
<g id="a_Node000008"><a xlink:href="espresso_8c.html#aff314ce54a1f87e10d08bf4ddeeaf537" target="_top" xlink:title=" ">
<polygon fill="white" stroke="#666666" points="930.62,-313.62 843.38,-313.62 843.38,-294.38 930.62,-294.38 930.62,-313.62"/>
<text xml:space="preserve" text-anchor="middle" x="887" y="-300.12" font-family="Helvetica,sans-Serif" font-size="10.00">request_cleanup</text>
</a>
</g>
</g>
<!-- Node6&#45;&gt;Node8 -->
<g id="edge7_Node000006_Node000008" class="edge">
<title>Node6&#45;&gt;Node8</title>
<g id="a_edge7_Node000006_Node000008"><a xlink:title=" ">
<path fill="none" stroke="#63b8ff" d="M790.59,-331.92C805.97,-327.41 824.31,-322.05 840.78,-317.23"/>
<polygon fill="#63b8ff" stroke="#63b8ff" points="841.76,-320.59 850.37,-314.42 839.79,-313.87 841.76,-320.59"/>
</a>
</g>
</g>
<!-- Node10&#45;&gt;Node4 -->
<g id="edge10_Node000010_Node000004" class="edge">
<title>Node10&#45;&gt;Node4</title>
<g id="a_edge10_Node000010_Node000004"><a xlink:title=" ">
<path fill="none" stroke="#63b8ff" d="M216.75,-256.12C255.71,-267.83 321.11,-288.05 376.5,-308 393.28,-314.04 411.68,-321.35 427.03,-327.64"/>
<polygon fill="#63b8ff" stroke="#63b8ff" points="425.61,-330.85 436.19,-331.43 428.29,-324.38 425.61,-330.85"/>
</a>
</g>
</g>
<!-- Node11 -->
<g id="Node000011" class="node">
<title>Node11</title>
<g id="a_Node000011"><a xlink:href="espresso_8c.html#a2a7b96459e0adac1061eaec6a5722075" target="_top" xlink:title=" ">
<polygon fill="white" stroke="#666666" points="358.12,-255.62 284.38,-255.62 284.38,-236.38 358.12,-236.38 358.12,-255.62"/>
<text xml:space="preserve" text-anchor="middle" x="321.25" y="-242.12" font-family="Helvetica,sans-Serif" font-size="10.00">handle_buffer</text>
</a>
</g>
</g>
<!-- Node10&#45;&gt;Node11 -->
<g id="edge11_Node000010_Node000011" class="edge">
<title>Node10&#45;&gt;Node11</title>
<g id="a_edge11_Node000010_Node000011"><a xlink:title=" ">
<path fill="none" stroke="#63b8ff" d="M230.29,-239.54C244.13,-239.15 259.23,-239.15 273.04,-239.56"/>
<polygon fill="#63b8ff" stroke="#63b8ff" points="272.63,-243.04 282.76,-239.93 272.9,-236.05 272.63,-243.04"/>
</a>
</g>
</g>
<!-- Node20 -->
<g id="Node000020" class="node">
<title>Node20</title>
<g id="a_Node000020"><a xlink:href="espresso_8c.html#a142b429010a8046d339d36552bd20f7e" target="_top" xlink:title=" ">
<polygon fill="white" stroke="#666666" points="651.5,-123.62 569.5,-123.62 569.5,-104.38 651.5,-104.38 651.5,-123.62"/>
<text xml:space="preserve" text-anchor="middle" x="610.5" y="-110.12" font-family="Helvetica,sans-Serif" font-size="10.00">send_message</text>
</a>
</g>
</g>
<!-- Node10&#45;&gt;Node20 -->
<g id="edge33_Node000010_Node000020" class="edge">
<title>Node10&#45;&gt;Node20</title>
<g id="a_edge33_Node000010_Node000020"><a xlink:title=" ">
<path fill="none" stroke="#63b8ff" d="M197.28,-235.96C232.61,-212.54 325.53,-154.45 412.5,-130 460.45,-116.52 517.37,-113.18 557.66,-112.82"/>
<polygon fill="#63b8ff" stroke="#63b8ff" points="557.58,-116.32 567.57,-112.8 557.56,-109.32 557.58,-116.32"/>
</a>
</g>
</g>
<!-- Node11&#45;&gt;Node3 -->
<g id="edge12_Node000011_Node000003" class="edge">
<title>Node11&#45;&gt;Node3</title>
<g id="a_edge12_Node000011_Node000003"><a xlink:title=" ">
<path fill="none" stroke="#63b8ff" d="M327.43,-255.81C339.47,-277.73 371.48,-331.1 412.5,-361 413.84,-361.98 415.24,-362.91 416.68,-363.79"/>
<polygon fill="#63b8ff" stroke="#63b8ff" points="414.85,-366.78 425.34,-368.29 418.08,-360.57 414.85,-366.78"/>
</a>
</g>
</g>
<!-- Node11&#45;&gt;Node4 -->
<g id="edge13_Node000011_Node000004" class="edge">
<title>Node11&#45;&gt;Node4</title>
<g id="a_edge13_Node000011_Node000004"><a xlink:title=" ">
<path fill="none" stroke="#63b8ff" d="M352.23,-256.03C360.58,-259.66 369.33,-264.29 376.5,-270 397.37,-286.6 391.98,-300.97 412.5,-318 416.35,-321.2 420.7,-324.1 425.18,-326.7"/>
<polygon fill="#63b8ff" stroke="#63b8ff" points="423.21,-329.62 433.69,-331.18 426.47,-323.42 423.21,-329.62"/>
</a>
</g>
</g>
<!-- Node11&#45;&gt;Node8 -->
<g id="edge31_Node000011_Node000008" class="edge">
<title>Node11&#45;&gt;Node8</title>
<g id="a_edge31_Node000011_Node000008"><a xlink:title=" ">
<path fill="none" stroke="#63b8ff" d="M348.48,-256.11C373.92,-265.88 409.18,-279.31 412.5,-280 561.72,-311.1 742.83,-309.76 831.6,-306.65"/>
<polygon fill="#63b8ff" stroke="#63b8ff" points="831.62,-310.15 841.48,-306.27 831.36,-303.15 831.62,-310.15"/>
</a>
</g>
</g>
<!-- Node11&#45;&gt;Node10 -->
<g id="edge15_Node000011_Node000010" class="edge">
<title>Node11&#45;&gt;Node10</title>
<g id="a_edge15_Node000011_Node000010"><a xlink:title=" ">
<path fill="none" stroke="#63b8ff" d="M284.27,-252.01C271.26,-252.64 256.21,-252.87 241.73,-252.69"/>
<polygon fill="#63b8ff" stroke="#63b8ff" points="241.87,-249.19 231.8,-252.49 241.73,-256.19 241.87,-249.19"/>
</a>
</g>
</g>
<!-- Node12 -->
<g id="Node000012" class="node">
<title>Node12</title>
<g id="a_Node000012"><a xlink:href="espresso_8c.html#aca61aa31ed57abce18d1d3cffd0d47e3" target="_top" xlink:title=" ">
<polygon fill="white" stroke="#666666" points="668.38,-237.62 552.62,-237.62 552.62,-218.38 668.38,-218.38 668.38,-237.62"/>
<text xml:space="preserve" text-anchor="middle" x="610.5" y="-224.12" font-family="Helvetica,sans-Serif" font-size="10.00">generate_allow_header</text>
</a>
</g>
</g>
<!-- Node11&#45;&gt;Node12 -->
<g id="edge14_Node000011_Node000012" class="edge">
<title>Node11&#45;&gt;Node12</title>
<g id="a_edge14_Node000011_Node000012"><a xlink:title=" ">
<path fill="none" stroke="#63b8ff" d="M358.34,-243.74C404.04,-240.87 483.72,-235.88 541.1,-232.29"/>
<polygon fill="#63b8ff" stroke="#63b8ff" points="540.99,-235.8 550.75,-231.68 540.55,-228.81 540.99,-235.8"/>
</a>
</g>
</g>
<!-- Node13 -->
<g id="Node000013" class="node">
<title>Node13</title>
<g id="a_Node000013"><a xlink:href="espresso_8c.html#a041948e0d9b16b9c852053d3fb3f2a69" target="_top" xlink:title="ONLY FOR UNIT TESTS.">
<polygon fill="white" stroke="#666666" points="505.38,-199.62 418.88,-199.62 418.88,-180.38 505.38,-180.38 505.38,-199.62"/>
<text xml:space="preserve" text-anchor="middle" x="462.12" y="-186.12" font-family="Helvetica,sans-Serif" font-size="10.00">handle_endpoint</text>
</a>
</g>
</g>
<!-- Node11&#45;&gt;Node13 -->
<g id="edge16_Node000011_Node000013" class="edge">
<title>Node11&#45;&gt;Node13</title>
<g id="a_edge16_Node000011_Node000013"><a xlink:title=" ">
<path fill="none" stroke="#63b8ff" d="M347.08,-235.99C368.96,-227.16 401.1,-214.21 425.68,-204.29"/>
<polygon fill="#63b8ff" stroke="#63b8ff" points="426.67,-207.67 434.64,-200.68 424.06,-201.17 426.67,-207.67"/>
</a>
</g>
</g>
<!-- Node11&#45;&gt;Node19 -->
<g id="edge27_Node000011_Node000019" class="edge">
<title>Node11&#45;&gt;Node19</title>
<g id="a_edge27_Node000011_Node000019"><a xlink:title=" ">
<path fill="none" stroke="#63b8ff" d="M358.43,-251.27C422.72,-259.49 560.67,-271.99 673.25,-247 743.9,-231.32 820.1,-191.89 859.31,-169.74"/>
<polygon fill="#63b8ff" stroke="#63b8ff" points="860.88,-172.87 867.82,-164.86 857.4,-166.8 860.88,-172.87"/>
</a>
</g>
</g>
<!-- Node11&#45;&gt;Node20 -->
<g id="edge32_Node000011_Node000020" class="edge">
<title>Node11&#45;&gt;Node20</title>
<g id="a_edge32_Node000011_Node000020"><a xlink:title=" ">
<path fill="none" stroke="#63b8ff" d="M331.54,-235.97C346.9,-219.96 379.2,-188.65 412.5,-171 458.79,-146.46 516.96,-131.29 558.06,-122.84"/>
<polygon fill="#63b8ff" stroke="#63b8ff" points="558.56,-126.31 567.69,-120.92 557.2,-119.44 558.56,-126.31"/>
</a>
</g>
</g>
<!-- Node22 -->
<g id="Node000022" class="node">
<title>Node22</title>
<g id="a_Node000022"><a xlink:href="espresso_8c.html#a529711d7a64d90d49fb6a0c3870c5b61" target="_top" xlink:title="ONLY FOR UNIT TESTS.">
<polygon fill="white" stroke="#666666" points="511.75,-85.62 412.5,-85.62 412.5,-66.38 511.75,-66.38 511.75,-85.62"/>
<text xml:space="preserve" text-anchor="middle" x="462.12" y="-72.12" font-family="Helvetica,sans-Serif" font-size="10.00">parse_http_request</text>
</a>
</g>
</g>
<!-- Node11&#45;&gt;Node22 -->
<g id="edge28_Node000011_Node000022" class="edge">
<title>Node11&#45;&gt;Node22</title>
<g id="a_edge28_Node000011_Node000022"><a xlink:title=" ">
<path fill="none" stroke="#63b8ff" d="M330.11,-236.37C352.45,-209.03 416.54,-130.58 445.99,-94.53"/>
<polygon fill="#63b8ff" stroke="#63b8ff" points="448.43,-97.08 452.04,-87.12 443.01,-92.65 448.43,-97.08"/>
</a>
</g>
</g>
<!-- Node13&#45;&gt;Node12 -->
<g id="edge18_Node000013_Node000012" class="edge">
<title>Node13&#45;&gt;Node12</title>
<g id="a_edge18_Node000013_Node000012"><a xlink:title=" ">
<path fill="none" stroke="#63b8ff" d="M501.97,-200.08C519.65,-204.68 540.8,-210.17 559.65,-215.06"/>
<polygon fill="#63b8ff" stroke="#63b8ff" points="558.71,-218.43 569.27,-217.56 560.47,-211.65 558.71,-218.43"/>
</a>
</g>
</g>
<!-- Node14 -->
<g id="Node000014" class="node">
<title>Node14</title>
<g id="a_Node000014"><a xlink:href="espresso_8c.html#a04c27c6493696fb67ab9b8f5296c14f1" target="_top" xlink:title="ONLY FOR UNIT TESTS.">
<polygon fill="white" stroke="#666666" points="651.88,-200.62 569.12,-200.62 569.12,-181.38 651.88,-181.38 651.88,-200.62"/>
<text xml:space="preserve" text-anchor="middle" x="610.5" y="-187.12" font-family="Helvetica,sans-Serif" font-size="10.00">compare_paths</text>
</a>
</g>
</g>
<!-- Node13&#45;&gt;Node14 -->
<g id="edge17_Node000013_Node000014" class="edge">
<title>Node13&#45;&gt;Node14</title>
<g id="a_edge17_Node000013_Node000014"><a xlink:title=" ">
<path fill="none" stroke="#63b8ff" d="M505.86,-190.29C522.04,-190.4 540.63,-190.53 557.57,-190.65"/>
<polygon fill="#63b8ff" stroke="#63b8ff" points="557.44,-194.14 567.46,-190.71 557.49,-187.14 557.44,-194.14"/>
</a>
</g>
</g>
<!-- Node15 -->
<g id="Node000015" class="node">
<title>Node15</title>
<g id="a_Node000015"><a xlink:href="espresso_8c.html#a260a9eca1b37d7151fd585fde9e355b8" target="_top" xlink:title="ONLY FOR UNIT TESTS.">
<polygon fill="white" stroke="#666666" points="663.5,-163.62 557.5,-163.62 557.5,-144.38 663.5,-144.38 663.5,-163.62"/>
<text xml:space="preserve" text-anchor="middle" x="610.5" y="-150.12" font-family="Helvetica,sans-Serif" font-size="10.00">parse_query_params</text>
</a>
</g>
</g>
<!-- Node13&#45;&gt;Node15 -->
<g id="edge19_Node000013_Node000015" class="edge">
<title>Node13&#45;&gt;Node15</title>
<g id="a_edge19_Node000013_Node000015"><a xlink:title=" ">
<path fill="none" stroke="#63b8ff" d="M504.29,-179.88C520.73,-175.83 539.85,-171.13 557.25,-166.85"/>
<polygon fill="#63b8ff" stroke="#63b8ff" points="558.05,-170.26 566.92,-164.47 556.38,-163.46 558.05,-170.26"/>
</a>
</g>
</g>
<!-- Node13&#45;&gt;Node20 -->
<g id="edge25_Node000013_Node000020" class="edge">
<title>Node13&#45;&gt;Node20</title>
<g id="a_edge25_Node000013_Node000020"><a xlink:title=" ">
<path fill="none" stroke="#63b8ff" d="M486.54,-179.91C494.76,-175.99 503.9,-171.2 511.75,-166 529.36,-154.35 529.42,-145.48 547.75,-135 552.13,-132.5 556.85,-130.23 561.66,-128.19"/>
<polygon fill="#63b8ff" stroke="#63b8ff" points="562.78,-131.52 570.84,-124.64 560.25,-124.99 562.78,-131.52"/>
</a>
</g>
</g>
<!-- Node16 -->
<g id="Node000016" class="node">
<title>Node16</title>
<g id="a_Node000016"><a xlink:href="espresso_8c.html#a2d9a0717a9389e6d178d0f4a8c2ef185" target="_top" xlink:title=" ">
<polygon fill="white" stroke="#666666" points="793.12,-275.62 717.12,-275.62 717.12,-256.38 793.12,-256.38 793.12,-275.62"/>
<text xml:space="preserve" text-anchor="middle" x="755.12" y="-262.12" font-family="Helvetica,sans-Serif" font-size="10.00">append_query</text>
</a>
</g>
</g>
<!-- Node15&#45;&gt;Node16 -->
<g id="edge20_Node000015_Node000016" class="edge">
<title>Node15&#45;&gt;Node16</title>
<g id="a_edge20_Node000015_Node000016"><a xlink:title=" ">
<path fill="none" stroke="#63b8ff" d="M657.34,-164.09C662.92,-166.25 668.37,-168.86 673.25,-172 703.29,-191.34 728.37,-225.11 742.3,-246.47"/>
<polygon fill="#63b8ff" stroke="#63b8ff" points="739.27,-248.23 747.56,-254.83 745.19,-244.5 739.27,-248.23"/>
</a>
</g>
</g>
<!-- Node15&#45;&gt;Node19 -->
<g id="edge24_Node000015_Node000019" class="edge">
<title>Node15&#45;&gt;Node19</title>
<g id="a_edge24_Node000015_Node000019"><a xlink:title=" ">
<path fill="none" stroke="#63b8ff" d="M663.78,-154C717.84,-154 800.9,-154 848.68,-154"/>
<polygon fill="#63b8ff" stroke="#63b8ff" points="848.52,-157.5 858.52,-154 848.52,-150.5 848.52,-157.5"/>
</a>
</g>
</g>
<!-- Node17 -->
<g id="Node000017" class="node">
<title>Node17</title>
<g id="a_Node000017"><a xlink:href="espresso_8c.html#a755a65a488e1158eee3fdab0ecada8fe" target="_top" xlink:title=" ">
<polygon fill="white" stroke="#666666" points="925,-275.62 849,-275.62 849,-256.38 925,-256.38 925,-275.62"/>
<text xml:space="preserve" text-anchor="middle" x="887" y="-262.12" font-family="Helvetica,sans-Serif" font-size="10.00">decode_query</text>
</a>
</g>
</g>
<!-- Node16&#45;&gt;Node17 -->
<g id="edge21_Node000016_Node000017" class="edge">
<title>Node16&#45;&gt;Node17</title>
<g id="a_edge21_Node000016_Node000017"><a xlink:title=" ">
<path fill="none" stroke="#63b8ff" d="M793.34,-266C807.06,-266 822.82,-266 837.4,-266"/>
<polygon fill="#63b8ff" stroke="#63b8ff" points="837.26,-269.5 847.26,-266 837.26,-262.5 837.26,-269.5"/>
</a>
</g>
</g>
<!-- Node16&#45;&gt;Node19 -->
<g id="edge23_Node000016_Node000019" class="edge">
<title>Node16&#45;&gt;Node19</title>
<g id="a_edge23_Node000016_Node000019"><a xlink:title=" ">
<path fill="none" stroke="#63b8ff" d="M777.95,-256.06C785.56,-252.15 793.95,-247.33 801,-242 828.4,-221.3 855.1,-191.65 871.05,-172.6"/>
<polygon fill="#63b8ff" stroke="#63b8ff" points="873.55,-175.07 877.2,-165.12 868.15,-170.62 873.55,-175.07"/>
</a>
</g>
</g>
<!-- Node18 -->
<g id="Node000018" class="node">
<title>Node18</title>
<g id="a_Node000018"><a xlink:href="espresso_8c.html#af4a5274d4719dec853dd32e1d8687553" target="_top" xlink:title=" ">
<polygon fill="white" stroke="#666666" points="1033.25,-275.62 973,-275.62 973,-256.38 1033.25,-256.38 1033.25,-275.62"/>
<text xml:space="preserve" text-anchor="middle" x="1003.12" y="-262.12" font-family="Helvetica,sans-Serif" font-size="10.00">hex_to_int</text>
</a>
</g>
</g>
<!-- Node17&#45;&gt;Node18 -->
<g id="edge22_Node000017_Node000018" class="edge">
<title>Node17&#45;&gt;Node18</title>
<g id="a_edge22_Node000017_Node000018"><a xlink:title=" ">
<path fill="none" stroke="#63b8ff" d="M925.37,-266C936.88,-266 949.6,-266 961.32,-266"/>
<polygon fill="#63b8ff" stroke="#63b8ff" points="961.12,-269.5 971.12,-266 961.12,-262.5 961.12,-269.5"/>
</a>
</g>
</g>
<!-- Node21 -->
<g id="Node000021" class="node">
<title>Node21</title>
<g id="a_Node000021"><a xlink:href="espresso_8c.html#a5fa30991ad104ba1fe0001e7aefe95ac" target="_top" xlink:title=" ">
<polygon fill="white" stroke="#666666" points="801,-123.62 709.25,-123.62 709.25,-104.38 801,-104.38 801,-123.62"/>
<text xml:space="preserve" text-anchor="middle" x="755.12" y="-110.12" font-family="Helvetica,sans-Serif" font-size="10.00">handle_write_end</text>
</a>
</g>
</g>
<!-- Node20&#45;&gt;Node21 -->
<g id="edge26_Node000020_Node000021" class="edge">
<title>Node20&#45;&gt;Node21</title>
<g id="a_edge26_Node000020_Node000021"><a xlink:title=" ">
<path fill="none" stroke="#63b8ff" d="M651.99,-114C666.1,-114 682.2,-114 697.39,-114"/>
<polygon fill="#63b8ff" stroke="#63b8ff" points="697.25,-117.5 707.25,-114 697.25,-110.5 697.25,-117.5"/>
</a>
</g>
</g>
<!-- Node22&#45;&gt;Node19 -->
<g id="edge29_Node000022_Node000019" class="edge">
<title>Node22&#45;&gt;Node19</title>
<g id="a_edge29_Node000022_Node000019"><a xlink:title=" ">
<path fill="none" stroke="#63b8ff" d="M511.99,-70.62C579.14,-65.02 702.81,-61.21 801,-95 826.42,-103.75 851.16,-122.43 867.33,-136.44"/>
<polygon fill="#63b8ff" stroke="#63b8ff" points="864.9,-138.96 874.68,-143.03 869.57,-133.74 864.9,-138.96"/>
</a>
</g>
</g>
<!-- Node22&#45;&gt;Node20 -->
<g id="edge30_Node000022_Node000020" class="edge">
<title>Node22&#45;&gt;Node20</title>
<g id="a_edge30_Node000022_Node000020"><a xlink:title=" ">
<path fill="none" stroke="#63b8ff" d="M501.97,-86.08C519.65,-90.68 540.8,-96.17 559.65,-101.06"/>
<polygon fill="#63b8ff" stroke="#63b8ff" points="558.71,-104.43 569.27,-103.56 560.47,-97.65 558.71,-104.43"/>
</a>
</g>
</g>
<!-- Node23&#45;&gt;Node4 -->
<g id="edge35_Node000023_Node000004" class="edge">
<title>Node23&#45;&gt;Node4</title>
<g id="a_edge35_Node000023_Node000004"><a xlink:title=" ">
<path fill="none" stroke="#63b8ff" d="M327.52,-86.1C348.06,-125.44 422.91,-268.81 450.67,-321.98"/>
<polygon fill="#63b8ff" stroke="#63b8ff" points="447.41,-323.3 455.14,-330.55 453.62,-320.06 447.41,-323.3"/>
</a>
</g>
</g>
<!-- Node23&#45;&gt;Node20 -->
<g id="edge36_Node000023_Node000020" class="edge">
<title>Node23&#45;&gt;Node20</title>
<g id="a_edge36_Node000023_Node000020"><a xlink:title=" ">
<path fill="none" stroke="#63b8ff" d="M354,-65.95C392.11,-55.45 457.65,-42.38 511.75,-57 540.36,-64.73 569.2,-83.15 588.07,-96.97"/>
<polygon fill="#63b8ff" stroke="#63b8ff" points="585.91,-99.73 596,-102.98 590.14,-94.15 585.91,-99.73"/>
</a>
</g>
</g>
</g>
</svg>
