<?xml version="1.0" encoding="UTF-8" standalone="no"?>
<!DOCTYPE svg PUBLIC "-//W3C//DTD SVG 1.1//EN"
 "http://www.w3.org/Graphics/SVG/1.1/DTD/svg11.dtd">
<!-- Generated by graphviz version 14.0.5 (0)
 -->
<!-- Title: parse_http_request Pages: 1 -->
<svg width="353pt" height="64pt"
 viewBox="0.00 0.00 353.00 64.00" xmlns="http://www.w3.org/2000/svg" xmlns:xlink="http://www.w3.org/1999/xlink">
<g id="graph0" class="graph" transform="scale(1 1) rotate(0) translate(4 60.25)">
<title>parse_http_request</title>
<!-- Node1 -->
<g id="Node000001" class="node">
<title>Node1</title>
<g id="a_Node000001"><a xlink:title="ONLY FOR UNIT TESTS.">
<polygon fill="#999999" stroke="#666666" points="99.25,-37.25 0,-37.25 0,-18 99.25,-18 99.25,-37.25"/>
<text xml:space="preserve" text-anchor="middle" x="49.62" y="-23.75" font-family="Helvetica,sans-Serif" font-size="10.00">parse_http_request</text>
</a>
</g>
</g>
<!-- Node2 -->
<g id="Node000002" class="node">
<title>Node2</title>
<g id="a_Node000002"><a xlink:href="espresso_8c.html#abdcfd909d1360f16c6fedab5aac76f2a" target="_top" xlink:title=" ">
<polygon fill="white" stroke="#666666" points="203,-56.25 149.5,-56.25 149.5,-37 203,-37 203,-56.25"/>
<text xml:space="preserve" text-anchor="middle" x="176.25" y="-42.75" font-family="Helvetica,sans-Serif" font-size="10.00">log_error</text>
</a>
</g>
</g>
<!-- Node1&#45;&gt;Node2 -->
<g id="edge1_Node000001_Node000002" class="edge">
<title>Node1&#45;&gt;Node2</title>
<g id="a_edge1_Node000001_Node000002"><a xlink:title=" ">
<path fill="none" stroke="#63b8ff" d="M99.52,-35.08C112.34,-37.03 125.95,-39.11 138.04,-40.95"/>
<polygon fill="#63b8ff" stroke="#63b8ff" points="137.19,-44.36 147.6,-42.41 138.25,-37.44 137.19,-44.36"/>
</a>
</g>
</g>
<!-- Node3 -->
<g id="Node000003" class="node">
<title>Node3</title>
<g id="a_Node000003"><a xlink:href="espresso_8c.html#a142b429010a8046d339d36552bd20f7e" target="_top" xlink:title=" ">
<polygon fill="white" stroke="#666666" points="217.25,-19.25 135.25,-19.25 135.25,0 217.25,0 217.25,-19.25"/>
<text xml:space="preserve" text-anchor="middle" x="176.25" y="-5.75" font-family="Helvetica,sans-Serif" font-size="10.00">send_message</text>
</a>
</g>
</g>
<!-- Node1&#45;&gt;Node3 -->
<g id="edge2_Node000001_Node000003" class="edge">
<title>Node1&#45;&gt;Node3</title>
<g id="a_edge2_Node000001_Node000003"><a xlink:title=" ">
<path fill="none" stroke="#63b8ff" d="M99.52,-20.56C107.49,-19.41 115.77,-18.22 123.81,-17.06"/>
<polygon fill="#63b8ff" stroke="#63b8ff" points="124.04,-20.56 133.44,-15.66 123.04,-13.63 124.04,-20.56"/>
</a>
</g>
</g>
<!-- Node4 -->
<g id="Node000004" class="node">
<title>Node4</title>
<g id="a_Node000004"><a xlink:href="espresso_8c.html#a5fa30991ad104ba1fe0001e7aefe95ac" target="_top" xlink:title=" ">
<polygon fill="white" stroke="#666666" points="345,-19.25 253.25,-19.25 253.25,0 345,0 345,-19.25"/>
<text xml:space="preserve" text-anchor="middle" x="299.12" y="-5.75" font-family="Helvetica,sans-Serif" font-size="10.00">handle_write_end</text>
</a>
</g>
</g>
<!-- Node3&#45;&gt;Node4 -->
<g id="edge3_Node000003_Node000004" class="edge">
<title>Node3&#45;&gt;Node4</title>
<g id="a_edge3_Node000003_Node000004"><a xlink:title=" ">
<path fill="none" stroke="#63b8ff" d="M217.5,-9.62C225.25,-9.62 233.5,-9.62 241.65,-9.62"/>
<polygon fill="#63b8ff" stroke="#63b8ff" points="241.53,-13.13 251.53,-9.63 241.53,-6.13 241.53,-13.13"/>
</a>
</g>
</g>
</g>
</svg>
