<?xml version="1.0" encoding="UTF-8" standalone="no"?>
<!DOCTYPE svg PUBLIC "-//W3C//DTD SVG 1.1//EN"
 "http://www.w3.org/Graphics/SVG/1.1/DTD/svg11.dtd">
<!-- Generated by graphviz version 14.0.5 (0)
 -->
<!-- Title: log_error Pages: 1 -->
<svg width="1033pt" height="477pt"
 viewBox="0.00 0.00 1033.00 477.00" xmlns="http://www.w3.org/2000/svg" xmlns:xlink="http://www.w3.org/1999/xlink">
<g id="graph0" class="graph" transform="scale(1 1) rotate(0) translate(4 472.65)">
<title>log_error</title>
<!-- Node1 -->
<g id="Node000001" class="node">
<title>Node1</title>
<g id="a_Node000001"><a xlink:title=" ">
<polygon fill="#999999" stroke="#666666" points="1024.5,-245.25 971,-245.25 971,-226 1024.5,-226 1024.5,-245.25"/>
<text xml:space="preserve" text-anchor="middle" x="997.75" y="-231.75" font-family="Helvetica,sans-Serif" font-size="10.00">log_error</text>
</a>
</g>
</g>
<!-- Node2 -->
<g id="Node000002" class="node">
<title>Node2</title>
<g id="a_Node000002"><a xlink:href="espresso_8c.html#a60f89d5029f2a26d41bb861d538d2bf6" target="_top" xlink:title="Appends a route to the app.">
<polygon fill="white" stroke="#666666" points="935,-434.25 819.25,-434.25 819.25,-415 935,-415 935,-434.25"/>
<text xml:space="preserve" text-anchor="middle" x="877.12" y="-420.75" font-family="Helvetica,sans-Serif" font-size="10.00">_app_append_endpoint</text>
</a>
</g>
</g>
<!-- Node1&#45;&gt;Node2 -->
<g id="edge1_Node000001_Node000002" class="edge">
<title>Node1&#45;&gt;Node2</title>
<g id="a_edge1_Node000001_Node000002"><a xlink:title=" ">
<path fill="none" stroke="#63b8ff" d="M995.05,-256.75C991.02,-292.62 977.77,-365.53 935,-406.62 931.71,-409.78 927.88,-412.39 923.78,-414.53"/>
<polygon fill="#63b8ff" stroke="#63b8ff" points="998.53,-257.14 996,-246.85 991.56,-256.47 998.53,-257.14"/>
</a>
</g>
</g>
<!-- Node3 -->
<g id="Node000003" class="node">
<title>Node3</title>
<g id="a_Node000003"><a xlink:href="espresso_8c.html#a55c2ea3f4301ad993abc2d9c948d1426" target="_top" xlink:title="Appends a route to a group.">
<polygon fill="white" stroke="#666666" points="783.25,-458.88 667.5,-458.88 667.5,-428.38 783.25,-428.38 783.25,-458.88"/>
<text xml:space="preserve" text-anchor="start" x="675.5" y="-445.38" font-family="Helvetica,sans-Serif" font-size="10.00">_app_append_endpoint</text>
<text xml:space="preserve" text-anchor="middle" x="725.38" y="-434.12" font-family="Helvetica,sans-Serif" font-size="10.00">_to_group</text>
</a>
</g>
</g>
<!-- Node1&#45;&gt;Node3 -->
<g id="edge3_Node000001_Node000003" class="edge">
<title>Node1&#45;&gt;Node3</title>
<g id="a_edge3_Node000001_Node000003"><a xlink:title=" ">
<path fill="none" stroke="#63b8ff" d="M993.68,-256.81C986.21,-305.1 965.41,-420.93 935,-443.62 890.01,-477.2 823.02,-470.12 777.16,-459.3"/>
<polygon fill="#63b8ff" stroke="#63b8ff" points="997.12,-257.5 995.14,-247.09 990.19,-256.46 997.12,-257.5"/>
</a>
</g>
</g>
<!-- Node4 -->
<g id="Node000004" class="node">
<title>Node4</title>
<g id="a_Node000004"><a xlink:href="espresso_8c.html#aad9cef5e92c59e40491ee2a261a95617" target="_top" xlink:title="Creates a route group with optional middleware.">
<polygon fill="white" stroke="#666666" points="926.38,-397.25 827.88,-397.25 827.88,-378 926.38,-378 926.38,-397.25"/>
<text xml:space="preserve" text-anchor="middle" x="877.12" y="-383.75" font-family="Helvetica,sans-Serif" font-size="10.00">_app_create_group</text>
</a>
</g>
</g>
<!-- Node1&#45;&gt;Node4 -->
<g id="edge4_Node000001_Node000004" class="edge">
<title>Node1&#45;&gt;Node4</title>
<g id="a_edge4_Node000001_Node000004"><a xlink:title=" ">
<path fill="none" stroke="#63b8ff" d="M991.64,-256.56C983.85,-284.44 966.46,-333.71 935,-363.62 928.79,-369.53 920.9,-374.09 913,-377.57"/>
<polygon fill="#63b8ff" stroke="#63b8ff" points="994.95,-257.75 994.1,-247.19 988.18,-255.97 994.95,-257.75"/>
</a>
</g>
</g>
<!-- Node5 -->
<g id="Node000005" class="node">
<title>Node5</title>
<g id="a_Node000005"><a xlink:href="espresso_8c.html#afb20611531d08699d86a03c1ad97f079" target="_top" xlink:title="Adds a global middleware.">
<polygon fill="white" stroke="#666666" points="614.62,-339.25 561.88,-339.25 561.88,-320 614.62,-320 614.62,-339.25"/>
<text xml:space="preserve" text-anchor="middle" x="588.25" y="-325.75" font-family="Helvetica,sans-Serif" font-size="10.00">app_use</text>
</a>
</g>
</g>
<!-- Node1&#45;&gt;Node5 -->
<g id="edge5_Node000001_Node000005" class="edge">
<title>Node1&#45;&gt;Node5</title>
<g id="a_edge5_Node000001_Node000005"><a xlink:title=" ">
<path fill="none" stroke="#63b8ff" d="M986.99,-255.69C976.82,-274.12 959,-300.37 935,-312.62 827.14,-367.68 674.87,-346.6 614.92,-335.13"/>
<polygon fill="#63b8ff" stroke="#63b8ff" points="990,-257.49 991.5,-247 983.78,-254.26 990,-257.49"/>
</a>
</g>
</g>
<!-- Node7 -->
<g id="Node000007" class="node">
<title>Node7</title>
<g id="a_Node000007"><a xlink:href="espresso_8c.html#a2d9a0717a9389e6d178d0f4a8c2ef185" target="_top" xlink:title=" ">
<polygon fill="white" stroke="#666666" points="915.12,-283.25 839.12,-283.25 839.12,-264 915.12,-264 915.12,-283.25"/>
<text xml:space="preserve" text-anchor="middle" x="877.12" y="-269.75" font-family="Helvetica,sans-Serif" font-size="10.00">append_query</text>
</a>
</g>
</g>
<!-- Node1&#45;&gt;Node7 -->
<g id="edge7_Node000001_Node000007" class="edge">
<title>Node1&#45;&gt;Node7</title>
<g id="a_edge7_Node000001_Node000007"><a xlink:title=" ">
<path fill="none" stroke="#63b8ff" d="M960.02,-247.39C943.87,-252.57 925.08,-258.58 909.58,-263.55"/>
<polygon fill="#63b8ff" stroke="#63b8ff" points="960.82,-250.81 969.28,-244.43 958.68,-244.14 960.82,-250.81"/>
</a>
</g>
</g>
<!-- Node8 -->
<g id="Node000008" class="node">
<title>Node8</title>
<g id="a_Node000008"><a xlink:href="espresso_8c.html#a260a9eca1b37d7151fd585fde9e355b8" target="_top" xlink:title="ONLY FOR UNIT TESTS.">
<polygon fill="white" stroke="#666666" points="778.38,-283.25 672.38,-283.25 672.38,-264 778.38,-264 778.38,-283.25"/>
<text xml:space="preserve" text-anchor="middle" x="725.38" y="-269.75" font-family="Helvetica,sans-Serif" font-size="10.00">parse_query_params</text>
</a>
</g>
</g>
<!-- Node1&#45;&gt;Node8 -->
<g id="edge22_Node000001_Node000008" class="edge">
<title>Node1&#45;&gt;Node8</title>
<g id="a_edge22_Node000001_Node000008"><a xlink:title=" ">
<path fill="none" stroke="#63b8ff" d="M982.69,-254.63C971.48,-268.08 954.46,-285.02 935,-292.62 873.69,-316.6 794.79,-297.17 753.82,-283.73"/>
<polygon fill="#63b8ff" stroke="#63b8ff" points="985.4,-256.85 988.84,-246.83 979.9,-252.51 985.4,-256.85"/>
</a>
</g>
</g>
<!-- Node10 -->
<g id="Node000010" class="node">
<title>Node10</title>
<g id="a_Node000010"><a xlink:href="espresso_8c.html#a2a7b96459e0adac1061eaec6a5722075" target="_top" xlink:title=" ">
<polygon fill="white" stroke="#666666" points="509,-226.25 435.25,-226.25 435.25,-207 509,-207 509,-226.25"/>
<text xml:space="preserve" text-anchor="middle" x="472.12" y="-212.75" font-family="Helvetica,sans-Serif" font-size="10.00">handle_buffer</text>
</a>
</g>
</g>
<!-- Node1&#45;&gt;Node10 -->
<g id="edge18_Node000001_Node000010" class="edge">
<title>Node1&#45;&gt;Node10</title>
<g id="a_edge18_Node000001_Node000010"><a xlink:title=" ">
<path fill="none" stroke="#63b8ff" d="M959.46,-234.95C882.14,-233.46 698.74,-229.35 545,-221.62 533.38,-221.04 520.72,-220.22 509.3,-219.41"/>
<polygon fill="#63b8ff" stroke="#63b8ff" points="958.93,-238.45 969,-235.14 959.07,-231.45 958.93,-238.45"/>
</a>
</g>
</g>
<!-- Node12 -->
<g id="Node000012" class="node">
<title>Node12</title>
<g id="a_Node000012"><a xlink:href="espresso_8c.html#a90f2058b8890cfb99e6f595b8f066919" target="_top" xlink:title=" ">
<polygon fill="white" stroke="#666666" points="266.25,-188.25 169.25,-188.25 169.25,-169 266.25,-169 266.25,-188.25"/>
<text xml:space="preserve" text-anchor="middle" x="217.75" y="-174.75" font-family="Helvetica,sans-Serif" font-size="10.00">handle_connection</text>
</a>
</g>
</g>
<!-- Node1&#45;&gt;Node12 -->
<g id="edge19_Node000001_Node000012" class="edge">
<title>Node1&#45;&gt;Node12</title>
<g id="a_edge19_Node000001_Node000012"><a xlink:title=" ">
<path fill="none" stroke="#63b8ff" d="M971.41,-219.96C960.53,-213.8 947.47,-207.14 935,-202.62 845.97,-170.43 821.05,-159.62 726.38,-159.62 726.38,-159.62 726.38,-159.62 471.12,-159.62 399.72,-159.62 317.28,-167.28 266.58,-172.87"/>
<polygon fill="#63b8ff" stroke="#63b8ff" points="969.38,-222.82 979.78,-224.86 972.92,-216.78 969.38,-222.82"/>
</a>
</g>
</g>
<!-- Node14 -->
<g id="Node000014" class="node">
<title>Node14</title>
<g id="a_Node000014"><a xlink:href="espresso_8c.html#a54c30f08a1b67315ac3195d1a7fac35f" target="_top" xlink:title="Creates a new Espresso app on the specified port.">
<polygon fill="white" stroke="#666666" points="504.12,-131.25 440.12,-131.25 440.12,-112 504.12,-112 504.12,-131.25"/>
<text xml:space="preserve" text-anchor="middle" x="472.12" y="-117.75" font-family="Helvetica,sans-Serif" font-size="10.00">create_app</text>
</a>
</g>
</g>
<!-- Node1&#45;&gt;Node14 -->
<g id="edge16_Node000001_Node000014" class="edge">
<title>Node1&#45;&gt;Node14</title>
<g id="a_edge16_Node000001_Node000014"><a xlink:title=" ">
<path fill="none" stroke="#63b8ff" d="M989.01,-214.87C979.76,-193.35 962.06,-160.79 935,-145.62 791.92,-65.46 583.14,-97.94 504.58,-114.34"/>
<polygon fill="#63b8ff" stroke="#63b8ff" points="985.74,-216.13 992.72,-224.1 992.24,-213.52 985.74,-216.13"/>
</a>
</g>
</g>
<!-- Node15 -->
<g id="Node000015" class="node">
<title>Node15</title>
<g id="a_Node000015"><a xlink:href="espresso_8c.html#a529711d7a64d90d49fb6a0c3870c5b61" target="_top" xlink:title="ONLY FOR UNIT TESTS.">
<polygon fill="white" stroke="#666666" points="775,-207.25 675.75,-207.25 675.75,-188 775,-188 775,-207.25"/>
<text xml:space="preserve" text-anchor="middle" x="725.38" y="-193.75" font-family="Helvetica,sans-Serif" font-size="10.00">parse_http_request</text>
</a>
</g>
</g>
<!-- Node1&#45;&gt;Node15 -->
<g id="edge20_Node000001_Node000015" class="edge">
<title>Node1&#45;&gt;Node15</title>
<g id="a_edge20_Node000001_Node000015"><a xlink:title=" ">
<path fill="none" stroke="#63b8ff" d="M959.68,-226.54C951.58,-224.74 943.03,-222.99 935,-221.62 880.73,-212.38 817.9,-205.69 775.49,-201.76"/>
<polygon fill="#63b8ff" stroke="#63b8ff" points="958.73,-229.91 969.26,-228.73 960.29,-223.08 958.73,-229.91"/>
</a>
</g>
</g>
<!-- Node16 -->
<g id="Node000016" class="node">
<title>Node16</title>
<g id="a_Node000016"><a xlink:href="espresso_8c.html#ab5eb7bedd3e620582768d9367c437569" target="_top" xlink:title="Convenience function to store a double in the response context.">
<polygon fill="white" stroke="#666666" points="920.75,-93.25 833.5,-93.25 833.5,-74 920.75,-74 920.75,-93.25"/>
<text xml:space="preserve" text-anchor="middle" x="877.12" y="-79.75" font-family="Helvetica,sans-Serif" font-size="10.00">set_data_double</text>
</a>
</g>
</g>
<!-- Node1&#45;&gt;Node16 -->
<g id="edge23_Node000001_Node000016" class="edge">
<title>Node1&#45;&gt;Node16</title>
<g id="a_edge23_Node000001_Node000016"><a xlink:title=" ">
<path fill="none" stroke="#63b8ff" d="M991.64,-214.69C983.85,-186.81 966.46,-137.54 935,-107.62 928.79,-101.72 920.9,-97.16 913,-93.68"/>
<polygon fill="#63b8ff" stroke="#63b8ff" points="988.18,-215.28 994.1,-224.06 994.95,-213.5 988.18,-215.28"/>
</a>
</g>
</g>
<!-- Node17 -->
<g id="Node000017" class="node">
<title>Node17</title>
<g id="a_Node000017"><a xlink:href="espresso_8c.html#a21ae333e3e8b2f17bcce3e2baad48190" target="_top" xlink:title="Convenience function to store an integer in the response context.">
<polygon fill="white" stroke="#666666" points="911.75,-56.25 842.5,-56.25 842.5,-37 911.75,-37 911.75,-56.25"/>
<text xml:space="preserve" text-anchor="middle" x="877.12" y="-42.75" font-family="Helvetica,sans-Serif" font-size="10.00">set_data_int</text>
</a>
</g>
</g>
<!-- Node1&#45;&gt;Node17 -->
<g id="edge24_Node000001_Node000017" class="edge">
<title>Node1&#45;&gt;Node17</title>
<g id="a_edge24_Node000001_Node000017"><a xlink:title=" ">
<path fill="none" stroke="#63b8ff" d="M995.05,-214.5C991.02,-178.63 977.77,-105.72 935,-64.62 928.73,-58.6 920.45,-54.59 912.15,-51.92"/>
<polygon fill="#63b8ff" stroke="#63b8ff" points="991.56,-214.78 996,-224.4 998.53,-214.11 991.56,-214.78"/>
</a>
</g>
</g>
<!-- Node18 -->
<g id="Node000018" class="node">
<title>Node18</title>
<g id="a_Node000018"><a xlink:href="espresso_8c.html#a7a51ad27c37b1b8371f9e14db3c58dec" target="_top" xlink:title="Convenience function to store a string in the response context.">
<polygon fill="white" stroke="#666666" points="918.5,-19.25 835.75,-19.25 835.75,0 918.5,0 918.5,-19.25"/>
<text xml:space="preserve" text-anchor="middle" x="877.12" y="-5.75" font-family="Helvetica,sans-Serif" font-size="10.00">set_data_string</text>
</a>
</g>
</g>
<!-- Node1&#45;&gt;Node18 -->
<g id="edge25_Node000001_Node000018" class="edge">
<title>Node1&#45;&gt;Node18</title>
<g id="a_edge25_Node000001_Node000018"><a xlink:title=" ">
<path fill="none" stroke="#63b8ff" d="M996.66,-214.38C995.31,-172.73 986.32,-79.87 935,-27.62 930.5,-23.04 924.84,-19.63 918.86,-17.08"/>
<polygon fill="#63b8ff" stroke="#63b8ff" points="993.16,-214.33 996.84,-224.26 1000.16,-214.2 993.16,-214.33"/>
</a>
</g>
</g>
<!-- Node2&#45;&gt;Node3 -->
<g id="edge2_Node000002_Node000003" class="edge">
<title>Node2&#45;&gt;Node3</title>
<g id="a_edge2_Node000002_Node000003"><a xlink:title=" ">
<path fill="none" stroke="#63b8ff" d="M807.94,-433.28C799.68,-434.32 791.32,-435.38 783.26,-436.41"/>
<polygon fill="#63b8ff" stroke="#63b8ff" points="808.1,-436.78 817.58,-432.05 807.22,-429.84 808.1,-436.78"/>
</a>
</g>
</g>
<!-- Node6 -->
<g id="Node000006" class="node">
<title>Node6</title>
<g id="a_Node000006"><a xlink:href="main_8c.html#ae66f6b31b5ad750f1fe042a706a4e3d4" target="_top" xlink:title=" ">
<polygon fill="white" stroke="#666666" points="37,-188.25 0,-188.25 0,-169 37,-169 37,-188.25"/>
<text xml:space="preserve" text-anchor="middle" x="18.5" y="-174.75" font-family="Helvetica,sans-Serif" font-size="10.00">main</text>
</a>
</g>
</g>
<!-- Node5&#45;&gt;Node6 -->
<g id="edge6_Node000005_Node000006" class="edge">
<title>Node5&#45;&gt;Node6</title>
<g id="a_edge6_Node000005_Node000006"><a xlink:title=" ">
<path fill="none" stroke="#63b8ff" d="M550.56,-317.64C504.61,-303.71 423.24,-282.62 351.75,-282.62 351.75,-282.62 351.75,-282.62 216.75,-282.62 136.61,-282.62 57.11,-214.63 29.61,-188.6"/>
<polygon fill="#63b8ff" stroke="#63b8ff" points="549.42,-320.95 560,-320.56 551.48,-314.26 549.42,-320.95"/>
</a>
</g>
</g>
<!-- Node7&#45;&gt;Node8 -->
<g id="edge8_Node000007_Node000008" class="edge">
<title>Node7&#45;&gt;Node8</title>
<g id="a_edge8_Node000007_Node000008"><a xlink:title=" ">
<path fill="none" stroke="#63b8ff" d="M827.25,-273.62C811.76,-273.62 794.56,-273.62 778.82,-273.62"/>
<polygon fill="#63b8ff" stroke="#63b8ff" points="827.21,-277.13 837.21,-273.63 827.21,-270.13 827.21,-277.13"/>
</a>
</g>
</g>
<!-- Node9 -->
<g id="Node000009" class="node">
<title>Node9</title>
<g id="a_Node000009"><a xlink:href="espresso_8c.html#a041948e0d9b16b9c852053d3fb3f2a69" target="_top" xlink:title="ONLY FOR UNIT TESTS.">
<polygon fill="white" stroke="#666666" points="631.5,-283.25 545,-283.25 545,-264 631.5,-264 631.5,-283.25"/>
<text xml:space="preserve" text-anchor="middle" x="588.25" y="-269.75" font-family="Helvetica,sans-Serif" font-size="10.00">handle_endpoint</text>
</a>
</g>
</g>
<!-- Node8&#45;&gt;Node9 -->
<g id="edge9_Node000008_Node000009" class="edge">
<title>Node8&#45;&gt;Node9</title>
<g id="a_edge9_Node000008_Node000009"><a xlink:title=" ">
<path fill="none" stroke="#63b8ff" d="M660.7,-273.62C650.88,-273.62 640.95,-273.62 631.74,-273.62"/>
<polygon fill="#63b8ff" stroke="#63b8ff" points="660.62,-277.13 670.62,-273.63 660.62,-270.13 660.62,-277.13"/>
</a>
</g>
</g>
<!-- Node9&#45;&gt;Node10 -->
<g id="edge10_Node000009_Node000010" class="edge">
<title>Node9&#45;&gt;Node10</title>
<g id="a_edge10_Node000009_Node000010"><a xlink:title=" ">
<path fill="none" stroke="#63b8ff" d="M556.85,-258.44C536.65,-248.35 510.68,-235.38 493.06,-226.58"/>
<polygon fill="#63b8ff" stroke="#63b8ff" points="555.25,-261.55 565.76,-262.89 558.37,-255.29 555.25,-261.55"/>
</a>
</g>
</g>
<!-- Node11 -->
<g id="Node000011" class="node">
<title>Node11</title>
<g id="a_Node000011"><a xlink:href="espresso_8c.html#a919e9a8a992f43f0fd82e87f4d40d2d2" target="_top" xlink:title=" ">
<polygon fill="white" stroke="#666666" points="399.25,-226.25 302.25,-226.25 302.25,-207 399.25,-207 399.25,-226.25"/>
<text xml:space="preserve" text-anchor="middle" x="350.75" y="-212.75" font-family="Helvetica,sans-Serif" font-size="10.00">handle_client_read</text>
</a>
</g>
</g>
<!-- Node10&#45;&gt;Node11 -->
<g id="edge11_Node000010_Node000011" class="edge">
<title>Node10&#45;&gt;Node11</title>
<g id="a_edge11_Node000010_Node000011"><a xlink:title=" ">
<path fill="none" stroke="#63b8ff" d="M423.69,-210C415.79,-209.84 407.59,-209.83 399.67,-209.99"/>
<polygon fill="#63b8ff" stroke="#63b8ff" points="423.36,-213.49 433.47,-210.32 423.59,-206.5 423.36,-213.49"/>
</a>
</g>
</g>
<!-- Node11&#45;&gt;Node10 -->
<g id="edge12_Node000011_Node000010" class="edge">
<title>Node11&#45;&gt;Node10</title>
<g id="a_edge12_Node000011_Node000010"><a xlink:title=" ">
<path fill="none" stroke="#63b8ff" d="M411.12,-223.37C419.27,-223.38 427.43,-223.22 434.98,-222.88"/>
<polygon fill="#63b8ff" stroke="#63b8ff" points="411.22,-219.88 401.19,-223.27 411.15,-226.88 411.22,-219.88"/>
</a>
</g>
</g>
<!-- Node11&#45;&gt;Node12 -->
<g id="edge13_Node000011_Node000012" class="edge">
<title>Node11&#45;&gt;Node12</title>
<g id="a_edge13_Node000011_Node000012"><a xlink:title=" ">
<path fill="none" stroke="#63b8ff" d="M304.31,-203.44C287.55,-198.58 268.85,-193.16 253.22,-188.62"/>
<polygon fill="#63b8ff" stroke="#63b8ff" points="302.96,-206.7 313.53,-206.12 304.91,-199.97 302.96,-206.7"/>
</a>
</g>
</g>
<!-- Node13 -->
<g id="Node000013" class="node">
<title>Node13</title>
<g id="a_Node000013"><a xlink:href="espresso_8c.html#a0ba22157d15a70c4c22441b040bb0f74" target="_top" xlink:title="Starts the HTTP server loop.">
<polygon fill="white" stroke="#666666" points="133.25,-188.25 73,-188.25 73,-169 133.25,-169 133.25,-188.25"/>
<text xml:space="preserve" text-anchor="middle" x="103.12" y="-174.75" font-family="Helvetica,sans-Serif" font-size="10.00">app_listen</text>
</a>
</g>
</g>
<!-- Node12&#45;&gt;Node13 -->
<g id="edge14_Node000012_Node000013" class="edge">
<title>Node12&#45;&gt;Node13</title>
<g id="a_edge14_Node000012_Node000013"><a xlink:title=" ">
<path fill="none" stroke="#63b8ff" d="M157.66,-178.62C149.34,-178.62 141.1,-178.62 133.67,-178.62"/>
<polygon fill="#63b8ff" stroke="#63b8ff" points="157.47,-182.13 167.47,-178.63 157.47,-175.13 157.47,-182.13"/>
</a>
</g>
</g>
<!-- Node13&#45;&gt;Node6 -->
<g id="edge15_Node000013_Node000006" class="edge">
<title>Node13&#45;&gt;Node6</title>
<g id="a_edge15_Node000013_Node000006"><a xlink:title=" ">
<path fill="none" stroke="#63b8ff" d="M61.34,-178.62C52.86,-178.62 44.34,-178.62 37.23,-178.62"/>
<polygon fill="#63b8ff" stroke="#63b8ff" points="61.25,-182.13 71.25,-178.63 61.25,-175.13 61.25,-182.13"/>
</a>
</g>
</g>
<!-- Node14&#45;&gt;Node6 -->
<g id="edge17_Node000014_Node000006" class="edge">
<title>Node14&#45;&gt;Node6</title>
<g id="a_edge17_Node000014_Node000006"><a xlink:title=" ">
<path fill="none" stroke="#63b8ff" d="M428.69,-122.26C355.32,-124.12 200.4,-131.38 73,-159.62 60.88,-162.31 47.73,-166.96 37.5,-170.98"/>
<polygon fill="#63b8ff" stroke="#63b8ff" points="428.32,-125.77 438.23,-122.04 428.15,-118.78 428.32,-125.77"/>
</a>
</g>
</g>
<!-- Node15&#45;&gt;Node10 -->
<g id="edge21_Node000015_Node000010" class="edge">
<title>Node15&#45;&gt;Node10</title>
<g id="a_edge21_Node000015_Node000010"><a xlink:title=" ">
<path fill="none" stroke="#63b8ff" d="M664.1,-202.18C615.89,-205.83 549.87,-210.82 509.43,-213.88"/>
<polygon fill="#63b8ff" stroke="#63b8ff" points="664.12,-205.69 673.83,-201.45 663.59,-198.71 664.12,-205.69"/>
</a>
</g>
</g>
</g>
</svg>
