<?xml version="1.0" encoding="UTF-8" standalone="no"?>
<!DOCTYPE svg PUBLIC "-//W3C//DTD SVG 1.1//EN"
 "http://www.w3.org/Graphics/SVG/1.1/DTD/svg11.dtd">
<!-- Generated by graphviz version 14.0.5 (0)
 -->
<!-- Title: set_data_string Pages: 1 -->
<svg width="180pt" height="64pt"
 viewBox="0.00 0.00 180.00 64.00" xmlns="http://www.w3.org/2000/svg" xmlns:xlink="http://www.w3.org/1999/xlink">
<g id="graph0" class="graph" transform="scale(1 1) rotate(0) translate(4 60.25)">
<title>set_data_string</title>
<!-- Node1 -->
<g id="Node000001" class="node">
<title>Node1</title>
<g id="a_Node000001"><a xlink:title="Convenience function to store a string in the response context.">
<polygon fill="#999999" stroke="#666666" points="82.75,-37.25 0,-37.25 0,-18 82.75,-18 82.75,-37.25"/>
<text xml:space="preserve" text-anchor="middle" x="41.38" y="-23.75" font-family="Helvetica,sans-Serif" font-size="10.00">set_data_string</text>
</a>
</g>
</g>
<!-- Node2 -->
<g id="Node000002" class="node">
<title>Node2</title>
<g id="a_Node000002"><a xlink:href="espresso_8c.html#abdcfd909d1360f16c6fedab5aac76f2a" target="_top" xlink:title=" ">
<polygon fill="white" stroke="#666666" points="172.25,-56.25 118.75,-56.25 118.75,-37 172.25,-37 172.25,-56.25"/>
<text xml:space="preserve" text-anchor="middle" x="145.5" y="-42.75" font-family="Helvetica,sans-Serif" font-size="10.00">log_error</text>
</a>
</g>
</g>
<!-- Node1&#45;&gt;Node2 -->
<g id="edge1_Node000001_Node000002" class="edge">
<title>Node1&#45;&gt;Node2</title>
<g id="a_edge1_Node000001_Node000002"><a xlink:title=" ">
<path fill="none" stroke="#63b8ff" d="M83.03,-35.19C91.03,-36.68 99.38,-38.23 107.26,-39.7"/>
<polygon fill="#63b8ff" stroke="#63b8ff" points="106.41,-43.1 116.88,-41.49 107.69,-36.22 106.41,-43.1"/>
</a>
</g>
</g>
<!-- Node3 -->
<g id="Node000003" class="node">
<title>Node3</title>
<g id="a_Node000003"><a xlink:href="espresso_8c.html#accb7e84d4d05bf7501d52de24e8b9c9b" target="_top" xlink:title="Set arbitrary data in the response context.">
<polygon fill="white" stroke="#666666" points="172.25,-19.25 118.75,-19.25 118.75,0 172.25,0 172.25,-19.25"/>
<text xml:space="preserve" text-anchor="middle" x="145.5" y="-5.75" font-family="Helvetica,sans-Serif" font-size="10.00">set_data</text>
</a>
</g>
</g>
<!-- Node1&#45;&gt;Node3 -->
<g id="edge2_Node000001_Node000003" class="edge">
<title>Node1&#45;&gt;Node3</title>
<g id="a_edge2_Node000001_Node000003"><a xlink:title=" ">
<path fill="none" stroke="#63b8ff" d="M83.03,-20.46C91.03,-19.05 99.38,-17.58 107.26,-16.19"/>
<polygon fill="#63b8ff" stroke="#63b8ff" points="107.64,-19.68 116.88,-14.49 106.42,-12.78 107.64,-19.68"/>
</a>
</g>
</g>
</g>
</svg>
