<?xml version="1.0" encoding="UTF-8" standalone="no"?>
<!DOCTYPE svg PUBLIC "-//W3C//DTD SVG 1.1//EN"
 "http://www.w3.org/Graphics/SVG/1.1/DTD/svg11.dtd">
<!-- Generated by graphviz version 14.0.5 (0)
 -->
<!-- Title: handle_connection_close Pages: 1 -->
<svg width="397pt" height="82pt"
 viewBox="0.00 0.00 397.00 82.00" xmlns="http://www.w3.org/2000/svg" xmlns:xlink="http://www.w3.org/1999/xlink">
<g id="graph0" class="graph" transform="scale(1 1) rotate(0) translate(4 78.25)">
<title>handle_connection_close</title>
<!-- Node1 -->
<g id="Node000001" class="node">
<title>Node1</title>
<g id="a_Node000001"><a xlink:title=" ">
<polygon fill="#999999" stroke="#666666" points="125.5,-37.25 0,-37.25 0,-18 125.5,-18 125.5,-37.25"/>
<text xml:space="preserve" text-anchor="middle" x="62.75" y="-23.75" font-family="Helvetica,sans-Serif" font-size="10.00">handle_connection_close</text>
</a>
</g>
</g>
<!-- Node2 -->
<g id="Node000002" class="node">
<title>Node2</title>
<g id="a_Node000002"><a xlink:href="espresso_8c.html#a1804ce3a25646fd9c6c6ad98d45c6efa" target="_top" xlink:title=" ">
<polygon fill="white" stroke="#666666" points="253.25,-56.25 161.5,-56.25 161.5,-37 253.25,-37 253.25,-56.25"/>
<text xml:space="preserve" text-anchor="middle" x="207.38" y="-42.75" font-family="Helvetica,sans-Serif" font-size="10.00">endpoint_cleanup</text>
</a>
</g>
</g>
<!-- Node1&#45;&gt;Node2 -->
<g id="edge1_Node000001_Node000002" class="edge">
<title>Node1&#45;&gt;Node2</title>
<g id="a_edge1_Node000001_Node000002"><a xlink:title=" ">
<path fill="none" stroke="#63b8ff" d="M125.89,-35.9C133.86,-36.96 141.99,-38.05 149.86,-39.1"/>
<polygon fill="#63b8ff" stroke="#63b8ff" points="149.29,-42.55 159.66,-40.4 150.21,-35.61 149.29,-42.55"/>
</a>
</g>
</g>
<!-- Node5 -->
<g id="Node000005" class="node">
<title>Node5</title>
<g id="a_Node000005"><a xlink:href="espresso_8c.html#a837cf67658f96fc262c83a4882f96f45" target="_top" xlink:title=" ">
<polygon fill="white" stroke="#666666" points="245.75,-19.25 169,-19.25 169,0 245.75,0 245.75,-19.25"/>
<text xml:space="preserve" text-anchor="middle" x="207.38" y="-5.75" font-family="Helvetica,sans-Serif" font-size="10.00">remove_client</text>
</a>
</g>
</g>
<!-- Node1&#45;&gt;Node5 -->
<g id="edge4_Node000001_Node000005" class="edge">
<title>Node1&#45;&gt;Node5</title>
<g id="a_edge4_Node000001_Node000005"><a xlink:title=" ">
<path fill="none" stroke="#63b8ff" d="M125.89,-19.78C136.47,-18.45 147.33,-17.08 157.5,-15.79"/>
<polygon fill="#63b8ff" stroke="#63b8ff" points="157.67,-19.3 167.15,-14.58 156.79,-12.35 157.67,-19.3"/>
</a>
</g>
</g>
<!-- Node3 -->
<g id="Node000003" class="node">
<title>Node3</title>
<g id="a_Node000003"><a xlink:href="espresso_8c.html#a713520bedc85cf92de9f221038f1b737" target="_top" xlink:title=" ">
<polygon fill="white" stroke="#666666" points="389.25,-74.25 289.25,-74.25 289.25,-55 389.25,-55 389.25,-74.25"/>
<text xml:space="preserve" text-anchor="middle" x="339.25" y="-60.75" font-family="Helvetica,sans-Serif" font-size="10.00">handle_timer_close</text>
</a>
</g>
</g>
<!-- Node2&#45;&gt;Node3 -->
<g id="edge2_Node000002_Node000003" class="edge">
<title>Node2&#45;&gt;Node3</title>
<g id="a_edge2_Node000002_Node000003"><a xlink:title=" ">
<path fill="none" stroke="#63b8ff" d="M253.43,-52.87C261.2,-53.95 269.39,-55.08 277.49,-56.2"/>
<polygon fill="#63b8ff" stroke="#63b8ff" points="276.95,-59.66 287.34,-57.57 277.91,-52.73 276.95,-59.66"/>
</a>
</g>
</g>
<!-- Node4 -->
<g id="Node000004" class="node">
<title>Node4</title>
<g id="a_Node000004"><a xlink:href="espresso_8c.html#aff314ce54a1f87e10d08bf4ddeeaf537" target="_top" xlink:title=" ">
<polygon fill="white" stroke="#666666" points="382.88,-37.25 295.62,-37.25 295.62,-18 382.88,-18 382.88,-37.25"/>
<text xml:space="preserve" text-anchor="middle" x="339.25" y="-23.75" font-family="Helvetica,sans-Serif" font-size="10.00">request_cleanup</text>
</a>
</g>
</g>
<!-- Node2&#45;&gt;Node4 -->
<g id="edge3_Node000002_Node000004" class="edge">
<title>Node2&#45;&gt;Node4</title>
<g id="a_edge3_Node000002_Node000004"><a xlink:title=" ">
<path fill="none" stroke="#63b8ff" d="M253.43,-40.03C263.34,-38.58 273.92,-37.04 284.13,-35.54"/>
<polygon fill="#63b8ff" stroke="#63b8ff" points="284.57,-39.02 293.96,-34.1 283.56,-32.09 284.57,-39.02"/>
</a>
</g>
</g>
</g>
</svg>
