<?xml version="1.0" encoding="UTF-8" standalone="no"?>
<!DOCTYPE svg PUBLIC "-//W3C//DTD SVG 1.1//EN"
 "http://www.w3.org/Graphics/SVG/1.1/DTD/svg11.dtd">
<!-- Generated by graphviz version 14.0.5 (0)
 -->
<!-- Title: generate_allow_header Pages: 1 -->
<svg width="791pt" height="46pt"
 viewBox="0.00 0.00 791.00 46.00" xmlns="http://www.w3.org/2000/svg" xmlns:xlink="http://www.w3.org/1999/xlink">
<g id="graph0" class="graph" transform="scale(1 1) rotate(0) translate(4 42.25)">
<title>generate_allow_header</title>
<!-- Node1 -->
<g id="Node000001" class="node">
<title>Node1</title>
<g id="a_Node000001"><a xlink:title=" ">
<polygon fill="#999999" stroke="#666666" points="783.25,-38.25 667.5,-38.25 667.5,-19 783.25,-19 783.25,-38.25"/>
<text xml:space="preserve" text-anchor="middle" x="725.38" y="-24.75" font-family="Helvetica,sans-Serif" font-size="10.00">generate_allow_header</text>
</a>
</g>
</g>
<!-- Node2 -->
<g id="Node000002" class="node">
<title>Node2</title>
<g id="a_Node000002"><a xlink:href="espresso_8c.html#a2a7b96459e0adac1061eaec6a5722075" target="_top" xlink:title=" ">
<polygon fill="white" stroke="#666666" points="509,-38.25 435.25,-38.25 435.25,-19 509,-19 509,-38.25"/>
<text xml:space="preserve" text-anchor="middle" x="472.12" y="-24.75" font-family="Helvetica,sans-Serif" font-size="10.00">handle_buffer</text>
</a>
</g>
</g>
<!-- Node1&#45;&gt;Node2 -->
<g id="edge1_Node000001_Node000002" class="edge">
<title>Node1&#45;&gt;Node2</title>
<g id="a_edge1_Node000001_Node000002"><a xlink:title=" ">
<path fill="none" stroke="#63b8ff" d="M655.64,-28.62C608.32,-28.62 547.34,-28.62 509.23,-28.62"/>
<polygon fill="#63b8ff" stroke="#63b8ff" points="655.53,-32.13 665.53,-28.63 655.53,-25.13 655.53,-32.13"/>
</a>
</g>
</g>
<!-- Node7 -->
<g id="Node000007" class="node">
<title>Node7</title>
<g id="a_Node000007"><a xlink:href="espresso_8c.html#a373b955efab67a13fdc71105c53aa5d5" target="_top" xlink:title="ONLY FOR UNIT TESTS.">
<polygon fill="white" stroke="#666666" points="631.5,-19.25 545,-19.25 545,0 631.5,0 631.5,-19.25"/>
<text xml:space="preserve" text-anchor="middle" x="588.25" y="-5.75" font-family="Helvetica,sans-Serif" font-size="10.00">handle_endpoint</text>
</a>
</g>
</g>
<!-- Node1&#45;&gt;Node7 -->
<g id="edge6_Node000001_Node000007" class="edge">
<title>Node1&#45;&gt;Node7</title>
<g id="a_edge6_Node000001_Node000007"><a xlink:title=" ">
<path fill="none" stroke="#63b8ff" d="M655.93,-19C647.74,-17.85 639.56,-16.7 631.88,-15.62"/>
<polygon fill="#63b8ff" stroke="#63b8ff" points="655.18,-22.43 665.57,-20.36 656.16,-15.5 655.18,-22.43"/>
</a>
</g>
</g>
<!-- Node3 -->
<g id="Node000003" class="node">
<title>Node3</title>
<g id="a_Node000003"><a xlink:href="espresso_8c.html#a919e9a8a992f43f0fd82e87f4d40d2d2" target="_top" xlink:title=" ">
<polygon fill="white" stroke="#666666" points="399.25,-38.25 302.25,-38.25 302.25,-19 399.25,-19 399.25,-38.25"/>
<text xml:space="preserve" text-anchor="middle" x="350.75" y="-24.75" font-family="Helvetica,sans-Serif" font-size="10.00">handle_client_read</text>
</a>
</g>
</g>
<!-- Node2&#45;&gt;Node3 -->
<g id="edge2_Node000002_Node000003" class="edge">
<title>Node2&#45;&gt;Node3</title>
<g id="a_edge2_Node000002_Node000003"><a xlink:title=" ">
<path fill="none" stroke="#63b8ff" d="M423.69,-28.62C415.79,-28.62 407.59,-28.62 399.67,-28.62"/>
<polygon fill="#63b8ff" stroke="#63b8ff" points="423.47,-32.13 433.47,-28.63 423.47,-25.13 423.47,-32.13"/>
</a>
</g>
</g>
<!-- Node4 -->
<g id="Node000004" class="node">
<title>Node4</title>
<g id="a_Node000004"><a xlink:href="espresso_8c.html#a90f2058b8890cfb99e6f595b8f066919" target="_top" xlink:title=" ">
<polygon fill="white" stroke="#666666" points="266.25,-38.25 169.25,-38.25 169.25,-19 266.25,-19 266.25,-38.25"/>
<text xml:space="preserve" text-anchor="middle" x="217.75" y="-24.75" font-family="Helvetica,sans-Serif" font-size="10.00">handle_connection</text>
</a>
</g>
</g>
<!-- Node3&#45;&gt;Node4 -->
<g id="edge3_Node000003_Node000004" class="edge">
<title>Node3&#45;&gt;Node4</title>
<g id="a_edge3_Node000003_Node000004"><a xlink:title=" ">
<path fill="none" stroke="#63b8ff" d="M290.78,-28.62C282.69,-28.62 274.46,-28.62 266.6,-28.62"/>
<polygon fill="#63b8ff" stroke="#63b8ff" points="290.57,-32.13 300.57,-28.63 290.57,-25.13 290.57,-32.13"/>
</a>
</g>
</g>
<!-- Node5 -->
<g id="Node000005" class="node">
<title>Node5</title>
<g id="a_Node000005"><a xlink:href="espresso_8c.html#a0ba22157d15a70c4c22441b040bb0f74" target="_top" xlink:title="Starts the HTTP server loop.">
<polygon fill="white" stroke="#666666" points="133.25,-38.25 73,-38.25 73,-19 133.25,-19 133.25,-38.25"/>
<text xml:space="preserve" text-anchor="middle" x="103.12" y="-24.75" font-family="Helvetica,sans-Serif" font-size="10.00">app_listen</text>
</a>
</g>
</g>
<!-- Node4&#45;&gt;Node5 -->
<g id="edge4_Node000004_Node000005" class="edge">
<title>Node4&#45;&gt;Node5</title>
<g id="a_edge4_Node000004_Node000005"><a xlink:title=" ">
<path fill="none" stroke="#63b8ff" d="M157.66,-28.62C149.34,-28.62 141.1,-28.62 133.67,-28.62"/>
<polygon fill="#63b8ff" stroke="#63b8ff" points="157.47,-32.13 167.47,-28.63 157.47,-25.13 157.47,-32.13"/>
</a>
</g>
</g>
<!-- Node6 -->
<g id="Node000006" class="node">
<title>Node6</title>
<g id="a_Node000006"><a xlink:href="main_8c.html#ae66f6b31b5ad750f1fe042a706a4e3d4" target="_top" xlink:title=" ">
<polygon fill="white" stroke="#666666" points="37,-38.25 0,-38.25 0,-19 37,-19 37,-38.25"/>
<text xml:space="preserve" text-anchor="middle" x="18.5" y="-24.75" font-family="Helvetica,sans-Serif" font-size="10.00">main</text>
</a>
</g>
</g>
<!-- Node5&#45;&gt;Node6 -->
<g id="edge5_Node000005_Node000006" class="edge">
<title>Node5&#45;&gt;Node6</title>
<g id="a_edge5_Node000005_Node000006"><a xlink:title=" ">
<path fill="none" stroke="#63b8ff" d="M61.34,-28.62C52.86,-28.62 44.34,-28.62 37.23,-28.62"/>
<polygon fill="#63b8ff" stroke="#63b8ff" points="61.25,-32.13 71.25,-28.63 61.25,-25.13 61.25,-32.13"/>
</a>
</g>
</g>
<!-- Node7&#45;&gt;Node2 -->
<g id="edge7_Node000007_Node000002" class="edge">
<title>Node7&#45;&gt;Node2</title>
<g id="a_edge7_Node000007_Node000002"><a xlink:title=" ">
<path fill="none" stroke="#63b8ff" d="M533.63,-18.55C525.38,-19.92 517.04,-21.31 509.29,-22.6"/>
<polygon fill="#63b8ff" stroke="#63b8ff" points="533.97,-22.04 543.26,-16.95 532.82,-15.14 533.97,-22.04"/>
</a>
</g>
</g>
</g>
</svg>
