<?xml version="1.0" encoding="UTF-8" standalone="no"?>
<!DOCTYPE svg PUBLIC "-//W3C//DTD SVG 1.1//EN"
 "http://www.w3.org/Graphics/SVG/1.1/DTD/svg11.dtd">
<!-- Generated by graphviz version 14.0.5 (0)
 -->
<!-- Title: handle_connection Pages: 1 -->
<svg width="981pt" height="244pt"
 viewBox="0.00 0.00 981.00 244.00" xmlns="http://www.w3.org/2000/svg" xmlns:xlink="http://www.w3.org/1999/xlink">
<g id="graph0" class="graph" transform="scale(1 1) rotate(0) translate(4 240.25)">
<title>handle_connection</title>
<!-- Node1 -->
<g id="Node000001" class="node">
<title>Node1</title>
<g id="a_Node000001"><a xlink:title=" ">
<polygon fill="#999999" stroke="#666666" points="97,-180.25 0,-180.25 0,-161 97,-161 97,-180.25"/>
<text xml:space="preserve" text-anchor="middle" x="48.5" y="-166.75" font-family="Helvetica,sans-Serif" font-size="10.00">handle_connection</text>
</a>
</g>
</g>
<!-- Node2 -->
<g id="Node000002" class="node">
<title>Node2</title>
<g id="a_Node000002"><a xlink:href="espresso_8c.html#a16da648ec46c63111e6d0f16c8c861d3" target="_top" xlink:title=" ">
<polygon fill="white" stroke="#666666" points="211.62,-236.25 151.38,-236.25 151.38,-217 211.62,-217 211.62,-236.25"/>
<text xml:space="preserve" text-anchor="middle" x="181.5" y="-222.75" font-family="Helvetica,sans-Serif" font-size="10.00">add_client</text>
</a>
</g>
</g>
<!-- Node1&#45;&gt;Node2 -->
<g id="edge1_Node000001_Node000002" class="edge">
<title>Node1&#45;&gt;Node2</title>
<g id="a_edge1_Node000001_Node000002"><a xlink:title=" ">
<path fill="none" stroke="#63b8ff" d="M70.61,-180.69C87.39,-188.58 111.53,-199.68 133,-208.62 136.01,-209.88 139.15,-211.15 142.31,-212.4"/>
<polygon fill="#63b8ff" stroke="#63b8ff" points="141,-215.65 151.59,-216 143.53,-209.12 141,-215.65"/>
</a>
</g>
</g>
<!-- Node3 -->
<g id="Node000003" class="node">
<title>Node3</title>
<g id="a_Node000003"><a xlink:href="espresso_8c.html#afc4191b175ae67f2d0d5b264caa6d08a" target="_top" xlink:title=" ">
<polygon fill="white" stroke="#666666" points="221,-199.25 142,-199.25 142,-180 221,-180 221,-199.25"/>
<text xml:space="preserve" text-anchor="middle" x="181.5" y="-185.75" font-family="Helvetica,sans-Serif" font-size="10.00">allocate_buffer</text>
</a>
</g>
</g>
<!-- Node1&#45;&gt;Node3 -->
<g id="edge2_Node000001_Node000003" class="edge">
<title>Node1&#45;&gt;Node3</title>
<g id="a_edge2_Node000001_Node000003"><a xlink:title=" ">
<path fill="none" stroke="#63b8ff" d="M97.16,-177.54C108.02,-179.11 119.59,-180.79 130.54,-182.38"/>
<polygon fill="#63b8ff" stroke="#63b8ff" points="129.78,-185.81 140.18,-183.78 130.79,-178.88 129.78,-185.81"/>
</a>
</g>
</g>
<!-- Node4 -->
<g id="Node000004" class="node">
<title>Node4</title>
<g id="a_Node000004"><a xlink:href="espresso_8c.html#a73277811539a2de04ce7e1295fbdba6a" target="_top" xlink:title=" ">
<polygon fill="white" stroke="#666666" points="471.25,-171.25 379.5,-171.25 379.5,-152 471.25,-152 471.25,-171.25"/>
<text xml:space="preserve" text-anchor="middle" x="425.38" y="-157.75" font-family="Helvetica,sans-Serif" font-size="10.00">close_connection</text>
</a>
</g>
</g>
<!-- Node1&#45;&gt;Node4 -->
<g id="edge3_Node000001_Node000004" class="edge">
<title>Node1&#45;&gt;Node4</title>
<g id="a_edge3_Node000001_Node000004"><a xlink:title=" ">
<path fill="none" stroke="#63b8ff" d="M97.36,-169.48C166.5,-167.82 294.08,-164.75 367.79,-162.98"/>
<polygon fill="#63b8ff" stroke="#63b8ff" points="367.71,-166.49 377.63,-162.75 367.55,-159.49 367.71,-166.49"/>
</a>
</g>
</g>
<!-- Node8 -->
<g id="Node000008" class="node">
<title>Node8</title>
<g id="a_Node000008"><a xlink:href="espresso_8c.html#a919e9a8a992f43f0fd82e87f4d40d2d2" target="_top" xlink:title=" ">
<polygon fill="white" stroke="#666666" points="230,-123.25 133,-123.25 133,-104 230,-104 230,-123.25"/>
<text xml:space="preserve" text-anchor="middle" x="181.5" y="-109.75" font-family="Helvetica,sans-Serif" font-size="10.00">handle_client_read</text>
</a>
</g>
</g>
<!-- Node1&#45;&gt;Node8 -->
<g id="edge7_Node000001_Node000008" class="edge">
<title>Node1&#45;&gt;Node8</title>
<g id="a_edge7_Node000001_Node000008"><a xlink:title=" ">
<path fill="none" stroke="#63b8ff" d="M72.62,-160.57C93.29,-151.57 123.83,-138.28 147.15,-128.14"/>
<polygon fill="#63b8ff" stroke="#63b8ff" points="148.45,-131.39 156.22,-124.19 145.66,-124.97 148.45,-131.39"/>
</a>
</g>
</g>
<!-- Node5 -->
<g id="Node000005" class="node">
<title>Node5</title>
<g id="a_Node000005"><a xlink:href="espresso_8c.html#aaf78724518167158b66ec656312fabd2" target="_top" xlink:title=" ">
<polygon fill="white" stroke="#666666" points="636.5,-171.25 511,-171.25 511,-152 636.5,-152 636.5,-171.25"/>
<text xml:space="preserve" text-anchor="middle" x="573.75" y="-157.75" font-family="Helvetica,sans-Serif" font-size="10.00">handle_connection_close</text>
</a>
</g>
</g>
<!-- Node4&#45;&gt;Node5 -->
<g id="edge4_Node000004_Node000005" class="edge">
<title>Node4&#45;&gt;Node5</title>
<g id="a_edge4_Node000004_Node000005"><a xlink:title=" ">
<path fill="none" stroke="#63b8ff" d="M471.49,-161.62C480.27,-161.62 489.68,-161.62 499.1,-161.62"/>
<polygon fill="#63b8ff" stroke="#63b8ff" points="499.05,-165.13 509.05,-161.63 499.05,-158.13 499.05,-165.13"/>
</a>
</g>
</g>
<!-- Node6 -->
<g id="Node000006" class="node">
<title>Node6</title>
<g id="a_Node000006"><a xlink:href="espresso_8c.html#a1804ce3a25646fd9c6c6ad98d45c6efa" target="_top" xlink:title=" ">
<polygon fill="white" stroke="#666666" points="764.25,-189.25 672.5,-189.25 672.5,-170 764.25,-170 764.25,-189.25"/>
<text xml:space="preserve" text-anchor="middle" x="718.38" y="-175.75" font-family="Helvetica,sans-Serif" font-size="10.00">endpoint_cleanup</text>
</a>
</g>
</g>
<!-- Node5&#45;&gt;Node6 -->
<g id="edge5_Node000005_Node000006" class="edge">
<title>Node5&#45;&gt;Node6</title>
<g id="a_edge5_Node000005_Node000006"><a xlink:title=" ">
<path fill="none" stroke="#63b8ff" d="M636.89,-169.47C644.86,-170.47 652.99,-171.5 660.86,-172.49"/>
<polygon fill="#63b8ff" stroke="#63b8ff" points="660.3,-175.95 670.66,-173.73 661.18,-169.01 660.3,-175.95"/>
</a>
</g>
</g>
<!-- Node7 -->
<g id="Node000007" class="node">
<title>Node7</title>
<g id="a_Node000007"><a xlink:href="espresso_8c.html#a837cf67658f96fc262c83a4882f96f45" target="_top" xlink:title=" ">
<polygon fill="white" stroke="#666666" points="756.75,-152.25 680,-152.25 680,-133 756.75,-133 756.75,-152.25"/>
<text xml:space="preserve" text-anchor="middle" x="718.38" y="-138.75" font-family="Helvetica,sans-Serif" font-size="10.00">remove_client</text>
</a>
</g>
</g>
<!-- Node5&#45;&gt;Node7 -->
<g id="edge6_Node000005_Node000007" class="edge">
<title>Node5&#45;&gt;Node7</title>
<g id="a_edge6_Node000005_Node000007"><a xlink:title=" ">
<path fill="none" stroke="#63b8ff" d="M636.89,-153.35C647.47,-151.94 658.33,-150.49 668.5,-149.14"/>
<polygon fill="#63b8ff" stroke="#63b8ff" points="668.7,-152.64 678.15,-147.85 667.78,-145.7 668.7,-152.64"/>
</a>
</g>
</g>
<!-- Node9 -->
<g id="Node000009" class="node">
<title>Node9</title>
<g id="a_Node000009"><a xlink:href="espresso_8c.html#a2a7b96459e0adac1061eaec6a5722075" target="_top" xlink:title=" ">
<polygon fill="white" stroke="#666666" points="339.75,-114.25 266,-114.25 266,-95 339.75,-95 339.75,-114.25"/>
<text xml:space="preserve" text-anchor="middle" x="302.88" y="-100.75" font-family="Helvetica,sans-Serif" font-size="10.00">handle_buffer</text>
</a>
</g>
</g>
<!-- Node8&#45;&gt;Node9 -->
<g id="edge8_Node000008_Node000009" class="edge">
<title>Node8&#45;&gt;Node9</title>
<g id="a_edge8_Node000008_Node000009"><a xlink:title=" ">
<path fill="none" stroke="#63b8ff" d="M230.37,-110.02C238.3,-109.42 246.52,-108.8 254.44,-108.2"/>
<polygon fill="#63b8ff" stroke="#63b8ff" points="254.54,-111.7 264.25,-107.46 254.02,-104.72 254.54,-111.7"/>
</a>
</g>
</g>
<!-- Node9&#45;&gt;Node4 -->
<g id="edge9_Node000009_Node000004" class="edge">
<title>Node9&#45;&gt;Node4</title>
<g id="a_edge9_Node000009_Node000004"><a xlink:title=" ">
<path fill="none" stroke="#63b8ff" d="M325.14,-114.68C343.98,-123.6 371.74,-136.73 393.11,-146.84"/>
<polygon fill="#63b8ff" stroke="#63b8ff" points="391.42,-149.91 401.95,-151.02 394.41,-143.58 391.42,-149.91"/>
</a>
</g>
</g>
<!-- Node10 -->
<g id="Node000010" class="node">
<title>Node10</title>
<g id="a_Node000010"><a xlink:href="espresso_8c.html#aca61aa31ed57abce18d1d3cffd0d47e3" target="_top" xlink:title=" ">
<polygon fill="white" stroke="#666666" points="631.62,-133.25 515.88,-133.25 515.88,-114 631.62,-114 631.62,-133.25"/>
<text xml:space="preserve" text-anchor="middle" x="573.75" y="-119.75" font-family="Helvetica,sans-Serif" font-size="10.00">generate_allow_header</text>
</a>
</g>
</g>
<!-- Node9&#45;&gt;Node10 -->
<g id="edge10_Node000009_Node000010" class="edge">
<title>Node9&#45;&gt;Node10</title>
<g id="a_edge10_Node000009_Node000010"><a xlink:title=" ">
<path fill="none" stroke="#63b8ff" d="M340.14,-107.19C382.07,-110.15 452.02,-115.09 504.29,-118.79"/>
<polygon fill="#63b8ff" stroke="#63b8ff" points="503.76,-122.26 513.98,-119.47 504.25,-115.28 503.76,-122.26"/>
</a>
</g>
</g>
<!-- Node11 -->
<g id="Node000011" class="node">
<title>Node11</title>
<g id="a_Node000011"><a xlink:href="espresso_8c.html#a373b955efab67a13fdc71105c53aa5d5" target="_top" xlink:title="ONLY FOR UNIT TESTS.">
<polygon fill="white" stroke="#666666" points="468.62,-95.25 382.12,-95.25 382.12,-76 468.62,-76 468.62,-95.25"/>
<text xml:space="preserve" text-anchor="middle" x="425.38" y="-81.75" font-family="Helvetica,sans-Serif" font-size="10.00">handle_endpoint</text>
</a>
</g>
</g>
<!-- Node9&#45;&gt;Node11 -->
<g id="edge11_Node000009_Node000011" class="edge">
<title>Node9&#45;&gt;Node11</title>
<g id="a_edge11_Node000009_Node000011"><a xlink:title=" ">
<path fill="none" stroke="#63b8ff" d="M340.03,-98.92C349.7,-97.4 360.37,-95.72 370.76,-94.08"/>
<polygon fill="#63b8ff" stroke="#63b8ff" points="371.06,-97.58 380.39,-92.56 369.97,-90.66 371.06,-97.58"/>
</a>
</g>
</g>
<!-- Node17 -->
<g id="Node000017" class="node">
<title>Node17</title>
<g id="a_Node000017"><a xlink:href="espresso_8c.html#a142b429010a8046d339d36552bd20f7e" target="_top" xlink:title=" ">
<polygon fill="white" stroke="#666666" points="614.75,-22.25 532.75,-22.25 532.75,-3 614.75,-3 614.75,-22.25"/>
<text xml:space="preserve" text-anchor="middle" x="573.75" y="-8.75" font-family="Helvetica,sans-Serif" font-size="10.00">send_message</text>
</a>
</g>
</g>
<!-- Node9&#45;&gt;Node17 -->
<g id="edge22_Node000009_Node000017" class="edge">
<title>Node9&#45;&gt;Node17</title>
<g id="a_edge22_Node000009_Node000017"><a xlink:title=" ">
<path fill="none" stroke="#63b8ff" d="M320.23,-94.65C334.49,-86.28 355.93,-74.47 375.75,-66.62 423.72,-47.64 480.79,-32.79 521.12,-23.51"/>
<polygon fill="#63b8ff" stroke="#63b8ff" points="521.84,-26.94 530.82,-21.32 520.29,-20.11 521.84,-26.94"/>
</a>
</g>
</g>
<!-- Node19 -->
<g id="Node000019" class="node">
<title>Node19</title>
<g id="a_Node000019"><a xlink:href="espresso_8c.html#a8ddc375ff20a190089968e04405e0a70" target="_top" xlink:title="ONLY FOR UNIT TESTS.">
<polygon fill="white" stroke="#666666" points="475,-19.25 375.75,-19.25 375.75,0 475,0 475,-19.25"/>
<text xml:space="preserve" text-anchor="middle" x="425.38" y="-5.75" font-family="Helvetica,sans-Serif" font-size="10.00">parse_http_request</text>
</a>
</g>
</g>
<!-- Node9&#45;&gt;Node19 -->
<g id="edge20_Node000009_Node000019" class="edge">
<title>Node9&#45;&gt;Node19</title>
<g id="a_edge20_Node000009_Node000019"><a xlink:title=" ">
<path fill="none" stroke="#63b8ff" d="M311.9,-94.9C324.39,-80.22 349.75,-52.14 375.75,-33.62 380.21,-30.45 385.16,-27.47 390.14,-24.78"/>
<polygon fill="#63b8ff" stroke="#63b8ff" points="391.57,-27.97 398.91,-20.33 388.41,-21.73 391.57,-27.97"/>
</a>
</g>
</g>
<!-- Node11&#45;&gt;Node10 -->
<g id="edge13_Node000011_Node000010" class="edge">
<title>Node11&#45;&gt;Node10</title>
<g id="a_edge13_Node000011_Node000010"><a xlink:title=" ">
<path fill="none" stroke="#63b8ff" d="M465.22,-95.71C482.9,-100.3 504.05,-105.79 522.9,-110.68"/>
<polygon fill="#63b8ff" stroke="#63b8ff" points="521.96,-114.05 532.52,-113.18 523.72,-107.28 521.96,-114.05"/>
</a>
</g>
</g>
<!-- Node12 -->
<g id="Node000012" class="node">
<title>Node12</title>
<g id="a_Node000012"><a xlink:href="espresso_8c.html#a04c27c6493696fb67ab9b8f5296c14f1" target="_top" xlink:title="ONLY FOR UNIT TESTS.">
<polygon fill="white" stroke="#666666" points="615.12,-96.25 532.38,-96.25 532.38,-77 615.12,-77 615.12,-96.25"/>
<text xml:space="preserve" text-anchor="middle" x="573.75" y="-82.75" font-family="Helvetica,sans-Serif" font-size="10.00">compare_paths</text>
</a>
</g>
</g>
<!-- Node11&#45;&gt;Node12 -->
<g id="edge12_Node000011_Node000012" class="edge">
<title>Node11&#45;&gt;Node12</title>
<g id="a_edge12_Node000011_Node000012"><a xlink:title=" ">
<path fill="none" stroke="#63b8ff" d="M469.11,-85.92C485.29,-86.03 503.88,-86.15 520.82,-86.27"/>
<polygon fill="#63b8ff" stroke="#63b8ff" points="520.69,-89.77 530.71,-86.34 520.74,-82.77 520.69,-89.77"/>
</a>
</g>
</g>
<!-- Node13 -->
<g id="Node000013" class="node">
<title>Node13</title>
<g id="a_Node000013"><a xlink:href="espresso_8c.html#a260a9eca1b37d7151fd585fde9e355b8" target="_top" xlink:title="ONLY FOR UNIT TESTS.">
<polygon fill="white" stroke="#666666" points="626.75,-59.25 520.75,-59.25 520.75,-40 626.75,-40 626.75,-59.25"/>
<text xml:space="preserve" text-anchor="middle" x="573.75" y="-45.75" font-family="Helvetica,sans-Serif" font-size="10.00">parse_query_params</text>
</a>
</g>
</g>
<!-- Node11&#45;&gt;Node13 -->
<g id="edge14_Node000011_Node000013" class="edge">
<title>Node11&#45;&gt;Node13</title>
<g id="a_edge14_Node000011_Node000013"><a xlink:title=" ">
<path fill="none" stroke="#63b8ff" d="M467.54,-75.5C483.98,-71.46 503.1,-66.75 520.5,-62.47"/>
<polygon fill="#63b8ff" stroke="#63b8ff" points="521.3,-65.88 530.17,-60.1 519.63,-59.09 521.3,-65.88"/>
</a>
</g>
</g>
<!-- Node11&#45;&gt;Node17 -->
<g id="edge18_Node000011_Node000017" class="edge">
<title>Node11&#45;&gt;Node17</title>
<g id="a_edge18_Node000011_Node000017"><a xlink:title=" ">
<path fill="none" stroke="#63b8ff" d="M449.79,-75.54C458.01,-71.62 467.15,-66.82 475,-61.62 492.61,-49.97 492.44,-40.7 511,-30.62 514.44,-28.76 518.1,-27.06 521.85,-25.53"/>
<polygon fill="#63b8ff" stroke="#63b8ff" points="522.93,-28.86 531.13,-22.15 520.54,-22.28 522.93,-28.86"/>
</a>
</g>
</g>
<!-- Node14 -->
<g id="Node000014" class="node">
<title>Node14</title>
<g id="a_Node000014"><a xlink:href="espresso_8c.html#a2d9a0717a9389e6d178d0f4a8c2ef185" target="_top" xlink:title=" ">
<polygon fill="white" stroke="#666666" points="756.38,-59.25 680.38,-59.25 680.38,-40 756.38,-40 756.38,-59.25"/>
<text xml:space="preserve" text-anchor="middle" x="718.38" y="-45.75" font-family="Helvetica,sans-Serif" font-size="10.00">append_query</text>
</a>
</g>
</g>
<!-- Node13&#45;&gt;Node14 -->
<g id="edge15_Node000013_Node000014" class="edge">
<title>Node13&#45;&gt;Node14</title>
<g id="a_edge15_Node000013_Node000014"><a xlink:title=" ">
<path fill="none" stroke="#63b8ff" d="M627.05,-49.62C640.7,-49.62 655.35,-49.62 668.8,-49.62"/>
<polygon fill="#63b8ff" stroke="#63b8ff" points="668.74,-53.13 678.74,-49.63 668.74,-46.13 668.74,-53.13"/>
</a>
</g>
</g>
<!-- Node15 -->
<g id="Node000015" class="node">
<title>Node15</title>
<g id="a_Node000015"><a xlink:href="espresso_8c.html#a755a65a488e1158eee3fdab0ecada8fe" target="_top" xlink:title=" ">
<polygon fill="white" stroke="#666666" points="876.25,-59.25 800.25,-59.25 800.25,-40 876.25,-40 876.25,-59.25"/>
<text xml:space="preserve" text-anchor="middle" x="838.25" y="-45.75" font-family="Helvetica,sans-Serif" font-size="10.00">decode_query</text>
</a>
</g>
</g>
<!-- Node14&#45;&gt;Node15 -->
<g id="edge16_Node000014_Node000015" class="edge">
<title>Node14&#45;&gt;Node15</title>
<g id="a_edge16_Node000014_Node000015"><a xlink:title=" ">
<path fill="none" stroke="#63b8ff" d="M756.67,-49.62C766.78,-49.62 777.87,-49.62 788.5,-49.62"/>
<polygon fill="#63b8ff" stroke="#63b8ff" points="788.28,-53.13 798.28,-49.63 788.28,-46.13 788.28,-53.13"/>
</a>
</g>
</g>
<!-- Node16 -->
<g id="Node000016" class="node">
<title>Node16</title>
<g id="a_Node000016"><a xlink:href="espresso_8c.html#af4a5274d4719dec853dd32e1d8687553" target="_top" xlink:title=" ">
<polygon fill="white" stroke="#666666" points="972.5,-59.25 912.25,-59.25 912.25,-40 972.5,-40 972.5,-59.25"/>
<text xml:space="preserve" text-anchor="middle" x="942.38" y="-45.75" font-family="Helvetica,sans-Serif" font-size="10.00">hex_to_int</text>
</a>
</g>
</g>
<!-- Node15&#45;&gt;Node16 -->
<g id="edge17_Node000015_Node000016" class="edge">
<title>Node15&#45;&gt;Node16</title>
<g id="a_edge17_Node000015_Node000016"><a xlink:title=" ">
<path fill="none" stroke="#63b8ff" d="M876.7,-49.62C884.5,-49.62 892.76,-49.62 900.67,-49.62"/>
<polygon fill="#63b8ff" stroke="#63b8ff" points="900.41,-53.13 910.41,-49.63 900.41,-46.13 900.41,-53.13"/>
</a>
</g>
</g>
<!-- Node18 -->
<g id="Node000018" class="node">
<title>Node18</title>
<g id="a_Node000018"><a xlink:href="espresso_8c.html#a5fa30991ad104ba1fe0001e7aefe95ac" target="_top" xlink:title=" ">
<polygon fill="white" stroke="#666666" points="764.25,-22.25 672.5,-22.25 672.5,-3 764.25,-3 764.25,-22.25"/>
<text xml:space="preserve" text-anchor="middle" x="718.38" y="-8.75" font-family="Helvetica,sans-Serif" font-size="10.00">handle_write_end</text>
</a>
</g>
</g>
<!-- Node17&#45;&gt;Node18 -->
<g id="edge19_Node000017_Node000018" class="edge">
<title>Node17&#45;&gt;Node18</title>
<g id="a_edge19_Node000017_Node000018"><a xlink:title=" ">
<path fill="none" stroke="#63b8ff" d="M615.24,-12.62C629.35,-12.62 645.45,-12.62 660.64,-12.62"/>
<polygon fill="#63b8ff" stroke="#63b8ff" points="660.5,-16.13 670.5,-12.63 660.5,-9.13 660.5,-16.13"/>
</a>
</g>
</g>
<!-- Node19&#45;&gt;Node17 -->
<g id="edge21_Node000019_Node000017" class="edge">
<title>Node19&#45;&gt;Node17</title>
<g id="a_edge21_Node000019_Node000017"><a xlink:title=" ">
<path fill="none" stroke="#63b8ff" d="M475.12,-10.62C489.96,-10.93 506.32,-11.26 521.34,-11.57"/>
<polygon fill="#63b8ff" stroke="#63b8ff" points="520.93,-15.06 531,-11.77 521.07,-8.06 520.93,-15.06"/>
</a>
</g>
</g>
</g>
</svg>
