<?xml version="1.0" encoding="UTF-8" standalone="no"?>
<!DOCTYPE svg PUBLIC "-//W3C//DTD SVG 1.1//EN"
 "http://www.w3.org/Graphics/SVG/1.1/DTD/svg11.dtd">
<!-- Generated by graphviz version 14.0.5 (0)
 -->
<!-- Title: generate_allow_header Pages: 1 -->
<svg width="401pt" height="27pt"
 viewBox="0.00 0.00 401.00 27.00" xmlns="http://www.w3.org/2000/svg" xmlns:xlink="http://www.w3.org/1999/xlink">
<g id="graph0" class="graph" transform="scale(1 1) rotate(0) translate(4 23.25)">
<title>generate_allow_header</title>
<!-- Node1 -->
<g id="Node000001" class="node">
<title>Node1</title>
<g id="a_Node000001"><a xlink:title=" ">
<polygon fill="#999999" stroke="#666666" points="392.5,-19.25 276.75,-19.25 276.75,0 392.5,0 392.5,-19.25"/>
<text xml:space="preserve" text-anchor="middle" x="334.62" y="-5.75" font-family="Helvetica,sans-Serif" font-size="10.00">generate_allow_header</text>
</a>
</g>
</g>
<!-- Node2 -->
<g id="Node000002" class="node">
<title>Node2</title>
<g id="a_Node000002"><a xlink:href="espresso_8c.html#abf603e2df288bddb710c847ace1f772d" target="_top" xlink:title=" ">
<polygon fill="white" stroke="#666666" points="240.75,-19.25 169.25,-19.25 169.25,0 240.75,0 240.75,-19.25"/>
<text xml:space="preserve" text-anchor="middle" x="205" y="-5.75" font-family="Helvetica,sans-Serif" font-size="10.00">client_thread</text>
</a>
</g>
</g>
<!-- Node1&#45;&gt;Node2 -->
<g id="edge1_Node000001_Node000002" class="edge">
<title>Node1&#45;&gt;Node2</title>
<g id="a_edge1_Node000001_Node000002"><a xlink:title=" ">
<path fill="none" stroke="#63b8ff" d="M265.17,-9.62C256.84,-9.62 248.62,-9.62 241.08,-9.62"/>
<polygon fill="#63b8ff" stroke="#63b8ff" points="265.02,-13.13 275.02,-9.63 265.02,-6.13 265.02,-13.13"/>
</a>
</g>
</g>
<!-- Node3 -->
<g id="Node000003" class="node">
<title>Node3</title>
<g id="a_Node000003"><a xlink:href="espresso_8c.html#a0ba22157d15a70c4c22441b040bb0f74" target="_top" xlink:title="Starts the HTTP server loop.">
<polygon fill="white" stroke="#666666" points="133.25,-19.25 73,-19.25 73,0 133.25,0 133.25,-19.25"/>
<text xml:space="preserve" text-anchor="middle" x="103.12" y="-5.75" font-family="Helvetica,sans-Serif" font-size="10.00">app_listen</text>
</a>
</g>
</g>
<!-- Node2&#45;&gt;Node3 -->
<g id="edge2_Node000002_Node000003" class="edge">
<title>Node2&#45;&gt;Node3</title>
<g id="a_edge2_Node000002_Node000003"><a xlink:title=" ">
<path fill="none" stroke="#63b8ff" d="M157.52,-9.62C149.43,-9.62 141.21,-9.62 133.73,-9.62"/>
<polygon fill="#63b8ff" stroke="#63b8ff" points="157.27,-13.13 167.27,-9.63 157.27,-6.13 157.27,-13.13"/>
</a>
</g>
</g>
<!-- Node4 -->
<g id="Node000004" class="node">
<title>Node4</title>
<g id="a_Node000004"><a xlink:href="main_8c.html#ae66f6b31b5ad750f1fe042a706a4e3d4" target="_top" xlink:title=" ">
<polygon fill="white" stroke="#666666" points="37,-19.25 0,-19.25 0,0 37,0 37,-19.25"/>
<text xml:space="preserve" text-anchor="middle" x="18.5" y="-5.75" font-family="Helvetica,sans-Serif" font-size="10.00">main</text>
</a>
</g>
</g>
<!-- Node3&#45;&gt;Node4 -->
<g id="edge3_Node000003_Node000004" class="edge">
<title>Node3&#45;&gt;Node4</title>
<g id="a_edge3_Node000003_Node000004"><a xlink:title=" ">
<path fill="none" stroke="#63b8ff" d="M61.34,-9.62C52.86,-9.62 44.34,-9.62 37.23,-9.62"/>
<polygon fill="#63b8ff" stroke="#63b8ff" points="61.25,-13.13 71.25,-9.63 61.25,-6.13 61.25,-13.13"/>
</a>
</g>
</g>
</g>
</svg>
