<?xml version="1.0" encoding="UTF-8" standalone="no"?>
<!DOCTYPE svg PUBLIC "-//W3C//DTD SVG 1.1//EN"
 "http://www.w3.org/Graphics/SVG/1.1/DTD/svg11.dtd">
<!-- Generated by graphviz version 14.0.5 (0)
 -->
<!-- Title: app_listen Pages: 1 -->
<svg width="648pt" height="138pt"
 viewBox="0.00 0.00 648.00 138.00" xmlns="http://www.w3.org/2000/svg" xmlns:xlink="http://www.w3.org/1999/xlink">
<g id="graph0" class="graph" transform="scale(1 1) rotate(0) translate(4 134.25)">
<title>app_listen</title>
<!-- Node1 -->
<g id="Node000001" class="node">
<title>Node1</title>
<g id="a_Node000001"><a xlink:title="Starts the HTTP server loop.">
<polygon fill="#999999" stroke="#666666" points="60.25,-74.25 0,-74.25 0,-55 60.25,-55 60.25,-74.25"/>
<text xml:space="preserve" text-anchor="middle" x="30.12" y="-60.75" font-family="Helvetica,sans-Serif" font-size="10.00">app_listen</text>
</a>
</g>
</g>
<!-- Node2 -->
<g id="Node000002" class="node">
<title>Node2</title>
<g id="a_Node000002"><a xlink:href="espresso_8c.html#abf603e2df288bddb710c847ace1f772d" target="_top" xlink:title=" ">
<polygon fill="white" stroke="#666666" points="167.75,-74.25 96.25,-74.25 96.25,-55 167.75,-55 167.75,-74.25"/>
<text xml:space="preserve" text-anchor="middle" x="132" y="-60.75" font-family="Helvetica,sans-Serif" font-size="10.00">client_thread</text>
</a>
</g>
</g>
<!-- Node1&#45;&gt;Node2 -->
<g id="edge1_Node000001_Node000002" class="edge">
<title>Node1&#45;&gt;Node2</title>
<g id="a_edge1_Node000001_Node000002"><a xlink:title=" ">
<path fill="none" stroke="#63b8ff" d="M60.55,-64.62C68.06,-64.62 76.32,-64.62 84.45,-64.62"/>
<polygon fill="#63b8ff" stroke="#63b8ff" points="84.27,-68.13 94.27,-64.63 84.27,-61.13 84.27,-68.13"/>
</a>
</g>
</g>
<!-- Node3 -->
<g id="Node000003" class="node">
<title>Node3</title>
<g id="a_Node000003"><a xlink:href="espresso_8c.html#a04c27c6493696fb67ab9b8f5296c14f1" target="_top" xlink:title=" ">
<polygon fill="white" stroke="#666666" points="303,-130.25 220.25,-130.25 220.25,-111 303,-111 303,-130.25"/>
<text xml:space="preserve" text-anchor="middle" x="261.62" y="-116.75" font-family="Helvetica,sans-Serif" font-size="10.00">compare_paths</text>
</a>
</g>
</g>
<!-- Node2&#45;&gt;Node3 -->
<g id="edge2_Node000002_Node000003" class="edge">
<title>Node2&#45;&gt;Node3</title>
<g id="a_edge2_Node000002_Node000003"><a xlink:title=" ">
<path fill="none" stroke="#63b8ff" d="M149.44,-74.59C163.51,-82.84 184.48,-94.49 203.75,-102.62 207.29,-104.12 211,-105.56 214.76,-106.93"/>
<polygon fill="#63b8ff" stroke="#63b8ff" points="213.34,-110.14 223.93,-110.1 215.62,-103.53 213.34,-110.14"/>
</a>
</g>
</g>
<!-- Node4 -->
<g id="Node000004" class="node">
<title>Node4</title>
<g id="a_Node000004"><a xlink:href="espresso_8c.html#aca61aa31ed57abce18d1d3cffd0d47e3" target="_top" xlink:title=" ">
<polygon fill="white" stroke="#666666" points="319.5,-93.25 203.75,-93.25 203.75,-74 319.5,-74 319.5,-93.25"/>
<text xml:space="preserve" text-anchor="middle" x="261.62" y="-79.75" font-family="Helvetica,sans-Serif" font-size="10.00">generate_allow_header</text>
</a>
</g>
</g>
<!-- Node2&#45;&gt;Node4 -->
<g id="edge3_Node000002_Node000004" class="edge">
<title>Node2&#45;&gt;Node4</title>
<g id="a_edge3_Node000002_Node000004"><a xlink:title=" ">
<path fill="none" stroke="#63b8ff" d="M168.21,-69.87C175.72,-70.98 183.89,-72.2 192.17,-73.43"/>
<polygon fill="#63b8ff" stroke="#63b8ff" points="191.57,-76.88 201.97,-74.89 192.6,-69.96 191.57,-76.88"/>
</a>
</g>
</g>
<!-- Node5 -->
<g id="Node000005" class="node">
<title>Node5</title>
<g id="a_Node000005"><a xlink:href="espresso_8c.html#a1ab07f0a47159856d7446c79d306cd6b" target="_top" xlink:title="Parses an HTTP request string into a Request struct.">
<polygon fill="white" stroke="#666666" points="311.25,-56.25 212,-56.25 212,-37 311.25,-37 311.25,-56.25"/>
<text xml:space="preserve" text-anchor="middle" x="261.62" y="-42.75" font-family="Helvetica,sans-Serif" font-size="10.00">parse_http_request</text>
</a>
</g>
</g>
<!-- Node2&#45;&gt;Node5 -->
<g id="edge4_Node000002_Node000005" class="edge">
<title>Node2&#45;&gt;Node5</title>
<g id="a_edge4_Node000002_Node000005"><a xlink:title=" ">
<path fill="none" stroke="#63b8ff" d="M168.21,-59.66C178.18,-58.25 189.32,-56.68 200.32,-55.13"/>
<polygon fill="#63b8ff" stroke="#63b8ff" points="200.76,-58.6 210.18,-53.74 199.79,-51.67 200.76,-58.6"/>
</a>
</g>
</g>
<!-- Node6 -->
<g id="Node000006" class="node">
<title>Node6</title>
<g id="a_Node000006"><a xlink:href="espresso_8c.html#a260a9eca1b37d7151fd585fde9e355b8" target="_top" xlink:title=" ">
<polygon fill="white" stroke="#666666" points="314.62,-19.25 208.62,-19.25 208.62,0 314.62,0 314.62,-19.25"/>
<text xml:space="preserve" text-anchor="middle" x="261.62" y="-5.75" font-family="Helvetica,sans-Serif" font-size="10.00">parse_query_params</text>
</a>
</g>
</g>
<!-- Node2&#45;&gt;Node6 -->
<g id="edge5_Node000002_Node000006" class="edge">
<title>Node2&#45;&gt;Node6</title>
<g id="a_edge5_Node000002_Node000006"><a xlink:title=" ">
<path fill="none" stroke="#63b8ff" d="M150.04,-54.63C164.12,-46.64 184.81,-35.5 203.75,-27.62 207.3,-26.15 211.02,-24.72 214.78,-23.36"/>
<polygon fill="#63b8ff" stroke="#63b8ff" points="215.63,-26.77 223.96,-20.21 213.36,-20.15 215.63,-26.77"/>
</a>
</g>
</g>
<!-- Node7 -->
<g id="Node000007" class="node">
<title>Node7</title>
<g id="a_Node000007"><a xlink:href="espresso_8c.html#a2d9a0717a9389e6d178d0f4a8c2ef185" target="_top" xlink:title=" ">
<polygon fill="white" stroke="#666666" points="431.5,-19.25 355.5,-19.25 355.5,0 431.5,0 431.5,-19.25"/>
<text xml:space="preserve" text-anchor="middle" x="393.5" y="-5.75" font-family="Helvetica,sans-Serif" font-size="10.00">append_query</text>
</a>
</g>
</g>
<!-- Node6&#45;&gt;Node7 -->
<g id="edge6_Node000006_Node000007" class="edge">
<title>Node6&#45;&gt;Node7</title>
<g id="a_edge6_Node000006_Node000007"><a xlink:title=" ">
<path fill="none" stroke="#63b8ff" d="M315.08,-9.62C324.48,-9.62 334.25,-9.62 343.55,-9.62"/>
<polygon fill="#63b8ff" stroke="#63b8ff" points="343.51,-13.13 353.51,-9.63 343.51,-6.13 343.51,-13.13"/>
</a>
</g>
</g>
<!-- Node8 -->
<g id="Node000008" class="node">
<title>Node8</title>
<g id="a_Node000008"><a xlink:href="espresso_8c.html#a755a65a488e1158eee3fdab0ecada8fe" target="_top" xlink:title=" ">
<polygon fill="white" stroke="#666666" points="543.5,-19.25 467.5,-19.25 467.5,0 543.5,0 543.5,-19.25"/>
<text xml:space="preserve" text-anchor="middle" x="505.5" y="-5.75" font-family="Helvetica,sans-Serif" font-size="10.00">decode_query</text>
</a>
</g>
</g>
<!-- Node7&#45;&gt;Node8 -->
<g id="edge7_Node000007_Node000008" class="edge">
<title>Node7&#45;&gt;Node8</title>
<g id="a_edge7_Node000007_Node000008"><a xlink:title=" ">
<path fill="none" stroke="#63b8ff" d="M431.74,-9.62C439.54,-9.62 447.86,-9.62 456,-9.62"/>
<polygon fill="#63b8ff" stroke="#63b8ff" points="455.78,-13.13 465.78,-9.63 455.78,-6.13 455.78,-13.13"/>
</a>
</g>
</g>
<!-- Node9 -->
<g id="Node000009" class="node">
<title>Node9</title>
<g id="a_Node000009"><a xlink:href="espresso_8c.html#af4a5274d4719dec853dd32e1d8687553" target="_top" xlink:title=" ">
<polygon fill="white" stroke="#666666" points="639.75,-19.25 579.5,-19.25 579.5,0 639.75,0 639.75,-19.25"/>
<text xml:space="preserve" text-anchor="middle" x="609.62" y="-5.75" font-family="Helvetica,sans-Serif" font-size="10.00">hex_to_int</text>
</a>
</g>
</g>
<!-- Node8&#45;&gt;Node9 -->
<g id="edge8_Node000008_Node000009" class="edge">
<title>Node8&#45;&gt;Node9</title>
<g id="a_edge8_Node000008_Node000009"><a xlink:title=" ">
<path fill="none" stroke="#63b8ff" d="M543.95,-9.62C551.75,-9.62 560.01,-9.62 567.92,-9.62"/>
<polygon fill="#63b8ff" stroke="#63b8ff" points="567.66,-13.13 577.66,-9.63 567.66,-6.13 567.66,-13.13"/>
</a>
</g>
</g>
</g>
</svg>
