<?xml version="1.0" encoding="UTF-8" standalone="no"?>
<!DOCTYPE svg PUBLIC "-//W3C//DTD SVG 1.1//EN"
 "http://www.w3.org/Graphics/SVG/1.1/DTD/svg11.dtd">
<!-- Generated by graphviz version 14.0.5 (0)
 -->
<!-- Title: get_query Pages: 1 -->
<svg width="377pt" height="101pt"
 viewBox="0.00 0.00 377.00 101.00" xmlns="http://www.w3.org/2000/svg" xmlns:xlink="http://www.w3.org/1999/xlink">
<g id="graph0" class="graph" transform="scale(1 1) rotate(0) translate(4 97.25)">
<title>get_query</title>
<!-- Node1 -->
<g id="Node000001" class="node">
<title>Node1</title>
<g id="a_Node000001"><a xlink:title="Retrieve a query parameter as a void pointer.">
<polygon fill="#999999" stroke="#666666" points="368.5,-56.25 310.5,-56.25 310.5,-37 368.5,-37 368.5,-56.25"/>
<text xml:space="preserve" text-anchor="middle" x="339.5" y="-42.75" font-family="Helvetica,sans-Serif" font-size="10.00">get_query</text>
</a>
</g>
</g>
<!-- Node2 -->
<g id="Node000002" class="node">
<title>Node2</title>
<g id="a_Node000002"><a xlink:href="espresso_8c.html#a3e2f6f8d829c119c8ff0ec86a52489c6" target="_top" xlink:title="Retrieve a query parameter as a double.">
<polygon fill="white" stroke="#666666" points="274.5,-93.25 182.75,-93.25 182.75,-74 274.5,-74 274.5,-93.25"/>
<text xml:space="preserve" text-anchor="middle" x="228.62" y="-79.75" font-family="Helvetica,sans-Serif" font-size="10.00">get_query_double</text>
</a>
</g>
</g>
<!-- Node1&#45;&gt;Node2 -->
<g id="edge1_Node000001_Node000002" class="edge">
<title>Node1&#45;&gt;Node2</title>
<g id="a_edge1_Node000001_Node000002"><a xlink:title=" ">
<path fill="none" stroke="#63b8ff" d="M299.46,-59.89C286.24,-64.38 271.7,-69.33 259.33,-73.53"/>
<polygon fill="#63b8ff" stroke="#63b8ff" points="300.4,-63.27 308.75,-56.74 298.15,-56.64 300.4,-63.27"/>
</a>
</g>
</g>
<!-- Node3 -->
<g id="Node000003" class="node">
<title>Node3</title>
<g id="a_Node000003"><a xlink:href="espresso_8c.html#a1f688efce5fc202c8a84d80ada7e7d89" target="_top" xlink:title="Retrieve a query parameter as an integer.">
<polygon fill="white" stroke="#666666" points="265.5,-56.25 191.75,-56.25 191.75,-37 265.5,-37 265.5,-56.25"/>
<text xml:space="preserve" text-anchor="middle" x="228.62" y="-42.75" font-family="Helvetica,sans-Serif" font-size="10.00">get_query_int</text>
</a>
</g>
</g>
<!-- Node1&#45;&gt;Node3 -->
<g id="edge2_Node000001_Node000003" class="edge">
<title>Node1&#45;&gt;Node3</title>
<g id="a_edge2_Node000001_Node000003"><a xlink:title=" ">
<path fill="none" stroke="#63b8ff" d="M298.82,-46.62C287.96,-46.62 276.26,-46.62 265.62,-46.62"/>
<polygon fill="#63b8ff" stroke="#63b8ff" points="298.67,-50.13 308.67,-46.63 298.67,-43.13 298.67,-50.13"/>
</a>
</g>
</g>
<!-- Node4 -->
<g id="Node000004" class="node">
<title>Node4</title>
<g id="a_Node000004"><a xlink:href="espresso_8c.html#a5afa98a10b7b10f4021fa67400d39f31" target="_top" xlink:title="Retrieve a query parameter as string from the URL.">
<polygon fill="white" stroke="#666666" points="272.25,-19.25 185,-19.25 185,0 272.25,0 272.25,-19.25"/>
<text xml:space="preserve" text-anchor="middle" x="228.62" y="-5.75" font-family="Helvetica,sans-Serif" font-size="10.00">get_query_string</text>
</a>
</g>
</g>
<!-- Node1&#45;&gt;Node4 -->
<g id="edge3_Node000001_Node000004" class="edge">
<title>Node1&#45;&gt;Node4</title>
<g id="a_edge3_Node000001_Node000004"><a xlink:title=" ">
<path fill="none" stroke="#63b8ff" d="M299.46,-33.36C286.24,-28.87 271.7,-23.92 259.33,-19.72"/>
<polygon fill="#63b8ff" stroke="#63b8ff" points="298.15,-36.61 308.75,-36.51 300.4,-29.98 298.15,-36.61"/>
</a>
</g>
</g>
<!-- Node5 -->
<g id="Node000005" class="node">
<title>Node5</title>
<g id="a_Node000005"><a xlink:href="main_8c.html#a3567783714153d35ee83fd6de55968d1" target="_top" xlink:title=" ">
<polygon fill="white" stroke="#666666" points="146.75,-19.25 73,-19.25 73,0 146.75,0 146.75,-19.25"/>
<text xml:space="preserve" text-anchor="middle" x="109.88" y="-5.75" font-family="Helvetica,sans-Serif" font-size="10.00">echo_handler</text>
</a>
</g>
</g>
<!-- Node4&#45;&gt;Node5 -->
<g id="edge4_Node000004_Node000005" class="edge">
<title>Node4&#45;&gt;Node5</title>
<g id="a_edge4_Node000004_Node000005"><a xlink:title=" ">
<path fill="none" stroke="#63b8ff" d="M173.3,-9.62C164.44,-9.62 155.45,-9.62 147.15,-9.62"/>
<polygon fill="#63b8ff" stroke="#63b8ff" points="173.3,-13.13 183.3,-9.63 173.3,-6.13 173.3,-13.13"/>
</a>
</g>
</g>
<!-- Node6 -->
<g id="Node000006" class="node">
<title>Node6</title>
<g id="a_Node000006"><a xlink:href="main_8c.html#ae66f6b31b5ad750f1fe042a706a4e3d4" target="_top" xlink:title=" ">
<polygon fill="white" stroke="#666666" points="37,-19.25 0,-19.25 0,0 37,0 37,-19.25"/>
<text xml:space="preserve" text-anchor="middle" x="18.5" y="-5.75" font-family="Helvetica,sans-Serif" font-size="10.00">main</text>
</a>
</g>
</g>
<!-- Node5&#45;&gt;Node6 -->
<g id="edge5_Node000005_Node000006" class="edge">
<title>Node5&#45;&gt;Node6</title>
<g id="a_edge5_Node000005_Node000006"><a xlink:title=" ">
<path fill="none" stroke="#63b8ff" d="M61.26,-9.62C52.67,-9.62 44.23,-9.62 37.21,-9.62"/>
<polygon fill="#63b8ff" stroke="#63b8ff" points="61.01,-13.13 71.01,-9.63 61.01,-6.13 61.01,-13.13"/>
</a>
</g>
</g>
</g>
</svg>
