<?xml version="1.0" encoding="UTF-8" standalone="no"?>
<!DOCTYPE svg PUBLIC "-//W3C//DTD SVG 1.1//EN"
 "http://www.w3.org/Graphics/SVG/1.1/DTD/svg11.dtd">
<!-- Generated by graphviz version 14.0.5 (0)
 -->
<!-- Title: send_text_response Pages: 1 -->
<svg width="295pt" height="64pt"
 viewBox="0.00 0.00 295.00 64.00" xmlns="http://www.w3.org/2000/svg" xmlns:xlink="http://www.w3.org/1999/xlink">
<g id="graph0" class="graph" transform="scale(1 1) rotate(0) translate(4 60.25)">
<title>send_text_response</title>
<!-- Node1 -->
<g id="Node000001" class="node">
<title>Node1</title>
<g id="a_Node000001"><a xlink:title="Sends text response.">
<polygon fill="#999999" stroke="#666666" points="287.25,-37.25 184.25,-37.25 184.25,-18 287.25,-18 287.25,-37.25"/>
<text xml:space="preserve" text-anchor="middle" x="235.75" y="-23.75" font-family="Helvetica,sans-Serif" font-size="10.00">send_text_response</text>
</a>
</g>
</g>
<!-- Node2 -->
<g id="Node000002" class="node">
<title>Node2</title>
<g id="a_Node000002"><a xlink:href="main_8c.html#a3567783714153d35ee83fd6de55968d1" target="_top" xlink:title=" ">
<polygon fill="white" stroke="#666666" points="147.5,-56.25 73.75,-56.25 73.75,-37 147.5,-37 147.5,-56.25"/>
<text xml:space="preserve" text-anchor="middle" x="110.62" y="-42.75" font-family="Helvetica,sans-Serif" font-size="10.00">echo_handler</text>
</a>
</g>
</g>
<!-- Node1&#45;&gt;Node2 -->
<g id="edge1_Node000001_Node000002" class="edge">
<title>Node1&#45;&gt;Node2</title>
<g id="a_edge1_Node000001_Node000002"><a xlink:title=" ">
<path fill="none" stroke="#63b8ff" d="M172.71,-37.2C164.12,-38.52 155.54,-39.85 147.64,-41.07"/>
<polygon fill="#63b8ff" stroke="#63b8ff" points="173.11,-40.68 182.46,-35.69 172.05,-33.76 173.11,-40.68"/>
</a>
</g>
</g>
<!-- Node4 -->
<g id="Node000004" class="node">
<title>Node4</title>
<g id="a_Node000004"><a xlink:href="main_8c.html#a036dbf8db2f30bf4fb436fcc8ea138c7" target="_top" xlink:title=" ">
<polygon fill="white" stroke="#666666" points="148.25,-19.25 73,-19.25 73,0 148.25,0 148.25,-19.25"/>
<text xml:space="preserve" text-anchor="middle" x="110.62" y="-5.75" font-family="Helvetica,sans-Serif" font-size="10.00">index_handler</text>
</a>
</g>
</g>
<!-- Node1&#45;&gt;Node4 -->
<g id="edge3_Node000001_Node000004" class="edge">
<title>Node1&#45;&gt;Node4</title>
<g id="a_edge3_Node000001_Node000004"><a xlink:title=" ">
<path fill="none" stroke="#63b8ff" d="M172.67,-18.55C164.36,-17.34 156.06,-16.12 148.38,-15"/>
<polygon fill="#63b8ff" stroke="#63b8ff" points="172.06,-22 182.46,-19.98 173.07,-15.07 172.06,-22"/>
</a>
</g>
</g>
<!-- Node3 -->
<g id="Node000003" class="node">
<title>Node3</title>
<g id="a_Node000003"><a xlink:href="main_8c.html#ae66f6b31b5ad750f1fe042a706a4e3d4" target="_top" xlink:title=" ">
<polygon fill="white" stroke="#666666" points="37,-37.25 0,-37.25 0,-18 37,-18 37,-37.25"/>
<text xml:space="preserve" text-anchor="middle" x="18.5" y="-23.75" font-family="Helvetica,sans-Serif" font-size="10.00">main</text>
</a>
</g>
</g>
<!-- Node2&#45;&gt;Node3 -->
<g id="edge2_Node000002_Node000003" class="edge">
<title>Node2&#45;&gt;Node3</title>
<g id="a_edge2_Node000002_Node000003"><a xlink:title=" ">
<path fill="none" stroke="#63b8ff" d="M62.47,-36.68C53.41,-34.77 44.46,-32.89 37.09,-31.33"/>
<polygon fill="#63b8ff" stroke="#63b8ff" points="61.5,-40.06 72.01,-38.69 62.94,-33.21 61.5,-40.06"/>
</a>
</g>
</g>
<!-- Node4&#45;&gt;Node3 -->
<g id="edge4_Node000004_Node000003" class="edge">
<title>Node4&#45;&gt;Node3</title>
<g id="a_edge4_Node000004_Node000003"><a xlink:title=" ">
<path fill="none" stroke="#63b8ff" d="M61.68,-19.2C52.95,-20.94 44.37,-22.66 37.25,-24.08"/>
<polygon fill="#63b8ff" stroke="#63b8ff" points="62.1,-22.69 71.22,-17.29 60.73,-15.82 62.1,-22.69"/>
</a>
</g>
</g>
</g>
</svg>
