<?xml version="1.0" encoding="UTF-8" standalone="no"?>
<!DOCTYPE svg PUBLIC "-//W3C//DTD SVG 1.1//EN"
 "http://www.w3.org/Graphics/SVG/1.1/DTD/svg11.dtd">
<!-- Generated by graphviz version 14.0.5 (0)
 -->
<!-- Title: handle_endpoint Pages: 1 -->
<svg width="582pt" height="138pt"
 viewBox="0.00 0.00 582.00 138.00" xmlns="http://www.w3.org/2000/svg" xmlns:xlink="http://www.w3.org/1999/xlink">
<g id="graph0" class="graph" transform="scale(1 1) rotate(0) translate(4 134.25)">
<title>handle_endpoint</title>
<!-- Node1 -->
<g id="Node000001" class="node">
<title>Node1</title>
<g id="a_Node000001"><a xlink:title="ONLY FOR UNIT TESTS.">
<polygon fill="#999999" stroke="#666666" points="86.5,-74.25 0,-74.25 0,-55 86.5,-55 86.5,-74.25"/>
<text xml:space="preserve" text-anchor="middle" x="43.25" y="-60.75" font-family="Helvetica,sans-Serif" font-size="10.00">handle_endpoint</text>
</a>
</g>
</g>
<!-- Node2 -->
<g id="Node000002" class="node">
<title>Node2</title>
<g id="a_Node000002"><a xlink:href="espresso_8c.html#a04c27c6493696fb67ab9b8f5296c14f1" target="_top" xlink:title="ONLY FOR UNIT TESTS.">
<polygon fill="white" stroke="#666666" points="221.75,-130.25 139,-130.25 139,-111 221.75,-111 221.75,-130.25"/>
<text xml:space="preserve" text-anchor="middle" x="180.38" y="-116.75" font-family="Helvetica,sans-Serif" font-size="10.00">compare_paths</text>
</a>
</g>
</g>
<!-- Node1&#45;&gt;Node2 -->
<g id="edge1_Node000001_Node000002" class="edge">
<title>Node1&#45;&gt;Node2</title>
<g id="a_edge1_Node000001_Node000002"><a xlink:title=" ">
<path fill="none" stroke="#63b8ff" d="M62.88,-74.62C78.52,-82.79 101.6,-94.29 122.5,-102.62 126.28,-104.13 130.24,-105.6 134.24,-107.01"/>
<polygon fill="#63b8ff" stroke="#63b8ff" points="132.78,-110.21 143.37,-110.09 135.01,-103.57 132.78,-110.21"/>
</a>
</g>
</g>
<!-- Node3 -->
<g id="Node000003" class="node">
<title>Node3</title>
<g id="a_Node000003"><a xlink:href="espresso_8c.html#aca61aa31ed57abce18d1d3cffd0d47e3" target="_top" xlink:title=" ">
<polygon fill="white" stroke="#666666" points="238.25,-93.25 122.5,-93.25 122.5,-74 238.25,-74 238.25,-93.25"/>
<text xml:space="preserve" text-anchor="middle" x="180.38" y="-79.75" font-family="Helvetica,sans-Serif" font-size="10.00">generate_allow_header</text>
</a>
</g>
</g>
<!-- Node1&#45;&gt;Node3 -->
<g id="edge2_Node000001_Node000003" class="edge">
<title>Node1&#45;&gt;Node3</title>
<g id="a_edge2_Node000001_Node000003"><a xlink:title=" ">
<path fill="none" stroke="#63b8ff" d="M86.63,-70.58C94.4,-71.68 102.69,-72.84 110.99,-74.01"/>
<polygon fill="#63b8ff" stroke="#63b8ff" points="110.39,-77.46 120.78,-75.39 111.37,-70.53 110.39,-77.46"/>
</a>
</g>
</g>
<!-- Node4 -->
<g id="Node000004" class="node">
<title>Node4</title>
<g id="a_Node000004"><a xlink:href="espresso_8c.html#a260a9eca1b37d7151fd585fde9e355b8" target="_top" xlink:title="ONLY FOR UNIT TESTS.">
<polygon fill="white" stroke="#666666" points="233.38,-56.25 127.38,-56.25 127.38,-37 233.38,-37 233.38,-56.25"/>
<text xml:space="preserve" text-anchor="middle" x="180.38" y="-42.75" font-family="Helvetica,sans-Serif" font-size="10.00">parse_query_params</text>
</a>
</g>
</g>
<!-- Node1&#45;&gt;Node4 -->
<g id="edge3_Node000001_Node000004" class="edge">
<title>Node1&#45;&gt;Node4</title>
<g id="a_edge3_Node000001_Node000004"><a xlink:title=" ">
<path fill="none" stroke="#63b8ff" d="M86.63,-58.98C95.97,-57.74 106.05,-56.39 116.01,-55.07"/>
<polygon fill="#63b8ff" stroke="#63b8ff" points="116.21,-58.57 125.66,-53.78 115.29,-51.63 116.21,-58.57"/>
</a>
</g>
</g>
<!-- Node8 -->
<g id="Node000008" class="node">
<title>Node8</title>
<g id="a_Node000008"><a xlink:href="espresso_8c.html#a142b429010a8046d339d36552bd20f7e" target="_top" xlink:title=" ">
<polygon fill="white" stroke="#666666" points="221.38,-19.25 139.38,-19.25 139.38,0 221.38,0 221.38,-19.25"/>
<text xml:space="preserve" text-anchor="middle" x="180.38" y="-5.75" font-family="Helvetica,sans-Serif" font-size="10.00">send_message</text>
</a>
</g>
</g>
<!-- Node1&#45;&gt;Node8 -->
<g id="edge7_Node000001_Node000008" class="edge">
<title>Node1&#45;&gt;Node8</title>
<g id="a_edge7_Node000001_Node000008"><a xlink:title=" ">
<path fill="none" stroke="#63b8ff" d="M63.54,-54.6C79.19,-46.7 101.94,-35.7 122.5,-27.62 126.29,-26.14 130.26,-24.68 134.26,-23.28"/>
<polygon fill="#63b8ff" stroke="#63b8ff" points="135.03,-26.72 143.39,-20.22 132.8,-20.08 135.03,-26.72"/>
</a>
</g>
</g>
<!-- Node5 -->
<g id="Node000005" class="node">
<title>Node5</title>
<g id="a_Node000005"><a xlink:href="espresso_8c.html#a2d9a0717a9389e6d178d0f4a8c2ef185" target="_top" xlink:title=" ">
<polygon fill="white" stroke="#666666" points="358.12,-56.25 282.12,-56.25 282.12,-37 358.12,-37 358.12,-56.25"/>
<text xml:space="preserve" text-anchor="middle" x="320.12" y="-42.75" font-family="Helvetica,sans-Serif" font-size="10.00">append_query</text>
</a>
</g>
</g>
<!-- Node4&#45;&gt;Node5 -->
<g id="edge4_Node000004_Node000005" class="edge">
<title>Node4&#45;&gt;Node5</title>
<g id="a_edge4_Node000004_Node000005"><a xlink:title=" ">
<path fill="none" stroke="#63b8ff" d="M233.85,-46.62C245.82,-46.62 258.5,-46.62 270.31,-46.62"/>
<polygon fill="#63b8ff" stroke="#63b8ff" points="270.27,-50.13 280.27,-46.63 270.27,-43.13 270.27,-50.13"/>
</a>
</g>
</g>
<!-- Node6 -->
<g id="Node000006" class="node">
<title>Node6</title>
<g id="a_Node000006"><a xlink:href="espresso_8c.html#a755a65a488e1158eee3fdab0ecada8fe" target="_top" xlink:title=" ">
<polygon fill="white" stroke="#666666" points="478,-56.25 402,-56.25 402,-37 478,-37 478,-56.25"/>
<text xml:space="preserve" text-anchor="middle" x="440" y="-42.75" font-family="Helvetica,sans-Serif" font-size="10.00">decode_query</text>
</a>
</g>
</g>
<!-- Node5&#45;&gt;Node6 -->
<g id="edge5_Node000005_Node000006" class="edge">
<title>Node5&#45;&gt;Node6</title>
<g id="a_edge5_Node000005_Node000006"><a xlink:title=" ">
<path fill="none" stroke="#63b8ff" d="M358.42,-46.62C368.53,-46.62 379.62,-46.62 390.25,-46.62"/>
<polygon fill="#63b8ff" stroke="#63b8ff" points="390.03,-50.13 400.03,-46.63 390.03,-43.13 390.03,-50.13"/>
</a>
</g>
</g>
<!-- Node7 -->
<g id="Node000007" class="node">
<title>Node7</title>
<g id="a_Node000007"><a xlink:href="espresso_8c.html#af4a5274d4719dec853dd32e1d8687553" target="_top" xlink:title=" ">
<polygon fill="white" stroke="#666666" points="574.25,-56.25 514,-56.25 514,-37 574.25,-37 574.25,-56.25"/>
<text xml:space="preserve" text-anchor="middle" x="544.12" y="-42.75" font-family="Helvetica,sans-Serif" font-size="10.00">hex_to_int</text>
</a>
</g>
</g>
<!-- Node6&#45;&gt;Node7 -->
<g id="edge6_Node000006_Node000007" class="edge">
<title>Node6&#45;&gt;Node7</title>
<g id="a_edge6_Node000006_Node000007"><a xlink:title=" ">
<path fill="none" stroke="#63b8ff" d="M478.45,-46.62C486.25,-46.62 494.51,-46.62 502.42,-46.62"/>
<polygon fill="#63b8ff" stroke="#63b8ff" points="502.16,-50.13 512.16,-46.63 502.16,-43.13 502.16,-50.13"/>
</a>
</g>
</g>
<!-- Node9 -->
<g id="Node000009" class="node">
<title>Node9</title>
<g id="a_Node000009"><a xlink:href="espresso_8c.html#a5fa30991ad104ba1fe0001e7aefe95ac" target="_top" xlink:title=" ">
<polygon fill="white" stroke="#666666" points="366,-19.25 274.25,-19.25 274.25,0 366,0 366,-19.25"/>
<text xml:space="preserve" text-anchor="middle" x="320.12" y="-5.75" font-family="Helvetica,sans-Serif" font-size="10.00">handle_write_end</text>
</a>
</g>
</g>
<!-- Node8&#45;&gt;Node9 -->
<g id="edge8_Node000008_Node000009" class="edge">
<title>Node8&#45;&gt;Node9</title>
<g id="a_edge8_Node000008_Node000009"><a xlink:title=" ">
<path fill="none" stroke="#63b8ff" d="M221.59,-9.62C234.37,-9.62 248.75,-9.62 262.47,-9.62"/>
<polygon fill="#63b8ff" stroke="#63b8ff" points="262.27,-13.13 272.27,-9.63 262.27,-6.13 262.27,-13.13"/>
</a>
</g>
</g>
</g>
</svg>
