<?xml version="1.0" encoding="UTF-8" standalone="no"?>
<!DOCTYPE svg PUBLIC "-//W3C//DTD SVG 1.1//EN"
 "http://www.w3.org/Graphics/SVG/1.1/DTD/svg11.dtd">
<!-- Generated by graphviz version 14.0.5 (0)
 -->
<!-- Title: espresso.c Pages: 1 -->
<svg width="817pt" height="193pt"
 viewBox="0.00 0.00 817.00 193.00" xmlns="http://www.w3.org/2000/svg" xmlns:xlink="http://www.w3.org/1999/xlink">
<g id="graph0" class="graph" transform="scale(1 1) rotate(0) translate(4 189)">
<title>espresso.c</title>
<!-- Node1 -->
<g id="Node000001" class="node">
<title>Node1</title>
<g id="a_Node000001"><a xlink:title=" ">
<polygon fill="#999999" stroke="#666666" points="475.5,-185 412.25,-185 412.25,-165.75 475.5,-165.75 475.5,-185"/>
<text xml:space="preserve" text-anchor="middle" x="443.88" y="-171.5" font-family="Helvetica,sans-Serif" font-size="10.00">espresso.c</text>
</a>
</g>
</g>
<!-- Node2 -->
<g id="Node000002" class="node">
<title>Node2</title>
<g id="a_Node000002"><a xlink:title=" ">
<polygon fill="#e0e0e0" stroke="#999999" points="280.25,-129.75 227.5,-129.75 227.5,-110.5 280.25,-110.5 280.25,-129.75"/>
<text xml:space="preserve" text-anchor="middle" x="253.88" y="-116.25" font-family="Helvetica,sans-Serif" font-size="10.00">strings.h</text>
</a>
</g>
</g>
<!-- Node1&#45;&gt;Node2 -->
<g id="edge1_Node000001_Node000002" class="edge">
<title>Node1&#45;&gt;Node2</title>
<g id="a_edge1_Node000001_Node000002"><a xlink:title=" ">
<path fill="none" stroke="#63b8ff" d="M412.07,-165.46C378.8,-156.14 326.61,-141.51 291.36,-131.63"/>
<polygon fill="#63b8ff" stroke="#63b8ff" points="292.59,-128.34 282.01,-129.01 290.7,-135.08 292.59,-128.34"/>
</a>
</g>
</g>
<!-- Node3 -->
<g id="Node000003" class="node">
<title>Node3</title>
<g id="a_Node000003"><a xlink:title=" ">
<polygon fill="#e0e0e0" stroke="#999999" points="49.75,-74.5 0,-74.5 0,-55.25 49.75,-55.25 49.75,-74.5"/>
<text xml:space="preserve" text-anchor="middle" x="24.88" y="-61" font-family="Helvetica,sans-Serif" font-size="10.00">unistd.h</text>
</a>
</g>
</g>
<!-- Node1&#45;&gt;Node3 -->
<g id="edge2_Node000001_Node000003" class="edge">
<title>Node1&#45;&gt;Node3</title>
<g id="a_edge2_Node000001_Node000003"><a xlink:title=" ">
<path fill="none" stroke="#63b8ff" d="M414.69,-165.32C389.6,-157.16 352.7,-144.24 321.88,-129.75 306.51,-122.53 304.87,-116.19 288.88,-110.5 194.72,-77.02 162.45,-93.98 61.09,-74.73"/>
<polygon fill="#63b8ff" stroke="#63b8ff" points="62.04,-71.35 51.55,-72.84 60.68,-78.21 62.04,-71.35"/>
</a>
</g>
</g>
<!-- Node4 -->
<g id="Node000004" class="node">
<title>Node4</title>
<g id="a_Node000004"><a xlink:href="cJSON_8h.html" target="_top" xlink:title=" ">
<polygon fill="white" stroke="#666666" points="198.25,-74.5 67.5,-74.5 67.5,-55.25 198.25,-55.25 198.25,-74.5"/>
<text xml:space="preserve" text-anchor="middle" x="132.88" y="-61" font-family="Helvetica,sans-Serif" font-size="10.00">../vendor/cJSON/cJSON.h</text>
</a>
</g>
</g>
<!-- Node1&#45;&gt;Node4 -->
<g id="edge3_Node000001_Node000004" class="edge">
<title>Node1&#45;&gt;Node4</title>
<g id="a_edge3_Node000001_Node000004"><a xlink:title=" ">
<path fill="none" stroke="#63b8ff" d="M426.83,-165.31C394.57,-148.16 327.31,-112.53 321.88,-110.5 281.94,-95.6 235.36,-84.53 198.43,-77.15"/>
<polygon fill="#63b8ff" stroke="#63b8ff" points="199.27,-73.75 188.78,-75.26 197.93,-80.62 199.27,-73.75"/>
</a>
</g>
</g>
<!-- Node6 -->
<g id="Node000006" class="node">
<title>Node6</title>
<g id="a_Node000006"><a xlink:href="espresso_8h.html" target="_top" xlink:title="Espresso &#45; lightweight Express&#45;like HTTP framework for C.">
<polygon fill="white" stroke="#666666" points="475.5,-129.75 412.25,-129.75 412.25,-110.5 475.5,-110.5 475.5,-129.75"/>
<text xml:space="preserve" text-anchor="middle" x="443.88" y="-116.25" font-family="Helvetica,sans-Serif" font-size="10.00">espresso.h</text>
</a>
</g>
</g>
<!-- Node1&#45;&gt;Node6 -->
<g id="edge5_Node000001_Node000006" class="edge">
<title>Node1&#45;&gt;Node6</title>
<g id="a_edge5_Node000001_Node000006"><a xlink:title=" ">
<path fill="none" stroke="#63b8ff" d="M443.88,-165.58C443.88,-159.07 443.88,-149.92 443.88,-141.62"/>
<polygon fill="#63b8ff" stroke="#63b8ff" points="447.38,-141.62 443.88,-131.62 440.38,-141.62 447.38,-141.62"/>
</a>
</g>
</g>
<!-- Node8 -->
<g id="Node000008" class="node">
<title>Node8</title>
<g id="a_Node000008"><a xlink:title=" ">
<polygon fill="#e0e0e0" stroke="#999999" points="263.25,-74.5 216.5,-74.5 216.5,-55.25 263.25,-55.25 263.25,-74.5"/>
<text xml:space="preserve" text-anchor="middle" x="239.88" y="-61" font-family="Helvetica,sans-Serif" font-size="10.00">ctype.h</text>
</a>
</g>
</g>
<!-- Node1&#45;&gt;Node8 -->
<g id="edge17_Node000001_Node000008" class="edge">
<title>Node1&#45;&gt;Node8</title>
<g id="a_edge17_Node000001_Node000008"><a xlink:title=" ">
<path fill="none" stroke="#63b8ff" d="M434.2,-165.48C419.22,-152.08 389.09,-126.58 359.88,-110.5 332.47,-95.42 298.94,-83.44 274.29,-75.7"/>
<polygon fill="#63b8ff" stroke="#63b8ff" points="275.35,-72.36 264.76,-72.79 273.3,-79.06 275.35,-72.36"/>
</a>
</g>
</g>
<!-- Node12 -->
<g id="Node000012" class="node">
<title>Node12</title>
<g id="a_Node000012"><a xlink:title=" ">
<polygon fill="#e0e0e0" stroke="#999999" points="692.12,-74.5 647.62,-74.5 647.62,-55.25 692.12,-55.25 692.12,-74.5"/>
<text xml:space="preserve" text-anchor="middle" x="669.88" y="-61" font-family="Helvetica,sans-Serif" font-size="10.00">stdio.h</text>
</a>
</g>
</g>
<!-- Node1&#45;&gt;Node12 -->
<g id="edge19_Node000001_Node000012" class="edge">
<title>Node1&#45;&gt;Node12</title>
<g id="a_edge19_Node000001_Node000012"><a xlink:title=" ">
<path fill="none" stroke="#63b8ff" d="M453.45,-165.29C468.3,-151.64 498.26,-125.82 527.88,-110.5 537.67,-105.44 597.51,-87.29 636.32,-75.76"/>
<polygon fill="#63b8ff" stroke="#63b8ff" points="637.08,-79.18 645.68,-72.99 635.09,-72.47 637.08,-79.18"/>
</a>
</g>
</g>
<!-- Node13 -->
<g id="Node000013" class="node">
<title>Node13</title>
<g id="a_Node000013"><a xlink:title=" ">
<polygon fill="#e0e0e0" stroke="#999999" points="757.25,-74.5 710.5,-74.5 710.5,-55.25 757.25,-55.25 757.25,-74.5"/>
<text xml:space="preserve" text-anchor="middle" x="733.88" y="-61" font-family="Helvetica,sans-Serif" font-size="10.00">stdlib.h</text>
</a>
</g>
</g>
<!-- Node1&#45;&gt;Node13 -->
<g id="edge20_Node000001_Node000013" class="edge">
<title>Node1&#45;&gt;Node13</title>
<g id="a_edge20_Node000001_Node000013"><a xlink:title=" ">
<path fill="none" stroke="#63b8ff" d="M460.45,-165.43C491.24,-148.86 555.12,-114.68 565.88,-110.5 569.04,-109.27 650.87,-87.69 699.13,-75"/>
<polygon fill="#63b8ff" stroke="#63b8ff" points="699.79,-78.45 708.57,-72.52 698.01,-71.68 699.79,-78.45"/>
</a>
</g>
</g>
<!-- Node15 -->
<g id="Node000015" class="node">
<title>Node15</title>
<g id="a_Node000015"><a xlink:title=" ">
<polygon fill="#e0e0e0" stroke="#999999" points="808.88,-74.5 774.88,-74.5 774.88,-55.25 808.88,-55.25 808.88,-74.5"/>
<text xml:space="preserve" text-anchor="middle" x="791.88" y="-61" font-family="Helvetica,sans-Serif" font-size="10.00">uv.h</text>
</a>
</g>
</g>
<!-- Node1&#45;&gt;Node15 -->
<g id="edge21_Node000001_Node000015" class="edge">
<title>Node1&#45;&gt;Node15</title>
<g id="a_edge21_Node000001_Node000015"><a xlink:title=" ">
<path fill="none" stroke="#63b8ff" d="M470.48,-165.33C494.64,-156.87 531.09,-143.52 561.88,-129.75 578.8,-122.18 581.44,-116.79 598.88,-110.5 667.09,-85.91 690.52,-93.68 763.91,-74.75"/>
<polygon fill="#63b8ff" stroke="#63b8ff" points="764.39,-78.24 773.15,-72.28 762.59,-71.48 764.39,-78.24"/>
</a>
</g>
</g>
<!-- Node16 -->
<g id="Node000016" class="node">
<title>Node16</title>
<g id="a_Node000016"><a xlink:title=" ">
<polygon fill="#e0e0e0" stroke="#999999" points="658.12,-129.75 607.62,-129.75 607.62,-110.5 658.12,-110.5 658.12,-129.75"/>
<text xml:space="preserve" text-anchor="middle" x="632.88" y="-116.25" font-family="Helvetica,sans-Serif" font-size="10.00">stdarg.h</text>
</a>
</g>
</g>
<!-- Node1&#45;&gt;Node16 -->
<g id="edge18_Node000001_Node000016" class="edge">
<title>Node1&#45;&gt;Node16</title>
<g id="a_edge18_Node000001_Node000016"><a xlink:title=" ">
<path fill="none" stroke="#63b8ff" d="M475.94,-165.34C509.39,-155.92 561.73,-141.17 596.66,-131.33"/>
<polygon fill="#63b8ff" stroke="#63b8ff" points="597.2,-134.81 605.88,-128.73 595.31,-128.07 597.2,-134.81"/>
</a>
</g>
</g>
<!-- Node5 -->
<g id="Node000005" class="node">
<title>Node5</title>
<g id="a_Node000005"><a xlink:title=" ">
<polygon fill="#e0e0e0" stroke="#999999" points="158.12,-19.25 107.62,-19.25 107.62,0 158.12,0 158.12,-19.25"/>
<text xml:space="preserve" text-anchor="middle" x="132.88" y="-5.75" font-family="Helvetica,sans-Serif" font-size="10.00">stddef.h</text>
</a>
</g>
</g>
<!-- Node4&#45;&gt;Node5 -->
<g id="edge4_Node000004_Node000005" class="edge">
<title>Node4&#45;&gt;Node5</title>
<g id="a_edge4_Node000004_Node000005"><a xlink:title=" ">
<path fill="none" stroke="#63b8ff" d="M132.88,-55.08C132.88,-48.57 132.88,-39.42 132.88,-31.12"/>
<polygon fill="#63b8ff" stroke="#63b8ff" points="136.38,-31.12 132.88,-21.12 129.38,-31.12 136.38,-31.12"/>
</a>
</g>
</g>
<!-- Node6&#45;&gt;Node3 -->
<g id="edge15_Node000006_Node000003" class="edge">
<title>Node6&#45;&gt;Node3</title>
<g id="a_edge15_Node000006_Node000003"><a xlink:title=" ">
<path fill="none" stroke="#63b8ff" d="M411.97,-116.87C347.5,-112.01 196.96,-99.1 61.05,-74.67"/>
<polygon fill="#63b8ff" stroke="#63b8ff" points="62,-71.28 51.53,-72.93 60.74,-78.17 62,-71.28"/>
</a>
</g>
</g>
<!-- Node6&#45;&gt;Node4 -->
<g id="edge6_Node000006_Node000004" class="edge">
<title>Node6&#45;&gt;Node4</title>
<g id="a_edge6_Node000006_Node000004"><a xlink:title=" ">
<path fill="none" stroke="#63b8ff" d="M411.76,-113.63C361.3,-104.99 262.43,-88.06 197.01,-76.86"/>
<polygon fill="#63b8ff" stroke="#63b8ff" points="197.95,-73.47 187.5,-75.23 196.76,-80.37 197.95,-73.47"/>
</a>
</g>
</g>
<!-- Node7 -->
<g id="Node000007" class="node">
<title>Node7</title>
<g id="a_Node000007"><a xlink:title=" ">
<polygon fill="#e0e0e0" stroke="#999999" points="474.38,-74.5 413.38,-74.5 413.38,-55.25 474.38,-55.25 474.38,-74.5"/>
<text xml:space="preserve" text-anchor="middle" x="443.88" y="-61" font-family="Helvetica,sans-Serif" font-size="10.00">arpa/inet.h</text>
</a>
</g>
</g>
<!-- Node6&#45;&gt;Node7 -->
<g id="edge7_Node000006_Node000007" class="edge">
<title>Node6&#45;&gt;Node7</title>
<g id="a_edge7_Node000006_Node000007"><a xlink:title=" ">
<path fill="none" stroke="#63b8ff" d="M443.88,-110.33C443.88,-103.82 443.88,-94.67 443.88,-86.37"/>
<polygon fill="#63b8ff" stroke="#63b8ff" points="447.38,-86.37 443.88,-76.37 440.38,-86.37 447.38,-86.37"/>
</a>
</g>
</g>
<!-- Node6&#45;&gt;Node8 -->
<g id="edge8_Node000006_Node000008" class="edge">
<title>Node6&#45;&gt;Node8</title>
<g id="a_edge8_Node000006_Node000008"><a xlink:title=" ">
<path fill="none" stroke="#63b8ff" d="M412.04,-110.82C379.85,-102.42 328.36,-88.99 274.47,-74.92"/>
<polygon fill="#63b8ff" stroke="#63b8ff" points="275.69,-71.62 265.13,-72.48 273.92,-78.39 275.69,-71.62"/>
</a>
</g>
</g>
<!-- Node9 -->
<g id="Node000009" class="node">
<title>Node9</title>
<g id="a_Node000009"><a xlink:title=" ">
<polygon fill="#e0e0e0" stroke="#999999" points="555.5,-74.5 492.25,-74.5 492.25,-55.25 555.5,-55.25 555.5,-74.5"/>
<text xml:space="preserve" text-anchor="middle" x="523.88" y="-61" font-family="Helvetica,sans-Serif" font-size="10.00">netinet/in.h</text>
</a>
</g>
</g>
<!-- Node6&#45;&gt;Node9 -->
<g id="edge9_Node000006_Node000009" class="edge">
<title>Node6&#45;&gt;Node9</title>
<g id="a_edge9_Node000006_Node000009"><a xlink:title=" ">
<path fill="none" stroke="#63b8ff" d="M457.45,-110.09C469.28,-102.21 486.71,-90.61 500.75,-81.27"/>
<polygon fill="#63b8ff" stroke="#63b8ff" points="502.59,-84.25 508.98,-75.79 498.71,-78.42 502.59,-84.25"/>
</a>
</g>
</g>
<!-- Node10 -->
<g id="Node000010" class="node">
<title>Node10</title>
<g id="a_Node000010"><a xlink:title=" ">
<polygon fill="#e0e0e0" stroke="#999999" points="629.75,-74.5 574,-74.5 574,-55.25 629.75,-55.25 629.75,-74.5"/>
<text xml:space="preserve" text-anchor="middle" x="601.88" y="-61" font-family="Helvetica,sans-Serif" font-size="10.00">pthread.h</text>
</a>
</g>
</g>
<!-- Node6&#45;&gt;Node10 -->
<g id="edge10_Node000006_Node000010" class="edge">
<title>Node6&#45;&gt;Node10</title>
<g id="a_edge10_Node000006_Node000010"><a xlink:title=" ">
<path fill="none" stroke="#63b8ff" d="M470.68,-110.09C496.33,-101.45 535.26,-88.32 564.06,-78.62"/>
<polygon fill="#63b8ff" stroke="#63b8ff" points="565.15,-81.95 573.51,-75.44 562.91,-75.31 565.15,-81.95"/>
</a>
</g>
</g>
<!-- Node11 -->
<g id="Node000011" class="node">
<title>Node11</title>
<g id="a_Node000011"><a xlink:title=" ">
<polygon fill="#e0e0e0" stroke="#999999" points="330.38,-74.5 281.38,-74.5 281.38,-55.25 330.38,-55.25 330.38,-74.5"/>
<text xml:space="preserve" text-anchor="middle" x="305.88" y="-61" font-family="Helvetica,sans-Serif" font-size="10.00">signal.h</text>
</a>
</g>
</g>
<!-- Node6&#45;&gt;Node11 -->
<g id="edge11_Node000006_Node000011" class="edge">
<title>Node6&#45;&gt;Node11</title>
<g id="a_edge11_Node000006_Node000011"><a xlink:title=" ">
<path fill="none" stroke="#63b8ff" d="M420.47,-110.09C398.36,-101.56 364.96,-88.67 339.91,-79.01"/>
<polygon fill="#63b8ff" stroke="#63b8ff" points="341.4,-75.83 330.81,-75.5 338.88,-82.36 341.4,-75.83"/>
</a>
</g>
</g>
<!-- Node6&#45;&gt;Node12 -->
<g id="edge12_Node000006_Node000012" class="edge">
<title>Node6&#45;&gt;Node12</title>
<g id="a_edge12_Node000006_Node000012"><a xlink:title=" ">
<path fill="none" stroke="#63b8ff" d="M475.73,-112.31C512.24,-104.4 574.12,-90.67 636.07,-75.13"/>
<polygon fill="#63b8ff" stroke="#63b8ff" points="636.92,-78.52 645.75,-72.68 635.2,-71.74 636.92,-78.52"/>
</a>
</g>
</g>
<!-- Node6&#45;&gt;Node13 -->
<g id="edge13_Node000006_Node000013" class="edge">
<title>Node6&#45;&gt;Node13</title>
<g id="a_edge13_Node000006_Node000013"><a xlink:title=" ">
<path fill="none" stroke="#63b8ff" d="M475.69,-114.48C522.42,-107.46 612.54,-93.22 699.06,-74.73"/>
<polygon fill="#63b8ff" stroke="#63b8ff" points="699.63,-78.19 708.66,-72.65 698.15,-71.35 699.63,-78.19"/>
</a>
</g>
</g>
<!-- Node14 -->
<g id="Node000014" class="node">
<title>Node14</title>
<g id="a_Node000014"><a xlink:title=" ">
<polygon fill="#e0e0e0" stroke="#999999" points="395.62,-74.5 348.12,-74.5 348.12,-55.25 395.62,-55.25 395.62,-74.5"/>
<text xml:space="preserve" text-anchor="middle" x="371.88" y="-61" font-family="Helvetica,sans-Serif" font-size="10.00">string.h</text>
</a>
</g>
</g>
<!-- Node6&#45;&gt;Node14 -->
<g id="edge14_Node000006_Node000014" class="edge">
<title>Node6&#45;&gt;Node14</title>
<g id="a_edge14_Node000006_Node000014"><a xlink:title=" ">
<path fill="none" stroke="#63b8ff" d="M431.66,-110.09C421.05,-102.24 405.44,-90.7 392.83,-81.37"/>
<polygon fill="#63b8ff" stroke="#63b8ff" points="395.25,-78.81 385.13,-75.67 391.08,-84.44 395.25,-78.81"/>
</a>
</g>
</g>
<!-- Node6&#45;&gt;Node15 -->
<g id="edge16_Node000006_Node000015" class="edge">
<title>Node6&#45;&gt;Node15</title>
<g id="a_edge16_Node000006_Node000015"><a xlink:title=" ">
<path fill="none" stroke="#63b8ff" d="M475.76,-116.65C532.11,-111.86 653.04,-99.72 763.39,-74.7"/>
<polygon fill="#63b8ff" stroke="#63b8ff" points="763.95,-78.17 772.9,-72.5 762.37,-71.35 763.95,-78.17"/>
</a>
</g>
</g>
</g>
</svg>
