<?xml version="1.0" encoding="UTF-8" standalone="no"?>
<!DOCTYPE svg PUBLIC "-//W3C//DTD SVG 1.1//EN"
 "http://www.w3.org/Graphics/SVG/1.1/DTD/svg11.dtd">
<!-- Generated by graphviz version 14.0.5 (0)
 -->
<!-- Title: parse_query_params Pages: 1 -->
<svg width="434pt" height="27pt"
 viewBox="0.00 0.00 434.00 27.00" xmlns="http://www.w3.org/2000/svg" xmlns:xlink="http://www.w3.org/1999/xlink">
<g id="graph0" class="graph" transform="scale(1 1) rotate(0) translate(4 23.25)">
<title>parse_query_params</title>
<!-- Node1 -->
<g id="Node000001" class="node">
<title>Node1</title>
<g id="a_Node000001"><a xlink:title=" ">
<polygon fill="#999999" stroke="#666666" points="106,-19.25 0,-19.25 0,0 106,0 106,-19.25"/>
<text xml:space="preserve" text-anchor="middle" x="53" y="-5.75" font-family="Helvetica,sans-Serif" font-size="10.00">parse_query_params</text>
</a>
</g>
</g>
<!-- Node2 -->
<g id="Node000002" class="node">
<title>Node2</title>
<g id="a_Node000002"><a xlink:href="espresso_8c.html#a2d9a0717a9389e6d178d0f4a8c2ef185" target="_top" xlink:title=" ">
<polygon fill="white" stroke="#666666" points="218,-19.25 142,-19.25 142,0 218,0 218,-19.25"/>
<text xml:space="preserve" text-anchor="middle" x="180" y="-5.75" font-family="Helvetica,sans-Serif" font-size="10.00">append_query</text>
</a>
</g>
</g>
<!-- Node1&#45;&gt;Node2 -->
<g id="edge1_Node000001_Node000002" class="edge">
<title>Node1&#45;&gt;Node2</title>
<g id="a_edge1_Node000001_Node000002"><a xlink:title=" ">
<path fill="none" stroke="#63b8ff" d="M106.29,-9.62C114.29,-9.62 122.52,-9.62 130.43,-9.62"/>
<polygon fill="#63b8ff" stroke="#63b8ff" points="130.23,-13.13 140.23,-9.63 130.23,-6.13 130.23,-13.13"/>
</a>
</g>
</g>
<!-- Node3 -->
<g id="Node000003" class="node">
<title>Node3</title>
<g id="a_Node000003"><a xlink:href="espresso_8c.html#a755a65a488e1158eee3fdab0ecada8fe" target="_top" xlink:title=" ">
<polygon fill="white" stroke="#666666" points="330,-19.25 254,-19.25 254,0 330,0 330,-19.25"/>
<text xml:space="preserve" text-anchor="middle" x="292" y="-5.75" font-family="Helvetica,sans-Serif" font-size="10.00">decode_query</text>
</a>
</g>
</g>
<!-- Node2&#45;&gt;Node3 -->
<g id="edge2_Node000002_Node000003" class="edge">
<title>Node2&#45;&gt;Node3</title>
<g id="a_edge2_Node000002_Node000003"><a xlink:title=" ">
<path fill="none" stroke="#63b8ff" d="M218.24,-9.62C226.04,-9.62 234.36,-9.62 242.5,-9.62"/>
<polygon fill="#63b8ff" stroke="#63b8ff" points="242.28,-13.13 252.28,-9.63 242.28,-6.13 242.28,-13.13"/>
</a>
</g>
</g>
<!-- Node4 -->
<g id="Node000004" class="node">
<title>Node4</title>
<g id="a_Node000004"><a xlink:href="espresso_8c.html#af4a5274d4719dec853dd32e1d8687553" target="_top" xlink:title=" ">
<polygon fill="white" stroke="#666666" points="426.25,-19.25 366,-19.25 366,0 426.25,0 426.25,-19.25"/>
<text xml:space="preserve" text-anchor="middle" x="396.12" y="-5.75" font-family="Helvetica,sans-Serif" font-size="10.00">hex_to_int</text>
</a>
</g>
</g>
<!-- Node3&#45;&gt;Node4 -->
<g id="edge3_Node000003_Node000004" class="edge">
<title>Node3&#45;&gt;Node4</title>
<g id="a_edge3_Node000003_Node000004"><a xlink:title=" ">
<path fill="none" stroke="#63b8ff" d="M330.45,-9.62C338.25,-9.62 346.51,-9.62 354.42,-9.62"/>
<polygon fill="#63b8ff" stroke="#63b8ff" points="354.16,-13.13 364.16,-9.63 354.16,-6.13 354.16,-13.13"/>
</a>
</g>
</g>
</g>
</svg>
