<?xml version="1.0" encoding="UTF-8" standalone="no"?>
<!DOCTYPE svg PUBLIC "-//W3C//DTD SVG 1.1//EN"
 "http://www.w3.org/Graphics/SVG/1.1/DTD/svg11.dtd">
<!-- Generated by graphviz version 14.0.5 (0)
 -->
<!-- Title: handle_buffer Pages: 1 -->
<svg width="794pt" height="347pt"
 viewBox="0.00 0.00 794.00 347.00" xmlns="http://www.w3.org/2000/svg" xmlns:xlink="http://www.w3.org/1999/xlink">
<g id="graph0" class="graph" transform="scale(1 1) rotate(0) translate(4 343.09)">
<title>handle_buffer</title>
<!-- Node1 -->
<g id="Node000001" class="node">
<title>Node1</title>
<g id="a_Node000001"><a xlink:title=" ">
<polygon fill="#999999" stroke="#666666" points="73.75,-206.09 0,-206.09 0,-186.84 73.75,-186.84 73.75,-206.09"/>
<text xml:space="preserve" text-anchor="middle" x="36.88" y="-192.59" font-family="Helvetica,sans-Serif" font-size="10.00">handle_buffer</text>
</a>
</g>
</g>
<!-- Node2 -->
<g id="Node000002" class="node">
<title>Node2</title>
<g id="a_Node000002"><a xlink:href="espresso_8c.html#afc4191b175ae67f2d0d5b264caa6d08a" target="_top" xlink:title=" ">
<polygon fill="white" stroke="#666666" points="198.88,-339.09 119.88,-339.09 119.88,-319.84 198.88,-319.84 198.88,-339.09"/>
<text xml:space="preserve" text-anchor="middle" x="159.38" y="-325.59" font-family="Helvetica,sans-Serif" font-size="10.00">allocate_buffer</text>
</a>
</g>
</g>
<!-- Node1&#45;&gt;Node2 -->
<g id="edge1_Node000001_Node000002" class="edge">
<title>Node1&#45;&gt;Node2</title>
<g id="a_edge1_Node000001_Node000002"><a xlink:title=" ">
<path fill="none" stroke="#63b8ff" d="M42.23,-206.46C51.76,-227.3 76.27,-275.92 109.75,-305.47 113.32,-308.62 117.38,-311.47 121.6,-314"/>
<polygon fill="#63b8ff" stroke="#63b8ff" points="119.77,-316.99 130.23,-318.64 123.08,-310.82 119.77,-316.99"/>
</a>
</g>
</g>
<!-- Node3 -->
<g id="Node000003" class="node">
<title>Node3</title>
<g id="a_Node000003"><a xlink:href="espresso_8c.html#a73277811539a2de04ce7e1295fbdba6a" target="_top" xlink:title=" ">
<polygon fill="white" stroke="#666666" points="348.75,-301.09 257,-301.09 257,-281.84 348.75,-281.84 348.75,-301.09"/>
<text xml:space="preserve" text-anchor="middle" x="302.88" y="-287.59" font-family="Helvetica,sans-Serif" font-size="10.00">close_connection</text>
</a>
</g>
</g>
<!-- Node1&#45;&gt;Node3 -->
<g id="edge2_Node000001_Node000003" class="edge">
<title>Node1&#45;&gt;Node3</title>
<g id="a_edge2_Node000001_Node000003"><a xlink:title=" ">
<path fill="none" stroke="#63b8ff" d="M44.66,-206.56C56.02,-222.53 80.56,-253.3 109.75,-267.47 152.14,-288.04 205.7,-293.28 245.5,-293.81"/>
<polygon fill="#63b8ff" stroke="#63b8ff" points="245.34,-297.31 255.35,-293.83 245.36,-290.31 245.34,-297.31"/>
</a>
</g>
</g>
<!-- Node7 -->
<g id="Node000007" class="node">
<title>Node7</title>
<g id="a_Node000007"><a xlink:href="espresso_8c.html#aff314ce54a1f87e10d08bf4ddeeaf537" target="_top" xlink:title=" ">
<polygon fill="white" stroke="#666666" points="779.62,-263.09 692.38,-263.09 692.38,-243.84 779.62,-243.84 779.62,-263.09"/>
<text xml:space="preserve" text-anchor="middle" x="736" y="-249.59" font-family="Helvetica,sans-Serif" font-size="10.00">request_cleanup</text>
</a>
</g>
</g>
<!-- Node1&#45;&gt;Node7 -->
<g id="edge28_Node000001_Node000007" class="edge">
<title>Node1&#45;&gt;Node7</title>
<g id="a_edge28_Node000001_Node000007"><a xlink:title=" ">
<path fill="none" stroke="#63b8ff" d="M52.56,-206.43C66.59,-215.4 88.67,-228.12 109.75,-234.47 191.91,-259.21 216.07,-253.47 301.88,-253.47 301.88,-253.47 301.88,-253.47 460.5,-253.47 537.03,-253.47 625.55,-253.47 680.91,-253.47"/>
<polygon fill="#63b8ff" stroke="#63b8ff" points="680.69,-256.97 690.69,-253.47 680.69,-249.97 680.69,-256.97"/>
</a>
</g>
</g>
<!-- Node9 -->
<g id="Node000009" class="node">
<title>Node9</title>
<g id="a_Node000009"><a xlink:href="espresso_8c.html#aca61aa31ed57abce18d1d3cffd0d47e3" target="_top" xlink:title=" ">
<polygon fill="white" stroke="#666666" points="360.75,-111.09 245,-111.09 245,-91.84 360.75,-91.84 360.75,-111.09"/>
<text xml:space="preserve" text-anchor="middle" x="302.88" y="-97.59" font-family="Helvetica,sans-Serif" font-size="10.00">generate_allow_header</text>
</a>
</g>
</g>
<!-- Node1&#45;&gt;Node9 -->
<g id="edge8_Node000001_Node000009" class="edge">
<title>Node1&#45;&gt;Node9</title>
<g id="a_edge8_Node000001_Node000009"><a xlink:title=" ">
<path fill="none" stroke="#63b8ff" d="M43.91,-186.41C54.7,-169.44 79.1,-135.5 109.75,-120.47 147.96,-101.73 195.53,-96.91 233.77,-96.8"/>
<polygon fill="#63b8ff" stroke="#63b8ff" points="233.26,-100.3 243.29,-96.89 233.32,-93.3 233.26,-100.3"/>
</a>
</g>
</g>
<!-- Node10 -->
<g id="Node000010" class="node">
<title>Node10</title>
<g id="a_Node000010"><a xlink:href="espresso_8c.html#a919e9a8a992f43f0fd82e87f4d40d2d2" target="_top" xlink:title=" ">
<polygon fill="white" stroke="#666666" points="207.88,-225.09 110.88,-225.09 110.88,-205.84 207.88,-205.84 207.88,-225.09"/>
<text xml:space="preserve" text-anchor="middle" x="159.38" y="-211.59" font-family="Helvetica,sans-Serif" font-size="10.00">handle_client_read</text>
</a>
</g>
</g>
<!-- Node1&#45;&gt;Node10 -->
<g id="edge9_Node000001_Node000010" class="edge">
<title>Node1&#45;&gt;Node10</title>
<g id="a_edge9_Node000001_Node000010"><a xlink:title=" ">
<path fill="none" stroke="#63b8ff" d="M74.03,-195.92C88.47,-197.56 105.12,-200.16 119.8,-203.04"/>
<polygon fill="#63b8ff" stroke="#63b8ff" points="119.07,-206.47 129.58,-205.09 120.51,-199.61 119.07,-206.47"/>
</a>
</g>
</g>
<!-- Node11 -->
<g id="Node000011" class="node">
<title>Node11</title>
<g id="a_Node000011"><a xlink:href="espresso_8c.html#a142b429010a8046d339d36552bd20f7e" target="_top" xlink:title=" ">
<polygon fill="white" stroke="#666666" points="343.88,-222.09 261.88,-222.09 261.88,-202.84 343.88,-202.84 343.88,-222.09"/>
<text xml:space="preserve" text-anchor="middle" x="302.88" y="-208.59" font-family="Helvetica,sans-Serif" font-size="10.00">send_message</text>
</a>
</g>
</g>
<!-- Node1&#45;&gt;Node11 -->
<g id="edge29_Node000001_Node000011" class="edge">
<title>Node1&#45;&gt;Node11</title>
<g id="a_edge29_Node000001_Node000011"><a xlink:title=" ">
<path fill="none" stroke="#63b8ff" d="M74.01,-194.69C108.69,-193.4 162.53,-192.5 209,-196.47 222.5,-197.62 236.98,-199.71 250.4,-201.99"/>
<polygon fill="#63b8ff" stroke="#63b8ff" points="249.43,-205.38 259.89,-203.68 250.66,-198.48 249.43,-205.38"/>
</a>
</g>
</g>
<!-- Node13 -->
<g id="Node000013" class="node">
<title>Node13</title>
<g id="a_Node000013"><a xlink:href="espresso_8c.html#a041948e0d9b16b9c852053d3fb3f2a69" target="_top" xlink:title="ONLY FOR UNIT TESTS.">
<polygon fill="white" stroke="#666666" points="202.62,-149.09 116.12,-149.09 116.12,-129.84 202.62,-129.84 202.62,-149.09"/>
<text xml:space="preserve" text-anchor="middle" x="159.38" y="-135.59" font-family="Helvetica,sans-Serif" font-size="10.00">handle_endpoint</text>
</a>
</g>
</g>
<!-- Node1&#45;&gt;Node13 -->
<g id="edge14_Node000001_Node000013" class="edge">
<title>Node1&#45;&gt;Node13</title>
<g id="a_edge14_Node000001_Node000013"><a xlink:title=" ">
<path fill="none" stroke="#63b8ff" d="M59.14,-186.41C77.98,-177.5 105.74,-164.37 127.11,-154.26"/>
<polygon fill="#63b8ff" stroke="#63b8ff" points="128.41,-157.52 135.95,-150.08 125.42,-151.19 128.41,-157.52"/>
</a>
</g>
</g>
<!-- Node19 -->
<g id="Node000019" class="node">
<title>Node19</title>
<g id="a_Node000019"><a xlink:href="espresso_8c.html#abdcfd909d1360f16c6fedab5aac76f2a" target="_top" xlink:title=" ">
<polygon fill="white" stroke="#666666" points="630.88,-92.09 577.38,-92.09 577.38,-72.84 630.88,-72.84 630.88,-92.09"/>
<text xml:space="preserve" text-anchor="middle" x="604.12" y="-78.59" font-family="Helvetica,sans-Serif" font-size="10.00">log_error</text>
</a>
</g>
</g>
<!-- Node1&#45;&gt;Node19 -->
<g id="edge24_Node000001_Node000019" class="edge">
<title>Node1&#45;&gt;Node19</title>
<g id="a_edge24_Node000001_Node000019"><a xlink:title=" ">
<path fill="none" stroke="#63b8ff" d="M38.99,-186.69C42.77,-158.54 57.96,-77.27 109.75,-44.47 259.26,50.22 487.63,-32.09 571.13,-67.85"/>
<polygon fill="#63b8ff" stroke="#63b8ff" points="569.52,-70.97 580.09,-71.76 572.32,-64.56 569.52,-70.97"/>
</a>
</g>
</g>
<!-- Node20 -->
<g id="Node000020" class="node">
<title>Node20</title>
<g id="a_Node000020"><a xlink:href="espresso_8c.html#a529711d7a64d90d49fb6a0c3870c5b61" target="_top" xlink:title="ONLY FOR UNIT TESTS.">
<polygon fill="white" stroke="#666666" points="209,-73.09 109.75,-73.09 109.75,-53.84 209,-53.84 209,-73.09"/>
<text xml:space="preserve" text-anchor="middle" x="159.38" y="-59.59" font-family="Helvetica,sans-Serif" font-size="10.00">parse_http_request</text>
</a>
</g>
</g>
<!-- Node1&#45;&gt;Node20 -->
<g id="edge25_Node000001_Node000020" class="edge">
<title>Node1&#45;&gt;Node20</title>
<g id="a_edge25_Node000001_Node000020"><a xlink:title=" ">
<path fill="none" stroke="#63b8ff" d="M42.23,-186.48C51.76,-165.64 76.27,-117.02 109.75,-87.47 113.32,-84.32 117.38,-81.47 121.6,-78.94"/>
<polygon fill="#63b8ff" stroke="#63b8ff" points="123.08,-82.11 130.23,-74.3 119.77,-75.95 123.08,-82.11"/>
</a>
</g>
</g>
<!-- Node4 -->
<g id="Node000004" class="node">
<title>Node4</title>
<g id="a_Node000004"><a xlink:href="espresso_8c.html#aaf78724518167158b66ec656312fabd2" target="_top" xlink:title=" ">
<polygon fill="white" stroke="#666666" points="522.25,-301.09 396.75,-301.09 396.75,-281.84 522.25,-281.84 522.25,-301.09"/>
<text xml:space="preserve" text-anchor="middle" x="459.5" y="-287.59" font-family="Helvetica,sans-Serif" font-size="10.00">handle_connection_close</text>
</a>
</g>
</g>
<!-- Node3&#45;&gt;Node4 -->
<g id="edge3_Node000003_Node000004" class="edge">
<title>Node3&#45;&gt;Node4</title>
<g id="a_edge3_Node000003_Node000004"><a xlink:title=" ">
<path fill="none" stroke="#63b8ff" d="M349.01,-291.47C360.34,-291.47 372.79,-291.47 385.11,-291.47"/>
<polygon fill="#63b8ff" stroke="#63b8ff" points="384.84,-294.97 394.84,-291.47 384.84,-287.97 384.84,-294.97"/>
</a>
</g>
</g>
<!-- Node5 -->
<g id="Node000005" class="node">
<title>Node5</title>
<g id="a_Node000005"><a xlink:href="espresso_8c.html#a1804ce3a25646fd9c6c6ad98d45c6efa" target="_top" xlink:title=" ">
<polygon fill="white" stroke="#666666" points="650,-301.09 558.25,-301.09 558.25,-281.84 650,-281.84 650,-301.09"/>
<text xml:space="preserve" text-anchor="middle" x="604.12" y="-287.59" font-family="Helvetica,sans-Serif" font-size="10.00">endpoint_cleanup</text>
</a>
</g>
</g>
<!-- Node4&#45;&gt;Node5 -->
<g id="edge4_Node000004_Node000005" class="edge">
<title>Node4&#45;&gt;Node5</title>
<g id="a_edge4_Node000004_Node000005"><a xlink:title=" ">
<path fill="none" stroke="#63b8ff" d="M522.64,-291.47C530.61,-291.47 538.74,-291.47 546.61,-291.47"/>
<polygon fill="#63b8ff" stroke="#63b8ff" points="546.4,-294.97 556.4,-291.47 546.4,-287.97 546.4,-294.97"/>
</a>
</g>
</g>
<!-- Node8 -->
<g id="Node000008" class="node">
<title>Node8</title>
<g id="a_Node000008"><a xlink:href="espresso_8c.html#a837cf67658f96fc262c83a4882f96f45" target="_top" xlink:title=" ">
<polygon fill="white" stroke="#666666" points="642.5,-338.09 565.75,-338.09 565.75,-318.84 642.5,-318.84 642.5,-338.09"/>
<text xml:space="preserve" text-anchor="middle" x="604.12" y="-324.59" font-family="Helvetica,sans-Serif" font-size="10.00">remove_client</text>
</a>
</g>
</g>
<!-- Node4&#45;&gt;Node8 -->
<g id="edge7_Node000004_Node000008" class="edge">
<title>Node4&#45;&gt;Node8</title>
<g id="a_edge7_Node000004_Node000008"><a xlink:title=" ">
<path fill="none" stroke="#63b8ff" d="M499.47,-301.58C516.55,-306.01 536.76,-311.25 554.78,-315.93"/>
<polygon fill="#63b8ff" stroke="#63b8ff" points="553.65,-319.25 564.21,-318.37 555.41,-312.48 553.65,-319.25"/>
</a>
</g>
</g>
<!-- Node6 -->
<g id="Node000006" class="node">
<title>Node6</title>
<g id="a_Node000006"><a xlink:href="espresso_8c.html#a713520bedc85cf92de9f221038f1b737" target="_top" xlink:title=" ">
<polygon fill="white" stroke="#666666" points="786,-301.09 686,-301.09 686,-281.84 786,-281.84 786,-301.09"/>
<text xml:space="preserve" text-anchor="middle" x="736" y="-287.59" font-family="Helvetica,sans-Serif" font-size="10.00">handle_timer_close</text>
</a>
</g>
</g>
<!-- Node5&#45;&gt;Node6 -->
<g id="edge5_Node000005_Node000006" class="edge">
<title>Node5&#45;&gt;Node6</title>
<g id="a_edge5_Node000005_Node000006"><a xlink:title=" ">
<path fill="none" stroke="#63b8ff" d="M650.18,-291.47C657.95,-291.47 666.14,-291.47 674.24,-291.47"/>
<polygon fill="#63b8ff" stroke="#63b8ff" points="674.07,-294.97 684.07,-291.47 674.07,-287.97 674.07,-294.97"/>
</a>
</g>
</g>
<!-- Node5&#45;&gt;Node7 -->
<g id="edge6_Node000005_Node000007" class="edge">
<title>Node5&#45;&gt;Node7</title>
<g id="a_edge6_Node000005_Node000007"><a xlink:title=" ">
<path fill="none" stroke="#63b8ff" d="M639.59,-281.39C654.97,-276.88 673.31,-271.52 689.78,-266.7"/>
<polygon fill="#63b8ff" stroke="#63b8ff" points="690.76,-270.06 699.37,-263.89 688.79,-263.34 690.76,-270.06"/>
</a>
</g>
</g>
<!-- Node10&#45;&gt;Node1 -->
<g id="edge11_Node000010_Node000001" class="edge">
<title>Node10&#45;&gt;Node1</title>
<g id="a_edge11_Node000010_Node000001"><a xlink:title=" ">
<path fill="none" stroke="#63b8ff" d="M110.8,-214.58C99.31,-213.02 87.19,-211.01 76.19,-208.85"/>
<polygon fill="#63b8ff" stroke="#63b8ff" points="77.21,-205.48 66.7,-206.85 75.77,-212.33 77.21,-205.48"/>
</a>
</g>
</g>
<!-- Node10&#45;&gt;Node3 -->
<g id="edge10_Node000010_Node000003" class="edge">
<title>Node10&#45;&gt;Node3</title>
<g id="a_edge10_Node000010_Node000003"><a xlink:title=" ">
<path fill="none" stroke="#63b8ff" d="M179.17,-225.56C203.3,-238.52 245.4,-261.14 273.46,-276.21"/>
<polygon fill="#63b8ff" stroke="#63b8ff" points="271.66,-279.21 282.12,-280.86 274.97,-273.05 271.66,-279.21"/>
</a>
</g>
</g>
<!-- Node10&#45;&gt;Node11 -->
<g id="edge12_Node000010_Node000011" class="edge">
<title>Node10&#45;&gt;Node11</title>
<g id="a_edge12_Node000010_Node000011"><a xlink:title=" ">
<path fill="none" stroke="#63b8ff" d="M208.28,-214.45C221.81,-214.17 236.59,-213.85 250.32,-213.56"/>
<polygon fill="#63b8ff" stroke="#63b8ff" points="250.13,-217.07 260.05,-213.36 249.98,-210.07 250.13,-217.07"/>
</a>
</g>
</g>
<!-- Node12 -->
<g id="Node000012" class="node">
<title>Node12</title>
<g id="a_Node000012"><a xlink:href="espresso_8c.html#a5fa30991ad104ba1fe0001e7aefe95ac" target="_top" xlink:title=" ">
<polygon fill="white" stroke="#666666" points="505.38,-222.09 413.62,-222.09 413.62,-202.84 505.38,-202.84 505.38,-222.09"/>
<text xml:space="preserve" text-anchor="middle" x="459.5" y="-208.59" font-family="Helvetica,sans-Serif" font-size="10.00">handle_write_end</text>
</a>
</g>
</g>
<!-- Node11&#45;&gt;Node12 -->
<g id="edge13_Node000011_Node000012" class="edge">
<title>Node11&#45;&gt;Node12</title>
<g id="a_edge13_Node000011_Node000012"><a xlink:title=" ">
<path fill="none" stroke="#63b8ff" d="M344.1,-212.47C361.74,-212.47 382.77,-212.47 401.95,-212.47"/>
<polygon fill="#63b8ff" stroke="#63b8ff" points="401.78,-215.97 411.78,-212.47 401.78,-208.97 401.78,-215.97"/>
</a>
</g>
</g>
<!-- Node13&#45;&gt;Node9 -->
<g id="edge16_Node000013_Node000009" class="edge">
<title>Node13&#45;&gt;Node9</title>
<g id="a_edge16_Node000013_Node000009"><a xlink:title=" ">
<path fill="none" stroke="#63b8ff" d="M197.92,-129.39C215.01,-124.8 235.44,-119.31 253.64,-114.42"/>
<polygon fill="#63b8ff" stroke="#63b8ff" points="254.43,-117.83 263.18,-111.86 252.62,-111.07 254.43,-117.83"/>
</a>
</g>
</g>
<!-- Node13&#45;&gt;Node11 -->
<g id="edge23_Node000013_Node000011" class="edge">
<title>Node13&#45;&gt;Node11</title>
<g id="a_edge23_Node000013_Node000011"><a xlink:title=" ">
<path fill="none" stroke="#63b8ff" d="M183.79,-149.56C192.01,-153.47 201.15,-158.27 209,-163.47 226.61,-175.12 226.56,-184.19 245,-194.47 247.33,-195.77 249.76,-196.99 252.26,-198.13"/>
<polygon fill="#63b8ff" stroke="#63b8ff" points="250.77,-201.3 261.35,-201.83 253.41,-194.82 250.77,-201.3"/>
</a>
</g>
</g>
<!-- Node14 -->
<g id="Node000014" class="node">
<title>Node14</title>
<g id="a_Node000014"><a xlink:href="espresso_8c.html#a04c27c6493696fb67ab9b8f5296c14f1" target="_top" xlink:title="ONLY FOR UNIT TESTS.">
<polygon fill="white" stroke="#666666" points="344.25,-185.09 261.5,-185.09 261.5,-165.84 344.25,-165.84 344.25,-185.09"/>
<text xml:space="preserve" text-anchor="middle" x="302.88" y="-171.59" font-family="Helvetica,sans-Serif" font-size="10.00">compare_paths</text>
</a>
</g>
</g>
<!-- Node13&#45;&gt;Node14 -->
<g id="edge15_Node000013_Node000014" class="edge">
<title>Node13&#45;&gt;Node14</title>
<g id="a_edge15_Node000013_Node000014"><a xlink:title=" ">
<path fill="none" stroke="#63b8ff" d="M200.17,-149.59C216.13,-153.65 234.7,-158.38 251.58,-162.67"/>
<polygon fill="#63b8ff" stroke="#63b8ff" points="250.36,-165.97 260.91,-165.05 252.09,-159.19 250.36,-165.97"/>
</a>
</g>
</g>
<!-- Node15 -->
<g id="Node000015" class="node">
<title>Node15</title>
<g id="a_Node000015"><a xlink:href="espresso_8c.html#a260a9eca1b37d7151fd585fde9e355b8" target="_top" xlink:title="ONLY FOR UNIT TESTS.">
<polygon fill="white" stroke="#666666" points="355.88,-148.09 249.88,-148.09 249.88,-128.84 355.88,-128.84 355.88,-148.09"/>
<text xml:space="preserve" text-anchor="middle" x="302.88" y="-134.59" font-family="Helvetica,sans-Serif" font-size="10.00">parse_query_params</text>
</a>
</g>
</g>
<!-- Node13&#45;&gt;Node15 -->
<g id="edge17_Node000013_Node000015" class="edge">
<title>Node13&#45;&gt;Node15</title>
<g id="a_edge17_Node000013_Node000015"><a xlink:title=" ">
<path fill="none" stroke="#63b8ff" d="M202.83,-139.17C213.93,-139.09 226.15,-139 238.1,-138.92"/>
<polygon fill="#63b8ff" stroke="#63b8ff" points="237.94,-142.42 247.92,-138.85 237.89,-135.42 237.94,-142.42"/>
</a>
</g>
</g>
<!-- Node16 -->
<g id="Node000016" class="node">
<title>Node16</title>
<g id="a_Node000016"><a xlink:href="espresso_8c.html#a2d9a0717a9389e6d178d0f4a8c2ef185" target="_top" xlink:title=" ">
<polygon fill="white" stroke="#666666" points="497.5,-149.09 421.5,-149.09 421.5,-129.84 497.5,-129.84 497.5,-149.09"/>
<text xml:space="preserve" text-anchor="middle" x="459.5" y="-135.59" font-family="Helvetica,sans-Serif" font-size="10.00">append_query</text>
</a>
</g>
</g>
<!-- Node15&#45;&gt;Node16 -->
<g id="edge18_Node000015_Node000016" class="edge">
<title>Node15&#45;&gt;Node16</title>
<g id="a_edge18_Node000015_Node000016"><a xlink:title=" ">
<path fill="none" stroke="#63b8ff" d="M356.22,-138.81C373.59,-138.92 392.85,-139.04 409.92,-139.16"/>
<polygon fill="#63b8ff" stroke="#63b8ff" points="409.8,-142.65 419.83,-139.22 409.85,-135.65 409.8,-142.65"/>
</a>
</g>
</g>
<!-- Node15&#45;&gt;Node19 -->
<g id="edge22_Node000015_Node000019" class="edge">
<title>Node15&#45;&gt;Node19</title>
<g id="a_edge22_Node000015_Node000019"><a xlink:title=" ">
<path fill="none" stroke="#63b8ff" d="M355.44,-128.39C368.88,-125.78 383.35,-123 396.75,-120.47 455.85,-109.3 524.55,-96.73 565.89,-89.22"/>
<polygon fill="#63b8ff" stroke="#63b8ff" points="566.35,-92.69 575.56,-87.46 565.09,-85.8 566.35,-92.69"/>
</a>
</g>
</g>
<!-- Node17 -->
<g id="Node000017" class="node">
<title>Node17</title>
<g id="a_Node000017"><a xlink:href="espresso_8c.html#a755a65a488e1158eee3fdab0ecada8fe" target="_top" xlink:title=" ">
<polygon fill="white" stroke="#666666" points="642.12,-149.09 566.12,-149.09 566.12,-129.84 642.12,-129.84 642.12,-149.09"/>
<text xml:space="preserve" text-anchor="middle" x="604.12" y="-135.59" font-family="Helvetica,sans-Serif" font-size="10.00">decode_query</text>
</a>
</g>
</g>
<!-- Node16&#45;&gt;Node17 -->
<g id="edge19_Node000016_Node000017" class="edge">
<title>Node16&#45;&gt;Node17</title>
<g id="a_edge19_Node000016_Node000017"><a xlink:title=" ">
<path fill="none" stroke="#63b8ff" d="M497.97,-139.47C515.25,-139.47 535.98,-139.47 554.45,-139.47"/>
<polygon fill="#63b8ff" stroke="#63b8ff" points="554.39,-142.97 564.39,-139.47 554.39,-135.97 554.39,-142.97"/>
</a>
</g>
</g>
<!-- Node16&#45;&gt;Node19 -->
<g id="edge21_Node000016_Node000019" class="edge">
<title>Node16&#45;&gt;Node19</title>
<g id="a_edge21_Node000016_Node000019"><a xlink:title=" ">
<path fill="none" stroke="#63b8ff" d="M486.68,-129.41C497.68,-125.15 510.6,-120.11 522.25,-115.47 537.41,-109.43 554.11,-102.64 568.38,-96.8"/>
<polygon fill="#63b8ff" stroke="#63b8ff" points="569.43,-100.15 577.35,-93.11 566.77,-93.67 569.43,-100.15"/>
</a>
</g>
</g>
<!-- Node18 -->
<g id="Node000018" class="node">
<title>Node18</title>
<g id="a_Node000018"><a xlink:href="espresso_8c.html#af4a5274d4719dec853dd32e1d8687553" target="_top" xlink:title=" ">
<polygon fill="white" stroke="#666666" points="766.12,-149.09 705.88,-149.09 705.88,-129.84 766.12,-129.84 766.12,-149.09"/>
<text xml:space="preserve" text-anchor="middle" x="736" y="-135.59" font-family="Helvetica,sans-Serif" font-size="10.00">hex_to_int</text>
</a>
</g>
</g>
<!-- Node17&#45;&gt;Node18 -->
<g id="edge20_Node000017_Node000018" class="edge">
<title>Node17&#45;&gt;Node18</title>
<g id="a_edge20_Node000017_Node000018"><a xlink:title=" ">
<path fill="none" stroke="#63b8ff" d="M642.34,-139.47C658.66,-139.47 677.86,-139.47 694.54,-139.47"/>
<polygon fill="#63b8ff" stroke="#63b8ff" points="694.1,-142.97 704.1,-139.47 694.1,-135.97 694.1,-142.97"/>
</a>
</g>
</g>
<!-- Node20&#45;&gt;Node11 -->
<g id="edge27_Node000020_Node000011" class="edge">
<title>Node20&#45;&gt;Node11</title>
<g id="a_edge27_Node000020_Node000011"><a xlink:title=" ">
<path fill="none" stroke="#63b8ff" d="M170.17,-73.35C180.65,-84.25 197.32,-102.62 209,-120.47 229.03,-151.07 217.32,-170.57 245,-194.47 246.94,-196.15 249.04,-197.67 251.25,-199.05"/>
<polygon fill="#63b8ff" stroke="#63b8ff" points="249.62,-202.15 260.12,-203.55 252.79,-195.9 249.62,-202.15"/>
</a>
</g>
</g>
<!-- Node20&#45;&gt;Node19 -->
<g id="edge26_Node000020_Node000019" class="edge">
<title>Node20&#45;&gt;Node19</title>
<g id="a_edge26_Node000020_Node000019"><a xlink:title=" ">
<path fill="none" stroke="#63b8ff" d="M209.45,-65.58C298.64,-69.4 485.5,-77.42 565.49,-80.85"/>
<polygon fill="#63b8ff" stroke="#63b8ff" points="565.28,-84.35 575.42,-81.28 565.58,-77.36 565.28,-84.35"/>
</a>
</g>
</g>
</g>
</svg>
