<?xml version="1.0" encoding="UTF-8" standalone="no"?>
<!DOCTYPE svg PUBLIC "-//W3C//DTD SVG 1.1//EN"
 "http://www.w3.org/Graphics/SVG/1.1/DTD/svg11.dtd">
<!-- Generated by graphviz version 14.0.5 (0)
 -->
<!-- Title: espresso.c Pages: 1 -->
<svg width="952pt" height="193pt"
 viewBox="0.00 0.00 952.00 193.00" xmlns="http://www.w3.org/2000/svg" xmlns:xlink="http://www.w3.org/1999/xlink">
<g id="graph0" class="graph" transform="scale(1 1) rotate(0) translate(4 189)">
<title>espresso.c</title>
<!-- Node1 -->
<g id="Node000001" class="node">
<title>Node1</title>
<g id="a_Node000001"><a xlink:title=" ">
<polygon fill="#999999" stroke="#666666" points="515.12,-185 451.88,-185 451.88,-165.75 515.12,-165.75 515.12,-185"/>
<text xml:space="preserve" text-anchor="middle" x="483.5" y="-171.5" font-family="Helvetica,sans-Serif" font-size="10.00">espresso.c</text>
</a>
</g>
</g>
<!-- Node2 -->
<g id="Node000002" class="node">
<title>Node2</title>
<g id="a_Node000002"><a xlink:title=" ">
<polygon fill="#e0e0e0" stroke="#999999" points="61,-74.5 0,-74.5 0,-55.25 61,-55.25 61,-74.5"/>
<text xml:space="preserve" text-anchor="middle" x="30.5" y="-61" font-family="Helvetica,sans-Serif" font-size="10.00">arpa/inet.h</text>
</a>
</g>
</g>
<!-- Node1&#45;&gt;Node2 -->
<g id="edge1_Node000001_Node000002" class="edge">
<title>Node1&#45;&gt;Node2</title>
<g id="a_edge1_Node000001_Node000002"><a xlink:title=" ">
<path fill="none" stroke="#63b8ff" d="M451.59,-171.34C399.17,-165.91 291.84,-152.86 203.5,-129.75 152.49,-116.41 95.52,-93.8 61.37,-79.37"/>
<polygon fill="#63b8ff" stroke="#63b8ff" points="63.08,-76.29 52.51,-75.58 60.33,-82.73 63.08,-76.29"/>
</a>
</g>
</g>
<!-- Node3 -->
<g id="Node000003" class="node">
<title>Node3</title>
<g id="a_Node000003"><a xlink:title=" ">
<polygon fill="#e0e0e0" stroke="#999999" points="142.12,-74.5 78.88,-74.5 78.88,-55.25 142.12,-55.25 142.12,-74.5"/>
<text xml:space="preserve" text-anchor="middle" x="110.5" y="-61" font-family="Helvetica,sans-Serif" font-size="10.00">netinet/in.h</text>
</a>
</g>
</g>
<!-- Node1&#45;&gt;Node3 -->
<g id="edge2_Node000001_Node000003" class="edge">
<title>Node1&#45;&gt;Node3</title>
<g id="a_edge2_Node000001_Node000003"><a xlink:title=" ">
<path fill="none" stroke="#63b8ff" d="M451.52,-170.27C407.24,-164.1 325.08,-150.83 257.5,-129.75 214.4,-116.3 166.87,-94.24 137.85,-79.88"/>
<polygon fill="#63b8ff" stroke="#63b8ff" points="139.55,-76.82 129.04,-75.47 136.41,-83.08 139.55,-76.82"/>
</a>
</g>
</g>
<!-- Node4 -->
<g id="Node000004" class="node">
<title>Node4</title>
<g id="a_Node000004"><a xlink:title=" ">
<polygon fill="#e0e0e0" stroke="#999999" points="216.38,-74.5 160.62,-74.5 160.62,-55.25 216.38,-55.25 216.38,-74.5"/>
<text xml:space="preserve" text-anchor="middle" x="188.5" y="-61" font-family="Helvetica,sans-Serif" font-size="10.00">pthread.h</text>
</a>
</g>
</g>
<!-- Node1&#45;&gt;Node4 -->
<g id="edge3_Node000001_Node000004" class="edge">
<title>Node1&#45;&gt;Node4</title>
<g id="a_edge3_Node000001_Node000004"><a xlink:title=" ">
<path fill="none" stroke="#63b8ff" d="M451.4,-169.44C414,-163.05 350.78,-150.24 299.5,-129.75 266.88,-116.72 232.25,-95.45 210.51,-81.07"/>
<polygon fill="#63b8ff" stroke="#63b8ff" points="212.72,-78.33 202.47,-75.66 208.81,-84.14 212.72,-78.33"/>
</a>
</g>
</g>
<!-- Node5 -->
<g id="Node000005" class="node">
<title>Node5</title>
<g id="a_Node000005"><a xlink:title=" ">
<polygon fill="#e0e0e0" stroke="#999999" points="283,-74.5 234,-74.5 234,-55.25 283,-55.25 283,-74.5"/>
<text xml:space="preserve" text-anchor="middle" x="258.5" y="-61" font-family="Helvetica,sans-Serif" font-size="10.00">signal.h</text>
</a>
</g>
</g>
<!-- Node1&#45;&gt;Node5 -->
<g id="edge4_Node000001_Node000005" class="edge">
<title>Node1&#45;&gt;Node5</title>
<g id="a_edge4_Node000001_Node000005"><a xlink:title=" ">
<path fill="none" stroke="#63b8ff" d="M451.5,-169.44C419.17,-163.49 368.55,-151.46 329.5,-129.75 307.63,-117.59 286.86,-97.57 273.51,-83.18"/>
<polygon fill="#63b8ff" stroke="#63b8ff" points="276.16,-80.89 266.87,-75.8 270.96,-85.57 276.16,-80.89"/>
</a>
</g>
</g>
<!-- Node6 -->
<g id="Node000006" class="node">
<title>Node6</title>
<g id="a_Node000006"><a xlink:title=" ">
<polygon fill="#e0e0e0" stroke="#999999" points="639.88,-129.75 587.12,-129.75 587.12,-110.5 639.88,-110.5 639.88,-129.75"/>
<text xml:space="preserve" text-anchor="middle" x="613.5" y="-116.25" font-family="Helvetica,sans-Serif" font-size="10.00">strings.h</text>
</a>
</g>
</g>
<!-- Node1&#45;&gt;Node6 -->
<g id="edge5_Node000001_Node000006" class="edge">
<title>Node1&#45;&gt;Node6</title>
<g id="a_edge5_Node000001_Node000006"><a xlink:title=" ">
<path fill="none" stroke="#63b8ff" d="M505.55,-165.34C526.19,-156.89 557.28,-144.15 580.8,-134.52"/>
<polygon fill="#63b8ff" stroke="#63b8ff" points="582.01,-137.81 589.94,-130.78 579.36,-131.33 582.01,-137.81"/>
</a>
</g>
</g>
<!-- Node7 -->
<g id="Node000007" class="node">
<title>Node7</title>
<g id="a_Node000007"><a xlink:title=" ">
<polygon fill="#e0e0e0" stroke="#999999" points="728.88,-129.75 658.12,-129.75 658.12,-110.5 728.88,-110.5 728.88,-129.75"/>
<text xml:space="preserve" text-anchor="middle" x="693.5" y="-116.25" font-family="Helvetica,sans-Serif" font-size="10.00">sys/socket.h</text>
</a>
</g>
</g>
<!-- Node1&#45;&gt;Node7 -->
<g id="edge6_Node000001_Node000007" class="edge">
<title>Node1&#45;&gt;Node7</title>
<g id="a_edge6_Node000001_Node000007"><a xlink:title=" ">
<path fill="none" stroke="#63b8ff" d="M515.39,-166.29C550.35,-157.42 606.76,-143.12 646.72,-132.99"/>
<polygon fill="#63b8ff" stroke="#63b8ff" points="647.48,-136.4 656.32,-130.55 645.76,-129.62 647.48,-136.4"/>
</a>
</g>
</g>
<!-- Node8 -->
<g id="Node000008" class="node">
<title>Node8</title>
<g id="a_Node000008"><a xlink:title=" ">
<polygon fill="#e0e0e0" stroke="#999999" points="811.88,-129.75 747.12,-129.75 747.12,-110.5 811.88,-110.5 811.88,-129.75"/>
<text xml:space="preserve" text-anchor="middle" x="779.5" y="-116.25" font-family="Helvetica,sans-Serif" font-size="10.00">sys/types.h</text>
</a>
</g>
</g>
<!-- Node1&#45;&gt;Node8 -->
<g id="edge7_Node000001_Node000008" class="edge">
<title>Node1&#45;&gt;Node8</title>
<g id="a_edge7_Node000001_Node000008"><a xlink:title=" ">
<path fill="none" stroke="#63b8ff" d="M515.23,-169.1C561.34,-161.37 649.83,-146.29 735.69,-130.05"/>
<polygon fill="#63b8ff" stroke="#63b8ff" points="736.3,-133.49 745.47,-128.19 734.99,-126.62 736.3,-133.49"/>
</a>
</g>
</g>
<!-- Node9 -->
<g id="Node000009" class="node">
<title>Node9</title>
<g id="a_Node000009"><a xlink:title=" ">
<polygon fill="#e0e0e0" stroke="#999999" points="350.38,-74.5 300.62,-74.5 300.62,-55.25 350.38,-55.25 350.38,-74.5"/>
<text xml:space="preserve" text-anchor="middle" x="325.5" y="-61" font-family="Helvetica,sans-Serif" font-size="10.00">unistd.h</text>
</a>
</g>
</g>
<!-- Node1&#45;&gt;Node9 -->
<g id="edge8_Node000001_Node000009" class="edge">
<title>Node1&#45;&gt;Node9</title>
<g id="a_edge8_Node000001_Node000009"><a xlink:title=" ">
<path fill="none" stroke="#63b8ff" d="M451.49,-172.48C420.07,-168.92 372.86,-158.73 344.5,-129.75 333.1,-118.1 328.49,-99.93 326.65,-85.94"/>
<polygon fill="#63b8ff" stroke="#63b8ff" points="330.15,-85.73 325.77,-76.09 323.18,-86.36 330.15,-85.73"/>
</a>
</g>
</g>
<!-- Node10 -->
<g id="Node000010" class="node">
<title>Node10</title>
<g id="a_Node000010"><a xlink:href="espresso_8h.html" target="_top" xlink:title="Espresso &#45; lightweight Express&#45;like HTTP framework for C.">
<polygon fill="white" stroke="#666666" points="417.12,-129.75 353.88,-129.75 353.88,-110.5 417.12,-110.5 417.12,-129.75"/>
<text xml:space="preserve" text-anchor="middle" x="385.5" y="-116.25" font-family="Helvetica,sans-Serif" font-size="10.00">espresso.h</text>
</a>
</g>
</g>
<!-- Node1&#45;&gt;Node10 -->
<g id="edge9_Node000001_Node000010" class="edge">
<title>Node1&#45;&gt;Node10</title>
<g id="a_edge9_Node000001_Node000010"><a xlink:title=" ">
<path fill="none" stroke="#63b8ff" d="M466.88,-165.34C451.81,-157.16 429.36,-144.96 411.85,-135.44"/>
<polygon fill="#63b8ff" stroke="#63b8ff" points="413.99,-132.62 403.54,-130.93 410.65,-138.77 413.99,-132.62"/>
</a>
</g>
</g>
<!-- Node11 -->
<g id="Node000011" class="node">
<title>Node11</title>
<g id="a_Node000011"><a xlink:href="cJSON_8h.html" target="_top" xlink:title=" ">
<polygon fill="white" stroke="#666666" points="557.12,-74.5 433.88,-74.5 433.88,-55.25 557.12,-55.25 557.12,-74.5"/>
<text xml:space="preserve" text-anchor="middle" x="495.5" y="-61" font-family="Helvetica,sans-Serif" font-size="10.00">vendor/cJSON/cJSON.h</text>
</a>
</g>
</g>
<!-- Node1&#45;&gt;Node11 -->
<g id="edge21_Node000001_Node000011" class="edge">
<title>Node1&#45;&gt;Node11</title>
<g id="a_edge21_Node000001_Node000011"><a xlink:title=" ">
<path fill="none" stroke="#63b8ff" d="M478.93,-165.63C473.06,-153.27 464.23,-130.01 469.5,-110.5 472.01,-101.22 476.98,-91.88 481.91,-84.16"/>
<polygon fill="#63b8ff" stroke="#63b8ff" points="484.71,-86.27 487.51,-76.05 478.95,-82.29 484.71,-86.27"/>
</a>
</g>
</g>
<!-- Node13 -->
<g id="Node000013" class="node">
<title>Node13</title>
<g id="a_Node000013"><a xlink:title=" ">
<polygon fill="#e0e0e0" stroke="#999999" points="621.88,-74.5 575.12,-74.5 575.12,-55.25 621.88,-55.25 621.88,-74.5"/>
<text xml:space="preserve" text-anchor="middle" x="598.5" y="-61" font-family="Helvetica,sans-Serif" font-size="10.00">ctype.h</text>
</a>
</g>
</g>
<!-- Node1&#45;&gt;Node13 -->
<g id="edge22_Node000001_Node000013" class="edge">
<title>Node1&#45;&gt;Node13</title>
<g id="a_edge22_Node000001_Node000013"><a xlink:title=" ">
<path fill="none" stroke="#63b8ff" d="M484.72,-165.45C486.99,-152.01 493.01,-126.46 507.5,-110.5 522.63,-93.84 545.35,-82.69 564.31,-75.7"/>
<polygon fill="#63b8ff" stroke="#63b8ff" points="565.19,-79.1 573.52,-72.54 562.92,-72.47 565.19,-79.1"/>
</a>
</g>
</g>
<!-- Node14 -->
<g id="Node000014" class="node">
<title>Node14</title>
<g id="a_Node000014"><a xlink:title=" ">
<polygon fill="#e0e0e0" stroke="#999999" points="684.75,-74.5 640.25,-74.5 640.25,-55.25 684.75,-55.25 684.75,-74.5"/>
<text xml:space="preserve" text-anchor="middle" x="662.5" y="-61" font-family="Helvetica,sans-Serif" font-size="10.00">stdio.h</text>
</a>
</g>
</g>
<!-- Node1&#45;&gt;Node14 -->
<g id="edge25_Node000001_Node000014" class="edge">
<title>Node1&#45;&gt;Node14</title>
<g id="a_edge25_Node000001_Node000014"><a xlink:title=" ">
<path fill="none" stroke="#63b8ff" d="M490.16,-165.33C500.58,-151.73 522.01,-125.97 545.5,-110.5 559.63,-101.2 599.81,-86.71 629.16,-76.79"/>
<polygon fill="#63b8ff" stroke="#63b8ff" points="629.99,-80.2 638.36,-73.71 627.77,-73.56 629.99,-80.2"/>
</a>
</g>
</g>
<!-- Node15 -->
<g id="Node000015" class="node">
<title>Node15</title>
<g id="a_Node000015"><a xlink:title=" ">
<polygon fill="#e0e0e0" stroke="#999999" points="749.88,-74.5 703.12,-74.5 703.12,-55.25 749.88,-55.25 749.88,-74.5"/>
<text xml:space="preserve" text-anchor="middle" x="726.5" y="-61" font-family="Helvetica,sans-Serif" font-size="10.00">stdlib.h</text>
</a>
</g>
</g>
<!-- Node1&#45;&gt;Node15 -->
<g id="edge26_Node000001_Node000015" class="edge">
<title>Node1&#45;&gt;Node15</title>
<g id="a_edge26_Node000001_Node000015"><a xlink:title=" ">
<path fill="none" stroke="#63b8ff" d="M495.78,-165.44C517.37,-149.85 561.44,-118.58 578.5,-110.5 598.61,-100.97 654.78,-85.06 691.84,-75.04"/>
<polygon fill="#63b8ff" stroke="#63b8ff" points="692.46,-78.49 701.21,-72.52 690.65,-71.73 692.46,-78.49"/>
</a>
</g>
</g>
<!-- Node17 -->
<g id="Node000017" class="node">
<title>Node17</title>
<g id="a_Node000017"><a xlink:title=" ">
<polygon fill="#e0e0e0" stroke="#999999" points="875.12,-129.75 829.88,-129.75 829.88,-110.5 875.12,-110.5 875.12,-129.75"/>
<text xml:space="preserve" text-anchor="middle" x="852.5" y="-116.25" font-family="Helvetica,sans-Serif" font-size="10.00">errno.h</text>
</a>
</g>
</g>
<!-- Node1&#45;&gt;Node17 -->
<g id="edge23_Node000001_Node000017" class="edge">
<title>Node1&#45;&gt;Node17</title>
<g id="a_edge23_Node000001_Node000017"><a xlink:title=" ">
<path fill="none" stroke="#63b8ff" d="M515.32,-171.57C573.56,-166.14 701.34,-152.82 818.57,-129.88"/>
<polygon fill="#63b8ff" stroke="#63b8ff" points="818.9,-133.39 828.03,-128 817.54,-126.52 818.9,-133.39"/>
</a>
</g>
</g>
<!-- Node18 -->
<g id="Node000018" class="node">
<title>Node18</title>
<g id="a_Node000018"><a xlink:title=" ">
<polygon fill="#e0e0e0" stroke="#999999" points="943.75,-129.75 893.25,-129.75 893.25,-110.5 943.75,-110.5 943.75,-129.75"/>
<text xml:space="preserve" text-anchor="middle" x="918.5" y="-116.25" font-family="Helvetica,sans-Serif" font-size="10.00">stdarg.h</text>
</a>
</g>
</g>
<!-- Node1&#45;&gt;Node18 -->
<g id="edge24_Node000001_Node000018" class="edge">
<title>Node1&#45;&gt;Node18</title>
<g id="a_edge24_Node000001_Node000018"><a xlink:title=" ">
<path fill="none" stroke="#63b8ff" d="M515.43,-172.32C581.89,-167.73 740.08,-155.13 881.91,-129.99"/>
<polygon fill="#63b8ff" stroke="#63b8ff" points="882.25,-133.49 891.47,-128.27 881.01,-126.6 882.25,-133.49"/>
</a>
</g>
</g>
<!-- Node10&#45;&gt;Node2 -->
<g id="edge16_Node000010_Node000002" class="edge">
<title>Node10&#45;&gt;Node2</title>
<g id="a_edge16_Node000010_Node000002"><a xlink:title=" ">
<path fill="none" stroke="#63b8ff" d="M353.52,-115.44C298.23,-108.89 180.95,-94.21 72.27,-74.89"/>
<polygon fill="#63b8ff" stroke="#63b8ff" points="73.06,-71.47 62.6,-73.15 71.82,-78.36 73.06,-71.47"/>
</a>
</g>
</g>
<!-- Node10&#45;&gt;Node3 -->
<g id="edge17_Node000010_Node000003" class="edge">
<title>Node10&#45;&gt;Node3</title>
<g id="a_edge17_Node000010_Node000003"><a xlink:title=" ">
<path fill="none" stroke="#63b8ff" d="M353.67,-113.25C310.64,-105.27 231.23,-90.39 153.26,-74.82"/>
<polygon fill="#63b8ff" stroke="#63b8ff" points="154.25,-71.45 143.76,-72.92 152.87,-78.31 154.25,-71.45"/>
</a>
</g>
</g>
<!-- Node10&#45;&gt;Node4 -->
<g id="edge18_Node000010_Node000004" class="edge">
<title>Node10&#45;&gt;Node4</title>
<g id="a_edge18_Node000010_Node000004"><a xlink:title=" ">
<path fill="none" stroke="#63b8ff" d="M353.41,-110.45C319.03,-101.16 264.43,-86.4 227.57,-76.44"/>
<polygon fill="#63b8ff" stroke="#63b8ff" points="228.77,-73.13 218.2,-73.9 226.94,-79.89 228.77,-73.13"/>
</a>
</g>
</g>
<!-- Node10&#45;&gt;Node5 -->
<g id="edge19_Node000010_Node000005" class="edge">
<title>Node10&#45;&gt;Node5</title>
<g id="a_edge19_Node000010_Node000005"><a xlink:title=" ">
<path fill="none" stroke="#63b8ff" d="M363.96,-110.09C343.89,-101.68 313.7,-89.02 290.75,-79.4"/>
<polygon fill="#63b8ff" stroke="#63b8ff" points="292.12,-76.18 281.55,-75.54 289.41,-82.63 292.12,-76.18"/>
</a>
</g>
</g>
<!-- Node10&#45;&gt;Node9 -->
<g id="edge20_Node000010_Node000009" class="edge">
<title>Node10&#45;&gt;Node9</title>
<g id="a_edge20_Node000010_Node000009"><a xlink:title=" ">
<path fill="none" stroke="#63b8ff" d="M375.32,-110.09C366.74,-102.47 354.23,-91.37 343.9,-82.2"/>
<polygon fill="#63b8ff" stroke="#63b8ff" points="346.46,-79.8 336.66,-75.78 341.82,-85.04 346.46,-79.8"/>
</a>
</g>
</g>
<!-- Node10&#45;&gt;Node11 -->
<g id="edge10_Node000010_Node000011" class="edge">
<title>Node10&#45;&gt;Node11</title>
<g id="a_edge10_Node000010_Node000011"><a xlink:title=" ">
<path fill="none" stroke="#63b8ff" d="M404.16,-110.09C421.23,-101.83 446.74,-89.48 466.47,-79.93"/>
<polygon fill="#63b8ff" stroke="#63b8ff" points="467.91,-83.12 475.39,-75.61 464.86,-76.82 467.91,-83.12"/>
</a>
</g>
</g>
<!-- Node10&#45;&gt;Node13 -->
<g id="edge12_Node000010_Node000013" class="edge">
<title>Node10&#45;&gt;Node13</title>
<g id="a_edge12_Node000010_Node000013"><a xlink:title=" ">
<path fill="none" stroke="#63b8ff" d="M417.59,-111.43C451.62,-103.23 507.22,-89.69 563.8,-75.16"/>
<polygon fill="#63b8ff" stroke="#63b8ff" points="564.47,-78.6 573.28,-72.72 562.73,-71.82 564.47,-78.6"/>
</a>
</g>
</g>
<!-- Node10&#45;&gt;Node14 -->
<g id="edge13_Node000010_Node000014" class="edge">
<title>Node10&#45;&gt;Node14</title>
<g id="a_edge13_Node000010_Node000014"><a xlink:title=" ">
<path fill="none" stroke="#63b8ff" d="M417.39,-114.19C462.28,-107.04 546.9,-92.9 628.82,-74.71"/>
<polygon fill="#63b8ff" stroke="#63b8ff" points="629.37,-78.17 638.36,-72.57 627.83,-71.34 629.37,-78.17"/>
</a>
</g>
</g>
<!-- Node10&#45;&gt;Node15 -->
<g id="edge14_Node000010_Node000015" class="edge">
<title>Node10&#45;&gt;Node15</title>
<g id="a_edge14_Node000010_Node000015"><a xlink:title=" ">
<path fill="none" stroke="#63b8ff" d="M417.18,-115.72C471.32,-109.65 585.27,-95.76 691.53,-74.68"/>
<polygon fill="#63b8ff" stroke="#63b8ff" points="692.18,-78.12 701.3,-72.71 690.8,-71.25 692.18,-78.12"/>
</a>
</g>
</g>
<!-- Node16 -->
<g id="Node000016" class="node">
<title>Node16</title>
<g id="a_Node000016"><a xlink:title=" ">
<polygon fill="#e0e0e0" stroke="#999999" points="416.25,-74.5 368.75,-74.5 368.75,-55.25 416.25,-55.25 416.25,-74.5"/>
<text xml:space="preserve" text-anchor="middle" x="392.5" y="-61" font-family="Helvetica,sans-Serif" font-size="10.00">string.h</text>
</a>
</g>
</g>
<!-- Node10&#45;&gt;Node16 -->
<g id="edge15_Node000010_Node000016" class="edge">
<title>Node10&#45;&gt;Node16</title>
<g id="a_edge15_Node000010_Node000016"><a xlink:title=" ">
<path fill="none" stroke="#63b8ff" d="M386.66,-110.33C387.52,-103.74 388.74,-94.46 389.84,-86.07"/>
<polygon fill="#63b8ff" stroke="#63b8ff" points="393.29,-86.73 391.12,-76.36 386.35,-85.82 393.29,-86.73"/>
</a>
</g>
</g>
<!-- Node12 -->
<g id="Node000012" class="node">
<title>Node12</title>
<g id="a_Node000012"><a xlink:title=" ">
<polygon fill="#e0e0e0" stroke="#999999" points="520.75,-19.25 470.25,-19.25 470.25,0 520.75,0 520.75,-19.25"/>
<text xml:space="preserve" text-anchor="middle" x="495.5" y="-5.75" font-family="Helvetica,sans-Serif" font-size="10.00">stddef.h</text>
</a>
</g>
</g>
<!-- Node11&#45;&gt;Node12 -->
<g id="edge11_Node000011_Node000012" class="edge">
<title>Node11&#45;&gt;Node12</title>
<g id="a_edge11_Node000011_Node000012"><a xlink:title=" ">
<path fill="none" stroke="#63b8ff" d="M495.5,-55.08C495.5,-48.57 495.5,-39.42 495.5,-31.12"/>
<polygon fill="#63b8ff" stroke="#63b8ff" points="499,-31.12 495.5,-21.12 492,-31.12 499,-31.12"/>
</a>
</g>
</g>
</g>
</svg>
