<?xml version="1.0" encoding="UTF-8" standalone="no"?>
<!DOCTYPE svg PUBLIC "-//W3C//DTD SVG 1.1//EN"
 "http://www.w3.org/Graphics/SVG/1.1/DTD/svg11.dtd">
<!-- Generated by graphviz version 14.0.5 (0)
 -->
<!-- Title: _app_append_endpoint_to_group Pages: 1 -->
<svg width="365pt" height="52pt"
 viewBox="0.00 0.00 365.00 52.00" xmlns="http://www.w3.org/2000/svg" xmlns:xlink="http://www.w3.org/1999/xlink">
<g id="graph0" class="graph" transform="scale(1 1) rotate(0) translate(4 47.88)">
<title>_app_append_endpoint_to_group</title>
<!-- Node1 -->
<g id="Node000001" class="node">
<title>Node1</title>
<g id="a_Node000001"><a xlink:title="Appends a route to a group.">
<polygon fill="#999999" stroke="#666666" points="115.75,-30.5 0,-30.5 0,0 115.75,0 115.75,-30.5"/>
<text xml:space="preserve" text-anchor="start" x="8" y="-17" font-family="Helvetica,sans-Serif" font-size="10.00">_app_append_endpoint</text>
<text xml:space="preserve" text-anchor="middle" x="57.88" y="-5.75" font-family="Helvetica,sans-Serif" font-size="10.00">_to_group</text>
</a>
</g>
</g>
<!-- Node2 -->
<g id="Node000002" class="node">
<title>Node2</title>
<g id="a_Node000002"><a xlink:href="espresso_8c.html#a60f89d5029f2a26d41bb861d538d2bf6" target="_top" xlink:title="Appends a route to the app.">
<polygon fill="white" stroke="#666666" points="267.5,-43.88 151.75,-43.88 151.75,-24.62 267.5,-24.62 267.5,-43.88"/>
<text xml:space="preserve" text-anchor="middle" x="209.62" y="-30.38" font-family="Helvetica,sans-Serif" font-size="10.00">_app_append_endpoint</text>
</a>
</g>
</g>
<!-- Node1&#45;&gt;Node2 -->
<g id="edge1_Node000001_Node000002" class="edge">
<title>Node1&#45;&gt;Node2</title>
<g id="a_edge1_Node000001_Node000002"><a xlink:title=" ">
<path fill="none" stroke="#63b8ff" d="M115.92,-22.49C123.99,-23.51 132.35,-24.57 140.6,-25.62"/>
<polygon fill="#63b8ff" stroke="#63b8ff" points="139.88,-29.06 150.24,-26.84 140.76,-22.11 139.88,-29.06"/>
</a>
</g>
</g>
<!-- Node3 -->
<g id="Node000003" class="node">
<title>Node3</title>
<g id="a_Node000003"><a xlink:href="espresso_8c.html#abdcfd909d1360f16c6fedab5aac76f2a" target="_top" xlink:title=" ">
<polygon fill="white" stroke="#666666" points="357,-24.88 303.5,-24.88 303.5,-5.63 357,-5.63 357,-24.88"/>
<text xml:space="preserve" text-anchor="middle" x="330.25" y="-11.38" font-family="Helvetica,sans-Serif" font-size="10.00">log_error</text>
</a>
</g>
</g>
<!-- Node1&#45;&gt;Node3 -->
<g id="edge3_Node000001_Node000003" class="edge">
<title>Node1&#45;&gt;Node3</title>
<g id="a_edge3_Node000001_Node000003"><a xlink:title=" ">
<path fill="none" stroke="#63b8ff" d="M116.21,-15.25C169.15,-15.25 246.24,-15.25 291.72,-15.25"/>
<polygon fill="#63b8ff" stroke="#63b8ff" points="291.6,-18.75 301.6,-15.25 291.6,-11.75 291.6,-18.75"/>
</a>
</g>
</g>
<!-- Node2&#45;&gt;Node3 -->
<g id="edge2_Node000002_Node000003" class="edge">
<title>Node2&#45;&gt;Node3</title>
<g id="a_edge2_Node000002_Node000003"><a xlink:title=" ">
<path fill="none" stroke="#63b8ff" d="M267.85,-25.08C276.04,-23.77 284.27,-22.45 291.94,-21.23"/>
<polygon fill="#63b8ff" stroke="#63b8ff" points="292.24,-24.72 301.56,-19.69 291.13,-17.81 292.24,-24.72"/>
</a>
</g>
</g>
</g>
</svg>
