<?xml version="1.0" encoding="UTF-8" standalone="no"?>
<!DOCTYPE svg PUBLIC "-//W3C//DTD SVG 1.1//EN"
 "http://www.w3.org/Graphics/SVG/1.1/DTD/svg11.dtd">
<!-- Generated by graphviz version 14.0.5 (0)
 -->
<!-- Title: espresso.h Pages: 1 -->
<svg width="818pt" height="138pt"
 viewBox="0.00 0.00 818.00 138.00" xmlns="http://www.w3.org/2000/svg" xmlns:xlink="http://www.w3.org/1999/xlink">
<g id="graph0" class="graph" transform="scale(1 1) rotate(0) translate(4 133.75)">
<title>espresso.h</title>
<!-- Node1 -->
<g id="Node000001" class="node">
<title>Node1</title>
<g id="a_Node000001"><a xlink:title="Espresso &#45; lightweight Express&#45;like HTTP framework for C.">
<polygon fill="#999999" stroke="#666666" points="504,-129.75 440.75,-129.75 440.75,-110.5 504,-110.5 504,-129.75"/>
<text xml:space="preserve" text-anchor="middle" x="472.38" y="-116.25" font-family="Helvetica,sans-Serif" font-size="10.00">espresso.h</text>
</a>
</g>
</g>
<!-- Node2 -->
<g id="Node000002" class="node">
<title>Node2</title>
<g id="a_Node000002"><a xlink:href="cJSON_8h.html" target="_top" xlink:title=" ">
<polygon fill="white" stroke="#666666" points="130.75,-74.5 0,-74.5 0,-55.25 130.75,-55.25 130.75,-74.5"/>
<text xml:space="preserve" text-anchor="middle" x="65.38" y="-61" font-family="Helvetica,sans-Serif" font-size="10.00">../vendor/cJSON/cJSON.h</text>
</a>
</g>
</g>
<!-- Node1&#45;&gt;Node2 -->
<g id="edge1_Node000001_Node000002" class="edge">
<title>Node1&#45;&gt;Node2</title>
<g id="a_edge1_Node000001_Node000002"><a xlink:title=" ">
<path fill="none" stroke="#63b8ff" d="M440.44,-114.95C376.73,-106.61 232.27,-87.71 142.38,-75.95"/>
<polygon fill="#63b8ff" stroke="#63b8ff" points="143.03,-72.5 132.66,-74.68 142.12,-79.45 143.03,-72.5"/>
</a>
</g>
</g>
<!-- Node4 -->
<g id="Node000004" class="node">
<title>Node4</title>
<g id="a_Node000004"><a xlink:title=" ">
<polygon fill="#e0e0e0" stroke="#999999" points="209.88,-74.5 148.88,-74.5 148.88,-55.25 209.88,-55.25 209.88,-74.5"/>
<text xml:space="preserve" text-anchor="middle" x="179.38" y="-61" font-family="Helvetica,sans-Serif" font-size="10.00">arpa/inet.h</text>
</a>
</g>
</g>
<!-- Node1&#45;&gt;Node4 -->
<g id="edge3_Node000001_Node000004" class="edge">
<title>Node1&#45;&gt;Node4</title>
<g id="a_edge3_Node000001_Node000004"><a xlink:title=" ">
<path fill="none" stroke="#63b8ff" d="M440.35,-113.88C394.29,-106.24 306.38,-91.34 221.5,-74.85"/>
<polygon fill="#63b8ff" stroke="#63b8ff" points="222.33,-71.45 211.85,-72.97 220.99,-78.32 222.33,-71.45"/>
</a>
</g>
</g>
<!-- Node5 -->
<g id="Node000005" class="node">
<title>Node5</title>
<g id="a_Node000005"><a xlink:title=" ">
<polygon fill="#e0e0e0" stroke="#999999" points="274.75,-74.5 228,-74.5 228,-55.25 274.75,-55.25 274.75,-74.5"/>
<text xml:space="preserve" text-anchor="middle" x="251.38" y="-61" font-family="Helvetica,sans-Serif" font-size="10.00">ctype.h</text>
</a>
</g>
</g>
<!-- Node1&#45;&gt;Node5 -->
<g id="edge4_Node000001_Node000005" class="edge">
<title>Node1&#45;&gt;Node5</title>
<g id="a_edge4_Node000001_Node000005"><a xlink:title=" ">
<path fill="none" stroke="#63b8ff" d="M440.53,-111.93C405.11,-103.85 345.91,-90.15 286.26,-75.17"/>
<polygon fill="#63b8ff" stroke="#63b8ff" points="287.14,-71.79 276.59,-72.73 285.43,-78.57 287.14,-71.79"/>
</a>
</g>
</g>
<!-- Node6 -->
<g id="Node000006" class="node">
<title>Node6</title>
<g id="a_Node000006"><a xlink:title=" ">
<polygon fill="#e0e0e0" stroke="#999999" points="356,-74.5 292.75,-74.5 292.75,-55.25 356,-55.25 356,-74.5"/>
<text xml:space="preserve" text-anchor="middle" x="324.38" y="-61" font-family="Helvetica,sans-Serif" font-size="10.00">netinet/in.h</text>
</a>
</g>
</g>
<!-- Node1&#45;&gt;Node6 -->
<g id="edge5_Node000001_Node000006" class="edge">
<title>Node1&#45;&gt;Node6</title>
<g id="a_edge5_Node000001_Node000006"><a xlink:title=" ">
<path fill="none" stroke="#63b8ff" d="M447.27,-110.09C423.35,-101.49 387.09,-88.44 360.15,-78.75"/>
<polygon fill="#63b8ff" stroke="#63b8ff" points="361.62,-75.56 351.03,-75.46 359.25,-82.14 361.62,-75.56"/>
</a>
</g>
</g>
<!-- Node7 -->
<g id="Node000007" class="node">
<title>Node7</title>
<g id="a_Node000007"><a xlink:title=" ">
<polygon fill="#e0e0e0" stroke="#999999" points="430.25,-74.5 374.5,-74.5 374.5,-55.25 430.25,-55.25 430.25,-74.5"/>
<text xml:space="preserve" text-anchor="middle" x="402.38" y="-61" font-family="Helvetica,sans-Serif" font-size="10.00">pthread.h</text>
</a>
</g>
</g>
<!-- Node1&#45;&gt;Node7 -->
<g id="edge6_Node000001_Node000007" class="edge">
<title>Node1&#45;&gt;Node7</title>
<g id="a_edge6_Node000001_Node000007"><a xlink:title=" ">
<path fill="none" stroke="#63b8ff" d="M460.5,-110.09C450.28,-102.32 435.3,-90.92 423.11,-81.65"/>
<polygon fill="#63b8ff" stroke="#63b8ff" points="425.36,-78.96 415.28,-75.69 421.12,-84.53 425.36,-78.96"/>
</a>
</g>
</g>
<!-- Node8 -->
<g id="Node000008" class="node">
<title>Node8</title>
<g id="a_Node000008"><a xlink:title=" ">
<polygon fill="#e0e0e0" stroke="#999999" points="496.88,-74.5 447.88,-74.5 447.88,-55.25 496.88,-55.25 496.88,-74.5"/>
<text xml:space="preserve" text-anchor="middle" x="472.38" y="-61" font-family="Helvetica,sans-Serif" font-size="10.00">signal.h</text>
</a>
</g>
</g>
<!-- Node1&#45;&gt;Node8 -->
<g id="edge7_Node000001_Node000008" class="edge">
<title>Node1&#45;&gt;Node8</title>
<g id="a_edge7_Node000001_Node000008"><a xlink:title=" ">
<path fill="none" stroke="#63b8ff" d="M472.38,-110.33C472.38,-103.82 472.38,-94.67 472.38,-86.37"/>
<polygon fill="#63b8ff" stroke="#63b8ff" points="475.88,-86.37 472.38,-76.37 468.88,-86.37 475.88,-86.37"/>
</a>
</g>
</g>
<!-- Node9 -->
<g id="Node000009" class="node">
<title>Node9</title>
<g id="a_Node000009"><a xlink:title=" ">
<polygon fill="#e0e0e0" stroke="#999999" points="559.62,-74.5 515.12,-74.5 515.12,-55.25 559.62,-55.25 559.62,-74.5"/>
<text xml:space="preserve" text-anchor="middle" x="537.38" y="-61" font-family="Helvetica,sans-Serif" font-size="10.00">stdio.h</text>
</a>
</g>
</g>
<!-- Node1&#45;&gt;Node9 -->
<g id="edge8_Node000001_Node000009" class="edge">
<title>Node1&#45;&gt;Node9</title>
<g id="a_edge8_Node000001_Node000009"><a xlink:title=" ">
<path fill="none" stroke="#63b8ff" d="M483.4,-110.09C492.8,-102.4 506.52,-91.15 517.78,-81.93"/>
<polygon fill="#63b8ff" stroke="#63b8ff" points="519.82,-84.78 525.34,-75.73 515.39,-79.36 519.82,-84.78"/>
</a>
</g>
</g>
<!-- Node10 -->
<g id="Node000010" class="node">
<title>Node10</title>
<g id="a_Node000010"><a xlink:title=" ">
<polygon fill="#e0e0e0" stroke="#999999" points="624.75,-74.5 578,-74.5 578,-55.25 624.75,-55.25 624.75,-74.5"/>
<text xml:space="preserve" text-anchor="middle" x="601.38" y="-61" font-family="Helvetica,sans-Serif" font-size="10.00">stdlib.h</text>
</a>
</g>
</g>
<!-- Node1&#45;&gt;Node10 -->
<g id="edge9_Node000001_Node000010" class="edge">
<title>Node1&#45;&gt;Node10</title>
<g id="a_edge9_Node000001_Node000010"><a xlink:title=" ">
<path fill="none" stroke="#63b8ff" d="M494.26,-110.09C514.74,-101.64 545.59,-88.9 568.93,-79.27"/>
<polygon fill="#63b8ff" stroke="#63b8ff" points="570.08,-82.58 577.99,-75.53 567.41,-76.11 570.08,-82.58"/>
</a>
</g>
</g>
<!-- Node11 -->
<g id="Node000011" class="node">
<title>Node11</title>
<g id="a_Node000011"><a xlink:title=" ">
<polygon fill="#e0e0e0" stroke="#999999" points="690.12,-74.5 642.62,-74.5 642.62,-55.25 690.12,-55.25 690.12,-74.5"/>
<text xml:space="preserve" text-anchor="middle" x="666.38" y="-61" font-family="Helvetica,sans-Serif" font-size="10.00">string.h</text>
</a>
</g>
</g>
<!-- Node1&#45;&gt;Node11 -->
<g id="edge10_Node000001_Node000011" class="edge">
<title>Node1&#45;&gt;Node11</title>
<g id="a_edge10_Node000001_Node000011"><a xlink:title=" ">
<path fill="none" stroke="#63b8ff" d="M504.41,-110.33C539.37,-100.74 595.17,-85.42 631.29,-75.51"/>
<polygon fill="#63b8ff" stroke="#63b8ff" points="632.09,-78.91 640.81,-72.89 630.24,-72.16 632.09,-78.91"/>
</a>
</g>
</g>
<!-- Node12 -->
<g id="Node000012" class="node">
<title>Node12</title>
<g id="a_Node000012"><a xlink:title=" ">
<polygon fill="#e0e0e0" stroke="#999999" points="758.25,-74.5 708.5,-74.5 708.5,-55.25 758.25,-55.25 758.25,-74.5"/>
<text xml:space="preserve" text-anchor="middle" x="733.38" y="-61" font-family="Helvetica,sans-Serif" font-size="10.00">unistd.h</text>
</a>
</g>
</g>
<!-- Node1&#45;&gt;Node12 -->
<g id="edge11_Node000001_Node000012" class="edge">
<title>Node1&#45;&gt;Node12</title>
<g id="a_edge11_Node000001_Node000012"><a xlink:title=" ">
<path fill="none" stroke="#63b8ff" d="M504.44,-113.39C546.45,-105.75 622.64,-91.48 697.18,-74.9"/>
<polygon fill="#63b8ff" stroke="#63b8ff" points="697.69,-78.37 706.68,-72.76 696.16,-71.54 697.69,-78.37"/>
</a>
</g>
</g>
<!-- Node13 -->
<g id="Node000013" class="node">
<title>Node13</title>
<g id="a_Node000013"><a xlink:title=" ">
<polygon fill="#e0e0e0" stroke="#999999" points="810.38,-74.5 776.38,-74.5 776.38,-55.25 810.38,-55.25 810.38,-74.5"/>
<text xml:space="preserve" text-anchor="middle" x="793.38" y="-61" font-family="Helvetica,sans-Serif" font-size="10.00">uv.h</text>
</a>
</g>
</g>
<!-- Node1&#45;&gt;Node13 -->
<g id="edge12_Node000001_Node000013" class="edge">
<title>Node1&#45;&gt;Node13</title>
<g id="a_edge12_Node000001_Node000013"><a xlink:title=" ">
<path fill="none" stroke="#63b8ff" d="M504.15,-116.11C556.67,-110.75 664.96,-98.07 765.23,-74.65"/>
<polygon fill="#63b8ff" stroke="#63b8ff" points="765.76,-78.12 774.68,-72.39 764.14,-71.31 765.76,-78.12"/>
</a>
</g>
</g>
<!-- Node3 -->
<g id="Node000003" class="node">
<title>Node3</title>
<g id="a_Node000003"><a xlink:title=" ">
<polygon fill="#e0e0e0" stroke="#999999" points="90.62,-19.25 40.12,-19.25 40.12,0 90.62,0 90.62,-19.25"/>
<text xml:space="preserve" text-anchor="middle" x="65.38" y="-5.75" font-family="Helvetica,sans-Serif" font-size="10.00">stddef.h</text>
</a>
</g>
</g>
<!-- Node2&#45;&gt;Node3 -->
<g id="edge2_Node000002_Node000003" class="edge">
<title>Node2&#45;&gt;Node3</title>
<g id="a_edge2_Node000002_Node000003"><a xlink:title=" ">
<path fill="none" stroke="#63b8ff" d="M65.38,-55.08C65.38,-48.57 65.38,-39.42 65.38,-31.12"/>
<polygon fill="#63b8ff" stroke="#63b8ff" points="68.88,-31.12 65.38,-21.12 61.88,-31.12 68.88,-31.12"/>
</a>
</g>
</g>
</g>
</svg>
