<?xml version="1.0" encoding="UTF-8" standalone="no"?>
<!DOCTYPE svg PUBLIC "-//W3C//DTD SVG 1.1//EN"
 "http://www.w3.org/Graphics/SVG/1.1/DTD/svg11.dtd">
<!-- Generated by graphviz version 14.0.5 (0)
 -->
<!-- Title: set_data_int Pages: 1 -->
<svg width="167pt" height="64pt"
 viewBox="0.00 0.00 167.00 64.00" xmlns="http://www.w3.org/2000/svg" xmlns:xlink="http://www.w3.org/1999/xlink">
<g id="graph0" class="graph" transform="scale(1 1) rotate(0) translate(4 60.25)">
<title>set_data_int</title>
<!-- Node1 -->
<g id="Node000001" class="node">
<title>Node1</title>
<g id="a_Node000001"><a xlink:title="Convenience function to store an integer in the response context.">
<polygon fill="#999999" stroke="#666666" points="69.25,-37.25 0,-37.25 0,-18 69.25,-18 69.25,-37.25"/>
<text xml:space="preserve" text-anchor="middle" x="34.62" y="-23.75" font-family="Helvetica,sans-Serif" font-size="10.00">set_data_int</text>
</a>
</g>
</g>
<!-- Node2 -->
<g id="Node000002" class="node">
<title>Node2</title>
<g id="a_Node000002"><a xlink:href="espresso_8c.html#abdcfd909d1360f16c6fedab5aac76f2a" target="_top" xlink:title=" ">
<polygon fill="white" stroke="#666666" points="158.75,-56.25 105.25,-56.25 105.25,-37 158.75,-37 158.75,-56.25"/>
<text xml:space="preserve" text-anchor="middle" x="132" y="-42.75" font-family="Helvetica,sans-Serif" font-size="10.00">log_error</text>
</a>
</g>
</g>
<!-- Node1&#45;&gt;Node2 -->
<g id="edge1_Node000001_Node000002" class="edge">
<title>Node1&#45;&gt;Node2</title>
<g id="a_edge1_Node000001_Node000002"><a xlink:title=" ">
<path fill="none" stroke="#63b8ff" d="M69.52,-34.38C77.36,-35.94 85.75,-37.61 93.73,-39.2"/>
<polygon fill="#63b8ff" stroke="#63b8ff" points="93.04,-42.63 103.53,-41.15 94.4,-35.77 93.04,-42.63"/>
</a>
</g>
</g>
<!-- Node3 -->
<g id="Node000003" class="node">
<title>Node3</title>
<g id="a_Node000003"><a xlink:href="espresso_8c.html#accb7e84d4d05bf7501d52de24e8b9c9b" target="_top" xlink:title="Set arbitrary data in the response context.">
<polygon fill="white" stroke="#666666" points="158.75,-19.25 105.25,-19.25 105.25,0 158.75,0 158.75,-19.25"/>
<text xml:space="preserve" text-anchor="middle" x="132" y="-5.75" font-family="Helvetica,sans-Serif" font-size="10.00">set_data</text>
</a>
</g>
</g>
<!-- Node1&#45;&gt;Node3 -->
<g id="edge2_Node000001_Node000003" class="edge">
<title>Node1&#45;&gt;Node3</title>
<g id="a_edge2_Node000001_Node000003"><a xlink:title=" ">
<path fill="none" stroke="#63b8ff" d="M69.52,-21.23C77.36,-19.75 85.75,-18.17 93.73,-16.66"/>
<polygon fill="#63b8ff" stroke="#63b8ff" points="94.35,-20.1 103.52,-14.81 93.05,-13.23 94.35,-20.1"/>
</a>
</g>
</g>
</g>
</svg>
