<?xml version="1.0" encoding="UTF-8" standalone="no"?>
<!DOCTYPE svg PUBLIC "-//W3C//DTD SVG 1.1//EN"
 "http://www.w3.org/Graphics/SVG/1.1/DTD/svg11.dtd">
<!-- Generated by graphviz version 14.0.5 (0)
 -->
<!-- Title: lib_handle_sigint Pages: 1 -->
<svg width="609pt" height="64pt"
 viewBox="0.00 0.00 609.00 64.00" xmlns="http://www.w3.org/2000/svg" xmlns:xlink="http://www.w3.org/1999/xlink">
<g id="graph0" class="graph" transform="scale(1 1) rotate(0) translate(4 60.25)">
<title>lib_handle_sigint</title>
<!-- Node1 -->
<g id="Node000001" class="node">
<title>Node1</title>
<g id="a_Node000001"><a xlink:title=" ">
<polygon fill="#999999" stroke="#666666" points="88,-37.25 0,-37.25 0,-18 88,-18 88,-37.25"/>
<text xml:space="preserve" text-anchor="middle" x="44" y="-23.75" font-family="Helvetica,sans-Serif" font-size="10.00">lib_handle_sigint</text>
</a>
</g>
</g>
<!-- Node2 -->
<g id="Node000002" class="node">
<title>Node2</title>
<g id="a_Node000002"><a xlink:href="espresso_8c.html#a3489a7e521f0aceb3e050ca4b9f165d7" target="_top" xlink:title="Closes the app and frees resources.">
<polygon fill="white" stroke="#666666" points="184.25,-37.25 124,-37.25 124,-18 184.25,-18 184.25,-37.25"/>
<text xml:space="preserve" text-anchor="middle" x="154.12" y="-23.75" font-family="Helvetica,sans-Serif" font-size="10.00">app_close</text>
</a>
</g>
</g>
<!-- Node1&#45;&gt;Node2 -->
<g id="edge1_Node000001_Node000002" class="edge">
<title>Node1&#45;&gt;Node2</title>
<g id="a_edge1_Node000001_Node000002"><a xlink:title=" ">
<path fill="none" stroke="#63b8ff" d="M88.36,-27.62C96.24,-27.62 104.43,-27.62 112.24,-27.62"/>
<polygon fill="#63b8ff" stroke="#63b8ff" points="112.18,-31.13 122.18,-27.63 112.18,-24.13 112.18,-31.13"/>
</a>
</g>
</g>
<!-- Node3 -->
<g id="Node000003" class="node">
<title>Node3</title>
<g id="a_Node000003"><a xlink:href="espresso_8c.html#a73277811539a2de04ce7e1295fbdba6a" target="_top" xlink:title=" ">
<polygon fill="white" stroke="#666666" points="312,-37.25 220.25,-37.25 220.25,-18 312,-18 312,-37.25"/>
<text xml:space="preserve" text-anchor="middle" x="266.12" y="-23.75" font-family="Helvetica,sans-Serif" font-size="10.00">close_connection</text>
</a>
</g>
</g>
<!-- Node2&#45;&gt;Node3 -->
<g id="edge2_Node000002_Node000003" class="edge">
<title>Node2&#45;&gt;Node3</title>
<g id="a_edge2_Node000002_Node000003"><a xlink:title=" ">
<path fill="none" stroke="#63b8ff" d="M184.6,-27.62C192.04,-27.62 200.28,-27.62 208.56,-27.62"/>
<polygon fill="#63b8ff" stroke="#63b8ff" points="208.31,-31.13 218.31,-27.63 208.31,-24.13 208.31,-31.13"/>
</a>
</g>
</g>
<!-- Node4 -->
<g id="Node000004" class="node">
<title>Node4</title>
<g id="a_Node000004"><a xlink:href="espresso_8c.html#aaf78724518167158b66ec656312fabd2" target="_top" xlink:title=" ">
<polygon fill="white" stroke="#666666" points="473.5,-37.25 348,-37.25 348,-18 473.5,-18 473.5,-37.25"/>
<text xml:space="preserve" text-anchor="middle" x="410.75" y="-23.75" font-family="Helvetica,sans-Serif" font-size="10.00">handle_connection_close</text>
</a>
</g>
</g>
<!-- Node3&#45;&gt;Node4 -->
<g id="edge3_Node000003_Node000004" class="edge">
<title>Node3&#45;&gt;Node4</title>
<g id="a_edge3_Node000003_Node000004"><a xlink:title=" ">
<path fill="none" stroke="#63b8ff" d="M312.25,-27.62C320,-27.62 328.22,-27.62 336.47,-27.62"/>
<polygon fill="#63b8ff" stroke="#63b8ff" points="336.2,-31.13 346.2,-27.63 336.2,-24.13 336.2,-31.13"/>
</a>
</g>
</g>
<!-- Node5 -->
<g id="Node000005" class="node">
<title>Node5</title>
<g id="a_Node000005"><a xlink:href="espresso_8c.html#a1804ce3a25646fd9c6c6ad98d45c6efa" target="_top" xlink:title=" ">
<polygon fill="white" stroke="#666666" points="601.25,-56.25 509.5,-56.25 509.5,-37 601.25,-37 601.25,-56.25"/>
<text xml:space="preserve" text-anchor="middle" x="555.38" y="-42.75" font-family="Helvetica,sans-Serif" font-size="10.00">endpoint_cleanup</text>
</a>
</g>
</g>
<!-- Node4&#45;&gt;Node5 -->
<g id="edge4_Node000004_Node000005" class="edge">
<title>Node4&#45;&gt;Node5</title>
<g id="a_edge4_Node000004_Node000005"><a xlink:title=" ">
<path fill="none" stroke="#63b8ff" d="M473.89,-35.9C481.86,-36.96 489.99,-38.05 497.86,-39.1"/>
<polygon fill="#63b8ff" stroke="#63b8ff" points="497.29,-42.55 507.66,-40.4 498.21,-35.61 497.29,-42.55"/>
</a>
</g>
</g>
<!-- Node6 -->
<g id="Node000006" class="node">
<title>Node6</title>
<g id="a_Node000006"><a xlink:href="espresso_8c.html#a837cf67658f96fc262c83a4882f96f45" target="_top" xlink:title=" ">
<polygon fill="white" stroke="#666666" points="593.75,-19.25 517,-19.25 517,0 593.75,0 593.75,-19.25"/>
<text xml:space="preserve" text-anchor="middle" x="555.38" y="-5.75" font-family="Helvetica,sans-Serif" font-size="10.00">remove_client</text>
</a>
</g>
</g>
<!-- Node4&#45;&gt;Node6 -->
<g id="edge5_Node000004_Node000006" class="edge">
<title>Node4&#45;&gt;Node6</title>
<g id="a_edge5_Node000004_Node000006"><a xlink:title=" ">
<path fill="none" stroke="#63b8ff" d="M473.89,-19.78C484.47,-18.45 495.33,-17.08 505.5,-15.79"/>
<polygon fill="#63b8ff" stroke="#63b8ff" points="505.67,-19.3 515.15,-14.58 504.79,-12.35 505.67,-19.3"/>
</a>
</g>
</g>
</g>
</svg>
