<?xml version="1.0" encoding="UTF-8" standalone="no"?>
<!DOCTYPE svg PUBLIC "-//W3C//DTD SVG 1.1//EN"
 "http://www.w3.org/Graphics/SVG/1.1/DTD/svg11.dtd">
<!-- Generated by graphviz version 14.0.5 (0)
 -->
<!-- Title: allocate_buffer Pages: 1 -->
<svg width="632pt" height="46pt"
 viewBox="0.00 0.00 632.00 46.00" xmlns="http://www.w3.org/2000/svg" xmlns:xlink="http://www.w3.org/1999/xlink">
<g id="graph0" class="graph" transform="scale(1 1) rotate(0) translate(4 42.25)">
<title>allocate_buffer</title>
<!-- Node1 -->
<g id="Node000001" class="node">
<title>Node1</title>
<g id="a_Node000001"><a xlink:title=" ">
<polygon fill="#999999" stroke="#666666" points="624,-19.25 545,-19.25 545,0 624,0 624,-19.25"/>
<text xml:space="preserve" text-anchor="middle" x="584.5" y="-5.75" font-family="Helvetica,sans-Serif" font-size="10.00">allocate_buffer</text>
</a>
</g>
</g>
<!-- Node2 -->
<g id="Node000002" class="node">
<title>Node2</title>
<g id="a_Node000002"><a xlink:href="espresso_8c.html#a2a7b96459e0adac1061eaec6a5722075" target="_top" xlink:title=" ">
<polygon fill="white" stroke="#666666" points="509,-38.25 435.25,-38.25 435.25,-19 509,-19 509,-38.25"/>
<text xml:space="preserve" text-anchor="middle" x="472.12" y="-24.75" font-family="Helvetica,sans-Serif" font-size="10.00">handle_buffer</text>
</a>
</g>
</g>
<!-- Node1&#45;&gt;Node2 -->
<g id="edge1_Node000001_Node000002" class="edge">
<title>Node1&#45;&gt;Node2</title>
<g id="a_edge1_Node000001_Node000002"><a xlink:title=" ">
<path fill="none" stroke="#63b8ff" d="M533.37,-18.25C525.32,-19.64 517.12,-21.05 509.47,-22.37"/>
<polygon fill="#63b8ff" stroke="#63b8ff" points="533.83,-21.73 543.09,-16.58 532.65,-14.83 533.83,-21.73"/>
</a>
</g>
</g>
<!-- Node4 -->
<g id="Node000004" class="node">
<title>Node4</title>
<g id="a_Node000004"><a xlink:href="espresso_8c.html#a90f2058b8890cfb99e6f595b8f066919" target="_top" xlink:title=" ">
<polygon fill="white" stroke="#666666" points="266.25,-19.25 169.25,-19.25 169.25,0 266.25,0 266.25,-19.25"/>
<text xml:space="preserve" text-anchor="middle" x="217.75" y="-5.75" font-family="Helvetica,sans-Serif" font-size="10.00">handle_connection</text>
</a>
</g>
</g>
<!-- Node1&#45;&gt;Node4 -->
<g id="edge7_Node000001_Node000004" class="edge">
<title>Node1&#45;&gt;Node4</title>
<g id="a_edge7_Node000001_Node000004"><a xlink:title=" ">
<path fill="none" stroke="#63b8ff" d="M533.61,-9.62C463.23,-9.62 335.69,-9.62 266.5,-9.62"/>
<polygon fill="#63b8ff" stroke="#63b8ff" points="533.3,-13.13 543.3,-9.63 533.3,-6.13 533.3,-13.13"/>
</a>
</g>
</g>
<!-- Node3 -->
<g id="Node000003" class="node">
<title>Node3</title>
<g id="a_Node000003"><a xlink:href="espresso_8c.html#a919e9a8a992f43f0fd82e87f4d40d2d2" target="_top" xlink:title=" ">
<polygon fill="white" stroke="#666666" points="399.25,-38.25 302.25,-38.25 302.25,-19 399.25,-19 399.25,-38.25"/>
<text xml:space="preserve" text-anchor="middle" x="350.75" y="-24.75" font-family="Helvetica,sans-Serif" font-size="10.00">handle_client_read</text>
</a>
</g>
</g>
<!-- Node2&#45;&gt;Node3 -->
<g id="edge2_Node000002_Node000003" class="edge">
<title>Node2&#45;&gt;Node3</title>
<g id="a_edge2_Node000002_Node000003"><a xlink:title=" ">
<path fill="none" stroke="#63b8ff" d="M423.69,-22C415.79,-21.84 407.59,-21.83 399.67,-21.99"/>
<polygon fill="#63b8ff" stroke="#63b8ff" points="423.36,-25.49 433.47,-22.32 423.59,-18.5 423.36,-25.49"/>
</a>
</g>
</g>
<!-- Node3&#45;&gt;Node2 -->
<g id="edge3_Node000003_Node000002" class="edge">
<title>Node3&#45;&gt;Node2</title>
<g id="a_edge3_Node000003_Node000002"><a xlink:title=" ">
<path fill="none" stroke="#63b8ff" d="M411.12,-35.37C419.27,-35.38 427.43,-35.22 434.98,-34.88"/>
<polygon fill="#63b8ff" stroke="#63b8ff" points="411.22,-31.88 401.19,-35.27 411.15,-38.88 411.22,-31.88"/>
</a>
</g>
</g>
<!-- Node3&#45;&gt;Node4 -->
<g id="edge4_Node000003_Node000004" class="edge">
<title>Node3&#45;&gt;Node4</title>
<g id="a_edge4_Node000003_Node000004"><a xlink:title=" ">
<path fill="none" stroke="#63b8ff" d="M290.78,-20.07C282.69,-18.9 274.46,-17.71 266.6,-16.56"/>
<polygon fill="#63b8ff" stroke="#63b8ff" points="290.19,-23.52 300.59,-21.49 291.19,-16.6 290.19,-23.52"/>
</a>
</g>
</g>
<!-- Node5 -->
<g id="Node000005" class="node">
<title>Node5</title>
<g id="a_Node000005"><a xlink:href="espresso_8c.html#a0ba22157d15a70c4c22441b040bb0f74" target="_top" xlink:title="Starts the HTTP server loop.">
<polygon fill="white" stroke="#666666" points="133.25,-19.25 73,-19.25 73,0 133.25,0 133.25,-19.25"/>
<text xml:space="preserve" text-anchor="middle" x="103.12" y="-5.75" font-family="Helvetica,sans-Serif" font-size="10.00">app_listen</text>
</a>
</g>
</g>
<!-- Node4&#45;&gt;Node5 -->
<g id="edge5_Node000004_Node000005" class="edge">
<title>Node4&#45;&gt;Node5</title>
<g id="a_edge5_Node000004_Node000005"><a xlink:title=" ">
<path fill="none" stroke="#63b8ff" d="M157.66,-9.62C149.34,-9.62 141.1,-9.62 133.67,-9.62"/>
<polygon fill="#63b8ff" stroke="#63b8ff" points="157.47,-13.13 167.47,-9.63 157.47,-6.13 157.47,-13.13"/>
</a>
</g>
</g>
<!-- Node6 -->
<g id="Node000006" class="node">
<title>Node6</title>
<g id="a_Node000006"><a xlink:href="main_8c.html#ae66f6b31b5ad750f1fe042a706a4e3d4" target="_top" xlink:title=" ">
<polygon fill="white" stroke="#666666" points="37,-19.25 0,-19.25 0,0 37,0 37,-19.25"/>
<text xml:space="preserve" text-anchor="middle" x="18.5" y="-5.75" font-family="Helvetica,sans-Serif" font-size="10.00">main</text>
</a>
</g>
</g>
<!-- Node5&#45;&gt;Node6 -->
<g id="edge6_Node000005_Node000006" class="edge">
<title>Node5&#45;&gt;Node6</title>
<g id="a_edge6_Node000005_Node000006"><a xlink:title=" ">
<path fill="none" stroke="#63b8ff" d="M61.34,-9.62C52.86,-9.62 44.34,-9.62 37.23,-9.62"/>
<polygon fill="#63b8ff" stroke="#63b8ff" points="61.25,-13.13 71.25,-9.63 61.25,-6.13 61.25,-13.13"/>
</a>
</g>
</g>
</g>
</svg>
