<?xml version="1.0" encoding="UTF-8" standalone="no"?>
<!DOCTYPE svg PUBLIC "-//W3C//DTD SVG 1.1//EN"
 "http://www.w3.org/Graphics/SVG/1.1/DTD/svg11.dtd">
<!-- Generated by graphviz version 14.0.5 (0)
 -->
<!-- Title: espresso.h Pages: 1 -->
<svg width="584pt" height="138pt"
 viewBox="0.00 0.00 584.00 138.00" xmlns="http://www.w3.org/2000/svg" xmlns:xlink="http://www.w3.org/1999/xlink">
<g id="graph0" class="graph" transform="scale(1 1) rotate(0) translate(4 133.75)">
<title>espresso.h</title>
<!-- Node1 -->
<g id="Node000001" class="node">
<title>Node1</title>
<g id="a_Node000001"><a xlink:title="Espresso &#45; lightweight Express&#45;like HTTP framework for C.">
<polygon fill="#999999" stroke="#666666" points="367,-129.75 303.75,-129.75 303.75,-110.5 367,-110.5 367,-129.75"/>
<text xml:space="preserve" text-anchor="middle" x="335.38" y="-116.25" font-family="Helvetica,sans-Serif" font-size="10.00">espresso.h</text>
</a>
</g>
</g>
<!-- Node2 -->
<g id="Node000002" class="node">
<title>Node2</title>
<g id="a_Node000002"><a xlink:href="cJSON_8h.html" target="_top" xlink:title=" ">
<polygon fill="white" stroke="#666666" points="130.75,-74.5 0,-74.5 0,-55.25 130.75,-55.25 130.75,-74.5"/>
<text xml:space="preserve" text-anchor="middle" x="65.38" y="-61" font-family="Helvetica,sans-Serif" font-size="10.00">../vendor/cJSON/cJSON.h</text>
</a>
</g>
</g>
<!-- Node1&#45;&gt;Node2 -->
<g id="edge1_Node000001_Node000002" class="edge">
<title>Node1&#45;&gt;Node2</title>
<g id="a_edge1_Node000001_Node000002"><a xlink:title=" ">
<path fill="none" stroke="#63b8ff" d="M303.34,-112.81C258.78,-104.02 177.36,-87.96 122.32,-77.11"/>
<polygon fill="#63b8ff" stroke="#63b8ff" points="123.31,-73.73 112.82,-75.23 121.96,-80.6 123.31,-73.73"/>
</a>
</g>
</g>
<!-- Node4 -->
<g id="Node000004" class="node">
<title>Node4</title>
<g id="a_Node000004"><a xlink:title=" ">
<polygon fill="#e0e0e0" stroke="#999999" points="195.75,-74.5 149,-74.5 149,-55.25 195.75,-55.25 195.75,-74.5"/>
<text xml:space="preserve" text-anchor="middle" x="172.38" y="-61" font-family="Helvetica,sans-Serif" font-size="10.00">ctype.h</text>
</a>
</g>
</g>
<!-- Node1&#45;&gt;Node4 -->
<g id="edge3_Node000001_Node000004" class="edge">
<title>Node1&#45;&gt;Node4</title>
<g id="a_edge3_Node000001_Node000004"><a xlink:title=" ">
<path fill="none" stroke="#63b8ff" d="M307.72,-110.09C279.94,-101.01 237.04,-87 207,-77.19"/>
<polygon fill="#63b8ff" stroke="#63b8ff" points="208.21,-73.9 197.62,-74.12 206.04,-80.55 208.21,-73.9"/>
</a>
</g>
</g>
<!-- Node5 -->
<g id="Node000005" class="node">
<title>Node5</title>
<g id="a_Node000005"><a xlink:title=" ">
<polygon fill="#e0e0e0" stroke="#999999" points="262.88,-74.5 213.88,-74.5 213.88,-55.25 262.88,-55.25 262.88,-74.5"/>
<text xml:space="preserve" text-anchor="middle" x="238.38" y="-61" font-family="Helvetica,sans-Serif" font-size="10.00">signal.h</text>
</a>
</g>
</g>
<!-- Node1&#45;&gt;Node5 -->
<g id="edge4_Node000001_Node000005" class="edge">
<title>Node1&#45;&gt;Node5</title>
<g id="a_edge4_Node000001_Node000005"><a xlink:title=" ">
<path fill="none" stroke="#63b8ff" d="M318.92,-110.09C304.15,-101.98 282.2,-89.93 264.94,-80.46"/>
<polygon fill="#63b8ff" stroke="#63b8ff" points="266.69,-77.43 256.24,-75.68 263.32,-83.56 266.69,-77.43"/>
</a>
</g>
</g>
<!-- Node6 -->
<g id="Node000006" class="node">
<title>Node6</title>
<g id="a_Node000006"><a xlink:title=" ">
<polygon fill="#e0e0e0" stroke="#999999" points="325.62,-74.5 281.12,-74.5 281.12,-55.25 325.62,-55.25 325.62,-74.5"/>
<text xml:space="preserve" text-anchor="middle" x="303.38" y="-61" font-family="Helvetica,sans-Serif" font-size="10.00">stdio.h</text>
</a>
</g>
</g>
<!-- Node1&#45;&gt;Node6 -->
<g id="edge5_Node000001_Node000006" class="edge">
<title>Node1&#45;&gt;Node6</title>
<g id="a_edge5_Node000001_Node000006"><a xlink:title=" ">
<path fill="none" stroke="#63b8ff" d="M330.09,-110.33C325.9,-103.36 319.9,-93.37 314.64,-84.62"/>
<polygon fill="#63b8ff" stroke="#63b8ff" points="317.7,-82.93 309.55,-76.16 311.7,-86.53 317.7,-82.93"/>
</a>
</g>
</g>
<!-- Node7 -->
<g id="Node000007" class="node">
<title>Node7</title>
<g id="a_Node000007"><a xlink:title=" ">
<polygon fill="#e0e0e0" stroke="#999999" points="390.75,-74.5 344,-74.5 344,-55.25 390.75,-55.25 390.75,-74.5"/>
<text xml:space="preserve" text-anchor="middle" x="367.38" y="-61" font-family="Helvetica,sans-Serif" font-size="10.00">stdlib.h</text>
</a>
</g>
</g>
<!-- Node1&#45;&gt;Node7 -->
<g id="edge6_Node000001_Node000007" class="edge">
<title>Node1&#45;&gt;Node7</title>
<g id="a_edge6_Node000001_Node000007"><a xlink:title=" ">
<path fill="none" stroke="#63b8ff" d="M340.66,-110.33C344.85,-103.36 350.85,-93.37 356.11,-84.62"/>
<polygon fill="#63b8ff" stroke="#63b8ff" points="359.05,-86.53 361.2,-76.16 353.05,-82.93 359.05,-86.53"/>
</a>
</g>
</g>
<!-- Node8 -->
<g id="Node000008" class="node">
<title>Node8</title>
<g id="a_Node000008"><a xlink:title=" ">
<polygon fill="#e0e0e0" stroke="#999999" points="456.12,-74.5 408.62,-74.5 408.62,-55.25 456.12,-55.25 456.12,-74.5"/>
<text xml:space="preserve" text-anchor="middle" x="432.38" y="-61" font-family="Helvetica,sans-Serif" font-size="10.00">string.h</text>
</a>
</g>
</g>
<!-- Node1&#45;&gt;Node8 -->
<g id="edge7_Node000001_Node000008" class="edge">
<title>Node1&#45;&gt;Node8</title>
<g id="a_edge7_Node000001_Node000008"><a xlink:title=" ">
<path fill="none" stroke="#63b8ff" d="M351.83,-110.09C366.6,-101.98 388.55,-89.93 405.81,-80.46"/>
<polygon fill="#63b8ff" stroke="#63b8ff" points="407.43,-83.56 414.51,-75.68 404.06,-77.43 407.43,-83.56"/>
</a>
</g>
</g>
<!-- Node9 -->
<g id="Node000009" class="node">
<title>Node9</title>
<g id="a_Node000009"><a xlink:title=" ">
<polygon fill="#e0e0e0" stroke="#999999" points="524.25,-74.5 474.5,-74.5 474.5,-55.25 524.25,-55.25 524.25,-74.5"/>
<text xml:space="preserve" text-anchor="middle" x="499.38" y="-61" font-family="Helvetica,sans-Serif" font-size="10.00">unistd.h</text>
</a>
</g>
</g>
<!-- Node1&#45;&gt;Node9 -->
<g id="edge8_Node000001_Node000009" class="edge">
<title>Node1&#45;&gt;Node9</title>
<g id="a_edge8_Node000001_Node000009"><a xlink:title=" ">
<path fill="none" stroke="#63b8ff" d="M363.2,-110.09C390.75,-101.15 433.07,-87.4 463.21,-77.62"/>
<polygon fill="#63b8ff" stroke="#63b8ff" points="464.25,-80.96 472.68,-74.54 462.08,-74.3 464.25,-80.96"/>
</a>
</g>
</g>
<!-- Node10 -->
<g id="Node000010" class="node">
<title>Node10</title>
<g id="a_Node000010"><a xlink:title=" ">
<polygon fill="#e0e0e0" stroke="#999999" points="576.38,-74.5 542.38,-74.5 542.38,-55.25 576.38,-55.25 576.38,-74.5"/>
<text xml:space="preserve" text-anchor="middle" x="559.38" y="-61" font-family="Helvetica,sans-Serif" font-size="10.00">uv.h</text>
</a>
</g>
</g>
<!-- Node1&#45;&gt;Node10 -->
<g id="edge9_Node000001_Node000010" class="edge">
<title>Node1&#45;&gt;Node10</title>
<g id="a_edge9_Node000001_Node000010"><a xlink:title=" ">
<path fill="none" stroke="#63b8ff" d="M367.16,-112.97C404.33,-105.55 467.88,-92.19 531.14,-74.91"/>
<polygon fill="#63b8ff" stroke="#63b8ff" points="531.94,-78.31 540.65,-72.27 530.08,-71.57 531.94,-78.31"/>
</a>
</g>
</g>
<!-- Node3 -->
<g id="Node000003" class="node">
<title>Node3</title>
<g id="a_Node000003"><a xlink:title=" ">
<polygon fill="#e0e0e0" stroke="#999999" points="90.62,-19.25 40.12,-19.25 40.12,0 90.62,0 90.62,-19.25"/>
<text xml:space="preserve" text-anchor="middle" x="65.38" y="-5.75" font-family="Helvetica,sans-Serif" font-size="10.00">stddef.h</text>
</a>
</g>
</g>
<!-- Node2&#45;&gt;Node3 -->
<g id="edge2_Node000002_Node000003" class="edge">
<title>Node2&#45;&gt;Node3</title>
<g id="a_edge2_Node000002_Node000003"><a xlink:title=" ">
<path fill="none" stroke="#63b8ff" d="M65.38,-55.08C65.38,-48.57 65.38,-39.42 65.38,-31.12"/>
<polygon fill="#63b8ff" stroke="#63b8ff" points="68.88,-31.12 65.38,-21.12 61.88,-31.12 68.88,-31.12"/>
</a>
</g>
</g>
</g>
</svg>
