<?xml version="1.0" encoding="UTF-8" standalone="no"?>
<!DOCTYPE svg PUBLIC "-//W3C//DTD SVG 1.1//EN"
 "http://www.w3.org/Graphics/SVG/1.1/DTD/svg11.dtd">
<!-- Generated by graphviz version 14.0.5 (0)
 -->
<!-- Title: request_cleanup Pages: 1 -->
<svg width="1098pt" height="179pt"
 viewBox="0.00 0.00 1098.00 179.00" xmlns="http://www.w3.org/2000/svg" xmlns:xlink="http://www.w3.org/1999/xlink">
<g id="graph0" class="graph" transform="scale(1 1) rotate(0) translate(4 175.25)">
<title>request_cleanup</title>
<!-- Node1 -->
<g id="Node000001" class="node">
<title>Node1</title>
<g id="a_Node000001"><a xlink:title=" ">
<polygon fill="#999999" stroke="#666666" points="1089.75,-57.25 1002.5,-57.25 1002.5,-38 1089.75,-38 1089.75,-57.25"/>
<text xml:space="preserve" text-anchor="middle" x="1046.12" y="-43.75" font-family="Helvetica,sans-Serif" font-size="10.00">request_cleanup</text>
</a>
</g>
</g>
<!-- Node2 -->
<g id="Node000002" class="node">
<title>Node2</title>
<g id="a_Node000002"><a xlink:href="espresso_8c.html#a1804ce3a25646fd9c6c6ad98d45c6efa" target="_top" xlink:title=" ">
<polygon fill="white" stroke="#666666" points="966.5,-76.25 874.75,-76.25 874.75,-57 966.5,-57 966.5,-76.25"/>
<text xml:space="preserve" text-anchor="middle" x="920.62" y="-62.75" font-family="Helvetica,sans-Serif" font-size="10.00">endpoint_cleanup</text>
</a>
</g>
</g>
<!-- Node1&#45;&gt;Node2 -->
<g id="edge1_Node000001_Node000002" class="edge">
<title>Node1&#45;&gt;Node2</title>
<g id="a_edge1_Node000001_Node000002"><a xlink:title=" ">
<path fill="none" stroke="#63b8ff" d="M991.06,-55.94C983.01,-57.18 974.77,-58.45 966.92,-59.66"/>
<polygon fill="#63b8ff" stroke="#63b8ff" points="991.43,-59.43 1000.78,-54.45 990.37,-52.51 991.43,-59.43"/>
</a>
</g>
</g>
<!-- Node9 -->
<g id="Node000009" class="node">
<title>Node9</title>
<g id="a_Node000009"><a xlink:href="espresso_8c.html#a2a7b96459e0adac1061eaec6a5722075" target="_top" xlink:title=" ">
<polygon fill="white" stroke="#666666" points="531.12,-19.25 457.38,-19.25 457.38,0 531.12,0 531.12,-19.25"/>
<text xml:space="preserve" text-anchor="middle" x="494.25" y="-5.75" font-family="Helvetica,sans-Serif" font-size="10.00">handle_buffer</text>
</a>
</g>
</g>
<!-- Node1&#45;&gt;Node9 -->
<g id="edge19_Node000001_Node000009" class="edge">
<title>Node1&#45;&gt;Node9</title>
<g id="a_edge19_Node000001_Node000009"><a xlink:title=" ">
<path fill="none" stroke="#63b8ff" d="M991.12,-43.89C879.42,-36.17 625.56,-18.63 531.34,-12.12"/>
<polygon fill="#63b8ff" stroke="#63b8ff" points="990.71,-47.37 1000.92,-44.57 991.19,-40.39 990.71,-47.37"/>
</a>
</g>
</g>
<!-- Node3 -->
<g id="Node000003" class="node">
<title>Node3</title>
<g id="a_Node000003"><a xlink:href="espresso_8c.html#aaf78724518167158b66ec656312fabd2" target="_top" xlink:title=" ">
<polygon fill="white" stroke="#666666" points="838.75,-76.25 713.25,-76.25 713.25,-57 838.75,-57 838.75,-76.25"/>
<text xml:space="preserve" text-anchor="middle" x="776" y="-62.75" font-family="Helvetica,sans-Serif" font-size="10.00">handle_connection_close</text>
</a>
</g>
</g>
<!-- Node2&#45;&gt;Node3 -->
<g id="edge2_Node000002_Node000003" class="edge">
<title>Node2&#45;&gt;Node3</title>
<g id="a_edge2_Node000002_Node000003"><a xlink:title=" ">
<path fill="none" stroke="#63b8ff" d="M863.13,-66.62C855.22,-66.62 847.05,-66.62 839.04,-66.62"/>
<polygon fill="#63b8ff" stroke="#63b8ff" points="862.98,-70.13 872.98,-66.63 862.98,-63.13 862.98,-70.13"/>
</a>
</g>
</g>
<!-- Node4 -->
<g id="Node000004" class="node">
<title>Node4</title>
<g id="a_Node000004"><a xlink:href="espresso_8c.html#a73277811539a2de04ce7e1295fbdba6a" target="_top" xlink:title=" ">
<polygon fill="white" stroke="#666666" points="677.25,-76.25 585.5,-76.25 585.5,-57 677.25,-57 677.25,-76.25"/>
<text xml:space="preserve" text-anchor="middle" x="631.38" y="-62.75" font-family="Helvetica,sans-Serif" font-size="10.00">close_connection</text>
</a>
</g>
</g>
<!-- Node3&#45;&gt;Node4 -->
<g id="edge3_Node000003_Node000004" class="edge">
<title>Node3&#45;&gt;Node4</title>
<g id="a_edge3_Node000003_Node000004"><a xlink:title=" ">
<path fill="none" stroke="#63b8ff" d="M701.4,-66.62C693.28,-66.62 685.2,-66.62 677.59,-66.62"/>
<polygon fill="#63b8ff" stroke="#63b8ff" points="701.34,-70.13 711.34,-66.63 701.34,-63.13 701.34,-70.13"/>
</a>
</g>
</g>
<!-- Node5 -->
<g id="Node000005" class="node">
<title>Node5</title>
<g id="a_Node000005"><a xlink:href="espresso_8c.html#a3489a7e521f0aceb3e050ca4b9f165d7" target="_top" xlink:title="Closes the app and frees resources.">
<polygon fill="white" stroke="#666666" points="384.62,-171.25 324.38,-171.25 324.38,-152 384.62,-152 384.62,-171.25"/>
<text xml:space="preserve" text-anchor="middle" x="354.5" y="-157.75" font-family="Helvetica,sans-Serif" font-size="10.00">app_close</text>
</a>
</g>
</g>
<!-- Node4&#45;&gt;Node5 -->
<g id="edge4_Node000004_Node000005" class="edge">
<title>Node4&#45;&gt;Node5</title>
<g id="a_edge4_Node000004_Node000005"><a xlink:title=" ">
<path fill="none" stroke="#63b8ff" d="M616.25,-85.77C601.72,-103.84 577.33,-130 549.5,-142.62 495.42,-167.17 424.31,-166.99 384.94,-164.45"/>
<polygon fill="#63b8ff" stroke="#63b8ff" points="618.99,-87.94 622.34,-77.89 613.46,-83.66 618.99,-87.94"/>
</a>
</g>
</g>
<!-- Node4&#45;&gt;Node9 -->
<g id="edge9_Node000004_Node000009" class="edge">
<title>Node4&#45;&gt;Node9</title>
<g id="a_edge9_Node000004_Node000009"><a xlink:title=" ">
<path fill="none" stroke="#63b8ff" d="M596.03,-52.14C571.88,-41.95 540.2,-28.59 518.86,-19.58"/>
<polygon fill="#63b8ff" stroke="#63b8ff" points="594.56,-55.32 605.13,-55.98 597.28,-48.87 594.56,-55.32"/>
</a>
</g>
</g>
<!-- Node10 -->
<g id="Node000010" class="node">
<title>Node10</title>
<g id="a_Node000010"><a xlink:href="espresso_8c.html#a919e9a8a992f43f0fd82e87f4d40d2d2" target="_top" xlink:title=" ">
<polygon fill="white" stroke="#666666" points="403,-38.25 306,-38.25 306,-19 403,-19 403,-38.25"/>
<text xml:space="preserve" text-anchor="middle" x="354.5" y="-24.75" font-family="Helvetica,sans-Serif" font-size="10.00">handle_client_read</text>
</a>
</g>
</g>
<!-- Node4&#45;&gt;Node10 -->
<g id="edge15_Node000004_Node000010" class="edge">
<title>Node4&#45;&gt;Node10</title>
<g id="a_edge15_Node000004_Node000010"><a xlink:title=" ">
<path fill="none" stroke="#63b8ff" d="M573.97,-58.83C523.69,-51.88 450.89,-41.81 403.38,-35.24"/>
<polygon fill="#63b8ff" stroke="#63b8ff" points="573.41,-62.28 583.79,-60.19 574.37,-55.35 573.41,-62.28"/>
</a>
</g>
</g>
<!-- Node11 -->
<g id="Node000011" class="node">
<title>Node11</title>
<g id="a_Node000011"><a xlink:href="espresso_8c.html#a90f2058b8890cfb99e6f595b8f066919" target="_top" xlink:title=" ">
<polygon fill="white" stroke="#666666" points="270,-95.25 173,-95.25 173,-76 270,-76 270,-95.25"/>
<text xml:space="preserve" text-anchor="middle" x="221.5" y="-81.75" font-family="Helvetica,sans-Serif" font-size="10.00">handle_connection</text>
</a>
</g>
</g>
<!-- Node4&#45;&gt;Node11 -->
<g id="edge18_Node000004_Node000011" class="edge">
<title>Node4&#45;&gt;Node11</title>
<g id="a_edge18_Node000004_Node000011"><a xlink:title=" ">
<path fill="none" stroke="#63b8ff" d="M573.75,-69.26C492.98,-73.03 346.11,-79.87 270.43,-83.39"/>
<polygon fill="#63b8ff" stroke="#63b8ff" points="573.83,-72.76 583.65,-68.8 573.5,-65.77 573.83,-72.76"/>
</a>
</g>
</g>
<!-- Node13 -->
<g id="Node000013" class="node">
<title>Node13</title>
<g id="a_Node000013"><a xlink:href="espresso_8c.html#a015718d876f3d5394b1ab3d6e39e989f" target="_top" xlink:title=" ">
<polygon fill="white" stroke="#666666" points="549.5,-133.25 439,-133.25 439,-114 549.5,-114 549.5,-133.25"/>
<text xml:space="preserve" text-anchor="middle" x="494.25" y="-119.75" font-family="Helvetica,sans-Serif" font-size="10.00">handle_client_timeout</text>
</a>
</g>
</g>
<!-- Node4&#45;&gt;Node13 -->
<g id="edge16_Node000004_Node000013" class="edge">
<title>Node4&#45;&gt;Node13</title>
<g id="a_edge16_Node000004_Node000013"><a xlink:title=" ">
<path fill="none" stroke="#63b8ff" d="M596.03,-81.11C571.88,-91.3 540.2,-104.66 518.86,-113.67"/>
<polygon fill="#63b8ff" stroke="#63b8ff" points="597.28,-84.38 605.13,-77.27 594.56,-77.93 597.28,-84.38"/>
</a>
</g>
</g>
<!-- Node6 -->
<g id="Node000006" class="node">
<title>Node6</title>
<g id="a_Node000006"><a xlink:href="espresso_8c.html#a1f2696ccccf441f76c9f5161fb903db5" target="_top" xlink:title=" ">
<polygon fill="white" stroke="#666666" points="265.5,-133.25 177.5,-133.25 177.5,-114 265.5,-114 265.5,-133.25"/>
<text xml:space="preserve" text-anchor="middle" x="221.5" y="-119.75" font-family="Helvetica,sans-Serif" font-size="10.00">lib_handle_sigint</text>
</a>
</g>
</g>
<!-- Node5&#45;&gt;Node6 -->
<g id="edge5_Node000005_Node000006" class="edge">
<title>Node5&#45;&gt;Node6</title>
<g id="a_edge5_Node000005_Node000006"><a xlink:title=" ">
<path fill="none" stroke="#63b8ff" d="M313.15,-149.92C295.31,-144.75 274.54,-138.72 257.38,-133.74"/>
<polygon fill="#63b8ff" stroke="#63b8ff" points="312.07,-153.25 322.65,-152.68 314.02,-146.53 312.07,-153.25"/>
</a>
</g>
</g>
<!-- Node8 -->
<g id="Node000008" class="node">
<title>Node8</title>
<g id="a_Node000008"><a xlink:href="main_8c.html#ae66f6b31b5ad750f1fe042a706a4e3d4" target="_top" xlink:title=" ">
<polygon fill="white" stroke="#666666" points="37,-133.25 0,-133.25 0,-114 37,-114 37,-133.25"/>
<text xml:space="preserve" text-anchor="middle" x="18.5" y="-119.75" font-family="Helvetica,sans-Serif" font-size="10.00">main</text>
</a>
</g>
</g>
<!-- Node5&#45;&gt;Node8 -->
<g id="edge8_Node000005_Node000008" class="edge">
<title>Node5&#45;&gt;Node8</title>
<g id="a_edge8_Node000005_Node000008"><a xlink:title=" ">
<path fill="none" stroke="#63b8ff" d="M312.72,-162.33C257.71,-162.49 156.93,-160.03 73,-142.62 60.84,-140.1 47.69,-135.46 37.47,-131.4"/>
<polygon fill="#63b8ff" stroke="#63b8ff" points="312.58,-165.83 322.56,-162.26 312.53,-158.83 312.58,-165.83"/>
</a>
</g>
</g>
<!-- Node7 -->
<g id="Node000007" class="node">
<title>Node7</title>
<g id="a_Node000007"><a xlink:href="espresso_8c.html#a54c30f08a1b67315ac3195d1a7fac35f" target="_top" xlink:title="Creates a new Espresso app on the specified port.">
<polygon fill="white" stroke="#666666" points="137,-133.25 73,-133.25 73,-114 137,-114 137,-133.25"/>
<text xml:space="preserve" text-anchor="middle" x="105" y="-119.75" font-family="Helvetica,sans-Serif" font-size="10.00">create_app</text>
</a>
</g>
</g>
<!-- Node6&#45;&gt;Node7 -->
<g id="edge6_Node000006_Node000007" class="edge">
<title>Node6&#45;&gt;Node7</title>
<g id="a_edge6_Node000006_Node000007"><a xlink:title=" ">
<path fill="none" stroke="#63b8ff" d="M165.81,-123.62C155.99,-123.62 146.08,-123.62 137.22,-123.62"/>
<polygon fill="#63b8ff" stroke="#63b8ff" points="165.7,-127.13 175.7,-123.63 165.7,-120.13 165.7,-127.13"/>
</a>
</g>
</g>
<!-- Node7&#45;&gt;Node8 -->
<g id="edge7_Node000007_Node000008" class="edge">
<title>Node7&#45;&gt;Node8</title>
<g id="a_edge7_Node000007_Node000008"><a xlink:title=" ">
<path fill="none" stroke="#63b8ff" d="M61.22,-123.62C52.84,-123.62 44.49,-123.62 37.49,-123.62"/>
<polygon fill="#63b8ff" stroke="#63b8ff" points="61.02,-127.13 71.02,-123.63 61.02,-120.13 61.02,-127.13"/>
</a>
</g>
</g>
<!-- Node9&#45;&gt;Node10 -->
<g id="edge10_Node000009_Node000010" class="edge">
<title>Node9&#45;&gt;Node10</title>
<g id="a_edge10_Node000009_Node000010"><a xlink:title=" ">
<path fill="none" stroke="#63b8ff" d="M445.63,-9.74C426.15,-11.87 404.16,-15.13 386.77,-18.55"/>
<polygon fill="#63b8ff" stroke="#63b8ff" points="445.95,-13.22 455.55,-8.74 445.25,-6.26 445.95,-13.22"/>
</a>
</g>
</g>
<!-- Node10&#45;&gt;Node9 -->
<g id="edge11_Node000010_Node000009" class="edge">
<title>Node10&#45;&gt;Node9</title>
<g id="a_edge11_Node000010_Node000009"><a xlink:title=" ">
<path fill="none" stroke="#63b8ff" d="M414.53,-27.17C430.86,-25.13 447.93,-22.46 461.99,-19.7"/>
<polygon fill="#63b8ff" stroke="#63b8ff" points="414.42,-23.66 404.9,-28.31 415.24,-30.61 414.42,-23.66"/>
</a>
</g>
</g>
<!-- Node10&#45;&gt;Node11 -->
<g id="edge12_Node000010_Node000011" class="edge">
<title>Node10&#45;&gt;Node11</title>
<g id="a_edge12_Node000010_Node000011"><a xlink:title=" ">
<path fill="none" stroke="#63b8ff" d="M319.89,-43.25C296.52,-53.42 265.99,-66.7 245.39,-75.67"/>
<polygon fill="#63b8ff" stroke="#63b8ff" points="321.22,-46.49 328.99,-39.29 318.43,-40.07 321.22,-46.49"/>
</a>
</g>
</g>
<!-- Node12 -->
<g id="Node000012" class="node">
<title>Node12</title>
<g id="a_Node000012"><a xlink:href="espresso_8c.html#a0ba22157d15a70c4c22441b040bb0f74" target="_top" xlink:title="Starts the HTTP server loop.">
<polygon fill="white" stroke="#666666" points="135.12,-96.25 74.88,-96.25 74.88,-77 135.12,-77 135.12,-96.25"/>
<text xml:space="preserve" text-anchor="middle" x="105" y="-82.75" font-family="Helvetica,sans-Serif" font-size="10.00">app_listen</text>
</a>
</g>
</g>
<!-- Node11&#45;&gt;Node12 -->
<g id="edge13_Node000011_Node000012" class="edge">
<title>Node11&#45;&gt;Node12</title>
<g id="a_edge13_Node000011_Node000012"><a xlink:title=" ">
<path fill="none" stroke="#63b8ff" d="M161.26,-86.14C152.28,-86.22 143.37,-86.3 135.41,-86.37"/>
<polygon fill="#63b8ff" stroke="#63b8ff" points="161.12,-89.64 171.09,-86.06 161.06,-82.64 161.12,-89.64"/>
</a>
</g>
</g>
<!-- Node12&#45;&gt;Node8 -->
<g id="edge14_Node000012_Node000008" class="edge">
<title>Node12&#45;&gt;Node8</title>
<g id="a_edge14_Node000012_Node000008"><a xlink:title=" ">
<path fill="none" stroke="#63b8ff" d="M70.48,-101.3C59.21,-106.24 47.08,-111.55 37.47,-115.76"/>
<polygon fill="#63b8ff" stroke="#63b8ff" points="71.77,-104.56 79.52,-97.34 68.96,-98.15 71.77,-104.56"/>
</a>
</g>
</g>
<!-- Node13&#45;&gt;Node11 -->
<g id="edge17_Node000013_Node000011" class="edge">
<title>Node13&#45;&gt;Node11</title>
<g id="a_edge17_Node000013_Node000011"><a xlink:title=" ">
<path fill="none" stroke="#63b8ff" d="M427.37,-115.81C391.44,-111.39 346.23,-105.57 306,-99.62 294.37,-97.9 281.85,-95.89 270.14,-93.94"/>
<polygon fill="#63b8ff" stroke="#63b8ff" points="426.83,-119.27 437.18,-117.01 427.68,-112.32 426.83,-119.27"/>
</a>
</g>
</g>
</g>
</svg>
