<?xml version="1.0" encoding="UTF-8" standalone="no"?>
<!DOCTYPE svg PUBLIC "-//W3C//DTD SVG 1.1//EN"
 "http://www.w3.org/Graphics/SVG/1.1/DTD/svg11.dtd">
<!-- Generated by graphviz version 14.0.5 (0)
 -->
<!-- Title: remove_client Pages: 1 -->
<svg width="923pt" height="103pt"
 viewBox="0.00 0.00 923.00 103.00" xmlns="http://www.w3.org/2000/svg" xmlns:xlink="http://www.w3.org/1999/xlink">
<g id="graph0" class="graph" transform="scale(1 1) rotate(0) translate(4 99.25)">
<title>remove_client</title>
<!-- Node1 -->
<g id="Node000001" class="node">
<title>Node1</title>
<g id="a_Node000001"><a xlink:title=" ">
<polygon fill="#999999" stroke="#666666" points="914.75,-38.25 838,-38.25 838,-19 914.75,-19 914.75,-38.25"/>
<text xml:space="preserve" text-anchor="middle" x="876.38" y="-24.75" font-family="Helvetica,sans-Serif" font-size="10.00">remove_client</text>
</a>
</g>
</g>
<!-- Node2 -->
<g id="Node000002" class="node">
<title>Node2</title>
<g id="a_Node000002"><a xlink:href="espresso_8c.html#aaf78724518167158b66ec656312fabd2" target="_top" xlink:title=" ">
<polygon fill="white" stroke="#666666" points="802,-38.25 676.5,-38.25 676.5,-19 802,-19 802,-38.25"/>
<text xml:space="preserve" text-anchor="middle" x="739.25" y="-24.75" font-family="Helvetica,sans-Serif" font-size="10.00">handle_connection_close</text>
</a>
</g>
</g>
<!-- Node1&#45;&gt;Node2 -->
<g id="edge1_Node000001_Node000002" class="edge">
<title>Node1&#45;&gt;Node2</title>
<g id="a_edge1_Node000001_Node000002"><a xlink:title=" ">
<path fill="none" stroke="#63b8ff" d="M826.25,-28.62C818.46,-28.62 810.32,-28.62 802.28,-28.62"/>
<polygon fill="#63b8ff" stroke="#63b8ff" points="826.22,-32.13 836.22,-28.63 826.22,-25.13 826.22,-32.13"/>
</a>
</g>
</g>
<!-- Node3 -->
<g id="Node000003" class="node">
<title>Node3</title>
<g id="a_Node000003"><a xlink:href="espresso_8c.html#a73277811539a2de04ce7e1295fbdba6a" target="_top" xlink:title=" ">
<polygon fill="white" stroke="#666666" points="640.5,-38.25 548.75,-38.25 548.75,-19 640.5,-19 640.5,-38.25"/>
<text xml:space="preserve" text-anchor="middle" x="594.62" y="-24.75" font-family="Helvetica,sans-Serif" font-size="10.00">close_connection</text>
</a>
</g>
</g>
<!-- Node2&#45;&gt;Node3 -->
<g id="edge2_Node000002_Node000003" class="edge">
<title>Node2&#45;&gt;Node3</title>
<g id="a_edge2_Node000002_Node000003"><a xlink:title=" ">
<path fill="none" stroke="#63b8ff" d="M664.65,-28.62C656.53,-28.62 648.45,-28.62 640.84,-28.62"/>
<polygon fill="#63b8ff" stroke="#63b8ff" points="664.59,-32.13 674.59,-28.63 664.59,-25.13 664.59,-32.13"/>
</a>
</g>
</g>
<!-- Node4 -->
<g id="Node000004" class="node">
<title>Node4</title>
<g id="a_Node000004"><a xlink:href="espresso_8c.html#a3489a7e521f0aceb3e050ca4b9f165d7" target="_top" xlink:title="Closes the app and frees resources.">
<polygon fill="white" stroke="#666666" points="384.62,-76.25 324.38,-76.25 324.38,-57 384.62,-57 384.62,-76.25"/>
<text xml:space="preserve" text-anchor="middle" x="354.5" y="-62.75" font-family="Helvetica,sans-Serif" font-size="10.00">app_close</text>
</a>
</g>
</g>
<!-- Node3&#45;&gt;Node4 -->
<g id="edge3_Node000003_Node000004" class="edge">
<title>Node3&#45;&gt;Node4</title>
<g id="a_edge3_Node000003_Node000004"><a xlink:title=" ">
<path fill="none" stroke="#63b8ff" d="M543.53,-41.3C533.39,-43.61 522.76,-45.85 512.75,-47.62 468.48,-55.47 416.62,-61.05 384.91,-64.05"/>
<polygon fill="#63b8ff" stroke="#63b8ff" points="544.31,-44.71 553.25,-39.03 542.72,-37.9 544.31,-44.71"/>
</a>
</g>
</g>
<!-- Node8 -->
<g id="Node000008" class="node">
<title>Node8</title>
<g id="a_Node000008"><a xlink:href="espresso_8c.html#a2a7b96459e0adac1061eaec6a5722075" target="_top" xlink:title=" ">
<polygon fill="white" stroke="#666666" points="512.75,-38.25 439,-38.25 439,-19 512.75,-19 512.75,-38.25"/>
<text xml:space="preserve" text-anchor="middle" x="475.88" y="-24.75" font-family="Helvetica,sans-Serif" font-size="10.00">handle_buffer</text>
</a>
</g>
</g>
<!-- Node3&#45;&gt;Node8 -->
<g id="edge8_Node000003_Node000008" class="edge">
<title>Node3&#45;&gt;Node8</title>
<g id="a_edge8_Node000003_Node000008"><a xlink:title=" ">
<path fill="none" stroke="#63b8ff" d="M537.1,-28.62C528.98,-28.62 520.81,-28.62 513.22,-28.62"/>
<polygon fill="#63b8ff" stroke="#63b8ff" points="536.97,-32.13 546.97,-28.63 536.97,-25.13 536.97,-32.13"/>
</a>
</g>
</g>
<!-- Node10 -->
<g id="Node000010" class="node">
<title>Node10</title>
<g id="a_Node000010"><a xlink:href="espresso_8c.html#a90f2058b8890cfb99e6f595b8f066919" target="_top" xlink:title=" ">
<polygon fill="white" stroke="#666666" points="270,-19.25 173,-19.25 173,0 270,0 270,-19.25"/>
<text xml:space="preserve" text-anchor="middle" x="221.5" y="-5.75" font-family="Helvetica,sans-Serif" font-size="10.00">handle_connection</text>
</a>
</g>
</g>
<!-- Node3&#45;&gt;Node10 -->
<g id="edge13_Node000003_Node000010" class="edge">
<title>Node3&#45;&gt;Node10</title>
<g id="a_edge13_Node000003_Node000010"><a xlink:title=" ">
<path fill="none" stroke="#63b8ff" d="M547.55,-15.87C536.26,-13.28 524.14,-10.94 512.75,-9.62 427.91,0.21 328.17,-2.98 270.46,-6.26"/>
<polygon fill="#63b8ff" stroke="#63b8ff" points="546.49,-19.21 557.04,-18.16 548.14,-12.41 546.49,-19.21"/>
</a>
</g>
</g>
<!-- Node5 -->
<g id="Node000005" class="node">
<title>Node5</title>
<g id="a_Node000005"><a xlink:href="espresso_8c.html#a1f2696ccccf441f76c9f5161fb903db5" target="_top" xlink:title=" ">
<polygon fill="white" stroke="#666666" points="265.5,-95.25 177.5,-95.25 177.5,-76 265.5,-76 265.5,-95.25"/>
<text xml:space="preserve" text-anchor="middle" x="221.5" y="-81.75" font-family="Helvetica,sans-Serif" font-size="10.00">lib_handle_sigint</text>
</a>
</g>
</g>
<!-- Node4&#45;&gt;Node5 -->
<g id="edge4_Node000004_Node000005" class="edge">
<title>Node4&#45;&gt;Node5</title>
<g id="a_edge4_Node000004_Node000005"><a xlink:title=" ">
<path fill="none" stroke="#63b8ff" d="M313.14,-72.48C298.19,-74.65 281.19,-77.11 265.98,-79.32"/>
<polygon fill="#63b8ff" stroke="#63b8ff" points="313.21,-76.01 322.6,-71.11 312.2,-69.08 313.21,-76.01"/>
</a>
</g>
</g>
<!-- Node7 -->
<g id="Node000007" class="node">
<title>Node7</title>
<g id="a_Node000007"><a xlink:href="main_8c.html#ae66f6b31b5ad750f1fe042a706a4e3d4" target="_top" xlink:title=" ">
<polygon fill="white" stroke="#666666" points="37,-57.25 0,-57.25 0,-38 37,-38 37,-57.25"/>
<text xml:space="preserve" text-anchor="middle" x="18.5" y="-43.75" font-family="Helvetica,sans-Serif" font-size="10.00">main</text>
</a>
</g>
</g>
<!-- Node4&#45;&gt;Node7 -->
<g id="edge7_Node000004_Node000007" class="edge">
<title>Node4&#45;&gt;Node7</title>
<g id="a_edge7_Node000004_Node000007"><a xlink:title=" ">
<path fill="none" stroke="#63b8ff" d="M312.69,-64.3C239.6,-60.15 89.14,-51.59 37.42,-48.64"/>
<polygon fill="#63b8ff" stroke="#63b8ff" points="312.46,-67.8 322.64,-64.87 312.86,-60.81 312.46,-67.8"/>
</a>
</g>
</g>
<!-- Node6 -->
<g id="Node000006" class="node">
<title>Node6</title>
<g id="a_Node000006"><a xlink:href="espresso_8c.html#a54c30f08a1b67315ac3195d1a7fac35f" target="_top" xlink:title="Creates a new Espresso app on the specified port.">
<polygon fill="white" stroke="#666666" points="137,-95.25 73,-95.25 73,-76 137,-76 137,-95.25"/>
<text xml:space="preserve" text-anchor="middle" x="105" y="-81.75" font-family="Helvetica,sans-Serif" font-size="10.00">create_app</text>
</a>
</g>
</g>
<!-- Node5&#45;&gt;Node6 -->
<g id="edge5_Node000005_Node000006" class="edge">
<title>Node5&#45;&gt;Node6</title>
<g id="a_edge5_Node000005_Node000006"><a xlink:title=" ">
<path fill="none" stroke="#63b8ff" d="M165.81,-85.62C155.99,-85.62 146.08,-85.62 137.22,-85.62"/>
<polygon fill="#63b8ff" stroke="#63b8ff" points="165.7,-89.13 175.7,-85.63 165.7,-82.13 165.7,-89.13"/>
</a>
</g>
</g>
<!-- Node6&#45;&gt;Node7 -->
<g id="edge6_Node000006_Node000007" class="edge">
<title>Node6&#45;&gt;Node7</title>
<g id="a_edge6_Node000006_Node000007"><a xlink:title=" ">
<path fill="none" stroke="#63b8ff" d="M71.52,-71.02C59.9,-65.79 47.22,-60.09 37.3,-55.63"/>
<polygon fill="#63b8ff" stroke="#63b8ff" points="69.86,-74.11 80.42,-75.02 72.73,-67.73 69.86,-74.11"/>
</a>
</g>
</g>
<!-- Node9 -->
<g id="Node000009" class="node">
<title>Node9</title>
<g id="a_Node000009"><a xlink:href="espresso_8c.html#a919e9a8a992f43f0fd82e87f4d40d2d2" target="_top" xlink:title=" ">
<polygon fill="white" stroke="#666666" points="403,-38.25 306,-38.25 306,-19 403,-19 403,-38.25"/>
<text xml:space="preserve" text-anchor="middle" x="354.5" y="-24.75" font-family="Helvetica,sans-Serif" font-size="10.00">handle_client_read</text>
</a>
</g>
</g>
<!-- Node8&#45;&gt;Node9 -->
<g id="edge9_Node000008_Node000009" class="edge">
<title>Node8&#45;&gt;Node9</title>
<g id="a_edge9_Node000008_Node000009"><a xlink:title=" ">
<path fill="none" stroke="#63b8ff" d="M427.44,-28.62C419.54,-28.62 411.34,-28.62 403.42,-28.62"/>
<polygon fill="#63b8ff" stroke="#63b8ff" points="427.22,-32.13 437.22,-28.63 427.22,-25.13 427.22,-32.13"/>
</a>
</g>
</g>
<!-- Node9&#45;&gt;Node10 -->
<g id="edge10_Node000009_Node000010" class="edge">
<title>Node9&#45;&gt;Node10</title>
<g id="a_edge10_Node000009_Node000010"><a xlink:title=" ">
<path fill="none" stroke="#63b8ff" d="M294.53,-20.07C286.44,-18.9 278.21,-17.71 270.35,-16.56"/>
<polygon fill="#63b8ff" stroke="#63b8ff" points="293.94,-23.52 304.34,-21.49 294.94,-16.6 293.94,-23.52"/>
</a>
</g>
</g>
<!-- Node11 -->
<g id="Node000011" class="node">
<title>Node11</title>
<g id="a_Node000011"><a xlink:href="espresso_8c.html#a0ba22157d15a70c4c22441b040bb0f74" target="_top" xlink:title="Starts the HTTP server loop.">
<polygon fill="white" stroke="#666666" points="135.12,-19.25 74.88,-19.25 74.88,0 135.12,0 135.12,-19.25"/>
<text xml:space="preserve" text-anchor="middle" x="105" y="-5.75" font-family="Helvetica,sans-Serif" font-size="10.00">app_listen</text>
</a>
</g>
</g>
<!-- Node10&#45;&gt;Node11 -->
<g id="edge11_Node000010_Node000011" class="edge">
<title>Node10&#45;&gt;Node11</title>
<g id="a_edge11_Node000010_Node000011"><a xlink:title=" ">
<path fill="none" stroke="#63b8ff" d="M161.26,-9.62C152.28,-9.62 143.37,-9.62 135.41,-9.62"/>
<polygon fill="#63b8ff" stroke="#63b8ff" points="161.09,-13.13 171.09,-9.63 161.09,-6.13 161.09,-13.13"/>
</a>
</g>
</g>
<!-- Node11&#45;&gt;Node7 -->
<g id="edge12_Node000011_Node000007" class="edge">
<title>Node11&#45;&gt;Node7</title>
<g id="a_edge12_Node000011_Node000007"><a xlink:title=" ">
<path fill="none" stroke="#63b8ff" d="M71.52,-24.23C59.9,-29.46 47.22,-35.16 37.3,-39.62"/>
<polygon fill="#63b8ff" stroke="#63b8ff" points="72.73,-27.52 80.42,-20.23 69.86,-21.14 72.73,-27.52"/>
</a>
</g>
</g>
</g>
</svg>
