<?xml version="1.0" encoding="UTF-8" standalone="no"?>
<!DOCTYPE svg PUBLIC "-//W3C//DTD SVG 1.1//EN"
 "http://www.w3.org/Graphics/SVG/1.1/DTD/svg11.dtd">
<!-- Generated by graphviz version 14.0.5 (0)
 -->
<!-- Title: create_app Pages: 1 -->
<svg width="845pt" height="101pt"
 viewBox="0.00 0.00 845.00 101.00" xmlns="http://www.w3.org/2000/svg" xmlns:xlink="http://www.w3.org/1999/xlink">
<g id="graph0" class="graph" transform="scale(1 1) rotate(0) translate(4 97.25)">
<title>create_app</title>
<!-- Node1 -->
<g id="Node000001" class="node">
<title>Node1</title>
<g id="a_Node000001"><a xlink:title="Creates a new Espresso app on the specified port.">
<polygon fill="#999999" stroke="#666666" points="64,-37.25 0,-37.25 0,-18 64,-18 64,-37.25"/>
<text xml:space="preserve" text-anchor="middle" x="32" y="-23.75" font-family="Helvetica,sans-Serif" font-size="10.00">create_app</text>
</a>
</g>
</g>
<!-- Node2 -->
<g id="Node000002" class="node">
<title>Node2</title>
<g id="a_Node000002"><a xlink:href="espresso_8c.html#a1f2696ccccf441f76c9f5161fb903db5" target="_top" xlink:title=" ">
<polygon fill="white" stroke="#666666" points="188,-56.25 100,-56.25 100,-37 188,-37 188,-56.25"/>
<text xml:space="preserve" text-anchor="middle" x="144" y="-42.75" font-family="Helvetica,sans-Serif" font-size="10.00">lib_handle_sigint</text>
</a>
</g>
</g>
<!-- Node1&#45;&gt;Node2 -->
<g id="edge1_Node000001_Node000002" class="edge">
<title>Node1&#45;&gt;Node2</title>
<g id="a_edge1_Node000001_Node000002"><a xlink:title=" ">
<path fill="none" stroke="#63b8ff" d="M64.23,-33.02C71.83,-34.33 80.17,-35.77 88.51,-37.21"/>
<polygon fill="#63b8ff" stroke="#63b8ff" points="87.85,-40.65 98.3,-38.9 89.04,-33.75 87.85,-40.65"/>
</a>
</g>
</g>
<!-- Node10 -->
<g id="Node000010" class="node">
<title>Node10</title>
<g id="a_Node000010"><a xlink:href="espresso_8c.html#abdcfd909d1360f16c6fedab5aac76f2a" target="_top" xlink:title=" ">
<polygon fill="white" stroke="#666666" points="170.75,-19.25 117.25,-19.25 117.25,0 170.75,0 170.75,-19.25"/>
<text xml:space="preserve" text-anchor="middle" x="144" y="-5.75" font-family="Helvetica,sans-Serif" font-size="10.00">log_error</text>
</a>
</g>
</g>
<!-- Node1&#45;&gt;Node10 -->
<g id="edge9_Node000001_Node000010" class="edge">
<title>Node1&#45;&gt;Node10</title>
<g id="a_edge9_Node000001_Node000010"><a xlink:title=" ">
<path fill="none" stroke="#63b8ff" d="M64.23,-22.52C77.1,-20.41 92.12,-17.95 105.57,-15.75"/>
<polygon fill="#63b8ff" stroke="#63b8ff" points="106.1,-19.21 115.41,-14.14 104.97,-12.3 106.1,-19.21"/>
</a>
</g>
</g>
<!-- Node3 -->
<g id="Node000003" class="node">
<title>Node3</title>
<g id="a_Node000003"><a xlink:href="espresso_8c.html#a3489a7e521f0aceb3e050ca4b9f165d7" target="_top" xlink:title="Closes the app and frees resources.">
<polygon fill="white" stroke="#666666" points="284.25,-56.25 224,-56.25 224,-37 284.25,-37 284.25,-56.25"/>
<text xml:space="preserve" text-anchor="middle" x="254.12" y="-42.75" font-family="Helvetica,sans-Serif" font-size="10.00">app_close</text>
</a>
</g>
</g>
<!-- Node2&#45;&gt;Node3 -->
<g id="edge2_Node000002_Node000003" class="edge">
<title>Node2&#45;&gt;Node3</title>
<g id="a_edge2_Node000002_Node000003"><a xlink:title=" ">
<path fill="none" stroke="#63b8ff" d="M188.36,-46.62C196.24,-46.62 204.43,-46.62 212.24,-46.62"/>
<polygon fill="#63b8ff" stroke="#63b8ff" points="212.18,-50.13 222.18,-46.63 212.18,-43.13 212.18,-50.13"/>
</a>
</g>
</g>
<!-- Node4 -->
<g id="Node000004" class="node">
<title>Node4</title>
<g id="a_Node000004"><a xlink:href="espresso_8c.html#a73277811539a2de04ce7e1295fbdba6a" target="_top" xlink:title=" ">
<polygon fill="white" stroke="#666666" points="412,-56.25 320.25,-56.25 320.25,-37 412,-37 412,-56.25"/>
<text xml:space="preserve" text-anchor="middle" x="366.12" y="-42.75" font-family="Helvetica,sans-Serif" font-size="10.00">close_connection</text>
</a>
</g>
</g>
<!-- Node3&#45;&gt;Node4 -->
<g id="edge3_Node000003_Node000004" class="edge">
<title>Node3&#45;&gt;Node4</title>
<g id="a_edge3_Node000003_Node000004"><a xlink:title=" ">
<path fill="none" stroke="#63b8ff" d="M284.6,-46.62C292.04,-46.62 300.28,-46.62 308.56,-46.62"/>
<polygon fill="#63b8ff" stroke="#63b8ff" points="308.31,-50.13 318.31,-46.63 308.31,-43.13 308.31,-50.13"/>
</a>
</g>
</g>
<!-- Node5 -->
<g id="Node000005" class="node">
<title>Node5</title>
<g id="a_Node000005"><a xlink:href="espresso_8c.html#aaf78724518167158b66ec656312fabd2" target="_top" xlink:title=" ">
<polygon fill="white" stroke="#666666" points="573.5,-56.25 448,-56.25 448,-37 573.5,-37 573.5,-56.25"/>
<text xml:space="preserve" text-anchor="middle" x="510.75" y="-42.75" font-family="Helvetica,sans-Serif" font-size="10.00">handle_connection_close</text>
</a>
</g>
</g>
<!-- Node4&#45;&gt;Node5 -->
<g id="edge4_Node000004_Node000005" class="edge">
<title>Node4&#45;&gt;Node5</title>
<g id="a_edge4_Node000004_Node000005"><a xlink:title=" ">
<path fill="none" stroke="#63b8ff" d="M412.25,-46.62C420,-46.62 428.22,-46.62 436.47,-46.62"/>
<polygon fill="#63b8ff" stroke="#63b8ff" points="436.2,-50.13 446.2,-46.63 436.2,-43.13 436.2,-50.13"/>
</a>
</g>
</g>
<!-- Node6 -->
<g id="Node000006" class="node">
<title>Node6</title>
<g id="a_Node000006"><a xlink:href="espresso_8c.html#a1804ce3a25646fd9c6c6ad98d45c6efa" target="_top" xlink:title=" ">
<polygon fill="white" stroke="#666666" points="701.25,-75.25 609.5,-75.25 609.5,-56 701.25,-56 701.25,-75.25"/>
<text xml:space="preserve" text-anchor="middle" x="655.38" y="-61.75" font-family="Helvetica,sans-Serif" font-size="10.00">endpoint_cleanup</text>
</a>
</g>
</g>
<!-- Node5&#45;&gt;Node6 -->
<g id="edge5_Node000005_Node000006" class="edge">
<title>Node5&#45;&gt;Node6</title>
<g id="a_edge5_Node000005_Node000006"><a xlink:title=" ">
<path fill="none" stroke="#63b8ff" d="M573.89,-54.9C581.86,-55.96 589.99,-57.05 597.86,-58.1"/>
<polygon fill="#63b8ff" stroke="#63b8ff" points="597.29,-61.55 607.66,-59.4 598.21,-54.61 597.29,-61.55"/>
</a>
</g>
</g>
<!-- Node9 -->
<g id="Node000009" class="node">
<title>Node9</title>
<g id="a_Node000009"><a xlink:href="espresso_8c.html#a837cf67658f96fc262c83a4882f96f45" target="_top" xlink:title=" ">
<polygon fill="white" stroke="#666666" points="693.75,-38.25 617,-38.25 617,-19 693.75,-19 693.75,-38.25"/>
<text xml:space="preserve" text-anchor="middle" x="655.38" y="-24.75" font-family="Helvetica,sans-Serif" font-size="10.00">remove_client</text>
</a>
</g>
</g>
<!-- Node5&#45;&gt;Node9 -->
<g id="edge8_Node000005_Node000009" class="edge">
<title>Node5&#45;&gt;Node9</title>
<g id="a_edge8_Node000005_Node000009"><a xlink:title=" ">
<path fill="none" stroke="#63b8ff" d="M573.89,-38.78C584.47,-37.45 595.33,-36.08 605.5,-34.79"/>
<polygon fill="#63b8ff" stroke="#63b8ff" points="605.67,-38.3 615.15,-33.58 604.79,-31.35 605.67,-38.3"/>
</a>
</g>
</g>
<!-- Node7 -->
<g id="Node000007" class="node">
<title>Node7</title>
<g id="a_Node000007"><a xlink:href="espresso_8c.html#a713520bedc85cf92de9f221038f1b737" target="_top" xlink:title=" ">
<polygon fill="white" stroke="#666666" points="837.25,-93.25 737.25,-93.25 737.25,-74 837.25,-74 837.25,-93.25"/>
<text xml:space="preserve" text-anchor="middle" x="787.25" y="-79.75" font-family="Helvetica,sans-Serif" font-size="10.00">handle_timer_close</text>
</a>
</g>
</g>
<!-- Node6&#45;&gt;Node7 -->
<g id="edge6_Node000006_Node000007" class="edge">
<title>Node6&#45;&gt;Node7</title>
<g id="a_edge6_Node000006_Node000007"><a xlink:title=" ">
<path fill="none" stroke="#63b8ff" d="M701.43,-71.87C709.2,-72.95 717.39,-74.08 725.49,-75.2"/>
<polygon fill="#63b8ff" stroke="#63b8ff" points="724.95,-78.66 735.34,-76.57 725.91,-71.73 724.95,-78.66"/>
</a>
</g>
</g>
<!-- Node8 -->
<g id="Node000008" class="node">
<title>Node8</title>
<g id="a_Node000008"><a xlink:href="espresso_8c.html#aff314ce54a1f87e10d08bf4ddeeaf537" target="_top" xlink:title=" ">
<polygon fill="white" stroke="#666666" points="830.88,-56.25 743.62,-56.25 743.62,-37 830.88,-37 830.88,-56.25"/>
<text xml:space="preserve" text-anchor="middle" x="787.25" y="-42.75" font-family="Helvetica,sans-Serif" font-size="10.00">request_cleanup</text>
</a>
</g>
</g>
<!-- Node6&#45;&gt;Node8 -->
<g id="edge7_Node000006_Node000008" class="edge">
<title>Node6&#45;&gt;Node8</title>
<g id="a_edge7_Node000006_Node000008"><a xlink:title=" ">
<path fill="none" stroke="#63b8ff" d="M701.43,-59.03C711.34,-57.58 721.92,-56.04 732.13,-54.54"/>
<polygon fill="#63b8ff" stroke="#63b8ff" points="732.57,-58.02 741.96,-53.1 731.56,-51.09 732.57,-58.02"/>
</a>
</g>
</g>
</g>
</svg>
