<?xml version="1.0" encoding="UTF-8" standalone="no"?>
<!DOCTYPE svg PUBLIC "-//W3C//DTD SVG 1.1//EN"
 "http://www.w3.org/Graphics/SVG/1.1/DTD/svg11.dtd">
<!-- Generated by graphviz version 14.0.5 (0)
 -->
<!-- Title: handle_client_read Pages: 1 -->
<svg width="848pt" height="197pt"
 viewBox="0.00 0.00 848.00 197.00" xmlns="http://www.w3.org/2000/svg" xmlns:xlink="http://www.w3.org/1999/xlink">
<g id="graph0" class="graph" transform="scale(1 1) rotate(0) translate(4 193.25)">
<title>handle_client_read</title>
<!-- Node1 -->
<g id="Node000001" class="node">
<title>Node1</title>
<g id="a_Node000001"><a xlink:title=" ">
<polygon fill="#999999" stroke="#666666" points="97,-95.25 0,-95.25 0,-76 97,-76 97,-95.25"/>
<text xml:space="preserve" text-anchor="middle" x="48.5" y="-81.75" font-family="Helvetica,sans-Serif" font-size="10.00">handle_client_read</text>
</a>
</g>
</g>
<!-- Node2 -->
<g id="Node000002" class="node">
<title>Node2</title>
<g id="a_Node000002"><a xlink:href="espresso_8c.html#a2a7b96459e0adac1061eaec6a5722075" target="_top" xlink:title=" ">
<polygon fill="white" stroke="#666666" points="206.75,-95.25 133,-95.25 133,-76 206.75,-76 206.75,-95.25"/>
<text xml:space="preserve" text-anchor="middle" x="169.88" y="-81.75" font-family="Helvetica,sans-Serif" font-size="10.00">handle_buffer</text>
</a>
</g>
</g>
<!-- Node1&#45;&gt;Node2 -->
<g id="edge1_Node000001_Node000002" class="edge">
<title>Node1&#45;&gt;Node2</title>
<g id="a_edge1_Node000001_Node000002"><a xlink:title=" ">
<path fill="none" stroke="#63b8ff" d="M97.37,-85.62C105.3,-85.62 113.52,-85.62 121.44,-85.62"/>
<polygon fill="#63b8ff" stroke="#63b8ff" points="121.25,-89.13 131.25,-85.63 121.25,-82.13 121.25,-89.13"/>
</a>
</g>
</g>
<!-- Node3 -->
<g id="Node000003" class="node">
<title>Node3</title>
<g id="a_Node000003"><a xlink:href="espresso_8c.html#a73277811539a2de04ce7e1295fbdba6a" target="_top" xlink:title=" ">
<polygon fill="white" stroke="#666666" points="338.25,-171.25 246.5,-171.25 246.5,-152 338.25,-152 338.25,-171.25"/>
<text xml:space="preserve" text-anchor="middle" x="292.38" y="-157.75" font-family="Helvetica,sans-Serif" font-size="10.00">close_connection</text>
</a>
</g>
</g>
<!-- Node2&#45;&gt;Node3 -->
<g id="edge2_Node000002_Node000003" class="edge">
<title>Node2&#45;&gt;Node3</title>
<g id="a_edge2_Node000002_Node000003"><a xlink:title=" ">
<path fill="none" stroke="#63b8ff" d="M183.41,-95.69C197.42,-106.7 220.98,-124.51 242.75,-137.62 247.86,-140.7 253.42,-143.73 258.89,-146.54"/>
<polygon fill="#63b8ff" stroke="#63b8ff" points="257.3,-149.66 267.82,-150.96 260.41,-143.39 257.3,-149.66"/>
</a>
</g>
</g>
<!-- Node7 -->
<g id="Node000007" class="node">
<title>Node7</title>
<g id="a_Node000007"><a xlink:href="espresso_8c.html#aca61aa31ed57abce18d1d3cffd0d47e3" target="_top" xlink:title=" ">
<polygon fill="white" stroke="#666666" points="498.62,-133.25 382.88,-133.25 382.88,-114 498.62,-114 498.62,-133.25"/>
<text xml:space="preserve" text-anchor="middle" x="440.75" y="-119.75" font-family="Helvetica,sans-Serif" font-size="10.00">generate_allow_header</text>
</a>
</g>
</g>
<!-- Node2&#45;&gt;Node7 -->
<g id="edge6_Node000002_Node000007" class="edge">
<title>Node2&#45;&gt;Node7</title>
<g id="a_edge6_Node000002_Node000007"><a xlink:title=" ">
<path fill="none" stroke="#63b8ff" d="M204.26,-95.66C216.3,-98.95 230.05,-102.35 242.75,-104.62 285.05,-112.2 333.03,-116.91 371.06,-119.75"/>
<polygon fill="#63b8ff" stroke="#63b8ff" points="370.78,-123.24 381.01,-120.46 371.28,-116.25 370.78,-123.24"/>
</a>
</g>
</g>
<!-- Node8 -->
<g id="Node000008" class="node">
<title>Node8</title>
<g id="a_Node000008"><a xlink:href="espresso_8c.html#a373b955efab67a13fdc71105c53aa5d5" target="_top" xlink:title="ONLY FOR UNIT TESTS.">
<polygon fill="white" stroke="#666666" points="335.62,-95.25 249.12,-95.25 249.12,-76 335.62,-76 335.62,-95.25"/>
<text xml:space="preserve" text-anchor="middle" x="292.38" y="-81.75" font-family="Helvetica,sans-Serif" font-size="10.00">handle_endpoint</text>
</a>
</g>
</g>
<!-- Node2&#45;&gt;Node8 -->
<g id="edge7_Node000002_Node000008" class="edge">
<title>Node2&#45;&gt;Node8</title>
<g id="a_edge7_Node000002_Node000008"><a xlink:title=" ">
<path fill="none" stroke="#63b8ff" d="M207.03,-85.62C216.6,-85.62 227.14,-85.62 237.43,-85.62"/>
<polygon fill="#63b8ff" stroke="#63b8ff" points="237.37,-89.13 247.37,-85.63 237.37,-82.13 237.37,-89.13"/>
</a>
</g>
</g>
<!-- Node14 -->
<g id="Node000014" class="node">
<title>Node14</title>
<g id="a_Node000014"><a xlink:href="espresso_8c.html#a142b429010a8046d339d36552bd20f7e" target="_top" xlink:title=" ">
<polygon fill="white" stroke="#666666" points="481.75,-22.25 399.75,-22.25 399.75,-3 481.75,-3 481.75,-22.25"/>
<text xml:space="preserve" text-anchor="middle" x="440.75" y="-8.75" font-family="Helvetica,sans-Serif" font-size="10.00">send_message</text>
</a>
</g>
</g>
<!-- Node2&#45;&gt;Node14 -->
<g id="edge18_Node000002_Node000014" class="edge">
<title>Node2&#45;&gt;Node14</title>
<g id="a_edge18_Node000002_Node000014"><a xlink:title=" ">
<path fill="none" stroke="#63b8ff" d="M207.14,-75.78C254.91,-62.81 339.06,-39.96 391.98,-25.6"/>
<polygon fill="#63b8ff" stroke="#63b8ff" points="392.58,-29.06 401.31,-23.06 390.74,-22.3 392.58,-29.06"/>
</a>
</g>
</g>
<!-- Node16 -->
<g id="Node000016" class="node">
<title>Node16</title>
<g id="a_Node000016"><a xlink:href="espresso_8c.html#a8ddc375ff20a190089968e04405e0a70" target="_top" xlink:title="ONLY FOR UNIT TESTS.">
<polygon fill="white" stroke="#666666" points="342,-19.25 242.75,-19.25 242.75,0 342,0 342,-19.25"/>
<text xml:space="preserve" text-anchor="middle" x="292.38" y="-5.75" font-family="Helvetica,sans-Serif" font-size="10.00">parse_http_request</text>
</a>
</g>
</g>
<!-- Node2&#45;&gt;Node16 -->
<g id="edge16_Node000002_Node000016" class="edge">
<title>Node2&#45;&gt;Node16</title>
<g id="a_edge16_Node000002_Node000016"><a xlink:title=" ">
<path fill="none" stroke="#63b8ff" d="M183.41,-75.56C197.42,-64.55 220.98,-46.74 242.75,-33.62 247.86,-30.55 253.42,-27.52 258.89,-24.71"/>
<polygon fill="#63b8ff" stroke="#63b8ff" points="260.41,-27.86 267.82,-20.29 257.3,-21.59 260.41,-27.86"/>
</a>
</g>
</g>
<!-- Node4 -->
<g id="Node000004" class="node">
<title>Node4</title>
<g id="a_Node000004"><a xlink:href="espresso_8c.html#aaf78724518167158b66ec656312fabd2" target="_top" xlink:title=" ">
<polygon fill="white" stroke="#666666" points="503.5,-171.25 378,-171.25 378,-152 503.5,-152 503.5,-171.25"/>
<text xml:space="preserve" text-anchor="middle" x="440.75" y="-157.75" font-family="Helvetica,sans-Serif" font-size="10.00">handle_connection_close</text>
</a>
</g>
</g>
<!-- Node3&#45;&gt;Node4 -->
<g id="edge3_Node000003_Node000004" class="edge">
<title>Node3&#45;&gt;Node4</title>
<g id="a_edge3_Node000003_Node000004"><a xlink:title=" ">
<path fill="none" stroke="#63b8ff" d="M338.49,-161.62C347.27,-161.62 356.68,-161.62 366.1,-161.62"/>
<polygon fill="#63b8ff" stroke="#63b8ff" points="366.05,-165.13 376.05,-161.63 366.05,-158.13 366.05,-165.13"/>
</a>
</g>
</g>
<!-- Node5 -->
<g id="Node000005" class="node">
<title>Node5</title>
<g id="a_Node000005"><a xlink:href="espresso_8c.html#a1804ce3a25646fd9c6c6ad98d45c6efa" target="_top" xlink:title=" ">
<polygon fill="white" stroke="#666666" points="631.25,-189.25 539.5,-189.25 539.5,-170 631.25,-170 631.25,-189.25"/>
<text xml:space="preserve" text-anchor="middle" x="585.38" y="-175.75" font-family="Helvetica,sans-Serif" font-size="10.00">endpoint_cleanup</text>
</a>
</g>
</g>
<!-- Node4&#45;&gt;Node5 -->
<g id="edge4_Node000004_Node000005" class="edge">
<title>Node4&#45;&gt;Node5</title>
<g id="a_edge4_Node000004_Node000005"><a xlink:title=" ">
<path fill="none" stroke="#63b8ff" d="M503.89,-169.47C511.86,-170.47 519.99,-171.5 527.86,-172.49"/>
<polygon fill="#63b8ff" stroke="#63b8ff" points="527.3,-175.95 537.66,-173.73 528.18,-169.01 527.3,-175.95"/>
</a>
</g>
</g>
<!-- Node6 -->
<g id="Node000006" class="node">
<title>Node6</title>
<g id="a_Node000006"><a xlink:href="espresso_8c.html#a837cf67658f96fc262c83a4882f96f45" target="_top" xlink:title=" ">
<polygon fill="white" stroke="#666666" points="623.75,-152.25 547,-152.25 547,-133 623.75,-133 623.75,-152.25"/>
<text xml:space="preserve" text-anchor="middle" x="585.38" y="-138.75" font-family="Helvetica,sans-Serif" font-size="10.00">remove_client</text>
</a>
</g>
</g>
<!-- Node4&#45;&gt;Node6 -->
<g id="edge5_Node000004_Node000006" class="edge">
<title>Node4&#45;&gt;Node6</title>
<g id="a_edge5_Node000004_Node000006"><a xlink:title=" ">
<path fill="none" stroke="#63b8ff" d="M503.89,-153.35C514.47,-151.94 525.33,-150.49 535.5,-149.14"/>
<polygon fill="#63b8ff" stroke="#63b8ff" points="535.7,-152.64 545.15,-147.85 534.78,-145.7 535.7,-152.64"/>
</a>
</g>
</g>
<!-- Node8&#45;&gt;Node7 -->
<g id="edge9_Node000008_Node000007" class="edge">
<title>Node8&#45;&gt;Node7</title>
<g id="a_edge9_Node000008_Node000007"><a xlink:title=" ">
<path fill="none" stroke="#63b8ff" d="M332.22,-95.71C349.9,-100.3 371.05,-105.79 389.9,-110.68"/>
<polygon fill="#63b8ff" stroke="#63b8ff" points="388.96,-114.05 399.52,-113.18 390.72,-107.28 388.96,-114.05"/>
</a>
</g>
</g>
<!-- Node9 -->
<g id="Node000009" class="node">
<title>Node9</title>
<g id="a_Node000009"><a xlink:href="espresso_8c.html#a04c27c6493696fb67ab9b8f5296c14f1" target="_top" xlink:title="ONLY FOR UNIT TESTS.">
<polygon fill="white" stroke="#666666" points="482.12,-96.25 399.38,-96.25 399.38,-77 482.12,-77 482.12,-96.25"/>
<text xml:space="preserve" text-anchor="middle" x="440.75" y="-82.75" font-family="Helvetica,sans-Serif" font-size="10.00">compare_paths</text>
</a>
</g>
</g>
<!-- Node8&#45;&gt;Node9 -->
<g id="edge8_Node000008_Node000009" class="edge">
<title>Node8&#45;&gt;Node9</title>
<g id="a_edge8_Node000008_Node000009"><a xlink:title=" ">
<path fill="none" stroke="#63b8ff" d="M336.11,-85.92C352.29,-86.03 370.88,-86.15 387.82,-86.27"/>
<polygon fill="#63b8ff" stroke="#63b8ff" points="387.69,-89.77 397.71,-86.34 387.74,-82.77 387.69,-89.77"/>
</a>
</g>
</g>
<!-- Node10 -->
<g id="Node000010" class="node">
<title>Node10</title>
<g id="a_Node000010"><a xlink:href="espresso_8c.html#a260a9eca1b37d7151fd585fde9e355b8" target="_top" xlink:title="ONLY FOR UNIT TESTS.">
<polygon fill="white" stroke="#666666" points="493.75,-59.25 387.75,-59.25 387.75,-40 493.75,-40 493.75,-59.25"/>
<text xml:space="preserve" text-anchor="middle" x="440.75" y="-45.75" font-family="Helvetica,sans-Serif" font-size="10.00">parse_query_params</text>
</a>
</g>
</g>
<!-- Node8&#45;&gt;Node10 -->
<g id="edge10_Node000008_Node000010" class="edge">
<title>Node8&#45;&gt;Node10</title>
<g id="a_edge10_Node000008_Node000010"><a xlink:title=" ">
<path fill="none" stroke="#63b8ff" d="M334.54,-75.5C350.98,-71.46 370.1,-66.75 387.5,-62.47"/>
<polygon fill="#63b8ff" stroke="#63b8ff" points="388.3,-65.88 397.17,-60.1 386.63,-59.09 388.3,-65.88"/>
</a>
</g>
</g>
<!-- Node8&#45;&gt;Node14 -->
<g id="edge14_Node000008_Node000014" class="edge">
<title>Node8&#45;&gt;Node14</title>
<g id="a_edge14_Node000008_Node000014"><a xlink:title=" ">
<path fill="none" stroke="#63b8ff" d="M316.79,-75.54C325.01,-71.62 334.15,-66.82 342,-61.62 359.61,-49.97 359.44,-40.7 378,-30.62 381.44,-28.76 385.1,-27.06 388.85,-25.53"/>
<polygon fill="#63b8ff" stroke="#63b8ff" points="389.93,-28.86 398.13,-22.15 387.54,-22.28 389.93,-28.86"/>
</a>
</g>
</g>
<!-- Node11 -->
<g id="Node000011" class="node">
<title>Node11</title>
<g id="a_Node000011"><a xlink:href="espresso_8c.html#a2d9a0717a9389e6d178d0f4a8c2ef185" target="_top" xlink:title=" ">
<polygon fill="white" stroke="#666666" points="623.38,-59.25 547.38,-59.25 547.38,-40 623.38,-40 623.38,-59.25"/>
<text xml:space="preserve" text-anchor="middle" x="585.38" y="-45.75" font-family="Helvetica,sans-Serif" font-size="10.00">append_query</text>
</a>
</g>
</g>
<!-- Node10&#45;&gt;Node11 -->
<g id="edge11_Node000010_Node000011" class="edge">
<title>Node10&#45;&gt;Node11</title>
<g id="a_edge11_Node000010_Node000011"><a xlink:title=" ">
<path fill="none" stroke="#63b8ff" d="M494.05,-49.62C507.7,-49.62 522.35,-49.62 535.8,-49.62"/>
<polygon fill="#63b8ff" stroke="#63b8ff" points="535.74,-53.13 545.74,-49.63 535.74,-46.13 535.74,-53.13"/>
</a>
</g>
</g>
<!-- Node12 -->
<g id="Node000012" class="node">
<title>Node12</title>
<g id="a_Node000012"><a xlink:href="espresso_8c.html#a755a65a488e1158eee3fdab0ecada8fe" target="_top" xlink:title=" ">
<polygon fill="white" stroke="#666666" points="743.25,-59.25 667.25,-59.25 667.25,-40 743.25,-40 743.25,-59.25"/>
<text xml:space="preserve" text-anchor="middle" x="705.25" y="-45.75" font-family="Helvetica,sans-Serif" font-size="10.00">decode_query</text>
</a>
</g>
</g>
<!-- Node11&#45;&gt;Node12 -->
<g id="edge12_Node000011_Node000012" class="edge">
<title>Node11&#45;&gt;Node12</title>
<g id="a_edge12_Node000011_Node000012"><a xlink:title=" ">
<path fill="none" stroke="#63b8ff" d="M623.67,-49.62C633.78,-49.62 644.87,-49.62 655.5,-49.62"/>
<polygon fill="#63b8ff" stroke="#63b8ff" points="655.28,-53.13 665.28,-49.63 655.28,-46.13 655.28,-53.13"/>
</a>
</g>
</g>
<!-- Node13 -->
<g id="Node000013" class="node">
<title>Node13</title>
<g id="a_Node000013"><a xlink:href="espresso_8c.html#af4a5274d4719dec853dd32e1d8687553" target="_top" xlink:title=" ">
<polygon fill="white" stroke="#666666" points="839.5,-59.25 779.25,-59.25 779.25,-40 839.5,-40 839.5,-59.25"/>
<text xml:space="preserve" text-anchor="middle" x="809.38" y="-45.75" font-family="Helvetica,sans-Serif" font-size="10.00">hex_to_int</text>
</a>
</g>
</g>
<!-- Node12&#45;&gt;Node13 -->
<g id="edge13_Node000012_Node000013" class="edge">
<title>Node12&#45;&gt;Node13</title>
<g id="a_edge13_Node000012_Node000013"><a xlink:title=" ">
<path fill="none" stroke="#63b8ff" d="M743.7,-49.62C751.5,-49.62 759.76,-49.62 767.67,-49.62"/>
<polygon fill="#63b8ff" stroke="#63b8ff" points="767.41,-53.13 777.41,-49.63 767.41,-46.13 767.41,-53.13"/>
</a>
</g>
</g>
<!-- Node15 -->
<g id="Node000015" class="node">
<title>Node15</title>
<g id="a_Node000015"><a xlink:href="espresso_8c.html#a5fa30991ad104ba1fe0001e7aefe95ac" target="_top" xlink:title=" ">
<polygon fill="white" stroke="#666666" points="631.25,-22.25 539.5,-22.25 539.5,-3 631.25,-3 631.25,-22.25"/>
<text xml:space="preserve" text-anchor="middle" x="585.38" y="-8.75" font-family="Helvetica,sans-Serif" font-size="10.00">handle_write_end</text>
</a>
</g>
</g>
<!-- Node14&#45;&gt;Node15 -->
<g id="edge15_Node000014_Node000015" class="edge">
<title>Node14&#45;&gt;Node15</title>
<g id="a_edge15_Node000014_Node000015"><a xlink:title=" ">
<path fill="none" stroke="#63b8ff" d="M482.24,-12.62C496.35,-12.62 512.45,-12.62 527.64,-12.62"/>
<polygon fill="#63b8ff" stroke="#63b8ff" points="527.5,-16.13 537.5,-12.63 527.5,-9.13 527.5,-16.13"/>
</a>
</g>
</g>
<!-- Node16&#45;&gt;Node14 -->
<g id="edge17_Node000016_Node000014" class="edge">
<title>Node16&#45;&gt;Node14</title>
<g id="a_edge17_Node000016_Node000014"><a xlink:title=" ">
<path fill="none" stroke="#63b8ff" d="M342.12,-10.62C356.96,-10.93 373.32,-11.26 388.34,-11.57"/>
<polygon fill="#63b8ff" stroke="#63b8ff" points="387.93,-15.06 398,-11.77 388.07,-8.06 387.93,-15.06"/>
</a>
</g>
</g>
</g>
</svg>
