<?xml version="1.0" encoding="UTF-8" standalone="no"?>
<!DOCTYPE svg PUBLIC "-//W3C//DTD SVG 1.1//EN"
 "http://www.w3.org/Graphics/SVG/1.1/DTD/svg11.dtd">
<!-- Generated by graphviz version 14.0.5 (0)
 -->
<!-- Title: espresso.h Pages: 1 -->
<svg width="758pt" height="138pt"
 viewBox="0.00 0.00 758.00 138.00" xmlns="http://www.w3.org/2000/svg" xmlns:xlink="http://www.w3.org/1999/xlink">
<g id="graph0" class="graph" transform="scale(1 1) rotate(0) translate(4 133.75)">
<title>espresso.h</title>
<!-- Node1 -->
<g id="Node000001" class="node">
<title>Node1</title>
<g id="a_Node000001"><a xlink:title="Espresso &#45; lightweight Express&#45;like HTTP framework for C.">
<polygon fill="#999999" stroke="#666666" points="425.25,-129.75 362,-129.75 362,-110.5 425.25,-110.5 425.25,-129.75"/>
<text xml:space="preserve" text-anchor="middle" x="393.62" y="-116.25" font-family="Helvetica,sans-Serif" font-size="10.00">espresso.h</text>
</a>
</g>
</g>
<!-- Node2 -->
<g id="Node000002" class="node">
<title>Node2</title>
<g id="a_Node000002"><a xlink:href="cJSON_8h.html" target="_top" xlink:title=" ">
<polygon fill="white" stroke="#666666" points="123.25,-74.5 0,-74.5 0,-55.25 123.25,-55.25 123.25,-74.5"/>
<text xml:space="preserve" text-anchor="middle" x="61.62" y="-61" font-family="Helvetica,sans-Serif" font-size="10.00">vendor/cJSON/cJSON.h</text>
</a>
</g>
</g>
<!-- Node1&#45;&gt;Node2 -->
<g id="edge1_Node000001_Node000002" class="edge">
<title>Node1&#45;&gt;Node2</title>
<g id="a_edge1_Node000001_Node000002"><a xlink:title=" ">
<path fill="none" stroke="#63b8ff" d="M361.79,-114.02C308.56,-105.48 200.37,-88.13 129.46,-76.76"/>
<polygon fill="#63b8ff" stroke="#63b8ff" points="130.34,-73.35 119.91,-75.22 129.23,-80.26 130.34,-73.35"/>
</a>
</g>
</g>
<!-- Node4 -->
<g id="Node000004" class="node">
<title>Node4</title>
<g id="a_Node000004"><a xlink:title=" ">
<polygon fill="#e0e0e0" stroke="#999999" points="188,-74.5 141.25,-74.5 141.25,-55.25 188,-55.25 188,-74.5"/>
<text xml:space="preserve" text-anchor="middle" x="164.62" y="-61" font-family="Helvetica,sans-Serif" font-size="10.00">ctype.h</text>
</a>
</g>
</g>
<!-- Node1&#45;&gt;Node4 -->
<g id="edge3_Node000001_Node000004" class="edge">
<title>Node1&#45;&gt;Node4</title>
<g id="a_edge3_Node000001_Node000004"><a xlink:title=" ">
<path fill="none" stroke="#63b8ff" d="M361.64,-112.17C324.9,-104.11 262.56,-90.22 199.37,-74.86"/>
<polygon fill="#63b8ff" stroke="#63b8ff" points="200.41,-71.51 189.87,-72.54 198.75,-78.31 200.41,-71.51"/>
</a>
</g>
</g>
<!-- Node5 -->
<g id="Node000005" class="node">
<title>Node5</title>
<g id="a_Node000005"><a xlink:title=" ">
<polygon fill="#e0e0e0" stroke="#999999" points="250.88,-74.5 206.38,-74.5 206.38,-55.25 250.88,-55.25 250.88,-74.5"/>
<text xml:space="preserve" text-anchor="middle" x="228.62" y="-61" font-family="Helvetica,sans-Serif" font-size="10.00">stdio.h</text>
</a>
</g>
</g>
<!-- Node1&#45;&gt;Node5 -->
<g id="edge4_Node000001_Node000005" class="edge">
<title>Node1&#45;&gt;Node5</title>
<g id="a_edge4_Node000001_Node000005"><a xlink:title=" ">
<path fill="none" stroke="#63b8ff" d="M365.63,-110.09C337.02,-100.86 292.56,-86.51 262.1,-76.68"/>
<polygon fill="#63b8ff" stroke="#63b8ff" points="263.21,-73.36 252.61,-73.62 261.06,-80.02 263.21,-73.36"/>
</a>
</g>
</g>
<!-- Node6 -->
<g id="Node000006" class="node">
<title>Node6</title>
<g id="a_Node000006"><a xlink:title=" ">
<polygon fill="#e0e0e0" stroke="#999999" points="316,-74.5 269.25,-74.5 269.25,-55.25 316,-55.25 316,-74.5"/>
<text xml:space="preserve" text-anchor="middle" x="292.62" y="-61" font-family="Helvetica,sans-Serif" font-size="10.00">stdlib.h</text>
</a>
</g>
</g>
<!-- Node1&#45;&gt;Node6 -->
<g id="edge5_Node000001_Node000006" class="edge">
<title>Node1&#45;&gt;Node6</title>
<g id="a_edge5_Node000001_Node000006"><a xlink:title=" ">
<path fill="none" stroke="#63b8ff" d="M376.49,-110.09C360.97,-101.91 337.82,-89.71 319.78,-80.19"/>
<polygon fill="#63b8ff" stroke="#63b8ff" points="321.66,-77.23 311.18,-75.66 318.39,-83.42 321.66,-77.23"/>
</a>
</g>
</g>
<!-- Node7 -->
<g id="Node000007" class="node">
<title>Node7</title>
<g id="a_Node000007"><a xlink:title=" ">
<polygon fill="#e0e0e0" stroke="#999999" points="381.38,-74.5 333.88,-74.5 333.88,-55.25 381.38,-55.25 381.38,-74.5"/>
<text xml:space="preserve" text-anchor="middle" x="357.62" y="-61" font-family="Helvetica,sans-Serif" font-size="10.00">string.h</text>
</a>
</g>
</g>
<!-- Node1&#45;&gt;Node7 -->
<g id="edge6_Node000001_Node000007" class="edge">
<title>Node1&#45;&gt;Node7</title>
<g id="a_edge6_Node000001_Node000007"><a xlink:title=" ">
<path fill="none" stroke="#63b8ff" d="M387.68,-110.33C382.91,-103.28 376.06,-93.15 370.1,-84.33"/>
<polygon fill="#63b8ff" stroke="#63b8ff" points="373.05,-82.44 364.55,-76.11 367.25,-86.36 373.05,-82.44"/>
</a>
</g>
</g>
<!-- Node8 -->
<g id="Node000008" class="node">
<title>Node8</title>
<g id="a_Node000008"><a xlink:title=" ">
<polygon fill="#e0e0e0" stroke="#999999" points="460.12,-74.5 399.12,-74.5 399.12,-55.25 460.12,-55.25 460.12,-74.5"/>
<text xml:space="preserve" text-anchor="middle" x="429.62" y="-61" font-family="Helvetica,sans-Serif" font-size="10.00">arpa/inet.h</text>
</a>
</g>
</g>
<!-- Node1&#45;&gt;Node8 -->
<g id="edge7_Node000001_Node000008" class="edge">
<title>Node1&#45;&gt;Node8</title>
<g id="a_edge7_Node000001_Node000008"><a xlink:title=" ">
<path fill="none" stroke="#63b8ff" d="M399.57,-110.33C404.34,-103.28 411.19,-93.15 417.15,-84.33"/>
<polygon fill="#63b8ff" stroke="#63b8ff" points="420,-86.36 422.7,-76.11 414.2,-82.44 420,-86.36"/>
</a>
</g>
</g>
<!-- Node9 -->
<g id="Node000009" class="node">
<title>Node9</title>
<g id="a_Node000009"><a xlink:title=" ">
<polygon fill="#e0e0e0" stroke="#999999" points="541.25,-74.5 478,-74.5 478,-55.25 541.25,-55.25 541.25,-74.5"/>
<text xml:space="preserve" text-anchor="middle" x="509.62" y="-61" font-family="Helvetica,sans-Serif" font-size="10.00">netinet/in.h</text>
</a>
</g>
</g>
<!-- Node1&#45;&gt;Node9 -->
<g id="edge8_Node000001_Node000009" class="edge">
<title>Node1&#45;&gt;Node9</title>
<g id="a_edge8_Node000001_Node000009"><a xlink:title=" ">
<path fill="none" stroke="#63b8ff" d="M413.3,-110.09C431.47,-101.75 458.71,-89.25 479.59,-79.66"/>
<polygon fill="#63b8ff" stroke="#63b8ff" points="480.85,-82.94 488.48,-75.58 477.93,-76.58 480.85,-82.94"/>
</a>
</g>
</g>
<!-- Node10 -->
<g id="Node000010" class="node">
<title>Node10</title>
<g id="a_Node000010"><a xlink:title=" ">
<polygon fill="#e0e0e0" stroke="#999999" points="615.5,-74.5 559.75,-74.5 559.75,-55.25 615.5,-55.25 615.5,-74.5"/>
<text xml:space="preserve" text-anchor="middle" x="587.62" y="-61" font-family="Helvetica,sans-Serif" font-size="10.00">pthread.h</text>
</a>
</g>
</g>
<!-- Node1&#45;&gt;Node10 -->
<g id="edge9_Node000001_Node000010" class="edge">
<title>Node1&#45;&gt;Node10</title>
<g id="a_edge9_Node000001_Node000010"><a xlink:title=" ">
<path fill="none" stroke="#63b8ff" d="M425.66,-110.33C459.26,-101.11 512.11,-86.6 548.23,-76.69"/>
<polygon fill="#63b8ff" stroke="#63b8ff" points="549.15,-80.06 557.87,-74.04 547.3,-73.31 549.15,-80.06"/>
</a>
</g>
</g>
<!-- Node11 -->
<g id="Node000011" class="node">
<title>Node11</title>
<g id="a_Node000011"><a xlink:title=" ">
<polygon fill="#e0e0e0" stroke="#999999" points="682.12,-74.5 633.12,-74.5 633.12,-55.25 682.12,-55.25 682.12,-74.5"/>
<text xml:space="preserve" text-anchor="middle" x="657.62" y="-61" font-family="Helvetica,sans-Serif" font-size="10.00">signal.h</text>
</a>
</g>
</g>
<!-- Node1&#45;&gt;Node11 -->
<g id="edge10_Node000001_Node000011" class="edge">
<title>Node1&#45;&gt;Node11</title>
<g id="a_edge10_Node000001_Node000011"><a xlink:title=" ">
<path fill="none" stroke="#63b8ff" d="M425.52,-113.64C468.12,-106.16 546.16,-91.96 621.68,-75.06"/>
<polygon fill="#63b8ff" stroke="#63b8ff" points="622.34,-78.5 631.32,-72.88 620.8,-71.67 622.34,-78.5"/>
</a>
</g>
</g>
<!-- Node12 -->
<g id="Node000012" class="node">
<title>Node12</title>
<g id="a_Node000012"><a xlink:title=" ">
<polygon fill="#e0e0e0" stroke="#999999" points="749.5,-74.5 699.75,-74.5 699.75,-55.25 749.5,-55.25 749.5,-74.5"/>
<text xml:space="preserve" text-anchor="middle" x="724.62" y="-61" font-family="Helvetica,sans-Serif" font-size="10.00">unistd.h</text>
</a>
</g>
</g>
<!-- Node1&#45;&gt;Node12 -->
<g id="edge11_Node000001_Node000012" class="edge">
<title>Node1&#45;&gt;Node12</title>
<g id="a_edge11_Node000001_Node000012"><a xlink:title=" ">
<path fill="none" stroke="#63b8ff" d="M425.58,-115.48C478.42,-109.21 587.51,-95.22 688.47,-74.98"/>
<polygon fill="#63b8ff" stroke="#63b8ff" points="688.88,-78.47 697.98,-73.05 687.49,-71.61 688.88,-78.47"/>
</a>
</g>
</g>
<!-- Node3 -->
<g id="Node000003" class="node">
<title>Node3</title>
<g id="a_Node000003"><a xlink:title=" ">
<polygon fill="#e0e0e0" stroke="#999999" points="86.88,-19.25 36.38,-19.25 36.38,0 86.88,0 86.88,-19.25"/>
<text xml:space="preserve" text-anchor="middle" x="61.62" y="-5.75" font-family="Helvetica,sans-Serif" font-size="10.00">stddef.h</text>
</a>
</g>
</g>
<!-- Node2&#45;&gt;Node3 -->
<g id="edge2_Node000002_Node000003" class="edge">
<title>Node2&#45;&gt;Node3</title>
<g id="a_edge2_Node000002_Node000003"><a xlink:title=" ">
<path fill="none" stroke="#63b8ff" d="M61.62,-55.08C61.62,-48.57 61.62,-39.42 61.62,-31.12"/>
<polygon fill="#63b8ff" stroke="#63b8ff" points="65.13,-31.12 61.63,-21.12 58.13,-31.12 65.13,-31.12"/>
</a>
</g>
</g>
</g>
</svg>
