<?xml version="1.0" encoding="UTF-8" standalone="no"?>
<!DOCTYPE svg PUBLIC "-//W3C//DTD SVG 1.1//EN"
 "http://www.w3.org/Graphics/SVG/1.1/DTD/svg11.dtd">
<!-- Generated by graphviz version 14.0.5 (0)
 -->
<!-- Title: handle_buffer Pages: 1 -->
<svg width="715pt" height="197pt"
 viewBox="0.00 0.00 715.00 197.00" xmlns="http://www.w3.org/2000/svg" xmlns:xlink="http://www.w3.org/1999/xlink">
<g id="graph0" class="graph" transform="scale(1 1) rotate(0) translate(4 193.25)">
<title>handle_buffer</title>
<!-- Node1 -->
<g id="Node000001" class="node">
<title>Node1</title>
<g id="a_Node000001"><a xlink:title=" ">
<polygon fill="#999999" stroke="#666666" points="73.75,-95.25 0,-95.25 0,-76 73.75,-76 73.75,-95.25"/>
<text xml:space="preserve" text-anchor="middle" x="36.88" y="-81.75" font-family="Helvetica,sans-Serif" font-size="10.00">handle_buffer</text>
</a>
</g>
</g>
<!-- Node2 -->
<g id="Node000002" class="node">
<title>Node2</title>
<g id="a_Node000002"><a xlink:href="espresso_8c.html#a73277811539a2de04ce7e1295fbdba6a" target="_top" xlink:title=" ">
<polygon fill="white" stroke="#666666" points="205.25,-171.25 113.5,-171.25 113.5,-152 205.25,-152 205.25,-171.25"/>
<text xml:space="preserve" text-anchor="middle" x="159.38" y="-157.75" font-family="Helvetica,sans-Serif" font-size="10.00">close_connection</text>
</a>
</g>
</g>
<!-- Node1&#45;&gt;Node2 -->
<g id="edge1_Node000001_Node000002" class="edge">
<title>Node1&#45;&gt;Node2</title>
<g id="a_edge1_Node000001_Node000002"><a xlink:title=" ">
<path fill="none" stroke="#63b8ff" d="M50.41,-95.69C64.42,-106.7 87.98,-124.51 109.75,-137.62 114.86,-140.7 120.42,-143.73 125.89,-146.54"/>
<polygon fill="#63b8ff" stroke="#63b8ff" points="124.3,-149.66 134.82,-150.96 127.41,-143.39 124.3,-149.66"/>
</a>
</g>
</g>
<!-- Node6 -->
<g id="Node000006" class="node">
<title>Node6</title>
<g id="a_Node000006"><a xlink:href="espresso_8c.html#aca61aa31ed57abce18d1d3cffd0d47e3" target="_top" xlink:title=" ">
<polygon fill="white" stroke="#666666" points="365.62,-133.25 249.88,-133.25 249.88,-114 365.62,-114 365.62,-133.25"/>
<text xml:space="preserve" text-anchor="middle" x="307.75" y="-119.75" font-family="Helvetica,sans-Serif" font-size="10.00">generate_allow_header</text>
</a>
</g>
</g>
<!-- Node1&#45;&gt;Node6 -->
<g id="edge5_Node000001_Node000006" class="edge">
<title>Node1&#45;&gt;Node6</title>
<g id="a_edge5_Node000001_Node000006"><a xlink:title=" ">
<path fill="none" stroke="#63b8ff" d="M71.26,-95.66C83.3,-98.95 97.05,-102.35 109.75,-104.62 152.05,-112.2 200.03,-116.91 238.06,-119.75"/>
<polygon fill="#63b8ff" stroke="#63b8ff" points="237.78,-123.24 248.01,-120.46 238.28,-116.25 237.78,-123.24"/>
</a>
</g>
</g>
<!-- Node7 -->
<g id="Node000007" class="node">
<title>Node7</title>
<g id="a_Node000007"><a xlink:href="espresso_8c.html#a373b955efab67a13fdc71105c53aa5d5" target="_top" xlink:title="ONLY FOR UNIT TESTS.">
<polygon fill="white" stroke="#666666" points="202.62,-95.25 116.12,-95.25 116.12,-76 202.62,-76 202.62,-95.25"/>
<text xml:space="preserve" text-anchor="middle" x="159.38" y="-81.75" font-family="Helvetica,sans-Serif" font-size="10.00">handle_endpoint</text>
</a>
</g>
</g>
<!-- Node1&#45;&gt;Node7 -->
<g id="edge6_Node000001_Node000007" class="edge">
<title>Node1&#45;&gt;Node7</title>
<g id="a_edge6_Node000001_Node000007"><a xlink:title=" ">
<path fill="none" stroke="#63b8ff" d="M74.03,-85.62C83.6,-85.62 94.14,-85.62 104.43,-85.62"/>
<polygon fill="#63b8ff" stroke="#63b8ff" points="104.37,-89.13 114.37,-85.63 104.37,-82.13 104.37,-89.13"/>
</a>
</g>
</g>
<!-- Node13 -->
<g id="Node000013" class="node">
<title>Node13</title>
<g id="a_Node000013"><a xlink:href="espresso_8c.html#a142b429010a8046d339d36552bd20f7e" target="_top" xlink:title=" ">
<polygon fill="white" stroke="#666666" points="348.75,-22.25 266.75,-22.25 266.75,-3 348.75,-3 348.75,-22.25"/>
<text xml:space="preserve" text-anchor="middle" x="307.75" y="-8.75" font-family="Helvetica,sans-Serif" font-size="10.00">send_message</text>
</a>
</g>
</g>
<!-- Node1&#45;&gt;Node13 -->
<g id="edge17_Node000001_Node000013" class="edge">
<title>Node1&#45;&gt;Node13</title>
<g id="a_edge17_Node000001_Node000013"><a xlink:title=" ">
<path fill="none" stroke="#63b8ff" d="M74.14,-75.78C121.91,-62.81 206.06,-39.96 258.98,-25.6"/>
<polygon fill="#63b8ff" stroke="#63b8ff" points="259.58,-29.06 268.31,-23.06 257.74,-22.3 259.58,-29.06"/>
</a>
</g>
</g>
<!-- Node15 -->
<g id="Node000015" class="node">
<title>Node15</title>
<g id="a_Node000015"><a xlink:href="espresso_8c.html#a8ddc375ff20a190089968e04405e0a70" target="_top" xlink:title="ONLY FOR UNIT TESTS.">
<polygon fill="white" stroke="#666666" points="209,-19.25 109.75,-19.25 109.75,0 209,0 209,-19.25"/>
<text xml:space="preserve" text-anchor="middle" x="159.38" y="-5.75" font-family="Helvetica,sans-Serif" font-size="10.00">parse_http_request</text>
</a>
</g>
</g>
<!-- Node1&#45;&gt;Node15 -->
<g id="edge15_Node000001_Node000015" class="edge">
<title>Node1&#45;&gt;Node15</title>
<g id="a_edge15_Node000001_Node000015"><a xlink:title=" ">
<path fill="none" stroke="#63b8ff" d="M50.41,-75.56C64.42,-64.55 87.98,-46.74 109.75,-33.62 114.86,-30.55 120.42,-27.52 125.89,-24.71"/>
<polygon fill="#63b8ff" stroke="#63b8ff" points="127.41,-27.86 134.82,-20.29 124.3,-21.59 127.41,-27.86"/>
</a>
</g>
</g>
<!-- Node3 -->
<g id="Node000003" class="node">
<title>Node3</title>
<g id="a_Node000003"><a xlink:href="espresso_8c.html#aaf78724518167158b66ec656312fabd2" target="_top" xlink:title=" ">
<polygon fill="white" stroke="#666666" points="370.5,-171.25 245,-171.25 245,-152 370.5,-152 370.5,-171.25"/>
<text xml:space="preserve" text-anchor="middle" x="307.75" y="-157.75" font-family="Helvetica,sans-Serif" font-size="10.00">handle_connection_close</text>
</a>
</g>
</g>
<!-- Node2&#45;&gt;Node3 -->
<g id="edge2_Node000002_Node000003" class="edge">
<title>Node2&#45;&gt;Node3</title>
<g id="a_edge2_Node000002_Node000003"><a xlink:title=" ">
<path fill="none" stroke="#63b8ff" d="M205.49,-161.62C214.27,-161.62 223.68,-161.62 233.1,-161.62"/>
<polygon fill="#63b8ff" stroke="#63b8ff" points="233.05,-165.13 243.05,-161.63 233.05,-158.13 233.05,-165.13"/>
</a>
</g>
</g>
<!-- Node4 -->
<g id="Node000004" class="node">
<title>Node4</title>
<g id="a_Node000004"><a xlink:href="espresso_8c.html#a1804ce3a25646fd9c6c6ad98d45c6efa" target="_top" xlink:title=" ">
<polygon fill="white" stroke="#666666" points="498.25,-189.25 406.5,-189.25 406.5,-170 498.25,-170 498.25,-189.25"/>
<text xml:space="preserve" text-anchor="middle" x="452.38" y="-175.75" font-family="Helvetica,sans-Serif" font-size="10.00">endpoint_cleanup</text>
</a>
</g>
</g>
<!-- Node3&#45;&gt;Node4 -->
<g id="edge3_Node000003_Node000004" class="edge">
<title>Node3&#45;&gt;Node4</title>
<g id="a_edge3_Node000003_Node000004"><a xlink:title=" ">
<path fill="none" stroke="#63b8ff" d="M370.89,-169.47C378.86,-170.47 386.99,-171.5 394.86,-172.49"/>
<polygon fill="#63b8ff" stroke="#63b8ff" points="394.3,-175.95 404.66,-173.73 395.18,-169.01 394.3,-175.95"/>
</a>
</g>
</g>
<!-- Node5 -->
<g id="Node000005" class="node">
<title>Node5</title>
<g id="a_Node000005"><a xlink:href="espresso_8c.html#a837cf67658f96fc262c83a4882f96f45" target="_top" xlink:title=" ">
<polygon fill="white" stroke="#666666" points="490.75,-152.25 414,-152.25 414,-133 490.75,-133 490.75,-152.25"/>
<text xml:space="preserve" text-anchor="middle" x="452.38" y="-138.75" font-family="Helvetica,sans-Serif" font-size="10.00">remove_client</text>
</a>
</g>
</g>
<!-- Node3&#45;&gt;Node5 -->
<g id="edge4_Node000003_Node000005" class="edge">
<title>Node3&#45;&gt;Node5</title>
<g id="a_edge4_Node000003_Node000005"><a xlink:title=" ">
<path fill="none" stroke="#63b8ff" d="M370.89,-153.35C381.47,-151.94 392.33,-150.49 402.5,-149.14"/>
<polygon fill="#63b8ff" stroke="#63b8ff" points="402.7,-152.64 412.15,-147.85 401.78,-145.7 402.7,-152.64"/>
</a>
</g>
</g>
<!-- Node7&#45;&gt;Node6 -->
<g id="edge8_Node000007_Node000006" class="edge">
<title>Node7&#45;&gt;Node6</title>
<g id="a_edge8_Node000007_Node000006"><a xlink:title=" ">
<path fill="none" stroke="#63b8ff" d="M199.22,-95.71C216.9,-100.3 238.05,-105.79 256.9,-110.68"/>
<polygon fill="#63b8ff" stroke="#63b8ff" points="255.96,-114.05 266.52,-113.18 257.72,-107.28 255.96,-114.05"/>
</a>
</g>
</g>
<!-- Node8 -->
<g id="Node000008" class="node">
<title>Node8</title>
<g id="a_Node000008"><a xlink:href="espresso_8c.html#a04c27c6493696fb67ab9b8f5296c14f1" target="_top" xlink:title="ONLY FOR UNIT TESTS.">
<polygon fill="white" stroke="#666666" points="349.12,-96.25 266.38,-96.25 266.38,-77 349.12,-77 349.12,-96.25"/>
<text xml:space="preserve" text-anchor="middle" x="307.75" y="-82.75" font-family="Helvetica,sans-Serif" font-size="10.00">compare_paths</text>
</a>
</g>
</g>
<!-- Node7&#45;&gt;Node8 -->
<g id="edge7_Node000007_Node000008" class="edge">
<title>Node7&#45;&gt;Node8</title>
<g id="a_edge7_Node000007_Node000008"><a xlink:title=" ">
<path fill="none" stroke="#63b8ff" d="M203.11,-85.92C219.29,-86.03 237.88,-86.15 254.82,-86.27"/>
<polygon fill="#63b8ff" stroke="#63b8ff" points="254.69,-89.77 264.71,-86.34 254.74,-82.77 254.69,-89.77"/>
</a>
</g>
</g>
<!-- Node9 -->
<g id="Node000009" class="node">
<title>Node9</title>
<g id="a_Node000009"><a xlink:href="espresso_8c.html#a260a9eca1b37d7151fd585fde9e355b8" target="_top" xlink:title="ONLY FOR UNIT TESTS.">
<polygon fill="white" stroke="#666666" points="360.75,-59.25 254.75,-59.25 254.75,-40 360.75,-40 360.75,-59.25"/>
<text xml:space="preserve" text-anchor="middle" x="307.75" y="-45.75" font-family="Helvetica,sans-Serif" font-size="10.00">parse_query_params</text>
</a>
</g>
</g>
<!-- Node7&#45;&gt;Node9 -->
<g id="edge9_Node000007_Node000009" class="edge">
<title>Node7&#45;&gt;Node9</title>
<g id="a_edge9_Node000007_Node000009"><a xlink:title=" ">
<path fill="none" stroke="#63b8ff" d="M201.54,-75.5C217.98,-71.46 237.1,-66.75 254.5,-62.47"/>
<polygon fill="#63b8ff" stroke="#63b8ff" points="255.3,-65.88 264.17,-60.1 253.63,-59.09 255.3,-65.88"/>
</a>
</g>
</g>
<!-- Node7&#45;&gt;Node13 -->
<g id="edge13_Node000007_Node000013" class="edge">
<title>Node7&#45;&gt;Node13</title>
<g id="a_edge13_Node000007_Node000013"><a xlink:title=" ">
<path fill="none" stroke="#63b8ff" d="M183.79,-75.54C192.01,-71.62 201.15,-66.82 209,-61.62 226.61,-49.97 226.44,-40.7 245,-30.62 248.44,-28.76 252.1,-27.06 255.85,-25.53"/>
<polygon fill="#63b8ff" stroke="#63b8ff" points="256.93,-28.86 265.13,-22.15 254.54,-22.28 256.93,-28.86"/>
</a>
</g>
</g>
<!-- Node10 -->
<g id="Node000010" class="node">
<title>Node10</title>
<g id="a_Node000010"><a xlink:href="espresso_8c.html#a2d9a0717a9389e6d178d0f4a8c2ef185" target="_top" xlink:title=" ">
<polygon fill="white" stroke="#666666" points="490.38,-59.25 414.38,-59.25 414.38,-40 490.38,-40 490.38,-59.25"/>
<text xml:space="preserve" text-anchor="middle" x="452.38" y="-45.75" font-family="Helvetica,sans-Serif" font-size="10.00">append_query</text>
</a>
</g>
</g>
<!-- Node9&#45;&gt;Node10 -->
<g id="edge10_Node000009_Node000010" class="edge">
<title>Node9&#45;&gt;Node10</title>
<g id="a_edge10_Node000009_Node000010"><a xlink:title=" ">
<path fill="none" stroke="#63b8ff" d="M361.05,-49.62C374.7,-49.62 389.35,-49.62 402.8,-49.62"/>
<polygon fill="#63b8ff" stroke="#63b8ff" points="402.74,-53.13 412.74,-49.63 402.74,-46.13 402.74,-53.13"/>
</a>
</g>
</g>
<!-- Node11 -->
<g id="Node000011" class="node">
<title>Node11</title>
<g id="a_Node000011"><a xlink:href="espresso_8c.html#a755a65a488e1158eee3fdab0ecada8fe" target="_top" xlink:title=" ">
<polygon fill="white" stroke="#666666" points="610.25,-59.25 534.25,-59.25 534.25,-40 610.25,-40 610.25,-59.25"/>
<text xml:space="preserve" text-anchor="middle" x="572.25" y="-45.75" font-family="Helvetica,sans-Serif" font-size="10.00">decode_query</text>
</a>
</g>
</g>
<!-- Node10&#45;&gt;Node11 -->
<g id="edge11_Node000010_Node000011" class="edge">
<title>Node10&#45;&gt;Node11</title>
<g id="a_edge11_Node000010_Node000011"><a xlink:title=" ">
<path fill="none" stroke="#63b8ff" d="M490.67,-49.62C500.78,-49.62 511.87,-49.62 522.5,-49.62"/>
<polygon fill="#63b8ff" stroke="#63b8ff" points="522.28,-53.13 532.28,-49.63 522.28,-46.13 522.28,-53.13"/>
</a>
</g>
</g>
<!-- Node12 -->
<g id="Node000012" class="node">
<title>Node12</title>
<g id="a_Node000012"><a xlink:href="espresso_8c.html#af4a5274d4719dec853dd32e1d8687553" target="_top" xlink:title=" ">
<polygon fill="white" stroke="#666666" points="706.5,-59.25 646.25,-59.25 646.25,-40 706.5,-40 706.5,-59.25"/>
<text xml:space="preserve" text-anchor="middle" x="676.38" y="-45.75" font-family="Helvetica,sans-Serif" font-size="10.00">hex_to_int</text>
</a>
</g>
</g>
<!-- Node11&#45;&gt;Node12 -->
<g id="edge12_Node000011_Node000012" class="edge">
<title>Node11&#45;&gt;Node12</title>
<g id="a_edge12_Node000011_Node000012"><a xlink:title=" ">
<path fill="none" stroke="#63b8ff" d="M610.7,-49.62C618.5,-49.62 626.76,-49.62 634.67,-49.62"/>
<polygon fill="#63b8ff" stroke="#63b8ff" points="634.41,-53.13 644.41,-49.63 634.41,-46.13 634.41,-53.13"/>
</a>
</g>
</g>
<!-- Node14 -->
<g id="Node000014" class="node">
<title>Node14</title>
<g id="a_Node000014"><a xlink:href="espresso_8c.html#a5fa30991ad104ba1fe0001e7aefe95ac" target="_top" xlink:title=" ">
<polygon fill="white" stroke="#666666" points="498.25,-22.25 406.5,-22.25 406.5,-3 498.25,-3 498.25,-22.25"/>
<text xml:space="preserve" text-anchor="middle" x="452.38" y="-8.75" font-family="Helvetica,sans-Serif" font-size="10.00">handle_write_end</text>
</a>
</g>
</g>
<!-- Node13&#45;&gt;Node14 -->
<g id="edge14_Node000013_Node000014" class="edge">
<title>Node13&#45;&gt;Node14</title>
<g id="a_edge14_Node000013_Node000014"><a xlink:title=" ">
<path fill="none" stroke="#63b8ff" d="M349.24,-12.62C363.35,-12.62 379.45,-12.62 394.64,-12.62"/>
<polygon fill="#63b8ff" stroke="#63b8ff" points="394.5,-16.13 404.5,-12.63 394.5,-9.13 394.5,-16.13"/>
</a>
</g>
</g>
<!-- Node15&#45;&gt;Node13 -->
<g id="edge16_Node000015_Node000013" class="edge">
<title>Node15&#45;&gt;Node13</title>
<g id="a_edge16_Node000015_Node000013"><a xlink:title=" ">
<path fill="none" stroke="#63b8ff" d="M209.12,-10.62C223.96,-10.93 240.32,-11.26 255.34,-11.57"/>
<polygon fill="#63b8ff" stroke="#63b8ff" points="254.93,-15.06 265,-11.77 255.07,-8.06 254.93,-15.06"/>
</a>
</g>
</g>
</g>
</svg>
