<?xml version="1.0" encoding="UTF-8" standalone="no"?>
<!DOCTYPE svg PUBLIC "-//W3C//DTD SVG 1.1//EN"
 "http://www.w3.org/Graphics/SVG/1.1/DTD/svg11.dtd">
<!-- Generated by graphviz version 14.0.5 (0)
 -->
<!-- Title: send_message Pages: 1 -->
<svg width="797pt" height="165pt"
 viewBox="0.00 0.00 797.00 165.00" xmlns="http://www.w3.org/2000/svg" xmlns:xlink="http://www.w3.org/1999/xlink">
<g id="graph0" class="graph" transform="scale(1 1) rotate(0) translate(4 160.97)">
<title>send_message</title>
<!-- Node1 -->
<g id="Node000001" class="node">
<title>Node1</title>
<g id="a_Node000001"><a xlink:title=" ">
<polygon fill="#999999" stroke="#666666" points="789.25,-100.69 707.25,-100.69 707.25,-81.44 789.25,-81.44 789.25,-100.69"/>
<text xml:space="preserve" text-anchor="middle" x="748.25" y="-87.19" font-family="Helvetica,sans-Serif" font-size="10.00">send_message</text>
</a>
</g>
</g>
<!-- Node2 -->
<g id="Node000002" class="node">
<title>Node2</title>
<g id="a_Node000002"><a xlink:href="espresso_8c.html#a2a7b96459e0adac1061eaec6a5722075" target="_top" xlink:title=" ">
<polygon fill="white" stroke="#666666" points="530,-118.69 456.25,-118.69 456.25,-99.44 530,-99.44 530,-118.69"/>
<text xml:space="preserve" text-anchor="middle" x="493.12" y="-105.19" font-family="Helvetica,sans-Serif" font-size="10.00">handle_buffer</text>
</a>
</g>
</g>
<!-- Node1&#45;&gt;Node2 -->
<g id="edge1_Node000001_Node000002" class="edge">
<title>Node1&#45;&gt;Node2</title>
<g id="a_edge1_Node000001_Node000002"><a xlink:title=" ">
<path fill="none" stroke="#63b8ff" d="M730.22,-108.67C715.92,-122.09 694.2,-139.52 671.25,-147.06 626.81,-161.66 611.4,-158.32 566,-147.06 544.35,-141.69 522.05,-128.47 508.14,-119.14"/>
<polygon fill="#63b8ff" stroke="#63b8ff" points="732.32,-111.51 737.02,-102.01 727.43,-106.5 732.32,-111.51"/>
</a>
</g>
</g>
<!-- Node7 -->
<g id="Node000007" class="node">
<title>Node7</title>
<g id="a_Node000007"><a xlink:href="espresso_8c.html#a373b955efab67a13fdc71105c53aa5d5" target="_top" xlink:title="ONLY FOR UNIT TESTS.">
<polygon fill="white" stroke="#666666" points="661.88,-137.69 575.38,-137.69 575.38,-118.44 661.88,-118.44 661.88,-137.69"/>
<text xml:space="preserve" text-anchor="middle" x="618.62" y="-124.19" font-family="Helvetica,sans-Serif" font-size="10.00">handle_endpoint</text>
</a>
</g>
</g>
<!-- Node1&#45;&gt;Node7 -->
<g id="edge6_Node000001_Node000007" class="edge">
<title>Node1&#45;&gt;Node7</title>
<g id="a_edge6_Node000001_Node000007"><a xlink:title=" ">
<path fill="none" stroke="#63b8ff" d="M701.44,-104.34C685.96,-108.83 668.94,-113.76 654.46,-117.96"/>
<polygon fill="#63b8ff" stroke="#63b8ff" points="702.29,-107.74 710.92,-101.59 700.34,-101.02 702.29,-107.74"/>
</a>
</g>
</g>
<!-- Node8 -->
<g id="Node000008" class="node">
<title>Node8</title>
<g id="a_Node000008"><a xlink:href="espresso_8c.html#a8ddc375ff20a190089968e04405e0a70" target="_top" xlink:title="ONLY FOR UNIT TESTS.">
<polygon fill="white" stroke="#666666" points="668.25,-100.69 569,-100.69 569,-81.44 668.25,-81.44 668.25,-100.69"/>
<text xml:space="preserve" text-anchor="middle" x="618.62" y="-87.19" font-family="Helvetica,sans-Serif" font-size="10.00">parse_http_request</text>
</a>
</g>
</g>
<!-- Node1&#45;&gt;Node8 -->
<g id="edge8_Node000001_Node000008" class="edge">
<title>Node1&#45;&gt;Node8</title>
<g id="a_edge8_Node000001_Node000008"><a xlink:title=" ">
<path fill="none" stroke="#63b8ff" d="M695.48,-91.06C686.64,-91.06 677.47,-91.06 668.69,-91.06"/>
<polygon fill="#63b8ff" stroke="#63b8ff" points="695.36,-94.56 705.36,-91.06 695.36,-87.56 695.36,-94.56"/>
</a>
</g>
</g>
<!-- Node9 -->
<g id="Node000009" class="node">
<title>Node9</title>
<g id="a_Node000009"><a xlink:href="espresso_8c.html#a1851b4d23bfd00e217b09add89e1aec4" target="_top" xlink:title="Sends JSON response.">
<polygon fill="white" stroke="#666666" points="671.25,-63.69 566,-63.69 566,-44.44 671.25,-44.44 671.25,-63.69"/>
<text xml:space="preserve" text-anchor="middle" x="618.62" y="-50.19" font-family="Helvetica,sans-Serif" font-size="10.00">send_json_response</text>
</a>
</g>
</g>
<!-- Node1&#45;&gt;Node9 -->
<g id="edge10_Node000001_Node000009" class="edge">
<title>Node1&#45;&gt;Node9</title>
<g id="a_edge10_Node000001_Node000009"><a xlink:title=" ">
<path fill="none" stroke="#63b8ff" d="M701.44,-77.78C685.96,-73.29 668.94,-68.36 654.46,-64.16"/>
<polygon fill="#63b8ff" stroke="#63b8ff" points="700.34,-81.11 710.92,-80.53 702.29,-74.38 700.34,-81.11"/>
</a>
</g>
</g>
<!-- Node11 -->
<g id="Node000011" class="node">
<title>Node11</title>
<g id="a_Node000011"><a xlink:href="espresso_8c.html#a74fa803b07b95b5f1446ae4bb85f4f0b" target="_top" xlink:title="Sends text response.">
<polygon fill="white" stroke="#666666" points="287.25,-25.69 184.25,-25.69 184.25,-6.44 287.25,-6.44 287.25,-25.69"/>
<text xml:space="preserve" text-anchor="middle" x="235.75" y="-12.19" font-family="Helvetica,sans-Serif" font-size="10.00">send_text_response</text>
</a>
</g>
</g>
<!-- Node1&#45;&gt;Node11 -->
<g id="edge12_Node000001_Node000011" class="edge">
<title>Node1&#45;&gt;Node11</title>
<g id="a_edge12_Node000001_Node000011"><a xlink:title=" ">
<path fill="none" stroke="#63b8ff" d="M730.12,-73.72C715.78,-60.45 694.03,-43.1 671.25,-35.06 539.35,11.5 370.82,0.63 287.74,-8.94"/>
<polygon fill="#63b8ff" stroke="#63b8ff" points="727.32,-75.88 736.95,-80.29 732.17,-70.83 727.32,-75.88"/>
</a>
</g>
</g>
<!-- Node3 -->
<g id="Node000003" class="node">
<title>Node3</title>
<g id="a_Node000003"><a xlink:href="espresso_8c.html#a919e9a8a992f43f0fd82e87f4d40d2d2" target="_top" xlink:title=" ">
<polygon fill="white" stroke="#666666" points="420.25,-108.69 323.25,-108.69 323.25,-89.44 420.25,-89.44 420.25,-108.69"/>
<text xml:space="preserve" text-anchor="middle" x="371.75" y="-95.19" font-family="Helvetica,sans-Serif" font-size="10.00">handle_client_read</text>
</a>
</g>
</g>
<!-- Node2&#45;&gt;Node3 -->
<g id="edge2_Node000002_Node000003" class="edge">
<title>Node2&#45;&gt;Node3</title>
<g id="a_edge2_Node000002_Node000003"><a xlink:title=" ">
<path fill="none" stroke="#63b8ff" d="M444.69,-105.09C436.79,-104.43 428.59,-103.74 420.67,-103.08"/>
<polygon fill="#63b8ff" stroke="#63b8ff" points="444.22,-108.56 454.48,-105.91 444.8,-101.58 444.22,-108.56"/>
</a>
</g>
</g>
<!-- Node4 -->
<g id="Node000004" class="node">
<title>Node4</title>
<g id="a_Node000004"><a xlink:href="espresso_8c.html#a90f2058b8890cfb99e6f595b8f066919" target="_top" xlink:title=" ">
<polygon fill="white" stroke="#666666" points="284.25,-108.69 187.25,-108.69 187.25,-89.44 284.25,-89.44 284.25,-108.69"/>
<text xml:space="preserve" text-anchor="middle" x="235.75" y="-95.19" font-family="Helvetica,sans-Serif" font-size="10.00">handle_connection</text>
</a>
</g>
</g>
<!-- Node3&#45;&gt;Node4 -->
<g id="edge3_Node000003_Node000004" class="edge">
<title>Node3&#45;&gt;Node4</title>
<g id="a_edge3_Node000003_Node000004"><a xlink:title=" ">
<path fill="none" stroke="#63b8ff" d="M311.45,-99.06C302.4,-99.06 293.17,-99.06 284.41,-99.06"/>
<polygon fill="#63b8ff" stroke="#63b8ff" points="311.24,-102.56 321.24,-99.06 311.24,-95.56 311.24,-102.56"/>
</a>
</g>
</g>
<!-- Node5 -->
<g id="Node000005" class="node">
<title>Node5</title>
<g id="a_Node000005"><a xlink:href="espresso_8c.html#a0ba22157d15a70c4c22441b040bb0f74" target="_top" xlink:title="Starts the HTTP server loop.">
<polygon fill="white" stroke="#666666" points="140.75,-99.69 80.5,-99.69 80.5,-80.44 140.75,-80.44 140.75,-99.69"/>
<text xml:space="preserve" text-anchor="middle" x="110.62" y="-86.19" font-family="Helvetica,sans-Serif" font-size="10.00">app_listen</text>
</a>
</g>
</g>
<!-- Node4&#45;&gt;Node5 -->
<g id="edge4_Node000004_Node000005" class="edge">
<title>Node4&#45;&gt;Node5</title>
<g id="a_edge4_Node000004_Node000005"><a xlink:title=" ">
<path fill="none" stroke="#63b8ff" d="M175.46,-94.73C163.53,-93.85 151.5,-92.98 141.14,-92.22"/>
<polygon fill="#63b8ff" stroke="#63b8ff" points="175.06,-98.21 185.28,-95.44 175.57,-91.22 175.06,-98.21"/>
</a>
</g>
</g>
<!-- Node6 -->
<g id="Node000006" class="node">
<title>Node6</title>
<g id="a_Node000006"><a xlink:href="main_8c.html#ae66f6b31b5ad750f1fe042a706a4e3d4" target="_top" xlink:title=" ">
<polygon fill="white" stroke="#666666" points="37,-62.69 0,-62.69 0,-43.44 37,-43.44 37,-62.69"/>
<text xml:space="preserve" text-anchor="middle" x="18.5" y="-49.19" font-family="Helvetica,sans-Serif" font-size="10.00">main</text>
</a>
</g>
</g>
<!-- Node5&#45;&gt;Node6 -->
<g id="edge5_Node000005_Node000006" class="edge">
<title>Node5&#45;&gt;Node6</title>
<g id="a_edge5_Node000005_Node000006"><a xlink:title=" ">
<path fill="none" stroke="#63b8ff" d="M74.62,-75.69C61.83,-70.44 47.89,-64.72 37.24,-60.34"/>
<polygon fill="#63b8ff" stroke="#63b8ff" points="73.02,-78.82 83.6,-79.38 75.68,-72.34 73.02,-78.82"/>
</a>
</g>
</g>
<!-- Node7&#45;&gt;Node2 -->
<g id="edge7_Node000007_Node000002" class="edge">
<title>Node7&#45;&gt;Node2</title>
<g id="a_edge7_Node000007_Node000002"><a xlink:title=" ">
<path fill="none" stroke="#63b8ff" d="M563.89,-119.79C552.48,-118.04 540.69,-116.22 530.13,-114.6"/>
<polygon fill="#63b8ff" stroke="#63b8ff" points="563.21,-123.23 573.63,-121.29 564.28,-116.31 563.21,-123.23"/>
</a>
</g>
</g>
<!-- Node8&#45;&gt;Node2 -->
<g id="edge9_Node000008_Node000002" class="edge">
<title>Node8&#45;&gt;Node2</title>
<g id="a_edge9_Node000008_Node000002"><a xlink:title=" ">
<path fill="none" stroke="#63b8ff" d="M557.57,-99.81C548.28,-101.17 538.94,-102.53 530.39,-103.77"/>
<polygon fill="#63b8ff" stroke="#63b8ff" points="557.93,-103.3 567.32,-98.39 556.92,-96.37 557.93,-103.3"/>
</a>
</g>
</g>
<!-- Node10 -->
<g id="Node000010" class="node">
<title>Node10</title>
<g id="a_Node000010"><a xlink:href="espresso_8c.html#afb4623b096ac903aa1c53a5f0c730328" target="_top" xlink:title="Sends error response with status code and message.">
<polygon fill="white" stroke="#666666" points="524,-63.69 462.25,-63.69 462.25,-44.44 524,-44.44 524,-63.69"/>
<text xml:space="preserve" text-anchor="middle" x="493.12" y="-50.19" font-family="Helvetica,sans-Serif" font-size="10.00">send_error</text>
</a>
</g>
</g>
<!-- Node9&#45;&gt;Node10 -->
<g id="edge11_Node000009_Node000010" class="edge">
<title>Node9&#45;&gt;Node10</title>
<g id="a_edge11_Node000009_Node000010"><a xlink:title=" ">
<path fill="none" stroke="#63b8ff" d="M554.28,-54.06C543.8,-54.06 533.39,-54.06 524.25,-54.06"/>
<polygon fill="#63b8ff" stroke="#63b8ff" points="554.09,-57.56 564.09,-54.06 554.09,-50.56 554.09,-57.56"/>
</a>
</g>
</g>
<!-- Node12 -->
<g id="Node000012" class="node">
<title>Node12</title>
<g id="a_Node000012"><a xlink:href="main_8c.html#a3567783714153d35ee83fd6de55968d1" target="_top" xlink:title=" ">
<polygon fill="white" stroke="#666666" points="147.5,-62.69 73.75,-62.69 73.75,-43.44 147.5,-43.44 147.5,-62.69"/>
<text xml:space="preserve" text-anchor="middle" x="110.62" y="-49.19" font-family="Helvetica,sans-Serif" font-size="10.00">echo_handler</text>
</a>
</g>
</g>
<!-- Node11&#45;&gt;Node12 -->
<g id="edge13_Node000011_Node000012" class="edge">
<title>Node11&#45;&gt;Node12</title>
<g id="a_edge13_Node000011_Node000012"><a xlink:title=" ">
<path fill="none" stroke="#63b8ff" d="M190.12,-29.47C175.3,-33.93 159.07,-38.8 145.23,-42.96"/>
<polygon fill="#63b8ff" stroke="#63b8ff" points="191.09,-32.84 199.66,-26.61 189.07,-26.13 191.09,-32.84"/>
</a>
</g>
</g>
<!-- Node13 -->
<g id="Node000013" class="node">
<title>Node13</title>
<g id="a_Node000013"><a xlink:href="main_8c.html#a036dbf8db2f30bf4fb436fcc8ea138c7" target="_top" xlink:title=" ">
<polygon fill="white" stroke="#666666" points="148.25,-25.69 73,-25.69 73,-6.44 148.25,-6.44 148.25,-25.69"/>
<text xml:space="preserve" text-anchor="middle" x="110.62" y="-12.19" font-family="Helvetica,sans-Serif" font-size="10.00">index_handler</text>
</a>
</g>
</g>
<!-- Node11&#45;&gt;Node13 -->
<g id="edge15_Node000011_Node000013" class="edge">
<title>Node11&#45;&gt;Node13</title>
<g id="a_edge15_Node000011_Node000013"><a xlink:title=" ">
<path fill="none" stroke="#63b8ff" d="M172.67,-16.06C164.36,-16.06 156.06,-16.06 148.38,-16.06"/>
<polygon fill="#63b8ff" stroke="#63b8ff" points="172.45,-19.56 182.45,-16.06 172.45,-12.56 172.45,-19.56"/>
</a>
</g>
</g>
<!-- Node12&#45;&gt;Node6 -->
<g id="edge14_Node000012_Node000006" class="edge">
<title>Node12&#45;&gt;Node6</title>
<g id="a_edge14_Node000012_Node000006"><a xlink:title=" ">
<path fill="none" stroke="#63b8ff" d="M62.17,-53.06C53.21,-53.06 44.38,-53.06 37.09,-53.06"/>
<polygon fill="#63b8ff" stroke="#63b8ff" points="61.97,-56.56 71.97,-53.06 61.97,-49.56 61.97,-56.56"/>
</a>
</g>
</g>
<!-- Node13&#45;&gt;Node6 -->
<g id="edge16_Node000013_Node000006" class="edge">
<title>Node13&#45;&gt;Node6</title>
<g id="a_edge16_Node000013_Node000006"><a xlink:title=" ">
<path fill="none" stroke="#63b8ff" d="M74.62,-30.43C61.83,-35.68 47.89,-41.4 37.24,-45.78"/>
<polygon fill="#63b8ff" stroke="#63b8ff" points="75.68,-33.78 83.6,-26.75 73.02,-27.31 75.68,-33.78"/>
</a>
</g>
</g>
</g>
</svg>
