<?xml version="1.0" encoding="UTF-8" standalone="no"?>
<!DOCTYPE svg PUBLIC "-//W3C//DTD SVG 1.1//EN"
 "http://www.w3.org/Graphics/SVG/1.1/DTD/svg11.dtd">
<!-- Generated by graphviz version 14.0.5 (0)
 -->
<!-- Title: send_error Pages: 1 -->
<svg width="496pt" height="64pt"
 viewBox="0.00 0.00 496.00 64.00" xmlns="http://www.w3.org/2000/svg" xmlns:xlink="http://www.w3.org/1999/xlink">
<g id="graph0" class="graph" transform="scale(1 1) rotate(0) translate(4 60.25)">
<title>send_error</title>
<!-- Node1 -->
<g id="Node000001" class="node">
<title>Node1</title>
<g id="a_Node000001"><a xlink:title="Sends error response with status code and message.">
<polygon fill="#999999" stroke="#666666" points="61.75,-37.25 0,-37.25 0,-18 61.75,-18 61.75,-37.25"/>
<text xml:space="preserve" text-anchor="middle" x="30.88" y="-23.75" font-family="Helvetica,sans-Serif" font-size="10.00">send_error</text>
</a>
</g>
</g>
<!-- Node2 -->
<g id="Node000002" class="node">
<title>Node2</title>
<g id="a_Node000002"><a xlink:href="espresso_8c.html#a1851b4d23bfd00e217b09add89e1aec4" target="_top" xlink:title="Sends JSON response.">
<polygon fill="white" stroke="#666666" points="203,-37.25 97.75,-37.25 97.75,-18 203,-18 203,-37.25"/>
<text xml:space="preserve" text-anchor="middle" x="150.38" y="-23.75" font-family="Helvetica,sans-Serif" font-size="10.00">send_json_response</text>
</a>
</g>
</g>
<!-- Node1&#45;&gt;Node2 -->
<g id="edge1_Node000001_Node000002" class="edge">
<title>Node1&#45;&gt;Node2</title>
<g id="a_edge1_Node000001_Node000002"><a xlink:title=" ">
<path fill="none" stroke="#63b8ff" d="M62.13,-27.62C69.52,-27.62 77.7,-27.62 86,-27.62"/>
<polygon fill="#63b8ff" stroke="#63b8ff" points="85.82,-31.13 95.82,-27.63 85.82,-24.13 85.82,-31.13"/>
</a>
</g>
</g>
<!-- Node3 -->
<g id="Node000003" class="node">
<title>Node3</title>
<g id="a_Node000003"><a xlink:href="espresso_8c.html#a61c64a500ef217b0825333b9f35234e3" target="_top" xlink:title=" ">
<polygon fill="white" stroke="#666666" points="360,-56.25 239,-56.25 239,-37 360,-37 360,-56.25"/>
<text xml:space="preserve" text-anchor="middle" x="299.5" y="-42.75" font-family="Helvetica,sans-Serif" font-size="10.00">build_response_headers</text>
</a>
</g>
</g>
<!-- Node2&#45;&gt;Node3 -->
<g id="edge2_Node000002_Node000003" class="edge">
<title>Node2&#45;&gt;Node3</title>
<g id="a_edge2_Node000002_Node000003"><a xlink:title=" ">
<path fill="none" stroke="#63b8ff" d="M203.25,-34.32C211.01,-35.33 219.12,-36.37 227.2,-37.42"/>
<polygon fill="#63b8ff" stroke="#63b8ff" points="226.68,-40.88 237.05,-38.69 227.58,-33.94 226.68,-40.88"/>
</a>
</g>
</g>
<!-- Node4 -->
<g id="Node000004" class="node">
<title>Node4</title>
<g id="a_Node000004"><a xlink:href="espresso_8c.html#a142b429010a8046d339d36552bd20f7e" target="_top" xlink:title=" ">
<polygon fill="white" stroke="#666666" points="340.5,-19.25 258.5,-19.25 258.5,0 340.5,0 340.5,-19.25"/>
<text xml:space="preserve" text-anchor="middle" x="299.5" y="-5.75" font-family="Helvetica,sans-Serif" font-size="10.00">send_message</text>
</a>
</g>
</g>
<!-- Node2&#45;&gt;Node4 -->
<g id="edge3_Node000002_Node000004" class="edge">
<title>Node2&#45;&gt;Node4</title>
<g id="a_edge3_Node000002_Node000004"><a xlink:title=" ">
<path fill="none" stroke="#63b8ff" d="M203.25,-21.28C217.48,-19.54 232.9,-17.65 247.1,-15.91"/>
<polygon fill="#63b8ff" stroke="#63b8ff" points="247.18,-19.43 256.68,-14.74 246.33,-12.48 247.18,-19.43"/>
</a>
</g>
</g>
<!-- Node5 -->
<g id="Node000005" class="node">
<title>Node5</title>
<g id="a_Node000005"><a xlink:href="espresso_8c.html#a5fa30991ad104ba1fe0001e7aefe95ac" target="_top" xlink:title=" ">
<polygon fill="white" stroke="#666666" points="487.75,-19.25 396,-19.25 396,0 487.75,0 487.75,-19.25"/>
<text xml:space="preserve" text-anchor="middle" x="441.88" y="-5.75" font-family="Helvetica,sans-Serif" font-size="10.00">handle_write_end</text>
</a>
</g>
</g>
<!-- Node4&#45;&gt;Node5 -->
<g id="edge4_Node000004_Node000005" class="edge">
<title>Node4&#45;&gt;Node5</title>
<g id="a_edge4_Node000004_Node000005"><a xlink:title=" ">
<path fill="none" stroke="#63b8ff" d="M340.73,-9.62C354.28,-9.62 369.67,-9.62 384.24,-9.62"/>
<polygon fill="#63b8ff" stroke="#63b8ff" points="384.19,-13.13 394.19,-9.63 384.19,-6.13 384.19,-13.13"/>
</a>
</g>
</g>
</g>
</svg>
