<?xml version="1.0" encoding="UTF-8" standalone="no"?>
<!DOCTYPE svg PUBLIC "-//W3C//DTD SVG 1.1//EN"
 "http://www.w3.org/Graphics/SVG/1.1/DTD/svg11.dtd">
<!-- Generated by graphviz version 14.0.5 (0)
 -->
<!-- Title: app_close Pages: 1 -->
<svg width="365pt" height="46pt"
 viewBox="0.00 0.00 365.00 46.00" xmlns="http://www.w3.org/2000/svg" xmlns:xlink="http://www.w3.org/1999/xlink">
<g id="graph0" class="graph" transform="scale(1 1) rotate(0) translate(4 42.25)">
<title>app_close</title>
<!-- Node1 -->
<g id="Node000001" class="node">
<title>Node1</title>
<g id="a_Node000001"><a xlink:title="Closes the app and frees resources.">
<polygon fill="#999999" stroke="#666666" points="357.25,-19.25 297,-19.25 297,0 357.25,0 357.25,-19.25"/>
<text xml:space="preserve" text-anchor="middle" x="327.12" y="-5.75" font-family="Helvetica,sans-Serif" font-size="10.00">app_close</text>
</a>
</g>
</g>
<!-- Node2 -->
<g id="Node000002" class="node">
<title>Node2</title>
<g id="a_Node000002"><a xlink:href="espresso_8c.html#a1f2696ccccf441f76c9f5161fb903db5" target="_top" xlink:title=" ">
<polygon fill="white" stroke="#666666" points="261,-38.25 173,-38.25 173,-19 261,-19 261,-38.25"/>
<text xml:space="preserve" text-anchor="middle" x="217" y="-24.75" font-family="Helvetica,sans-Serif" font-size="10.00">lib_handle_sigint</text>
</a>
</g>
</g>
<!-- Node1&#45;&gt;Node2 -->
<g id="edge1_Node000001_Node000002" class="edge">
<title>Node1&#45;&gt;Node2</title>
<g id="a_edge1_Node000001_Node000002"><a xlink:title=" ">
<path fill="none" stroke="#63b8ff" d="M285.41,-16.78C277.53,-18.16 269.25,-19.62 261.3,-21.02"/>
<polygon fill="#63b8ff" stroke="#63b8ff" points="285.85,-20.26 295.09,-15.08 284.63,-13.36 285.85,-20.26"/>
</a>
</g>
</g>
<!-- Node4 -->
<g id="Node000004" class="node">
<title>Node4</title>
<g id="a_Node000004"><a xlink:href="main_8c.html#ae66f6b31b5ad750f1fe042a706a4e3d4" target="_top" xlink:title=" ">
<polygon fill="white" stroke="#666666" points="37,-19.25 0,-19.25 0,0 37,0 37,-19.25"/>
<text xml:space="preserve" text-anchor="middle" x="18.5" y="-5.75" font-family="Helvetica,sans-Serif" font-size="10.00">main</text>
</a>
</g>
</g>
<!-- Node1&#45;&gt;Node4 -->
<g id="edge4_Node000001_Node000004" class="edge">
<title>Node1&#45;&gt;Node4</title>
<g id="a_edge4_Node000001_Node000004"><a xlink:title=" ">
<path fill="none" stroke="#63b8ff" d="M285.29,-9.62C217.72,-9.62 85.37,-9.62 37.4,-9.62"/>
<polygon fill="#63b8ff" stroke="#63b8ff" points="285.21,-13.13 295.21,-9.63 285.21,-6.13 285.21,-13.13"/>
</a>
</g>
</g>
<!-- Node3 -->
<g id="Node000003" class="node">
<title>Node3</title>
<g id="a_Node000003"><a xlink:href="espresso_8c.html#a54c30f08a1b67315ac3195d1a7fac35f" target="_top" xlink:title="Creates a new Espresso app on the specified port.">
<polygon fill="white" stroke="#666666" points="137,-38.25 73,-38.25 73,-19 137,-19 137,-38.25"/>
<text xml:space="preserve" text-anchor="middle" x="105" y="-24.75" font-family="Helvetica,sans-Serif" font-size="10.00">create_app</text>
</a>
</g>
</g>
<!-- Node2&#45;&gt;Node3 -->
<g id="edge2_Node000002_Node000003" class="edge">
<title>Node2&#45;&gt;Node3</title>
<g id="a_edge2_Node000002_Node000003"><a xlink:title=" ">
<path fill="none" stroke="#63b8ff" d="M161.06,-28.62C152.9,-28.62 144.74,-28.62 137.29,-28.62"/>
<polygon fill="#63b8ff" stroke="#63b8ff" points="161.01,-32.13 171.01,-28.63 161.01,-25.13 161.01,-32.13"/>
</a>
</g>
</g>
<!-- Node3&#45;&gt;Node4 -->
<g id="edge3_Node000003_Node000004" class="edge">
<title>Node3&#45;&gt;Node4</title>
<g id="a_edge3_Node000003_Node000004"><a xlink:title=" ">
<path fill="none" stroke="#63b8ff" d="M61.51,-19.07C53.03,-17.17 44.57,-15.26 37.49,-13.67"/>
<polygon fill="#63b8ff" stroke="#63b8ff" points="60.53,-22.44 71.06,-21.22 62.07,-15.61 60.53,-22.44"/>
</a>
</g>
</g>
</g>
</svg>
