<?xml version="1.0" encoding="UTF-8" standalone="no"?>
<!DOCTYPE svg PUBLIC "-//W3C//DTD SVG 1.1//EN"
 "http://www.w3.org/Graphics/SVG/1.1/DTD/svg11.dtd">
<!-- Generated by graphviz version 14.0.5 (0)
 -->
<!-- Title: get_query_string Pages: 1 -->
<svg width="278pt" height="27pt"
 viewBox="0.00 0.00 278.00 27.00" xmlns="http://www.w3.org/2000/svg" xmlns:xlink="http://www.w3.org/1999/xlink">
<g id="graph0" class="graph" transform="scale(1 1) rotate(0) translate(4 23.25)">
<title>get_query_string</title>
<!-- Node1 -->
<g id="Node000001" class="node">
<title>Node1</title>
<g id="a_Node000001"><a xlink:title="Retrieve a query parameter as string from the URL.">
<polygon fill="#999999" stroke="#666666" points="270,-19.25 182.75,-19.25 182.75,0 270,0 270,-19.25"/>
<text xml:space="preserve" text-anchor="middle" x="226.38" y="-5.75" font-family="Helvetica,sans-Serif" font-size="10.00">get_query_string</text>
</a>
</g>
</g>
<!-- Node2 -->
<g id="Node000002" class="node">
<title>Node2</title>
<g id="a_Node000002"><a xlink:href="main_8c.html#a3567783714153d35ee83fd6de55968d1" target="_top" xlink:title=" ">
<polygon fill="white" stroke="#666666" points="146.75,-19.25 73,-19.25 73,0 146.75,0 146.75,-19.25"/>
<text xml:space="preserve" text-anchor="middle" x="109.88" y="-5.75" font-family="Helvetica,sans-Serif" font-size="10.00">echo_handler</text>
</a>
</g>
</g>
<!-- Node1&#45;&gt;Node2 -->
<g id="edge1_Node000001_Node000002" class="edge">
<title>Node1&#45;&gt;Node2</title>
<g id="a_edge1_Node000001_Node000002"><a xlink:title=" ">
<path fill="none" stroke="#63b8ff" d="M171,-9.62C162.85,-9.62 154.61,-9.62 146.96,-9.62"/>
<polygon fill="#63b8ff" stroke="#63b8ff" points="170.9,-13.13 180.9,-9.63 170.9,-6.13 170.9,-13.13"/>
</a>
</g>
</g>
<!-- Node3 -->
<g id="Node000003" class="node">
<title>Node3</title>
<g id="a_Node000003"><a xlink:href="main_8c.html#ae66f6b31b5ad750f1fe042a706a4e3d4" target="_top" xlink:title=" ">
<polygon fill="white" stroke="#666666" points="37,-19.25 0,-19.25 0,0 37,0 37,-19.25"/>
<text xml:space="preserve" text-anchor="middle" x="18.5" y="-5.75" font-family="Helvetica,sans-Serif" font-size="10.00">main</text>
</a>
</g>
</g>
<!-- Node2&#45;&gt;Node3 -->
<g id="edge2_Node000002_Node000003" class="edge">
<title>Node2&#45;&gt;Node3</title>
<g id="a_edge2_Node000002_Node000003"><a xlink:title=" ">
<path fill="none" stroke="#63b8ff" d="M61.26,-9.62C52.67,-9.62 44.23,-9.62 37.21,-9.62"/>
<polygon fill="#63b8ff" stroke="#63b8ff" points="61.01,-13.13 71.01,-9.63 61.01,-6.13 61.01,-13.13"/>
</a>
</g>
</g>
</g>
</svg>
