<?xml version="1.0" encoding="UTF-8" standalone="no"?>
<!DOCTYPE svg PUBLIC "-//W3C//DTD SVG 1.1//EN"
 "http://www.w3.org/Graphics/SVG/1.1/DTD/svg11.dtd">
<!-- Generated by graphviz version 14.0.5 (0)
 -->
<!-- Title: handle_endpoint Pages: 1 -->
<svg width="582pt" height="139pt"
 viewBox="0.00 0.00 582.00 139.00" xmlns="http://www.w3.org/2000/svg" xmlns:xlink="http://www.w3.org/1999/xlink">
<g id="graph0" class="graph" transform="scale(1 1) rotate(0) translate(4 135.25)">
<title>handle_endpoint</title>
<!-- Node1 -->
<g id="Node000001" class="node">
<title>Node1</title>
<g id="a_Node000001"><a xlink:title="ONLY FOR UNIT TESTS.">
<polygon fill="#999999" stroke="#666666" points="86.5,-75.25 0,-75.25 0,-56 86.5,-56 86.5,-75.25"/>
<text xml:space="preserve" text-anchor="middle" x="43.25" y="-61.75" font-family="Helvetica,sans-Serif" font-size="10.00">handle_endpoint</text>
</a>
</g>
</g>
<!-- Node2 -->
<g id="Node000002" class="node">
<title>Node2</title>
<g id="a_Node000002"><a xlink:href="espresso_8c.html#a04c27c6493696fb67ab9b8f5296c14f1" target="_top" xlink:title="ONLY FOR UNIT TESTS.">
<polygon fill="white" stroke="#666666" points="221.75,-131.25 139,-131.25 139,-112 221.75,-112 221.75,-131.25"/>
<text xml:space="preserve" text-anchor="middle" x="180.38" y="-117.75" font-family="Helvetica,sans-Serif" font-size="10.00">compare_paths</text>
</a>
</g>
</g>
<!-- Node1&#45;&gt;Node2 -->
<g id="edge1_Node000001_Node000002" class="edge">
<title>Node1&#45;&gt;Node2</title>
<g id="a_edge1_Node000001_Node000002"><a xlink:title=" ">
<path fill="none" stroke="#63b8ff" d="M62.88,-75.62C78.52,-83.79 101.6,-95.29 122.5,-103.62 126.28,-105.13 130.24,-106.6 134.24,-108.01"/>
<polygon fill="#63b8ff" stroke="#63b8ff" points="132.78,-111.21 143.37,-111.09 135.01,-104.57 132.78,-111.21"/>
</a>
</g>
</g>
<!-- Node3 -->
<g id="Node000003" class="node">
<title>Node3</title>
<g id="a_Node000003"><a xlink:href="espresso_8c.html#aca61aa31ed57abce18d1d3cffd0d47e3" target="_top" xlink:title=" ">
<polygon fill="white" stroke="#666666" points="238.25,-94.25 122.5,-94.25 122.5,-75 238.25,-75 238.25,-94.25"/>
<text xml:space="preserve" text-anchor="middle" x="180.38" y="-80.75" font-family="Helvetica,sans-Serif" font-size="10.00">generate_allow_header</text>
</a>
</g>
</g>
<!-- Node1&#45;&gt;Node3 -->
<g id="edge2_Node000001_Node000003" class="edge">
<title>Node1&#45;&gt;Node3</title>
<g id="a_edge2_Node000001_Node000003"><a xlink:title=" ">
<path fill="none" stroke="#63b8ff" d="M86.63,-71.58C94.4,-72.68 102.69,-73.84 110.99,-75.01"/>
<polygon fill="#63b8ff" stroke="#63b8ff" points="110.39,-78.46 120.78,-76.39 111.37,-71.53 110.39,-78.46"/>
</a>
</g>
</g>
<!-- Node4 -->
<g id="Node000004" class="node">
<title>Node4</title>
<g id="a_Node000004"><a xlink:href="espresso_8c.html#a260a9eca1b37d7151fd585fde9e355b8" target="_top" xlink:title="ONLY FOR UNIT TESTS.">
<polygon fill="white" stroke="#666666" points="233.38,-57.25 127.38,-57.25 127.38,-38 233.38,-38 233.38,-57.25"/>
<text xml:space="preserve" text-anchor="middle" x="180.38" y="-43.75" font-family="Helvetica,sans-Serif" font-size="10.00">parse_query_params</text>
</a>
</g>
</g>
<!-- Node1&#45;&gt;Node4 -->
<g id="edge3_Node000001_Node000004" class="edge">
<title>Node1&#45;&gt;Node4</title>
<g id="a_edge3_Node000001_Node000004"><a xlink:title=" ">
<path fill="none" stroke="#63b8ff" d="M86.63,-59.98C95.97,-58.74 106.05,-57.39 116.01,-56.07"/>
<polygon fill="#63b8ff" stroke="#63b8ff" points="116.21,-59.57 125.66,-54.78 115.29,-52.63 116.21,-59.57"/>
</a>
</g>
</g>
<!-- Node9 -->
<g id="Node000009" class="node">
<title>Node9</title>
<g id="a_Node000009"><a xlink:href="espresso_8c.html#a142b429010a8046d339d36552bd20f7e" target="_top" xlink:title=" ">
<polygon fill="white" stroke="#666666" points="221.38,-20.25 139.38,-20.25 139.38,-1 221.38,-1 221.38,-20.25"/>
<text xml:space="preserve" text-anchor="middle" x="180.38" y="-6.75" font-family="Helvetica,sans-Serif" font-size="10.00">send_message</text>
</a>
</g>
</g>
<!-- Node1&#45;&gt;Node9 -->
<g id="edge9_Node000001_Node000009" class="edge">
<title>Node1&#45;&gt;Node9</title>
<g id="a_edge9_Node000001_Node000009"><a xlink:title=" ">
<path fill="none" stroke="#63b8ff" d="M63.54,-55.6C79.19,-47.7 101.94,-36.7 122.5,-28.62 126.29,-27.14 130.26,-25.68 134.26,-24.28"/>
<polygon fill="#63b8ff" stroke="#63b8ff" points="135.03,-27.72 143.39,-21.22 132.8,-21.08 135.03,-27.72"/>
</a>
</g>
</g>
<!-- Node5 -->
<g id="Node000005" class="node">
<title>Node5</title>
<g id="a_Node000005"><a xlink:href="espresso_8c.html#a2d9a0717a9389e6d178d0f4a8c2ef185" target="_top" xlink:title=" ">
<polygon fill="white" stroke="#666666" points="358.12,-95.25 282.12,-95.25 282.12,-76 358.12,-76 358.12,-95.25"/>
<text xml:space="preserve" text-anchor="middle" x="320.12" y="-81.75" font-family="Helvetica,sans-Serif" font-size="10.00">append_query</text>
</a>
</g>
</g>
<!-- Node4&#45;&gt;Node5 -->
<g id="edge4_Node000004_Node000005" class="edge">
<title>Node4&#45;&gt;Node5</title>
<g id="a_edge4_Node000004_Node000005"><a xlink:title=" ">
<path fill="none" stroke="#63b8ff" d="M217.93,-57.71C234.48,-62.28 254.26,-67.73 271.92,-72.6"/>
<polygon fill="#63b8ff" stroke="#63b8ff" points="270.85,-75.94 281.42,-75.22 272.71,-69.19 270.85,-75.94"/>
</a>
</g>
</g>
<!-- Node8 -->
<g id="Node000008" class="node">
<title>Node8</title>
<g id="a_Node000008"><a xlink:href="espresso_8c.html#abdcfd909d1360f16c6fedab5aac76f2a" target="_top" xlink:title=" ">
<polygon fill="white" stroke="#666666" points="466.75,-58.25 413.25,-58.25 413.25,-39 466.75,-39 466.75,-58.25"/>
<text xml:space="preserve" text-anchor="middle" x="440" y="-44.75" font-family="Helvetica,sans-Serif" font-size="10.00">log_error</text>
</a>
</g>
</g>
<!-- Node4&#45;&gt;Node8 -->
<g id="edge8_Node000004_Node000008" class="edge">
<title>Node4&#45;&gt;Node8</title>
<g id="a_edge8_Node000004_Node000008"><a xlink:title=" ">
<path fill="none" stroke="#63b8ff" d="M233.82,-47.83C283.68,-48.02 357.44,-48.31 401.61,-48.48"/>
<polygon fill="#63b8ff" stroke="#63b8ff" points="401.44,-51.98 411.45,-48.52 401.47,-44.98 401.44,-51.98"/>
</a>
</g>
</g>
<!-- Node6 -->
<g id="Node000006" class="node">
<title>Node6</title>
<g id="a_Node000006"><a xlink:href="espresso_8c.html#a755a65a488e1158eee3fdab0ecada8fe" target="_top" xlink:title=" ">
<polygon fill="white" stroke="#666666" points="478,-95.25 402,-95.25 402,-76 478,-76 478,-95.25"/>
<text xml:space="preserve" text-anchor="middle" x="440" y="-81.75" font-family="Helvetica,sans-Serif" font-size="10.00">decode_query</text>
</a>
</g>
</g>
<!-- Node5&#45;&gt;Node6 -->
<g id="edge5_Node000005_Node000006" class="edge">
<title>Node5&#45;&gt;Node6</title>
<g id="a_edge5_Node000005_Node000006"><a xlink:title=" ">
<path fill="none" stroke="#63b8ff" d="M358.42,-85.62C368.53,-85.62 379.62,-85.62 390.25,-85.62"/>
<polygon fill="#63b8ff" stroke="#63b8ff" points="390.03,-89.13 400.03,-85.63 390.03,-82.13 390.03,-89.13"/>
</a>
</g>
</g>
<!-- Node5&#45;&gt;Node8 -->
<g id="edge7_Node000005_Node000008" class="edge">
<title>Node5&#45;&gt;Node8</title>
<g id="a_edge7_Node000005_Node000008"><a xlink:title=" ">
<path fill="none" stroke="#63b8ff" d="M353.33,-75.51C368.36,-70.8 386.34,-65.16 401.93,-60.26"/>
<polygon fill="#63b8ff" stroke="#63b8ff" points="402.85,-63.64 411.34,-57.31 400.75,-56.96 402.85,-63.64"/>
</a>
</g>
</g>
<!-- Node7 -->
<g id="Node000007" class="node">
<title>Node7</title>
<g id="a_Node000007"><a xlink:href="espresso_8c.html#af4a5274d4719dec853dd32e1d8687553" target="_top" xlink:title=" ">
<polygon fill="white" stroke="#666666" points="574.25,-95.25 514,-95.25 514,-76 574.25,-76 574.25,-95.25"/>
<text xml:space="preserve" text-anchor="middle" x="544.12" y="-81.75" font-family="Helvetica,sans-Serif" font-size="10.00">hex_to_int</text>
</a>
</g>
</g>
<!-- Node6&#45;&gt;Node7 -->
<g id="edge6_Node000006_Node000007" class="edge">
<title>Node6&#45;&gt;Node7</title>
<g id="a_edge6_Node000006_Node000007"><a xlink:title=" ">
<path fill="none" stroke="#63b8ff" d="M478.45,-85.62C486.25,-85.62 494.51,-85.62 502.42,-85.62"/>
<polygon fill="#63b8ff" stroke="#63b8ff" points="502.16,-89.13 512.16,-85.63 502.16,-82.13 502.16,-89.13"/>
</a>
</g>
</g>
<!-- Node10 -->
<g id="Node000010" class="node">
<title>Node10</title>
<g id="a_Node000010"><a xlink:href="espresso_8c.html#a5fa30991ad104ba1fe0001e7aefe95ac" target="_top" xlink:title=" ">
<polygon fill="white" stroke="#666666" points="366,-19.25 274.25,-19.25 274.25,0 366,0 366,-19.25"/>
<text xml:space="preserve" text-anchor="middle" x="320.12" y="-5.75" font-family="Helvetica,sans-Serif" font-size="10.00">handle_write_end</text>
</a>
</g>
</g>
<!-- Node9&#45;&gt;Node10 -->
<g id="edge10_Node000009_Node000010" class="edge">
<title>Node9&#45;&gt;Node10</title>
<g id="a_edge10_Node000009_Node000010"><a xlink:title=" ">
<path fill="none" stroke="#63b8ff" d="M221.59,-10.33C234.37,-10.24 248.75,-10.14 262.47,-10.04"/>
<polygon fill="#63b8ff" stroke="#63b8ff" points="262.29,-13.54 272.27,-9.97 262.24,-6.54 262.29,-13.54"/>
</a>
</g>
</g>
</g>
</svg>
