<?xml version="1.0" encoding="UTF-8" standalone="no"?>
<!DOCTYPE svg PUBLIC "-//W3C//DTD SVG 1.1//EN"
 "http://www.w3.org/Graphics/SVG/1.1/DTD/svg11.dtd">
<!-- Generated by graphviz version 14.0.5 (0)
 -->
<!-- Title: create_app Pages: 1 -->
<svg width="709pt" height="64pt"
 viewBox="0.00 0.00 709.00 64.00" xmlns="http://www.w3.org/2000/svg" xmlns:xlink="http://www.w3.org/1999/xlink">
<g id="graph0" class="graph" transform="scale(1 1) rotate(0) translate(4 60.25)">
<title>create_app</title>
<!-- Node1 -->
<g id="Node000001" class="node">
<title>Node1</title>
<g id="a_Node000001"><a xlink:title="Creates a new Espresso app on the specified port.">
<polygon fill="#999999" stroke="#666666" points="64,-37.25 0,-37.25 0,-18 64,-18 64,-37.25"/>
<text xml:space="preserve" text-anchor="middle" x="32" y="-23.75" font-family="Helvetica,sans-Serif" font-size="10.00">create_app</text>
</a>
</g>
</g>
<!-- Node2 -->
<g id="Node000002" class="node">
<title>Node2</title>
<g id="a_Node000002"><a xlink:href="espresso_8c.html#a1f2696ccccf441f76c9f5161fb903db5" target="_top" xlink:title=" ">
<polygon fill="white" stroke="#666666" points="188,-37.25 100,-37.25 100,-18 188,-18 188,-37.25"/>
<text xml:space="preserve" text-anchor="middle" x="144" y="-23.75" font-family="Helvetica,sans-Serif" font-size="10.00">lib_handle_sigint</text>
</a>
</g>
</g>
<!-- Node1&#45;&gt;Node2 -->
<g id="edge1_Node000001_Node000002" class="edge">
<title>Node1&#45;&gt;Node2</title>
<g id="a_edge1_Node000001_Node000002"><a xlink:title=" ">
<path fill="none" stroke="#63b8ff" d="M64.23,-27.62C71.83,-27.62 80.17,-27.62 88.51,-27.62"/>
<polygon fill="#63b8ff" stroke="#63b8ff" points="88.27,-31.13 98.27,-27.63 88.27,-24.13 88.27,-31.13"/>
</a>
</g>
</g>
<!-- Node3 -->
<g id="Node000003" class="node">
<title>Node3</title>
<g id="a_Node000003"><a xlink:href="espresso_8c.html#a3489a7e521f0aceb3e050ca4b9f165d7" target="_top" xlink:title="Closes the app and frees resources.">
<polygon fill="white" stroke="#666666" points="284.25,-37.25 224,-37.25 224,-18 284.25,-18 284.25,-37.25"/>
<text xml:space="preserve" text-anchor="middle" x="254.12" y="-23.75" font-family="Helvetica,sans-Serif" font-size="10.00">app_close</text>
</a>
</g>
</g>
<!-- Node2&#45;&gt;Node3 -->
<g id="edge2_Node000002_Node000003" class="edge">
<title>Node2&#45;&gt;Node3</title>
<g id="a_edge2_Node000002_Node000003"><a xlink:title=" ">
<path fill="none" stroke="#63b8ff" d="M188.36,-27.62C196.24,-27.62 204.43,-27.62 212.24,-27.62"/>
<polygon fill="#63b8ff" stroke="#63b8ff" points="212.18,-31.13 222.18,-27.63 212.18,-24.13 212.18,-31.13"/>
</a>
</g>
</g>
<!-- Node4 -->
<g id="Node000004" class="node">
<title>Node4</title>
<g id="a_Node000004"><a xlink:href="espresso_8c.html#a73277811539a2de04ce7e1295fbdba6a" target="_top" xlink:title=" ">
<polygon fill="white" stroke="#666666" points="412,-37.25 320.25,-37.25 320.25,-18 412,-18 412,-37.25"/>
<text xml:space="preserve" text-anchor="middle" x="366.12" y="-23.75" font-family="Helvetica,sans-Serif" font-size="10.00">close_connection</text>
</a>
</g>
</g>
<!-- Node3&#45;&gt;Node4 -->
<g id="edge3_Node000003_Node000004" class="edge">
<title>Node3&#45;&gt;Node4</title>
<g id="a_edge3_Node000003_Node000004"><a xlink:title=" ">
<path fill="none" stroke="#63b8ff" d="M284.6,-27.62C292.04,-27.62 300.28,-27.62 308.56,-27.62"/>
<polygon fill="#63b8ff" stroke="#63b8ff" points="308.31,-31.13 318.31,-27.63 308.31,-24.13 308.31,-31.13"/>
</a>
</g>
</g>
<!-- Node5 -->
<g id="Node000005" class="node">
<title>Node5</title>
<g id="a_Node000005"><a xlink:href="espresso_8c.html#aaf78724518167158b66ec656312fabd2" target="_top" xlink:title=" ">
<polygon fill="white" stroke="#666666" points="573.5,-37.25 448,-37.25 448,-18 573.5,-18 573.5,-37.25"/>
<text xml:space="preserve" text-anchor="middle" x="510.75" y="-23.75" font-family="Helvetica,sans-Serif" font-size="10.00">handle_connection_close</text>
</a>
</g>
</g>
<!-- Node4&#45;&gt;Node5 -->
<g id="edge4_Node000004_Node000005" class="edge">
<title>Node4&#45;&gt;Node5</title>
<g id="a_edge4_Node000004_Node000005"><a xlink:title=" ">
<path fill="none" stroke="#63b8ff" d="M412.25,-27.62C420,-27.62 428.22,-27.62 436.47,-27.62"/>
<polygon fill="#63b8ff" stroke="#63b8ff" points="436.2,-31.13 446.2,-27.63 436.2,-24.13 436.2,-31.13"/>
</a>
</g>
</g>
<!-- Node6 -->
<g id="Node000006" class="node">
<title>Node6</title>
<g id="a_Node000006"><a xlink:href="espresso_8c.html#a1804ce3a25646fd9c6c6ad98d45c6efa" target="_top" xlink:title=" ">
<polygon fill="white" stroke="#666666" points="701.25,-56.25 609.5,-56.25 609.5,-37 701.25,-37 701.25,-56.25"/>
<text xml:space="preserve" text-anchor="middle" x="655.38" y="-42.75" font-family="Helvetica,sans-Serif" font-size="10.00">endpoint_cleanup</text>
</a>
</g>
</g>
<!-- Node5&#45;&gt;Node6 -->
<g id="edge5_Node000005_Node000006" class="edge">
<title>Node5&#45;&gt;Node6</title>
<g id="a_edge5_Node000005_Node000006"><a xlink:title=" ">
<path fill="none" stroke="#63b8ff" d="M573.89,-35.9C581.86,-36.96 589.99,-38.05 597.86,-39.1"/>
<polygon fill="#63b8ff" stroke="#63b8ff" points="597.29,-42.55 607.66,-40.4 598.21,-35.61 597.29,-42.55"/>
</a>
</g>
</g>
<!-- Node7 -->
<g id="Node000007" class="node">
<title>Node7</title>
<g id="a_Node000007"><a xlink:href="espresso_8c.html#a837cf67658f96fc262c83a4882f96f45" target="_top" xlink:title=" ">
<polygon fill="white" stroke="#666666" points="693.75,-19.25 617,-19.25 617,0 693.75,0 693.75,-19.25"/>
<text xml:space="preserve" text-anchor="middle" x="655.38" y="-5.75" font-family="Helvetica,sans-Serif" font-size="10.00">remove_client</text>
</a>
</g>
</g>
<!-- Node5&#45;&gt;Node7 -->
<g id="edge6_Node000005_Node000007" class="edge">
<title>Node5&#45;&gt;Node7</title>
<g id="a_edge6_Node000005_Node000007"><a xlink:title=" ">
<path fill="none" stroke="#63b8ff" d="M573.89,-19.78C584.47,-18.45 595.33,-17.08 605.5,-15.79"/>
<polygon fill="#63b8ff" stroke="#63b8ff" points="605.67,-19.3 615.15,-14.58 604.79,-12.35 605.67,-19.3"/>
</a>
</g>
</g>
</g>
</svg>
