<?xml version="1.0" encoding="UTF-8" standalone="no"?>
<!DOCTYPE svg PUBLIC "-//W3C//DTD SVG 1.1//EN"
 "http://www.w3.org/Graphics/SVG/1.1/DTD/svg11.dtd">
<!-- Generated by graphviz version 14.0.5 (0)
 -->
<!-- Title: endpoint_cleanup Pages: 1 -->
<svg width="975pt" height="173pt"
 viewBox="0.00 0.00 975.00 173.00" xmlns="http://www.w3.org/2000/svg" xmlns:xlink="http://www.w3.org/1999/xlink">
<g id="graph0" class="graph" transform="scale(1 1) rotate(0) translate(4 169.25)">
<title>endpoint_cleanup</title>
<!-- Node1 -->
<g id="Node000001" class="node">
<title>Node1</title>
<g id="a_Node000001"><a xlink:title=" ">
<polygon fill="#999999" stroke="#666666" points="966.5,-95.25 874.75,-95.25 874.75,-76 966.5,-76 966.5,-95.25"/>
<text xml:space="preserve" text-anchor="middle" x="920.62" y="-81.75" font-family="Helvetica,sans-Serif" font-size="10.00">endpoint_cleanup</text>
</a>
</g>
</g>
<!-- Node2 -->
<g id="Node000002" class="node">
<title>Node2</title>
<g id="a_Node000002"><a xlink:href="espresso_8c.html#aaf78724518167158b66ec656312fabd2" target="_top" xlink:title=" ">
<polygon fill="white" stroke="#666666" points="838.75,-95.25 713.25,-95.25 713.25,-76 838.75,-76 838.75,-95.25"/>
<text xml:space="preserve" text-anchor="middle" x="776" y="-81.75" font-family="Helvetica,sans-Serif" font-size="10.00">handle_connection_close</text>
</a>
</g>
</g>
<!-- Node1&#45;&gt;Node2 -->
<g id="edge1_Node000001_Node000002" class="edge">
<title>Node1&#45;&gt;Node2</title>
<g id="a_edge1_Node000001_Node000002"><a xlink:title=" ">
<path fill="none" stroke="#63b8ff" d="M863.13,-85.62C855.22,-85.62 847.05,-85.62 839.04,-85.62"/>
<polygon fill="#63b8ff" stroke="#63b8ff" points="862.98,-89.13 872.98,-85.63 862.98,-82.13 862.98,-89.13"/>
</a>
</g>
</g>
<!-- Node3 -->
<g id="Node000003" class="node">
<title>Node3</title>
<g id="a_Node000003"><a xlink:href="espresso_8c.html#a73277811539a2de04ce7e1295fbdba6a" target="_top" xlink:title=" ">
<polygon fill="white" stroke="#666666" points="677.25,-95.25 585.5,-95.25 585.5,-76 677.25,-76 677.25,-95.25"/>
<text xml:space="preserve" text-anchor="middle" x="631.38" y="-81.75" font-family="Helvetica,sans-Serif" font-size="10.00">close_connection</text>
</a>
</g>
</g>
<!-- Node2&#45;&gt;Node3 -->
<g id="edge2_Node000002_Node000003" class="edge">
<title>Node2&#45;&gt;Node3</title>
<g id="a_edge2_Node000002_Node000003"><a xlink:title=" ">
<path fill="none" stroke="#63b8ff" d="M701.4,-85.62C693.28,-85.62 685.2,-85.62 677.59,-85.62"/>
<polygon fill="#63b8ff" stroke="#63b8ff" points="701.34,-89.13 711.34,-85.63 701.34,-82.13 701.34,-89.13"/>
</a>
</g>
</g>
<!-- Node4 -->
<g id="Node000004" class="node">
<title>Node4</title>
<g id="a_Node000004"><a xlink:href="espresso_8c.html#a3489a7e521f0aceb3e050ca4b9f165d7" target="_top" xlink:title="Closes the app and frees resources.">
<polygon fill="white" stroke="#666666" points="384.62,-165.25 324.38,-165.25 324.38,-146 384.62,-146 384.62,-165.25"/>
<text xml:space="preserve" text-anchor="middle" x="354.5" y="-151.75" font-family="Helvetica,sans-Serif" font-size="10.00">app_close</text>
</a>
</g>
</g>
<!-- Node3&#45;&gt;Node4 -->
<g id="edge3_Node000003_Node000004" class="edge">
<title>Node3&#45;&gt;Node4</title>
<g id="a_edge3_Node000003_Node000004"><a xlink:title=" ">
<path fill="none" stroke="#63b8ff" d="M611.95,-103.13C596.56,-116.55 573.37,-134.17 549.5,-142.62 493.98,-162.29 424.01,-161.19 385.09,-158.49"/>
<polygon fill="#63b8ff" stroke="#63b8ff" points="614.26,-105.75 619.33,-96.45 609.57,-100.56 614.26,-105.75"/>
</a>
</g>
</g>
<!-- Node8 -->
<g id="Node000008" class="node">
<title>Node8</title>
<g id="a_Node000008"><a xlink:href="espresso_8c.html#a2a7b96459e0adac1061eaec6a5722075" target="_top" xlink:title=" ">
<polygon fill="white" stroke="#666666" points="531.12,-133.25 457.38,-133.25 457.38,-114 531.12,-114 531.12,-133.25"/>
<text xml:space="preserve" text-anchor="middle" x="494.25" y="-119.75" font-family="Helvetica,sans-Serif" font-size="10.00">handle_buffer</text>
</a>
</g>
</g>
<!-- Node3&#45;&gt;Node8 -->
<g id="edge8_Node000003_Node000008" class="edge">
<title>Node3&#45;&gt;Node8</title>
<g id="a_edge8_Node000003_Node000008"><a xlink:title=" ">
<path fill="none" stroke="#63b8ff" d="M583.5,-98.81C566.21,-103.67 546.93,-109.09 530.8,-113.63"/>
<polygon fill="#63b8ff" stroke="#63b8ff" points="584.38,-102.19 593.06,-96.12 582.49,-95.46 584.38,-102.19"/>
</a>
</g>
</g>
<!-- Node9 -->
<g id="Node000009" class="node">
<title>Node9</title>
<g id="a_Node000009"><a xlink:href="espresso_8c.html#a919e9a8a992f43f0fd82e87f4d40d2d2" target="_top" xlink:title=" ">
<polygon fill="white" stroke="#666666" points="403,-112.25 306,-112.25 306,-93 403,-93 403,-112.25"/>
<text xml:space="preserve" text-anchor="middle" x="354.5" y="-98.75" font-family="Helvetica,sans-Serif" font-size="10.00">handle_client_read</text>
</a>
</g>
</g>
<!-- Node3&#45;&gt;Node9 -->
<g id="edge14_Node000003_Node000009" class="edge">
<title>Node3&#45;&gt;Node9</title>
<g id="a_edge14_Node000003_Node000009"><a xlink:title=" ">
<path fill="none" stroke="#63b8ff" d="M573.97,-89.11C523.69,-92.22 450.89,-96.73 403.38,-99.66"/>
<polygon fill="#63b8ff" stroke="#63b8ff" points="574.02,-92.62 583.78,-88.51 573.59,-85.63 574.02,-92.62"/>
</a>
</g>
</g>
<!-- Node10 -->
<g id="Node000010" class="node">
<title>Node10</title>
<g id="a_Node000010"><a xlink:href="espresso_8c.html#a90f2058b8890cfb99e6f595b8f066919" target="_top" xlink:title=" ">
<polygon fill="white" stroke="#666666" points="270,-62.25 173,-62.25 173,-43 270,-43 270,-62.25"/>
<text xml:space="preserve" text-anchor="middle" x="221.5" y="-48.75" font-family="Helvetica,sans-Serif" font-size="10.00">handle_connection</text>
</a>
</g>
</g>
<!-- Node3&#45;&gt;Node10 -->
<g id="edge17_Node000003_Node000010" class="edge">
<title>Node3&#45;&gt;Node10</title>
<g id="a_edge17_Node000003_Node000010"><a xlink:title=" ">
<path fill="none" stroke="#63b8ff" d="M573.75,-81.04C492.98,-74.51 346.11,-62.63 270.43,-56.5"/>
<polygon fill="#63b8ff" stroke="#63b8ff" points="573.41,-84.53 583.66,-81.85 573.97,-77.55 573.41,-84.53"/>
</a>
</g>
</g>
<!-- Node12 -->
<g id="Node000012" class="node">
<title>Node12</title>
<g id="a_Node000012"><a xlink:href="espresso_8c.html#a015718d876f3d5394b1ab3d6e39e989f" target="_top" xlink:title=" ">
<polygon fill="white" stroke="#666666" points="549.5,-19.25 439,-19.25 439,0 549.5,0 549.5,-19.25"/>
<text xml:space="preserve" text-anchor="middle" x="494.25" y="-5.75" font-family="Helvetica,sans-Serif" font-size="10.00">handle_client_timeout</text>
</a>
</g>
</g>
<!-- Node3&#45;&gt;Node12 -->
<g id="edge15_Node000003_Node000012" class="edge">
<title>Node3&#45;&gt;Node12</title>
<g id="a_edge15_Node000003_Node000012"><a xlink:title=" ">
<path fill="none" stroke="#63b8ff" d="M607.12,-69.31C591.27,-58.52 569.58,-44.44 549.5,-33.62 540.16,-28.6 529.55,-23.73 520.21,-19.71"/>
<polygon fill="#63b8ff" stroke="#63b8ff" points="604.71,-71.89 614.93,-74.68 608.67,-66.13 604.71,-71.89"/>
</a>
</g>
</g>
<!-- Node5 -->
<g id="Node000005" class="node">
<title>Node5</title>
<g id="a_Node000005"><a xlink:href="espresso_8c.html#a1f2696ccccf441f76c9f5161fb903db5" target="_top" xlink:title=" ">
<polygon fill="white" stroke="#666666" points="265.5,-165.25 177.5,-165.25 177.5,-146 265.5,-146 265.5,-165.25"/>
<text xml:space="preserve" text-anchor="middle" x="221.5" y="-151.75" font-family="Helvetica,sans-Serif" font-size="10.00">lib_handle_sigint</text>
</a>
</g>
</g>
<!-- Node4&#45;&gt;Node5 -->
<g id="edge4_Node000004_Node000005" class="edge">
<title>Node4&#45;&gt;Node5</title>
<g id="a_edge4_Node000004_Node000005"><a xlink:title=" ">
<path fill="none" stroke="#63b8ff" d="M312.7,-155.62C297.86,-155.62 281.04,-155.62 265.98,-155.62"/>
<polygon fill="#63b8ff" stroke="#63b8ff" points="312.59,-159.13 322.59,-155.63 312.59,-152.13 312.59,-159.13"/>
</a>
</g>
</g>
<!-- Node7 -->
<g id="Node000007" class="node">
<title>Node7</title>
<g id="a_Node000007"><a xlink:href="main_8c.html#ae66f6b31b5ad750f1fe042a706a4e3d4" target="_top" xlink:title=" ">
<polygon fill="white" stroke="#666666" points="37,-127.25 0,-127.25 0,-108 37,-108 37,-127.25"/>
<text xml:space="preserve" text-anchor="middle" x="18.5" y="-113.75" font-family="Helvetica,sans-Serif" font-size="10.00">main</text>
</a>
</g>
</g>
<!-- Node4&#45;&gt;Node7 -->
<g id="edge7_Node000004_Node000007" class="edge">
<title>Node4&#45;&gt;Node7</title>
<g id="a_edge7_Node000004_Node000007"><a xlink:title=" ">
<path fill="none" stroke="#63b8ff" d="M313,-145.14C299.41,-141.96 284.13,-138.76 270,-136.62 183.32,-123.55 78.33,-119.29 37.22,-118.07"/>
<polygon fill="#63b8ff" stroke="#63b8ff" points="311.93,-148.48 322.48,-147.42 313.57,-141.68 311.93,-148.48"/>
</a>
</g>
</g>
<!-- Node6 -->
<g id="Node000006" class="node">
<title>Node6</title>
<g id="a_Node000006"><a xlink:href="espresso_8c.html#a54c30f08a1b67315ac3195d1a7fac35f" target="_top" xlink:title="Creates a new Espresso app on the specified port.">
<polygon fill="white" stroke="#666666" points="137,-165.25 73,-165.25 73,-146 137,-146 137,-165.25"/>
<text xml:space="preserve" text-anchor="middle" x="105" y="-151.75" font-family="Helvetica,sans-Serif" font-size="10.00">create_app</text>
</a>
</g>
</g>
<!-- Node5&#45;&gt;Node6 -->
<g id="edge5_Node000005_Node000006" class="edge">
<title>Node5&#45;&gt;Node6</title>
<g id="a_edge5_Node000005_Node000006"><a xlink:title=" ">
<path fill="none" stroke="#63b8ff" d="M165.81,-155.62C155.99,-155.62 146.08,-155.62 137.22,-155.62"/>
<polygon fill="#63b8ff" stroke="#63b8ff" points="165.7,-159.13 175.7,-155.63 165.7,-152.13 165.7,-159.13"/>
</a>
</g>
</g>
<!-- Node6&#45;&gt;Node7 -->
<g id="edge6_Node000006_Node000007" class="edge">
<title>Node6&#45;&gt;Node7</title>
<g id="a_edge6_Node000006_Node000007"><a xlink:title=" ">
<path fill="none" stroke="#63b8ff" d="M71.52,-141.02C59.9,-135.79 47.22,-130.09 37.3,-125.63"/>
<polygon fill="#63b8ff" stroke="#63b8ff" points="69.86,-144.11 80.42,-145.02 72.73,-137.73 69.86,-144.11"/>
</a>
</g>
</g>
<!-- Node8&#45;&gt;Node9 -->
<g id="edge9_Node000008_Node000009" class="edge">
<title>Node8&#45;&gt;Node9</title>
<g id="a_edge9_Node000008_Node000009"><a xlink:title=" ">
<path fill="none" stroke="#63b8ff" d="M453.18,-111.32C437.6,-108.31 419.62,-105.48 403.37,-103.46"/>
<polygon fill="#63b8ff" stroke="#63b8ff" points="452.06,-114.66 462.55,-113.23 453.45,-107.81 452.06,-114.66"/>
</a>
</g>
</g>
<!-- Node9&#45;&gt;Node8 -->
<g id="edge10_Node000009_Node000008" class="edge">
<title>Node9&#45;&gt;Node8</title>
<g id="a_edge10_Node000009_Node000008"><a xlink:title=" ">
<path fill="none" stroke="#63b8ff" d="M395.74,-114.96C415.14,-118.71 438.22,-122.16 457.06,-124.13"/>
<polygon fill="#63b8ff" stroke="#63b8ff" points="396.49,-111.54 386,-112.97 395.09,-118.4 396.49,-111.54"/>
</a>
</g>
</g>
<!-- Node9&#45;&gt;Node10 -->
<g id="edge11_Node000009_Node000010" class="edge">
<title>Node9&#45;&gt;Node10</title>
<g id="a_edge11_Node000009_Node000010"><a xlink:title=" ">
<path fill="none" stroke="#63b8ff" d="M316.28,-88.42C294.81,-80.22 268.31,-70.11 248.97,-62.73"/>
<polygon fill="#63b8ff" stroke="#63b8ff" points="314.99,-91.67 325.58,-91.97 317.48,-85.13 314.99,-91.67"/>
</a>
</g>
</g>
<!-- Node11 -->
<g id="Node000011" class="node">
<title>Node11</title>
<g id="a_Node000011"><a xlink:href="espresso_8c.html#a0ba22157d15a70c4c22441b040bb0f74" target="_top" xlink:title="Starts the HTTP server loop.">
<polygon fill="white" stroke="#666666" points="135.12,-80.25 74.88,-80.25 74.88,-61 135.12,-61 135.12,-80.25"/>
<text xml:space="preserve" text-anchor="middle" x="105" y="-66.75" font-family="Helvetica,sans-Serif" font-size="10.00">app_listen</text>
</a>
</g>
</g>
<!-- Node10&#45;&gt;Node11 -->
<g id="edge12_Node000010_Node000011" class="edge">
<title>Node10&#45;&gt;Node11</title>
<g id="a_edge12_Node000010_Node000011"><a xlink:title=" ">
<path fill="none" stroke="#63b8ff" d="M161.26,-61.94C152.28,-63.35 143.37,-64.75 135.41,-66"/>
<polygon fill="#63b8ff" stroke="#63b8ff" points="161.77,-65.4 171.11,-60.39 160.69,-58.48 161.77,-65.4"/>
</a>
</g>
</g>
<!-- Node11&#45;&gt;Node7 -->
<g id="edge13_Node000011_Node000007" class="edge">
<title>Node11&#45;&gt;Node7</title>
<g id="a_edge13_Node000011_Node000007"><a xlink:title=" ">
<path fill="none" stroke="#63b8ff" d="M76.35,-86C63.55,-93.12 48.7,-101.38 37.39,-107.67"/>
<polygon fill="#63b8ff" stroke="#63b8ff" points="77.72,-89.25 84.76,-81.33 74.32,-83.13 77.72,-89.25"/>
</a>
</g>
</g>
<!-- Node12&#45;&gt;Node10 -->
<g id="edge16_Node000012_Node000010" class="edge">
<title>Node12&#45;&gt;Node10</title>
<g id="a_edge16_Node000012_Node000010"><a xlink:title=" ">
<path fill="none" stroke="#63b8ff" d="M427.22,-16.52C391.25,-20.67 346.04,-26.52 306,-33.62 291.95,-36.12 276.69,-39.41 263.11,-42.56"/>
<polygon fill="#63b8ff" stroke="#63b8ff" points="427.51,-20.01 437.05,-15.4 426.72,-13.05 427.51,-20.01"/>
</a>
</g>
</g>
</g>
</svg>
