<?xml version="1.0" encoding="UTF-8" standalone="no"?>
<!DOCTYPE svg PUBLIC "-//W3C//DTD SVG 1.1//EN"
 "http://www.w3.org/Graphics/SVG/1.1/DTD/svg11.dtd">
<!-- Generated by graphviz version 14.0.5 (0)
 -->
<!-- Title: parse_query_params Pages: 1 -->
<svg width="434pt" height="64pt"
 viewBox="0.00 0.00 434.00 64.00" xmlns="http://www.w3.org/2000/svg" xmlns:xlink="http://www.w3.org/1999/xlink">
<g id="graph0" class="graph" transform="scale(1 1) rotate(0) translate(4 60.25)">
<title>parse_query_params</title>
<!-- Node1 -->
<g id="Node000001" class="node">
<title>Node1</title>
<g id="a_Node000001"><a xlink:title="ONLY FOR UNIT TESTS.">
<polygon fill="#999999" stroke="#666666" points="106,-37.25 0,-37.25 0,-18 106,-18 106,-37.25"/>
<text xml:space="preserve" text-anchor="middle" x="53" y="-23.75" font-family="Helvetica,sans-Serif" font-size="10.00">parse_query_params</text>
</a>
</g>
</g>
<!-- Node2 -->
<g id="Node000002" class="node">
<title>Node2</title>
<g id="a_Node000002"><a xlink:href="espresso_8c.html#a2d9a0717a9389e6d178d0f4a8c2ef185" target="_top" xlink:title=" ">
<polygon fill="white" stroke="#666666" points="218,-56.25 142,-56.25 142,-37 218,-37 218,-56.25"/>
<text xml:space="preserve" text-anchor="middle" x="180" y="-42.75" font-family="Helvetica,sans-Serif" font-size="10.00">append_query</text>
</a>
</g>
</g>
<!-- Node1&#45;&gt;Node2 -->
<g id="edge1_Node000001_Node000002" class="edge">
<title>Node1&#45;&gt;Node2</title>
<g id="a_edge1_Node000001_Node000002"><a xlink:title=" ">
<path fill="none" stroke="#63b8ff" d="M106.29,-35.57C114.29,-36.79 122.52,-38.04 130.43,-39.24"/>
<polygon fill="#63b8ff" stroke="#63b8ff" points="129.84,-42.69 140.25,-40.73 130.89,-35.77 129.84,-42.69"/>
</a>
</g>
</g>
<!-- Node5 -->
<g id="Node000005" class="node">
<title>Node5</title>
<g id="a_Node000005"><a xlink:href="espresso_8c.html#abdcfd909d1360f16c6fedab5aac76f2a" target="_top" xlink:title=" ">
<polygon fill="white" stroke="#666666" points="318.75,-19.25 265.25,-19.25 265.25,0 318.75,0 318.75,-19.25"/>
<text xml:space="preserve" text-anchor="middle" x="292" y="-5.75" font-family="Helvetica,sans-Serif" font-size="10.00">log_error</text>
</a>
</g>
</g>
<!-- Node1&#45;&gt;Node5 -->
<g id="edge5_Node000001_Node000005" class="edge">
<title>Node1&#45;&gt;Node5</title>
<g id="a_edge5_Node000001_Node000005"><a xlink:title=" ">
<path fill="none" stroke="#63b8ff" d="M106.3,-23.65C150.87,-20.27 213.84,-15.49 253.53,-12.47"/>
<polygon fill="#63b8ff" stroke="#63b8ff" points="253.59,-15.98 263.3,-11.73 253.06,-9 253.59,-15.98"/>
</a>
</g>
</g>
<!-- Node3 -->
<g id="Node000003" class="node">
<title>Node3</title>
<g id="a_Node000003"><a xlink:href="espresso_8c.html#a755a65a488e1158eee3fdab0ecada8fe" target="_top" xlink:title=" ">
<polygon fill="white" stroke="#666666" points="330,-56.25 254,-56.25 254,-37 330,-37 330,-56.25"/>
<text xml:space="preserve" text-anchor="middle" x="292" y="-42.75" font-family="Helvetica,sans-Serif" font-size="10.00">decode_query</text>
</a>
</g>
</g>
<!-- Node2&#45;&gt;Node3 -->
<g id="edge2_Node000002_Node000003" class="edge">
<title>Node2&#45;&gt;Node3</title>
<g id="a_edge2_Node000002_Node000003"><a xlink:title=" ">
<path fill="none" stroke="#63b8ff" d="M218.24,-46.62C226.04,-46.62 234.36,-46.62 242.5,-46.62"/>
<polygon fill="#63b8ff" stroke="#63b8ff" points="242.28,-50.13 252.28,-46.63 242.28,-43.13 242.28,-50.13"/>
</a>
</g>
</g>
<!-- Node2&#45;&gt;Node5 -->
<g id="edge4_Node000002_Node000005" class="edge">
<title>Node2&#45;&gt;Node5</title>
<g id="a_edge4_Node000002_Node000005"><a xlink:title=" ">
<path fill="none" stroke="#63b8ff" d="M211.06,-36.51C224.41,-32.02 240.25,-26.7 254.29,-21.97"/>
<polygon fill="#63b8ff" stroke="#63b8ff" points="255.29,-25.33 263.65,-18.82 253.06,-18.69 255.29,-25.33"/>
</a>
</g>
</g>
<!-- Node4 -->
<g id="Node000004" class="node">
<title>Node4</title>
<g id="a_Node000004"><a xlink:href="espresso_8c.html#af4a5274d4719dec853dd32e1d8687553" target="_top" xlink:title=" ">
<polygon fill="white" stroke="#666666" points="426.25,-56.25 366,-56.25 366,-37 426.25,-37 426.25,-56.25"/>
<text xml:space="preserve" text-anchor="middle" x="396.12" y="-42.75" font-family="Helvetica,sans-Serif" font-size="10.00">hex_to_int</text>
</a>
</g>
</g>
<!-- Node3&#45;&gt;Node4 -->
<g id="edge3_Node000003_Node000004" class="edge">
<title>Node3&#45;&gt;Node4</title>
<g id="a_edge3_Node000003_Node000004"><a xlink:title=" ">
<path fill="none" stroke="#63b8ff" d="M330.45,-46.62C338.25,-46.62 346.51,-46.62 354.42,-46.62"/>
<polygon fill="#63b8ff" stroke="#63b8ff" points="354.16,-50.13 364.16,-46.63 354.16,-43.13 354.16,-50.13"/>
</a>
</g>
</g>
</g>
</svg>
