<?xml version="1.0" encoding="UTF-8" standalone="no"?>
<!DOCTYPE svg PUBLIC "-//W3C//DTD SVG 1.1//EN"
 "http://www.w3.org/Graphics/SVG/1.1/DTD/svg11.dtd">
<!-- Generated by graphviz version 14.0.5 (0)
 -->
<!-- Title: main.c Pages: 1 -->
<svg width="584pt" height="193pt"
 viewBox="0.00 0.00 584.00 193.00" xmlns="http://www.w3.org/2000/svg" xmlns:xlink="http://www.w3.org/1999/xlink">
<g id="graph0" class="graph" transform="scale(1 1) rotate(0) translate(4 189)">
<title>main.c</title>
<!-- Node1 -->
<g id="Node000001" class="node">
<title>Node1</title>
<g id="a_Node000001"><a xlink:title=" ">
<polygon fill="#999999" stroke="#666666" points="184.5,-185 140,-185 140,-165.75 184.5,-165.75 184.5,-185"/>
<text xml:space="preserve" text-anchor="middle" x="162.25" y="-171.5" font-family="Helvetica,sans-Serif" font-size="10.00">main.c</text>
</a>
</g>
</g>
<!-- Node2 -->
<g id="Node000002" class="node">
<title>Node2</title>
<g id="a_Node000002"><a xlink:href="espresso_8h.html" target="_top" xlink:title="Espresso &#45; lightweight Express&#45;like HTTP framework for C.">
<polygon fill="white" stroke="#666666" points="332.88,-129.75 269.62,-129.75 269.62,-110.5 332.88,-110.5 332.88,-129.75"/>
<text xml:space="preserve" text-anchor="middle" x="301.25" y="-116.25" font-family="Helvetica,sans-Serif" font-size="10.00">espresso.h</text>
</a>
</g>
</g>
<!-- Node1&#45;&gt;Node2 -->
<g id="edge1_Node000001_Node000002" class="edge">
<title>Node1&#45;&gt;Node2</title>
<g id="a_edge1_Node000001_Node000002"><a xlink:title=" ">
<path fill="none" stroke="#63b8ff" d="M184.89,-165.7C207.14,-157.18 241.38,-144.06 266.96,-134.26"/>
<polygon fill="#63b8ff" stroke="#63b8ff" points="268.19,-137.54 276.27,-130.69 265.68,-131 268.19,-137.54"/>
</a>
</g>
</g>
<!-- Node7 -->
<g id="Node000007" class="node">
<title>Node7</title>
<g id="a_Node000007"><a xlink:title=" ">
<polygon fill="#e0e0e0" stroke="#999999" points="44.5,-74.5 0,-74.5 0,-55.25 44.5,-55.25 44.5,-74.5"/>
<text xml:space="preserve" text-anchor="middle" x="22.25" y="-61" font-family="Helvetica,sans-Serif" font-size="10.00">stdio.h</text>
</a>
</g>
</g>
<!-- Node1&#45;&gt;Node7 -->
<g id="edge11_Node000001_Node000007" class="edge">
<title>Node1&#45;&gt;Node7</title>
<g id="a_edge11_Node000001_Node000007"><a xlink:title=" ">
<path fill="none" stroke="#63b8ff" d="M150.79,-165.5C127.1,-147.14 72.46,-104.79 42.61,-81.66"/>
<polygon fill="#63b8ff" stroke="#63b8ff" points="45.11,-79.16 35.06,-75.8 40.82,-84.7 45.11,-79.16"/>
</a>
</g>
</g>
<!-- Node3 -->
<g id="Node000003" class="node">
<title>Node3</title>
<g id="a_Node000003"><a xlink:href="cJSON_8h.html" target="_top" xlink:title=" ">
<polygon fill="white" stroke="#666666" points="193.62,-74.5 62.88,-74.5 62.88,-55.25 193.62,-55.25 193.62,-74.5"/>
<text xml:space="preserve" text-anchor="middle" x="128.25" y="-61" font-family="Helvetica,sans-Serif" font-size="10.00">../vendor/cJSON/cJSON.h</text>
</a>
</g>
</g>
<!-- Node2&#45;&gt;Node3 -->
<g id="edge2_Node000002_Node000003" class="edge">
<title>Node2&#45;&gt;Node3</title>
<g id="a_edge2_Node000002_Node000003"><a xlink:title=" ">
<path fill="none" stroke="#63b8ff" d="M271.9,-110.09C243.45,-101.33 200.05,-87.98 168.4,-78.23"/>
<polygon fill="#63b8ff" stroke="#63b8ff" points="169.77,-74.99 159.19,-75.4 167.72,-81.68 169.77,-74.99"/>
</a>
</g>
</g>
<!-- Node5 -->
<g id="Node000005" class="node">
<title>Node5</title>
<g id="a_Node000005"><a xlink:title=" ">
<polygon fill="#e0e0e0" stroke="#999999" points="258.62,-74.5 211.88,-74.5 211.88,-55.25 258.62,-55.25 258.62,-74.5"/>
<text xml:space="preserve" text-anchor="middle" x="235.25" y="-61" font-family="Helvetica,sans-Serif" font-size="10.00">ctype.h</text>
</a>
</g>
</g>
<!-- Node2&#45;&gt;Node5 -->
<g id="edge4_Node000002_Node000005" class="edge">
<title>Node2&#45;&gt;Node5</title>
<g id="a_edge4_Node000002_Node000005"><a xlink:title=" ">
<path fill="none" stroke="#63b8ff" d="M290.05,-110.09C280.51,-102.4 266.58,-91.15 255.14,-81.93"/>
<polygon fill="#63b8ff" stroke="#63b8ff" points="257.44,-79.28 247.46,-75.73 253.04,-84.73 257.44,-79.28"/>
</a>
</g>
</g>
<!-- Node6 -->
<g id="Node000006" class="node">
<title>Node6</title>
<g id="a_Node000006"><a xlink:title=" ">
<polygon fill="#e0e0e0" stroke="#999999" points="325.75,-74.5 276.75,-74.5 276.75,-55.25 325.75,-55.25 325.75,-74.5"/>
<text xml:space="preserve" text-anchor="middle" x="301.25" y="-61" font-family="Helvetica,sans-Serif" font-size="10.00">signal.h</text>
</a>
</g>
</g>
<!-- Node2&#45;&gt;Node6 -->
<g id="edge5_Node000002_Node000006" class="edge">
<title>Node2&#45;&gt;Node6</title>
<g id="a_edge5_Node000002_Node000006"><a xlink:title=" ">
<path fill="none" stroke="#63b8ff" d="M301.25,-110.33C301.25,-103.82 301.25,-94.67 301.25,-86.37"/>
<polygon fill="#63b8ff" stroke="#63b8ff" points="304.75,-86.37 301.25,-76.37 297.75,-86.37 304.75,-86.37"/>
</a>
</g>
</g>
<!-- Node2&#45;&gt;Node7 -->
<g id="edge6_Node000002_Node000007" class="edge">
<title>Node2&#45;&gt;Node7</title>
<g id="a_edge6_Node000002_Node000007"><a xlink:title=" ">
<path fill="none" stroke="#63b8ff" d="M269.5,-114.27C224.34,-107.17 138.76,-93.03 56.04,-74.73"/>
<polygon fill="#63b8ff" stroke="#63b8ff" points="56.92,-71.34 46.39,-72.57 55.39,-78.17 56.92,-71.34"/>
</a>
</g>
</g>
<!-- Node8 -->
<g id="Node000008" class="node">
<title>Node8</title>
<g id="a_Node000008"><a xlink:title=" ">
<polygon fill="#e0e0e0" stroke="#999999" points="390.62,-74.5 343.88,-74.5 343.88,-55.25 390.62,-55.25 390.62,-74.5"/>
<text xml:space="preserve" text-anchor="middle" x="367.25" y="-61" font-family="Helvetica,sans-Serif" font-size="10.00">stdlib.h</text>
</a>
</g>
</g>
<!-- Node2&#45;&gt;Node8 -->
<g id="edge7_Node000002_Node000008" class="edge">
<title>Node2&#45;&gt;Node8</title>
<g id="a_edge7_Node000002_Node000008"><a xlink:title=" ">
<path fill="none" stroke="#63b8ff" d="M312.45,-110.09C321.99,-102.4 335.92,-91.15 347.36,-81.93"/>
<polygon fill="#63b8ff" stroke="#63b8ff" points="349.46,-84.73 355.04,-75.73 345.06,-79.28 349.46,-84.73"/>
</a>
</g>
</g>
<!-- Node9 -->
<g id="Node000009" class="node">
<title>Node9</title>
<g id="a_Node000009"><a xlink:title=" ">
<polygon fill="#e0e0e0" stroke="#999999" points="456,-74.5 408.5,-74.5 408.5,-55.25 456,-55.25 456,-74.5"/>
<text xml:space="preserve" text-anchor="middle" x="432.25" y="-61" font-family="Helvetica,sans-Serif" font-size="10.00">string.h</text>
</a>
</g>
</g>
<!-- Node2&#45;&gt;Node9 -->
<g id="edge8_Node000002_Node000009" class="edge">
<title>Node2&#45;&gt;Node9</title>
<g id="a_edge8_Node000002_Node000009"><a xlink:title=" ">
<path fill="none" stroke="#63b8ff" d="M323.47,-110.09C344.27,-101.64 375.6,-88.9 399.3,-79.27"/>
<polygon fill="#63b8ff" stroke="#63b8ff" points="400.57,-82.53 408.52,-75.52 397.93,-76.05 400.57,-82.53"/>
</a>
</g>
</g>
<!-- Node10 -->
<g id="Node000010" class="node">
<title>Node10</title>
<g id="a_Node000010"><a xlink:title=" ">
<polygon fill="#e0e0e0" stroke="#999999" points="524.12,-74.5 474.38,-74.5 474.38,-55.25 524.12,-55.25 524.12,-74.5"/>
<text xml:space="preserve" text-anchor="middle" x="499.25" y="-61" font-family="Helvetica,sans-Serif" font-size="10.00">unistd.h</text>
</a>
</g>
</g>
<!-- Node2&#45;&gt;Node10 -->
<g id="edge9_Node000002_Node000010" class="edge">
<title>Node2&#45;&gt;Node10</title>
<g id="a_edge9_Node000002_Node000010"><a xlink:title=" ">
<path fill="none" stroke="#63b8ff" d="M333.06,-110.57C368.63,-101 426.1,-85.55 463.27,-75.55"/>
<polygon fill="#63b8ff" stroke="#63b8ff" points="463.9,-79.01 472.65,-73.03 462.08,-72.25 463.9,-79.01"/>
</a>
</g>
</g>
<!-- Node11 -->
<g id="Node000011" class="node">
<title>Node11</title>
<g id="a_Node000011"><a xlink:title=" ">
<polygon fill="#e0e0e0" stroke="#999999" points="576.25,-74.5 542.25,-74.5 542.25,-55.25 576.25,-55.25 576.25,-74.5"/>
<text xml:space="preserve" text-anchor="middle" x="559.25" y="-61" font-family="Helvetica,sans-Serif" font-size="10.00">uv.h</text>
</a>
</g>
</g>
<!-- Node2&#45;&gt;Node11 -->
<g id="edge10_Node000002_Node000011" class="edge">
<title>Node2&#45;&gt;Node11</title>
<g id="a_edge10_Node000002_Node000011"><a xlink:title=" ">
<path fill="none" stroke="#63b8ff" d="M333.06,-114.35C376.02,-107.62 455.09,-94.2 531.27,-74.73"/>
<polygon fill="#63b8ff" stroke="#63b8ff" points="531.74,-78.23 540.54,-72.33 529.98,-71.45 531.74,-78.23"/>
</a>
</g>
</g>
<!-- Node4 -->
<g id="Node000004" class="node">
<title>Node4</title>
<g id="a_Node000004"><a xlink:title=" ">
<polygon fill="#e0e0e0" stroke="#999999" points="153.5,-19.25 103,-19.25 103,0 153.5,0 153.5,-19.25"/>
<text xml:space="preserve" text-anchor="middle" x="128.25" y="-5.75" font-family="Helvetica,sans-Serif" font-size="10.00">stddef.h</text>
</a>
</g>
</g>
<!-- Node3&#45;&gt;Node4 -->
<g id="edge3_Node000003_Node000004" class="edge">
<title>Node3&#45;&gt;Node4</title>
<g id="a_edge3_Node000003_Node000004"><a xlink:title=" ">
<path fill="none" stroke="#63b8ff" d="M128.25,-55.08C128.25,-48.57 128.25,-39.42 128.25,-31.12"/>
<polygon fill="#63b8ff" stroke="#63b8ff" points="131.75,-31.12 128.25,-21.12 124.75,-31.12 131.75,-31.12"/>
</a>
</g>
</g>
</g>
</svg>
