<?xml version="1.0" encoding="UTF-8" standalone="no"?>
<!DOCTYPE svg PUBLIC "-//W3C//DTD SVG 1.1//EN"
 "http://www.w3.org/Graphics/SVG/1.1/DTD/svg11.dtd">
<!-- Generated by graphviz version 14.0.5 (0)
 -->
<!-- Title: main.c Pages: 1 -->
<svg width="757pt" height="193pt"
 viewBox="0.00 0.00 757.00 193.00" xmlns="http://www.w3.org/2000/svg" xmlns:xlink="http://www.w3.org/1999/xlink">
<g id="graph0" class="graph" transform="scale(1 1) rotate(0) translate(4 189)">
<title>main.c</title>
<!-- Node1 -->
<g id="Node000001" class="node">
<title>Node1</title>
<g id="a_Node000001"><a xlink:title=" ">
<polygon fill="#999999" stroke="#666666" points="212.5,-185 168,-185 168,-165.75 212.5,-165.75 212.5,-185"/>
<text xml:space="preserve" text-anchor="middle" x="190.25" y="-171.5" font-family="Helvetica,sans-Serif" font-size="10.00">main.c</text>
</a>
</g>
</g>
<!-- Node2 -->
<g id="Node000002" class="node">
<title>Node2</title>
<g id="a_Node000002"><a xlink:href="espresso_8h.html" target="_top" xlink:title="Espresso &#45; lightweight Express&#45;like HTTP framework for C.">
<polygon fill="white" stroke="#666666" points="388.88,-129.75 325.62,-129.75 325.62,-110.5 388.88,-110.5 388.88,-129.75"/>
<text xml:space="preserve" text-anchor="middle" x="357.25" y="-116.25" font-family="Helvetica,sans-Serif" font-size="10.00">espresso.h</text>
</a>
</g>
</g>
<!-- Node1&#45;&gt;Node2 -->
<g id="edge1_Node000001_Node000002" class="edge">
<title>Node1&#45;&gt;Node2</title>
<g id="a_edge1_Node000001_Node000002"><a xlink:title=" ">
<path fill="none" stroke="#63b8ff" d="M212.77,-167.19C239.73,-158.6 285.33,-144.06 318.09,-133.61"/>
<polygon fill="#63b8ff" stroke="#63b8ff" points="318.76,-137.07 327.23,-130.7 316.64,-130.4 318.76,-137.07"/>
</a>
</g>
</g>
<!-- Node6 -->
<g id="Node000006" class="node">
<title>Node6</title>
<g id="a_Node000006"><a xlink:title=" ">
<polygon fill="#e0e0e0" stroke="#999999" points="44.5,-74.5 0,-74.5 0,-55.25 44.5,-55.25 44.5,-74.5"/>
<text xml:space="preserve" text-anchor="middle" x="22.25" y="-61" font-family="Helvetica,sans-Serif" font-size="10.00">stdio.h</text>
</a>
</g>
</g>
<!-- Node1&#45;&gt;Node6 -->
<g id="edge13_Node000001_Node000006" class="edge">
<title>Node1&#45;&gt;Node6</title>
<g id="a_edge13_Node000001_Node000006"><a xlink:title=" ">
<path fill="none" stroke="#63b8ff" d="M176.22,-165.31C147.36,-146.68 81.12,-103.9 45.66,-81"/>
<polygon fill="#63b8ff" stroke="#63b8ff" points="47.7,-78.14 37.4,-75.66 43.9,-84.02 47.7,-78.14"/>
</a>
</g>
</g>
<!-- Node3 -->
<g id="Node000003" class="node">
<title>Node3</title>
<g id="a_Node000003"><a xlink:href="cJSON_8h.html" target="_top" xlink:title=" ">
<polygon fill="white" stroke="#666666" points="185.88,-74.5 62.62,-74.5 62.62,-55.25 185.88,-55.25 185.88,-74.5"/>
<text xml:space="preserve" text-anchor="middle" x="124.25" y="-61" font-family="Helvetica,sans-Serif" font-size="10.00">vendor/cJSON/cJSON.h</text>
</a>
</g>
</g>
<!-- Node2&#45;&gt;Node3 -->
<g id="edge2_Node000002_Node000003" class="edge">
<title>Node2&#45;&gt;Node3</title>
<g id="a_edge2_Node000002_Node000003"><a xlink:title=" ">
<path fill="none" stroke="#63b8ff" d="M325.34,-111.83C286.62,-102.98 220.85,-87.95 175.12,-77.5"/>
<polygon fill="#63b8ff" stroke="#63b8ff" points="175.95,-74.1 165.42,-75.28 174.39,-80.92 175.95,-74.1"/>
</a>
</g>
</g>
<!-- Node5 -->
<g id="Node000005" class="node">
<title>Node5</title>
<g id="a_Node000005"><a xlink:title=" ">
<polygon fill="#e0e0e0" stroke="#999999" points="250.62,-74.5 203.88,-74.5 203.88,-55.25 250.62,-55.25 250.62,-74.5"/>
<text xml:space="preserve" text-anchor="middle" x="227.25" y="-61" font-family="Helvetica,sans-Serif" font-size="10.00">ctype.h</text>
</a>
</g>
</g>
<!-- Node2&#45;&gt;Node5 -->
<g id="edge4_Node000002_Node000005" class="edge">
<title>Node2&#45;&gt;Node5</title>
<g id="a_edge4_Node000002_Node000005"><a xlink:title=" ">
<path fill="none" stroke="#63b8ff" d="M335.2,-110.09C314.56,-101.64 283.47,-88.9 259.95,-79.27"/>
<polygon fill="#63b8ff" stroke="#63b8ff" points="261.39,-76.08 250.81,-75.53 258.74,-82.56 261.39,-76.08"/>
</a>
</g>
</g>
<!-- Node2&#45;&gt;Node6 -->
<g id="edge5_Node000002_Node000006" class="edge">
<title>Node2&#45;&gt;Node6</title>
<g id="a_edge5_Node000002_Node000006"><a xlink:title=" ">
<path fill="none" stroke="#63b8ff" d="M325.51,-115.8C271.85,-109.88 159.64,-96.29 55.84,-74.83"/>
<polygon fill="#63b8ff" stroke="#63b8ff" points="56.84,-71.46 46.34,-72.83 55.4,-78.31 56.84,-71.46"/>
</a>
</g>
</g>
<!-- Node7 -->
<g id="Node000007" class="node">
<title>Node7</title>
<g id="a_Node000007"><a xlink:title=" ">
<polygon fill="#e0e0e0" stroke="#999999" points="315.62,-74.5 268.88,-74.5 268.88,-55.25 315.62,-55.25 315.62,-74.5"/>
<text xml:space="preserve" text-anchor="middle" x="292.25" y="-61" font-family="Helvetica,sans-Serif" font-size="10.00">stdlib.h</text>
</a>
</g>
</g>
<!-- Node2&#45;&gt;Node7 -->
<g id="edge6_Node000002_Node000007" class="edge">
<title>Node2&#45;&gt;Node7</title>
<g id="a_edge6_Node000002_Node000007"><a xlink:title=" ">
<path fill="none" stroke="#63b8ff" d="M346.22,-110.09C336.83,-102.4 323.1,-91.15 311.84,-81.93"/>
<polygon fill="#63b8ff" stroke="#63b8ff" points="314.24,-79.36 304.28,-75.73 309.8,-84.78 314.24,-79.36"/>
</a>
</g>
</g>
<!-- Node8 -->
<g id="Node000008" class="node">
<title>Node8</title>
<g id="a_Node000008"><a xlink:title=" ">
<polygon fill="#e0e0e0" stroke="#999999" points="381,-74.5 333.5,-74.5 333.5,-55.25 381,-55.25 381,-74.5"/>
<text xml:space="preserve" text-anchor="middle" x="357.25" y="-61" font-family="Helvetica,sans-Serif" font-size="10.00">string.h</text>
</a>
</g>
</g>
<!-- Node2&#45;&gt;Node8 -->
<g id="edge7_Node000002_Node000008" class="edge">
<title>Node2&#45;&gt;Node8</title>
<g id="a_edge7_Node000002_Node000008"><a xlink:title=" ">
<path fill="none" stroke="#63b8ff" d="M357.25,-110.33C357.25,-103.82 357.25,-94.67 357.25,-86.37"/>
<polygon fill="#63b8ff" stroke="#63b8ff" points="360.75,-86.37 357.25,-76.37 353.75,-86.37 360.75,-86.37"/>
</a>
</g>
</g>
<!-- Node9 -->
<g id="Node000009" class="node">
<title>Node9</title>
<g id="a_Node000009"><a xlink:title=" ">
<polygon fill="#e0e0e0" stroke="#999999" points="459.75,-74.5 398.75,-74.5 398.75,-55.25 459.75,-55.25 459.75,-74.5"/>
<text xml:space="preserve" text-anchor="middle" x="429.25" y="-61" font-family="Helvetica,sans-Serif" font-size="10.00">arpa/inet.h</text>
</a>
</g>
</g>
<!-- Node2&#45;&gt;Node9 -->
<g id="edge8_Node000002_Node000009" class="edge">
<title>Node2&#45;&gt;Node9</title>
<g id="a_edge8_Node000002_Node000009"><a xlink:title=" ">
<path fill="none" stroke="#63b8ff" d="M369.46,-110.09C380.08,-102.24 395.69,-90.7 408.29,-81.37"/>
<polygon fill="#63b8ff" stroke="#63b8ff" points="410.04,-84.44 416,-75.67 405.88,-78.81 410.04,-84.44"/>
</a>
</g>
</g>
<!-- Node10 -->
<g id="Node000010" class="node">
<title>Node10</title>
<g id="a_Node000010"><a xlink:title=" ">
<polygon fill="#e0e0e0" stroke="#999999" points="540.88,-74.5 477.62,-74.5 477.62,-55.25 540.88,-55.25 540.88,-74.5"/>
<text xml:space="preserve" text-anchor="middle" x="509.25" y="-61" font-family="Helvetica,sans-Serif" font-size="10.00">netinet/in.h</text>
</a>
</g>
</g>
<!-- Node2&#45;&gt;Node10 -->
<g id="edge9_Node000002_Node000010" class="edge">
<title>Node2&#45;&gt;Node10</title>
<g id="a_edge9_Node000002_Node000010"><a xlink:title=" ">
<path fill="none" stroke="#63b8ff" d="M383.03,-110.09C407.6,-101.49 444.84,-88.44 472.51,-78.75"/>
<polygon fill="#63b8ff" stroke="#63b8ff" points="473.63,-82.06 481.91,-75.45 471.32,-75.46 473.63,-82.06"/>
</a>
</g>
</g>
<!-- Node11 -->
<g id="Node000011" class="node">
<title>Node11</title>
<g id="a_Node000011"><a xlink:title=" ">
<polygon fill="#e0e0e0" stroke="#999999" points="615.12,-74.5 559.38,-74.5 559.38,-55.25 615.12,-55.25 615.12,-74.5"/>
<text xml:space="preserve" text-anchor="middle" x="587.25" y="-61" font-family="Helvetica,sans-Serif" font-size="10.00">pthread.h</text>
</a>
</g>
</g>
<!-- Node2&#45;&gt;Node11 -->
<g id="edge10_Node000002_Node000011" class="edge">
<title>Node2&#45;&gt;Node11</title>
<g id="a_edge10_Node000002_Node000011"><a xlink:title=" ">
<path fill="none" stroke="#63b8ff" d="M389.35,-111.72C425.49,-103.38 486.25,-89.35 547.87,-75.05"/>
<polygon fill="#63b8ff" stroke="#63b8ff" points="548.55,-78.49 557.5,-72.82 546.96,-71.67 548.55,-78.49"/>
</a>
</g>
</g>
<!-- Node12 -->
<g id="Node000012" class="node">
<title>Node12</title>
<g id="a_Node000012"><a xlink:title=" ">
<polygon fill="#e0e0e0" stroke="#999999" points="681.75,-74.5 632.75,-74.5 632.75,-55.25 681.75,-55.25 681.75,-74.5"/>
<text xml:space="preserve" text-anchor="middle" x="657.25" y="-61" font-family="Helvetica,sans-Serif" font-size="10.00">signal.h</text>
</a>
</g>
</g>
<!-- Node2&#45;&gt;Node12 -->
<g id="edge11_Node000002_Node000012" class="edge">
<title>Node2&#45;&gt;Node12</title>
<g id="a_edge11_Node000002_Node000012"><a xlink:title=" ">
<path fill="none" stroke="#63b8ff" d="M389.07,-114.75C437.29,-107.93 531.94,-93.73 621.29,-74.98"/>
<polygon fill="#63b8ff" stroke="#63b8ff" points="621.91,-78.43 630.96,-72.93 620.45,-71.58 621.91,-78.43"/>
</a>
</g>
</g>
<!-- Node13 -->
<g id="Node000013" class="node">
<title>Node13</title>
<g id="a_Node000013"><a xlink:title=" ">
<polygon fill="#e0e0e0" stroke="#999999" points="749.12,-74.5 699.38,-74.5 699.38,-55.25 749.12,-55.25 749.12,-74.5"/>
<text xml:space="preserve" text-anchor="middle" x="724.25" y="-61" font-family="Helvetica,sans-Serif" font-size="10.00">unistd.h</text>
</a>
</g>
</g>
<!-- Node2&#45;&gt;Node13 -->
<g id="edge12_Node000002_Node000013" class="edge">
<title>Node2&#45;&gt;Node13</title>
<g id="a_edge12_Node000002_Node000013"><a xlink:title=" ">
<path fill="none" stroke="#63b8ff" d="M389.24,-116.17C447.09,-110.55 573.12,-97.01 688.02,-74.95"/>
<polygon fill="#63b8ff" stroke="#63b8ff" points="688.47,-78.43 697.61,-73.08 687.13,-71.56 688.47,-78.43"/>
</a>
</g>
</g>
<!-- Node4 -->
<g id="Node000004" class="node">
<title>Node4</title>
<g id="a_Node000004"><a xlink:title=" ">
<polygon fill="#e0e0e0" stroke="#999999" points="149.5,-19.25 99,-19.25 99,0 149.5,0 149.5,-19.25"/>
<text xml:space="preserve" text-anchor="middle" x="124.25" y="-5.75" font-family="Helvetica,sans-Serif" font-size="10.00">stddef.h</text>
</a>
</g>
</g>
<!-- Node3&#45;&gt;Node4 -->
<g id="edge3_Node000003_Node000004" class="edge">
<title>Node3&#45;&gt;Node4</title>
<g id="a_edge3_Node000003_Node000004"><a xlink:title=" ">
<path fill="none" stroke="#63b8ff" d="M124.25,-55.08C124.25,-48.57 124.25,-39.42 124.25,-31.12"/>
<polygon fill="#63b8ff" stroke="#63b8ff" points="127.75,-31.12 124.25,-21.12 120.75,-31.12 127.75,-31.12"/>
</a>
</g>
</g>
</g>
</svg>
