<?xml version="1.0" encoding="UTF-8" standalone="no"?>
<!DOCTYPE svg PUBLIC "-//W3C//DTD SVG 1.1//EN"
 "http://www.w3.org/Graphics/SVG/1.1/DTD/svg11.dtd">
<!-- Generated by graphviz version 14.0.5 (0)
 -->
<!-- Title: index_handler Pages: 1 -->
<svg width="379pt" height="27pt"
 viewBox="0.00 0.00 379.00 27.00" xmlns="http://www.w3.org/2000/svg" xmlns:xlink="http://www.w3.org/1999/xlink">
<g id="graph0" class="graph" transform="scale(1 1) rotate(0) translate(4 23.25)">
<title>index_handler</title>
<!-- Node1 -->
<g id="Node000001" class="node">
<title>Node1</title>
<g id="a_Node000001"><a xlink:title=" ">
<polygon fill="#999999" stroke="#666666" points="75.25,-19.25 0,-19.25 0,0 75.25,0 75.25,-19.25"/>
<text xml:space="preserve" text-anchor="middle" x="37.62" y="-5.75" font-family="Helvetica,sans-Serif" font-size="10.00">index_handler</text>
</a>
</g>
</g>
<!-- Node2 -->
<g id="Node000002" class="node">
<title>Node2</title>
<g id="a_Node000002"><a xlink:href="espresso_8c.html#a74fa803b07b95b5f1446ae4bb85f4f0b" target="_top" xlink:title="Sends text response.">
<polygon fill="white" stroke="#666666" points="214.25,-19.25 111.25,-19.25 111.25,0 214.25,0 214.25,-19.25"/>
<text xml:space="preserve" text-anchor="middle" x="162.75" y="-5.75" font-family="Helvetica,sans-Serif" font-size="10.00">send_text_response</text>
</a>
</g>
</g>
<!-- Node1&#45;&gt;Node2 -->
<g id="edge1_Node000001_Node000002" class="edge">
<title>Node1&#45;&gt;Node2</title>
<g id="a_edge1_Node000001_Node000002"><a xlink:title=" ">
<path fill="none" stroke="#63b8ff" d="M75.57,-9.62C83.26,-9.62 91.57,-9.62 99.89,-9.62"/>
<polygon fill="#63b8ff" stroke="#63b8ff" points="99.66,-13.13 109.66,-9.63 99.66,-6.13 99.66,-13.13"/>
</a>
</g>
</g>
<!-- Node3 -->
<g id="Node000003" class="node">
<title>Node3</title>
<g id="a_Node000003"><a xlink:href="espresso_8c.html#a61c64a500ef217b0825333b9f35234e3" target="_top" xlink:title=" ">
<polygon fill="white" stroke="#666666" points="371.25,-19.25 250.25,-19.25 250.25,0 371.25,0 371.25,-19.25"/>
<text xml:space="preserve" text-anchor="middle" x="310.75" y="-5.75" font-family="Helvetica,sans-Serif" font-size="10.00">build_response_headers</text>
</a>
</g>
</g>
<!-- Node2&#45;&gt;Node3 -->
<g id="edge2_Node000002_Node000003" class="edge">
<title>Node2&#45;&gt;Node3</title>
<g id="a_edge2_Node000002_Node000003"><a xlink:title=" ">
<path fill="none" stroke="#63b8ff" d="M214.4,-9.62C222.19,-9.62 230.34,-9.62 238.47,-9.62"/>
<polygon fill="#63b8ff" stroke="#63b8ff" points="238.38,-13.13 248.38,-9.63 238.38,-6.13 238.38,-13.13"/>
</a>
</g>
</g>
</g>
</svg>
