<?xml version="1.0" encoding="UTF-8" standalone="no"?>
<!DOCTYPE svg PUBLIC "-//W3C//DTD SVG 1.1//EN"
 "http://www.w3.org/Graphics/SVG/1.1/DTD/svg11.dtd">
<!-- Generated by graphviz version 14.0.5 (0)
 -->
<!-- Title: main.c Pages: 1 -->
<svg width="818pt" height="193pt"
 viewBox="0.00 0.00 818.00 193.00" xmlns="http://www.w3.org/2000/svg" xmlns:xlink="http://www.w3.org/1999/xlink">
<g id="graph0" class="graph" transform="scale(1 1) rotate(0) translate(4 189)">
<title>main.c</title>
<!-- Node1 -->
<g id="Node000001" class="node">
<title>Node1</title>
<g id="a_Node000001"><a xlink:title=" ">
<polygon fill="#999999" stroke="#666666" points="557.62,-185 513.12,-185 513.12,-165.75 557.62,-165.75 557.62,-185"/>
<text xml:space="preserve" text-anchor="middle" x="535.38" y="-171.5" font-family="Helvetica,sans-Serif" font-size="10.00">main.c</text>
</a>
</g>
</g>
<!-- Node2 -->
<g id="Node000002" class="node">
<title>Node2</title>
<g id="a_Node000002"><a xlink:href="espresso_8h.html" target="_top" xlink:title="Espresso &#45; lightweight Express&#45;like HTTP framework for C.">
<polygon fill="white" stroke="#666666" points="537,-129.75 473.75,-129.75 473.75,-110.5 537,-110.5 537,-129.75"/>
<text xml:space="preserve" text-anchor="middle" x="505.38" y="-116.25" font-family="Helvetica,sans-Serif" font-size="10.00">espresso.h</text>
</a>
</g>
</g>
<!-- Node1&#45;&gt;Node2 -->
<g id="edge1_Node000001_Node000002" class="edge">
<title>Node1&#45;&gt;Node2</title>
<g id="a_edge1_Node000001_Node000002"><a xlink:title=" ">
<path fill="none" stroke="#63b8ff" d="M530.42,-165.58C526.49,-158.61 520.86,-148.62 515.94,-139.87"/>
<polygon fill="#63b8ff" stroke="#63b8ff" points="519.14,-138.42 511.18,-131.43 513.04,-141.86 519.14,-138.42"/>
</a>
</g>
</g>
<!-- Node10 -->
<g id="Node000010" class="node">
<title>Node10</title>
<g id="a_Node000010"><a xlink:title=" ">
<polygon fill="#e0e0e0" stroke="#999999" points="809.62,-74.5 765.12,-74.5 765.12,-55.25 809.62,-55.25 809.62,-74.5"/>
<text xml:space="preserve" text-anchor="middle" x="787.38" y="-61" font-family="Helvetica,sans-Serif" font-size="10.00">stdio.h</text>
</a>
</g>
</g>
<!-- Node1&#45;&gt;Node10 -->
<g id="edge14_Node000001_Node000010" class="edge">
<title>Node1&#45;&gt;Node10</title>
<g id="a_edge14_Node000001_Node000010"><a xlink:title=" ">
<path fill="none" stroke="#63b8ff" d="M556.43,-165.31C600.71,-146.24 703.71,-101.9 755.88,-79.43"/>
<polygon fill="#63b8ff" stroke="#63b8ff" points="757.01,-82.76 764.82,-75.59 754.25,-76.33 757.01,-82.76"/>
</a>
</g>
</g>
<!-- Node3 -->
<g id="Node000003" class="node">
<title>Node3</title>
<g id="a_Node000003"><a xlink:href="cJSON_8h.html" target="_top" xlink:title=" ">
<polygon fill="white" stroke="#666666" points="130.75,-74.5 0,-74.5 0,-55.25 130.75,-55.25 130.75,-74.5"/>
<text xml:space="preserve" text-anchor="middle" x="65.38" y="-61" font-family="Helvetica,sans-Serif" font-size="10.00">../vendor/cJSON/cJSON.h</text>
</a>
</g>
</g>
<!-- Node2&#45;&gt;Node3 -->
<g id="edge2_Node000002_Node000003" class="edge">
<title>Node2&#45;&gt;Node3</title>
<g id="a_edge2_Node000002_Node000003"><a xlink:title=" ">
<path fill="none" stroke="#63b8ff" d="M473.38,-115.25C404.42,-106.91 240.15,-87.03 142.37,-75.19"/>
<polygon fill="#63b8ff" stroke="#63b8ff" points="142.93,-71.74 132.59,-74.01 142.09,-78.69 142.93,-71.74"/>
</a>
</g>
</g>
<!-- Node5 -->
<g id="Node000005" class="node">
<title>Node5</title>
<g id="a_Node000005"><a xlink:title=" ">
<polygon fill="#e0e0e0" stroke="#999999" points="209.88,-74.5 148.88,-74.5 148.88,-55.25 209.88,-55.25 209.88,-74.5"/>
<text xml:space="preserve" text-anchor="middle" x="179.38" y="-61" font-family="Helvetica,sans-Serif" font-size="10.00">arpa/inet.h</text>
</a>
</g>
</g>
<!-- Node2&#45;&gt;Node5 -->
<g id="edge4_Node000002_Node000005" class="edge">
<title>Node2&#45;&gt;Node5</title>
<g id="a_edge4_Node000002_Node000005"><a xlink:title=" ">
<path fill="none" stroke="#63b8ff" d="M473.53,-114.77C422.57,-107.66 319.31,-92.73 221.62,-74.82"/>
<polygon fill="#63b8ff" stroke="#63b8ff" points="222.31,-71.39 211.84,-73.01 221.03,-78.27 222.31,-71.39"/>
</a>
</g>
</g>
<!-- Node6 -->
<g id="Node000006" class="node">
<title>Node6</title>
<g id="a_Node000006"><a xlink:title=" ">
<polygon fill="#e0e0e0" stroke="#999999" points="274.75,-74.5 228,-74.5 228,-55.25 274.75,-55.25 274.75,-74.5"/>
<text xml:space="preserve" text-anchor="middle" x="251.38" y="-61" font-family="Helvetica,sans-Serif" font-size="10.00">ctype.h</text>
</a>
</g>
</g>
<!-- Node2&#45;&gt;Node6 -->
<g id="edge5_Node000002_Node000006" class="edge">
<title>Node2&#45;&gt;Node6</title>
<g id="a_edge5_Node000002_Node000006"><a xlink:title=" ">
<path fill="none" stroke="#63b8ff" d="M473.62,-113.41C432.51,-105.87 358.42,-91.79 286.2,-75.05"/>
<polygon fill="#63b8ff" stroke="#63b8ff" points="287.11,-71.67 276.57,-72.8 285.51,-78.48 287.11,-71.67"/>
</a>
</g>
</g>
<!-- Node7 -->
<g id="Node000007" class="node">
<title>Node7</title>
<g id="a_Node000007"><a xlink:title=" ">
<polygon fill="#e0e0e0" stroke="#999999" points="356,-74.5 292.75,-74.5 292.75,-55.25 356,-55.25 356,-74.5"/>
<text xml:space="preserve" text-anchor="middle" x="324.38" y="-61" font-family="Helvetica,sans-Serif" font-size="10.00">netinet/in.h</text>
</a>
</g>
</g>
<!-- Node2&#45;&gt;Node7 -->
<g id="edge6_Node000002_Node000007" class="edge">
<title>Node2&#45;&gt;Node7</title>
<g id="a_edge6_Node000002_Node000007"><a xlink:title=" ">
<path fill="none" stroke="#63b8ff" d="M474.67,-110.09C444.77,-101.29 399.1,-87.86 365.95,-78.11"/>
<polygon fill="#63b8ff" stroke="#63b8ff" points="367.26,-74.84 356.68,-75.38 365.29,-81.56 367.26,-74.84"/>
</a>
</g>
</g>
<!-- Node8 -->
<g id="Node000008" class="node">
<title>Node8</title>
<g id="a_Node000008"><a xlink:title=" ">
<polygon fill="#e0e0e0" stroke="#999999" points="430.25,-74.5 374.5,-74.5 374.5,-55.25 430.25,-55.25 430.25,-74.5"/>
<text xml:space="preserve" text-anchor="middle" x="402.38" y="-61" font-family="Helvetica,sans-Serif" font-size="10.00">pthread.h</text>
</a>
</g>
</g>
<!-- Node2&#45;&gt;Node8 -->
<g id="edge7_Node000002_Node000008" class="edge">
<title>Node2&#45;&gt;Node8</title>
<g id="a_edge7_Node000002_Node000008"><a xlink:title=" ">
<path fill="none" stroke="#63b8ff" d="M487.9,-110.09C472.07,-101.91 448.47,-89.71 430.07,-80.19"/>
<polygon fill="#63b8ff" stroke="#63b8ff" points="431.77,-77.13 421.28,-75.65 428.55,-83.35 431.77,-77.13"/>
</a>
</g>
</g>
<!-- Node9 -->
<g id="Node000009" class="node">
<title>Node9</title>
<g id="a_Node000009"><a xlink:title=" ">
<polygon fill="#e0e0e0" stroke="#999999" points="496.88,-74.5 447.88,-74.5 447.88,-55.25 496.88,-55.25 496.88,-74.5"/>
<text xml:space="preserve" text-anchor="middle" x="472.38" y="-61" font-family="Helvetica,sans-Serif" font-size="10.00">signal.h</text>
</a>
</g>
</g>
<!-- Node2&#45;&gt;Node9 -->
<g id="edge8_Node000002_Node000009" class="edge">
<title>Node2&#45;&gt;Node9</title>
<g id="a_edge8_Node000002_Node000009"><a xlink:title=" ">
<path fill="none" stroke="#63b8ff" d="M499.93,-110.33C495.6,-103.36 489.41,-93.37 483.99,-84.62"/>
<polygon fill="#63b8ff" stroke="#63b8ff" points="486.98,-82.8 478.74,-76.15 481.03,-86.49 486.98,-82.8"/>
</a>
</g>
</g>
<!-- Node2&#45;&gt;Node10 -->
<g id="edge9_Node000002_Node000010" class="edge">
<title>Node2&#45;&gt;Node10</title>
<g id="a_edge9_Node000002_Node000010"><a xlink:title=" ">
<path fill="none" stroke="#63b8ff" d="M537.27,-114.45C583.07,-107.53 670.34,-93.54 753.57,-74.97"/>
<polygon fill="#63b8ff" stroke="#63b8ff" points="754.29,-78.39 763.28,-72.77 752.75,-71.56 754.29,-78.39"/>
</a>
</g>
</g>
<!-- Node11 -->
<g id="Node000011" class="node">
<title>Node11</title>
<g id="a_Node000011"><a xlink:title=" ">
<polygon fill="#e0e0e0" stroke="#999999" points="561.75,-74.5 515,-74.5 515,-55.25 561.75,-55.25 561.75,-74.5"/>
<text xml:space="preserve" text-anchor="middle" x="538.38" y="-61" font-family="Helvetica,sans-Serif" font-size="10.00">stdlib.h</text>
</a>
</g>
</g>
<!-- Node2&#45;&gt;Node11 -->
<g id="edge10_Node000002_Node000011" class="edge">
<title>Node2&#45;&gt;Node11</title>
<g id="a_edge10_Node000002_Node000011"><a xlink:title=" ">
<path fill="none" stroke="#63b8ff" d="M510.82,-110.33C515.15,-103.36 521.34,-93.37 526.76,-84.62"/>
<polygon fill="#63b8ff" stroke="#63b8ff" points="529.72,-86.49 532.01,-76.15 523.77,-82.8 529.72,-86.49"/>
</a>
</g>
</g>
<!-- Node12 -->
<g id="Node000012" class="node">
<title>Node12</title>
<g id="a_Node000012"><a xlink:title=" ">
<polygon fill="#e0e0e0" stroke="#999999" points="627.12,-74.5 579.62,-74.5 579.62,-55.25 627.12,-55.25 627.12,-74.5"/>
<text xml:space="preserve" text-anchor="middle" x="603.38" y="-61" font-family="Helvetica,sans-Serif" font-size="10.00">string.h</text>
</a>
</g>
</g>
<!-- Node2&#45;&gt;Node12 -->
<g id="edge11_Node000002_Node000012" class="edge">
<title>Node2&#45;&gt;Node12</title>
<g id="a_edge11_Node000002_Node000012"><a xlink:title=" ">
<path fill="none" stroke="#63b8ff" d="M522,-110.09C537.06,-101.91 559.52,-89.71 577.03,-80.19"/>
<polygon fill="#63b8ff" stroke="#63b8ff" points="578.22,-83.52 585.34,-75.68 574.88,-77.37 578.22,-83.52"/>
</a>
</g>
</g>
<!-- Node13 -->
<g id="Node000013" class="node">
<title>Node13</title>
<g id="a_Node000013"><a xlink:title=" ">
<polygon fill="#e0e0e0" stroke="#999999" points="695.25,-74.5 645.5,-74.5 645.5,-55.25 695.25,-55.25 695.25,-74.5"/>
<text xml:space="preserve" text-anchor="middle" x="670.38" y="-61" font-family="Helvetica,sans-Serif" font-size="10.00">unistd.h</text>
</a>
</g>
</g>
<!-- Node2&#45;&gt;Node13 -->
<g id="edge12_Node000002_Node000013" class="edge">
<title>Node2&#45;&gt;Node13</title>
<g id="a_edge12_Node000002_Node000013"><a xlink:title=" ">
<path fill="none" stroke="#63b8ff" d="M533.37,-110.09C561.29,-101.08 604.29,-87.2 634.66,-77.4"/>
<polygon fill="#63b8ff" stroke="#63b8ff" points="635.34,-80.86 643.79,-74.46 633.19,-74.2 635.34,-80.86"/>
</a>
</g>
</g>
<!-- Node14 -->
<g id="Node000014" class="node">
<title>Node14</title>
<g id="a_Node000014"><a xlink:title=" ">
<polygon fill="#e0e0e0" stroke="#999999" points="747.38,-74.5 713.38,-74.5 713.38,-55.25 747.38,-55.25 747.38,-74.5"/>
<text xml:space="preserve" text-anchor="middle" x="730.38" y="-61" font-family="Helvetica,sans-Serif" font-size="10.00">uv.h</text>
</a>
</g>
</g>
<!-- Node2&#45;&gt;Node14 -->
<g id="edge13_Node000002_Node000014" class="edge">
<title>Node2&#45;&gt;Node14</title>
<g id="a_edge13_Node000002_Node000014"><a xlink:title=" ">
<path fill="none" stroke="#63b8ff" d="M537.33,-112.98C574.68,-105.58 638.55,-92.24 702.09,-74.92"/>
<polygon fill="#63b8ff" stroke="#63b8ff" points="702.94,-78.31 711.65,-72.27 701.08,-71.56 702.94,-78.31"/>
</a>
</g>
</g>
<!-- Node4 -->
<g id="Node000004" class="node">
<title>Node4</title>
<g id="a_Node000004"><a xlink:title=" ">
<polygon fill="#e0e0e0" stroke="#999999" points="90.62,-19.25 40.12,-19.25 40.12,0 90.62,0 90.62,-19.25"/>
<text xml:space="preserve" text-anchor="middle" x="65.38" y="-5.75" font-family="Helvetica,sans-Serif" font-size="10.00">stddef.h</text>
</a>
</g>
</g>
<!-- Node3&#45;&gt;Node4 -->
<g id="edge3_Node000003_Node000004" class="edge">
<title>Node3&#45;&gt;Node4</title>
<g id="a_edge3_Node000003_Node000004"><a xlink:title=" ">
<path fill="none" stroke="#63b8ff" d="M65.38,-55.08C65.38,-48.57 65.38,-39.42 65.38,-31.12"/>
<polygon fill="#63b8ff" stroke="#63b8ff" points="68.88,-31.12 65.38,-21.12 61.88,-31.12 68.88,-31.12"/>
</a>
</g>
</g>
</g>
</svg>
