<?xml version="1.0" encoding="UTF-8" standalone="no"?>
<!DOCTYPE svg PUBLIC "-//W3C//DTD SVG 1.1//EN"
 "http://www.w3.org/Graphics/SVG/1.1/DTD/svg11.dtd">
<!-- Generated by graphviz version 14.0.5 (0)
 -->
<!-- Title: echo_handler Pages: 1 -->
<svg width="506pt" height="101pt"
 viewBox="0.00 0.00 506.00 101.00" xmlns="http://www.w3.org/2000/svg" xmlns:xlink="http://www.w3.org/1999/xlink">
<g id="graph0" class="graph" transform="scale(1 1) rotate(0) translate(4 97.25)">
<title>echo_handler</title>
<!-- Node1 -->
<g id="Node000001" class="node">
<title>Node1</title>
<g id="a_Node000001"><a xlink:title=" ">
<polygon fill="#999999" stroke="#666666" points="73.75,-74.25 0,-74.25 0,-55 73.75,-55 73.75,-74.25"/>
<text xml:space="preserve" text-anchor="middle" x="36.88" y="-60.75" font-family="Helvetica,sans-Serif" font-size="10.00">echo_handler</text>
</a>
</g>
</g>
<!-- Node2 -->
<g id="Node000002" class="node">
<title>Node2</title>
<g id="a_Node000002"><a xlink:href="espresso_8c.html#a5afa98a10b7b10f4021fa67400d39f31" target="_top" xlink:title="Retrieve a query parameter as string from the URL.">
<polygon fill="white" stroke="#666666" points="204.88,-93.25 117.62,-93.25 117.62,-74 204.88,-74 204.88,-93.25"/>
<text xml:space="preserve" text-anchor="middle" x="161.25" y="-79.75" font-family="Helvetica,sans-Serif" font-size="10.00">get_query_string</text>
</a>
</g>
</g>
<!-- Node1&#45;&gt;Node2 -->
<g id="edge1_Node000001_Node000002" class="edge">
<title>Node1&#45;&gt;Node2</title>
<g id="a_edge1_Node000001_Node000002"><a xlink:title=" ">
<path fill="none" stroke="#63b8ff" d="M73.93,-70.22C84.08,-71.8 95.35,-73.55 106.3,-75.25"/>
<polygon fill="#63b8ff" stroke="#63b8ff" points="105.63,-78.69 116.05,-76.76 106.71,-71.77 105.63,-78.69"/>
</a>
</g>
</g>
<!-- Node4 -->
<g id="Node000004" class="node">
<title>Node4</title>
<g id="a_Node000004"><a xlink:href="espresso_8c.html#a74fa803b07b95b5f1446ae4bb85f4f0b" target="_top" xlink:title="Sends text response.">
<polygon fill="white" stroke="#666666" points="212.75,-56.25 109.75,-56.25 109.75,-37 212.75,-37 212.75,-56.25"/>
<text xml:space="preserve" text-anchor="middle" x="161.25" y="-42.75" font-family="Helvetica,sans-Serif" font-size="10.00">send_text_response</text>
</a>
</g>
</g>
<!-- Node1&#45;&gt;Node4 -->
<g id="edge3_Node000001_Node000004" class="edge">
<title>Node1&#45;&gt;Node4</title>
<g id="a_edge3_Node000001_Node000004"><a xlink:title=" ">
<path fill="none" stroke="#63b8ff" d="M73.93,-59.32C81.59,-58.2 89.88,-56.98 98.2,-55.75"/>
<polygon fill="#63b8ff" stroke="#63b8ff" points="98.61,-59.23 108,-54.31 97.59,-52.3 98.61,-59.23"/>
</a>
</g>
</g>
<!-- Node3 -->
<g id="Node000003" class="node">
<title>Node3</title>
<g id="a_Node000003"><a xlink:href="espresso_8c.html#a87e1508215bb1ffe01b13e14dece5b9c" target="_top" xlink:title="Retrieve a query parameter as a void pointer.">
<polygon fill="white" stroke="#666666" points="338.25,-93.25 280.25,-93.25 280.25,-74 338.25,-74 338.25,-93.25"/>
<text xml:space="preserve" text-anchor="middle" x="309.25" y="-79.75" font-family="Helvetica,sans-Serif" font-size="10.00">get_query</text>
</a>
</g>
</g>
<!-- Node2&#45;&gt;Node3 -->
<g id="edge2_Node000002_Node000003" class="edge">
<title>Node2&#45;&gt;Node3</title>
<g id="a_edge2_Node000002_Node000003"><a xlink:title=" ">
<path fill="none" stroke="#63b8ff" d="M205.27,-83.62C225.28,-83.62 248.94,-83.62 268.53,-83.62"/>
<polygon fill="#63b8ff" stroke="#63b8ff" points="268.32,-87.13 278.32,-83.63 268.32,-80.13 268.32,-87.13"/>
</a>
</g>
</g>
<!-- Node5 -->
<g id="Node000005" class="node">
<title>Node5</title>
<g id="a_Node000005"><a xlink:href="espresso_8c.html#a61c64a500ef217b0825333b9f35234e3" target="_top" xlink:title=" ">
<polygon fill="white" stroke="#666666" points="369.75,-56.25 248.75,-56.25 248.75,-37 369.75,-37 369.75,-56.25"/>
<text xml:space="preserve" text-anchor="middle" x="309.25" y="-42.75" font-family="Helvetica,sans-Serif" font-size="10.00">build_response_headers</text>
</a>
</g>
</g>
<!-- Node4&#45;&gt;Node5 -->
<g id="edge4_Node000004_Node000005" class="edge">
<title>Node4&#45;&gt;Node5</title>
<g id="a_edge4_Node000004_Node000005"><a xlink:title=" ">
<path fill="none" stroke="#63b8ff" d="M212.9,-46.62C220.69,-46.62 228.84,-46.62 236.97,-46.62"/>
<polygon fill="#63b8ff" stroke="#63b8ff" points="236.88,-50.13 246.88,-46.63 236.88,-43.13 236.88,-50.13"/>
</a>
</g>
</g>
<!-- Node6 -->
<g id="Node000006" class="node">
<title>Node6</title>
<g id="a_Node000006"><a xlink:href="espresso_8c.html#a142b429010a8046d339d36552bd20f7e" target="_top" xlink:title=" ">
<polygon fill="white" stroke="#666666" points="350.25,-19.25 268.25,-19.25 268.25,0 350.25,0 350.25,-19.25"/>
<text xml:space="preserve" text-anchor="middle" x="309.25" y="-5.75" font-family="Helvetica,sans-Serif" font-size="10.00">send_message</text>
</a>
</g>
</g>
<!-- Node4&#45;&gt;Node6 -->
<g id="edge5_Node000004_Node000006" class="edge">
<title>Node4&#45;&gt;Node6</title>
<g id="a_edge5_Node000004_Node000006"><a xlink:title=" ">
<path fill="none" stroke="#63b8ff" d="M202.15,-36.51C219.21,-32.19 239.33,-27.09 257.43,-22.5"/>
<polygon fill="#63b8ff" stroke="#63b8ff" points="258.1,-25.94 266.94,-20.1 256.38,-19.16 258.1,-25.94"/>
</a>
</g>
</g>
<!-- Node7 -->
<g id="Node000007" class="node">
<title>Node7</title>
<g id="a_Node000007"><a xlink:href="espresso_8c.html#a5fa30991ad104ba1fe0001e7aefe95ac" target="_top" xlink:title=" ">
<polygon fill="white" stroke="#666666" points="497.5,-19.25 405.75,-19.25 405.75,0 497.5,0 497.5,-19.25"/>
<text xml:space="preserve" text-anchor="middle" x="451.62" y="-5.75" font-family="Helvetica,sans-Serif" font-size="10.00">handle_write_end</text>
</a>
</g>
</g>
<!-- Node6&#45;&gt;Node7 -->
<g id="edge6_Node000006_Node000007" class="edge">
<title>Node6&#45;&gt;Node7</title>
<g id="a_edge6_Node000006_Node000007"><a xlink:title=" ">
<path fill="none" stroke="#63b8ff" d="M350.48,-9.62C364.03,-9.62 379.42,-9.62 393.99,-9.62"/>
<polygon fill="#63b8ff" stroke="#63b8ff" points="393.94,-13.13 403.94,-9.63 393.94,-6.13 393.94,-13.13"/>
</a>
</g>
</g>
</g>
</svg>
