<?xml version="1.0" encoding="UTF-8" standalone="no"?>
<!DOCTYPE svg PUBLIC "-//W3C//DTD SVG 1.1//EN"
 "http://www.w3.org/Graphics/SVG/1.1/DTD/svg11.dtd">
<!-- Generated by graphviz version 14.0.5 (0)
 -->
<!-- Title: main Pages: 1 -->
<svg width="773pt" height="269pt"
 viewBox="0.00 0.00 773.00 269.00" xmlns="http://www.w3.org/2000/svg" xmlns:xlink="http://www.w3.org/1999/xlink">
<g id="graph0" class="graph" transform="scale(1 1) rotate(0) translate(4 265.25)">
<title>main</title>
<!-- Node1 -->
<g id="Node000001" class="node">
<title>Node1</title>
<g id="a_Node000001"><a xlink:title=" ">
<polygon fill="#999999" stroke="#666666" points="37,-113.25 0,-113.25 0,-94 37,-94 37,-113.25"/>
<text xml:space="preserve" text-anchor="middle" x="18.5" y="-99.75" font-family="Helvetica,sans-Serif" font-size="10.00">main</text>
</a>
</g>
</g>
<!-- Node2 -->
<g id="Node000002" class="node">
<title>Node2</title>
<g id="a_Node000002"><a xlink:href="espresso_8c.html#a3489a7e521f0aceb3e050ca4b9f165d7" target="_top" xlink:title="Closes the app and frees resources.">
<polygon fill="white" stroke="#666666" points="413.88,-103.25 353.62,-103.25 353.62,-84 413.88,-84 413.88,-103.25"/>
<text xml:space="preserve" text-anchor="middle" x="383.75" y="-89.75" font-family="Helvetica,sans-Serif" font-size="10.00">app_close</text>
</a>
</g>
</g>
<!-- Node1&#45;&gt;Node2 -->
<g id="edge1_Node000001_Node000002" class="edge">
<title>Node1&#45;&gt;Node2</title>
<g id="a_edge1_Node000001_Node000002"><a xlink:title=" ">
<path fill="none" stroke="#63b8ff" d="M37.02,-103.14C92.09,-101.63 262.69,-96.93 341.75,-94.75"/>
<polygon fill="#63b8ff" stroke="#63b8ff" points="341.76,-98.25 351.66,-94.48 341.57,-91.26 341.76,-98.25"/>
</a>
</g>
</g>
<!-- Node3 -->
<g id="Node000003" class="node">
<title>Node3</title>
<g id="a_Node000003"><a xlink:href="espresso_8c.html#a0ba22157d15a70c4c22441b040bb0f74" target="_top" xlink:title="Starts the HTTP server loop.">
<polygon fill="white" stroke="#666666" points="140.75,-206.25 80.5,-206.25 80.5,-187 140.75,-187 140.75,-206.25"/>
<text xml:space="preserve" text-anchor="middle" x="110.62" y="-192.75" font-family="Helvetica,sans-Serif" font-size="10.00">app_listen</text>
</a>
</g>
</g>
<!-- Node1&#45;&gt;Node3 -->
<g id="edge2_Node000001_Node000003" class="edge">
<title>Node1&#45;&gt;Node3</title>
<g id="a_edge2_Node000001_Node000003"><a xlink:title=" ">
<path fill="none" stroke="#63b8ff" d="M24.49,-113.57C32.74,-129.17 50.57,-159.58 73,-178.62 73.78,-179.29 74.59,-179.93 75.42,-180.56"/>
<polygon fill="#63b8ff" stroke="#63b8ff" points="73.34,-183.39 83.66,-185.79 77.09,-177.47 73.34,-183.39"/>
</a>
</g>
</g>
<!-- Node12 -->
<g id="Node000012" class="node">
<title>Node12</title>
<g id="a_Node000012"><a xlink:href="espresso_8c.html#afb20611531d08699d86a03c1ad97f079" target="_top" xlink:title="Adds a global middleware.">
<polygon fill="white" stroke="#666666" points="137,-132.25 84.25,-132.25 84.25,-113 137,-113 137,-132.25"/>
<text xml:space="preserve" text-anchor="middle" x="110.62" y="-118.75" font-family="Helvetica,sans-Serif" font-size="10.00">app_use</text>
</a>
</g>
</g>
<!-- Node1&#45;&gt;Node12 -->
<g id="edge11_Node000001_Node000012" class="edge">
<title>Node1&#45;&gt;Node12</title>
<g id="a_edge11_Node000001_Node000012"><a xlink:title=" ">
<path fill="none" stroke="#63b8ff" d="M37.31,-107.38C47.52,-109.53 60.72,-112.32 73.05,-114.91"/>
<polygon fill="#63b8ff" stroke="#63b8ff" points="72.02,-118.27 82.53,-116.91 73.46,-111.42 72.02,-118.27"/>
</a>
</g>
</g>
<!-- Node13 -->
<g id="Node000013" class="node">
<title>Node13</title>
<g id="a_Node000013"><a xlink:href="espresso_8c.html#a54c30f08a1b67315ac3195d1a7fac35f" target="_top" xlink:title="Creates a new Espresso app on the specified port.">
<polygon fill="white" stroke="#666666" points="142.62,-169.25 78.62,-169.25 78.62,-150 142.62,-150 142.62,-169.25"/>
<text xml:space="preserve" text-anchor="middle" x="110.62" y="-155.75" font-family="Helvetica,sans-Serif" font-size="10.00">create_app</text>
</a>
</g>
</g>
<!-- Node1&#45;&gt;Node13 -->
<g id="edge12_Node000001_Node000013" class="edge">
<title>Node1&#45;&gt;Node13</title>
<g id="a_edge12_Node000001_Node000013"><a xlink:title=" ">
<path fill="none" stroke="#63b8ff" d="M32.3,-113.6C42.9,-121.64 58.51,-133 73,-141.62 74.45,-142.49 75.94,-143.34 77.46,-144.19"/>
<polygon fill="#63b8ff" stroke="#63b8ff" points="75.81,-147.27 86.29,-148.83 79.06,-141.08 75.81,-147.27"/>
</a>
</g>
</g>
<!-- Node15 -->
<g id="Node000015" class="node">
<title>Node15</title>
<g id="a_Node000015"><a xlink:href="main_8c.html#a3567783714153d35ee83fd6de55968d1" target="_top" xlink:title=" ">
<polygon fill="white" stroke="#666666" points="147.5,-56.25 73.75,-56.25 73.75,-37 147.5,-37 147.5,-56.25"/>
<text xml:space="preserve" text-anchor="middle" x="110.62" y="-42.75" font-family="Helvetica,sans-Serif" font-size="10.00">echo_handler</text>
</a>
</g>
</g>
<!-- Node1&#45;&gt;Node15 -->
<g id="edge15_Node000001_Node000015" class="edge">
<title>Node1&#45;&gt;Node15</title>
<g id="a_edge15_Node000001_Node000015"><a xlink:title=" ">
<path fill="none" stroke="#63b8ff" d="M35.2,-93.7C48.69,-85.17 68.39,-72.71 84.13,-62.75"/>
<polygon fill="#63b8ff" stroke="#63b8ff" points="85.94,-65.74 92.52,-57.44 82.2,-59.83 85.94,-65.74"/>
</a>
</g>
</g>
<!-- Node20 -->
<g id="Node000020" class="node">
<title>Node20</title>
<g id="a_Node000020"><a xlink:href="main_8c.html#a036dbf8db2f30bf4fb436fcc8ea138c7" target="_top" xlink:title=" ">
<polygon fill="white" stroke="#666666" points="148.25,-19.25 73,-19.25 73,0 148.25,0 148.25,-19.25"/>
<text xml:space="preserve" text-anchor="middle" x="110.62" y="-5.75" font-family="Helvetica,sans-Serif" font-size="10.00">index_handler</text>
</a>
</g>
</g>
<!-- Node1&#45;&gt;Node20 -->
<g id="edge20_Node000001_Node000020" class="edge">
<title>Node1&#45;&gt;Node20</title>
<g id="a_edge20_Node000001_Node000020"><a xlink:title=" ">
<path fill="none" stroke="#63b8ff" d="M24.46,-93.55C32.67,-77.74 50.43,-46.91 73,-27.62 73.78,-26.96 74.58,-26.31 75.41,-25.68"/>
<polygon fill="#63b8ff" stroke="#63b8ff" points="77.09,-28.77 83.65,-20.45 73.33,-22.86 77.09,-28.77"/>
</a>
</g>
</g>
<!-- Node4 -->
<g id="Node000004" class="node">
<title>Node4</title>
<g id="a_Node000004"><a xlink:href="espresso_8c.html#abf603e2df288bddb710c847ace1f772d" target="_top" xlink:title=" ">
<polygon fill="white" stroke="#666666" points="271.5,-206.25 200,-206.25 200,-187 271.5,-187 271.5,-206.25"/>
<text xml:space="preserve" text-anchor="middle" x="235.75" y="-192.75" font-family="Helvetica,sans-Serif" font-size="10.00">client_thread</text>
</a>
</g>
</g>
<!-- Node3&#45;&gt;Node4 -->
<g id="edge3_Node000003_Node000004" class="edge">
<title>Node3&#45;&gt;Node4</title>
<g id="a_edge3_Node000003_Node000004"><a xlink:title=" ">
<path fill="none" stroke="#63b8ff" d="M141.12,-196.62C155.31,-196.62 172.67,-196.62 188.56,-196.62"/>
<polygon fill="#63b8ff" stroke="#63b8ff" points="188.3,-200.13 198.3,-196.63 188.3,-193.13 188.3,-200.13"/>
</a>
</g>
</g>
<!-- Node5 -->
<g id="Node000005" class="node">
<title>Node5</title>
<g id="a_Node000005"><a xlink:href="espresso_8c.html#a04c27c6493696fb67ab9b8f5296c14f1" target="_top" xlink:title=" ">
<polygon fill="white" stroke="#666666" points="425.12,-187.25 342.38,-187.25 342.38,-168 425.12,-168 425.12,-187.25"/>
<text xml:space="preserve" text-anchor="middle" x="383.75" y="-173.75" font-family="Helvetica,sans-Serif" font-size="10.00">compare_paths</text>
</a>
</g>
</g>
<!-- Node4&#45;&gt;Node5 -->
<g id="edge4_Node000004_Node000005" class="edge">
<title>Node4&#45;&gt;Node5</title>
<g id="a_edge4_Node000004_Node000005"><a xlink:title=" ">
<path fill="none" stroke="#63b8ff" d="M271.72,-192.07C289.42,-189.77 311.26,-186.93 330.87,-184.38"/>
<polygon fill="#63b8ff" stroke="#63b8ff" points="331.15,-187.87 340.62,-183.11 330.25,-180.93 331.15,-187.87"/>
</a>
</g>
</g>
<!-- Node6 -->
<g id="Node000006" class="node">
<title>Node6</title>
<g id="a_Node000006"><a xlink:href="espresso_8c.html#aca61aa31ed57abce18d1d3cffd0d47e3" target="_top" xlink:title=" ">
<polygon fill="white" stroke="#666666" points="441.62,-150.25 325.88,-150.25 325.88,-131 441.62,-131 441.62,-150.25"/>
<text xml:space="preserve" text-anchor="middle" x="383.75" y="-136.75" font-family="Helvetica,sans-Serif" font-size="10.00">generate_allow_header</text>
</a>
</g>
</g>
<!-- Node4&#45;&gt;Node6 -->
<g id="edge5_Node000004_Node000006" class="edge">
<title>Node4&#45;&gt;Node6</title>
<g id="a_edge5_Node000004_Node000006"><a xlink:title=" ">
<path fill="none" stroke="#63b8ff" d="M257.79,-186.53C275.13,-178.42 300.48,-167.04 323.25,-158.62 327.4,-157.09 331.75,-155.59 336.13,-154.14"/>
<polygon fill="#63b8ff" stroke="#63b8ff" points="337.06,-157.52 345.52,-151.15 334.93,-150.85 337.06,-157.52"/>
</a>
</g>
</g>
<!-- Node7 -->
<g id="Node000007" class="node">
<title>Node7</title>
<g id="a_Node000007"><a xlink:href="espresso_8c.html#a1ab07f0a47159856d7446c79d306cd6b" target="_top" xlink:title="Parses an HTTP request string into a Request struct.">
<polygon fill="white" stroke="#666666" points="433.38,-261.25 334.12,-261.25 334.12,-242 433.38,-242 433.38,-261.25"/>
<text xml:space="preserve" text-anchor="middle" x="383.75" y="-247.75" font-family="Helvetica,sans-Serif" font-size="10.00">parse_http_request</text>
</a>
</g>
</g>
<!-- Node4&#45;&gt;Node7 -->
<g id="edge6_Node000004_Node000007" class="edge">
<title>Node4&#45;&gt;Node7</title>
<g id="a_edge6_Node000004_Node000007"><a xlink:title=" ">
<path fill="none" stroke="#63b8ff" d="M258.52,-206.73C275.86,-214.58 300.84,-225.47 323.25,-233.62 327.41,-235.14 331.76,-236.63 336.14,-238.07"/>
<polygon fill="#63b8ff" stroke="#63b8ff" points="334.95,-241.36 345.54,-241.05 337.07,-234.69 334.95,-241.36"/>
</a>
</g>
</g>
<!-- Node8 -->
<g id="Node000008" class="node">
<title>Node8</title>
<g id="a_Node000008"><a xlink:href="espresso_8c.html#a260a9eca1b37d7151fd585fde9e355b8" target="_top" xlink:title=" ">
<polygon fill="white" stroke="#666666" points="436.75,-224.25 330.75,-224.25 330.75,-205 436.75,-205 436.75,-224.25"/>
<text xml:space="preserve" text-anchor="middle" x="383.75" y="-210.75" font-family="Helvetica,sans-Serif" font-size="10.00">parse_query_params</text>
</a>
</g>
</g>
<!-- Node4&#45;&gt;Node8 -->
<g id="edge7_Node000004_Node000008" class="edge">
<title>Node4&#45;&gt;Node8</title>
<g id="a_edge7_Node000004_Node000008"><a xlink:title=" ">
<path fill="none" stroke="#63b8ff" d="M271.72,-200.94C285.98,-202.69 302.92,-204.78 319.22,-206.79"/>
<polygon fill="#63b8ff" stroke="#63b8ff" points="318.51,-210.23 328.86,-207.98 319.36,-203.28 318.51,-210.23"/>
</a>
</g>
</g>
<!-- Node9 -->
<g id="Node000009" class="node">
<title>Node9</title>
<g id="a_Node000009"><a xlink:href="espresso_8c.html#a2d9a0717a9389e6d178d0f4a8c2ef185" target="_top" xlink:title=" ">
<polygon fill="white" stroke="#666666" points="556.25,-224.25 480.25,-224.25 480.25,-205 556.25,-205 556.25,-224.25"/>
<text xml:space="preserve" text-anchor="middle" x="518.25" y="-210.75" font-family="Helvetica,sans-Serif" font-size="10.00">append_query</text>
</a>
</g>
</g>
<!-- Node8&#45;&gt;Node9 -->
<g id="edge8_Node000008_Node000009" class="edge">
<title>Node8&#45;&gt;Node9</title>
<g id="a_edge8_Node000008_Node000009"><a xlink:title=" ">
<path fill="none" stroke="#63b8ff" d="M437.12,-214.62C447.52,-214.62 458.41,-214.62 468.68,-214.62"/>
<polygon fill="#63b8ff" stroke="#63b8ff" points="468.45,-218.13 478.45,-214.63 468.45,-211.13 468.45,-218.13"/>
</a>
</g>
</g>
<!-- Node10 -->
<g id="Node000010" class="node">
<title>Node10</title>
<g id="a_Node000010"><a xlink:href="espresso_8c.html#a755a65a488e1158eee3fdab0ecada8fe" target="_top" xlink:title=" ">
<polygon fill="white" stroke="#666666" points="668.25,-224.25 592.25,-224.25 592.25,-205 668.25,-205 668.25,-224.25"/>
<text xml:space="preserve" text-anchor="middle" x="630.25" y="-210.75" font-family="Helvetica,sans-Serif" font-size="10.00">decode_query</text>
</a>
</g>
</g>
<!-- Node9&#45;&gt;Node10 -->
<g id="edge9_Node000009_Node000010" class="edge">
<title>Node9&#45;&gt;Node10</title>
<g id="a_edge9_Node000009_Node000010"><a xlink:title=" ">
<path fill="none" stroke="#63b8ff" d="M556.49,-214.62C564.29,-214.62 572.61,-214.62 580.75,-214.62"/>
<polygon fill="#63b8ff" stroke="#63b8ff" points="580.53,-218.13 590.53,-214.63 580.53,-211.13 580.53,-218.13"/>
</a>
</g>
</g>
<!-- Node11 -->
<g id="Node000011" class="node">
<title>Node11</title>
<g id="a_Node000011"><a xlink:href="espresso_8c.html#af4a5274d4719dec853dd32e1d8687553" target="_top" xlink:title=" ">
<polygon fill="white" stroke="#666666" points="764.5,-224.25 704.25,-224.25 704.25,-205 764.5,-205 764.5,-224.25"/>
<text xml:space="preserve" text-anchor="middle" x="734.38" y="-210.75" font-family="Helvetica,sans-Serif" font-size="10.00">hex_to_int</text>
</a>
</g>
</g>
<!-- Node10&#45;&gt;Node11 -->
<g id="edge10_Node000010_Node000011" class="edge">
<title>Node10&#45;&gt;Node11</title>
<g id="a_edge10_Node000010_Node000011"><a xlink:title=" ">
<path fill="none" stroke="#63b8ff" d="M668.7,-214.62C676.5,-214.62 684.76,-214.62 692.67,-214.62"/>
<polygon fill="#63b8ff" stroke="#63b8ff" points="692.41,-218.13 702.41,-214.63 692.41,-211.13 692.41,-218.13"/>
</a>
</g>
</g>
<!-- Node14 -->
<g id="Node000014" class="node">
<title>Node14</title>
<g id="a_Node000014"><a xlink:href="espresso_8c.html#a1f2696ccccf441f76c9f5161fb903db5" target="_top" xlink:title=" ">
<polygon fill="white" stroke="#666666" points="279.75,-151.25 191.75,-151.25 191.75,-132 279.75,-132 279.75,-151.25"/>
<text xml:space="preserve" text-anchor="middle" x="235.75" y="-137.75" font-family="Helvetica,sans-Serif" font-size="10.00">lib_handle_sigint</text>
</a>
</g>
</g>
<!-- Node13&#45;&gt;Node14 -->
<g id="edge13_Node000013_Node000014" class="edge">
<title>Node13&#45;&gt;Node14</title>
<g id="a_edge13_Node000013_Node000014"><a xlink:title=" ">
<path fill="none" stroke="#63b8ff" d="M143.01,-155.04C154.36,-153.38 167.54,-151.45 180.29,-149.59"/>
<polygon fill="#63b8ff" stroke="#63b8ff" points="180.46,-153.1 189.84,-148.19 179.44,-146.17 180.46,-153.1"/>
</a>
</g>
</g>
<!-- Node14&#45;&gt;Node2 -->
<g id="edge14_Node000014_Node000002" class="edge">
<title>Node14&#45;&gt;Node2</title>
<g id="a_edge14_Node000014_Node000002"><a xlink:title=" ">
<path fill="none" stroke="#63b8ff" d="M267.36,-131.56C289.16,-124.4 318.67,-114.69 342.4,-106.89"/>
<polygon fill="#63b8ff" stroke="#63b8ff" points="343.34,-110.27 351.74,-103.82 341.15,-103.62 343.34,-110.27"/>
</a>
</g>
</g>
<!-- Node16 -->
<g id="Node000016" class="node">
<title>Node16</title>
<g id="a_Node000016"><a xlink:href="espresso_8c.html#a5afa98a10b7b10f4021fa67400d39f31" target="_top" xlink:title="Retrieve a query parameter as string from the URL.">
<polygon fill="white" stroke="#666666" points="279.38,-56.25 192.12,-56.25 192.12,-37 279.38,-37 279.38,-56.25"/>
<text xml:space="preserve" text-anchor="middle" x="235.75" y="-42.75" font-family="Helvetica,sans-Serif" font-size="10.00">get_query_string</text>
</a>
</g>
</g>
<!-- Node15&#45;&gt;Node16 -->
<g id="edge16_Node000015_Node000016" class="edge">
<title>Node15&#45;&gt;Node16</title>
<g id="a_edge16_Node000015_Node000016"><a xlink:title=" ">
<path fill="none" stroke="#63b8ff" d="M147.9,-46.62C158.11,-46.62 169.45,-46.62 180.47,-46.62"/>
<polygon fill="#63b8ff" stroke="#63b8ff" points="180.27,-50.13 190.27,-46.63 180.27,-43.13 180.27,-50.13"/>
</a>
</g>
</g>
<!-- Node18 -->
<g id="Node000018" class="node">
<title>Node18</title>
<g id="a_Node000018"><a xlink:href="espresso_8c.html#a74fa803b07b95b5f1446ae4bb85f4f0b" target="_top" xlink:title="Sends text response.">
<polygon fill="white" stroke="#666666" points="287.25,-19.25 184.25,-19.25 184.25,0 287.25,0 287.25,-19.25"/>
<text xml:space="preserve" text-anchor="middle" x="235.75" y="-5.75" font-family="Helvetica,sans-Serif" font-size="10.00">send_text_response</text>
</a>
</g>
</g>
<!-- Node15&#45;&gt;Node18 -->
<g id="edge18_Node000015_Node000018" class="edge">
<title>Node15&#45;&gt;Node18</title>
<g id="a_edge18_Node000015_Node000018"><a xlink:title=" ">
<path fill="none" stroke="#63b8ff" d="M145.27,-36.51C159.11,-32.35 175.35,-27.48 190.16,-23.02"/>
<polygon fill="#63b8ff" stroke="#63b8ff" points="191.13,-26.39 199.7,-20.16 189.11,-19.68 191.13,-26.39"/>
</a>
</g>
</g>
<!-- Node17 -->
<g id="Node000017" class="node">
<title>Node17</title>
<g id="a_Node000017"><a xlink:href="espresso_8c.html#a87e1508215bb1ffe01b13e14dece5b9c" target="_top" xlink:title="Retrieve a query parameter as a void pointer.">
<polygon fill="white" stroke="#666666" points="412.75,-56.25 354.75,-56.25 354.75,-37 412.75,-37 412.75,-56.25"/>
<text xml:space="preserve" text-anchor="middle" x="383.75" y="-42.75" font-family="Helvetica,sans-Serif" font-size="10.00">get_query</text>
</a>
</g>
</g>
<!-- Node16&#45;&gt;Node17 -->
<g id="edge17_Node000016_Node000017" class="edge">
<title>Node16&#45;&gt;Node17</title>
<g id="a_edge17_Node000016_Node000017"><a xlink:title=" ">
<path fill="none" stroke="#63b8ff" d="M279.77,-46.62C299.78,-46.62 323.44,-46.62 343.03,-46.62"/>
<polygon fill="#63b8ff" stroke="#63b8ff" points="342.82,-50.13 352.82,-46.63 342.82,-43.13 342.82,-50.13"/>
</a>
</g>
</g>
<!-- Node19 -->
<g id="Node000019" class="node">
<title>Node19</title>
<g id="a_Node000019"><a xlink:href="espresso_8c.html#a61c64a500ef217b0825333b9f35234e3" target="_top" xlink:title=" ">
<polygon fill="white" stroke="#666666" points="444.25,-19.25 323.25,-19.25 323.25,0 444.25,0 444.25,-19.25"/>
<text xml:space="preserve" text-anchor="middle" x="383.75" y="-5.75" font-family="Helvetica,sans-Serif" font-size="10.00">build_response_headers</text>
</a>
</g>
</g>
<!-- Node18&#45;&gt;Node19 -->
<g id="edge19_Node000018_Node000019" class="edge">
<title>Node18&#45;&gt;Node19</title>
<g id="a_edge19_Node000018_Node000019"><a xlink:title=" ">
<path fill="none" stroke="#63b8ff" d="M287.4,-9.62C295.19,-9.62 303.34,-9.62 311.47,-9.62"/>
<polygon fill="#63b8ff" stroke="#63b8ff" points="311.38,-13.13 321.38,-9.63 311.38,-6.13 311.38,-13.13"/>
</a>
</g>
</g>
<!-- Node20&#45;&gt;Node18 -->
<g id="edge21_Node000020_Node000018" class="edge">
<title>Node20&#45;&gt;Node18</title>
<g id="a_edge21_Node000020_Node000018"><a xlink:title=" ">
<path fill="none" stroke="#63b8ff" d="M148.57,-9.62C156.26,-9.62 164.57,-9.62 172.89,-9.62"/>
<polygon fill="#63b8ff" stroke="#63b8ff" points="172.66,-13.13 182.66,-9.63 172.66,-6.13 172.66,-13.13"/>
</a>
</g>
</g>
</g>
</svg>
