<?xml version="1.0" encoding="UTF-8" standalone="no"?>
<!DOCTYPE svg PUBLIC "-//W3C//DTD SVG 1.1//EN"
 "http://www.w3.org/Graphics/SVG/1.1/DTD/svg11.dtd">
<!-- Generated by graphviz version 14.0.5 (0)
 -->
<!-- Title: main Pages: 1 -->
<svg width="1256pt" height="706pt"
 viewBox="0.00 0.00 1256.00 706.00" xmlns="http://www.w3.org/2000/svg" xmlns:xlink="http://www.w3.org/1999/xlink">
<g id="graph0" class="graph" transform="scale(1 1) rotate(0) translate(4 702.44)">
<title>main</title>
<!-- Node1 -->
<g id="Node000001" class="node">
<title>Node1</title>
<g id="a_Node000001"><a xlink:title=" ">
<polygon fill="#999999" stroke="#666666" points="37,-131.25 0,-131.25 0,-112 37,-112 37,-131.25"/>
<text xml:space="preserve" text-anchor="middle" x="18.5" y="-117.75" font-family="Helvetica,sans-Serif" font-size="10.00">main</text>
</a>
</g>
</g>
<!-- Node2 -->
<g id="Node000002" class="node">
<title>Node2</title>
<g id="a_Node000002"><a xlink:href="espresso_8c.html#a3489a7e521f0aceb3e050ca4b9f165d7" target="_top" xlink:title="Closes the app and frees resources.">
<polygon fill="white" stroke="#666666" points="413.88,-169.25 353.62,-169.25 353.62,-150 413.88,-150 413.88,-169.25"/>
<text xml:space="preserve" text-anchor="middle" x="383.75" y="-155.75" font-family="Helvetica,sans-Serif" font-size="10.00">app_close</text>
</a>
</g>
</g>
<!-- Node1&#45;&gt;Node2 -->
<g id="edge1_Node000001_Node000002" class="edge">
<title>Node1&#45;&gt;Node2</title>
<g id="a_edge1_Node000001_Node000002"><a xlink:title=" ">
<path fill="none" stroke="#63b8ff" d="M37.44,-122.12C80.63,-123.48 193.72,-128.05 287.25,-140.62 305.35,-143.06 325.19,-146.82 342.07,-150.36"/>
<polygon fill="#63b8ff" stroke="#63b8ff" points="341.24,-153.76 351.75,-152.44 342.71,-146.92 341.24,-153.76"/>
</a>
</g>
</g>
<!-- Node9 -->
<g id="Node000009" class="node">
<title>Node9</title>
<g id="a_Node000009"><a xlink:href="espresso_8c.html#a0ba22157d15a70c4c22441b040bb0f74" target="_top" xlink:title="Starts the HTTP server loop.">
<polygon fill="white" stroke="#666666" points="140.75,-292.25 80.5,-292.25 80.5,-273 140.75,-273 140.75,-292.25"/>
<text xml:space="preserve" text-anchor="middle" x="110.62" y="-278.75" font-family="Helvetica,sans-Serif" font-size="10.00">app_listen</text>
</a>
</g>
</g>
<!-- Node1&#45;&gt;Node9 -->
<g id="edge8_Node000001_Node000009" class="edge">
<title>Node1&#45;&gt;Node9</title>
<g id="a_edge8_Node000001_Node000009"><a xlink:title=" ">
<path fill="none" stroke="#63b8ff" d="M25.14,-131.7C39.74,-157.79 79.02,-227.95 98.44,-262.64"/>
<polygon fill="#63b8ff" stroke="#63b8ff" points="95.31,-264.22 103.25,-271.24 101.42,-260.8 95.31,-264.22"/>
</a>
</g>
</g>
<!-- Node27 -->
<g id="Node000027" class="node">
<title>Node27</title>
<g id="a_Node000027"><a xlink:href="espresso_8c.html#afb20611531d08699d86a03c1ad97f079" target="_top" xlink:title="Adds a global middleware.">
<polygon fill="white" stroke="#666666" points="561.88,-686.25 509.12,-686.25 509.12,-667 561.88,-667 561.88,-686.25"/>
<text xml:space="preserve" text-anchor="middle" x="535.5" y="-672.75" font-family="Helvetica,sans-Serif" font-size="10.00">app_use</text>
</a>
</g>
</g>
<!-- Node1&#45;&gt;Node27 -->
<g id="edge42_Node000001_Node000027" class="edge">
<title>Node1&#45;&gt;Node27</title>
<g id="a_edge42_Node000001_Node000027"><a xlink:title=" ">
<path fill="none" stroke="#63b8ff" d="M21.2,-131.34C32.7,-193.73 105.35,-539.19 323.25,-662.62 377.71,-693.47 453.19,-689.48 497.63,-683.34"/>
<polygon fill="#63b8ff" stroke="#63b8ff" points="497.89,-686.84 507.26,-681.9 496.85,-679.92 497.89,-686.84"/>
</a>
</g>
</g>
<!-- Node28 -->
<g id="Node000028" class="node">
<title>Node28</title>
<g id="a_Node000028"><a xlink:href="espresso_8c.html#a54c30f08a1b67315ac3195d1a7fac35f" target="_top" xlink:title="Creates a new Espresso app on the specified port.">
<polygon fill="white" stroke="#666666" points="142.62,-169.25 78.62,-169.25 78.62,-150 142.62,-150 142.62,-169.25"/>
<text xml:space="preserve" text-anchor="middle" x="110.62" y="-155.75" font-family="Helvetica,sans-Serif" font-size="10.00">create_app</text>
</a>
</g>
</g>
<!-- Node1&#45;&gt;Node28 -->
<g id="edge44_Node000001_Node000028" class="edge">
<title>Node1&#45;&gt;Node28</title>
<g id="a_edge44_Node000001_Node000028"><a xlink:title=" ">
<path fill="none" stroke="#63b8ff" d="M37.31,-129.13C48.13,-133.7 62.31,-139.67 75.24,-145.13"/>
<polygon fill="#63b8ff" stroke="#63b8ff" points="73.74,-148.29 84.32,-148.95 76.46,-141.84 73.74,-148.29"/>
</a>
</g>
</g>
<!-- Node30 -->
<g id="Node000030" class="node">
<title>Node30</title>
<g id="a_Node000030"><a xlink:href="main_8c.html#a3567783714153d35ee83fd6de55968d1" target="_top" xlink:title=" ">
<polygon fill="white" stroke="#666666" points="147.5,-93.25 73.75,-93.25 73.75,-74 147.5,-74 147.5,-93.25"/>
<text xml:space="preserve" text-anchor="middle" x="110.62" y="-79.75" font-family="Helvetica,sans-Serif" font-size="10.00">echo_handler</text>
</a>
</g>
</g>
<!-- Node1&#45;&gt;Node30 -->
<g id="edge48_Node000001_Node000030" class="edge">
<title>Node1&#45;&gt;Node30</title>
<g id="a_edge48_Node000001_Node000030"><a xlink:title=" ">
<path fill="none" stroke="#63b8ff" d="M37.31,-114.12C48.13,-109.55 62.31,-103.58 75.24,-98.12"/>
<polygon fill="#63b8ff" stroke="#63b8ff" points="76.46,-101.41 84.32,-94.3 73.74,-94.96 76.46,-101.41"/>
</a>
</g>
</g>
<!-- Node35 -->
<g id="Node000035" class="node">
<title>Node35</title>
<g id="a_Node000035"><a xlink:href="main_8c.html#a036dbf8db2f30bf4fb436fcc8ea138c7" target="_top" xlink:title=" ">
<polygon fill="white" stroke="#666666" points="148.25,-56.25 73,-56.25 73,-37 148.25,-37 148.25,-56.25"/>
<text xml:space="preserve" text-anchor="middle" x="110.62" y="-42.75" font-family="Helvetica,sans-Serif" font-size="10.00">index_handler</text>
</a>
</g>
</g>
<!-- Node1&#45;&gt;Node35 -->
<g id="edge54_Node000001_Node000035" class="edge">
<title>Node1&#45;&gt;Node35</title>
<g id="a_edge54_Node000001_Node000035"><a xlink:title=" ">
<path fill="none" stroke="#63b8ff" d="M26.94,-111.73C36.53,-99.47 54.23,-78.51 73,-64.62 74.12,-63.8 75.29,-62.99 76.48,-62.2"/>
<polygon fill="#63b8ff" stroke="#63b8ff" points="77.84,-65.46 84.72,-57.41 74.32,-59.41 77.84,-65.46"/>
</a>
</g>
</g>
<!-- Node36 -->
<g id="Node000036" class="node">
<title>Node36</title>
<g id="a_Node000036"><a xlink:href="main_8c.html#aa2afed69b3e8042b50a2fb6e401ad289" target="_top" xlink:title=" ">
<polygon fill="white" stroke="#666666" points="131.75,-19.25 89.5,-19.25 89.5,0 131.75,0 131.75,-19.25"/>
<text xml:space="preserve" text-anchor="middle" x="110.62" y="-5.75" font-family="Helvetica,sans-Serif" font-size="10.00">logger</text>
</a>
</g>
</g>
<!-- Node1&#45;&gt;Node36 -->
<g id="edge56_Node000001_Node000036" class="edge">
<title>Node1&#45;&gt;Node36</title>
<g id="a_edge56_Node000001_Node000036"><a xlink:title=" ">
<path fill="none" stroke="#63b8ff" d="M22.94,-111.57C29.78,-92.85 46.75,-52.33 73,-27.62 74.96,-25.78 77.14,-24.09 79.44,-22.54"/>
<polygon fill="#63b8ff" stroke="#63b8ff" points="80.95,-25.71 87.94,-17.75 77.51,-19.61 80.95,-25.71"/>
</a>
</g>
</g>
<!-- Node3 -->
<g id="Node000003" class="node">
<title>Node3</title>
<g id="a_Node000003"><a xlink:href="espresso_8c.html#a73277811539a2de04ce7e1295fbdba6a" target="_top" xlink:title=" ">
<polygon fill="white" stroke="#666666" points="722.25,-245.25 630.5,-245.25 630.5,-226 722.25,-226 722.25,-245.25"/>
<text xml:space="preserve" text-anchor="middle" x="676.38" y="-231.75" font-family="Helvetica,sans-Serif" font-size="10.00">close_connection</text>
</a>
</g>
</g>
<!-- Node2&#45;&gt;Node3 -->
<g id="edge2_Node000002_Node000003" class="edge">
<title>Node2&#45;&gt;Node3</title>
<g id="a_edge2_Node000002_Node000003"><a xlink:title=" ">
<path fill="none" stroke="#63b8ff" d="M414.22,-167.33C463.94,-180.33 565.01,-206.76 625.8,-222.66"/>
<polygon fill="#63b8ff" stroke="#63b8ff" points="624.64,-225.97 635.2,-225.12 626.41,-219.2 624.64,-225.97"/>
</a>
</g>
</g>
<!-- Node4 -->
<g id="Node000004" class="node">
<title>Node4</title>
<g id="a_Node000004"><a xlink:href="espresso_8c.html#aaf78724518167158b66ec656312fabd2" target="_top" xlink:title=" ">
<polygon fill="white" stroke="#666666" points="887.5,-245.25 762,-245.25 762,-226 887.5,-226 887.5,-245.25"/>
<text xml:space="preserve" text-anchor="middle" x="824.75" y="-231.75" font-family="Helvetica,sans-Serif" font-size="10.00">handle_connection_close</text>
</a>
</g>
</g>
<!-- Node3&#45;&gt;Node4 -->
<g id="edge3_Node000003_Node000004" class="edge">
<title>Node3&#45;&gt;Node4</title>
<g id="a_edge3_Node000003_Node000004"><a xlink:title=" ">
<path fill="none" stroke="#63b8ff" d="M722.49,-235.62C731.27,-235.62 740.68,-235.62 750.1,-235.62"/>
<polygon fill="#63b8ff" stroke="#63b8ff" points="750.05,-239.13 760.05,-235.63 750.05,-232.13 750.05,-239.13"/>
</a>
</g>
</g>
<!-- Node5 -->
<g id="Node000005" class="node">
<title>Node5</title>
<g id="a_Node000005"><a xlink:href="espresso_8c.html#a1804ce3a25646fd9c6c6ad98d45c6efa" target="_top" xlink:title=" ">
<polygon fill="white" stroke="#666666" points="1015.25,-169.25 923.5,-169.25 923.5,-150 1015.25,-150 1015.25,-169.25"/>
<text xml:space="preserve" text-anchor="middle" x="969.38" y="-155.75" font-family="Helvetica,sans-Serif" font-size="10.00">endpoint_cleanup</text>
</a>
</g>
</g>
<!-- Node4&#45;&gt;Node5 -->
<g id="edge4_Node000004_Node000005" class="edge">
<title>Node4&#45;&gt;Node5</title>
<g id="a_edge4_Node000004_Node000005"><a xlink:title=" ">
<path fill="none" stroke="#63b8ff" d="M844.69,-225.53C869.01,-212.57 911.45,-189.96 939.73,-174.89"/>
<polygon fill="#63b8ff" stroke="#63b8ff" points="941.3,-178.02 948.47,-170.23 938,-171.84 941.3,-178.02"/>
</a>
</g>
</g>
<!-- Node8 -->
<g id="Node000008" class="node">
<title>Node8</title>
<g id="a_Node000008"><a xlink:href="espresso_8c.html#a837cf67658f96fc262c83a4882f96f45" target="_top" xlink:title=" ">
<polygon fill="white" stroke="#666666" points="1007.75,-245.25 931,-245.25 931,-226 1007.75,-226 1007.75,-245.25"/>
<text xml:space="preserve" text-anchor="middle" x="969.38" y="-231.75" font-family="Helvetica,sans-Serif" font-size="10.00">remove_client</text>
</a>
</g>
</g>
<!-- Node4&#45;&gt;Node8 -->
<g id="edge7_Node000004_Node000008" class="edge">
<title>Node4&#45;&gt;Node8</title>
<g id="a_edge7_Node000004_Node000008"><a xlink:title=" ">
<path fill="none" stroke="#63b8ff" d="M887.89,-235.62C898.36,-235.62 909.09,-235.62 919.18,-235.62"/>
<polygon fill="#63b8ff" stroke="#63b8ff" points="919.14,-239.13 929.14,-235.63 919.14,-232.13 919.14,-239.13"/>
</a>
</g>
</g>
<!-- Node6 -->
<g id="Node000006" class="node">
<title>Node6</title>
<g id="a_Node000006"><a xlink:href="espresso_8c.html#a713520bedc85cf92de9f221038f1b737" target="_top" xlink:title=" ">
<polygon fill="white" stroke="#666666" points="1151.25,-169.25 1051.25,-169.25 1051.25,-150 1151.25,-150 1151.25,-169.25"/>
<text xml:space="preserve" text-anchor="middle" x="1101.25" y="-155.75" font-family="Helvetica,sans-Serif" font-size="10.00">handle_timer_close</text>
</a>
</g>
</g>
<!-- Node5&#45;&gt;Node6 -->
<g id="edge5_Node000005_Node000006" class="edge">
<title>Node5&#45;&gt;Node6</title>
<g id="a_edge5_Node000005_Node000006"><a xlink:title=" ">
<path fill="none" stroke="#63b8ff" d="M1015.43,-159.62C1023.2,-159.62 1031.39,-159.62 1039.49,-159.62"/>
<polygon fill="#63b8ff" stroke="#63b8ff" points="1039.32,-163.13 1049.32,-159.63 1039.32,-156.13 1039.32,-163.13"/>
</a>
</g>
</g>
<!-- Node7 -->
<g id="Node000007" class="node">
<title>Node7</title>
<g id="a_Node000007"><a xlink:href="espresso_8c.html#aff314ce54a1f87e10d08bf4ddeeaf537" target="_top" xlink:title=" ">
<polygon fill="white" stroke="#666666" points="1144.88,-264.25 1057.62,-264.25 1057.62,-245 1144.88,-245 1144.88,-264.25"/>
<text xml:space="preserve" text-anchor="middle" x="1101.25" y="-250.75" font-family="Helvetica,sans-Serif" font-size="10.00">request_cleanup</text>
</a>
</g>
</g>
<!-- Node5&#45;&gt;Node7 -->
<g id="edge6_Node000005_Node000007" class="edge">
<title>Node5&#45;&gt;Node7</title>
<g id="a_edge6_Node000005_Node000007"><a xlink:title=" ">
<path fill="none" stroke="#63b8ff" d="M990.99,-169.53C998.8,-173.56 1007.63,-178.49 1015.25,-183.62 1039.46,-199.96 1064.86,-221.9 1081.52,-237.05"/>
<polygon fill="#63b8ff" stroke="#63b8ff" points="1078.97,-239.46 1088.7,-243.66 1083.71,-234.31 1078.97,-239.46"/>
</a>
</g>
</g>
<!-- Node10 -->
<g id="Node000010" class="node">
<title>Node10</title>
<g id="a_Node000010"><a xlink:href="espresso_8c.html#a90f2058b8890cfb99e6f595b8f066919" target="_top" xlink:title=" ">
<polygon fill="white" stroke="#666666" points="284.25,-397.25 187.25,-397.25 187.25,-378 284.25,-378 284.25,-397.25"/>
<text xml:space="preserve" text-anchor="middle" x="235.75" y="-383.75" font-family="Helvetica,sans-Serif" font-size="10.00">handle_connection</text>
</a>
</g>
</g>
<!-- Node9&#45;&gt;Node10 -->
<g id="edge9_Node000009_Node000010" class="edge">
<title>Node9&#45;&gt;Node10</title>
<g id="a_edge9_Node000009_Node000010"><a xlink:title=" ">
<path fill="none" stroke="#63b8ff" d="M123.43,-292.69C144.44,-310.61 188.56,-348.23 214.5,-370.36"/>
<polygon fill="#63b8ff" stroke="#63b8ff" points="212.13,-372.93 222.01,-376.76 216.67,-367.61 212.13,-372.93"/>
</a>
</g>
</g>
<!-- Node10&#45;&gt;Node3 -->
<g id="edge12_Node000010_Node000003" class="edge">
<title>Node10&#45;&gt;Node3</title>
<g id="a_edge12_Node000010_Node000003"><a xlink:title=" ">
<path fill="none" stroke="#63b8ff" d="M244.78,-377.7C258.94,-360.81 290,-326.38 323.25,-306.62 416.5,-251.21 545.6,-238.32 618.78,-235.75"/>
<polygon fill="#63b8ff" stroke="#63b8ff" points="618.62,-239.26 628.52,-235.47 618.42,-232.26 618.62,-239.26"/>
</a>
</g>
</g>
<!-- Node11 -->
<g id="Node000011" class="node">
<title>Node11</title>
<g id="a_Node000011"><a xlink:href="espresso_8c.html#a16da648ec46c63111e6d0f16c8c861d3" target="_top" xlink:title=" ">
<polygon fill="white" stroke="#666666" points="413.88,-653.25 353.62,-653.25 353.62,-634 413.88,-634 413.88,-653.25"/>
<text xml:space="preserve" text-anchor="middle" x="383.75" y="-639.75" font-family="Helvetica,sans-Serif" font-size="10.00">add_client</text>
</a>
</g>
</g>
<!-- Node10&#45;&gt;Node11 -->
<g id="edge10_Node000010_Node000011" class="edge">
<title>Node10&#45;&gt;Node11</title>
<g id="a_edge10_Node000010_Node000011"><a xlink:title=" ">
<path fill="none" stroke="#63b8ff" d="M237.63,-397.48C241.27,-432.57 258.17,-552.8 323.25,-619.62 328.68,-625.2 335.58,-629.52 342.74,-632.86"/>
<polygon fill="#63b8ff" stroke="#63b8ff" points="341.29,-636.04 351.87,-636.51 343.89,-629.54 341.29,-636.04"/>
</a>
</g>
</g>
<!-- Node12 -->
<g id="Node000012" class="node">
<title>Node12</title>
<g id="a_Node000012"><a xlink:href="espresso_8c.html#afc4191b175ae67f2d0d5b264caa6d08a" target="_top" xlink:title=" ">
<polygon fill="white" stroke="#666666" points="715.88,-586.25 636.88,-586.25 636.88,-567 715.88,-567 715.88,-586.25"/>
<text xml:space="preserve" text-anchor="middle" x="676.38" y="-572.75" font-family="Helvetica,sans-Serif" font-size="10.00">allocate_buffer</text>
</a>
</g>
</g>
<!-- Node10&#45;&gt;Node12 -->
<g id="edge11_Node000010_Node000012" class="edge">
<title>Node10&#45;&gt;Node12</title>
<g id="a_edge11_Node000010_Node000012"><a xlink:title=" ">
<path fill="none" stroke="#63b8ff" d="M260.02,-397.65C332.73,-428.98 555.85,-525.12 641.45,-562.01"/>
<polygon fill="#63b8ff" stroke="#63b8ff" points="639.93,-565.16 650.5,-565.91 642.7,-558.74 639.93,-565.16"/>
</a>
</g>
</g>
<!-- Node13 -->
<g id="Node000013" class="node">
<title>Node13</title>
<g id="a_Node000013"><a xlink:href="espresso_8c.html#a919e9a8a992f43f0fd82e87f4d40d2d2" target="_top" xlink:title=" ">
<polygon fill="white" stroke="#666666" points="432.25,-397.25 335.25,-397.25 335.25,-378 432.25,-378 432.25,-397.25"/>
<text xml:space="preserve" text-anchor="middle" x="383.75" y="-383.75" font-family="Helvetica,sans-Serif" font-size="10.00">handle_client_read</text>
</a>
</g>
</g>
<!-- Node10&#45;&gt;Node13 -->
<g id="edge13_Node000010_Node000013" class="edge">
<title>Node10&#45;&gt;Node13</title>
<g id="a_edge13_Node000010_Node000013"><a xlink:title=" ">
<path fill="none" stroke="#63b8ff" d="M284.56,-387.62C297.03,-387.62 310.63,-387.62 323.62,-387.62"/>
<polygon fill="#63b8ff" stroke="#63b8ff" points="323.32,-391.13 333.32,-387.63 323.32,-384.13 323.32,-391.13"/>
</a>
</g>
</g>
<!-- Node22 -->
<g id="Node000022" class="node">
<title>Node22</title>
<g id="a_Node000022"><a xlink:href="espresso_8c.html#abdcfd909d1360f16c6fedab5aac76f2a" target="_top" xlink:title=" ">
<polygon fill="white" stroke="#666666" points="1128,-473.25 1074.5,-473.25 1074.5,-454 1128,-454 1128,-473.25"/>
<text xml:space="preserve" text-anchor="middle" x="1101.25" y="-459.75" font-family="Helvetica,sans-Serif" font-size="10.00">log_error</text>
</a>
</g>
</g>
<!-- Node10&#45;&gt;Node22 -->
<g id="edge41_Node000010_Node000022" class="edge">
<title>Node10&#45;&gt;Node22</title>
<g id="a_edge41_Node000010_Node000022"><a xlink:title=" ">
<path fill="none" stroke="#63b8ff" d="M246.06,-397.6C261.1,-413.28 292.2,-443.91 323.25,-463.62 447.44,-542.45 482.74,-565.66 626.75,-595.62 798.68,-631.39 855.58,-596.72 1015.25,-523.62 1039.41,-512.56 1063.88,-494.4 1080.32,-480.95"/>
<polygon fill="#63b8ff" stroke="#63b8ff" points="1082.43,-483.74 1087.84,-474.64 1077.93,-478.38 1082.43,-483.74"/>
</a>
</g>
</g>
<!-- Node26 -->
<g id="Node000026" class="node">
<title>Node26</title>
<g id="a_Node000026"><a xlink:href="espresso_8c.html#a015718d876f3d5394b1ab3d6e39e989f" target="_top" xlink:title=" ">
<polygon fill="white" stroke="#666666" points="590.75,-283.25 480.25,-283.25 480.25,-264 590.75,-264 590.75,-283.25"/>
<text xml:space="preserve" text-anchor="middle" x="535.5" y="-269.75" font-family="Helvetica,sans-Serif" font-size="10.00">handle_client_timeout</text>
</a>
</g>
</g>
<!-- Node10&#45;&gt;Node26 -->
<g id="edge38_Node000010_Node000026" class="edge">
<title>Node10&#45;&gt;Node26</title>
<g id="a_edge38_Node000010_Node000026"><a xlink:title=" ">
<path fill="none" stroke="#63b8ff" d="M263.17,-377.51C316.37,-357.14 436.47,-311.16 497.47,-287.8"/>
<polygon fill="#63b8ff" stroke="#63b8ff" points="498.63,-291.1 506.72,-284.26 496.13,-284.57 498.63,-291.1"/>
</a>
</g>
</g>
<!-- Node13&#45;&gt;Node3 -->
<g id="edge14_Node000013_Node000003" class="edge">
<title>Node13&#45;&gt;Node3</title>
<g id="a_edge14_Node000013_Node000003"><a xlink:title=" ">
<path fill="none" stroke="#63b8ff" d="M401.66,-377.56C420.49,-366.56 452,-348.75 480.25,-335.62 528.04,-313.42 544.05,-317.05 590.75,-292.62 613.19,-280.89 636.95,-264.49 653.57,-252.29"/>
<polygon fill="#63b8ff" stroke="#63b8ff" points="655.32,-255.35 661.25,-246.57 651.14,-249.74 655.32,-255.35"/>
</a>
</g>
</g>
<!-- Node14 -->
<g id="Node000014" class="node">
<title>Node14</title>
<g id="a_Node000014"><a xlink:href="espresso_8c.html#a2a7b96459e0adac1061eaec6a5722075" target="_top" xlink:title=" ">
<polygon fill="white" stroke="#666666" points="572.38,-416.25 498.62,-416.25 498.62,-397 572.38,-397 572.38,-416.25"/>
<text xml:space="preserve" text-anchor="middle" x="535.5" y="-402.75" font-family="Helvetica,sans-Serif" font-size="10.00">handle_buffer</text>
</a>
</g>
</g>
<!-- Node13&#45;&gt;Node14 -->
<g id="edge15_Node000013_Node000014" class="edge">
<title>Node13&#45;&gt;Node14</title>
<g id="a_edge15_Node000013_Node000014"><a xlink:title=" ">
<path fill="none" stroke="#63b8ff" d="M432.54,-387.35C450.66,-389.08 471.22,-391.71 489.11,-394.6"/>
<polygon fill="#63b8ff" stroke="#63b8ff" points="488.49,-398.05 498.93,-396.28 489.66,-391.15 488.49,-398.05"/>
</a>
</g>
</g>
<!-- Node23 -->
<g id="Node000023" class="node">
<title>Node23</title>
<g id="a_Node000023"><a xlink:href="espresso_8c.html#a142b429010a8046d339d36552bd20f7e" target="_top" xlink:title=" ">
<polygon fill="white" stroke="#666666" points="865.75,-360.25 783.75,-360.25 783.75,-341 865.75,-341 865.75,-360.25"/>
<text xml:space="preserve" text-anchor="middle" x="824.75" y="-346.75" font-family="Helvetica,sans-Serif" font-size="10.00">send_message</text>
</a>
</g>
</g>
<!-- Node13&#45;&gt;Node23 -->
<g id="edge37_Node000013_Node000023" class="edge">
<title>Node13&#45;&gt;Node23</title>
<g id="a_edge37_Node000013_Node000023"><a xlink:title=" ">
<path fill="none" stroke="#63b8ff" d="M432.5,-383.4C481.3,-379.11 559.3,-372.29 626.75,-366.62 676.08,-362.48 732.37,-357.93 772.11,-354.74"/>
<polygon fill="#63b8ff" stroke="#63b8ff" points="772.18,-358.25 781.87,-353.96 771.62,-351.27 772.18,-358.25"/>
</a>
</g>
</g>
<!-- Node14&#45;&gt;Node3 -->
<g id="edge17_Node000014_Node000003" class="edge">
<title>Node14&#45;&gt;Node3</title>
<g id="a_edge17_Node000014_Node000003"><a xlink:title=" ">
<path fill="none" stroke="#63b8ff" d="M544.57,-396.69C567.1,-368.95 630.97,-290.31 660.3,-254.18"/>
<polygon fill="#63b8ff" stroke="#63b8ff" points="662.74,-256.73 666.33,-246.76 657.31,-252.32 662.74,-256.73"/>
</a>
</g>
</g>
<!-- Node14&#45;&gt;Node7 -->
<g id="edge35_Node000014_Node000007" class="edge">
<title>Node14&#45;&gt;Node7</title>
<g id="a_edge35_Node000014_Node000007"><a xlink:title=" ">
<path fill="none" stroke="#63b8ff" d="M556.55,-396.6C574.59,-387.85 601.99,-375.25 626.75,-366.62 774.82,-315.04 957.09,-279.38 1046.13,-263.67"/>
<polygon fill="#63b8ff" stroke="#63b8ff" points="1046.55,-267.15 1055.8,-261.98 1045.35,-260.26 1046.55,-267.15"/>
</a>
</g>
</g>
<!-- Node14&#45;&gt;Node12 -->
<g id="edge16_Node000014_Node000012" class="edge">
<title>Node14&#45;&gt;Node12</title>
<g id="a_edge16_Node000014_Node000012"><a xlink:title=" ">
<path fill="none" stroke="#63b8ff" d="M540.29,-416.43C550.57,-441.96 581.33,-511.33 626.75,-552.62 630.24,-555.8 634.22,-558.64 638.37,-561.17"/>
<polygon fill="#63b8ff" stroke="#63b8ff" points="636.42,-564.1 646.88,-565.78 639.75,-557.94 636.42,-564.1"/>
</a>
</g>
</g>
<!-- Node14&#45;&gt;Node13 -->
<g id="edge19_Node000014_Node000013" class="edge">
<title>Node14&#45;&gt;Node13</title>
<g id="a_edge19_Node000014_Node000013"><a xlink:title=" ">
<path fill="none" stroke="#63b8ff" d="M498.3,-407.91C477.79,-406.32 451.93,-403.17 430.07,-399.63"/>
<polygon fill="#63b8ff" stroke="#63b8ff" points="430.67,-396.19 420.22,-397.95 429.49,-403.09 430.67,-396.19"/>
</a>
</g>
</g>
<!-- Node15 -->
<g id="Node000015" class="node">
<title>Node15</title>
<g id="a_Node000015"><a xlink:href="espresso_8c.html#aca61aa31ed57abce18d1d3cffd0d47e3" target="_top" xlink:title=" ">
<polygon fill="white" stroke="#666666" points="882.62,-510.25 766.88,-510.25 766.88,-491 882.62,-491 882.62,-510.25"/>
<text xml:space="preserve" text-anchor="middle" x="824.75" y="-496.75" font-family="Helvetica,sans-Serif" font-size="10.00">generate_allow_header</text>
</a>
</g>
</g>
<!-- Node14&#45;&gt;Node15 -->
<g id="edge18_Node000014_Node000015" class="edge">
<title>Node14&#45;&gt;Node15</title>
<g id="a_edge18_Node000014_Node000015"><a xlink:title=" ">
<path fill="none" stroke="#63b8ff" d="M544.74,-416.57C559.3,-433.35 591.4,-466.9 626.75,-481.62 667.08,-498.43 715.94,-503.23 754.92,-503.8"/>
<polygon fill="#63b8ff" stroke="#63b8ff" points="754.88,-507.3 764.9,-503.85 754.92,-500.3 754.88,-507.3"/>
</a>
</g>
</g>
<!-- Node16 -->
<g id="Node000016" class="node">
<title>Node16</title>
<g id="a_Node000016"><a xlink:href="espresso_8c.html#a041948e0d9b16b9c852053d3fb3f2a69" target="_top" xlink:title="ONLY FOR UNIT TESTS.">
<polygon fill="white" stroke="#666666" points="719.62,-472.25 633.12,-472.25 633.12,-453 719.62,-453 719.62,-472.25"/>
<text xml:space="preserve" text-anchor="middle" x="676.38" y="-458.75" font-family="Helvetica,sans-Serif" font-size="10.00">handle_endpoint</text>
</a>
</g>
</g>
<!-- Node14&#45;&gt;Node16 -->
<g id="edge20_Node000014_Node000016" class="edge">
<title>Node14&#45;&gt;Node16</title>
<g id="a_edge20_Node000014_Node000016"><a xlink:title=" ">
<path fill="none" stroke="#63b8ff" d="M559.76,-416.75C577.92,-424.57 603.83,-435.56 626.75,-444.62 629.99,-445.91 633.37,-447.21 636.76,-448.51"/>
<polygon fill="#63b8ff" stroke="#63b8ff" points="635.51,-451.78 646.11,-452.02 637.98,-445.23 635.51,-451.78"/>
</a>
</g>
</g>
<!-- Node14&#45;&gt;Node22 -->
<g id="edge31_Node000014_Node000022" class="edge">
<title>Node14&#45;&gt;Node22</title>
<g id="a_edge31_Node000014_Node000022"><a xlink:title=" ">
<path fill="none" stroke="#63b8ff" d="M542.15,-416.69C554.45,-437.48 585.85,-484.98 626.75,-505.62 776.28,-581.09 986.32,-510.5 1066.95,-478.01"/>
<polygon fill="#63b8ff" stroke="#63b8ff" points="1068.12,-481.31 1076.04,-474.27 1065.46,-474.83 1068.12,-481.31"/>
</a>
</g>
</g>
<!-- Node14&#45;&gt;Node23 -->
<g id="edge36_Node000014_Node000023" class="edge">
<title>Node14&#45;&gt;Node23</title>
<g id="a_edge36_Node000014_Node000023"><a xlink:title=" ">
<path fill="none" stroke="#63b8ff" d="M572.59,-399.59C623.02,-389.76 714.84,-371.86 772.39,-360.64"/>
<polygon fill="#63b8ff" stroke="#63b8ff" points="772.79,-364.13 781.94,-358.78 771.45,-357.25 772.79,-364.13"/>
</a>
</g>
</g>
<!-- Node25 -->
<g id="Node000025" class="node">
<title>Node25</title>
<g id="a_Node000025"><a xlink:href="espresso_8c.html#a529711d7a64d90d49fb6a0c3870c5b61" target="_top" xlink:title="ONLY FOR UNIT TESTS.">
<polygon fill="white" stroke="#666666" points="726,-435.25 626.75,-435.25 626.75,-416 726,-416 726,-435.25"/>
<text xml:space="preserve" text-anchor="middle" x="676.38" y="-421.75" font-family="Helvetica,sans-Serif" font-size="10.00">parse_http_request</text>
</a>
</g>
</g>
<!-- Node14&#45;&gt;Node25 -->
<g id="edge32_Node000014_Node000025" class="edge">
<title>Node14&#45;&gt;Node25</title>
<g id="a_edge32_Node000014_Node000025"><a xlink:title=" ">
<path fill="none" stroke="#63b8ff" d="M572.63,-411.57C585.69,-413.35 600.82,-415.42 615.38,-417.42"/>
<polygon fill="#63b8ff" stroke="#63b8ff" points="614.48,-420.83 624.86,-418.71 615.43,-413.89 614.48,-420.83"/>
</a>
</g>
</g>
<!-- Node16&#45;&gt;Node15 -->
<g id="edge22_Node000016_Node000015" class="edge">
<title>Node16&#45;&gt;Node15</title>
<g id="a_edge22_Node000016_Node000015"><a xlink:title=" ">
<path fill="none" stroke="#63b8ff" d="M716.22,-472.71C733.9,-477.3 755.05,-482.79 773.9,-487.68"/>
<polygon fill="#63b8ff" stroke="#63b8ff" points="772.96,-491.05 783.52,-490.18 774.72,-484.28 772.96,-491.05"/>
</a>
</g>
</g>
<!-- Node17 -->
<g id="Node000017" class="node">
<title>Node17</title>
<g id="a_Node000017"><a xlink:href="espresso_8c.html#a04c27c6493696fb67ab9b8f5296c14f1" target="_top" xlink:title="ONLY FOR UNIT TESTS.">
<polygon fill="white" stroke="#666666" points="866.12,-436.25 783.38,-436.25 783.38,-417 866.12,-417 866.12,-436.25"/>
<text xml:space="preserve" text-anchor="middle" x="824.75" y="-422.75" font-family="Helvetica,sans-Serif" font-size="10.00">compare_paths</text>
</a>
</g>
</g>
<!-- Node16&#45;&gt;Node17 -->
<g id="edge21_Node000016_Node000017" class="edge">
<title>Node16&#45;&gt;Node17</title>
<g id="a_edge21_Node000016_Node000017"><a xlink:title=" ">
<path fill="none" stroke="#63b8ff" d="M718.54,-452.5C735.05,-448.44 754.26,-443.71 771.72,-439.42"/>
<polygon fill="#63b8ff" stroke="#63b8ff" points="772.55,-442.82 781.43,-437.03 770.88,-436.02 772.55,-442.82"/>
</a>
</g>
</g>
<!-- Node18 -->
<g id="Node000018" class="node">
<title>Node18</title>
<g id="a_Node000018"><a xlink:href="espresso_8c.html#a260a9eca1b37d7151fd585fde9e355b8" target="_top" xlink:title="ONLY FOR UNIT TESTS.">
<polygon fill="white" stroke="#666666" points="877.75,-473.25 771.75,-473.25 771.75,-454 877.75,-454 877.75,-473.25"/>
<text xml:space="preserve" text-anchor="middle" x="824.75" y="-459.75" font-family="Helvetica,sans-Serif" font-size="10.00">parse_query_params</text>
</a>
</g>
</g>
<!-- Node16&#45;&gt;Node18 -->
<g id="edge23_Node000016_Node000018" class="edge">
<title>Node16&#45;&gt;Node18</title>
<g id="a_edge23_Node000016_Node000018"><a xlink:title=" ">
<path fill="none" stroke="#63b8ff" d="M720.11,-462.92C732.63,-463 746.61,-463.1 760.14,-463.19"/>
<polygon fill="#63b8ff" stroke="#63b8ff" points="759.82,-466.69 769.84,-463.26 759.87,-459.69 759.82,-466.69"/>
</a>
</g>
</g>
<!-- Node16&#45;&gt;Node23 -->
<g id="edge29_Node000016_Node000023" class="edge">
<title>Node16&#45;&gt;Node23</title>
<g id="a_edge29_Node000016_Node000023"><a xlink:title=" ">
<path fill="none" stroke="#63b8ff" d="M710.77,-452.52C716.06,-450.29 721.32,-447.67 726,-444.62 745.23,-432.11 745.56,-423.63 762,-407.62 775.96,-394.03 792.16,-379.1 804.47,-367.93"/>
<polygon fill="#63b8ff" stroke="#63b8ff" points="806.46,-370.86 811.53,-361.56 801.76,-365.66 806.46,-370.86"/>
</a>
</g>
</g>
<!-- Node19 -->
<g id="Node000019" class="node">
<title>Node19</title>
<g id="a_Node000019"><a xlink:href="espresso_8c.html#a2d9a0717a9389e6d178d0f4a8c2ef185" target="_top" xlink:title=" ">
<polygon fill="white" stroke="#666666" points="1007.38,-397.25 931.38,-397.25 931.38,-378 1007.38,-378 1007.38,-397.25"/>
<text xml:space="preserve" text-anchor="middle" x="969.38" y="-383.75" font-family="Helvetica,sans-Serif" font-size="10.00">append_query</text>
</a>
</g>
</g>
<!-- Node18&#45;&gt;Node19 -->
<g id="edge24_Node000018_Node000019" class="edge">
<title>Node18&#45;&gt;Node19</title>
<g id="a_edge24_Node000018_Node000019"><a xlink:title=" ">
<path fill="none" stroke="#63b8ff" d="M867.66,-453.5C874.44,-451.27 881.27,-448.65 887.5,-445.62 909.89,-434.73 932.69,-417.73 948.36,-404.94"/>
<polygon fill="#63b8ff" stroke="#63b8ff" points="950.53,-407.69 955.96,-398.59 946.04,-402.31 950.53,-407.69"/>
</a>
</g>
</g>
<!-- Node18&#45;&gt;Node22 -->
<g id="edge28_Node000018_Node000022" class="edge">
<title>Node18&#45;&gt;Node22</title>
<g id="a_edge28_Node000018_Node000022"><a xlink:title=" ">
<path fill="none" stroke="#63b8ff" d="M878.03,-463.62C932.09,-463.62 1015.15,-463.62 1062.93,-463.62"/>
<polygon fill="#63b8ff" stroke="#63b8ff" points="1062.77,-467.13 1072.77,-463.63 1062.77,-460.13 1062.77,-467.13"/>
</a>
</g>
</g>
<!-- Node20 -->
<g id="Node000020" class="node">
<title>Node20</title>
<g id="a_Node000020"><a xlink:href="espresso_8c.html#a755a65a488e1158eee3fdab0ecada8fe" target="_top" xlink:title=" ">
<polygon fill="white" stroke="#666666" points="1139.25,-397.25 1063.25,-397.25 1063.25,-378 1139.25,-378 1139.25,-397.25"/>
<text xml:space="preserve" text-anchor="middle" x="1101.25" y="-383.75" font-family="Helvetica,sans-Serif" font-size="10.00">decode_query</text>
</a>
</g>
</g>
<!-- Node19&#45;&gt;Node20 -->
<g id="edge25_Node000019_Node000020" class="edge">
<title>Node19&#45;&gt;Node20</title>
<g id="a_edge25_Node000019_Node000020"><a xlink:title=" ">
<path fill="none" stroke="#63b8ff" d="M1007.59,-387.62C1021.31,-387.62 1037.07,-387.62 1051.65,-387.62"/>
<polygon fill="#63b8ff" stroke="#63b8ff" points="1051.51,-391.13 1061.51,-387.63 1051.51,-384.13 1051.51,-391.13"/>
</a>
</g>
</g>
<!-- Node19&#45;&gt;Node22 -->
<g id="edge27_Node000019_Node000022" class="edge">
<title>Node19&#45;&gt;Node22</title>
<g id="a_edge27_Node000019_Node000022"><a xlink:title=" ">
<path fill="none" stroke="#63b8ff" d="M989.73,-397.66C997.69,-401.87 1006.97,-406.88 1015.25,-411.62 1035.51,-423.23 1058.04,-437.05 1074.81,-447.53"/>
<polygon fill="#63b8ff" stroke="#63b8ff" points="1072.82,-450.42 1083.15,-452.77 1076.54,-444.49 1072.82,-450.42"/>
</a>
</g>
</g>
<!-- Node21 -->
<g id="Node000021" class="node">
<title>Node21</title>
<g id="a_Node000021"><a xlink:href="espresso_8c.html#af4a5274d4719dec853dd32e1d8687553" target="_top" xlink:title=" ">
<polygon fill="white" stroke="#666666" points="1247.5,-397.25 1187.25,-397.25 1187.25,-378 1247.5,-378 1247.5,-397.25"/>
<text xml:space="preserve" text-anchor="middle" x="1217.38" y="-383.75" font-family="Helvetica,sans-Serif" font-size="10.00">hex_to_int</text>
</a>
</g>
</g>
<!-- Node20&#45;&gt;Node21 -->
<g id="edge26_Node000020_Node000021" class="edge">
<title>Node20&#45;&gt;Node21</title>
<g id="a_edge26_Node000020_Node000021"><a xlink:title=" ">
<path fill="none" stroke="#63b8ff" d="M1139.62,-387.62C1151.13,-387.62 1163.85,-387.62 1175.57,-387.62"/>
<polygon fill="#63b8ff" stroke="#63b8ff" points="1175.37,-391.13 1185.37,-387.63 1175.37,-384.13 1175.37,-391.13"/>
</a>
</g>
</g>
<!-- Node24 -->
<g id="Node000024" class="node">
<title>Node24</title>
<g id="a_Node000024"><a xlink:href="espresso_8c.html#a5fa30991ad104ba1fe0001e7aefe95ac" target="_top" xlink:title=" ">
<polygon fill="white" stroke="#666666" points="1015.25,-360.25 923.5,-360.25 923.5,-341 1015.25,-341 1015.25,-360.25"/>
<text xml:space="preserve" text-anchor="middle" x="969.38" y="-346.75" font-family="Helvetica,sans-Serif" font-size="10.00">handle_write_end</text>
</a>
</g>
</g>
<!-- Node23&#45;&gt;Node24 -->
<g id="edge30_Node000023_Node000024" class="edge">
<title>Node23&#45;&gt;Node24</title>
<g id="a_edge30_Node000023_Node000024"><a xlink:title=" ">
<path fill="none" stroke="#63b8ff" d="M866.24,-350.62C880.35,-350.62 896.45,-350.62 911.64,-350.62"/>
<polygon fill="#63b8ff" stroke="#63b8ff" points="911.5,-354.13 921.5,-350.63 911.5,-347.13 911.5,-354.13"/>
</a>
</g>
</g>
<!-- Node25&#45;&gt;Node22 -->
<g id="edge33_Node000025_Node000022" class="edge">
<title>Node25&#45;&gt;Node22</title>
<g id="a_edge33_Node000025_Node000022"><a xlink:title=" ">
<path fill="none" stroke="#63b8ff" d="M716.28,-415.56C730.56,-412.35 746.91,-409.21 762,-407.62 817.47,-401.79 832.18,-400.47 887.5,-407.62 950.47,-415.77 1021.39,-436.96 1063.36,-450.81"/>
<polygon fill="#63b8ff" stroke="#63b8ff" points="1062.12,-454.08 1072.72,-453.94 1064.34,-447.45 1062.12,-454.08"/>
</a>
</g>
</g>
<!-- Node25&#45;&gt;Node23 -->
<g id="edge34_Node000025_Node000023" class="edge">
<title>Node25&#45;&gt;Node23</title>
<g id="a_edge34_Node000025_Node000023"><a xlink:title=" ">
<path fill="none" stroke="#63b8ff" d="M699.62,-415.71C708.07,-411.67 717.66,-406.75 726,-401.62 743.04,-391.15 744.52,-384.34 762,-374.62 768.33,-371.11 775.29,-367.87 782.18,-364.98"/>
<polygon fill="#63b8ff" stroke="#63b8ff" points="783.44,-368.25 791.44,-361.31 780.86,-361.74 783.44,-368.25"/>
</a>
</g>
</g>
<!-- Node26&#45;&gt;Node3 -->
<g id="edge39_Node000026_Node000003" class="edge">
<title>Node26&#45;&gt;Node3</title>
<g id="a_edge39_Node000026_Node000003"><a xlink:title=" ">
<path fill="none" stroke="#63b8ff" d="M573.35,-263.54C590.04,-258.97 609.98,-253.52 627.79,-248.65"/>
<polygon fill="#63b8ff" stroke="#63b8ff" points="628.65,-252.04 637.37,-246.02 626.8,-245.29 628.65,-252.04"/>
</a>
</g>
</g>
<!-- Node26&#45;&gt;Node23 -->
<g id="edge40_Node000026_Node000023" class="edge">
<title>Node26&#45;&gt;Node23</title>
<g id="a_edge40_Node000026_Node000023"><a xlink:title=" ">
<path fill="none" stroke="#63b8ff" d="M591.16,-275.21C629.65,-277.6 681.96,-283.45 726,-297.62 752.79,-306.25 780.77,-322.24 799.9,-334.41"/>
<polygon fill="#63b8ff" stroke="#63b8ff" points="797.74,-337.18 808.02,-339.71 801.56,-331.32 797.74,-337.18"/>
</a>
</g>
</g>
<!-- Node27&#45;&gt;Node22 -->
<g id="edge43_Node000027_Node000022" class="edge">
<title>Node27&#45;&gt;Node22</title>
<g id="a_edge43_Node000027_Node000022"><a xlink:title=" ">
<path fill="none" stroke="#63b8ff" d="M562.17,-681.89C638.79,-696.09 869.53,-727.78 1015.25,-628.62 1065.53,-594.41 1087.88,-520.95 1096.14,-484.72"/>
<polygon fill="#63b8ff" stroke="#63b8ff" points="1099.54,-485.57 1098.19,-475.06 1092.69,-484.12 1099.54,-485.57"/>
</a>
</g>
</g>
<!-- Node28&#45;&gt;Node22 -->
<g id="edge47_Node000028_Node000022" class="edge">
<title>Node28&#45;&gt;Node22</title>
<g id="a_edge47_Node000028_Node000022"><a xlink:title=" ">
<path fill="none" stroke="#63b8ff" d="M142.84,-168.97C155.58,-172.47 170.52,-176.19 184.25,-178.62 271.51,-194.11 294.12,-197.62 382.75,-197.62 382.75,-197.62 382.75,-197.62 825.75,-197.62 910.39,-197.62 952.84,-159.44 1015.25,-216.62 1078.62,-274.69 1013.97,-329.18 1051.25,-406.62 1058.33,-421.32 1070.17,-435.26 1080.45,-445.67"/>
<polygon fill="#63b8ff" stroke="#63b8ff" points="1077.86,-448.04 1087.48,-452.47 1082.73,-443 1077.86,-448.04"/>
</a>
</g>
</g>
<!-- Node29 -->
<g id="Node000029" class="node">
<title>Node29</title>
<g id="a_Node000029"><a xlink:href="espresso_8c.html#a1f2696ccccf441f76c9f5161fb903db5" target="_top" xlink:title=" ">
<polygon fill="white" stroke="#666666" points="279.75,-169.25 191.75,-169.25 191.75,-150 279.75,-150 279.75,-169.25"/>
<text xml:space="preserve" text-anchor="middle" x="235.75" y="-155.75" font-family="Helvetica,sans-Serif" font-size="10.00">lib_handle_sigint</text>
</a>
</g>
</g>
<!-- Node28&#45;&gt;Node29 -->
<g id="edge45_Node000028_Node000029" class="edge">
<title>Node28&#45;&gt;Node29</title>
<g id="a_edge45_Node000028_Node000029"><a xlink:title=" ">
<path fill="none" stroke="#63b8ff" d="M143.01,-159.62C154.25,-159.62 167.27,-159.62 179.91,-159.62"/>
<polygon fill="#63b8ff" stroke="#63b8ff" points="179.83,-163.13 189.83,-159.63 179.83,-156.13 179.83,-163.13"/>
</a>
</g>
</g>
<!-- Node29&#45;&gt;Node2 -->
<g id="edge46_Node000029_Node000002" class="edge">
<title>Node29&#45;&gt;Node2</title>
<g id="a_edge46_Node000029_Node000002"><a xlink:title=" ">
<path fill="none" stroke="#63b8ff" d="M280.16,-159.62C299.65,-159.62 322.53,-159.62 341.73,-159.62"/>
<polygon fill="#63b8ff" stroke="#63b8ff" points="341.63,-163.13 351.63,-159.63 341.63,-156.13 341.63,-163.13"/>
</a>
</g>
</g>
<!-- Node31 -->
<g id="Node000031" class="node">
<title>Node31</title>
<g id="a_Node000031"><a xlink:href="espresso_8c.html#a5afa98a10b7b10f4021fa67400d39f31" target="_top" xlink:title="Retrieve a query parameter as string from the URL.">
<polygon fill="white" stroke="#666666" points="279.38,-93.25 192.12,-93.25 192.12,-74 279.38,-74 279.38,-93.25"/>
<text xml:space="preserve" text-anchor="middle" x="235.75" y="-79.75" font-family="Helvetica,sans-Serif" font-size="10.00">get_query_string</text>
</a>
</g>
</g>
<!-- Node30&#45;&gt;Node31 -->
<g id="edge49_Node000030_Node000031" class="edge">
<title>Node30&#45;&gt;Node31</title>
<g id="a_edge49_Node000030_Node000031"><a xlink:title=" ">
<path fill="none" stroke="#63b8ff" d="M147.9,-83.62C158.11,-83.62 169.45,-83.62 180.47,-83.62"/>
<polygon fill="#63b8ff" stroke="#63b8ff" points="180.27,-87.13 190.27,-83.63 180.27,-80.13 180.27,-87.13"/>
</a>
</g>
</g>
<!-- Node33 -->
<g id="Node000033" class="node">
<title>Node33</title>
<g id="a_Node000033"><a xlink:href="espresso_8c.html#a74fa803b07b95b5f1446ae4bb85f4f0b" target="_top" xlink:title="Sends text response.">
<polygon fill="white" stroke="#666666" points="287.25,-56.25 184.25,-56.25 184.25,-37 287.25,-37 287.25,-56.25"/>
<text xml:space="preserve" text-anchor="middle" x="235.75" y="-42.75" font-family="Helvetica,sans-Serif" font-size="10.00">send_text_response</text>
</a>
</g>
</g>
<!-- Node30&#45;&gt;Node33 -->
<g id="edge51_Node000030_Node000033" class="edge">
<title>Node30&#45;&gt;Node33</title>
<g id="a_edge51_Node000030_Node000033"><a xlink:title=" ">
<path fill="none" stroke="#63b8ff" d="M145.27,-73.51C159.11,-69.35 175.35,-64.48 190.16,-60.02"/>
<polygon fill="#63b8ff" stroke="#63b8ff" points="191.13,-63.39 199.7,-57.16 189.11,-56.68 191.13,-63.39"/>
</a>
</g>
</g>
<!-- Node32 -->
<g id="Node000032" class="node">
<title>Node32</title>
<g id="a_Node000032"><a xlink:href="espresso_8c.html#a87e1508215bb1ffe01b13e14dece5b9c" target="_top" xlink:title="Retrieve a query parameter as a void pointer.">
<polygon fill="white" stroke="#666666" points="412.75,-113.25 354.75,-113.25 354.75,-94 412.75,-94 412.75,-113.25"/>
<text xml:space="preserve" text-anchor="middle" x="383.75" y="-99.75" font-family="Helvetica,sans-Serif" font-size="10.00">get_query</text>
</a>
</g>
</g>
<!-- Node31&#45;&gt;Node32 -->
<g id="edge50_Node000031_Node000032" class="edge">
<title>Node31&#45;&gt;Node32</title>
<g id="a_edge50_Node000031_Node000032"><a xlink:title=" ">
<path fill="none" stroke="#63b8ff" d="M279.77,-89.52C299.78,-92.26 323.44,-95.5 343.03,-98.18"/>
<polygon fill="#63b8ff" stroke="#63b8ff" points="342.45,-101.64 352.83,-99.53 343.4,-94.7 342.45,-101.64"/>
</a>
</g>
</g>
<!-- Node33&#45;&gt;Node23 -->
<g id="edge53_Node000033_Node000023" class="edge">
<title>Node33&#45;&gt;Node23</title>
<g id="a_edge53_Node000033_Node000023"><a xlink:title=" ">
<path fill="none" stroke="#63b8ff" d="M287.47,-52.49C383.1,-65.88 592.43,-106.53 726,-216.62 746.95,-233.9 790.08,-298.44 811.34,-331.24"/>
<polygon fill="#63b8ff" stroke="#63b8ff" points="808.24,-332.89 816.6,-339.4 814.13,-329.09 808.24,-332.89"/>
</a>
</g>
</g>
<!-- Node34 -->
<g id="Node000034" class="node">
<title>Node34</title>
<g id="a_Node000034"><a xlink:href="espresso_8c.html#a61c64a500ef217b0825333b9f35234e3" target="_top" xlink:title=" ">
<polygon fill="white" stroke="#666666" points="444.25,-37.25 323.25,-37.25 323.25,-18 444.25,-18 444.25,-37.25"/>
<text xml:space="preserve" text-anchor="middle" x="383.75" y="-23.75" font-family="Helvetica,sans-Serif" font-size="10.00">build_response_headers</text>
</a>
</g>
</g>
<!-- Node33&#45;&gt;Node34 -->
<g id="edge52_Node000033_Node000034" class="edge">
<title>Node33&#45;&gt;Node34</title>
<g id="a_edge52_Node000033_Node000034"><a xlink:title=" ">
<path fill="none" stroke="#63b8ff" d="M287.4,-40.03C295.27,-39.01 303.53,-37.93 311.75,-36.86"/>
<polygon fill="#63b8ff" stroke="#63b8ff" points="311.93,-40.37 321.4,-35.61 311.03,-33.43 311.93,-40.37"/>
</a>
</g>
</g>
<!-- Node35&#45;&gt;Node33 -->
<g id="edge55_Node000035_Node000033" class="edge">
<title>Node35&#45;&gt;Node33</title>
<g id="a_edge55_Node000035_Node000033"><a xlink:title=" ">
<path fill="none" stroke="#63b8ff" d="M148.57,-46.62C156.26,-46.62 164.57,-46.62 172.89,-46.62"/>
<polygon fill="#63b8ff" stroke="#63b8ff" points="172.66,-50.13 182.66,-46.63 172.66,-43.13 172.66,-50.13"/>
</a>
</g>
</g>
</g>
</svg>
