<?xml version="1.0" encoding="UTF-8" standalone="no"?>
<!DOCTYPE svg PUBLIC "-//W3C//DTD SVG 1.1//EN"
 "http://www.w3.org/Graphics/SVG/1.1/DTD/svg11.dtd">
<!-- Generated by graphviz version 14.0.5 (0)
 -->
<!-- Title: index_handler Pages: 1 -->
<svg width="507pt" height="64pt"
 viewBox="0.00 0.00 507.00 64.00" xmlns="http://www.w3.org/2000/svg" xmlns:xlink="http://www.w3.org/1999/xlink">
<g id="graph0" class="graph" transform="scale(1 1) rotate(0) translate(4 60.25)">
<title>index_handler</title>
<!-- Node1 -->
<g id="Node000001" class="node">
<title>Node1</title>
<g id="a_Node000001"><a xlink:title=" ">
<polygon fill="#999999" stroke="#666666" points="75.25,-37.25 0,-37.25 0,-18 75.25,-18 75.25,-37.25"/>
<text xml:space="preserve" text-anchor="middle" x="37.62" y="-23.75" font-family="Helvetica,sans-Serif" font-size="10.00">index_handler</text>
</a>
</g>
</g>
<!-- Node2 -->
<g id="Node000002" class="node">
<title>Node2</title>
<g id="a_Node000002"><a xlink:href="espresso_8c.html#a74fa803b07b95b5f1446ae4bb85f4f0b" target="_top" xlink:title="Sends text response.">
<polygon fill="white" stroke="#666666" points="214.25,-37.25 111.25,-37.25 111.25,-18 214.25,-18 214.25,-37.25"/>
<text xml:space="preserve" text-anchor="middle" x="162.75" y="-23.75" font-family="Helvetica,sans-Serif" font-size="10.00">send_text_response</text>
</a>
</g>
</g>
<!-- Node1&#45;&gt;Node2 -->
<g id="edge1_Node000001_Node000002" class="edge">
<title>Node1&#45;&gt;Node2</title>
<g id="a_edge1_Node000001_Node000002"><a xlink:title=" ">
<path fill="none" stroke="#63b8ff" d="M75.57,-27.62C83.26,-27.62 91.57,-27.62 99.89,-27.62"/>
<polygon fill="#63b8ff" stroke="#63b8ff" points="99.66,-31.13 109.66,-27.63 99.66,-24.13 99.66,-31.13"/>
</a>
</g>
</g>
<!-- Node3 -->
<g id="Node000003" class="node">
<title>Node3</title>
<g id="a_Node000003"><a xlink:href="espresso_8c.html#a61c64a500ef217b0825333b9f35234e3" target="_top" xlink:title=" ">
<polygon fill="white" stroke="#666666" points="371.25,-56.25 250.25,-56.25 250.25,-37 371.25,-37 371.25,-56.25"/>
<text xml:space="preserve" text-anchor="middle" x="310.75" y="-42.75" font-family="Helvetica,sans-Serif" font-size="10.00">build_response_headers</text>
</a>
</g>
</g>
<!-- Node2&#45;&gt;Node3 -->
<g id="edge2_Node000002_Node000003" class="edge">
<title>Node2&#45;&gt;Node3</title>
<g id="a_edge2_Node000002_Node000003"><a xlink:title=" ">
<path fill="none" stroke="#63b8ff" d="M214.4,-34.22C222.27,-35.24 230.53,-36.32 238.75,-37.39"/>
<polygon fill="#63b8ff" stroke="#63b8ff" points="238.03,-40.82 248.4,-38.64 238.93,-33.88 238.03,-40.82"/>
</a>
</g>
</g>
<!-- Node4 -->
<g id="Node000004" class="node">
<title>Node4</title>
<g id="a_Node000004"><a xlink:href="espresso_8c.html#a142b429010a8046d339d36552bd20f7e" target="_top" xlink:title=" ">
<polygon fill="white" stroke="#666666" points="351.75,-19.25 269.75,-19.25 269.75,0 351.75,0 351.75,-19.25"/>
<text xml:space="preserve" text-anchor="middle" x="310.75" y="-5.75" font-family="Helvetica,sans-Serif" font-size="10.00">send_message</text>
</a>
</g>
</g>
<!-- Node2&#45;&gt;Node4 -->
<g id="edge3_Node000002_Node000004" class="edge">
<title>Node2&#45;&gt;Node4</title>
<g id="a_edge3_Node000002_Node000004"><a xlink:title=" ">
<path fill="none" stroke="#63b8ff" d="M214.4,-21.38C228.57,-19.63 243.98,-17.73 258.2,-15.98"/>
<polygon fill="#63b8ff" stroke="#63b8ff" points="258.3,-19.49 267.8,-14.8 257.45,-12.55 258.3,-19.49"/>
</a>
</g>
</g>
<!-- Node5 -->
<g id="Node000005" class="node">
<title>Node5</title>
<g id="a_Node000005"><a xlink:href="espresso_8c.html#a5fa30991ad104ba1fe0001e7aefe95ac" target="_top" xlink:title=" ">
<polygon fill="white" stroke="#666666" points="499,-19.25 407.25,-19.25 407.25,0 499,0 499,-19.25"/>
<text xml:space="preserve" text-anchor="middle" x="453.12" y="-5.75" font-family="Helvetica,sans-Serif" font-size="10.00">handle_write_end</text>
</a>
</g>
</g>
<!-- Node4&#45;&gt;Node5 -->
<g id="edge4_Node000004_Node000005" class="edge">
<title>Node4&#45;&gt;Node5</title>
<g id="a_edge4_Node000004_Node000005"><a xlink:title=" ">
<path fill="none" stroke="#63b8ff" d="M351.98,-9.62C365.53,-9.62 380.92,-9.62 395.49,-9.62"/>
<polygon fill="#63b8ff" stroke="#63b8ff" points="395.44,-13.13 405.44,-9.63 395.44,-6.13 395.44,-13.13"/>
</a>
</g>
</g>
</g>
</svg>
