<?xml version="1.0" encoding="UTF-8" standalone="no"?>
<!DOCTYPE svg PUBLIC "-//W3C//DTD SVG 1.1//EN"
 "http://www.w3.org/Graphics/SVG/1.1/DTD/svg11.dtd">
<!-- Generated by graphviz version 14.0.5 (0)
 -->
<!-- Title: main Pages: 1 -->
<svg width="1195pt" height="310pt"
 viewBox="0.00 0.00 1195.00 310.00" xmlns="http://www.w3.org/2000/svg" xmlns:xlink="http://www.w3.org/1999/xlink">
<g id="graph0" class="graph" transform="scale(1 1) rotate(0) translate(4 306.25)">
<title>main</title>
<!-- Node1 -->
<g id="Node000001" class="node">
<title>Node1</title>
<g id="a_Node000001"><a xlink:title=" ">
<polygon fill="#999999" stroke="#666666" points="37,-150.25 0,-150.25 0,-131 37,-131 37,-150.25"/>
<text xml:space="preserve" text-anchor="middle" x="18.5" y="-136.75" font-family="Helvetica,sans-Serif" font-size="10.00">main</text>
</a>
</g>
</g>
<!-- Node2 -->
<g id="Node000002" class="node">
<title>Node2</title>
<g id="a_Node000002"><a xlink:href="espresso_8c.html#a3489a7e521f0aceb3e050ca4b9f165d7" target="_top" xlink:title="Closes the app and frees resources.">
<polygon fill="white" stroke="#666666" points="413.88,-283.25 353.62,-283.25 353.62,-264 413.88,-264 413.88,-283.25"/>
<text xml:space="preserve" text-anchor="middle" x="383.75" y="-269.75" font-family="Helvetica,sans-Serif" font-size="10.00">app_close</text>
</a>
</g>
</g>
<!-- Node1&#45;&gt;Node2 -->
<g id="edge1_Node000001_Node000002" class="edge">
<title>Node1&#45;&gt;Node2</title>
<g id="a_edge1_Node000001_Node000002"><a xlink:title=" ">
<path fill="none" stroke="#63b8ff" d="M23.53,-150.67C30.76,-167.3 47.59,-200.35 73,-216.62 157.13,-270.52 278.97,-276.51 341.82,-275.53"/>
<polygon fill="#63b8ff" stroke="#63b8ff" points="341.79,-279.04 351.7,-275.3 341.62,-272.04 341.79,-279.04"/>
</a>
</g>
</g>
<!-- Node7 -->
<g id="Node000007" class="node">
<title>Node7</title>
<g id="a_Node000007"><a xlink:href="espresso_8c.html#a0ba22157d15a70c4c22441b040bb0f74" target="_top" xlink:title="Starts the HTTP server loop.">
<polygon fill="white" stroke="#666666" points="140.75,-170.25 80.5,-170.25 80.5,-151 140.75,-151 140.75,-170.25"/>
<text xml:space="preserve" text-anchor="middle" x="110.62" y="-156.75" font-family="Helvetica,sans-Serif" font-size="10.00">app_listen</text>
</a>
</g>
</g>
<!-- Node1&#45;&gt;Node7 -->
<g id="edge6_Node000001_Node000007" class="edge">
<title>Node1&#45;&gt;Node7</title>
<g id="a_edge6_Node000001_Node000007"><a xlink:title=" ">
<path fill="none" stroke="#63b8ff" d="M37.31,-144.58C46.46,-146.61 58.02,-149.17 69.2,-151.65"/>
<polygon fill="#63b8ff" stroke="#63b8ff" points="68.15,-155.01 78.67,-153.76 69.67,-148.17 68.15,-155.01"/>
</a>
</g>
</g>
<!-- Node23 -->
<g id="Node000023" class="node">
<title>Node23</title>
<g id="a_Node000023"><a xlink:href="espresso_8c.html#afb20611531d08699d86a03c1ad97f079" target="_top" xlink:title="Adds a global middleware.">
<polygon fill="white" stroke="#666666" points="137,-57.25 84.25,-57.25 84.25,-38 137,-38 137,-57.25"/>
<text xml:space="preserve" text-anchor="middle" x="110.62" y="-43.75" font-family="Helvetica,sans-Serif" font-size="10.00">app_use</text>
</a>
</g>
</g>
<!-- Node1&#45;&gt;Node23 -->
<g id="edge27_Node000001_Node000023" class="edge">
<title>Node1&#45;&gt;Node23</title>
<g id="a_edge27_Node000001_Node000023"><a xlink:title=" ">
<path fill="none" stroke="#63b8ff" d="M24.49,-130.68C32.74,-115.08 50.57,-84.67 73,-65.62 73.78,-64.96 74.59,-64.32 75.42,-63.69"/>
<polygon fill="#63b8ff" stroke="#63b8ff" points="77.09,-66.78 83.66,-58.46 73.34,-60.86 77.09,-66.78"/>
</a>
</g>
</g>
<!-- Node24 -->
<g id="Node000024" class="node">
<title>Node24</title>
<g id="a_Node000024"><a xlink:href="espresso_8c.html#a54c30f08a1b67315ac3195d1a7fac35f" target="_top" xlink:title="Creates a new Espresso app on the specified port.">
<polygon fill="white" stroke="#666666" points="142.62,-207.25 78.62,-207.25 78.62,-188 142.62,-188 142.62,-207.25"/>
<text xml:space="preserve" text-anchor="middle" x="110.62" y="-193.75" font-family="Helvetica,sans-Serif" font-size="10.00">create_app</text>
</a>
</g>
</g>
<!-- Node1&#45;&gt;Node24 -->
<g id="edge28_Node000001_Node000024" class="edge">
<title>Node1&#45;&gt;Node24</title>
<g id="a_edge28_Node000001_Node000024"><a xlink:title=" ">
<path fill="none" stroke="#63b8ff" d="M31.83,-150.56C42.41,-158.85 58.24,-170.71 73,-179.62 74.44,-180.49 75.93,-181.36 77.44,-182.21"/>
<polygon fill="#63b8ff" stroke="#63b8ff" points="75.79,-185.29 86.26,-186.86 79.05,-179.1 75.79,-185.29"/>
</a>
</g>
</g>
<!-- Node26 -->
<g id="Node000026" class="node">
<title>Node26</title>
<g id="a_Node000026"><a xlink:href="main_8c.html#a3567783714153d35ee83fd6de55968d1" target="_top" xlink:title=" ">
<polygon fill="white" stroke="#666666" points="147.5,-94.25 73.75,-94.25 73.75,-75 147.5,-75 147.5,-94.25"/>
<text xml:space="preserve" text-anchor="middle" x="110.62" y="-80.75" font-family="Helvetica,sans-Serif" font-size="10.00">echo_handler</text>
</a>
</g>
</g>
<!-- Node1&#45;&gt;Node26 -->
<g id="edge31_Node000001_Node000026" class="edge">
<title>Node1&#45;&gt;Node26</title>
<g id="a_edge31_Node000001_Node000026"><a xlink:title=" ">
<path fill="none" stroke="#63b8ff" d="M32.82,-130.71C43.46,-122.97 58.87,-112.13 73,-103.62 75.01,-102.41 77.11,-101.2 79.24,-100"/>
<polygon fill="#63b8ff" stroke="#63b8ff" points="80.75,-103.17 87.89,-95.35 77.43,-97.01 80.75,-103.17"/>
</a>
</g>
</g>
<!-- Node31 -->
<g id="Node000031" class="node">
<title>Node31</title>
<g id="a_Node000031"><a xlink:href="main_8c.html#a036dbf8db2f30bf4fb436fcc8ea138c7" target="_top" xlink:title=" ">
<polygon fill="white" stroke="#666666" points="148.25,-132.25 73,-132.25 73,-113 148.25,-113 148.25,-132.25"/>
<text xml:space="preserve" text-anchor="middle" x="110.62" y="-118.75" font-family="Helvetica,sans-Serif" font-size="10.00">index_handler</text>
</a>
</g>
</g>
<!-- Node1&#45;&gt;Node31 -->
<g id="edge37_Node000001_Node000031" class="edge">
<title>Node1&#45;&gt;Node31</title>
<g id="a_edge37_Node000001_Node000031"><a xlink:title=" ">
<path fill="none" stroke="#63b8ff" d="M37.31,-137.07C44.45,-135.64 53.05,-133.92 61.8,-132.18"/>
<polygon fill="#63b8ff" stroke="#63b8ff" points="62.24,-135.66 71.36,-130.27 60.87,-128.79 62.24,-135.66"/>
</a>
</g>
</g>
<!-- Node3 -->
<g id="Node000003" class="node">
<title>Node3</title>
<g id="a_Node000003"><a xlink:href="espresso_8c.html#a73277811539a2de04ce7e1295fbdba6a" target="_top" xlink:title=" ">
<polygon fill="white" stroke="#666666" points="685.5,-284.25 593.75,-284.25 593.75,-265 685.5,-265 685.5,-284.25"/>
<text xml:space="preserve" text-anchor="middle" x="639.62" y="-270.75" font-family="Helvetica,sans-Serif" font-size="10.00">close_connection</text>
</a>
</g>
</g>
<!-- Node2&#45;&gt;Node3 -->
<g id="edge2_Node000002_Node000003" class="edge">
<title>Node2&#45;&gt;Node3</title>
<g id="a_edge2_Node000002_Node000003"><a xlink:title=" ">
<path fill="none" stroke="#63b8ff" d="M414.37,-273.74C455.35,-273.9 530.15,-274.2 582.03,-274.4"/>
<polygon fill="#63b8ff" stroke="#63b8ff" points="581.86,-277.9 591.87,-274.44 581.89,-270.9 581.86,-277.9"/>
</a>
</g>
</g>
<!-- Node4 -->
<g id="Node000004" class="node">
<title>Node4</title>
<g id="a_Node000004"><a xlink:href="espresso_8c.html#aaf78724518167158b66ec656312fabd2" target="_top" xlink:title=" ">
<polygon fill="white" stroke="#666666" points="850.75,-284.25 725.25,-284.25 725.25,-265 850.75,-265 850.75,-284.25"/>
<text xml:space="preserve" text-anchor="middle" x="788" y="-270.75" font-family="Helvetica,sans-Serif" font-size="10.00">handle_connection_close</text>
</a>
</g>
</g>
<!-- Node3&#45;&gt;Node4 -->
<g id="edge3_Node000003_Node000004" class="edge">
<title>Node3&#45;&gt;Node4</title>
<g id="a_edge3_Node000003_Node000004"><a xlink:title=" ">
<path fill="none" stroke="#63b8ff" d="M685.74,-274.62C694.52,-274.62 703.93,-274.62 713.35,-274.62"/>
<polygon fill="#63b8ff" stroke="#63b8ff" points="713.3,-278.13 723.3,-274.63 713.3,-271.13 713.3,-278.13"/>
</a>
</g>
</g>
<!-- Node5 -->
<g id="Node000005" class="node">
<title>Node5</title>
<g id="a_Node000005"><a xlink:href="espresso_8c.html#a1804ce3a25646fd9c6c6ad98d45c6efa" target="_top" xlink:title=" ">
<polygon fill="white" stroke="#666666" points="978.5,-302.25 886.75,-302.25 886.75,-283 978.5,-283 978.5,-302.25"/>
<text xml:space="preserve" text-anchor="middle" x="932.62" y="-288.75" font-family="Helvetica,sans-Serif" font-size="10.00">endpoint_cleanup</text>
</a>
</g>
</g>
<!-- Node4&#45;&gt;Node5 -->
<g id="edge4_Node000004_Node000005" class="edge">
<title>Node4&#45;&gt;Node5</title>
<g id="a_edge4_Node000004_Node000005"><a xlink:title=" ">
<path fill="none" stroke="#63b8ff" d="M851.14,-282.47C859.11,-283.47 867.24,-284.5 875.11,-285.49"/>
<polygon fill="#63b8ff" stroke="#63b8ff" points="874.55,-288.95 884.91,-286.73 875.43,-282.01 874.55,-288.95"/>
</a>
</g>
</g>
<!-- Node6 -->
<g id="Node000006" class="node">
<title>Node6</title>
<g id="a_Node000006"><a xlink:href="espresso_8c.html#a837cf67658f96fc262c83a4882f96f45" target="_top" xlink:title=" ">
<polygon fill="white" stroke="#666666" points="971,-265.25 894.25,-265.25 894.25,-246 971,-246 971,-265.25"/>
<text xml:space="preserve" text-anchor="middle" x="932.62" y="-251.75" font-family="Helvetica,sans-Serif" font-size="10.00">remove_client</text>
</a>
</g>
</g>
<!-- Node4&#45;&gt;Node6 -->
<g id="edge5_Node000004_Node000006" class="edge">
<title>Node4&#45;&gt;Node6</title>
<g id="a_edge5_Node000004_Node000006"><a xlink:title=" ">
<path fill="none" stroke="#63b8ff" d="M851.14,-266.35C861.72,-264.94 872.58,-263.49 882.75,-262.14"/>
<polygon fill="#63b8ff" stroke="#63b8ff" points="882.95,-265.64 892.4,-260.85 882.03,-258.7 882.95,-265.64"/>
</a>
</g>
</g>
<!-- Node8 -->
<g id="Node000008" class="node">
<title>Node8</title>
<g id="a_Node000008"><a xlink:href="espresso_8c.html#a90f2058b8890cfb99e6f595b8f066919" target="_top" xlink:title=" ">
<polygon fill="white" stroke="#666666" points="284.25,-170.25 187.25,-170.25 187.25,-151 284.25,-151 284.25,-170.25"/>
<text xml:space="preserve" text-anchor="middle" x="235.75" y="-156.75" font-family="Helvetica,sans-Serif" font-size="10.00">handle_connection</text>
</a>
</g>
</g>
<!-- Node7&#45;&gt;Node8 -->
<g id="edge7_Node000007_Node000008" class="edge">
<title>Node7&#45;&gt;Node8</title>
<g id="a_edge7_Node000007_Node000008"><a xlink:title=" ">
<path fill="none" stroke="#63b8ff" d="M141.12,-160.62C151.47,-160.62 163.5,-160.62 175.42,-160.62"/>
<polygon fill="#63b8ff" stroke="#63b8ff" points="175.24,-164.13 185.24,-160.63 175.24,-157.13 175.24,-164.13"/>
</a>
</g>
</g>
<!-- Node8&#45;&gt;Node3 -->
<g id="edge10_Node000008_Node000003" class="edge">
<title>Node8&#45;&gt;Node3</title>
<g id="a_edge10_Node000008_Node000003"><a xlink:title=" ">
<path fill="none" stroke="#63b8ff" d="M271.73,-170.65C277.14,-172.88 282.49,-175.53 287.25,-178.62 306.74,-191.32 302.8,-205.53 323.25,-216.62 367.09,-240.41 504.07,-259.32 582.33,-268.52"/>
<polygon fill="#63b8ff" stroke="#63b8ff" points="581.59,-271.96 591.92,-269.63 582.39,-265 581.59,-271.96"/>
</a>
</g>
</g>
<!-- Node9 -->
<g id="Node000009" class="node">
<title>Node9</title>
<g id="a_Node000009"><a xlink:href="espresso_8c.html#a16da648ec46c63111e6d0f16c8c861d3" target="_top" xlink:title=" ">
<polygon fill="white" stroke="#666666" points="413.88,-170.25 353.62,-170.25 353.62,-151 413.88,-151 413.88,-170.25"/>
<text xml:space="preserve" text-anchor="middle" x="383.75" y="-156.75" font-family="Helvetica,sans-Serif" font-size="10.00">add_client</text>
</a>
</g>
</g>
<!-- Node8&#45;&gt;Node9 -->
<g id="edge8_Node000008_Node000009" class="edge">
<title>Node8&#45;&gt;Node9</title>
<g id="a_edge8_Node000008_Node000009"><a xlink:title=" ">
<path fill="none" stroke="#63b8ff" d="M284.56,-160.62C303.02,-160.62 323.94,-160.62 341.71,-160.62"/>
<polygon fill="#63b8ff" stroke="#63b8ff" points="341.65,-164.13 351.65,-160.63 341.65,-157.13 341.65,-164.13"/>
</a>
</g>
</g>
<!-- Node10 -->
<g id="Node000010" class="node">
<title>Node10</title>
<g id="a_Node000010"><a xlink:href="espresso_8c.html#afc4191b175ae67f2d0d5b264caa6d08a" target="_top" xlink:title=" ">
<polygon fill="white" stroke="#666666" points="423.25,-133.25 344.25,-133.25 344.25,-114 423.25,-114 423.25,-133.25"/>
<text xml:space="preserve" text-anchor="middle" x="383.75" y="-119.75" font-family="Helvetica,sans-Serif" font-size="10.00">allocate_buffer</text>
</a>
</g>
</g>
<!-- Node8&#45;&gt;Node10 -->
<g id="edge9_Node000008_Node000010" class="edge">
<title>Node8&#45;&gt;Node10</title>
<g id="a_edge9_Node000008_Node000010"><a xlink:title=" ">
<path fill="none" stroke="#63b8ff" d="M276.65,-150.51C293.98,-146.12 314.49,-140.92 332.82,-136.28"/>
<polygon fill="#63b8ff" stroke="#63b8ff" points="333.61,-139.69 342.45,-133.84 331.89,-132.9 333.61,-139.69"/>
</a>
</g>
</g>
<!-- Node11 -->
<g id="Node000011" class="node">
<title>Node11</title>
<g id="a_Node000011"><a xlink:href="espresso_8c.html#a919e9a8a992f43f0fd82e87f4d40d2d2" target="_top" xlink:title=" ">
<polygon fill="white" stroke="#666666" points="432.25,-207.25 335.25,-207.25 335.25,-188 432.25,-188 432.25,-207.25"/>
<text xml:space="preserve" text-anchor="middle" x="383.75" y="-193.75" font-family="Helvetica,sans-Serif" font-size="10.00">handle_client_read</text>
</a>
</g>
</g>
<!-- Node8&#45;&gt;Node11 -->
<g id="edge11_Node000008_Node000011" class="edge">
<title>Node8&#45;&gt;Node11</title>
<g id="a_edge11_Node000008_Node000011"><a xlink:title=" ">
<path fill="none" stroke="#63b8ff" d="M276.65,-170.74C293.71,-175.06 313.83,-180.16 331.93,-184.75"/>
<polygon fill="#63b8ff" stroke="#63b8ff" points="330.88,-188.09 341.44,-187.15 332.6,-181.31 330.88,-188.09"/>
</a>
</g>
</g>
<!-- Node12 -->
<g id="Node000012" class="node">
<title>Node12</title>
<g id="a_Node000012"><a xlink:href="espresso_8c.html#a2a7b96459e0adac1061eaec6a5722075" target="_top" xlink:title=" ">
<polygon fill="white" stroke="#666666" points="554,-207.25 480.25,-207.25 480.25,-188 554,-188 554,-207.25"/>
<text xml:space="preserve" text-anchor="middle" x="517.12" y="-193.75" font-family="Helvetica,sans-Serif" font-size="10.00">handle_buffer</text>
</a>
</g>
</g>
<!-- Node11&#45;&gt;Node12 -->
<g id="edge12_Node000011_Node000012" class="edge">
<title>Node11&#45;&gt;Node12</title>
<g id="a_edge12_Node000011_Node000012"><a xlink:title=" ">
<path fill="none" stroke="#63b8ff" d="M432.55,-197.62C444.33,-197.62 456.93,-197.62 468.69,-197.62"/>
<polygon fill="#63b8ff" stroke="#63b8ff" points="468.59,-201.13 478.59,-197.63 468.59,-194.13 468.59,-201.13"/>
</a>
</g>
</g>
<!-- Node12&#45;&gt;Node3 -->
<g id="edge13_Node000012_Node000003" class="edge">
<title>Node12&#45;&gt;Node3</title>
<g id="a_edge13_Node000012_Node000003"><a xlink:title=" ">
<path fill="none" stroke="#63b8ff" d="M533.69,-207.61C540.08,-211.81 547.48,-216.83 554,-221.62 570.55,-233.79 572.68,-239.57 590,-250.62 594.93,-253.77 600.34,-256.81 605.69,-259.6"/>
<polygon fill="#63b8ff" stroke="#63b8ff" points="603.93,-262.63 614.44,-263.96 607.05,-256.36 603.93,-262.63"/>
</a>
</g>
</g>
<!-- Node13 -->
<g id="Node000013" class="node">
<title>Node13</title>
<g id="a_Node000013"><a xlink:href="espresso_8c.html#aca61aa31ed57abce18d1d3cffd0d47e3" target="_top" xlink:title=" ">
<polygon fill="white" stroke="#666666" points="845.88,-246.25 730.12,-246.25 730.12,-227 845.88,-227 845.88,-246.25"/>
<text xml:space="preserve" text-anchor="middle" x="788" y="-232.75" font-family="Helvetica,sans-Serif" font-size="10.00">generate_allow_header</text>
</a>
</g>
</g>
<!-- Node12&#45;&gt;Node13 -->
<g id="edge14_Node000012_Node000013" class="edge">
<title>Node12&#45;&gt;Node13</title>
<g id="a_edge14_Node000012_Node000013"><a xlink:title=" ">
<path fill="none" stroke="#63b8ff" d="M549.69,-207.7C562.14,-211.33 576.63,-215.14 590,-217.62 632.25,-225.48 680.23,-230.19 718.27,-232.96"/>
<polygon fill="#63b8ff" stroke="#63b8ff" points="718,-236.45 728.22,-233.65 718.49,-229.47 718,-236.45"/>
</a>
</g>
</g>
<!-- Node14 -->
<g id="Node000014" class="node">
<title>Node14</title>
<g id="a_Node000014"><a xlink:href="espresso_8c.html#a373b955efab67a13fdc71105c53aa5d5" target="_top" xlink:title="ONLY FOR UNIT TESTS.">
<polygon fill="white" stroke="#666666" points="682.88,-208.25 596.38,-208.25 596.38,-189 682.88,-189 682.88,-208.25"/>
<text xml:space="preserve" text-anchor="middle" x="639.62" y="-194.75" font-family="Helvetica,sans-Serif" font-size="10.00">handle_endpoint</text>
</a>
</g>
</g>
<!-- Node12&#45;&gt;Node14 -->
<g id="edge15_Node000012_Node000014" class="edge">
<title>Node12&#45;&gt;Node14</title>
<g id="a_edge15_Node000012_Node000014"><a xlink:title=" ">
<path fill="none" stroke="#63b8ff" d="M554.28,-197.93C563.85,-198 574.39,-198.09 584.68,-198.18"/>
<polygon fill="#63b8ff" stroke="#63b8ff" points="584.59,-201.68 594.62,-198.26 584.65,-194.68 584.59,-201.68"/>
</a>
</g>
</g>
<!-- Node20 -->
<g id="Node000020" class="node">
<title>Node20</title>
<g id="a_Node000020"><a xlink:href="espresso_8c.html#a142b429010a8046d339d36552bd20f7e" target="_top" xlink:title=" ">
<polygon fill="white" stroke="#666666" points="829,-133.25 747,-133.25 747,-114 829,-114 829,-133.25"/>
<text xml:space="preserve" text-anchor="middle" x="788" y="-119.75" font-family="Helvetica,sans-Serif" font-size="10.00">send_message</text>
</a>
</g>
</g>
<!-- Node12&#45;&gt;Node20 -->
<g id="edge26_Node000012_Node000020" class="edge">
<title>Node12&#45;&gt;Node20</title>
<g id="a_edge26_Node000012_Node000020"><a xlink:title=" ">
<path fill="none" stroke="#63b8ff" d="M554.39,-187.65C602.3,-174.46 686.78,-151.21 739.67,-136.65"/>
<polygon fill="#63b8ff" stroke="#63b8ff" points="740.28,-140.11 748.99,-134.08 738.42,-133.36 740.28,-140.11"/>
</a>
</g>
</g>
<!-- Node22 -->
<g id="Node000022" class="node">
<title>Node22</title>
<g id="a_Node000022"><a xlink:href="espresso_8c.html#a8ddc375ff20a190089968e04405e0a70" target="_top" xlink:title="ONLY FOR UNIT TESTS.">
<polygon fill="white" stroke="#666666" points="689.25,-132.25 590,-132.25 590,-113 689.25,-113 689.25,-132.25"/>
<text xml:space="preserve" text-anchor="middle" x="639.62" y="-118.75" font-family="Helvetica,sans-Serif" font-size="10.00">parse_http_request</text>
</a>
</g>
</g>
<!-- Node12&#45;&gt;Node22 -->
<g id="edge24_Node000012_Node000022" class="edge">
<title>Node12&#45;&gt;Node22</title>
<g id="a_edge24_Node000012_Node000022"><a xlink:title=" ">
<path fill="none" stroke="#63b8ff" d="M530.95,-187.58C545.01,-176.79 568.45,-159.48 590,-146.62 595.12,-143.57 600.69,-140.55 606.17,-137.75"/>
<polygon fill="#63b8ff" stroke="#63b8ff" points="607.69,-140.9 615.09,-133.33 604.58,-134.63 607.69,-140.9"/>
</a>
</g>
</g>
<!-- Node14&#45;&gt;Node13 -->
<g id="edge17_Node000014_Node000013" class="edge">
<title>Node14&#45;&gt;Node13</title>
<g id="a_edge17_Node000014_Node000013"><a xlink:title=" ">
<path fill="none" stroke="#63b8ff" d="M679.47,-208.71C697.15,-213.3 718.3,-218.79 737.15,-223.68"/>
<polygon fill="#63b8ff" stroke="#63b8ff" points="736.21,-227.05 746.77,-226.18 737.97,-220.28 736.21,-227.05"/>
</a>
</g>
</g>
<!-- Node15 -->
<g id="Node000015" class="node">
<title>Node15</title>
<g id="a_Node000015"><a xlink:href="espresso_8c.html#a04c27c6493696fb67ab9b8f5296c14f1" target="_top" xlink:title="ONLY FOR UNIT TESTS.">
<polygon fill="white" stroke="#666666" points="829.38,-208.25 746.62,-208.25 746.62,-189 829.38,-189 829.38,-208.25"/>
<text xml:space="preserve" text-anchor="middle" x="788" y="-194.75" font-family="Helvetica,sans-Serif" font-size="10.00">compare_paths</text>
</a>
</g>
</g>
<!-- Node14&#45;&gt;Node15 -->
<g id="edge16_Node000014_Node000015" class="edge">
<title>Node14&#45;&gt;Node15</title>
<g id="a_edge16_Node000014_Node000015"><a xlink:title=" ">
<path fill="none" stroke="#63b8ff" d="M683.36,-198.62C699.54,-198.62 718.13,-198.62 735.07,-198.62"/>
<polygon fill="#63b8ff" stroke="#63b8ff" points="734.96,-202.13 744.96,-198.63 734.96,-195.13 734.96,-202.13"/>
</a>
</g>
</g>
<!-- Node16 -->
<g id="Node000016" class="node">
<title>Node16</title>
<g id="a_Node000016"><a xlink:href="espresso_8c.html#a260a9eca1b37d7151fd585fde9e355b8" target="_top" xlink:title="ONLY FOR UNIT TESTS.">
<polygon fill="white" stroke="#666666" points="841,-171.25 735,-171.25 735,-152 841,-152 841,-171.25"/>
<text xml:space="preserve" text-anchor="middle" x="788" y="-157.75" font-family="Helvetica,sans-Serif" font-size="10.00">parse_query_params</text>
</a>
</g>
</g>
<!-- Node14&#45;&gt;Node16 -->
<g id="edge18_Node000014_Node000016" class="edge">
<title>Node14&#45;&gt;Node16</title>
<g id="a_edge18_Node000014_Node000016"><a xlink:title=" ">
<path fill="none" stroke="#63b8ff" d="M680.62,-188.51C697.73,-184.19 717.9,-179.09 736.05,-174.5"/>
<polygon fill="#63b8ff" stroke="#63b8ff" points="736.75,-177.94 745.58,-172.09 735.03,-171.15 736.75,-177.94"/>
</a>
</g>
</g>
<!-- Node14&#45;&gt;Node20 -->
<g id="edge22_Node000014_Node000020" class="edge">
<title>Node14&#45;&gt;Node20</title>
<g id="a_edge22_Node000014_Node000020"><a xlink:title=" ">
<path fill="none" stroke="#63b8ff" d="M664.09,-188.61C672.31,-184.69 681.44,-179.88 689.25,-174.62 707.01,-162.67 706.59,-153.12 725.25,-142.62 728.68,-140.7 732.32,-138.94 736.07,-137.34"/>
<polygon fill="#63b8ff" stroke="#63b8ff" points="737.25,-140.64 745.35,-133.8 734.76,-134.1 737.25,-140.64"/>
</a>
</g>
</g>
<!-- Node17 -->
<g id="Node000017" class="node">
<title>Node17</title>
<g id="a_Node000017"><a xlink:href="espresso_8c.html#a2d9a0717a9389e6d178d0f4a8c2ef185" target="_top" xlink:title=" ">
<polygon fill="white" stroke="#666666" points="970.62,-171.25 894.62,-171.25 894.62,-152 970.62,-152 970.62,-171.25"/>
<text xml:space="preserve" text-anchor="middle" x="932.62" y="-157.75" font-family="Helvetica,sans-Serif" font-size="10.00">append_query</text>
</a>
</g>
</g>
<!-- Node16&#45;&gt;Node17 -->
<g id="edge19_Node000016_Node000017" class="edge">
<title>Node16&#45;&gt;Node17</title>
<g id="a_edge19_Node000016_Node000017"><a xlink:title=" ">
<path fill="none" stroke="#63b8ff" d="M841.3,-161.62C854.95,-161.62 869.6,-161.62 883.05,-161.62"/>
<polygon fill="#63b8ff" stroke="#63b8ff" points="882.99,-165.13 892.99,-161.63 882.99,-158.13 882.99,-165.13"/>
</a>
</g>
</g>
<!-- Node18 -->
<g id="Node000018" class="node">
<title>Node18</title>
<g id="a_Node000018"><a xlink:href="espresso_8c.html#a755a65a488e1158eee3fdab0ecada8fe" target="_top" xlink:title=" ">
<polygon fill="white" stroke="#666666" points="1090.5,-171.25 1014.5,-171.25 1014.5,-152 1090.5,-152 1090.5,-171.25"/>
<text xml:space="preserve" text-anchor="middle" x="1052.5" y="-157.75" font-family="Helvetica,sans-Serif" font-size="10.00">decode_query</text>
</a>
</g>
</g>
<!-- Node17&#45;&gt;Node18 -->
<g id="edge20_Node000017_Node000018" class="edge">
<title>Node17&#45;&gt;Node18</title>
<g id="a_edge20_Node000017_Node000018"><a xlink:title=" ">
<path fill="none" stroke="#63b8ff" d="M970.92,-161.62C981.03,-161.62 992.12,-161.62 1002.75,-161.62"/>
<polygon fill="#63b8ff" stroke="#63b8ff" points="1002.53,-165.13 1012.53,-161.63 1002.53,-158.13 1002.53,-165.13"/>
</a>
</g>
</g>
<!-- Node19 -->
<g id="Node000019" class="node">
<title>Node19</title>
<g id="a_Node000019"><a xlink:href="espresso_8c.html#af4a5274d4719dec853dd32e1d8687553" target="_top" xlink:title=" ">
<polygon fill="white" stroke="#666666" points="1186.75,-171.25 1126.5,-171.25 1126.5,-152 1186.75,-152 1186.75,-171.25"/>
<text xml:space="preserve" text-anchor="middle" x="1156.62" y="-157.75" font-family="Helvetica,sans-Serif" font-size="10.00">hex_to_int</text>
</a>
</g>
</g>
<!-- Node18&#45;&gt;Node19 -->
<g id="edge21_Node000018_Node000019" class="edge">
<title>Node18&#45;&gt;Node19</title>
<g id="a_edge21_Node000018_Node000019"><a xlink:title=" ">
<path fill="none" stroke="#63b8ff" d="M1090.95,-161.62C1098.75,-161.62 1107.01,-161.62 1114.92,-161.62"/>
<polygon fill="#63b8ff" stroke="#63b8ff" points="1114.66,-165.13 1124.66,-161.63 1114.66,-158.13 1114.66,-165.13"/>
</a>
</g>
</g>
<!-- Node21 -->
<g id="Node000021" class="node">
<title>Node21</title>
<g id="a_Node000021"><a xlink:href="espresso_8c.html#a5fa30991ad104ba1fe0001e7aefe95ac" target="_top" xlink:title=" ">
<polygon fill="white" stroke="#666666" points="978.5,-133.25 886.75,-133.25 886.75,-114 978.5,-114 978.5,-133.25"/>
<text xml:space="preserve" text-anchor="middle" x="932.62" y="-119.75" font-family="Helvetica,sans-Serif" font-size="10.00">handle_write_end</text>
</a>
</g>
</g>
<!-- Node20&#45;&gt;Node21 -->
<g id="edge23_Node000020_Node000021" class="edge">
<title>Node20&#45;&gt;Node21</title>
<g id="a_edge23_Node000020_Node000021"><a xlink:title=" ">
<path fill="none" stroke="#63b8ff" d="M829.49,-123.62C843.6,-123.62 859.7,-123.62 874.89,-123.62"/>
<polygon fill="#63b8ff" stroke="#63b8ff" points="874.75,-127.13 884.75,-123.63 874.75,-120.13 874.75,-127.13"/>
</a>
</g>
</g>
<!-- Node22&#45;&gt;Node20 -->
<g id="edge25_Node000022_Node000020" class="edge">
<title>Node22&#45;&gt;Node20</title>
<g id="a_edge25_Node000022_Node000020"><a xlink:title=" ">
<path fill="none" stroke="#63b8ff" d="M689.37,-122.96C704.21,-123.06 720.57,-123.17 735.59,-123.27"/>
<polygon fill="#63b8ff" stroke="#63b8ff" points="735.22,-126.77 745.25,-123.34 735.27,-119.77 735.22,-126.77"/>
</a>
</g>
</g>
<!-- Node25 -->
<g id="Node000025" class="node">
<title>Node25</title>
<g id="a_Node000025"><a xlink:href="espresso_8c.html#a1f2696ccccf441f76c9f5161fb903db5" target="_top" xlink:title=" ">
<polygon fill="white" stroke="#666666" points="279.75,-207.25 191.75,-207.25 191.75,-188 279.75,-188 279.75,-207.25"/>
<text xml:space="preserve" text-anchor="middle" x="235.75" y="-193.75" font-family="Helvetica,sans-Serif" font-size="10.00">lib_handle_sigint</text>
</a>
</g>
</g>
<!-- Node24&#45;&gt;Node25 -->
<g id="edge29_Node000024_Node000025" class="edge">
<title>Node24&#45;&gt;Node25</title>
<g id="a_edge29_Node000024_Node000025"><a xlink:title=" ">
<path fill="none" stroke="#63b8ff" d="M143.01,-197.62C154.25,-197.62 167.27,-197.62 179.91,-197.62"/>
<polygon fill="#63b8ff" stroke="#63b8ff" points="179.83,-201.13 189.83,-197.63 179.83,-194.13 179.83,-201.13"/>
</a>
</g>
</g>
<!-- Node25&#45;&gt;Node2 -->
<g id="edge30_Node000025_Node000002" class="edge">
<title>Node25&#45;&gt;Node2</title>
<g id="a_edge30_Node000025_Node000002"><a xlink:title=" ">
<path fill="none" stroke="#63b8ff" d="M260.69,-207.71C269.28,-211.66 278.9,-216.48 287.25,-221.62 304.51,-232.26 305.68,-239.51 323.25,-249.62 329.4,-253.16 336.16,-256.42 342.86,-259.33"/>
<polygon fill="#63b8ff" stroke="#63b8ff" points="341.26,-262.45 351.84,-263.01 343.92,-255.98 341.26,-262.45"/>
</a>
</g>
</g>
<!-- Node27 -->
<g id="Node000027" class="node">
<title>Node27</title>
<g id="a_Node000027"><a xlink:href="espresso_8c.html#a5afa98a10b7b10f4021fa67400d39f31" target="_top" xlink:title="Retrieve a query parameter as string from the URL.">
<polygon fill="white" stroke="#666666" points="279.38,-38.25 192.12,-38.25 192.12,-19 279.38,-19 279.38,-38.25"/>
<text xml:space="preserve" text-anchor="middle" x="235.75" y="-24.75" font-family="Helvetica,sans-Serif" font-size="10.00">get_query_string</text>
</a>
</g>
</g>
<!-- Node26&#45;&gt;Node27 -->
<g id="edge32_Node000026_Node000027" class="edge">
<title>Node26&#45;&gt;Node27</title>
<g id="a_edge32_Node000026_Node000027"><a xlink:title=" ">
<path fill="none" stroke="#63b8ff" d="M133.64,-74.61C152.69,-65.95 180.51,-53.29 202.15,-43.45"/>
<polygon fill="#63b8ff" stroke="#63b8ff" points="203.48,-46.69 211.14,-39.37 200.58,-40.32 203.48,-46.69"/>
</a>
</g>
</g>
<!-- Node29 -->
<g id="Node000029" class="node">
<title>Node29</title>
<g id="a_Node000029"><a xlink:href="espresso_8c.html#a74fa803b07b95b5f1446ae4bb85f4f0b" target="_top" xlink:title="Sends text response.">
<polygon fill="white" stroke="#666666" points="287.25,-94.25 184.25,-94.25 184.25,-75 287.25,-75 287.25,-94.25"/>
<text xml:space="preserve" text-anchor="middle" x="235.75" y="-80.75" font-family="Helvetica,sans-Serif" font-size="10.00">send_text_response</text>
</a>
</g>
</g>
<!-- Node26&#45;&gt;Node29 -->
<g id="edge34_Node000026_Node000029" class="edge">
<title>Node26&#45;&gt;Node29</title>
<g id="a_edge34_Node000026_Node000029"><a xlink:title=" ">
<path fill="none" stroke="#63b8ff" d="M147.9,-84.62C155.7,-84.62 164.16,-84.62 172.64,-84.62"/>
<polygon fill="#63b8ff" stroke="#63b8ff" points="172.62,-88.13 182.62,-84.63 172.62,-81.13 172.62,-88.13"/>
</a>
</g>
</g>
<!-- Node28 -->
<g id="Node000028" class="node">
<title>Node28</title>
<g id="a_Node000028"><a xlink:href="espresso_8c.html#a87e1508215bb1ffe01b13e14dece5b9c" target="_top" xlink:title="Retrieve a query parameter as a void pointer.">
<polygon fill="white" stroke="#666666" points="412.75,-19.25 354.75,-19.25 354.75,0 412.75,0 412.75,-19.25"/>
<text xml:space="preserve" text-anchor="middle" x="383.75" y="-5.75" font-family="Helvetica,sans-Serif" font-size="10.00">get_query</text>
</a>
</g>
</g>
<!-- Node27&#45;&gt;Node28 -->
<g id="edge33_Node000027_Node000028" class="edge">
<title>Node27&#45;&gt;Node28</title>
<g id="a_edge33_Node000027_Node000028"><a xlink:title=" ">
<path fill="none" stroke="#63b8ff" d="M279.77,-23.03C299.78,-20.42 323.44,-17.34 343.03,-14.79"/>
<polygon fill="#63b8ff" stroke="#63b8ff" points="343.36,-18.28 352.83,-13.52 342.46,-11.34 343.36,-18.28"/>
</a>
</g>
</g>
<!-- Node29&#45;&gt;Node20 -->
<g id="edge36_Node000029_Node000020" class="edge">
<title>Node29&#45;&gt;Node20</title>
<g id="a_edge36_Node000029_Node000020"><a xlink:title=" ">
<path fill="none" stroke="#63b8ff" d="M287.52,-84.12C371.46,-83.88 544.28,-85.87 689.25,-103.62 704.46,-105.49 720.83,-108.45 735.74,-111.53"/>
<polygon fill="#63b8ff" stroke="#63b8ff" points="734.82,-114.92 745.33,-113.58 736.28,-108.07 734.82,-114.92"/>
</a>
</g>
</g>
<!-- Node30 -->
<g id="Node000030" class="node">
<title>Node30</title>
<g id="a_Node000030"><a xlink:href="espresso_8c.html#a61c64a500ef217b0825333b9f35234e3" target="_top" xlink:title=" ">
<polygon fill="white" stroke="#666666" points="444.25,-56.25 323.25,-56.25 323.25,-37 444.25,-37 444.25,-56.25"/>
<text xml:space="preserve" text-anchor="middle" x="383.75" y="-42.75" font-family="Helvetica,sans-Serif" font-size="10.00">build_response_headers</text>
</a>
</g>
</g>
<!-- Node29&#45;&gt;Node30 -->
<g id="edge35_Node000029_Node000030" class="edge">
<title>Node29&#45;&gt;Node30</title>
<g id="a_edge35_Node000029_Node000030"><a xlink:title=" ">
<path fill="none" stroke="#63b8ff" d="M275.49,-74.54C293.13,-69.95 314.23,-64.46 333.03,-59.57"/>
<polygon fill="#63b8ff" stroke="#63b8ff" points="333.82,-62.98 342.62,-57.07 332.06,-56.2 333.82,-62.98"/>
</a>
</g>
</g>
<!-- Node31&#45;&gt;Node29 -->
<g id="edge38_Node000031_Node000029" class="edge">
<title>Node31&#45;&gt;Node29</title>
<g id="a_edge38_Node000031_Node000029"><a xlink:title=" ">
<path fill="none" stroke="#63b8ff" d="M144.3,-112.54C158.74,-108.08 175.94,-102.78 191.43,-97.99"/>
<polygon fill="#63b8ff" stroke="#63b8ff" points="192.38,-101.36 200.91,-95.07 190.32,-94.67 192.38,-101.36"/>
</a>
</g>
</g>
</g>
</svg>
