<?xml version="1.0" encoding="UTF-8" standalone="no"?>
<!DOCTYPE svg PUBLIC "-//W3C//DTD SVG 1.1//EN"
 "http://www.w3.org/Graphics/SVG/1.1/DTD/svg11.dtd">
<!-- Generated by graphviz version 14.0.5 (0)
 -->
<!-- Title: ClientContext Pages: 1 -->
<svg width="463pt" height="506pt"
 viewBox="0.00 0.00 463.00 506.00" xmlns="http://www.w3.org/2000/svg" xmlns:xlink="http://www.w3.org/1999/xlink">
<g id="graph0" class="graph" transform="scale(1 1) rotate(0) translate(4 502)">
<title>ClientContext</title>
<!-- Node1 -->
<g id="Node000001" class="node">
<title>Node1</title>
<g id="a_Node000001"><a xlink:title="Context for a connected client.">
<polygon fill="#999999" stroke="#666666" points="73.75,-309.25 0,-309.25 0,-290 73.75,-290 73.75,-309.25"/>
<text xml:space="preserve" text-anchor="middle" x="36.88" y="-295.75" font-family="Helvetica,sans-Serif" font-size="10.00">ClientContext</text>
</a>
</g>
</g>
<!-- Node4 -->
<g id="Node000004" class="node">
<title>Node4</title>
<g id="a_Node000004"><a xlink:href="structResponseContext.html" target="_top" xlink:title=" ">
<polygon fill="white" stroke="#666666" points="224.12,-236.75 131.62,-236.75 131.62,-217.5 224.12,-217.5 224.12,-236.75"/>
<text xml:space="preserve" text-anchor="middle" x="177.88" y="-223.25" font-family="Helvetica,sans-Serif" font-size="10.00">ResponseContext</text>
</a>
</g>
</g>
<!-- Node1&#45;&gt;Node4 -->
<g id="edge4_Node000004_Node000001" class="edge">
<title>Node1&#45;&gt;Node4</title>
<g id="a_edge4_Node000004_Node000001"><a xlink:title=" ">
<path fill="none" stroke="#9a32cd" stroke-dasharray="5,2" d="M49.3,-280.81C56.47,-271.77 66.21,-261.34 77.12,-254.75 93.46,-244.88 113.44,-238.62 131.29,-234.68"/>
<polygon fill="#9a32cd" stroke="#9a32cd" points="46.66,-278.49 43.51,-288.6 52.28,-282.67 46.66,-278.49"/>
</a>
</g>
<text xml:space="preserve" text-anchor="start" x="80.12" y="-259.5" font-family="Helvetica,sans-Serif" font-size="10.00" fill="grey">ctx</text>
</g>
<!-- Node2 -->
<g id="Node000002" class="node">
<title>Node2</title>
<g id="a_Node000002"><a xlink:href="structApp.html" target="_top" xlink:title="Main application object.">
<polygon fill="white" stroke="#666666" points="118.5,-19.25 85.25,-19.25 85.25,0 118.5,0 118.5,-19.25"/>
<text xml:space="preserve" text-anchor="middle" x="101.88" y="-5.75" font-family="Helvetica,sans-Serif" font-size="10.00">App</text>
</a>
</g>
</g>
<!-- Node2&#45;&gt;Node1 -->
<g id="edge1_Node000001_Node000002" class="edge">
<title>Node2&#45;&gt;Node1</title>
<g id="a_edge1_Node000001_Node000002"><a xlink:title=" ">
<path fill="none" stroke="#9a32cd" stroke-dasharray="5,2" d="M76.76,-25.75C59.57,-38.21 39.88,-57.61 39.88,-81.12 39.88,-228.12 39.88,-228.12 39.88,-228.12 39.88,-250.18 38.39,-276.07 37.51,-289.5"/>
<polygon fill="#9a32cd" stroke="#9a32cd" points="78.33,-28.91 84.65,-20.41 74.41,-23.11 78.33,-28.91"/>
</a>
</g>
<text xml:space="preserve" text-anchor="start" x="42.88" y="-150.75" font-family="Helvetica,sans-Serif" font-size="10.00" fill="grey">app</text>
</g>
<!-- Node3 -->
<g id="Node000003" class="node">
<title>Node3</title>
<g id="a_Node000003"><a xlink:href="structEndpoint.html" target="_top" xlink:title="Represents an HTTP route.">
<polygon fill="white" stroke="#666666" points="194.62,-164.25 141.12,-164.25 141.12,-145 194.62,-145 194.62,-164.25"/>
<text xml:space="preserve" text-anchor="middle" x="167.88" y="-150.75" font-family="Helvetica,sans-Serif" font-size="10.00">Endpoint</text>
</a>
</g>
</g>
<!-- Node3&#45;&gt;Node2 -->
<g id="edge2_Node000002_Node000003" class="edge">
<title>Node3&#45;&gt;Node2</title>
<g id="a_edge2_Node000002_Node000003"><a xlink:title=" ">
<path fill="none" stroke="#9a32cd" stroke-dasharray="5,2" d="M167.55,-133.41C166.23,-108.7 160.92,-66.55 140.88,-37.25 135.41,-29.27 126.7,-22.98 118.89,-18.53"/>
<polygon fill="#9a32cd" stroke="#9a32cd" points="164.04,-133.2 167.88,-143.07 171.03,-132.96 164.04,-133.2"/>
</a>
</g>
<text xml:space="preserve" text-anchor="start" x="164.97" y="-78.25" font-family="Helvetica,sans-Serif" font-size="10.00" fill="grey">endpoints</text>
</g>
<!-- Node13 -->
<g id="Node000013" class="node">
<title>Node13</title>
<g id="a_Node000013"><a xlink:href="structAppGroup.html" target="_top" xlink:title="Group of endpoints with shared root path and middleware.">
<polygon fill="white" stroke="#666666" points="131.62,-91.75 72.12,-91.75 72.12,-72.5 131.62,-72.5 131.62,-91.75"/>
<text xml:space="preserve" text-anchor="middle" x="101.88" y="-78.25" font-family="Helvetica,sans-Serif" font-size="10.00">AppGroup</text>
</a>
</g>
</g>
<!-- Node3&#45;&gt;Node13 -->
<g id="edge16_Node000013_Node000003" class="edge">
<title>Node3&#45;&gt;Node13</title>
<g id="a_edge16_Node000013_Node000003"><a xlink:title=" ">
<path fill="none" stroke="#9a32cd" stroke-dasharray="5,2" d="M129.84,-144.72C120.64,-140.77 111.76,-135.11 105.88,-127 98.5,-116.85 98.94,-101.7 100.2,-92.12"/>
<polygon fill="#9a32cd" stroke="#9a32cd" points="128.63,-148 139.22,-148.09 131,-141.41 128.63,-148"/>
</a>
</g>
<text xml:space="preserve" text-anchor="start" x="108.88" y="-114.5" font-family="Helvetica,sans-Serif" font-size="10.00" fill="grey">endpoints</text>
</g>
<!-- Node4&#45;&gt;Node3 -->
<g id="edge3_Node000003_Node000004" class="edge">
<title>Node4&#45;&gt;Node3</title>
<g id="a_edge3_Node000003_Node000004"><a xlink:title=" ">
<path fill="none" stroke="#9a32cd" stroke-dasharray="5,2" d="M175.03,-206.05C173.1,-192.44 170.64,-175.1 169.16,-164.7"/>
<polygon fill="#9a32cd" stroke="#9a32cd" points="171.53,-206.29 176.4,-215.7 178.46,-205.31 171.53,-206.29"/>
</a>
</g>
<text xml:space="preserve" text-anchor="start" x="177.06" y="-187" font-family="Helvetica,sans-Serif" font-size="10.00" fill="grey">handler</text>
</g>
<!-- Node5 -->
<g id="Node000005" class="node">
<title>Node5</title>
<g id="a_Node000005"><a xlink:href="structRequest.html" target="_top" xlink:title="HTTP request structure.">
<polygon fill="white" stroke="#666666" points="220.88,-309.25 168.88,-309.25 168.88,-290 220.88,-290 220.88,-309.25"/>
<text xml:space="preserve" text-anchor="middle" x="194.88" y="-295.75" font-family="Helvetica,sans-Serif" font-size="10.00">Request</text>
</a>
</g>
</g>
<!-- Node5&#45;&gt;Node4 -->
<g id="edge5_Node000004_Node000005" class="edge">
<title>Node5&#45;&gt;Node4</title>
<g id="a_edge5_Node000004_Node000005"><a xlink:title=" ">
<path fill="none" stroke="#9a32cd" stroke-dasharray="5,2" d="M190.03,-278.55C186.75,-264.94 182.57,-247.6 180.06,-237.2"/>
<polygon fill="#9a32cd" stroke="#9a32cd" points="186.62,-279.32 192.37,-288.22 193.43,-277.68 186.62,-279.32"/>
</a>
</g>
<text xml:space="preserve" text-anchor="start" x="191.4" y="-259.5" font-family="Helvetica,sans-Serif" font-size="10.00" fill="grey">req</text>
</g>
<!-- Node6 -->
<g id="Node000006" class="node">
<title>Node6</title>
<g id="a_Node000006"><a xlink:href="structKeyValue.html" target="_top" xlink:title="Fixed&#45;size key/value pair.">
<polygon fill="white" stroke="#666666" points="146.5,-397 89.25,-397 89.25,-377.75 146.5,-377.75 146.5,-397"/>
<text xml:space="preserve" text-anchor="middle" x="117.88" y="-383.5" font-family="Helvetica,sans-Serif" font-size="10.00">KeyValue</text>
</a>
</g>
</g>
<!-- Node6&#45;&gt;Node4 -->
<g id="edge10_Node000004_Node000006" class="edge">
<title>Node6&#45;&gt;Node4</title>
<g id="a_edge10_Node000004_Node000006"><a xlink:title=" ">
<path fill="none" stroke="#9a32cd" stroke-dasharray="5,2" d="M114.09,-366.31C111.22,-346.21 109.29,-314.78 119.38,-290 128.68,-267.13 150.74,-247.77 164.95,-237.07"/>
<polygon fill="#9a32cd" stroke="#9a32cd" points="110.6,-366.66 115.69,-375.95 117.5,-365.51 110.6,-366.66"/>
</a>
</g>
<text xml:space="preserve" text-anchor="start" x="122.38" y="-295.75" font-family="Helvetica,sans-Serif" font-size="10.00" fill="grey">headers</text>
</g>
<!-- Node6&#45;&gt;Node5 -->
<g id="edge6_Node000005_Node000006" class="edge">
<title>Node6&#45;&gt;Node5</title>
<g id="a_edge6_Node000005_Node000006"><a xlink:title=" ">
<path fill="none" stroke="#9a32cd" stroke-dasharray="5,2" d="M124.27,-366.72C129.08,-354.26 136.7,-338.45 147.38,-327.25 154.42,-319.86 163.97,-313.97 172.67,-309.62"/>
<polygon fill="#9a32cd" stroke="#9a32cd" points="121.04,-365.35 121,-375.94 127.64,-367.68 121.04,-365.35"/>
</a>
</g>
<text xml:space="preserve" text-anchor="start" x="150.38" y="-347.25" font-family="Helvetica,sans-Serif" font-size="10.00" fill="grey">headers</text>
<text xml:space="preserve" text-anchor="start" x="150.38" y="-332" font-family="Helvetica,sans-Serif" font-size="10.00" fill="grey">params</text>
</g>
<!-- Node7 -->
<g id="Node000007" class="node">
<title>Node7</title>
<g id="a_Node000007"><a xlink:href="structBody.html" target="_top" xlink:title="HTTP request or response body.">
<polygon fill="white" stroke="#666666" points="209.75,-397 172,-397 172,-377.75 209.75,-377.75 209.75,-397"/>
<text xml:space="preserve" text-anchor="middle" x="190.88" y="-383.5" font-family="Helvetica,sans-Serif" font-size="10.00">Body</text>
</a>
</g>
</g>
<!-- Node7&#45;&gt;Node5 -->
<g id="edge7_Node000005_Node000007" class="edge">
<title>Node7&#45;&gt;Node5</title>
<g id="a_edge7_Node000005_Node000007"><a xlink:title=" ">
<path fill="none" stroke="#9a32cd" stroke-dasharray="5,2" d="M191.82,-366.04C192.66,-348.11 193.84,-322.83 194.46,-309.56"/>
<polygon fill="#9a32cd" stroke="#9a32cd" points="188.33,-365.86 191.36,-376.01 195.32,-366.18 188.33,-365.86"/>
</a>
</g>
<text xml:space="preserve" text-anchor="start" x="196.58" y="-339.62" font-family="Helvetica,sans-Serif" font-size="10.00" fill="grey">body</text>
</g>
<!-- Node8 -->
<g id="Node000008" class="node">
<title>Node8</title>
<g id="a_Node000008"><a xlink:href="structcJSON.html" target="_top" xlink:title=" ">
<polygon fill="white" stroke="#666666" points="215,-483.75 166.75,-483.75 166.75,-464.5 215,-464.5 215,-483.75"/>
<text xml:space="preserve" text-anchor="middle" x="190.88" y="-470.25" font-family="Helvetica,sans-Serif" font-size="10.00">cJSON</text>
</a>
</g>
</g>
<!-- Node8&#45;&gt;Node7 -->
<g id="edge8_Node000007_Node000008" class="edge">
<title>Node8&#45;&gt;Node7</title>
<g id="a_edge8_Node000007_Node000008"><a xlink:title=" ">
<path fill="none" stroke="#9a32cd" stroke-dasharray="5,2" d="M190.88,-452.73C190.88,-435.1 190.88,-410.47 190.88,-397.38"/>
<polygon fill="#9a32cd" stroke="#9a32cd" points="187.38,-452.54 190.88,-462.54 194.38,-452.54 187.38,-452.54"/>
</a>
</g>
<text xml:space="preserve" text-anchor="start" x="193.88" y="-419.75" font-family="Helvetica,sans-Serif" font-size="10.00" fill="grey">json</text>
</g>
<!-- Node8&#45;&gt;Node8 -->
<g id="edge9_Node000008_Node000008" class="edge">
<title>Node8&#45;&gt;Node8</title>
<g id="a_edge9_Node000008_Node000008"><a xlink:title=" ">
<path fill="none" stroke="#9a32cd" stroke-dasharray="5,2" d="M226.43,-482.13C230.42,-480.62 233,-477.95 233,-474.12 233,-467.32 224.84,-464.18 215.12,-464.71"/>
<polygon fill="#9a32cd" stroke="#9a32cd" points="226.11,-478.64 216.62,-483.35 226.97,-485.59 226.11,-478.64"/>
</a>
</g>
<text xml:space="preserve" text-anchor="start" x="236" y="-485.5" font-family="Helvetica,sans-Serif" font-size="10.00" fill="grey">child</text>
<text xml:space="preserve" text-anchor="start" x="236" y="-470.25" font-family="Helvetica,sans-Serif" font-size="10.00" fill="grey">next</text>
<text xml:space="preserve" text-anchor="start" x="236" y="-455" font-family="Helvetica,sans-Serif" font-size="10.00" fill="grey">prev</text>
</g>
<!-- Node9 -->
<g id="Node000009" class="node">
<title>Node9</title>
<g id="a_Node000009"><a xlink:href="structResponseData.html" target="_top" xlink:title=" ">
<polygon fill="white" stroke="#666666" points="318.75,-309.25 239,-309.25 239,-290 318.75,-290 318.75,-309.25"/>
<text xml:space="preserve" text-anchor="middle" x="278.88" y="-295.75" font-family="Helvetica,sans-Serif" font-size="10.00">ResponseData</text>
</a>
</g>
</g>
<!-- Node9&#45;&gt;Node4 -->
<g id="edge11_Node000004_Node000009" class="edge">
<title>Node9&#45;&gt;Node4</title>
<g id="a_edge11_Node000004_Node000009"><a xlink:title=" ">
<path fill="none" stroke="#9a32cd" stroke-dasharray="5,2" d="M256.74,-283.17C236.59,-269.11 207.52,-248.82 190.88,-237.2"/>
<polygon fill="#9a32cd" stroke="#9a32cd" points="254.64,-285.98 264.84,-288.83 258.65,-280.24 254.64,-285.98"/>
</a>
</g>
<text xml:space="preserve" text-anchor="start" x="243.39" y="-259.5" font-family="Helvetica,sans-Serif" font-size="10.00" fill="grey">data</text>
</g>
<!-- Node10 -->
<g id="Node000010" class="node">
<title>Node10</title>
<g id="a_Node000010"><a xlink:href="structResponseDataEntry.html" target="_top" xlink:title=" ">
<polygon fill="white" stroke="#666666" points="329.62,-397 228.12,-397 228.12,-377.75 329.62,-377.75 329.62,-397"/>
<text xml:space="preserve" text-anchor="middle" x="278.88" y="-383.5" font-family="Helvetica,sans-Serif" font-size="10.00">ResponseDataEntry</text>
</a>
</g>
</g>
<!-- Node10&#45;&gt;Node9 -->
<g id="edge12_Node000009_Node000010" class="edge">
<title>Node10&#45;&gt;Node9</title>
<g id="a_edge12_Node000009_Node000010"><a xlink:title=" ">
<path fill="none" stroke="#9a32cd" stroke-dasharray="5,2" d="M278.88,-366.04C278.88,-348.11 278.88,-322.83 278.88,-309.56"/>
<polygon fill="#9a32cd" stroke="#9a32cd" points="275.38,-366.01 278.88,-376.01 282.38,-366.01 275.38,-366.01"/>
</a>
</g>
<text xml:space="preserve" text-anchor="start" x="281.88" y="-339.62" font-family="Helvetica,sans-Serif" font-size="10.00" fill="grey">entries</text>
</g>
<!-- Node11 -->
<g id="Node000011" class="node">
<title>Node11</title>
<g id="a_Node000011"><a xlink:href="structResponseContextQuery.html" target="_top" xlink:title=" ">
<polygon fill="white" stroke="#666666" points="454.88,-309.25 336.88,-309.25 336.88,-290 454.88,-290 454.88,-309.25"/>
<text xml:space="preserve" text-anchor="middle" x="395.88" y="-295.75" font-family="Helvetica,sans-Serif" font-size="10.00">ResponseContextQuery</text>
</a>
</g>
</g>
<!-- Node11&#45;&gt;Node4 -->
<g id="edge13_Node000004_Node000011" class="edge">
<title>Node11&#45;&gt;Node4</title>
<g id="a_edge13_Node000004_Node000011"><a xlink:title=" ">
<path fill="none" stroke="#9a32cd" stroke-dasharray="5,2" d="M360.1,-285.75C334.74,-276.75 299.85,-264.63 268.88,-254.75 249.58,-248.6 227.82,-242.21 210.42,-237.24"/>
<polygon fill="#9a32cd" stroke="#9a32cd" points="358.67,-288.96 369.27,-289.02 361.02,-282.36 358.67,-288.96"/>
</a>
</g>
<text xml:space="preserve" text-anchor="start" x="320.95" y="-259.5" font-family="Helvetica,sans-Serif" font-size="10.00" fill="grey">query</text>
</g>
<!-- Node12 -->
<g id="Node000012" class="node">
<title>Node12</title>
<g id="a_Node000012"><a xlink:href="structDynamicKeyValue.html" target="_top" xlink:title="Dynamic key/value pair.">
<polygon fill="white" stroke="#666666" points="443.25,-397 348.5,-397 348.5,-377.75 443.25,-377.75 443.25,-397"/>
<text xml:space="preserve" text-anchor="middle" x="395.88" y="-383.5" font-family="Helvetica,sans-Serif" font-size="10.00">DynamicKeyValue</text>
</a>
</g>
</g>
<!-- Node12&#45;&gt;Node11 -->
<g id="edge14_Node000011_Node000012" class="edge">
<title>Node12&#45;&gt;Node11</title>
<g id="a_edge14_Node000011_Node000012"><a xlink:title=" ">
<path fill="none" stroke="#9a32cd" stroke-dasharray="5,2" d="M395.88,-366.04C395.88,-348.11 395.88,-322.83 395.88,-309.56"/>
<polygon fill="#9a32cd" stroke="#9a32cd" points="392.38,-366.01 395.88,-376.01 399.38,-366.01 392.38,-366.01"/>
</a>
</g>
<text xml:space="preserve" text-anchor="start" x="398.88" y="-339.62" font-family="Helvetica,sans-Serif" font-size="10.00" fill="grey">entries</text>
</g>
<!-- Node13&#45;&gt;Node2 -->
<g id="edge15_Node000002_Node000013" class="edge">
<title>Node13&#45;&gt;Node2</title>
<g id="a_edge15_Node000002_Node000013"><a xlink:title=" ">
<path fill="none" stroke="#9a32cd" stroke-dasharray="5,2" d="M101.88,-61.05C101.88,-47.44 101.88,-30.1 101.88,-19.7"/>
<polygon fill="#9a32cd" stroke="#9a32cd" points="98.38,-60.68 101.88,-70.68 105.38,-60.68 98.38,-60.68"/>
</a>
</g>
<text xml:space="preserve" text-anchor="start" x="104.88" y="-42" font-family="Helvetica,sans-Serif" font-size="10.00" fill="grey">groups</text>
</g>
</g>
</svg>
