<?xml version="1.0" encoding="UTF-8" standalone="no"?>
<!DOCTYPE svg PUBLIC "-//W3C//DTD SVG 1.1//EN"
 "http://www.w3.org/Graphics/SVG/1.1/DTD/svg11.dtd">
<!-- Generated by graphviz version 14.0.5 (0)
 -->
<!-- Title: ClientContext Pages: 1 -->
<svg width="419pt" height="579pt"
 viewBox="0.00 0.00 419.00 579.00" xmlns="http://www.w3.org/2000/svg" xmlns:xlink="http://www.w3.org/1999/xlink">
<g id="graph0" class="graph" transform="scale(1 1) rotate(0) translate(4 574.5)">
<title>ClientContext</title>
<!-- Node1 -->
<g id="Node000001" class="node">
<title>Node1</title>
<g id="a_Node000001"><a xlink:title="Context for a connected client.">
<polygon fill="#999999" stroke="#666666" points="73.75,-309.25 0,-309.25 0,-290 73.75,-290 73.75,-309.25"/>
<text xml:space="preserve" text-anchor="middle" x="36.88" y="-295.75" font-family="Helvetica,sans-Serif" font-size="10.00">ClientContext</text>
</a>
</g>
</g>
<!-- Node4 -->
<g id="Node000004" class="node">
<title>Node4</title>
<g id="a_Node000004"><a xlink:href="structResponseContext.html" target="_top" xlink:title=" ">
<polygon fill="white" stroke="#666666" points="166.12,-236.75 73.62,-236.75 73.62,-217.5 166.12,-217.5 166.12,-236.75"/>
<text xml:space="preserve" text-anchor="middle" x="119.88" y="-223.25" font-family="Helvetica,sans-Serif" font-size="10.00">ResponseContext</text>
</a>
</g>
</g>
<!-- Node1&#45;&gt;Node4 -->
<g id="edge4_Node000004_Node000001" class="edge">
<title>Node1&#45;&gt;Node4</title>
<g id="a_edge4_Node000004_Node000001"><a xlink:title=" ">
<path fill="none" stroke="#9a32cd" stroke-dasharray="5,2" d="M51.9,-281.27C59.63,-272.81 69.43,-262.77 79.12,-254.75 86.94,-248.28 96.38,-242.03 104.21,-237.21"/>
<polygon fill="#9a32cd" stroke="#9a32cd" points="49.49,-278.72 45.45,-288.51 54.71,-283.37 49.49,-278.72"/>
</a>
</g>
<text xml:space="preserve" text-anchor="start" x="82.12" y="-259.5" font-family="Helvetica,sans-Serif" font-size="10.00" fill="grey">ctx</text>
</g>
<!-- Node2 -->
<g id="Node000002" class="node">
<title>Node2</title>
<g id="a_Node000002"><a xlink:href="structApp.html" target="_top" xlink:title="Main application object.">
<polygon fill="white" stroke="#666666" points="64.5,-19.25 31.25,-19.25 31.25,0 64.5,0 64.5,-19.25"/>
<text xml:space="preserve" text-anchor="middle" x="47.88" y="-5.75" font-family="Helvetica,sans-Serif" font-size="10.00">App</text>
</a>
</g>
</g>
<!-- Node2&#45;&gt;Node1 -->
<g id="edge1_Node000001_Node000002" class="edge">
<title>Node2&#45;&gt;Node1</title>
<g id="a_edge1_Node000001_Node000002"><a xlink:title=" ">
<path fill="none" stroke="#9a32cd" stroke-dasharray="5,2" d="M29.26,-27.11C16.51,-40.3 1.88,-60.03 1.88,-81.12 1.88,-228.12 1.88,-228.12 1.88,-228.12 1.88,-252.45 18.8,-277.03 29.11,-289.75"/>
<polygon fill="#9a32cd" stroke="#9a32cd" points="31.36,-29.96 36.12,-20.49 26.49,-24.92 31.36,-29.96"/>
</a>
</g>
<text xml:space="preserve" text-anchor="start" x="4.88" y="-150.75" font-family="Helvetica,sans-Serif" font-size="10.00" fill="grey">app</text>
</g>
<!-- Node3 -->
<g id="Node000003" class="node">
<title>Node3</title>
<g id="a_Node000003"><a xlink:href="structEndpoint.html" target="_top" xlink:title="Represents an HTTP route.">
<polygon fill="white" stroke="#666666" points="146.62,-164.25 93.12,-164.25 93.12,-145 146.62,-145 146.62,-164.25"/>
<text xml:space="preserve" text-anchor="middle" x="119.88" y="-150.75" font-family="Helvetica,sans-Serif" font-size="10.00">Endpoint</text>
</a>
</g>
</g>
<!-- Node3&#45;&gt;Node2 -->
<g id="edge2_Node000002_Node000003" class="edge">
<title>Node3&#45;&gt;Node2</title>
<g id="a_edge2_Node000002_Node000003"><a xlink:title=" ">
<path fill="none" stroke="#9a32cd" stroke-dasharray="5,2" d="M96.98,-137.67C82.92,-126.52 65.91,-110.35 56.88,-91.75 45.23,-67.79 45.83,-35.27 46.98,-19.68"/>
<polygon fill="#9a32cd" stroke="#9a32cd" points="94.81,-140.42 104.91,-143.64 99.02,-134.82 94.81,-140.42"/>
</a>
</g>
<text xml:space="preserve" text-anchor="start" x="59.88" y="-78.25" font-family="Helvetica,sans-Serif" font-size="10.00" fill="grey">endpoints</text>
</g>
<!-- Node13 -->
<g id="Node000013" class="node">
<title>Node13</title>
<g id="a_Node000013"><a xlink:href="structAppGroup.html" target="_top" xlink:title="Group of endpoints with shared root path and middleware.">
<polygon fill="white" stroke="#666666" points="173.62,-91.75 114.12,-91.75 114.12,-72.5 173.62,-72.5 173.62,-91.75"/>
<text xml:space="preserve" text-anchor="middle" x="143.88" y="-78.25" font-family="Helvetica,sans-Serif" font-size="10.00">AppGroup</text>
</a>
</g>
</g>
<!-- Node3&#45;&gt;Node13 -->
<g id="edge16_Node000013_Node000003" class="edge">
<title>Node3&#45;&gt;Node13</title>
<g id="a_edge16_Node000013_Node000003"><a xlink:title=" ">
<path fill="none" stroke="#9a32cd" stroke-dasharray="5,2" d="M126.57,-133.97C131.22,-120.29 137.21,-102.7 140.78,-92.2"/>
<polygon fill="#9a32cd" stroke="#9a32cd" points="123.31,-132.67 123.4,-143.26 129.94,-134.92 123.31,-132.67"/>
</a>
</g>
<text xml:space="preserve" text-anchor="start" x="137.73" y="-114.5" font-family="Helvetica,sans-Serif" font-size="10.00" fill="grey">endpoints</text>
</g>
<!-- Node4&#45;&gt;Node1 -->
<g id="edge18_Node000001_Node000004" class="edge">
<title>Node4&#45;&gt;Node1</title>
<g id="a_edge18_Node000001_Node000004"><a xlink:title=" ">
<path fill="none" stroke="#9a32cd" stroke-dasharray="5,2" d="M62.61,-236.35C52.75,-240.35 43.67,-246.21 37.38,-254.75 29.96,-264.81 31.84,-279.99 34.15,-289.6"/>
<polygon fill="#9a32cd" stroke="#9a32cd" points="63.72,-239.67 72.09,-233.18 61.49,-233.03 63.72,-239.67"/>
</a>
</g>
<text xml:space="preserve" text-anchor="start" x="40.38" y="-259.5" font-family="Helvetica,sans-Serif" font-size="10.00" fill="grey">res</text>
</g>
<!-- Node4&#45;&gt;Node3 -->
<g id="edge3_Node000003_Node000004" class="edge">
<title>Node4&#45;&gt;Node3</title>
<g id="a_edge3_Node000003_Node000004"><a xlink:title=" ">
<path fill="none" stroke="#9a32cd" stroke-dasharray="5,2" d="M119.88,-206.05C119.88,-192.44 119.88,-175.1 119.88,-164.7"/>
<polygon fill="#9a32cd" stroke="#9a32cd" points="116.38,-205.68 119.88,-215.68 123.38,-205.68 116.38,-205.68"/>
</a>
</g>
<text xml:space="preserve" text-anchor="start" x="122.88" y="-187" font-family="Helvetica,sans-Serif" font-size="10.00" fill="grey">handler</text>
</g>
<!-- Node5 -->
<g id="Node000005" class="node">
<title>Node5</title>
<g id="a_Node000005"><a xlink:href="structRequest.html" target="_top" xlink:title="HTTP request structure.">
<polygon fill="white" stroke="#666666" points="97.88,-381.75 45.88,-381.75 45.88,-362.5 97.88,-362.5 97.88,-381.75"/>
<text xml:space="preserve" text-anchor="middle" x="71.88" y="-368.25" font-family="Helvetica,sans-Serif" font-size="10.00">Request</text>
</a>
</g>
</g>
<!-- Node5&#45;&gt;Node1 -->
<g id="edge17_Node000001_Node000005" class="edge">
<title>Node5&#45;&gt;Node1</title>
<g id="a_edge17_Node000001_Node000005"><a xlink:title=" ">
<path fill="none" stroke="#9a32cd" stroke-dasharray="5,2" d="M62.52,-352.29C55.68,-338.51 46.7,-320.42 41.38,-309.7"/>
<polygon fill="#9a32cd" stroke="#9a32cd" points="59.19,-353.44 66.77,-360.84 65.46,-350.33 59.19,-353.44"/>
</a>
</g>
<text xml:space="preserve" text-anchor="start" x="61.54" y="-332" font-family="Helvetica,sans-Serif" font-size="10.00" fill="grey">req</text>
</g>
<!-- Node5&#45;&gt;Node4 -->
<g id="edge5_Node000004_Node000005" class="edge">
<title>Node5&#45;&gt;Node4</title>
<g id="a_edge5_Node000004_Node000005"><a xlink:title=" ">
<path fill="none" stroke="#9a32cd" stroke-dasharray="5,2" d="M79.29,-351.68C80.18,-349.26 81.06,-346.83 81.88,-344.5 95.81,-304.79 110.92,-256.89 117.05,-237.22"/>
<polygon fill="#9a32cd" stroke="#9a32cd" points="76.08,-350.28 75.84,-360.87 82.63,-352.74 76.08,-350.28"/>
</a>
</g>
<text xml:space="preserve" text-anchor="start" x="102.73" y="-295.75" font-family="Helvetica,sans-Serif" font-size="10.00" fill="grey">req</text>
</g>
<!-- Node6 -->
<g id="Node000006" class="node">
<title>Node6</title>
<g id="a_Node000006"><a xlink:href="structKeyValue.html" target="_top" xlink:title="Fixed&#45;size key/value pair.">
<polygon fill="white" stroke="#666666" points="167.5,-469.5 110.25,-469.5 110.25,-450.25 167.5,-450.25 167.5,-469.5"/>
<text xml:space="preserve" text-anchor="middle" x="138.88" y="-456" font-family="Helvetica,sans-Serif" font-size="10.00">KeyValue</text>
</a>
</g>
</g>
<!-- Node6&#45;&gt;Node4 -->
<g id="edge10_Node000004_Node000006" class="edge">
<title>Node6&#45;&gt;Node4</title>
<g id="a_edge10_Node000004_Node000006"><a xlink:title=" ">
<path fill="none" stroke="#9a32cd" stroke-dasharray="5,2" d="M143.88,-438.89C144.29,-436.66 144.63,-434.42 144.88,-432.25 146.47,-417.89 145.92,-414.16 144.88,-399.75 140.33,-336.98 126.54,-262.31 121.63,-237.01"/>
<polygon fill="#9a32cd" stroke="#9a32cd" points="140.47,-438.08 141.7,-448.61 147.3,-439.61 140.47,-438.08"/>
</a>
</g>
<text xml:space="preserve" text-anchor="start" x="141.98" y="-332" font-family="Helvetica,sans-Serif" font-size="10.00" fill="grey">headers</text>
</g>
<!-- Node6&#45;&gt;Node5 -->
<g id="edge6_Node000005_Node000006" class="edge">
<title>Node6&#45;&gt;Node5</title>
<g id="a_edge6_Node000005_Node000006"><a xlink:title=" ">
<path fill="none" stroke="#9a32cd" stroke-dasharray="5,2" d="M115.51,-442.97C111.53,-439.69 107.64,-436.06 104.38,-432.25 90.82,-416.41 80.4,-394.01 75.31,-381.84"/>
<polygon fill="#9a32cd" stroke="#9a32cd" points="113.38,-445.75 123.46,-449 117.61,-440.17 113.38,-445.75"/>
</a>
</g>
<text xml:space="preserve" text-anchor="start" x="107.38" y="-419.75" font-family="Helvetica,sans-Serif" font-size="10.00" fill="grey">headers</text>
<text xml:space="preserve" text-anchor="start" x="107.38" y="-404.5" font-family="Helvetica,sans-Serif" font-size="10.00" fill="grey">params</text>
</g>
<!-- Node7 -->
<g id="Node000007" class="node">
<title>Node7</title>
<g id="a_Node000007"><a xlink:href="structBody.html" target="_top" xlink:title="HTTP request or response body.">
<polygon fill="white" stroke="#666666" points="72.75,-469.5 35,-469.5 35,-450.25 72.75,-450.25 72.75,-469.5"/>
<text xml:space="preserve" text-anchor="middle" x="53.88" y="-456" font-family="Helvetica,sans-Serif" font-size="10.00">Body</text>
</a>
</g>
</g>
<!-- Node7&#45;&gt;Node5 -->
<g id="edge7_Node000005_Node000007" class="edge">
<title>Node7&#45;&gt;Node5</title>
<g id="a_edge7_Node000005_Node000007"><a xlink:title=" ">
<path fill="none" stroke="#9a32cd" stroke-dasharray="5,2" d="M51.39,-438.69C50.63,-427.06 50.83,-412.31 54.62,-399.75 56.6,-393.21 60.71,-386.76 64.42,-381.85"/>
<polygon fill="#9a32cd" stroke="#9a32cd" points="47.88,-438.7 52.32,-448.32 54.85,-438.03 47.88,-438.7"/>
</a>
</g>
<text xml:space="preserve" text-anchor="start" x="57.62" y="-412.12" font-family="Helvetica,sans-Serif" font-size="10.00" fill="grey">body</text>
</g>
<!-- Node8 -->
<g id="Node000008" class="node">
<title>Node8</title>
<g id="a_Node000008"><a xlink:href="structcJSON.html" target="_top" xlink:title=" ">
<polygon fill="white" stroke="#666666" points="78,-556.25 29.75,-556.25 29.75,-537 78,-537 78,-556.25"/>
<text xml:space="preserve" text-anchor="middle" x="53.88" y="-542.75" font-family="Helvetica,sans-Serif" font-size="10.00">cJSON</text>
</a>
</g>
</g>
<!-- Node8&#45;&gt;Node7 -->
<g id="edge8_Node000007_Node000008" class="edge">
<title>Node8&#45;&gt;Node7</title>
<g id="a_edge8_Node000007_Node000008"><a xlink:title=" ">
<path fill="none" stroke="#9a32cd" stroke-dasharray="5,2" d="M53.88,-525.23C53.88,-507.6 53.88,-482.97 53.88,-469.88"/>
<polygon fill="#9a32cd" stroke="#9a32cd" points="50.38,-525.04 53.88,-535.04 57.38,-525.04 50.38,-525.04"/>
</a>
</g>
<text xml:space="preserve" text-anchor="start" x="56.88" y="-492.25" font-family="Helvetica,sans-Serif" font-size="10.00" fill="grey">json</text>
</g>
<!-- Node8&#45;&gt;Node8 -->
<g id="edge9_Node000008_Node000008" class="edge">
<title>Node8&#45;&gt;Node8</title>
<g id="a_edge9_Node000008_Node000008"><a xlink:title=" ">
<path fill="none" stroke="#9a32cd" stroke-dasharray="5,2" d="M89.43,-554.63C93.42,-553.12 96,-550.45 96,-546.62 96,-539.82 87.84,-536.68 78.12,-537.21"/>
<polygon fill="#9a32cd" stroke="#9a32cd" points="89.11,-551.14 79.62,-555.85 89.97,-558.09 89.11,-551.14"/>
</a>
</g>
<text xml:space="preserve" text-anchor="start" x="99" y="-558" font-family="Helvetica,sans-Serif" font-size="10.00" fill="grey">child</text>
<text xml:space="preserve" text-anchor="start" x="99" y="-542.75" font-family="Helvetica,sans-Serif" font-size="10.00" fill="grey">next</text>
<text xml:space="preserve" text-anchor="start" x="99" y="-527.5" font-family="Helvetica,sans-Serif" font-size="10.00" fill="grey">prev</text>
</g>
<!-- Node9 -->
<g id="Node000009" class="node">
<title>Node9</title>
<g id="a_Node000009"><a xlink:href="structResponseData.html" target="_top" xlink:title=" ">
<polygon fill="white" stroke="#666666" points="269.75,-309.25 190,-309.25 190,-290 269.75,-290 269.75,-309.25"/>
<text xml:space="preserve" text-anchor="middle" x="229.88" y="-295.75" font-family="Helvetica,sans-Serif" font-size="10.00">ResponseData</text>
</a>
</g>
</g>
<!-- Node9&#45;&gt;Node4 -->
<g id="edge11_Node000004_Node000009" class="edge">
<title>Node9&#45;&gt;Node4</title>
<g id="a_edge11_Node000004_Node000009"><a xlink:title=" ">
<path fill="none" stroke="#9a32cd" stroke-dasharray="5,2" d="M210.83,-282.5C200.06,-273.76 186.13,-263.07 172.88,-254.75 162.5,-248.23 150.32,-242.02 140.25,-237.24"/>
<polygon fill="#9a32cd" stroke="#9a32cd" points="208.29,-284.94 218.23,-288.61 212.75,-279.54 208.29,-284.94"/>
</a>
</g>
<text xml:space="preserve" text-anchor="start" x="200.13" y="-259.5" font-family="Helvetica,sans-Serif" font-size="10.00" fill="grey">data</text>
</g>
<!-- Node10 -->
<g id="Node000010" class="node">
<title>Node10</title>
<g id="a_Node000010"><a xlink:href="structResponseDataEntry.html" target="_top" xlink:title=" ">
<polygon fill="white" stroke="#666666" points="288.62,-381.75 187.12,-381.75 187.12,-362.5 288.62,-362.5 288.62,-381.75"/>
<text xml:space="preserve" text-anchor="middle" x="237.88" y="-368.25" font-family="Helvetica,sans-Serif" font-size="10.00">ResponseDataEntry</text>
</a>
</g>
</g>
<!-- Node10&#45;&gt;Node9 -->
<g id="edge12_Node000009_Node000010" class="edge">
<title>Node10&#45;&gt;Node9</title>
<g id="a_edge12_Node000009_Node000010"><a xlink:title=" ">
<path fill="none" stroke="#9a32cd" stroke-dasharray="5,2" d="M235.6,-351.05C234.05,-337.44 232.08,-320.1 230.91,-309.7"/>
<polygon fill="#9a32cd" stroke="#9a32cd" points="232.09,-351.15 236.69,-360.69 239.04,-350.36 232.09,-351.15"/>
</a>
</g>
<text xml:space="preserve" text-anchor="start" x="237.83" y="-332" font-family="Helvetica,sans-Serif" font-size="10.00" fill="grey">entries</text>
</g>
<!-- Node11 -->
<g id="Node000011" class="node">
<title>Node11</title>
<g id="a_Node000011"><a xlink:href="structResponseContextQuery.html" target="_top" xlink:title=" ">
<polygon fill="white" stroke="#666666" points="410.88,-309.25 292.88,-309.25 292.88,-290 410.88,-290 410.88,-309.25"/>
<text xml:space="preserve" text-anchor="middle" x="351.88" y="-295.75" font-family="Helvetica,sans-Serif" font-size="10.00">ResponseContextQuery</text>
</a>
</g>
</g>
<!-- Node11&#45;&gt;Node4 -->
<g id="edge13_Node000004_Node000011" class="edge">
<title>Node11&#45;&gt;Node4</title>
<g id="a_edge13_Node000004_Node000011"><a xlink:title=" ">
<path fill="none" stroke="#9a32cd" stroke-dasharray="5,2" d="M317.45,-285.71C292.27,-276.49 257.19,-264.12 225.88,-254.75 204.15,-248.25 179.61,-242.02 159.62,-237.22"/>
<polygon fill="#9a32cd" stroke="#9a32cd" points="315.91,-288.87 326.51,-289.05 318.34,-282.3 315.91,-288.87"/>
</a>
</g>
<text xml:space="preserve" text-anchor="start" x="281.15" y="-259.5" font-family="Helvetica,sans-Serif" font-size="10.00" fill="grey">query</text>
</g>
<!-- Node12 -->
<g id="Node000012" class="node">
<title>Node12</title>
<g id="a_Node000012"><a xlink:href="structDynamicKeyValue.html" target="_top" xlink:title="Dynamic key/value pair.">
<polygon fill="white" stroke="#666666" points="401.25,-381.75 306.5,-381.75 306.5,-362.5 401.25,-362.5 401.25,-381.75"/>
<text xml:space="preserve" text-anchor="middle" x="353.88" y="-368.25" font-family="Helvetica,sans-Serif" font-size="10.00">DynamicKeyValue</text>
</a>
</g>
</g>
<!-- Node12&#45;&gt;Node11 -->
<g id="edge14_Node000011_Node000012" class="edge">
<title>Node12&#45;&gt;Node11</title>
<g id="a_edge14_Node000011_Node000012"><a xlink:title=" ">
<path fill="none" stroke="#9a32cd" stroke-dasharray="5,2" d="M353.31,-351.05C352.92,-337.44 352.43,-320.1 352.13,-309.7"/>
<polygon fill="#9a32cd" stroke="#9a32cd" points="349.8,-350.79 353.58,-360.68 356.79,-350.59 349.8,-350.79"/>
</a>
</g>
<text xml:space="preserve" text-anchor="start" x="356.11" y="-332" font-family="Helvetica,sans-Serif" font-size="10.00" fill="grey">entries</text>
</g>
<!-- Node13&#45;&gt;Node2 -->
<g id="edge15_Node000002_Node000013" class="edge">
<title>Node13&#45;&gt;Node2</title>
<g id="a_edge15_Node000002_Node000013"><a xlink:title=" ">
<path fill="none" stroke="#9a32cd" stroke-dasharray="5,2" d="M122.57,-65.48C103.43,-51.42 75.98,-31.26 60.24,-19.7"/>
<polygon fill="#9a32cd" stroke="#9a32cd" points="120.36,-68.2 130.5,-71.3 124.51,-62.56 120.36,-68.2"/>
</a>
</g>
<text xml:space="preserve" text-anchor="start" x="110.3" y="-42" font-family="Helvetica,sans-Serif" font-size="10.00" fill="grey">groups</text>
</g>
</g>
</svg>
