<?xml version="1.0" encoding="UTF-8" standalone="no"?>
<!DOCTYPE svg PUBLIC "-//W3C//DTD SVG 1.1//EN"
 "http://www.w3.org/Graphics/SVG/1.1/DTD/svg11.dtd">
<!-- Generated by graphviz version 14.0.5 (0)
 -->
<!-- Title: Body Pages: 1 -->
<svg width="101pt" height="128pt"
 viewBox="0.00 0.00 101.00 128.00" xmlns="http://www.w3.org/2000/svg" xmlns:xlink="http://www.w3.org/1999/xlink">
<g id="graph0" class="graph" transform="scale(1 1) rotate(0) translate(4 124.25)">
<title>Body</title>
<!-- Node1 -->
<g id="Node000001" class="node">
<title>Node1</title>
<g id="a_Node000001"><a xlink:title="HTTP request or response body.">
<polygon fill="#999999" stroke="#666666" points="43,-19.25 5.25,-19.25 5.25,0 43,0 43,-19.25"/>
<text xml:space="preserve" text-anchor="middle" x="24.12" y="-5.75" font-family="Helvetica,sans-Serif" font-size="10.00">Body</text>
</a>
</g>
</g>
<!-- Node2 -->
<g id="Node000002" class="node">
<title>Node2</title>
<g id="a_Node000002"><a xlink:href="structcJSON.html" target="_top" xlink:title=" ">
<polygon fill="white" stroke="#666666" points="48.25,-106 0,-106 0,-86.75 48.25,-86.75 48.25,-106"/>
<text xml:space="preserve" text-anchor="middle" x="24.12" y="-92.5" font-family="Helvetica,sans-Serif" font-size="10.00">cJSON</text>
</a>
</g>
</g>
<!-- Node2&#45;&gt;Node1 -->
<g id="edge1_Node000001_Node000002" class="edge">
<title>Node2&#45;&gt;Node1</title>
<g id="a_edge1_Node000001_Node000002"><a xlink:title=" ">
<path fill="none" stroke="#9a32cd" stroke-dasharray="5,2" d="M24.12,-74.98C24.12,-57.35 24.12,-32.72 24.12,-19.63"/>
<polygon fill="#9a32cd" stroke="#9a32cd" points="20.63,-74.79 24.13,-84.79 27.63,-74.79 20.63,-74.79"/>
</a>
</g>
<text xml:space="preserve" text-anchor="start" x="27.12" y="-42" font-family="Helvetica,sans-Serif" font-size="10.00" fill="grey">json</text>
</g>
<!-- Node2&#45;&gt;Node2 -->
<g id="edge2_Node000002_Node000002" class="edge">
<title>Node2&#45;&gt;Node2</title>
<g id="a_edge2_Node000002_Node000002"><a xlink:title=" ">
<path fill="none" stroke="#9a32cd" stroke-dasharray="5,2" d="M59.68,-104.38C63.67,-102.87 66.25,-100.2 66.25,-96.38 66.25,-89.57 58.09,-86.43 48.37,-86.96"/>
<polygon fill="#9a32cd" stroke="#9a32cd" points="59.36,-100.89 49.87,-105.6 60.22,-107.84 59.36,-100.89"/>
</a>
</g>
<text xml:space="preserve" text-anchor="start" x="69.25" y="-107.75" font-family="Helvetica,sans-Serif" font-size="10.00" fill="grey">child</text>
<text xml:space="preserve" text-anchor="start" x="69.25" y="-92.5" font-family="Helvetica,sans-Serif" font-size="10.00" fill="grey">next</text>
<text xml:space="preserve" text-anchor="start" x="69.25" y="-77.25" font-family="Helvetica,sans-Serif" font-size="10.00" fill="grey">prev</text>
</g>
</g>
</svg>
