<?xml version="1.0" encoding="UTF-8" standalone="no"?>
<!DOCTYPE svg PUBLIC "-//W3C//DTD SVG 1.1//EN"
 "http://www.w3.org/Graphics/SVG/1.1/DTD/svg11.dtd">
<!-- Generated by graphviz version 14.0.5 (0)
 -->
<!-- Title: Endpoint Pages: 1 -->
<svg width="571pt" height="361pt"
 viewBox="0.00 0.00 571.00 361.00" xmlns="http://www.w3.org/2000/svg" xmlns:xlink="http://www.w3.org/1999/xlink">
<g id="graph0" class="graph" transform="scale(1 1) rotate(0) translate(4 357)">
<title>Endpoint</title>
<!-- Node1 -->
<g id="Node000001" class="node">
<title>Node1</title>
<g id="a_Node000001"><a xlink:title="Represents an HTTP route.">
<polygon fill="#999999" stroke="#666666" points="117.9,-353 64.4,-353 64.4,-333.75 117.9,-333.75 117.9,-353"/>
<text xml:space="preserve" text-anchor="middle" x="91.15" y="-339.5" font-family="Helvetica,sans-Serif" font-size="10.00">Endpoint</text>
</a>
</g>
</g>
<!-- Node4 -->
<g id="Node000004" class="node">
<title>Node4</title>
<g id="a_Node000004"><a xlink:href="structApp.html" target="_top" xlink:title="Main application object.">
<polygon fill="white" stroke="#666666" points="105.77,-179.5 72.52,-179.5 72.52,-160.25 105.77,-160.25 105.77,-179.5"/>
<text xml:space="preserve" text-anchor="middle" x="89.15" y="-166" font-family="Helvetica,sans-Serif" font-size="10.00">App</text>
</a>
</g>
</g>
<!-- Node1&#45;&gt;Node4 -->
<g id="edge4_Node000004_Node000001" class="edge">
<title>Node1&#45;&gt;Node4</title>
<g id="a_edge4_Node000004_Node000001"><a xlink:title=" ">
<path fill="none" stroke="#9a32cd" stroke-dasharray="5,2" d="M59.26,-328.21C40.36,-317.94 18.04,-302.05 7.15,-280.5 -2.43,-261.56 -2.32,-251.75 7.15,-232.75 20.66,-205.61 52.39,-187.23 72.18,-177.94"/>
<polygon fill="#9a32cd" stroke="#9a32cd" points="57.47,-331.23 67.97,-332.66 60.65,-324.99 57.47,-331.23"/>
</a>
</g>
<text xml:space="preserve" text-anchor="start" x="10.15" y="-252.75" font-family="Helvetica,sans-Serif" font-size="10.00" fill="grey">endpoints</text>
</g>
<!-- Node5 -->
<g id="Node000005" class="node">
<title>Node5</title>
<g id="a_Node000005"><a xlink:href="structAppGroup.html" target="_top" xlink:title="Group of endpoints with shared root path and middleware.">
<polygon fill="white" stroke="#666666" points="123.9,-266.25 64.4,-266.25 64.4,-247 123.9,-247 123.9,-266.25"/>
<text xml:space="preserve" text-anchor="middle" x="94.15" y="-252.75" font-family="Helvetica,sans-Serif" font-size="10.00">AppGroup</text>
</a>
</g>
</g>
<!-- Node1&#45;&gt;Node5 -->
<g id="edge6_Node000005_Node000001" class="edge">
<title>Node1&#45;&gt;Node5</title>
<g id="a_edge6_Node000005_Node000001"><a xlink:title=" ">
<path fill="none" stroke="#9a32cd" stroke-dasharray="5,2" d="M91.5,-321.83C91.66,-314.47 91.87,-306.11 92.15,-298.5 92.54,-287.57 93.18,-274.99 93.63,-266.71"/>
<polygon fill="#9a32cd" stroke="#9a32cd" points="88,-321.72 91.31,-331.78 95,-321.85 88,-321.72"/>
</a>
</g>
<text xml:space="preserve" text-anchor="start" x="95.15" y="-303.25" font-family="Helvetica,sans-Serif" font-size="10.00" fill="grey">endpoints</text>
</g>
<!-- Node2 -->
<g id="Node000002" class="node">
<title>Node2</title>
<g id="a_Node000002"><a xlink:href="structResponseContext.html" target="_top" xlink:title=" ">
<polygon fill="white" stroke="#666666" points="269.4,-19.25 176.9,-19.25 176.9,0 269.4,0 269.4,-19.25"/>
<text xml:space="preserve" text-anchor="middle" x="223.15" y="-5.75" font-family="Helvetica,sans-Serif" font-size="10.00">ResponseContext</text>
</a>
</g>
</g>
<!-- Node2&#45;&gt;Node1 -->
<g id="edge1_Node000001_Node000002" class="edge">
<title>Node2&#45;&gt;Node1</title>
<g id="a_edge1_Node000001_Node000002"><a xlink:title=" ">
<path fill="none" stroke="#9a32cd" stroke-dasharray="5,2" d="M194.45,-25.54C175.5,-37.67 154.15,-56.74 154.15,-81.12 154.15,-257.62 154.15,-257.62 154.15,-257.62 154.15,-284.2 156.33,-294.67 140.15,-315.75 134.25,-323.43 125.48,-329.17 116.99,-333.32"/>
<polygon fill="#9a32cd" stroke="#9a32cd" points="196.18,-28.58 202.99,-20.46 192.61,-22.57 196.18,-28.58"/>
</a>
</g>
<text xml:space="preserve" text-anchor="start" x="157.15" y="-166" font-family="Helvetica,sans-Serif" font-size="10.00" fill="grey">handler</text>
</g>
<!-- Node3 -->
<g id="Node000003" class="node">
<title>Node3</title>
<g id="a_Node000003"><a xlink:href="structClientContext.html" target="_top" xlink:title="Context for a connected client.">
<polygon fill="white" stroke="#666666" points="126.02,-91.75 52.27,-91.75 52.27,-72.5 126.02,-72.5 126.02,-91.75"/>
<text xml:space="preserve" text-anchor="middle" x="89.15" y="-78.25" font-family="Helvetica,sans-Serif" font-size="10.00">ClientContext</text>
</a>
</g>
</g>
<!-- Node3&#45;&gt;Node2 -->
<g id="edge2_Node000002_Node000003" class="edge">
<title>Node3&#45;&gt;Node2</title>
<g id="a_edge2_Node000002_Node000003"><a xlink:title=" ">
<path fill="none" stroke="#9a32cd" stroke-dasharray="5,2" d="M98.91,-62.4C104.41,-53.57 112.05,-43.59 121.4,-37.25 137.64,-26.22 158.18,-19.76 176.55,-15.98"/>
<polygon fill="#9a32cd" stroke="#9a32cd" points="95.93,-60.56 94.05,-70.98 102.02,-64.01 95.93,-60.56"/>
</a>
</g>
<text xml:space="preserve" text-anchor="start" x="124.4" y="-42" font-family="Helvetica,sans-Serif" font-size="10.00" fill="grey">ctx</text>
</g>
<!-- Node4&#45;&gt;Node3 -->
<g id="edge3_Node000003_Node000004" class="edge">
<title>Node4&#45;&gt;Node3</title>
<g id="a_edge3_Node000003_Node000004"><a xlink:title=" ">
<path fill="none" stroke="#9a32cd" stroke-dasharray="5,2" d="M89.15,-148.54C89.15,-130.61 89.15,-105.33 89.15,-92.06"/>
<polygon fill="#9a32cd" stroke="#9a32cd" points="85.65,-148.51 89.15,-158.51 92.65,-148.51 85.65,-148.51"/>
</a>
</g>
<text xml:space="preserve" text-anchor="start" x="92.15" y="-122.12" font-family="Helvetica,sans-Serif" font-size="10.00" fill="grey">app</text>
</g>
<!-- Node5&#45;&gt;Node4 -->
<g id="edge5_Node000004_Node000005" class="edge">
<title>Node5&#45;&gt;Node4</title>
<g id="a_edge5_Node000004_Node000005"><a xlink:title=" ">
<path fill="none" stroke="#9a32cd" stroke-dasharray="5,2" d="M92.94,-235.23C91.9,-217.6 90.45,-192.97 89.68,-179.88"/>
<polygon fill="#9a32cd" stroke="#9a32cd" points="89.44,-235.27 93.52,-245.04 96.43,-234.86 89.44,-235.27"/>
</a>
</g>
<text xml:space="preserve" text-anchor="start" x="94.65" y="-202.25" font-family="Helvetica,sans-Serif" font-size="10.00" fill="grey">groups</text>
</g>
<!-- Node6 -->
<g id="Node000006" class="node">
<title>Node6</title>
<g id="a_Node000006"><a xlink:href="structRequest.html" target="_top" xlink:title="HTTP request structure.">
<polygon fill="white" stroke="#666666" points="318.15,-91.75 266.15,-91.75 266.15,-72.5 318.15,-72.5 318.15,-91.75"/>
<text xml:space="preserve" text-anchor="middle" x="292.15" y="-78.25" font-family="Helvetica,sans-Serif" font-size="10.00">Request</text>
</a>
</g>
</g>
<!-- Node6&#45;&gt;Node2 -->
<g id="edge7_Node000002_Node000006" class="edge">
<title>Node6&#45;&gt;Node2</title>
<g id="a_edge7_Node000002_Node000006"><a xlink:title=" ">
<path fill="none" stroke="#9a32cd" stroke-dasharray="5,2" d="M275.68,-64.3C261.99,-50.32 243.03,-30.95 232.03,-19.7"/>
<polygon fill="#9a32cd" stroke="#9a32cd" points="272.85,-66.42 282.35,-71.11 277.85,-61.52 272.85,-66.42"/>
</a>
</g>
<text xml:space="preserve" text-anchor="start" x="268.85" y="-42" font-family="Helvetica,sans-Serif" font-size="10.00" fill="grey">req</text>
</g>
<!-- Node7 -->
<g id="Node000007" class="node">
<title>Node7</title>
<g id="a_Node000007"><a xlink:href="structKeyValue.html" target="_top" xlink:title="Fixed&#45;size key/value pair.">
<polygon fill="white" stroke="#666666" points="266.77,-179.5 209.52,-179.5 209.52,-160.25 266.77,-160.25 266.77,-179.5"/>
<text xml:space="preserve" text-anchor="middle" x="238.15" y="-166" font-family="Helvetica,sans-Serif" font-size="10.00">KeyValue</text>
</a>
</g>
</g>
<!-- Node7&#45;&gt;Node2 -->
<g id="edge12_Node000002_Node000007" class="edge">
<title>Node7&#45;&gt;Node2</title>
<g id="a_edge12_Node000002_Node000007"><a xlink:title=" ">
<path fill="none" stroke="#9a32cd" stroke-dasharray="5,2" d="M231.08,-149.27C225.93,-133.87 219.38,-111.75 216.65,-91.75 215.49,-83.27 216.2,-81.04 216.65,-72.5 217.64,-53.52 220.34,-31.39 221.93,-19.41"/>
<polygon fill="#9a32cd" stroke="#9a32cd" points="227.73,-150.29 234.33,-158.59 234.35,-147.99 227.73,-150.29"/>
</a>
</g>
<text xml:space="preserve" text-anchor="start" x="219.65" y="-78.25" font-family="Helvetica,sans-Serif" font-size="10.00" fill="grey">headers</text>
</g>
<!-- Node7&#45;&gt;Node6 -->
<g id="edge8_Node000006_Node000007" class="edge">
<title>Node7&#45;&gt;Node6</title>
<g id="a_edge8_Node000006_Node000007"><a xlink:title=" ">
<path fill="none" stroke="#9a32cd" stroke-dasharray="5,2" d="M239,-148.76C240.37,-136.55 243.71,-121.18 251.65,-109.75 256.83,-102.28 264.85,-96.38 272.38,-92.05"/>
<polygon fill="#9a32cd" stroke="#9a32cd" points="235.52,-148.3 238.28,-158.53 242.5,-148.82 235.52,-148.3"/>
</a>
</g>
<text xml:space="preserve" text-anchor="start" x="254.65" y="-129.75" font-family="Helvetica,sans-Serif" font-size="10.00" fill="grey">headers</text>
<text xml:space="preserve" text-anchor="start" x="254.65" y="-114.5" font-family="Helvetica,sans-Serif" font-size="10.00" fill="grey">params</text>
</g>
<!-- Node8 -->
<g id="Node000008" class="node">
<title>Node8</title>
<g id="a_Node000008"><a xlink:href="structBody.html" target="_top" xlink:title="HTTP request or response body.">
<polygon fill="white" stroke="#666666" points="323.02,-179.5 285.27,-179.5 285.27,-160.25 323.02,-160.25 323.02,-179.5"/>
<text xml:space="preserve" text-anchor="middle" x="304.15" y="-166" font-family="Helvetica,sans-Serif" font-size="10.00">Body</text>
</a>
</g>
</g>
<!-- Node8&#45;&gt;Node6 -->
<g id="edge9_Node000006_Node000008" class="edge">
<title>Node8&#45;&gt;Node6</title>
<g id="a_edge9_Node000006_Node000008"><a xlink:title=" ">
<path fill="none" stroke="#9a32cd" stroke-dasharray="5,2" d="M301.34,-148.8C298.82,-130.86 295.26,-105.39 293.4,-92.06"/>
<polygon fill="#9a32cd" stroke="#9a32cd" points="297.84,-149.1 302.7,-158.52 304.78,-148.13 297.84,-149.1"/>
</a>
</g>
<text xml:space="preserve" text-anchor="start" x="303.26" y="-122.12" font-family="Helvetica,sans-Serif" font-size="10.00" fill="grey">body</text>
</g>
<!-- Node9 -->
<g id="Node000009" class="node">
<title>Node9</title>
<g id="a_Node000009"><a xlink:href="structcJSON.html" target="_top" xlink:title=" ">
<polygon fill="white" stroke="#666666" points="328.27,-266.25 280.02,-266.25 280.02,-247 328.27,-247 328.27,-266.25"/>
<text xml:space="preserve" text-anchor="middle" x="304.15" y="-252.75" font-family="Helvetica,sans-Serif" font-size="10.00">cJSON</text>
</a>
</g>
</g>
<!-- Node9&#45;&gt;Node8 -->
<g id="edge10_Node000008_Node000009" class="edge">
<title>Node9&#45;&gt;Node8</title>
<g id="a_edge10_Node000008_Node000009"><a xlink:title=" ">
<path fill="none" stroke="#9a32cd" stroke-dasharray="5,2" d="M304.15,-235.23C304.15,-217.6 304.15,-192.97 304.15,-179.88"/>
<polygon fill="#9a32cd" stroke="#9a32cd" points="300.65,-235.04 304.15,-245.04 307.65,-235.04 300.65,-235.04"/>
</a>
</g>
<text xml:space="preserve" text-anchor="start" x="307.15" y="-202.25" font-family="Helvetica,sans-Serif" font-size="10.00" fill="grey">json</text>
</g>
<!-- Node9&#45;&gt;Node9 -->
<g id="edge11_Node000009_Node000009" class="edge">
<title>Node9&#45;&gt;Node9</title>
<g id="a_edge11_Node000009_Node000009"><a xlink:title=" ">
<path fill="none" stroke="#9a32cd" stroke-dasharray="5,2" d="M339.7,-264.63C343.69,-263.12 346.27,-260.45 346.27,-256.62 346.27,-249.82 338.11,-246.68 328.39,-247.21"/>
<polygon fill="#9a32cd" stroke="#9a32cd" points="339.38,-261.14 329.89,-265.85 340.24,-268.09 339.38,-261.14"/>
</a>
</g>
<text xml:space="preserve" text-anchor="start" x="349.27" y="-268" font-family="Helvetica,sans-Serif" font-size="10.00" fill="grey">child</text>
<text xml:space="preserve" text-anchor="start" x="349.27" y="-252.75" font-family="Helvetica,sans-Serif" font-size="10.00" fill="grey">next</text>
<text xml:space="preserve" text-anchor="start" x="349.27" y="-237.5" font-family="Helvetica,sans-Serif" font-size="10.00" fill="grey">prev</text>
</g>
<!-- Node10 -->
<g id="Node000010" class="node">
<title>Node10</title>
<g id="a_Node000010"><a xlink:href="structResponseData.html" target="_top" xlink:title=" ">
<polygon fill="white" stroke="#666666" points="420.02,-91.75 340.27,-91.75 340.27,-72.5 420.02,-72.5 420.02,-91.75"/>
<text xml:space="preserve" text-anchor="middle" x="380.15" y="-78.25" font-family="Helvetica,sans-Serif" font-size="10.00">ResponseData</text>
</a>
</g>
</g>
<!-- Node10&#45;&gt;Node2 -->
<g id="edge13_Node000002_Node000010" class="edge">
<title>Node10&#45;&gt;Node2</title>
<g id="a_edge13_Node000002_Node000010"><a xlink:title=" ">
<path fill="none" stroke="#9a32cd" stroke-dasharray="5,2" d="M351.88,-66.91C334.03,-58.07 310.4,-46.65 289.15,-37.25 275.25,-31.1 259.47,-24.72 246.82,-19.74"/>
<polygon fill="#9a32cd" stroke="#9a32cd" points="350.31,-70.03 360.82,-71.36 353.43,-63.77 350.31,-70.03"/>
</a>
</g>
<text xml:space="preserve" text-anchor="start" x="327.43" y="-42" font-family="Helvetica,sans-Serif" font-size="10.00" fill="grey">data</text>
</g>
<!-- Node11 -->
<g id="Node000011" class="node">
<title>Node11</title>
<g id="a_Node000011"><a xlink:href="structResponseDataEntry.html" target="_top" xlink:title=" ">
<polygon fill="white" stroke="#666666" points="442.9,-179.5 341.4,-179.5 341.4,-160.25 442.9,-160.25 442.9,-179.5"/>
<text xml:space="preserve" text-anchor="middle" x="392.15" y="-166" font-family="Helvetica,sans-Serif" font-size="10.00">ResponseDataEntry</text>
</a>
</g>
</g>
<!-- Node11&#45;&gt;Node10 -->
<g id="edge14_Node000010_Node000011" class="edge">
<title>Node11&#45;&gt;Node10</title>
<g id="a_edge14_Node000010_Node000011"><a xlink:title=" ">
<path fill="none" stroke="#9a32cd" stroke-dasharray="5,2" d="M389.34,-148.8C386.82,-130.86 383.26,-105.39 381.4,-92.06"/>
<polygon fill="#9a32cd" stroke="#9a32cd" points="385.84,-149.1 390.7,-158.52 392.78,-148.13 385.84,-149.1"/>
</a>
</g>
<text xml:space="preserve" text-anchor="start" x="391.26" y="-122.12" font-family="Helvetica,sans-Serif" font-size="10.00" fill="grey">entries</text>
</g>
<!-- Node12 -->
<g id="Node000012" class="node">
<title>Node12</title>
<g id="a_Node000012"><a xlink:href="structResponseContextQuery.html" target="_top" xlink:title=" ">
<polygon fill="white" stroke="#666666" points="563.15,-91.75 445.15,-91.75 445.15,-72.5 563.15,-72.5 563.15,-91.75"/>
<text xml:space="preserve" text-anchor="middle" x="504.15" y="-78.25" font-family="Helvetica,sans-Serif" font-size="10.00">ResponseContextQuery</text>
</a>
</g>
</g>
<!-- Node12&#45;&gt;Node2 -->
<g id="edge15_Node000002_Node000012" class="edge">
<title>Node12&#45;&gt;Node2</title>
<g id="a_edge15_Node000002_Node000012"><a xlink:title=" ">
<path fill="none" stroke="#9a32cd" stroke-dasharray="5,2" d="M464.42,-68.63C434.1,-59.33 391.21,-46.66 353.15,-37.25 325.64,-30.45 294.55,-24.04 269.68,-19.21"/>
<polygon fill="#9a32cd" stroke="#9a32cd" points="463.35,-71.96 473.94,-71.57 465.42,-65.27 463.35,-71.96"/>
</a>
</g>
<text xml:space="preserve" text-anchor="start" x="418.68" y="-42" font-family="Helvetica,sans-Serif" font-size="10.00" fill="grey">query</text>
</g>
<!-- Node13 -->
<g id="Node000013" class="node">
<title>Node13</title>
<g id="a_Node000013"><a xlink:href="structDynamicKeyValue.html" target="_top" xlink:title="Dynamic key/value pair.">
<polygon fill="white" stroke="#666666" points="555.52,-179.5 460.77,-179.5 460.77,-160.25 555.52,-160.25 555.52,-179.5"/>
<text xml:space="preserve" text-anchor="middle" x="508.15" y="-166" font-family="Helvetica,sans-Serif" font-size="10.00">DynamicKeyValue</text>
</a>
</g>
</g>
<!-- Node13&#45;&gt;Node12 -->
<g id="edge16_Node000012_Node000013" class="edge">
<title>Node13&#45;&gt;Node12</title>
<g id="a_edge16_Node000012_Node000013"><a xlink:title=" ">
<path fill="none" stroke="#9a32cd" stroke-dasharray="5,2" d="M507.2,-148.54C506.36,-130.61 505.18,-105.33 504.56,-92.06"/>
<polygon fill="#9a32cd" stroke="#9a32cd" points="503.7,-148.68 507.66,-158.51 510.69,-148.36 503.7,-148.68"/>
</a>
</g>
<text xml:space="preserve" text-anchor="start" x="509.85" y="-122.12" font-family="Helvetica,sans-Serif" font-size="10.00" fill="grey">entries</text>
</g>
</g>
</svg>
