<?xml version="1.0" encoding="UTF-8" standalone="no"?>
<!DOCTYPE svg PUBLIC "-//W3C//DTD SVG 1.1//EN"
 "http://www.w3.org/Graphics/SVG/1.1/DTD/svg11.dtd">
<!-- Generated by graphviz version 14.0.5 (0)
 -->
<!-- Title: EndpointWork Pages: 1 -->
<svg width="464pt" height="579pt"
 viewBox="0.00 0.00 464.00 579.00" xmlns="http://www.w3.org/2000/svg" xmlns:xlink="http://www.w3.org/1999/xlink">
<g id="graph0" class="graph" transform="scale(1 1) rotate(0) translate(4 574.5)">
<title>EndpointWork</title>
<!-- Node1 -->
<g id="Node000001" class="node">
<title>Node1</title>
<g id="a_Node000001"><a xlink:title=" ">
<polygon fill="#999999" stroke="#666666" points="116,-164.25 40,-164.25 40,-145 116,-145 116,-164.25"/>
<text xml:space="preserve" text-anchor="middle" x="78" y="-150.75" font-family="Helvetica,sans-Serif" font-size="10.00">EndpointWork</text>
</a>
</g>
</g>
<!-- Node2 -->
<g id="Node000002" class="node">
<title>Node2</title>
<g id="a_Node000002"><a xlink:href="structClientContext.html" target="_top" xlink:title="Context for a connected client.">
<polygon fill="white" stroke="#666666" points="117.88,-309.25 44.12,-309.25 44.12,-290 117.88,-290 117.88,-309.25"/>
<text xml:space="preserve" text-anchor="middle" x="81" y="-295.75" font-family="Helvetica,sans-Serif" font-size="10.00">ClientContext</text>
</a>
</g>
</g>
<!-- Node2&#45;&gt;Node1 -->
<g id="edge1_Node000001_Node000002" class="edge">
<title>Node2&#45;&gt;Node1</title>
<g id="a_edge1_Node000001_Node000002"><a xlink:title=" ">
<path fill="none" stroke="#9a32cd" stroke-dasharray="5,2" d="M74.41,-279C73.83,-276.66 73.34,-274.29 73,-272 67.18,-232.38 73.35,-184.43 76.45,-164.74"/>
<polygon fill="#9a32cd" stroke="#9a32cd" points="71.01,-279.87 77.24,-288.45 77.72,-277.86 71.01,-279.87"/>
</a>
</g>
<text xml:space="preserve" text-anchor="start" x="73.95" y="-223.25" font-family="Helvetica,sans-Serif" font-size="10.00" fill="grey">ctx</text>
</g>
<!-- Node5 -->
<g id="Node000005" class="node">
<title>Node5</title>
<g id="a_Node000005"><a xlink:href="structResponseContext.html" target="_top" xlink:title=" ">
<polygon fill="white" stroke="#666666" points="205.25,-236.75 112.75,-236.75 112.75,-217.5 205.25,-217.5 205.25,-236.75"/>
<text xml:space="preserve" text-anchor="middle" x="159" y="-223.25" font-family="Helvetica,sans-Serif" font-size="10.00">ResponseContext</text>
</a>
</g>
</g>
<!-- Node2&#45;&gt;Node5 -->
<g id="edge5_Node000005_Node000002" class="edge">
<title>Node2&#45;&gt;Node5</title>
<g id="a_edge5_Node000005_Node000002"><a xlink:title=" ">
<path fill="none" stroke="#9a32cd" stroke-dasharray="5,2" d="M76.9,-278.44C76.38,-270.38 77.34,-261.44 82.25,-254.75 89.51,-244.85 100.69,-238.61 112.3,-234.68"/>
<polygon fill="#9a32cd" stroke="#9a32cd" points="73.4,-278.7 78.29,-288.11 80.33,-277.71 73.4,-278.7"/>
</a>
</g>
<text xml:space="preserve" text-anchor="start" x="85.25" y="-259.5" font-family="Helvetica,sans-Serif" font-size="10.00" fill="grey">ctx</text>
</g>
<!-- Node3 -->
<g id="Node000003" class="node">
<title>Node3</title>
<g id="a_Node000003"><a xlink:href="structApp.html" target="_top" xlink:title="Main application object.">
<polygon fill="white" stroke="#666666" points="81.62,-19.25 48.38,-19.25 48.38,0 81.62,0 81.62,-19.25"/>
<text xml:space="preserve" text-anchor="middle" x="65" y="-5.75" font-family="Helvetica,sans-Serif" font-size="10.00">App</text>
</a>
</g>
</g>
<!-- Node3&#45;&gt;Node2 -->
<g id="edge2_Node000002_Node000003" class="edge">
<title>Node3&#45;&gt;Node2</title>
<g id="a_edge2_Node000002_Node000003"><a xlink:title=" ">
<path fill="none" stroke="#9a32cd" stroke-dasharray="5,2" d="M38.35,-25.68C20.41,-37.99 0,-57.25 0,-81.12 0,-228.12 0,-228.12 0,-228.12 0,-258.51 32.84,-278.79 56.7,-289.5"/>
<polygon fill="#9a32cd" stroke="#9a32cd" points="40.1,-28.71 46.65,-20.38 36.33,-22.81 40.1,-28.71"/>
</a>
</g>
<text xml:space="preserve" text-anchor="start" x="3" y="-150.75" font-family="Helvetica,sans-Serif" font-size="10.00" fill="grey">app</text>
</g>
<!-- Node4 -->
<g id="Node000004" class="node">
<title>Node4</title>
<g id="a_Node000004"><a xlink:href="structEndpoint.html" target="_top" xlink:title="Represents an HTTP route.">
<polygon fill="white" stroke="#666666" points="187.75,-164.25 134.25,-164.25 134.25,-145 187.75,-145 187.75,-164.25"/>
<text xml:space="preserve" text-anchor="middle" x="161" y="-150.75" font-family="Helvetica,sans-Serif" font-size="10.00">Endpoint</text>
</a>
</g>
</g>
<!-- Node4&#45;&gt;Node3 -->
<g id="edge3_Node000003_Node000004" class="edge">
<title>Node4&#45;&gt;Node3</title>
<g id="a_edge3_Node000003_Node000004"><a xlink:title=" ">
<path fill="none" stroke="#9a32cd" stroke-dasharray="5,2" d="M129.2,-139.48C109.89,-129.15 86.6,-113.18 74,-91.75 60.43,-68.66 61.99,-35.45 63.74,-19.64"/>
<polygon fill="#9a32cd" stroke="#9a32cd" points="127.57,-142.58 138.08,-143.97 130.73,-136.33 127.57,-142.58"/>
</a>
</g>
<text xml:space="preserve" text-anchor="start" x="77" y="-78.25" font-family="Helvetica,sans-Serif" font-size="10.00" fill="grey">endpoints</text>
</g>
<!-- Node14 -->
<g id="Node000014" class="node">
<title>Node14</title>
<g id="a_Node000014"><a xlink:href="structAppGroup.html" target="_top" xlink:title="Group of endpoints with shared root path and middleware.">
<polygon fill="white" stroke="#666666" points="190.75,-91.75 131.25,-91.75 131.25,-72.5 190.75,-72.5 190.75,-91.75"/>
<text xml:space="preserve" text-anchor="middle" x="161" y="-78.25" font-family="Helvetica,sans-Serif" font-size="10.00">AppGroup</text>
</a>
</g>
</g>
<!-- Node4&#45;&gt;Node14 -->
<g id="edge17_Node000014_Node000004" class="edge">
<title>Node4&#45;&gt;Node14</title>
<g id="a_edge17_Node000014_Node000004"><a xlink:title=" ">
<path fill="none" stroke="#9a32cd" stroke-dasharray="5,2" d="M161,-133.55C161,-119.94 161,-102.6 161,-92.2"/>
<polygon fill="#9a32cd" stroke="#9a32cd" points="157.5,-133.18 161,-143.18 164.5,-133.18 157.5,-133.18"/>
</a>
</g>
<text xml:space="preserve" text-anchor="start" x="164" y="-114.5" font-family="Helvetica,sans-Serif" font-size="10.00" fill="grey">endpoints</text>
</g>
<!-- Node5&#45;&gt;Node1 -->
<g id="edge20_Node000001_Node000005" class="edge">
<title>Node5&#45;&gt;Node1</title>
<g id="a_edge20_Node000001_Node000005"><a xlink:title=" ">
<path fill="none" stroke="#9a32cd" stroke-dasharray="5,2" d="M133.71,-210.87C128.51,-207.36 123.19,-203.48 118.5,-199.5 105.69,-188.64 92.88,-173.95 85.19,-164.63"/>
<polygon fill="#9a32cd" stroke="#9a32cd" points="131.8,-213.8 142.1,-216.28 135.59,-207.92 131.8,-213.8"/>
</a>
</g>
<text xml:space="preserve" text-anchor="start" x="121.5" y="-187" font-family="Helvetica,sans-Serif" font-size="10.00" fill="grey">handler</text>
</g>
<!-- Node5&#45;&gt;Node2 -->
<g id="edge19_Node000002_Node000005" class="edge">
<title>Node5&#45;&gt;Node2</title>
<g id="a_edge19_Node000002_Node000005"><a xlink:title=" ">
<path fill="none" stroke="#9a32cd" stroke-dasharray="5,2" d="M137.42,-244.07C133.06,-247.49 128.57,-251.16 124.5,-254.75 111.64,-266.11 97.86,-280.41 89.34,-289.54"/>
<polygon fill="#9a32cd" stroke="#9a32cd" points="139.52,-246.87 145.35,-238.03 135.27,-241.31 139.52,-246.87"/>
</a>
</g>
<text xml:space="preserve" text-anchor="start" x="127.5" y="-259.5" font-family="Helvetica,sans-Serif" font-size="10.00" fill="grey">res</text>
</g>
<!-- Node5&#45;&gt;Node4 -->
<g id="edge4_Node000004_Node000005" class="edge">
<title>Node5&#45;&gt;Node4</title>
<g id="a_edge4_Node000004_Node000005"><a xlink:title=" ">
<path fill="none" stroke="#9a32cd" stroke-dasharray="5,2" d="M159.57,-206.05C159.96,-192.44 160.45,-175.1 160.74,-164.7"/>
<polygon fill="#9a32cd" stroke="#9a32cd" points="156.08,-205.59 159.3,-215.68 163.08,-205.79 156.08,-205.59"/>
</a>
</g>
<text xml:space="preserve" text-anchor="start" x="163.24" y="-187" font-family="Helvetica,sans-Serif" font-size="10.00" fill="grey">handler</text>
</g>
<!-- Node6 -->
<g id="Node000006" class="node">
<title>Node6</title>
<g id="a_Node000006"><a xlink:href="structRequest.html" target="_top" xlink:title="HTTP request structure.">
<polygon fill="white" stroke="#666666" points="143,-381.75 91,-381.75 91,-362.5 143,-362.5 143,-381.75"/>
<text xml:space="preserve" text-anchor="middle" x="117" y="-368.25" font-family="Helvetica,sans-Serif" font-size="10.00">Request</text>
</a>
</g>
</g>
<!-- Node6&#45;&gt;Node2 -->
<g id="edge18_Node000002_Node000006" class="edge">
<title>Node6&#45;&gt;Node2</title>
<g id="a_edge18_Node000002_Node000006"><a xlink:title=" ">
<path fill="none" stroke="#9a32cd" stroke-dasharray="5,2" d="M107.38,-352.29C100.34,-338.51 91.11,-320.42 85.64,-309.7"/>
<polygon fill="#9a32cd" stroke="#9a32cd" points="104.09,-353.53 111.75,-360.85 110.32,-350.35 104.09,-353.53"/>
</a>
</g>
<text xml:space="preserve" text-anchor="start" x="106.28" y="-332" font-family="Helvetica,sans-Serif" font-size="10.00" fill="grey">req</text>
</g>
<!-- Node6&#45;&gt;Node5 -->
<g id="edge6_Node000005_Node000006" class="edge">
<title>Node6&#45;&gt;Node5</title>
<g id="a_edge6_Node000005_Node000006"><a xlink:title=" ">
<path fill="none" stroke="#9a32cd" stroke-dasharray="5,2" d="M124.52,-351.71C125.39,-349.29 126.24,-346.85 127,-344.5 139.87,-304.84 152.07,-256.52 156.86,-236.97"/>
<polygon fill="#9a32cd" stroke="#9a32cd" points="121.31,-350.31 121.07,-360.9 127.86,-352.78 121.31,-350.31"/>
</a>
</g>
<text xml:space="preserve" text-anchor="start" x="145.66" y="-295.75" font-family="Helvetica,sans-Serif" font-size="10.00" fill="grey">req</text>
</g>
<!-- Node7 -->
<g id="Node000007" class="node">
<title>Node7</title>
<g id="a_Node000007"><a xlink:href="structKeyValue.html" target="_top" xlink:title="Fixed&#45;size key/value pair.">
<polygon fill="white" stroke="#666666" points="212.62,-469.5 155.38,-469.5 155.38,-450.25 212.62,-450.25 212.62,-469.5"/>
<text xml:space="preserve" text-anchor="middle" x="184" y="-456" font-family="Helvetica,sans-Serif" font-size="10.00">KeyValue</text>
</a>
</g>
</g>
<!-- Node7&#45;&gt;Node5 -->
<g id="edge11_Node000005_Node000007" class="edge">
<title>Node7&#45;&gt;Node5</title>
<g id="a_edge11_Node000005_Node000007"><a xlink:title=" ">
<path fill="none" stroke="#9a32cd" stroke-dasharray="5,2" d="M189,-438.89C189.41,-436.66 189.76,-434.42 190,-432.25 191.6,-417.89 191.28,-414.14 190,-399.75 184.39,-336.72 167.28,-262.21 161.18,-236.98"/>
<polygon fill="#9a32cd" stroke="#9a32cd" points="185.6,-438.08 186.83,-448.61 192.43,-439.61 185.6,-438.08"/>
</a>
</g>
<text xml:space="preserve" text-anchor="start" x="185.7" y="-332" font-family="Helvetica,sans-Serif" font-size="10.00" fill="grey">headers</text>
</g>
<!-- Node7&#45;&gt;Node6 -->
<g id="edge7_Node000006_Node000007" class="edge">
<title>Node7&#45;&gt;Node6</title>
<g id="a_edge7_Node000006_Node000007"><a xlink:title=" ">
<path fill="none" stroke="#9a32cd" stroke-dasharray="5,2" d="M160.63,-442.97C156.66,-439.69 152.77,-436.06 149.5,-432.25 135.94,-416.41 125.52,-394.01 120.44,-381.84"/>
<polygon fill="#9a32cd" stroke="#9a32cd" points="158.5,-445.75 168.59,-449 162.73,-440.17 158.5,-445.75"/>
</a>
</g>
<text xml:space="preserve" text-anchor="start" x="152.5" y="-419.75" font-family="Helvetica,sans-Serif" font-size="10.00" fill="grey">headers</text>
<text xml:space="preserve" text-anchor="start" x="152.5" y="-404.5" font-family="Helvetica,sans-Serif" font-size="10.00" fill="grey">params</text>
</g>
<!-- Node8 -->
<g id="Node000008" class="node">
<title>Node8</title>
<g id="a_Node000008"><a xlink:href="structBody.html" target="_top" xlink:title="HTTP request or response body.">
<polygon fill="white" stroke="#666666" points="117.88,-469.5 80.12,-469.5 80.12,-450.25 117.88,-450.25 117.88,-469.5"/>
<text xml:space="preserve" text-anchor="middle" x="99" y="-456" font-family="Helvetica,sans-Serif" font-size="10.00">Body</text>
</a>
</g>
</g>
<!-- Node8&#45;&gt;Node6 -->
<g id="edge8_Node000006_Node000008" class="edge">
<title>Node8&#45;&gt;Node6</title>
<g id="a_edge8_Node000006_Node000008"><a xlink:title=" ">
<path fill="none" stroke="#9a32cd" stroke-dasharray="5,2" d="M96.52,-438.69C95.76,-427.06 95.95,-412.31 99.75,-399.75 101.73,-393.21 105.84,-386.76 109.55,-381.85"/>
<polygon fill="#9a32cd" stroke="#9a32cd" points="93,-438.7 97.44,-448.32 99.97,-438.03 93,-438.7"/>
</a>
</g>
<text xml:space="preserve" text-anchor="start" x="102.75" y="-412.12" font-family="Helvetica,sans-Serif" font-size="10.00" fill="grey">body</text>
</g>
<!-- Node9 -->
<g id="Node000009" class="node">
<title>Node9</title>
<g id="a_Node000009"><a xlink:href="structcJSON.html" target="_top" xlink:title=" ">
<polygon fill="white" stroke="#666666" points="123.12,-556.25 74.88,-556.25 74.88,-537 123.12,-537 123.12,-556.25"/>
<text xml:space="preserve" text-anchor="middle" x="99" y="-542.75" font-family="Helvetica,sans-Serif" font-size="10.00">cJSON</text>
</a>
</g>
</g>
<!-- Node9&#45;&gt;Node8 -->
<g id="edge9_Node000008_Node000009" class="edge">
<title>Node9&#45;&gt;Node8</title>
<g id="a_edge9_Node000008_Node000009"><a xlink:title=" ">
<path fill="none" stroke="#9a32cd" stroke-dasharray="5,2" d="M99,-525.23C99,-507.6 99,-482.97 99,-469.88"/>
<polygon fill="#9a32cd" stroke="#9a32cd" points="95.5,-525.04 99,-535.04 102.5,-525.04 95.5,-525.04"/>
</a>
</g>
<text xml:space="preserve" text-anchor="start" x="102" y="-492.25" font-family="Helvetica,sans-Serif" font-size="10.00" fill="grey">json</text>
</g>
<!-- Node9&#45;&gt;Node9 -->
<g id="edge10_Node000009_Node000009" class="edge">
<title>Node9&#45;&gt;Node9</title>
<g id="a_edge10_Node000009_Node000009"><a xlink:title=" ">
<path fill="none" stroke="#9a32cd" stroke-dasharray="5,2" d="M134.55,-554.63C138.54,-553.12 141.12,-550.45 141.12,-546.62 141.12,-539.82 132.96,-536.68 123.24,-537.21"/>
<polygon fill="#9a32cd" stroke="#9a32cd" points="134.23,-551.14 124.74,-555.85 135.1,-558.09 134.23,-551.14"/>
</a>
</g>
<text xml:space="preserve" text-anchor="start" x="144.12" y="-558" font-family="Helvetica,sans-Serif" font-size="10.00" fill="grey">child</text>
<text xml:space="preserve" text-anchor="start" x="144.12" y="-542.75" font-family="Helvetica,sans-Serif" font-size="10.00" fill="grey">next</text>
<text xml:space="preserve" text-anchor="start" x="144.12" y="-527.5" font-family="Helvetica,sans-Serif" font-size="10.00" fill="grey">prev</text>
</g>
<!-- Node10 -->
<g id="Node000010" class="node">
<title>Node10</title>
<g id="a_Node000010"><a xlink:href="structResponseData.html" target="_top" xlink:title=" ">
<polygon fill="white" stroke="#666666" points="314.88,-309.25 235.12,-309.25 235.12,-290 314.88,-290 314.88,-309.25"/>
<text xml:space="preserve" text-anchor="middle" x="275" y="-295.75" font-family="Helvetica,sans-Serif" font-size="10.00">ResponseData</text>
</a>
</g>
</g>
<!-- Node10&#45;&gt;Node5 -->
<g id="edge12_Node000005_Node000010" class="edge">
<title>Node10&#45;&gt;Node5</title>
<g id="a_edge12_Node000005_Node000010"><a xlink:title=" ">
<path fill="none" stroke="#9a32cd" stroke-dasharray="5,2" d="M256.49,-282.61C245.7,-273.74 231.59,-262.89 218,-254.75 206.72,-247.99 193.43,-241.85 182.32,-237.17"/>
<polygon fill="#9a32cd" stroke="#9a32cd" points="253.95,-285.05 263.85,-288.8 258.45,-279.69 253.95,-285.05"/>
</a>
</g>
<text xml:space="preserve" text-anchor="start" x="245.4" y="-259.5" font-family="Helvetica,sans-Serif" font-size="10.00" fill="grey">data</text>
</g>
<!-- Node11 -->
<g id="Node000011" class="node">
<title>Node11</title>
<g id="a_Node000011"><a xlink:href="structResponseDataEntry.html" target="_top" xlink:title=" ">
<polygon fill="white" stroke="#666666" points="333.75,-381.75 232.25,-381.75 232.25,-362.5 333.75,-362.5 333.75,-381.75"/>
<text xml:space="preserve" text-anchor="middle" x="283" y="-368.25" font-family="Helvetica,sans-Serif" font-size="10.00">ResponseDataEntry</text>
</a>
</g>
</g>
<!-- Node11&#45;&gt;Node10 -->
<g id="edge13_Node000010_Node000011" class="edge">
<title>Node11&#45;&gt;Node10</title>
<g id="a_edge13_Node000010_Node000011"><a xlink:title=" ">
<path fill="none" stroke="#9a32cd" stroke-dasharray="5,2" d="M280.72,-351.05C279.18,-337.44 277.21,-320.1 276.03,-309.7"/>
<polygon fill="#9a32cd" stroke="#9a32cd" points="277.21,-351.15 281.82,-360.69 284.17,-350.36 277.21,-351.15"/>
</a>
</g>
<text xml:space="preserve" text-anchor="start" x="282.95" y="-332" font-family="Helvetica,sans-Serif" font-size="10.00" fill="grey">entries</text>
</g>
<!-- Node12 -->
<g id="Node000012" class="node">
<title>Node12</title>
<g id="a_Node000012"><a xlink:href="structResponseContextQuery.html" target="_top" xlink:title=" ">
<polygon fill="white" stroke="#666666" points="456,-309.25 338,-309.25 338,-290 456,-290 456,-309.25"/>
<text xml:space="preserve" text-anchor="middle" x="397" y="-295.75" font-family="Helvetica,sans-Serif" font-size="10.00">ResponseContextQuery</text>
</a>
</g>
</g>
<!-- Node12&#45;&gt;Node5 -->
<g id="edge14_Node000005_Node000012" class="edge">
<title>Node12&#45;&gt;Node5</title>
<g id="a_edge14_Node000005_Node000012"><a xlink:title=" ">
<path fill="none" stroke="#9a32cd" stroke-dasharray="5,2" d="M363.07,-285.76C337.88,-276.46 302.57,-263.97 271,-254.75 248.36,-248.14 222.8,-241.96 201.81,-237.23"/>
<polygon fill="#9a32cd" stroke="#9a32cd" points="361.53,-288.92 372.13,-289.13 363.97,-282.36 361.53,-288.92"/>
</a>
</g>
<text xml:space="preserve" text-anchor="start" x="326.32" y="-259.5" font-family="Helvetica,sans-Serif" font-size="10.00" fill="grey">query</text>
</g>
<!-- Node13 -->
<g id="Node000013" class="node">
<title>Node13</title>
<g id="a_Node000013"><a xlink:href="structDynamicKeyValue.html" target="_top" xlink:title="Dynamic key/value pair.">
<polygon fill="white" stroke="#666666" points="446.38,-381.75 351.62,-381.75 351.62,-362.5 446.38,-362.5 446.38,-381.75"/>
<text xml:space="preserve" text-anchor="middle" x="399" y="-368.25" font-family="Helvetica,sans-Serif" font-size="10.00">DynamicKeyValue</text>
</a>
</g>
</g>
<!-- Node13&#45;&gt;Node12 -->
<g id="edge15_Node000012_Node000013" class="edge">
<title>Node13&#45;&gt;Node12</title>
<g id="a_edge15_Node000012_Node000013"><a xlink:title=" ">
<path fill="none" stroke="#9a32cd" stroke-dasharray="5,2" d="M398.43,-351.05C398.04,-337.44 397.55,-320.1 397.26,-309.7"/>
<polygon fill="#9a32cd" stroke="#9a32cd" points="394.92,-350.79 398.7,-360.68 401.92,-350.59 394.92,-350.79"/>
</a>
</g>
<text xml:space="preserve" text-anchor="start" x="401.24" y="-332" font-family="Helvetica,sans-Serif" font-size="10.00" fill="grey">entries</text>
</g>
<!-- Node14&#45;&gt;Node3 -->
<g id="edge16_Node000003_Node000014" class="edge">
<title>Node14&#45;&gt;Node3</title>
<g id="a_edge16_Node000003_Node000014"><a xlink:title=" ">
<path fill="none" stroke="#9a32cd" stroke-dasharray="5,2" d="M139.69,-65.48C120.55,-51.42 93.1,-31.26 77.36,-19.7"/>
<polygon fill="#9a32cd" stroke="#9a32cd" points="137.49,-68.2 147.62,-71.3 141.63,-62.56 137.49,-68.2"/>
</a>
</g>
<text xml:space="preserve" text-anchor="start" x="127.42" y="-42" font-family="Helvetica,sans-Serif" font-size="10.00" fill="grey">groups</text>
</g>
</g>
</svg>
