<?xml version="1.0" encoding="UTF-8" standalone="no"?>
<!DOCTYPE svg PUBLIC "-//W3C//DTD SVG 1.1//EN"
 "http://www.w3.org/Graphics/SVG/1.1/DTD/svg11.dtd">
<!-- Generated by graphviz version 14.0.5 (0)
 -->
<!-- Title: AppGroup Pages: 1 -->
<svg width="533pt" height="434pt"
 viewBox="0.00 0.00 533.00 434.00" xmlns="http://www.w3.org/2000/svg" xmlns:xlink="http://www.w3.org/1999/xlink">
<g id="graph0" class="graph" transform="scale(1 1) rotate(0) translate(4 429.5)">
<title>AppGroup</title>
<!-- Node1 -->
<g id="Node000001" class="node">
<title>Node1</title>
<g id="a_Node000001"><a xlink:title="Group of endpoints with shared root path and middleware.">
<polygon fill="#999999" stroke="#666666" points="59.5,-324.5 0,-324.5 0,-305.25 59.5,-305.25 59.5,-324.5"/>
<text xml:space="preserve" text-anchor="middle" x="29.75" y="-311" font-family="Helvetica,sans-Serif" font-size="10.00">AppGroup</text>
</a>
</g>
</g>
<!-- Node5 -->
<g id="Node000005" class="node">
<title>Node5</title>
<g id="a_Node000005"><a xlink:href="structApp.html" target="_top" xlink:title="Main application object.">
<polygon fill="white" stroke="#666666" points="94.38,-236.75 61.12,-236.75 61.12,-217.5 94.38,-217.5 94.38,-236.75"/>
<text xml:space="preserve" text-anchor="middle" x="77.75" y="-223.25" font-family="Helvetica,sans-Serif" font-size="10.00">App</text>
</a>
</g>
</g>
<!-- Node1&#45;&gt;Node5 -->
<g id="edge6_Node000005_Node000001" class="edge">
<title>Node1&#45;&gt;Node5</title>
<g id="a_edge6_Node000005_Node000001"><a xlink:title=" ">
<path fill="none" stroke="#9a32cd" stroke-dasharray="5,2" d="M40.27,-295.09C50.34,-277.09 65.1,-250.72 72.75,-237.06"/>
<polygon fill="#9a32cd" stroke="#9a32cd" points="37.28,-293.26 35.45,-303.7 43.38,-296.68 37.28,-293.26"/>
</a>
</g>
<text xml:space="preserve" text-anchor="start" x="65.22" y="-267.12" font-family="Helvetica,sans-Serif" font-size="10.00" fill="grey">groups</text>
</g>
<!-- Node2 -->
<g id="Node000002" class="node">
<title>Node2</title>
<g id="a_Node000002"><a xlink:href="structEndpoint.html" target="_top" xlink:title="Represents an HTTP route.">
<polygon fill="white" stroke="#666666" points="104.5,-19.25 51,-19.25 51,0 104.5,0 104.5,-19.25"/>
<text xml:space="preserve" text-anchor="middle" x="77.75" y="-5.75" font-family="Helvetica,sans-Serif" font-size="10.00">Endpoint</text>
</a>
</g>
</g>
<!-- Node2&#45;&gt;Node1 -->
<g id="edge1_Node000001_Node000002" class="edge">
<title>Node2&#45;&gt;Node1</title>
<g id="a_edge1_Node000001_Node000002"><a xlink:title=" ">
<path fill="none" stroke="#9a32cd" stroke-dasharray="5,2" d="M46.25,-24.75C25.35,-36.5 1.75,-55.45 1.75,-81.12 1.75,-228.12 1.75,-228.12 1.75,-228.12 1.75,-257.57 16.85,-290.01 24.87,-305.17"/>
<polygon fill="#9a32cd" stroke="#9a32cd" points="47.59,-28 54.83,-20.26 44.35,-21.79 47.59,-28"/>
</a>
</g>
<text xml:space="preserve" text-anchor="start" x="4.75" y="-150.75" font-family="Helvetica,sans-Serif" font-size="10.00" fill="grey">endpoints</text>
</g>
<!-- Node2&#45;&gt;Node5 -->
<g id="edge5_Node000005_Node000002" class="edge">
<title>Node2&#45;&gt;Node5</title>
<g id="a_edge5_Node000005_Node000002"><a xlink:title=" ">
<path fill="none" stroke="#9a32cd" stroke-dasharray="5,2" d="M77.75,-30.92C77.75,-76.43 77.75,-185.17 77.75,-217.14"/>
<polygon fill="#9a32cd" stroke="#9a32cd" points="81.25,-31.16 77.75,-21.16 74.25,-31.16 81.25,-31.16"/>
</a>
</g>
<text xml:space="preserve" text-anchor="start" x="80.75" y="-114.5" font-family="Helvetica,sans-Serif" font-size="10.00" fill="grey">endpoints</text>
</g>
<!-- Node3 -->
<g id="Node000003" class="node">
<title>Node3</title>
<g id="a_Node000003"><a xlink:href="structResponseContext.html" target="_top" xlink:title=" ">
<polygon fill="white" stroke="#666666" points="272,-91.75 179.5,-91.75 179.5,-72.5 272,-72.5 272,-91.75"/>
<text xml:space="preserve" text-anchor="middle" x="225.75" y="-78.25" font-family="Helvetica,sans-Serif" font-size="10.00">ResponseContext</text>
</a>
</g>
</g>
<!-- Node3&#45;&gt;Node2 -->
<g id="edge2_Node000002_Node000003" class="edge">
<title>Node3&#45;&gt;Node2</title>
<g id="a_edge2_Node000002_Node000003"><a xlink:title=" ">
<path fill="none" stroke="#9a32cd" stroke-dasharray="5,2" d="M196.56,-67.22C166.95,-53.11 121.99,-31.7 96.72,-19.66"/>
<polygon fill="#9a32cd" stroke="#9a32cd" points="194.8,-70.26 205.34,-71.4 197.82,-63.94 194.8,-70.26"/>
</a>
</g>
<text xml:space="preserve" text-anchor="start" x="172.36" y="-42" font-family="Helvetica,sans-Serif" font-size="10.00" fill="grey">handler</text>
</g>
<!-- Node4 -->
<g id="Node000004" class="node">
<title>Node4</title>
<g id="a_Node000004"><a xlink:href="structClientContext.html" target="_top" xlink:title="Context for a connected client.">
<polygon fill="white" stroke="#666666" points="186.62,-164.25 112.88,-164.25 112.88,-145 186.62,-145 186.62,-164.25"/>
<text xml:space="preserve" text-anchor="middle" x="149.75" y="-150.75" font-family="Helvetica,sans-Serif" font-size="10.00">ClientContext</text>
</a>
</g>
</g>
<!-- Node3&#45;&gt;Node4 -->
<g id="edge12_Node000004_Node000003" class="edge">
<title>Node3&#45;&gt;Node4</title>
<g id="a_edge12_Node000004_Node000003"><a xlink:title=" ">
<path fill="none" stroke="#9a32cd" stroke-dasharray="5,2" d="M204.8,-99.09C200.56,-102.51 196.2,-106.17 192.25,-109.75 179.68,-121.15 166.22,-135.44 157.89,-144.55"/>
<polygon fill="#9a32cd" stroke="#9a32cd" points="206.77,-101.99 212.47,-93.06 202.44,-96.49 206.77,-101.99"/>
</a>
</g>
<text xml:space="preserve" text-anchor="start" x="195.25" y="-114.5" font-family="Helvetica,sans-Serif" font-size="10.00" fill="grey">res</text>
</g>
<!-- Node4&#45;&gt;Node3 -->
<g id="edge3_Node000003_Node000004" class="edge">
<title>Node4&#45;&gt;Node3</title>
<g id="a_edge3_Node000003_Node000004"><a xlink:title=" ">
<path fill="none" stroke="#9a32cd" stroke-dasharray="5,2" d="M145.13,-133.51C144.42,-125.45 145.18,-116.51 150,-109.75 156.96,-99.99 167.79,-93.78 179.11,-89.84"/>
<polygon fill="#9a32cd" stroke="#9a32cd" points="141.65,-133.87 146.76,-143.15 148.55,-132.7 141.65,-133.87"/>
</a>
</g>
<text xml:space="preserve" text-anchor="start" x="153" y="-114.5" font-family="Helvetica,sans-Serif" font-size="10.00" fill="grey">ctx</text>
</g>
<!-- Node5&#45;&gt;Node4 -->
<g id="edge4_Node000004_Node000005" class="edge">
<title>Node5&#45;&gt;Node4</title>
<g id="a_edge4_Node000004_Node000005"><a xlink:title=" ">
<path fill="none" stroke="#9a32cd" stroke-dasharray="5,2" d="M94.93,-209.3C109.21,-195.32 129,-175.95 140.48,-164.7"/>
<polygon fill="#9a32cd" stroke="#9a32cd" points="92.65,-206.64 87.95,-216.14 97.54,-211.64 92.65,-206.64"/>
</a>
</g>
<text xml:space="preserve" text-anchor="start" x="125.32" y="-187" font-family="Helvetica,sans-Serif" font-size="10.00" fill="grey">app</text>
</g>
<!-- Node6 -->
<g id="Node000006" class="node">
<title>Node6</title>
<g id="a_Node000006"><a xlink:href="structRequest.html" target="_top" xlink:title="HTTP request structure.">
<polygon fill="white" stroke="#666666" points="218.75,-236.75 166.75,-236.75 166.75,-217.5 218.75,-217.5 218.75,-236.75"/>
<text xml:space="preserve" text-anchor="middle" x="192.75" y="-223.25" font-family="Helvetica,sans-Serif" font-size="10.00">Request</text>
</a>
</g>
</g>
<!-- Node6&#45;&gt;Node3 -->
<g id="edge13_Node000003_Node000006" class="edge">
<title>Node6&#45;&gt;Node3</title>
<g id="a_edge13_Node000003_Node000006"><a xlink:title=" ">
<path fill="none" stroke="#9a32cd" stroke-dasharray="5,2" d="M198.03,-206.37C198.62,-204.06 199.21,-201.73 199.75,-199.5 209.43,-159.67 219.69,-111.84 223.84,-92.21"/>
<polygon fill="#9a32cd" stroke="#9a32cd" points="194.71,-205.25 195.55,-215.81 201.48,-207.03 194.71,-205.25"/>
</a>
</g>
<text xml:space="preserve" text-anchor="start" x="215.05" y="-150.75" font-family="Helvetica,sans-Serif" font-size="10.00" fill="grey">req</text>
</g>
<!-- Node6&#45;&gt;Node4 -->
<g id="edge7_Node000004_Node000006" class="edge">
<title>Node6&#45;&gt;Node4</title>
<g id="a_edge7_Node000004_Node000006"><a xlink:title=" ">
<path fill="none" stroke="#9a32cd" stroke-dasharray="5,2" d="M181.51,-207.7C173.08,-193.87 161.89,-175.52 155.29,-164.7"/>
<polygon fill="#9a32cd" stroke="#9a32cd" points="178.32,-209.19 186.52,-215.9 184.3,-205.54 178.32,-209.19"/>
</a>
</g>
<text xml:space="preserve" text-anchor="start" x="179.37" y="-187" font-family="Helvetica,sans-Serif" font-size="10.00" fill="grey">req</text>
</g>
<!-- Node7 -->
<g id="Node000007" class="node">
<title>Node7</title>
<g id="a_Node000007"><a xlink:href="structKeyValue.html" target="_top" xlink:title="Fixed&#45;size key/value pair.">
<polygon fill="white" stroke="#666666" points="196.38,-324.5 139.12,-324.5 139.12,-305.25 196.38,-305.25 196.38,-324.5"/>
<text xml:space="preserve" text-anchor="middle" x="167.75" y="-311" font-family="Helvetica,sans-Serif" font-size="10.00">KeyValue</text>
</a>
</g>
</g>
<!-- Node7&#45;&gt;Node3 -->
<g id="edge14_Node000003_Node000007" class="edge">
<title>Node7&#45;&gt;Node3</title>
<g id="a_edge14_Node000003_Node000007"><a xlink:title=" ">
<path fill="none" stroke="#9a32cd" stroke-dasharray="5,2" d="M207.7,-303.81C228.71,-298.11 250.74,-291.33 253.75,-287.25 299.6,-225.06 248.14,-122.5 230.95,-91.96"/>
<polygon fill="#9a32cd" stroke="#9a32cd" points="206.82,-300.42 198.05,-306.36 208.62,-307.18 206.82,-300.42"/>
</a>
</g>
<text xml:space="preserve" text-anchor="start" x="273.13" y="-187" font-family="Helvetica,sans-Serif" font-size="10.00" fill="grey">headers</text>
</g>
<!-- Node7&#45;&gt;Node6 -->
<g id="edge8_Node000006_Node000007" class="edge">
<title>Node7&#45;&gt;Node6</title>
<g id="a_edge8_Node000006_Node000007"><a xlink:title=" ">
<path fill="none" stroke="#9a32cd" stroke-dasharray="5,2" d="M164.92,-293.83C164.06,-282.05 164.4,-267.1 169.25,-254.75 171.95,-247.86 177.29,-241.58 182.19,-236.85"/>
<polygon fill="#9a32cd" stroke="#9a32cd" points="161.42,-294.03 166,-303.59 168.38,-293.26 161.42,-294.03"/>
</a>
</g>
<text xml:space="preserve" text-anchor="start" x="172.25" y="-274.75" font-family="Helvetica,sans-Serif" font-size="10.00" fill="grey">headers</text>
<text xml:space="preserve" text-anchor="start" x="172.25" y="-259.5" font-family="Helvetica,sans-Serif" font-size="10.00" fill="grey">params</text>
</g>
<!-- Node8 -->
<g id="Node000008" class="node">
<title>Node8</title>
<g id="a_Node000008"><a xlink:href="structBody.html" target="_top" xlink:title="HTTP request or response body.">
<polygon fill="white" stroke="#666666" points="252.62,-324.5 214.88,-324.5 214.88,-305.25 252.62,-305.25 252.62,-324.5"/>
<text xml:space="preserve" text-anchor="middle" x="233.75" y="-311" font-family="Helvetica,sans-Serif" font-size="10.00">Body</text>
</a>
</g>
</g>
<!-- Node8&#45;&gt;Node6 -->
<g id="edge9_Node000006_Node000008" class="edge">
<title>Node8&#45;&gt;Node6</title>
<g id="a_edge9_Node000006_Node000008"><a xlink:title=" ">
<path fill="none" stroke="#9a32cd" stroke-dasharray="5,2" d="M226.75,-294.07C222.37,-282.39 216.32,-267.46 209.75,-254.75 206.63,-248.71 202.54,-242.27 199.16,-237.24"/>
<polygon fill="#9a32cd" stroke="#9a32cd" points="223.44,-295.21 230.15,-303.41 230.02,-292.82 223.44,-295.21"/>
</a>
</g>
<text xml:space="preserve" text-anchor="start" x="226.82" y="-267.12" font-family="Helvetica,sans-Serif" font-size="10.00" fill="grey">body</text>
</g>
<!-- Node9 -->
<g id="Node000009" class="node">
<title>Node9</title>
<g id="a_Node000009"><a xlink:href="structcJSON.html" target="_top" xlink:title=" ">
<polygon fill="white" stroke="#666666" points="257.88,-411.25 209.62,-411.25 209.62,-392 257.88,-392 257.88,-411.25"/>
<text xml:space="preserve" text-anchor="middle" x="233.75" y="-397.75" font-family="Helvetica,sans-Serif" font-size="10.00">cJSON</text>
</a>
</g>
</g>
<!-- Node9&#45;&gt;Node8 -->
<g id="edge10_Node000008_Node000009" class="edge">
<title>Node9&#45;&gt;Node8</title>
<g id="a_edge10_Node000008_Node000009"><a xlink:title=" ">
<path fill="none" stroke="#9a32cd" stroke-dasharray="5,2" d="M233.75,-380.23C233.75,-362.6 233.75,-337.97 233.75,-324.88"/>
<polygon fill="#9a32cd" stroke="#9a32cd" points="230.25,-380.04 233.75,-390.04 237.25,-380.04 230.25,-380.04"/>
</a>
</g>
<text xml:space="preserve" text-anchor="start" x="236.75" y="-347.25" font-family="Helvetica,sans-Serif" font-size="10.00" fill="grey">json</text>
</g>
<!-- Node9&#45;&gt;Node9 -->
<g id="edge11_Node000009_Node000009" class="edge">
<title>Node9&#45;&gt;Node9</title>
<g id="a_edge11_Node000009_Node000009"><a xlink:title=" ">
<path fill="none" stroke="#9a32cd" stroke-dasharray="5,2" d="M269.3,-409.63C273.29,-408.12 275.88,-405.45 275.88,-401.62 275.88,-394.82 267.71,-391.68 257.99,-392.21"/>
<polygon fill="#9a32cd" stroke="#9a32cd" points="268.98,-406.14 259.49,-410.85 269.85,-413.09 268.98,-406.14"/>
</a>
</g>
<text xml:space="preserve" text-anchor="start" x="278.88" y="-413" font-family="Helvetica,sans-Serif" font-size="10.00" fill="grey">child</text>
<text xml:space="preserve" text-anchor="start" x="278.88" y="-397.75" font-family="Helvetica,sans-Serif" font-size="10.00" fill="grey">next</text>
<text xml:space="preserve" text-anchor="start" x="278.88" y="-382.5" font-family="Helvetica,sans-Serif" font-size="10.00" fill="grey">prev</text>
</g>
<!-- Node10 -->
<g id="Node000010" class="node">
<title>Node10</title>
<g id="a_Node000010"><a xlink:href="structResponseData.html" target="_top" xlink:title=" ">
<polygon fill="white" stroke="#666666" points="383.62,-164.25 303.88,-164.25 303.88,-145 383.62,-145 383.62,-164.25"/>
<text xml:space="preserve" text-anchor="middle" x="343.75" y="-150.75" font-family="Helvetica,sans-Serif" font-size="10.00">ResponseData</text>
</a>
</g>
</g>
<!-- Node10&#45;&gt;Node3 -->
<g id="edge15_Node000003_Node000010" class="edge">
<title>Node10&#45;&gt;Node3</title>
<g id="a_edge15_Node000003_Node000010"><a xlink:title=" ">
<path fill="none" stroke="#9a32cd" stroke-dasharray="5,2" d="M325.28,-137.54C314.5,-128.65 300.39,-117.81 286.75,-109.75 275.21,-102.93 261.6,-96.82 250.17,-92.19"/>
<polygon fill="#9a32cd" stroke="#9a32cd" points="322.73,-139.98 332.63,-143.76 327.25,-134.63 322.73,-139.98"/>
</a>
</g>
<text xml:space="preserve" text-anchor="start" x="314.2" y="-114.5" font-family="Helvetica,sans-Serif" font-size="10.00" fill="grey">data</text>
</g>
<!-- Node11 -->
<g id="Node000011" class="node">
<title>Node11</title>
<g id="a_Node000011"><a xlink:href="structResponseDataEntry.html" target="_top" xlink:title=" ">
<polygon fill="white" stroke="#666666" points="402.5,-236.75 301,-236.75 301,-217.5 402.5,-217.5 402.5,-236.75"/>
<text xml:space="preserve" text-anchor="middle" x="351.75" y="-223.25" font-family="Helvetica,sans-Serif" font-size="10.00">ResponseDataEntry</text>
</a>
</g>
</g>
<!-- Node11&#45;&gt;Node10 -->
<g id="edge16_Node000010_Node000011" class="edge">
<title>Node11&#45;&gt;Node10</title>
<g id="a_edge16_Node000010_Node000011"><a xlink:title=" ">
<path fill="none" stroke="#9a32cd" stroke-dasharray="5,2" d="M349.47,-206.05C347.93,-192.44 345.96,-175.1 344.78,-164.7"/>
<polygon fill="#9a32cd" stroke="#9a32cd" points="345.96,-206.15 350.57,-215.69 352.92,-205.36 345.96,-206.15"/>
</a>
</g>
<text xml:space="preserve" text-anchor="start" x="351.7" y="-187" font-family="Helvetica,sans-Serif" font-size="10.00" fill="grey">entries</text>
</g>
<!-- Node12 -->
<g id="Node000012" class="node">
<title>Node12</title>
<g id="a_Node000012"><a xlink:href="structResponseContextQuery.html" target="_top" xlink:title=" ">
<polygon fill="white" stroke="#666666" points="524.75,-164.25 406.75,-164.25 406.75,-145 524.75,-145 524.75,-164.25"/>
<text xml:space="preserve" text-anchor="middle" x="465.75" y="-150.75" font-family="Helvetica,sans-Serif" font-size="10.00">ResponseContextQuery</text>
</a>
</g>
</g>
<!-- Node12&#45;&gt;Node3 -->
<g id="edge17_Node000003_Node000012" class="edge">
<title>Node12&#45;&gt;Node3</title>
<g id="a_edge17_Node000003_Node000012"><a xlink:title=" ">
<path fill="none" stroke="#9a32cd" stroke-dasharray="5,2" d="M431.83,-140.72C406.65,-131.41 371.34,-118.91 339.75,-109.75 316.81,-103.1 290.92,-96.94 269.61,-92.23"/>
<polygon fill="#9a32cd" stroke="#9a32cd" points="430.29,-143.88 440.88,-144.1 432.74,-137.32 430.29,-143.88"/>
</a>
</g>
<text xml:space="preserve" text-anchor="start" x="395.08" y="-114.5" font-family="Helvetica,sans-Serif" font-size="10.00" fill="grey">query</text>
</g>
<!-- Node13 -->
<g id="Node000013" class="node">
<title>Node13</title>
<g id="a_Node000013"><a xlink:href="structDynamicKeyValue.html" target="_top" xlink:title="Dynamic key/value pair.">
<polygon fill="white" stroke="#666666" points="515.12,-236.75 420.38,-236.75 420.38,-217.5 515.12,-217.5 515.12,-236.75"/>
<text xml:space="preserve" text-anchor="middle" x="467.75" y="-223.25" font-family="Helvetica,sans-Serif" font-size="10.00">DynamicKeyValue</text>
</a>
</g>
</g>
<!-- Node13&#45;&gt;Node12 -->
<g id="edge18_Node000012_Node000013" class="edge">
<title>Node13&#45;&gt;Node12</title>
<g id="a_edge18_Node000012_Node000013"><a xlink:title=" ">
<path fill="none" stroke="#9a32cd" stroke-dasharray="5,2" d="M467.18,-206.05C466.79,-192.44 466.3,-175.1 466.01,-164.7"/>
<polygon fill="#9a32cd" stroke="#9a32cd" points="463.67,-205.79 467.45,-215.68 470.67,-205.59 463.67,-205.79"/>
</a>
</g>
<text xml:space="preserve" text-anchor="start" x="469.99" y="-187" font-family="Helvetica,sans-Serif" font-size="10.00" fill="grey">entries</text>
</g>
</g>
</svg>
