<?xml version="1.0" encoding="UTF-8" standalone="no"?>
<!DOCTYPE svg PUBLIC "-//W3C//DTD SVG 1.1//EN"
 "http://www.w3.org/Graphics/SVG/1.1/DTD/svg11.dtd">
<!-- Generated by graphviz version 14.0.5 (0)
 -->
<!-- Title: ResponseContext Pages: 1 -->
<svg width="374pt" height="579pt"
 viewBox="0.00 0.00 374.00 579.00" xmlns="http://www.w3.org/2000/svg" xmlns:xlink="http://www.w3.org/1999/xlink">
<g id="graph0" class="graph" transform="scale(1 1) rotate(0) translate(4 574.5)">
<title>ResponseContext</title>
<!-- Node1 -->
<g id="Node000001" class="node">
<title>Node1</title>
<g id="a_Node000001"><a xlink:title=" ">
<polygon fill="#999999" stroke="#666666" points="182.88,-309.25 90.38,-309.25 90.38,-290 182.88,-290 182.88,-309.25"/>
<text xml:space="preserve" text-anchor="middle" x="136.62" y="-295.75" font-family="Helvetica,sans-Serif" font-size="10.00">ResponseContext</text>
</a>
</g>
</g>
<!-- Node4 -->
<g id="Node000004" class="node">
<title>Node4</title>
<g id="a_Node000004"><a xlink:href="structEndpoint.html" target="_top" xlink:title="Represents an HTTP route.">
<polygon fill="white" stroke="#666666" points="130.38,-236.75 76.88,-236.75 76.88,-217.5 130.38,-217.5 130.38,-236.75"/>
<text xml:space="preserve" text-anchor="middle" x="103.62" y="-223.25" font-family="Helvetica,sans-Serif" font-size="10.00">Endpoint</text>
</a>
</g>
</g>
<!-- Node1&#45;&gt;Node4 -->
<g id="edge4_Node000004_Node000001" class="edge">
<title>Node1&#45;&gt;Node4</title>
<g id="a_edge4_Node000004_Node000001"><a xlink:title=" ">
<path fill="none" stroke="#9a32cd" stroke-dasharray="5,2" d="M122.99,-280.46C121.22,-277.7 119.54,-274.83 118.12,-272 112.39,-260.52 108.16,-246.25 105.79,-237.16"/>
<polygon fill="#9a32cd" stroke="#9a32cd" points="119.96,-282.24 128.56,-288.43 125.7,-278.23 119.96,-282.24"/>
</a>
</g>
<text xml:space="preserve" text-anchor="start" x="121.12" y="-259.5" font-family="Helvetica,sans-Serif" font-size="10.00" fill="grey">handler</text>
</g>
<!-- Node2 -->
<g id="Node000002" class="node">
<title>Node2</title>
<g id="a_Node000002"><a xlink:href="structClientContext.html" target="_top" xlink:title="Context for a connected client.">
<polygon fill="white" stroke="#666666" points="173.5,-19.25 99.75,-19.25 99.75,0 173.5,0 173.5,-19.25"/>
<text xml:space="preserve" text-anchor="middle" x="136.62" y="-5.75" font-family="Helvetica,sans-Serif" font-size="10.00">ClientContext</text>
</a>
</g>
</g>
<!-- Node2&#45;&gt;Node1 -->
<g id="edge1_Node000001_Node000002" class="edge">
<title>Node2&#45;&gt;Node1</title>
<g id="a_edge1_Node000001_Node000002"><a xlink:title=" ">
<path fill="none" stroke="#9a32cd" stroke-dasharray="5,2" d="M150.46,-28.74C159.49,-42.39 169.62,-61.96 169.62,-81.12 169.62,-228.12 169.62,-228.12 169.62,-228.12 169.62,-252.18 153.67,-276.87 143.95,-289.68"/>
<polygon fill="#9a32cd" stroke="#9a32cd" points="153.47,-26.93 144.82,-20.81 147.76,-30.99 153.47,-26.93"/>
</a>
</g>
<text xml:space="preserve" text-anchor="start" x="172.62" y="-150.75" font-family="Helvetica,sans-Serif" font-size="10.00" fill="grey">ctx</text>
</g>
<!-- Node3 -->
<g id="Node000003" class="node">
<title>Node3</title>
<g id="a_Node000003"><a xlink:href="structApp.html" target="_top" xlink:title="Main application object.">
<polygon fill="white" stroke="#666666" points="120.25,-91.75 87,-91.75 87,-72.5 120.25,-72.5 120.25,-91.75"/>
<text xml:space="preserve" text-anchor="middle" x="103.62" y="-78.25" font-family="Helvetica,sans-Serif" font-size="10.00">App</text>
</a>
</g>
</g>
<!-- Node3&#45;&gt;Node2 -->
<g id="edge2_Node000002_Node000003" class="edge">
<title>Node3&#45;&gt;Node2</title>
<g id="a_edge2_Node000002_Node000003"><a xlink:title=" ">
<path fill="none" stroke="#9a32cd" stroke-dasharray="5,2" d="M112.63,-61.88C119.06,-48.15 127.41,-30.31 132.38,-19.7"/>
<polygon fill="#9a32cd" stroke="#9a32cd" points="109.52,-60.28 108.45,-70.83 115.86,-63.25 109.52,-60.28"/>
</a>
</g>
<text xml:space="preserve" text-anchor="start" x="127.05" y="-42" font-family="Helvetica,sans-Serif" font-size="10.00" fill="grey">app</text>
</g>
<!-- Node4&#45;&gt;Node3 -->
<g id="edge3_Node000003_Node000004" class="edge">
<title>Node4&#45;&gt;Node3</title>
<g id="a_edge3_Node000003_Node000004"><a xlink:title=" ">
<path fill="none" stroke="#9a32cd" stroke-dasharray="5,2" d="M70.54,-212.19C51,-202.02 27.93,-186.17 16.62,-164.25 -1.55,-129.01 56.47,-101 86.62,-89.19"/>
<polygon fill="#9a32cd" stroke="#9a32cd" points="68.76,-215.22 79.28,-216.46 71.83,-208.93 68.76,-215.22"/>
</a>
</g>
<text xml:space="preserve" text-anchor="start" x="19.62" y="-150.75" font-family="Helvetica,sans-Serif" font-size="10.00" fill="grey">endpoints</text>
</g>
<!-- Node5 -->
<g id="Node000005" class="node">
<title>Node5</title>
<g id="a_Node000005"><a xlink:href="structAppGroup.html" target="_top" xlink:title="Group of endpoints with shared root path and middleware.">
<polygon fill="white" stroke="#666666" points="133.38,-164.25 73.88,-164.25 73.88,-145 133.38,-145 133.38,-164.25"/>
<text xml:space="preserve" text-anchor="middle" x="103.62" y="-150.75" font-family="Helvetica,sans-Serif" font-size="10.00">AppGroup</text>
</a>
</g>
</g>
<!-- Node4&#45;&gt;Node5 -->
<g id="edge6_Node000005_Node000004" class="edge">
<title>Node4&#45;&gt;Node5</title>
<g id="a_edge6_Node000005_Node000004"><a xlink:title=" ">
<path fill="none" stroke="#9a32cd" stroke-dasharray="5,2" d="M103.62,-206.05C103.62,-192.44 103.62,-175.1 103.62,-164.7"/>
<polygon fill="#9a32cd" stroke="#9a32cd" points="100.13,-205.68 103.63,-215.68 107.13,-205.68 100.13,-205.68"/>
</a>
</g>
<text xml:space="preserve" text-anchor="start" x="106.62" y="-187" font-family="Helvetica,sans-Serif" font-size="10.00" fill="grey">endpoints</text>
</g>
<!-- Node5&#45;&gt;Node3 -->
<g id="edge5_Node000003_Node000005" class="edge">
<title>Node5&#45;&gt;Node3</title>
<g id="a_edge5_Node000003_Node000005"><a xlink:title=" ">
<path fill="none" stroke="#9a32cd" stroke-dasharray="5,2" d="M103.62,-133.55C103.62,-119.94 103.62,-102.6 103.62,-92.2"/>
<polygon fill="#9a32cd" stroke="#9a32cd" points="100.13,-133.18 103.63,-143.18 107.13,-133.18 100.13,-133.18"/>
</a>
</g>
<text xml:space="preserve" text-anchor="start" x="106.62" y="-114.5" font-family="Helvetica,sans-Serif" font-size="10.00" fill="grey">groups</text>
</g>
<!-- Node6 -->
<g id="Node000006" class="node">
<title>Node6</title>
<g id="a_Node000006"><a xlink:href="structRequest.html" target="_top" xlink:title="HTTP request structure.">
<polygon fill="white" stroke="#666666" points="131.62,-381.75 79.62,-381.75 79.62,-362.5 131.62,-362.5 131.62,-381.75"/>
<text xml:space="preserve" text-anchor="middle" x="105.62" y="-368.25" font-family="Helvetica,sans-Serif" font-size="10.00">Request</text>
</a>
</g>
</g>
<!-- Node6&#45;&gt;Node1 -->
<g id="edge7_Node000001_Node000006" class="edge">
<title>Node6&#45;&gt;Node1</title>
<g id="a_edge7_Node000001_Node000006"><a xlink:title=" ">
<path fill="none" stroke="#9a32cd" stroke-dasharray="5,2" d="M114.09,-351.88C120.12,-338.15 127.97,-320.31 132.63,-309.7"/>
<polygon fill="#9a32cd" stroke="#9a32cd" points="110.98,-350.25 110.16,-360.81 117.39,-353.07 110.98,-350.25"/>
</a>
</g>
<text xml:space="preserve" text-anchor="start" x="127.81" y="-332" font-family="Helvetica,sans-Serif" font-size="10.00" fill="grey">req</text>
</g>
<!-- Node7 -->
<g id="Node000007" class="node">
<title>Node7</title>
<g id="a_Node000007"><a xlink:href="structKeyValue.html" target="_top" xlink:title="Fixed&#45;size key/value pair.">
<polygon fill="white" stroke="#666666" points="57.25,-469.5 0,-469.5 0,-450.25 57.25,-450.25 57.25,-469.5"/>
<text xml:space="preserve" text-anchor="middle" x="28.62" y="-456" font-family="Helvetica,sans-Serif" font-size="10.00">KeyValue</text>
</a>
</g>
</g>
<!-- Node7&#45;&gt;Node1 -->
<g id="edge12_Node000001_Node000007" class="edge">
<title>Node7&#45;&gt;Node1</title>
<g id="a_edge12_Node000001_Node000007"><a xlink:title=" ">
<path fill="none" stroke="#9a32cd" stroke-dasharray="5,2" d="M23.5,-438.7C19.44,-418.06 16.46,-385.81 30.12,-362.5 46.18,-335.1 79.44,-318.67 104.55,-309.7"/>
<polygon fill="#9a32cd" stroke="#9a32cd" points="20.07,-439.41 25.7,-448.39 26.9,-437.86 20.07,-439.41"/>
</a>
</g>
<text xml:space="preserve" text-anchor="start" x="33.12" y="-368.25" font-family="Helvetica,sans-Serif" font-size="10.00" fill="grey">headers</text>
</g>
<!-- Node7&#45;&gt;Node6 -->
<g id="edge8_Node000006_Node000007" class="edge">
<title>Node7&#45;&gt;Node6</title>
<g id="a_edge8_Node000006_Node000007"><a xlink:title=" ">
<path fill="none" stroke="#9a32cd" stroke-dasharray="5,2" d="M35.02,-439.22C39.83,-426.76 47.45,-410.95 58.12,-399.75 65.17,-392.36 74.72,-386.47 83.42,-382.12"/>
<polygon fill="#9a32cd" stroke="#9a32cd" points="31.79,-437.85 31.75,-448.44 38.39,-440.18 31.79,-437.85"/>
</a>
</g>
<text xml:space="preserve" text-anchor="start" x="61.12" y="-419.75" font-family="Helvetica,sans-Serif" font-size="10.00" fill="grey">headers</text>
<text xml:space="preserve" text-anchor="start" x="61.12" y="-404.5" font-family="Helvetica,sans-Serif" font-size="10.00" fill="grey">params</text>
</g>
<!-- Node8 -->
<g id="Node000008" class="node">
<title>Node8</title>
<g id="a_Node000008"><a xlink:href="structBody.html" target="_top" xlink:title="HTTP request or response body.">
<polygon fill="white" stroke="#666666" points="120.5,-469.5 82.75,-469.5 82.75,-450.25 120.5,-450.25 120.5,-469.5"/>
<text xml:space="preserve" text-anchor="middle" x="101.62" y="-456" font-family="Helvetica,sans-Serif" font-size="10.00">Body</text>
</a>
</g>
</g>
<!-- Node8&#45;&gt;Node6 -->
<g id="edge9_Node000006_Node000008" class="edge">
<title>Node8&#45;&gt;Node6</title>
<g id="a_edge9_Node000006_Node000008"><a xlink:title=" ">
<path fill="none" stroke="#9a32cd" stroke-dasharray="5,2" d="M102.57,-438.54C103.41,-420.61 104.59,-395.33 105.21,-382.06"/>
<polygon fill="#9a32cd" stroke="#9a32cd" points="99.08,-438.36 102.11,-448.51 106.07,-438.68 99.08,-438.36"/>
</a>
</g>
<text xml:space="preserve" text-anchor="start" x="107.33" y="-412.12" font-family="Helvetica,sans-Serif" font-size="10.00" fill="grey">body</text>
</g>
<!-- Node9 -->
<g id="Node000009" class="node">
<title>Node9</title>
<g id="a_Node000009"><a xlink:href="structcJSON.html" target="_top" xlink:title=" ">
<polygon fill="white" stroke="#666666" points="125.75,-556.25 77.5,-556.25 77.5,-537 125.75,-537 125.75,-556.25"/>
<text xml:space="preserve" text-anchor="middle" x="101.62" y="-542.75" font-family="Helvetica,sans-Serif" font-size="10.00">cJSON</text>
</a>
</g>
</g>
<!-- Node9&#45;&gt;Node8 -->
<g id="edge10_Node000008_Node000009" class="edge">
<title>Node9&#45;&gt;Node8</title>
<g id="a_edge10_Node000008_Node000009"><a xlink:title=" ">
<path fill="none" stroke="#9a32cd" stroke-dasharray="5,2" d="M101.62,-525.23C101.62,-507.6 101.62,-482.97 101.62,-469.88"/>
<polygon fill="#9a32cd" stroke="#9a32cd" points="98.13,-525.04 101.63,-535.04 105.13,-525.04 98.13,-525.04"/>
</a>
</g>
<text xml:space="preserve" text-anchor="start" x="104.62" y="-492.25" font-family="Helvetica,sans-Serif" font-size="10.00" fill="grey">json</text>
</g>
<!-- Node9&#45;&gt;Node9 -->
<g id="edge11_Node000009_Node000009" class="edge">
<title>Node9&#45;&gt;Node9</title>
<g id="a_edge11_Node000009_Node000009"><a xlink:title=" ">
<path fill="none" stroke="#9a32cd" stroke-dasharray="5,2" d="M137.18,-554.63C141.17,-553.12 143.75,-550.45 143.75,-546.62 143.75,-539.82 135.59,-536.68 125.87,-537.21"/>
<polygon fill="#9a32cd" stroke="#9a32cd" points="136.86,-551.14 127.37,-555.85 137.72,-558.09 136.86,-551.14"/>
</a>
</g>
<text xml:space="preserve" text-anchor="start" x="146.75" y="-558" font-family="Helvetica,sans-Serif" font-size="10.00" fill="grey">child</text>
<text xml:space="preserve" text-anchor="start" x="146.75" y="-542.75" font-family="Helvetica,sans-Serif" font-size="10.00" fill="grey">next</text>
<text xml:space="preserve" text-anchor="start" x="146.75" y="-527.5" font-family="Helvetica,sans-Serif" font-size="10.00" fill="grey">prev</text>
</g>
<!-- Node10 -->
<g id="Node000010" class="node">
<title>Node10</title>
<g id="a_Node000010"><a xlink:href="structResponseData.html" target="_top" xlink:title=" ">
<polygon fill="white" stroke="#666666" points="229.5,-381.75 149.75,-381.75 149.75,-362.5 229.5,-362.5 229.5,-381.75"/>
<text xml:space="preserve" text-anchor="middle" x="189.62" y="-368.25" font-family="Helvetica,sans-Serif" font-size="10.00">ResponseData</text>
</a>
</g>
</g>
<!-- Node10&#45;&gt;Node1 -->
<g id="edge13_Node000001_Node000010" class="edge">
<title>Node10&#45;&gt;Node1</title>
<g id="a_edge13_Node000001_Node000010"><a xlink:title=" ">
<path fill="none" stroke="#9a32cd" stroke-dasharray="5,2" d="M176.08,-353.1C165.65,-339.23 151.66,-320.63 143.45,-309.7"/>
<polygon fill="#9a32cd" stroke="#9a32cd" points="173.2,-355.1 182,-360.99 178.79,-350.89 173.2,-355.1"/>
</a>
</g>
<text xml:space="preserve" text-anchor="start" x="172.43" y="-332" font-family="Helvetica,sans-Serif" font-size="10.00" fill="grey">data</text>
</g>
<!-- Node11 -->
<g id="Node000011" class="node">
<title>Node11</title>
<g id="a_Node000011"><a xlink:href="structResponseDataEntry.html" target="_top" xlink:title=" ">
<polygon fill="white" stroke="#666666" points="240.38,-469.5 138.88,-469.5 138.88,-450.25 240.38,-450.25 240.38,-469.5"/>
<text xml:space="preserve" text-anchor="middle" x="189.62" y="-456" font-family="Helvetica,sans-Serif" font-size="10.00">ResponseDataEntry</text>
</a>
</g>
</g>
<!-- Node11&#45;&gt;Node10 -->
<g id="edge14_Node000010_Node000011" class="edge">
<title>Node11&#45;&gt;Node10</title>
<g id="a_edge14_Node000010_Node000011"><a xlink:title=" ">
<path fill="none" stroke="#9a32cd" stroke-dasharray="5,2" d="M189.62,-438.54C189.62,-420.61 189.62,-395.33 189.62,-382.06"/>
<polygon fill="#9a32cd" stroke="#9a32cd" points="186.13,-438.51 189.63,-448.51 193.13,-438.51 186.13,-438.51"/>
</a>
</g>
<text xml:space="preserve" text-anchor="start" x="192.62" y="-412.12" font-family="Helvetica,sans-Serif" font-size="10.00" fill="grey">entries</text>
</g>
<!-- Node12 -->
<g id="Node000012" class="node">
<title>Node12</title>
<g id="a_Node000012"><a xlink:href="structResponseContextQuery.html" target="_top" xlink:title=" ">
<polygon fill="white" stroke="#666666" points="365.62,-381.75 247.62,-381.75 247.62,-362.5 365.62,-362.5 365.62,-381.75"/>
<text xml:space="preserve" text-anchor="middle" x="306.62" y="-368.25" font-family="Helvetica,sans-Serif" font-size="10.00">ResponseContextQuery</text>
</a>
</g>
</g>
<!-- Node12&#45;&gt;Node1 -->
<g id="edge15_Node000001_Node000012" class="edge">
<title>Node12&#45;&gt;Node1</title>
<g id="a_edge15_Node000001_Node000012"><a xlink:title=" ">
<path fill="none" stroke="#9a32cd" stroke-dasharray="5,2" d="M274.42,-357.77C240.45,-343.68 187.83,-321.86 158.42,-309.66"/>
<polygon fill="#9a32cd" stroke="#9a32cd" points="272.77,-360.88 283.35,-361.47 275.45,-354.41 272.77,-360.88"/>
</a>
</g>
<text xml:space="preserve" text-anchor="start" x="244.85" y="-332" font-family="Helvetica,sans-Serif" font-size="10.00" fill="grey">query</text>
</g>
<!-- Node13 -->
<g id="Node000013" class="node">
<title>Node13</title>
<g id="a_Node000013"><a xlink:href="structDynamicKeyValue.html" target="_top" xlink:title="Dynamic key/value pair.">
<polygon fill="white" stroke="#666666" points="354,-469.5 259.25,-469.5 259.25,-450.25 354,-450.25 354,-469.5"/>
<text xml:space="preserve" text-anchor="middle" x="306.62" y="-456" font-family="Helvetica,sans-Serif" font-size="10.00">DynamicKeyValue</text>
</a>
</g>
</g>
<!-- Node13&#45;&gt;Node12 -->
<g id="edge16_Node000012_Node000013" class="edge">
<title>Node13&#45;&gt;Node12</title>
<g id="a_edge16_Node000012_Node000013"><a xlink:title=" ">
<path fill="none" stroke="#9a32cd" stroke-dasharray="5,2" d="M306.62,-438.54C306.62,-420.61 306.62,-395.33 306.62,-382.06"/>
<polygon fill="#9a32cd" stroke="#9a32cd" points="303.13,-438.51 306.63,-448.51 310.13,-438.51 303.13,-438.51"/>
</a>
</g>
<text xml:space="preserve" text-anchor="start" x="309.62" y="-412.12" font-family="Helvetica,sans-Serif" font-size="10.00" fill="grey">entries</text>
</g>
</g>
</svg>
