<?xml version="1.0" encoding="UTF-8" standalone="no"?>
<!DOCTYPE svg PUBLIC "-//W3C//DTD SVG 1.1//EN"
 "http://www.w3.org/Graphics/SVG/1.1/DTD/svg11.dtd">
<!-- Generated by graphviz version 14.0.5 (0)
 -->
<!-- Title: App Pages: 1 -->
<svg width="592pt" height="434pt"
 viewBox="0.00 0.00 592.00 434.00" xmlns="http://www.w3.org/2000/svg" xmlns:xlink="http://www.w3.org/1999/xlink">
<g id="graph0" class="graph" transform="scale(1 1) rotate(0) translate(4 429.5)">
<title>App</title>
<!-- Node1 -->
<g id="Node000001" class="node">
<title>Node1</title>
<g id="a_Node000001"><a xlink:title="Main application object.">
<polygon fill="#999999" stroke="#666666" points="502.25,-324.5 469,-324.5 469,-305.25 502.25,-305.25 502.25,-324.5"/>
<text xml:space="preserve" text-anchor="middle" x="485.62" y="-311" font-family="Helvetica,sans-Serif" font-size="10.00">App</text>
</a>
</g>
</g>
<!-- Node4 -->
<g id="Node000004" class="node">
<title>Node4</title>
<g id="a_Node000004"><a xlink:href="structClientContext.html" target="_top" xlink:title="Context for a connected client.">
<polygon fill="white" stroke="#666666" points="457.5,-236.75 383.75,-236.75 383.75,-217.5 457.5,-217.5 457.5,-236.75"/>
<text xml:space="preserve" text-anchor="middle" x="420.62" y="-223.25" font-family="Helvetica,sans-Serif" font-size="10.00">ClientContext</text>
</a>
</g>
</g>
<!-- Node1&#45;&gt;Node4 -->
<g id="edge4_Node000004_Node000001" class="edge">
<title>Node1&#45;&gt;Node4</title>
<g id="a_edge4_Node000004_Node000001"><a xlink:title=" ">
<path fill="none" stroke="#9a32cd" stroke-dasharray="5,2" d="M461.38,-298.29C457.23,-294.96 453.2,-291.24 449.88,-287.25 436.82,-271.59 427.78,-249.12 423.48,-236.89"/>
<polygon fill="#9a32cd" stroke="#9a32cd" points="459.04,-300.91 469.18,-303.99 463.17,-295.26 459.04,-300.91"/>
</a>
</g>
<text xml:space="preserve" text-anchor="start" x="452.88" y="-267.12" font-family="Helvetica,sans-Serif" font-size="10.00" fill="grey">app</text>
</g>
<!-- Node2 -->
<g id="Node000002" class="node">
<title>Node2</title>
<g id="a_Node000002"><a xlink:href="structEndpoint.html" target="_top" xlink:title="Represents an HTTP route.">
<polygon fill="white" stroke="#666666" points="512.38,-91.75 458.88,-91.75 458.88,-72.5 512.38,-72.5 512.38,-91.75"/>
<text xml:space="preserve" text-anchor="middle" x="485.62" y="-78.25" font-family="Helvetica,sans-Serif" font-size="10.00">Endpoint</text>
</a>
</g>
</g>
<!-- Node2&#45;&gt;Node1 -->
<g id="edge1_Node000001_Node000002" class="edge">
<title>Node2&#45;&gt;Node1</title>
<g id="a_edge1_Node000001_Node000002"><a xlink:title=" ">
<path fill="none" stroke="#9a32cd" stroke-dasharray="5,2" d="M485.62,-103.1C485.62,-151 485.62,-270.94 485.62,-304.83"/>
<polygon fill="#9a32cd" stroke="#9a32cd" points="489.13,-103.37 485.63,-93.37 482.13,-103.37 489.13,-103.37"/>
</a>
</g>
<text xml:space="preserve" text-anchor="start" x="488.62" y="-187" font-family="Helvetica,sans-Serif" font-size="10.00" fill="grey">endpoints</text>
</g>
<!-- Node13 -->
<g id="Node000013" class="node">
<title>Node13</title>
<g id="a_Node000013"><a xlink:href="structAppGroup.html" target="_top" xlink:title="Group of endpoints with shared root path and middleware.">
<polygon fill="white" stroke="#666666" points="546.38,-19.25 486.88,-19.25 486.88,0 546.38,0 546.38,-19.25"/>
<text xml:space="preserve" text-anchor="middle" x="516.62" y="-5.75" font-family="Helvetica,sans-Serif" font-size="10.00">AppGroup</text>
</a>
</g>
</g>
<!-- Node2&#45;&gt;Node13 -->
<g id="edge16_Node000013_Node000002" class="edge">
<title>Node2&#45;&gt;Node13</title>
<g id="a_edge16_Node000013_Node000002"><a xlink:title=" ">
<path fill="none" stroke="#9a32cd" stroke-dasharray="5,2" d="M482.75,-60.93C482.49,-53.2 483.26,-44.51 486.62,-37.25 489.9,-30.17 496.06,-24.19 501.94,-19.7"/>
<polygon fill="#9a32cd" stroke="#9a32cd" points="479.25,-61.12 483.69,-70.75 486.22,-60.46 479.25,-61.12"/>
</a>
</g>
<text xml:space="preserve" text-anchor="start" x="489.62" y="-42" font-family="Helvetica,sans-Serif" font-size="10.00" fill="grey">endpoints</text>
</g>
<!-- Node3 -->
<g id="Node000003" class="node">
<title>Node3</title>
<g id="a_Node000003"><a xlink:href="structResponseContext.html" target="_top" xlink:title=" ">
<polygon fill="white" stroke="#666666" points="277.88,-164.25 185.38,-164.25 185.38,-145 277.88,-145 277.88,-164.25"/>
<text xml:space="preserve" text-anchor="middle" x="231.62" y="-150.75" font-family="Helvetica,sans-Serif" font-size="10.00">ResponseContext</text>
</a>
</g>
</g>
<!-- Node3&#45;&gt;Node2 -->
<g id="edge2_Node000002_Node000003" class="edge">
<title>Node3&#45;&gt;Node2</title>
<g id="a_edge2_Node000002_Node000003"><a xlink:title=" ">
<path fill="none" stroke="#9a32cd" stroke-dasharray="5,2" d="M275.31,-141.5C327.92,-126.9 414.67,-102.82 458.49,-90.66"/>
<polygon fill="#9a32cd" stroke="#9a32cd" points="274.47,-138.1 265.77,-144.15 276.34,-144.85 274.47,-138.1"/>
</a>
</g>
<text xml:space="preserve" text-anchor="start" x="391.84" y="-114.5" font-family="Helvetica,sans-Serif" font-size="10.00" fill="grey">handler</text>
</g>
<!-- Node4&#45;&gt;Node3 -->
<g id="edge3_Node000003_Node000004" class="edge">
<title>Node4&#45;&gt;Node3</title>
<g id="a_edge3_Node000003_Node000004"><a xlink:title=" ">
<path fill="none" stroke="#9a32cd" stroke-dasharray="5,2" d="M388.92,-212.76C367.27,-203.79 337.88,-191.89 311.62,-182.25 294.72,-176.04 275.6,-169.65 260.28,-164.69"/>
<polygon fill="#9a32cd" stroke="#9a32cd" points="387.5,-215.96 398.07,-216.58 390.19,-209.5 387.5,-215.96"/>
</a>
</g>
<text xml:space="preserve" text-anchor="start" x="356.82" y="-187" font-family="Helvetica,sans-Serif" font-size="10.00" fill="grey">ctx</text>
</g>
<!-- Node5 -->
<g id="Node000005" class="node">
<title>Node5</title>
<g id="a_Node000005"><a xlink:href="structRequest.html" target="_top" xlink:title="HTTP request structure.">
<polygon fill="white" stroke="#666666" points="131.62,-236.75 79.62,-236.75 79.62,-217.5 131.62,-217.5 131.62,-236.75"/>
<text xml:space="preserve" text-anchor="middle" x="105.62" y="-223.25" font-family="Helvetica,sans-Serif" font-size="10.00">Request</text>
</a>
</g>
</g>
<!-- Node5&#45;&gt;Node3 -->
<g id="edge5_Node000003_Node000005" class="edge">
<title>Node5&#45;&gt;Node3</title>
<g id="a_edge5_Node000003_Node000005"><a xlink:title=" ">
<path fill="none" stroke="#9a32cd" stroke-dasharray="5,2" d="M130.61,-211.56C145.51,-202.94 164.83,-191.86 182.12,-182.25 192.87,-176.28 205.03,-169.74 214.61,-164.63"/>
<polygon fill="#9a32cd" stroke="#9a32cd" points="129.29,-208.29 122.39,-216.33 132.8,-214.34 129.29,-208.29"/>
</a>
</g>
<text xml:space="preserve" text-anchor="start" x="185.12" y="-187" font-family="Helvetica,sans-Serif" font-size="10.00" fill="grey">req</text>
</g>
<!-- Node6 -->
<g id="Node000006" class="node">
<title>Node6</title>
<g id="a_Node000006"><a xlink:href="structKeyValue.html" target="_top" xlink:title="Fixed&#45;size key/value pair.">
<polygon fill="white" stroke="#666666" points="57.25,-324.5 0,-324.5 0,-305.25 57.25,-305.25 57.25,-324.5"/>
<text xml:space="preserve" text-anchor="middle" x="28.62" y="-311" font-family="Helvetica,sans-Serif" font-size="10.00">KeyValue</text>
</a>
</g>
</g>
<!-- Node6&#45;&gt;Node3 -->
<g id="edge10_Node000003_Node000006" class="edge">
<title>Node6&#45;&gt;Node3</title>
<g id="a_edge10_Node000003_Node000006"><a xlink:title=" ">
<path fill="none" stroke="#9a32cd" stroke-dasharray="5,2" d="M22.67,-293.92C17.66,-272.76 13.66,-239.42 30.12,-217.5 65.84,-169.95 137.4,-157.84 184.91,-155.33"/>
<polygon fill="#9a32cd" stroke="#9a32cd" points="19.22,-294.58 25.19,-303.33 25.98,-292.77 19.22,-294.58"/>
</a>
</g>
<text xml:space="preserve" text-anchor="start" x="33.12" y="-223.25" font-family="Helvetica,sans-Serif" font-size="10.00" fill="grey">headers</text>
</g>
<!-- Node6&#45;&gt;Node5 -->
<g id="edge6_Node000005_Node000006" class="edge">
<title>Node6&#45;&gt;Node5</title>
<g id="a_edge6_Node000005_Node000006"><a xlink:title=" ">
<path fill="none" stroke="#9a32cd" stroke-dasharray="5,2" d="M35.02,-294.22C39.83,-281.76 47.45,-265.95 58.12,-254.75 65.17,-247.36 74.72,-241.47 83.42,-237.12"/>
<polygon fill="#9a32cd" stroke="#9a32cd" points="31.79,-292.85 31.75,-303.44 38.39,-295.18 31.79,-292.85"/>
</a>
</g>
<text xml:space="preserve" text-anchor="start" x="61.12" y="-274.75" font-family="Helvetica,sans-Serif" font-size="10.00" fill="grey">headers</text>
<text xml:space="preserve" text-anchor="start" x="61.12" y="-259.5" font-family="Helvetica,sans-Serif" font-size="10.00" fill="grey">params</text>
</g>
<!-- Node7 -->
<g id="Node000007" class="node">
<title>Node7</title>
<g id="a_Node000007"><a xlink:href="structBody.html" target="_top" xlink:title="HTTP request or response body.">
<polygon fill="white" stroke="#666666" points="120.5,-324.5 82.75,-324.5 82.75,-305.25 120.5,-305.25 120.5,-324.5"/>
<text xml:space="preserve" text-anchor="middle" x="101.62" y="-311" font-family="Helvetica,sans-Serif" font-size="10.00">Body</text>
</a>
</g>
</g>
<!-- Node7&#45;&gt;Node5 -->
<g id="edge7_Node000005_Node000007" class="edge">
<title>Node7&#45;&gt;Node5</title>
<g id="a_edge7_Node000005_Node000007"><a xlink:title=" ">
<path fill="none" stroke="#9a32cd" stroke-dasharray="5,2" d="M102.57,-293.54C103.41,-275.61 104.59,-250.33 105.21,-237.06"/>
<polygon fill="#9a32cd" stroke="#9a32cd" points="99.08,-293.36 102.11,-303.51 106.07,-293.68 99.08,-293.36"/>
</a>
</g>
<text xml:space="preserve" text-anchor="start" x="107.33" y="-267.12" font-family="Helvetica,sans-Serif" font-size="10.00" fill="grey">body</text>
</g>
<!-- Node8 -->
<g id="Node000008" class="node">
<title>Node8</title>
<g id="a_Node000008"><a xlink:href="structcJSON.html" target="_top" xlink:title=" ">
<polygon fill="white" stroke="#666666" points="125.75,-411.25 77.5,-411.25 77.5,-392 125.75,-392 125.75,-411.25"/>
<text xml:space="preserve" text-anchor="middle" x="101.62" y="-397.75" font-family="Helvetica,sans-Serif" font-size="10.00">cJSON</text>
</a>
</g>
</g>
<!-- Node8&#45;&gt;Node7 -->
<g id="edge8_Node000007_Node000008" class="edge">
<title>Node8&#45;&gt;Node7</title>
<g id="a_edge8_Node000007_Node000008"><a xlink:title=" ">
<path fill="none" stroke="#9a32cd" stroke-dasharray="5,2" d="M101.62,-380.23C101.62,-362.6 101.62,-337.97 101.62,-324.88"/>
<polygon fill="#9a32cd" stroke="#9a32cd" points="98.13,-380.04 101.63,-390.04 105.13,-380.04 98.13,-380.04"/>
</a>
</g>
<text xml:space="preserve" text-anchor="start" x="104.62" y="-347.25" font-family="Helvetica,sans-Serif" font-size="10.00" fill="grey">json</text>
</g>
<!-- Node8&#45;&gt;Node8 -->
<g id="edge9_Node000008_Node000008" class="edge">
<title>Node8&#45;&gt;Node8</title>
<g id="a_edge9_Node000008_Node000008"><a xlink:title=" ">
<path fill="none" stroke="#9a32cd" stroke-dasharray="5,2" d="M137.18,-409.63C141.17,-408.12 143.75,-405.45 143.75,-401.62 143.75,-394.82 135.59,-391.68 125.87,-392.21"/>
<polygon fill="#9a32cd" stroke="#9a32cd" points="136.86,-406.14 127.37,-410.85 137.72,-413.09 136.86,-406.14"/>
</a>
</g>
<text xml:space="preserve" text-anchor="start" x="146.75" y="-413" font-family="Helvetica,sans-Serif" font-size="10.00" fill="grey">child</text>
<text xml:space="preserve" text-anchor="start" x="146.75" y="-397.75" font-family="Helvetica,sans-Serif" font-size="10.00" fill="grey">next</text>
<text xml:space="preserve" text-anchor="start" x="146.75" y="-382.5" font-family="Helvetica,sans-Serif" font-size="10.00" fill="grey">prev</text>
</g>
<!-- Node9 -->
<g id="Node000009" class="node">
<title>Node9</title>
<g id="a_Node000009"><a xlink:href="structResponseData.html" target="_top" xlink:title=" ">
<polygon fill="white" stroke="#666666" points="229.5,-236.75 149.75,-236.75 149.75,-217.5 229.5,-217.5 229.5,-236.75"/>
<text xml:space="preserve" text-anchor="middle" x="189.62" y="-223.25" font-family="Helvetica,sans-Serif" font-size="10.00">ResponseData</text>
</a>
</g>
</g>
<!-- Node9&#45;&gt;Node3 -->
<g id="edge11_Node000003_Node000009" class="edge">
<title>Node9&#45;&gt;Node3</title>
<g id="a_edge11_Node000003_Node000009"><a xlink:title=" ">
<path fill="none" stroke="#9a32cd" stroke-dasharray="5,2" d="M200.6,-207.7C208.84,-193.87 219.77,-175.52 226.22,-164.7"/>
<polygon fill="#9a32cd" stroke="#9a32cd" points="197.83,-205.51 195.72,-215.9 203.84,-209.1 197.83,-205.51"/>
</a>
</g>
<text xml:space="preserve" text-anchor="start" x="218.62" y="-187" font-family="Helvetica,sans-Serif" font-size="10.00" fill="grey">data</text>
</g>
<!-- Node10 -->
<g id="Node000010" class="node">
<title>Node10</title>
<g id="a_Node000010"><a xlink:href="structResponseDataEntry.html" target="_top" xlink:title=" ">
<polygon fill="white" stroke="#666666" points="240.38,-324.5 138.88,-324.5 138.88,-305.25 240.38,-305.25 240.38,-324.5"/>
<text xml:space="preserve" text-anchor="middle" x="189.62" y="-311" font-family="Helvetica,sans-Serif" font-size="10.00">ResponseDataEntry</text>
</a>
</g>
</g>
<!-- Node10&#45;&gt;Node9 -->
<g id="edge12_Node000009_Node000010" class="edge">
<title>Node10&#45;&gt;Node9</title>
<g id="a_edge12_Node000009_Node000010"><a xlink:title=" ">
<path fill="none" stroke="#9a32cd" stroke-dasharray="5,2" d="M189.62,-293.54C189.62,-275.61 189.62,-250.33 189.62,-237.06"/>
<polygon fill="#9a32cd" stroke="#9a32cd" points="186.13,-293.51 189.63,-303.51 193.13,-293.51 186.13,-293.51"/>
</a>
</g>
<text xml:space="preserve" text-anchor="start" x="192.62" y="-267.12" font-family="Helvetica,sans-Serif" font-size="10.00" fill="grey">entries</text>
</g>
<!-- Node11 -->
<g id="Node000011" class="node">
<title>Node11</title>
<g id="a_Node000011"><a xlink:href="structResponseContextQuery.html" target="_top" xlink:title=" ">
<polygon fill="white" stroke="#666666" points="365.62,-236.75 247.62,-236.75 247.62,-217.5 365.62,-217.5 365.62,-236.75"/>
<text xml:space="preserve" text-anchor="middle" x="306.62" y="-223.25" font-family="Helvetica,sans-Serif" font-size="10.00">ResponseContextQuery</text>
</a>
</g>
</g>
<!-- Node11&#45;&gt;Node3 -->
<g id="edge13_Node000003_Node000011" class="edge">
<title>Node11&#45;&gt;Node3</title>
<g id="a_edge13_Node000003_Node000011"><a xlink:title=" ">
<path fill="none" stroke="#9a32cd" stroke-dasharray="5,2" d="M289.15,-209.7C274.24,-195.68 253.36,-176.05 241.28,-164.7"/>
<polygon fill="#9a32cd" stroke="#9a32cd" points="286.34,-211.86 296.02,-216.16 291.13,-206.76 286.34,-211.86"/>
</a>
</g>
<text xml:space="preserve" text-anchor="start" x="281.05" y="-187" font-family="Helvetica,sans-Serif" font-size="10.00" fill="grey">query</text>
</g>
<!-- Node12 -->
<g id="Node000012" class="node">
<title>Node12</title>
<g id="a_Node000012"><a xlink:href="structDynamicKeyValue.html" target="_top" xlink:title="Dynamic key/value pair.">
<polygon fill="white" stroke="#666666" points="354,-324.5 259.25,-324.5 259.25,-305.25 354,-305.25 354,-324.5"/>
<text xml:space="preserve" text-anchor="middle" x="306.62" y="-311" font-family="Helvetica,sans-Serif" font-size="10.00">DynamicKeyValue</text>
</a>
</g>
</g>
<!-- Node12&#45;&gt;Node11 -->
<g id="edge14_Node000011_Node000012" class="edge">
<title>Node12&#45;&gt;Node11</title>
<g id="a_edge14_Node000011_Node000012"><a xlink:title=" ">
<path fill="none" stroke="#9a32cd" stroke-dasharray="5,2" d="M306.62,-293.54C306.62,-275.61 306.62,-250.33 306.62,-237.06"/>
<polygon fill="#9a32cd" stroke="#9a32cd" points="303.13,-293.51 306.63,-303.51 310.13,-293.51 303.13,-293.51"/>
</a>
</g>
<text xml:space="preserve" text-anchor="start" x="309.62" y="-267.12" font-family="Helvetica,sans-Serif" font-size="10.00" fill="grey">entries</text>
</g>
<!-- Node13&#45;&gt;Node1 -->
<g id="edge15_Node000001_Node000013" class="edge">
<title>Node13&#45;&gt;Node1</title>
<g id="a_edge15_Node000001_Node000013"><a xlink:title=" ">
<path fill="none" stroke="#9a32cd" stroke-dasharray="5,2" d="M530.04,-28.81C538.8,-42.48 548.62,-62.06 548.62,-81.12 548.62,-228.12 548.62,-228.12 548.62,-228.12 548.62,-261.75 516.78,-290.9 498.37,-304.95"/>
<polygon fill="#9a32cd" stroke="#9a32cd" points="533.13,-27.12 524.58,-20.86 527.36,-31.08 533.13,-27.12"/>
</a>
</g>
<text xml:space="preserve" text-anchor="start" x="551.62" y="-150.75" font-family="Helvetica,sans-Serif" font-size="10.00" fill="grey">groups</text>
</g>
</g>
</svg>
