<?xml version="1.0" encoding="UTF-8" standalone="no"?>
<!DOCTYPE svg PUBLIC "-//W3C//DTD SVG 1.1//EN"
 "http://www.w3.org/Graphics/SVG/1.1/DTD/svg11.dtd">
<!-- Generated by graphviz version 14.0.5 (0)
 -->
<!-- Title: internal_hooks::reallocate Pages: 1 -->
<svg width="658pt" height="215pt"
 viewBox="0.00 0.00 658.00 215.00" xmlns="http://www.w3.org/2000/svg" xmlns:xlink="http://www.w3.org/1999/xlink">
<g id="graph0" class="graph" transform="scale(1 1) rotate(0) translate(4 210.96)">
<title>internal_hooks::reallocate</title>
<!-- Node1 -->
<g id="Node000001" class="node">
<title>Node1</title>
<g id="a_Node000001"><a xlink:title=" ">
<polygon fill="#999999" stroke="#666666" points="650.25,-47.62 524.75,-47.62 524.75,-28.38 650.25,-28.38 650.25,-47.62"/>
<text xml:space="preserve" text-anchor="middle" x="587.5" y="-34.12" font-family="Helvetica,sans-Serif" font-size="10.00">internal_hooks::reallocate</text>
</a>
</g>
</g>
<!-- Node1&#45;&gt;Node1 -->
<g id="edge18_Node000001_Node000001" class="edge">
<title>Node1&#45;&gt;Node1</title>
<g id="a_edge18_Node000001_Node000001"><a xlink:title=" ">
<path fill="none" stroke="#63b8ff" d="M609.04,-59.03C606.35,-62.9 599.17,-65.62 587.5,-65.62 566.16,-65.62 559.83,-56.52 568.5,-47.91"/>
<polygon fill="#63b8ff" stroke="#63b8ff" points="612.48,-58.36 606.84,-49.39 605.66,-59.92 612.48,-58.36"/>
</a>
</g>
</g>
<!-- Node2 -->
<g id="Node000002" class="node">
<title>Node2</title>
<g id="a_Node000002"><a xlink:href="cJSON_8c.html#ad9f9a9b2ad3154fc8033756f23c023a6" target="_top" xlink:title=" ">
<polygon fill="white" stroke="#666666" points="488.75,-104.62 443.5,-104.62 443.5,-85.38 488.75,-85.38 488.75,-104.62"/>
<text xml:space="preserve" text-anchor="middle" x="466.12" y="-91.12" font-family="Helvetica,sans-Serif" font-size="10.00">ensure</text>
</a>
</g>
</g>
<!-- Node1&#45;&gt;Node2 -->
<g id="edge1_Node000001_Node000002" class="edge">
<title>Node1&#45;&gt;Node2</title>
<g id="a_edge1_Node000001_Node000002"><a xlink:title=" ">
<path fill="none" stroke="#63b8ff" d="M555.29,-52.9C534.07,-63.03 506.58,-76.16 487.98,-85.04"/>
<polygon fill="#63b8ff" stroke="#63b8ff" points="556.55,-56.18 564.07,-48.71 553.53,-49.86 556.55,-56.18"/>
</a>
</g>
</g>
<!-- Node6 -->
<g id="Node000006" class="node">
<title>Node6</title>
<g id="a_Node000006"><a xlink:href="cJSON_8c.html#a36b0c212c0d382a4714afa8b70c1a2ee" target="_top" xlink:title=" ">
<polygon fill="white" stroke="#666666" points="63.25,-48.62 28.5,-48.62 28.5,-29.38 63.25,-29.38 63.25,-48.62"/>
<text xml:space="preserve" text-anchor="middle" x="45.88" y="-35.12" font-family="Helvetica,sans-Serif" font-size="10.00">print</text>
</a>
</g>
</g>
<!-- Node1&#45;&gt;Node6 -->
<g id="edge17_Node000001_Node000006" class="edge">
<title>Node1&#45;&gt;Node6</title>
<g id="a_edge17_Node000001_Node000006"><a xlink:title=" ">
<path fill="none" stroke="#63b8ff" d="M540.01,-25.12C496.1,-14.1 428.22,0 368.25,0 368.25,0 368.25,0 258,0 184.57,0 99.13,-23.09 63.65,-33.74"/>
<polygon fill="#63b8ff" stroke="#63b8ff" points="538.89,-28.44 549.45,-27.54 540.63,-21.66 538.89,-28.44"/>
</a>
</g>
</g>
<!-- Node3 -->
<g id="Node000003" class="node">
<title>Node3</title>
<g id="a_Node000003"><a xlink:href="cJSON_8c.html#ae84642817f3965a85c7c617663250c16" target="_top" xlink:title=" ">
<polygon fill="white" stroke="#666666" points="289.5,-47.62 228.5,-47.62 228.5,-28.38 289.5,-28.38 289.5,-47.62"/>
<text xml:space="preserve" text-anchor="middle" x="259" y="-34.12" font-family="Helvetica,sans-Serif" font-size="10.00">print_array</text>
</a>
</g>
</g>
<!-- Node2&#45;&gt;Node3 -->
<g id="edge2_Node000002_Node000003" class="edge">
<title>Node2&#45;&gt;Node3</title>
<g id="a_edge2_Node000002_Node000003"><a xlink:title=" ">
<path fill="none" stroke="#63b8ff" d="M444.56,-78.11C434.08,-70.41 420.78,-61.93 407.5,-57 368.53,-42.53 320.24,-38.75 289.76,-37.93"/>
<polygon fill="#63b8ff" stroke="#63b8ff" points="442.38,-80.86 452.44,-84.19 446.66,-75.31 442.38,-80.86"/>
</a>
</g>
</g>
<!-- Node4 -->
<g id="Node000004" class="node">
<title>Node4</title>
<g id="a_Node000004"><a xlink:href="cJSON_8c.html#a5ba141f183b9abb4b49e38a211299c7e" target="_top" xlink:title=" ">
<polygon fill="white" stroke="#666666" points="191,-104.62 127.75,-104.62 127.75,-85.38 191,-85.38 191,-104.62"/>
<text xml:space="preserve" text-anchor="middle" x="159.38" y="-91.12" font-family="Helvetica,sans-Serif" font-size="10.00">print_value</text>
</a>
</g>
</g>
<!-- Node2&#45;&gt;Node4 -->
<g id="edge16_Node000002_Node000004" class="edge">
<title>Node2&#45;&gt;Node4</title>
<g id="a_edge16_Node000002_Node000004"><a xlink:title=" ">
<path fill="none" stroke="#63b8ff" d="M431.76,-96.93C385.69,-99.31 300.02,-102.74 227,-100 215.29,-99.56 202.45,-98.69 191.2,-97.8"/>
<polygon fill="#63b8ff" stroke="#63b8ff" points="431.81,-100.43 441.61,-96.4 431.44,-93.44 431.81,-100.43"/>
</a>
</g>
</g>
<!-- Node7 -->
<g id="Node000007" class="node">
<title>Node7</title>
<g id="a_Node000007"><a xlink:href="cJSON_8c.html#a3d742f5c68799bca291432a9cd72f8dd" target="_top" xlink:title=" ">
<polygon fill="white" stroke="#666666" points="79,-179.62 12.75,-179.62 12.75,-160.38 79,-160.38 79,-179.62"/>
<text xml:space="preserve" text-anchor="middle" x="45.88" y="-166.12" font-family="Helvetica,sans-Serif" font-size="10.00">print_object</text>
</a>
</g>
</g>
<!-- Node2&#45;&gt;Node7 -->
<g id="edge11_Node000002_Node000007" class="edge">
<title>Node2&#45;&gt;Node7</title>
<g id="a_edge11_Node000002_Node000007"><a xlink:title=" ">
<path fill="none" stroke="#63b8ff" d="M455.63,-115.12C446.1,-132.93 429.65,-158.05 407.5,-171 301.04,-233.27 144.87,-199.11 78.55,-180.06"/>
<polygon fill="#63b8ff" stroke="#63b8ff" points="458.72,-116.77 460.09,-106.26 452.47,-113.62 458.72,-116.77"/>
</a>
</g>
</g>
<!-- Node8 -->
<g id="Node000008" class="node">
<title>Node8</title>
<g id="a_Node000008"><a xlink:href="cJSON_8c.html#ad93d84de08872da0eaa6624be0e74a68" target="_top" xlink:title=" ">
<polygon fill="white" stroke="#666666" points="403.38,-85.62 331.12,-85.62 331.12,-66.38 403.38,-66.38 403.38,-85.62"/>
<text xml:space="preserve" text-anchor="middle" x="367.25" y="-72.12" font-family="Helvetica,sans-Serif" font-size="10.00">print_number</text>
</a>
</g>
</g>
<!-- Node2&#45;&gt;Node8 -->
<g id="edge9_Node000002_Node000008" class="edge">
<title>Node2&#45;&gt;Node8</title>
<g id="a_edge9_Node000002_Node000008"><a xlink:title=" ">
<path fill="none" stroke="#63b8ff" d="M432.14,-88.53C423.02,-86.74 413.08,-84.79 403.82,-82.98"/>
<polygon fill="#63b8ff" stroke="#63b8ff" points="431.17,-91.91 441.66,-90.4 432.52,-85.04 431.17,-91.91"/>
</a>
</g>
</g>
<!-- Node9 -->
<g id="Node000009" class="node">
<title>Node9</title>
<g id="a_Node000009"><a xlink:href="cJSON_8c.html#af5b4e769356f10d99a7f66697c42c1bb" target="_top" xlink:title=" ">
<polygon fill="white" stroke="#666666" points="407.5,-161.62 327,-161.62 327,-142.38 407.5,-142.38 407.5,-161.62"/>
<text xml:space="preserve" text-anchor="middle" x="367.25" y="-148.12" font-family="Helvetica,sans-Serif" font-size="10.00">print_string_ptr</text>
</a>
</g>
</g>
<!-- Node2&#45;&gt;Node9 -->
<g id="edge12_Node000002_Node000009" class="edge">
<title>Node2&#45;&gt;Node9</title>
<g id="a_edge12_Node000002_Node000009"><a xlink:title=" ">
<path fill="none" stroke="#63b8ff" d="M438.36,-110.75C421.38,-120.74 399.93,-133.36 385.26,-141.99"/>
<polygon fill="#63b8ff" stroke="#63b8ff" points="440.1,-113.78 446.95,-105.7 436.55,-107.75 440.1,-113.78"/>
</a>
</g>
</g>
<!-- Node3&#45;&gt;Node4 -->
<g id="edge3_Node000003_Node000004" class="edge">
<title>Node3&#45;&gt;Node4</title>
<g id="a_edge3_Node000003_Node000004"><a xlink:title=" ">
<path fill="none" stroke="#63b8ff" d="M220.26,-53.44C202.21,-63.46 182.02,-76.02 170.3,-84.92"/>
<polygon fill="#63b8ff" stroke="#63b8ff" points="221.82,-56.58 228.95,-48.75 218.49,-50.42 221.82,-56.58"/>
</a>
</g>
</g>
<!-- Node4&#45;&gt;Node3 -->
<g id="edge6_Node000004_Node000003" class="edge">
<title>Node4&#45;&gt;Node3</title>
<g id="a_edge6_Node000004_Node000003"><a xlink:title=" ">
<path fill="none" stroke="#63b8ff" d="M198.22,-79.5C216.35,-69.43 236.62,-56.81 248.28,-47.92"/>
<polygon fill="#63b8ff" stroke="#63b8ff" points="196.62,-76.39 189.49,-84.22 199.95,-82.54 196.62,-76.39"/>
</a>
</g>
</g>
<!-- Node5 -->
<g id="Node000005" class="node">
<title>Node5</title>
<g id="a_Node000005"><a xlink:href="cJSON_8c.html#aed7e219a2b9187880c97c6f0ea5fa1b4" target="_top" xlink:title=" ">
<polygon fill="white" stroke="#666666" points="91.75,-104.62 0,-104.62 0,-85.38 91.75,-85.38 91.75,-104.62"/>
<text xml:space="preserve" text-anchor="middle" x="45.88" y="-91.12" font-family="Helvetica,sans-Serif" font-size="10.00">CJSON_PUBLIC</text>
</a>
</g>
</g>
<!-- Node4&#45;&gt;Node5 -->
<g id="edge4_Node000004_Node000005" class="edge">
<title>Node4&#45;&gt;Node5</title>
<g id="a_edge4_Node000004_Node000005"><a xlink:title=" ">
<path fill="none" stroke="#63b8ff" d="M115.82,-95C108.01,-95 99.82,-95 91.94,-95"/>
<polygon fill="#63b8ff" stroke="#63b8ff" points="115.8,-98.5 125.8,-95 115.8,-91.5 115.8,-98.5"/>
</a>
</g>
</g>
<!-- Node4&#45;&gt;Node6 -->
<g id="edge5_Node000004_Node000006" class="edge">
<title>Node4&#45;&gt;Node6</title>
<g id="a_edge5_Node000004_Node000006"><a xlink:title=" ">
<path fill="none" stroke="#63b8ff" d="M128.24,-79.87C107.53,-69.46 80.78,-56.03 63.72,-47.46"/>
<polygon fill="#63b8ff" stroke="#63b8ff" points="126.58,-82.95 137.09,-84.31 129.72,-76.69 126.58,-82.95"/>
</a>
</g>
</g>
<!-- Node4&#45;&gt;Node7 -->
<g id="edge7_Node000004_Node000007" class="edge">
<title>Node4&#45;&gt;Node7</title>
<g id="a_edge7_Node000004_Node000007"><a xlink:title=" ">
<path fill="none" stroke="#63b8ff" d="M125.27,-111.04C101.47,-125.89 71.03,-147.14 56.05,-159.91"/>
<polygon fill="#63b8ff" stroke="#63b8ff" points="126.99,-114.09 133.71,-105.9 123.35,-108.11 126.99,-114.09"/>
</a>
</g>
</g>
<!-- Node7&#45;&gt;Node4 -->
<g id="edge8_Node000007_Node000004" class="edge">
<title>Node7&#45;&gt;Node4</title>
<g id="a_edge8_Node000007_Node000004"><a xlink:title=" ">
<path fill="none" stroke="#63b8ff" d="M79.73,-154.12C103.59,-139.24 134.23,-117.86 149.25,-105.05"/>
<polygon fill="#63b8ff" stroke="#63b8ff" points="77.99,-151.08 71.27,-159.26 81.63,-157.05 77.99,-151.08"/>
</a>
</g>
</g>
<!-- Node8&#45;&gt;Node4 -->
<g id="edge10_Node000008_Node000004" class="edge">
<title>Node8&#45;&gt;Node4</title>
<g id="a_edge10_Node000008_Node000004"><a xlink:title=" ">
<path fill="none" stroke="#63b8ff" d="M319.47,-80.32C280.21,-83.94 225.25,-89.01 191.27,-92.15"/>
<polygon fill="#63b8ff" stroke="#63b8ff" points="319.72,-83.81 329.35,-79.41 319.07,-76.84 319.72,-83.81"/>
</a>
</g>
</g>
<!-- Node9&#45;&gt;Node7 -->
<g id="edge13_Node000009_Node000007" class="edge">
<title>Node9&#45;&gt;Node7</title>
<g id="a_edge13_Node000009_Node000007"><a xlink:title=" ">
<path fill="none" stroke="#63b8ff" d="M322.77,-164.92C312.45,-167.44 301.41,-169.71 291,-171 215.71,-180.36 126.36,-176.14 79.41,-172.76"/>
<polygon fill="#63b8ff" stroke="#63b8ff" points="323.35,-168.38 332.15,-162.49 321.6,-161.61 323.35,-168.38"/>
</a>
</g>
</g>
<!-- Node10 -->
<g id="Node000010" class="node">
<title>Node10</title>
<g id="a_Node000010"><a xlink:href="cJSON_8c.html#ad087dd738e49b4258f0a3d378a121df6" target="_top" xlink:title=" ">
<polygon fill="white" stroke="#666666" points="291,-161.62 227,-161.62 227,-142.38 291,-142.38 291,-161.62"/>
<text xml:space="preserve" text-anchor="middle" x="259" y="-148.12" font-family="Helvetica,sans-Serif" font-size="10.00">print_string</text>
</a>
</g>
</g>
<!-- Node9&#45;&gt;Node10 -->
<g id="edge14_Node000009_Node000010" class="edge">
<title>Node9&#45;&gt;Node10</title>
<g id="a_edge14_Node000009_Node000010"><a xlink:title=" ">
<path fill="none" stroke="#63b8ff" d="M315.25,-152C307.08,-152 298.83,-152 291.3,-152"/>
<polygon fill="#63b8ff" stroke="#63b8ff" points="315.17,-155.5 325.17,-152 315.17,-148.5 315.17,-155.5"/>
</a>
</g>
</g>
<!-- Node10&#45;&gt;Node4 -->
<g id="edge15_Node000010_Node000004" class="edge">
<title>Node10&#45;&gt;Node4</title>
<g id="a_edge15_Node000010_Node000004"><a xlink:title=" ">
<path fill="none" stroke="#63b8ff" d="M231.51,-136.53C214.33,-126.5 192.44,-113.72 177.51,-105.01"/>
<polygon fill="#63b8ff" stroke="#63b8ff" points="229.29,-139.29 239.69,-141.31 232.82,-133.24 229.29,-139.29"/>
</a>
</g>
</g>
</g>
</svg>
