<?xml version="1.0" encoding="UTF-8" standalone="no"?>
<!DOCTYPE svg PUBLIC "-//W3C//DTD SVG 1.1//EN"
 "http://www.w3.org/Graphics/SVG/1.1/DTD/svg11.dtd">
<!-- Generated by graphviz version 14.0.5 (0)
 -->
<!-- Title: Endpoint Pages: 1 -->
<svg width="533pt" height="361pt"
 viewBox="0.00 0.00 533.00 361.00" xmlns="http://www.w3.org/2000/svg" xmlns:xlink="http://www.w3.org/1999/xlink">
<g id="graph0" class="graph" transform="scale(1 1) rotate(0) translate(4 357)">
<title>Endpoint</title>
<!-- Node1 -->
<g id="Node000001" class="node">
<title>Node1</title>
<g id="a_Node000001"><a xlink:title="Represents an HTTP route.">
<polygon fill="#999999" stroke="#666666" points="72.75,-338.75 19.25,-338.75 19.25,-319.5 72.75,-319.5 72.75,-338.75"/>
<text xml:space="preserve" text-anchor="middle" x="46" y="-325.25" font-family="Helvetica,sans-Serif" font-size="10.00">Endpoint</text>
</a>
</g>
</g>
<!-- Node4 -->
<g id="Node000004" class="node">
<title>Node4</title>
<g id="a_Node000004"><a xlink:href="structApp.html" target="_top" xlink:title="Main application object.">
<polygon fill="white" stroke="#666666" points="126.62,-164.25 93.38,-164.25 93.38,-145 126.62,-145 126.62,-164.25"/>
<text xml:space="preserve" text-anchor="middle" x="110" y="-150.75" font-family="Helvetica,sans-Serif" font-size="10.00">App</text>
</a>
</g>
</g>
<!-- Node1&#45;&gt;Node4 -->
<g id="edge4_Node000004_Node000001" class="edge">
<title>Node1&#45;&gt;Node4</title>
<g id="a_edge4_Node000004_Node000001"><a xlink:title=" ">
<path fill="none" stroke="#9a32cd" stroke-dasharray="5,2" d="M44.91,-307.84C44.54,-288.06 45.8,-257.42 55,-232.75 65.34,-205.01 88.33,-178.15 101.07,-164.65"/>
<polygon fill="#9a32cd" stroke="#9a32cd" points="41.41,-307.73 45.27,-317.59 48.4,-307.47 41.41,-307.73"/>
</a>
</g>
<text xml:space="preserve" text-anchor="start" x="58" y="-238.5" font-family="Helvetica,sans-Serif" font-size="10.00" fill="grey">endpoints</text>
</g>
<!-- Node5 -->
<g id="Node000005" class="node">
<title>Node5</title>
<g id="a_Node000005"><a xlink:href="structAppGroup.html" target="_top" xlink:title="Group of endpoints with shared root path and middleware.">
<polygon fill="white" stroke="#666666" points="171.75,-252 112.25,-252 112.25,-232.75 171.75,-232.75 171.75,-252"/>
<text xml:space="preserve" text-anchor="middle" x="142" y="-238.5" font-family="Helvetica,sans-Serif" font-size="10.00">AppGroup</text>
</a>
</g>
</g>
<!-- Node1&#45;&gt;Node5 -->
<g id="edge6_Node000005_Node000001" class="edge">
<title>Node1&#45;&gt;Node5</title>
<g id="a_edge6_Node000005_Node000001"><a xlink:title=" ">
<path fill="none" stroke="#9a32cd" stroke-dasharray="5,2" d="M64.88,-311.46C84.94,-293.75 115.9,-266.42 131.8,-252.38"/>
<polygon fill="#9a32cd" stroke="#9a32cd" points="62.59,-308.81 57.41,-318.05 67.22,-314.06 62.59,-308.81"/>
</a>
</g>
<text xml:space="preserve" text-anchor="start" x="113.95" y="-274.75" font-family="Helvetica,sans-Serif" font-size="10.00" fill="grey">endpoints</text>
</g>
<!-- Node2 -->
<g id="Node000002" class="node">
<title>Node2</title>
<g id="a_Node000002"><a xlink:href="structResponseContext.html" target="_top" xlink:title=" ">
<polygon fill="white" stroke="#666666" points="271.25,-19.25 178.75,-19.25 178.75,0 271.25,0 271.25,-19.25"/>
<text xml:space="preserve" text-anchor="middle" x="225" y="-5.75" font-family="Helvetica,sans-Serif" font-size="10.00">ResponseContext</text>
</a>
</g>
</g>
<!-- Node2&#45;&gt;Node1 -->
<g id="edge1_Node000001_Node000002" class="edge">
<title>Node2&#45;&gt;Node1</title>
<g id="a_edge1_Node000001_Node000002"><a xlink:title=" ">
<path fill="none" stroke="#9a32cd" stroke-dasharray="5,2" d="M167.18,-17.19C100.51,-26.4 0,-46.1 0,-81.12 0,-243.38 0,-243.38 0,-243.38 0,-274.18 23.76,-304.48 37.13,-319.09"/>
<polygon fill="#9a32cd" stroke="#9a32cd" points="167.43,-20.69 176.88,-15.89 166.5,-13.75 167.43,-20.69"/>
</a>
</g>
<text xml:space="preserve" text-anchor="start" x="3" y="-150.75" font-family="Helvetica,sans-Serif" font-size="10.00" fill="grey">handler</text>
</g>
<!-- Node3 -->
<g id="Node000003" class="node">
<title>Node3</title>
<g id="a_Node000003"><a xlink:href="structClientContext.html" target="_top" xlink:title="Context for a connected client.">
<polygon fill="white" stroke="#666666" points="186.88,-91.75 113.12,-91.75 113.12,-72.5 186.88,-72.5 186.88,-91.75"/>
<text xml:space="preserve" text-anchor="middle" x="150" y="-78.25" font-family="Helvetica,sans-Serif" font-size="10.00">ClientContext</text>
</a>
</g>
</g>
<!-- Node2&#45;&gt;Node3 -->
<g id="edge12_Node000003_Node000002" class="edge">
<title>Node2&#45;&gt;Node3</title>
<g id="a_edge12_Node000003_Node000002"><a xlink:title=" ">
<path fill="none" stroke="#9a32cd" stroke-dasharray="5,2" d="M204.01,-26.56C199.78,-29.98 195.42,-33.65 191.5,-37.25 179.14,-48.59 166.02,-62.89 157.92,-72.03"/>
<polygon fill="#9a32cd" stroke="#9a32cd" points="205.99,-29.46 211.69,-20.53 201.66,-23.95 205.99,-29.46"/>
</a>
</g>
<text xml:space="preserve" text-anchor="start" x="194.5" y="-42" font-family="Helvetica,sans-Serif" font-size="10.00" fill="grey">res</text>
</g>
<!-- Node3&#45;&gt;Node2 -->
<g id="edge2_Node000002_Node000003" class="edge">
<title>Node3&#45;&gt;Node2</title>
<g id="a_edge2_Node000002_Node000003"><a xlink:title=" ">
<path fill="none" stroke="#9a32cd" stroke-dasharray="5,2" d="M144.79,-61.02C143.87,-52.97 144.45,-44.02 149.25,-37.25 156.18,-27.47 167,-21.25 178.32,-17.31"/>
<polygon fill="#9a32cd" stroke="#9a32cd" points="141.32,-61.53 146.69,-70.66 148.19,-60.18 141.32,-61.53"/>
</a>
</g>
<text xml:space="preserve" text-anchor="start" x="152.25" y="-42" font-family="Helvetica,sans-Serif" font-size="10.00" fill="grey">ctx</text>
</g>
<!-- Node4&#45;&gt;Node3 -->
<g id="edge3_Node000003_Node000004" class="edge">
<title>Node4&#45;&gt;Node3</title>
<g id="a_edge3_Node000003_Node000004"><a xlink:title=" ">
<path fill="none" stroke="#9a32cd" stroke-dasharray="5,2" d="M117.41,-133.94C120.64,-126.19 124.72,-117.34 129.25,-109.75 132.97,-103.51 137.96,-97.07 142.11,-92.08"/>
<polygon fill="#9a32cd" stroke="#9a32cd" points="114.19,-132.57 113.77,-143.16 120.7,-135.14 114.19,-132.57"/>
</a>
</g>
<text xml:space="preserve" text-anchor="start" x="132.25" y="-114.5" font-family="Helvetica,sans-Serif" font-size="10.00" fill="grey">app</text>
</g>
<!-- Node5&#45;&gt;Node4 -->
<g id="edge5_Node000004_Node000005" class="edge">
<title>Node5&#45;&gt;Node4</title>
<g id="a_edge5_Node000004_Node000005"><a xlink:title=" ">
<path fill="none" stroke="#9a32cd" stroke-dasharray="5,2" d="M128.96,-222.94C127.4,-220.27 125.94,-217.49 124.75,-214.75 117.42,-197.87 113.24,-176.62 111.31,-164.74"/>
<polygon fill="#9a32cd" stroke="#9a32cd" points="125.93,-224.69 134.32,-231.17 131.8,-220.88 125.93,-224.69"/>
</a>
</g>
<text xml:space="preserve" text-anchor="start" x="127.75" y="-194.62" font-family="Helvetica,sans-Serif" font-size="10.00" fill="grey">groups</text>
</g>
<!-- Node6 -->
<g id="Node000006" class="node">
<title>Node6</title>
<g id="a_Node000006"><a xlink:href="structRequest.html" target="_top" xlink:title="HTTP request structure.">
<polygon fill="white" stroke="#666666" points="231,-164.25 179,-164.25 179,-145 231,-145 231,-164.25"/>
<text xml:space="preserve" text-anchor="middle" x="205" y="-150.75" font-family="Helvetica,sans-Serif" font-size="10.00">Request</text>
</a>
</g>
</g>
<!-- Node6&#45;&gt;Node2 -->
<g id="edge13_Node000002_Node000006" class="edge">
<title>Node6&#45;&gt;Node2</title>
<g id="a_edge13_Node000002_Node000006"><a xlink:title=" ">
<path fill="none" stroke="#9a32cd" stroke-dasharray="5,2" d="M207.83,-133.41C212.24,-101.84 220.59,-42.13 223.75,-19.57"/>
<polygon fill="#9a32cd" stroke="#9a32cd" points="204.38,-132.79 206.46,-143.18 211.31,-133.76 204.38,-132.79"/>
</a>
</g>
<text xml:space="preserve" text-anchor="start" x="219.33" y="-78.25" font-family="Helvetica,sans-Serif" font-size="10.00" fill="grey">req</text>
</g>
<!-- Node6&#45;&gt;Node3 -->
<g id="edge7_Node000003_Node000006" class="edge">
<title>Node6&#45;&gt;Node3</title>
<g id="a_edge7_Node000003_Node000006"><a xlink:title=" ">
<path fill="none" stroke="#9a32cd" stroke-dasharray="5,2" d="M191.26,-136.01C180.4,-122.09 165.69,-103.23 157.08,-92.2"/>
<polygon fill="#9a32cd" stroke="#9a32cd" points="188.19,-137.77 197.1,-143.5 193.71,-133.47 188.19,-137.77"/>
</a>
</g>
<text xml:space="preserve" text-anchor="start" x="187.04" y="-114.5" font-family="Helvetica,sans-Serif" font-size="10.00" fill="grey">req</text>
</g>
<!-- Node7 -->
<g id="Node000007" class="node">
<title>Node7</title>
<g id="a_Node000007"><a xlink:href="structKeyValue.html" target="_top" xlink:title="Fixed&#45;size key/value pair.">
<polygon fill="white" stroke="#666666" points="246.62,-252 189.38,-252 189.38,-232.75 246.62,-232.75 246.62,-252"/>
<text xml:space="preserve" text-anchor="middle" x="218" y="-238.5" font-family="Helvetica,sans-Serif" font-size="10.00">KeyValue</text>
</a>
</g>
</g>
<!-- Node7&#45;&gt;Node2 -->
<g id="edge14_Node000002_Node000007" class="edge">
<title>Node7&#45;&gt;Node2</title>
<g id="a_edge14_Node000002_Node000007"><a xlink:title=" ">
<path fill="none" stroke="#9a32cd" stroke-dasharray="5,2" d="M249.55,-225.89C253.33,-222.73 256.68,-219.03 259,-214.75 295.86,-146.87 246.82,-49.03 230.17,-19.43"/>
<polygon fill="#9a32cd" stroke="#9a32cd" points="247.69,-222.92 241.42,-231.47 251.65,-228.69 247.69,-222.92"/>
</a>
</g>
<text xml:space="preserve" text-anchor="start" x="272.81" y="-114.5" font-family="Helvetica,sans-Serif" font-size="10.00" fill="grey">headers</text>
</g>
<!-- Node7&#45;&gt;Node6 -->
<g id="edge8_Node000006_Node000007" class="edge">
<title>Node7&#45;&gt;Node6</title>
<g id="a_edge8_Node000006_Node000007"><a xlink:title=" ">
<path fill="none" stroke="#9a32cd" stroke-dasharray="5,2" d="M180.56,-226.56C176.16,-223.31 172.26,-219.41 169.5,-214.75 162.14,-202.32 163.04,-195.17 169.5,-182.25 173.22,-174.81 180.12,-168.91 186.85,-164.57"/>
<polygon fill="#9a32cd" stroke="#9a32cd" points="178.44,-229.37 188.8,-231.56 182.07,-223.38 178.44,-229.37"/>
</a>
</g>
<text xml:space="preserve" text-anchor="start" x="172.5" y="-202.25" font-family="Helvetica,sans-Serif" font-size="10.00" fill="grey">headers</text>
<text xml:space="preserve" text-anchor="start" x="172.5" y="-187" font-family="Helvetica,sans-Serif" font-size="10.00" fill="grey">params</text>
</g>
<!-- Node8 -->
<g id="Node000008" class="node">
<title>Node8</title>
<g id="a_Node000008"><a xlink:href="structBody.html" target="_top" xlink:title="HTTP request or response body.">
<polygon fill="white" stroke="#666666" points="302.88,-252 265.12,-252 265.12,-232.75 302.88,-232.75 302.88,-252"/>
<text xml:space="preserve" text-anchor="middle" x="284" y="-238.5" font-family="Helvetica,sans-Serif" font-size="10.00">Body</text>
</a>
</g>
</g>
<!-- Node8&#45;&gt;Node6 -->
<g id="edge9_Node000006_Node000008" class="edge">
<title>Node8&#45;&gt;Node6</title>
<g id="a_edge9_Node000006_Node000008"><a xlink:title=" ">
<path fill="none" stroke="#9a32cd" stroke-dasharray="5,2" d="M268.08,-224.1C251.5,-206.1 226.17,-178.6 213.23,-164.56"/>
<polygon fill="#9a32cd" stroke="#9a32cd" points="265.47,-226.42 274.82,-231.41 270.62,-221.68 265.47,-226.42"/>
</a>
</g>
<text xml:space="preserve" text-anchor="start" x="261.45" y="-194.62" font-family="Helvetica,sans-Serif" font-size="10.00" fill="grey">body</text>
</g>
<!-- Node9 -->
<g id="Node000009" class="node">
<title>Node9</title>
<g id="a_Node000009"><a xlink:href="structcJSON.html" target="_top" xlink:title=" ">
<polygon fill="white" stroke="#666666" points="308.12,-338.75 259.88,-338.75 259.88,-319.5 308.12,-319.5 308.12,-338.75"/>
<text xml:space="preserve" text-anchor="middle" x="284" y="-325.25" font-family="Helvetica,sans-Serif" font-size="10.00">cJSON</text>
</a>
</g>
</g>
<!-- Node9&#45;&gt;Node8 -->
<g id="edge10_Node000008_Node000009" class="edge">
<title>Node9&#45;&gt;Node8</title>
<g id="a_edge10_Node000008_Node000009"><a xlink:title=" ">
<path fill="none" stroke="#9a32cd" stroke-dasharray="5,2" d="M284,-307.73C284,-290.1 284,-265.47 284,-252.38"/>
<polygon fill="#9a32cd" stroke="#9a32cd" points="280.5,-307.54 284,-317.54 287.5,-307.54 280.5,-307.54"/>
</a>
</g>
<text xml:space="preserve" text-anchor="start" x="287" y="-274.75" font-family="Helvetica,sans-Serif" font-size="10.00" fill="grey">json</text>
</g>
<!-- Node9&#45;&gt;Node9 -->
<g id="edge11_Node000009_Node000009" class="edge">
<title>Node9&#45;&gt;Node9</title>
<g id="a_edge11_Node000009_Node000009"><a xlink:title=" ">
<path fill="none" stroke="#9a32cd" stroke-dasharray="5,2" d="M319.55,-337.13C323.54,-335.62 326.12,-332.95 326.12,-329.12 326.12,-322.32 317.96,-319.18 308.24,-319.71"/>
<polygon fill="#9a32cd" stroke="#9a32cd" points="319.23,-333.64 309.74,-338.35 320.1,-340.59 319.23,-333.64"/>
</a>
</g>
<text xml:space="preserve" text-anchor="start" x="329.12" y="-340.5" font-family="Helvetica,sans-Serif" font-size="10.00" fill="grey">child</text>
<text xml:space="preserve" text-anchor="start" x="329.12" y="-325.25" font-family="Helvetica,sans-Serif" font-size="10.00" fill="grey">next</text>
<text xml:space="preserve" text-anchor="start" x="329.12" y="-310" font-family="Helvetica,sans-Serif" font-size="10.00" fill="grey">prev</text>
</g>
<!-- Node10 -->
<g id="Node000010" class="node">
<title>Node10</title>
<g id="a_Node000010"><a xlink:href="structResponseData.html" target="_top" xlink:title=" ">
<polygon fill="white" stroke="#666666" points="383.88,-91.75 304.12,-91.75 304.12,-72.5 383.88,-72.5 383.88,-91.75"/>
<text xml:space="preserve" text-anchor="middle" x="344" y="-78.25" font-family="Helvetica,sans-Serif" font-size="10.00">ResponseData</text>
</a>
</g>
</g>
<!-- Node10&#45;&gt;Node2 -->
<g id="edge15_Node000002_Node000010" class="edge">
<title>Node10&#45;&gt;Node2</title>
<g id="a_edge15_Node000002_Node000010"><a xlink:title=" ">
<path fill="none" stroke="#9a32cd" stroke-dasharray="5,2" d="M325.55,-65.01C314.78,-56.11 300.66,-45.27 287,-37.25 275.28,-30.37 261.45,-24.26 249.83,-19.63"/>
<polygon fill="#9a32cd" stroke="#9a32cd" points="323,-67.45 332.89,-71.24 327.53,-62.1 323,-67.45"/>
</a>
</g>
<text xml:space="preserve" text-anchor="start" x="314.47" y="-42" font-family="Helvetica,sans-Serif" font-size="10.00" fill="grey">data</text>
</g>
<!-- Node11 -->
<g id="Node000011" class="node">
<title>Node11</title>
<g id="a_Node000011"><a xlink:href="structResponseDataEntry.html" target="_top" xlink:title=" ">
<polygon fill="white" stroke="#666666" points="402.75,-164.25 301.25,-164.25 301.25,-145 402.75,-145 402.75,-164.25"/>
<text xml:space="preserve" text-anchor="middle" x="352" y="-150.75" font-family="Helvetica,sans-Serif" font-size="10.00">ResponseDataEntry</text>
</a>
</g>
</g>
<!-- Node11&#45;&gt;Node10 -->
<g id="edge16_Node000010_Node000011" class="edge">
<title>Node11&#45;&gt;Node10</title>
<g id="a_edge16_Node000010_Node000011"><a xlink:title=" ">
<path fill="none" stroke="#9a32cd" stroke-dasharray="5,2" d="M349.72,-133.55C348.18,-119.94 346.21,-102.6 345.03,-92.2"/>
<polygon fill="#9a32cd" stroke="#9a32cd" points="346.21,-133.65 350.82,-143.19 353.17,-132.86 346.21,-133.65"/>
</a>
</g>
<text xml:space="preserve" text-anchor="start" x="351.95" y="-114.5" font-family="Helvetica,sans-Serif" font-size="10.00" fill="grey">entries</text>
</g>
<!-- Node12 -->
<g id="Node000012" class="node">
<title>Node12</title>
<g id="a_Node000012"><a xlink:href="structResponseContextQuery.html" target="_top" xlink:title=" ">
<polygon fill="white" stroke="#666666" points="525,-91.75 407,-91.75 407,-72.5 525,-72.5 525,-91.75"/>
<text xml:space="preserve" text-anchor="middle" x="466" y="-78.25" font-family="Helvetica,sans-Serif" font-size="10.00">ResponseContextQuery</text>
</a>
</g>
</g>
<!-- Node12&#45;&gt;Node2 -->
<g id="edge17_Node000002_Node000012" class="edge">
<title>Node12&#45;&gt;Node2</title>
<g id="a_edge17_Node000002_Node000012"><a xlink:title=" ">
<path fill="none" stroke="#9a32cd" stroke-dasharray="5,2" d="M432.09,-68.2C406.9,-58.88 371.6,-46.38 340,-37.25 316.87,-30.57 290.74,-24.41 269.25,-19.7"/>
<polygon fill="#9a32cd" stroke="#9a32cd" points="430.55,-71.36 441.14,-71.58 432.99,-64.8 430.55,-71.36"/>
</a>
</g>
<text xml:space="preserve" text-anchor="start" x="395.34" y="-42" font-family="Helvetica,sans-Serif" font-size="10.00" fill="grey">query</text>
</g>
<!-- Node13 -->
<g id="Node000013" class="node">
<title>Node13</title>
<g id="a_Node000013"><a xlink:href="structDynamicKeyValue.html" target="_top" xlink:title="Dynamic key/value pair.">
<polygon fill="white" stroke="#666666" points="515.38,-164.25 420.62,-164.25 420.62,-145 515.38,-145 515.38,-164.25"/>
<text xml:space="preserve" text-anchor="middle" x="468" y="-150.75" font-family="Helvetica,sans-Serif" font-size="10.00">DynamicKeyValue</text>
</a>
</g>
</g>
<!-- Node13&#45;&gt;Node12 -->
<g id="edge18_Node000012_Node000013" class="edge">
<title>Node13&#45;&gt;Node12</title>
<g id="a_edge18_Node000012_Node000013"><a xlink:title=" ">
<path fill="none" stroke="#9a32cd" stroke-dasharray="5,2" d="M467.43,-133.55C467.04,-119.94 466.55,-102.6 466.26,-92.2"/>
<polygon fill="#9a32cd" stroke="#9a32cd" points="463.92,-133.29 467.7,-143.18 470.92,-133.09 463.92,-133.29"/>
</a>
</g>
<text xml:space="preserve" text-anchor="start" x="470.24" y="-114.5" font-family="Helvetica,sans-Serif" font-size="10.00" fill="grey">entries</text>
</g>
</g>
</svg>
