<?xml version="1.0" encoding="UTF-8" standalone="no"?>
<!DOCTYPE svg PUBLIC "-//W3C//DTD SVG 1.1//EN"
 "http://www.w3.org/Graphics/SVG/1.1/DTD/svg11.dtd">
<!-- Generated by graphviz version 14.0.5 (0)
 -->
<!-- Title: Request Pages: 1 -->
<svg width="171pt" height="216pt"
 viewBox="0.00 0.00 171.00 216.00" xmlns="http://www.w3.org/2000/svg" xmlns:xlink="http://www.w3.org/1999/xlink">
<g id="graph0" class="graph" transform="scale(1 1) rotate(0) translate(4 212)">
<title>Request</title>
<!-- Node1 -->
<g id="Node000001" class="node">
<title>Node1</title>
<g id="a_Node000001"><a xlink:title="HTTP request structure.">
<polygon fill="#999999" stroke="#666666" points="86.62,-19.25 34.62,-19.25 34.62,0 86.62,0 86.62,-19.25"/>
<text xml:space="preserve" text-anchor="middle" x="60.62" y="-5.75" font-family="Helvetica,sans-Serif" font-size="10.00">Request</text>
</a>
</g>
</g>
<!-- Node2 -->
<g id="Node000002" class="node">
<title>Node2</title>
<g id="a_Node000002"><a xlink:href="structKeyValue.html" target="_top" xlink:title="Fixed&#45;size key/value pair.">
<polygon fill="white" stroke="#666666" points="57.25,-107 0,-107 0,-87.75 57.25,-87.75 57.25,-107"/>
<text xml:space="preserve" text-anchor="middle" x="28.63" y="-93.5" font-family="Helvetica,sans-Serif" font-size="10.00">KeyValue</text>
</a>
</g>
</g>
<!-- Node2&#45;&gt;Node1 -->
<g id="edge1_Node000001_Node000002" class="edge">
<title>Node2&#45;&gt;Node1</title>
<g id="a_edge1_Node000001_Node000002"><a xlink:title=" ">
<path fill="none" stroke="#9a32cd" stroke-dasharray="5,2" d="M25.7,-76.08C24.89,-64.22 25.48,-49.27 31.13,-37.25 34.47,-30.13 40.69,-24.07 46.55,-19.54"/>
<polygon fill="#9a32cd" stroke="#9a32cd" points="22.22,-76.39 26.79,-85.95 29.17,-75.63 22.22,-76.39"/>
</a>
</g>
<text xml:space="preserve" text-anchor="start" x="34.12" y="-57.25" font-family="Helvetica,sans-Serif" font-size="10.00" fill="grey">headers</text>
<text xml:space="preserve" text-anchor="start" x="34.12" y="-42" font-family="Helvetica,sans-Serif" font-size="10.00" fill="grey">params</text>
</g>
<!-- Node3 -->
<g id="Node000003" class="node">
<title>Node3</title>
<g id="a_Node000003"><a xlink:href="structBody.html" target="_top" xlink:title="HTTP request or response body.">
<polygon fill="white" stroke="#666666" points="113.5,-107 75.75,-107 75.75,-87.75 113.5,-87.75 113.5,-107"/>
<text xml:space="preserve" text-anchor="middle" x="94.62" y="-93.5" font-family="Helvetica,sans-Serif" font-size="10.00">Body</text>
</a>
</g>
</g>
<!-- Node3&#45;&gt;Node1 -->
<g id="edge2_Node000001_Node000003" class="edge">
<title>Node3&#45;&gt;Node1</title>
<g id="a_edge2_Node000001_Node000003"><a xlink:title=" ">
<path fill="none" stroke="#9a32cd" stroke-dasharray="5,2" d="M87.18,-76.93C82.72,-65.38 76.92,-50.45 71.62,-37.25 69.24,-31.31 66.49,-24.65 64.34,-19.48"/>
<polygon fill="#9a32cd" stroke="#9a32cd" points="83.86,-78.05 90.71,-86.12 90.39,-75.53 83.86,-78.05"/>
</a>
</g>
<text xml:space="preserve" text-anchor="start" x="87.25" y="-49.62" font-family="Helvetica,sans-Serif" font-size="10.00" fill="grey">body</text>
</g>
<!-- Node4 -->
<g id="Node000004" class="node">
<title>Node4</title>
<g id="a_Node000004"><a xlink:href="structcJSON.html" target="_top" xlink:title=" ">
<polygon fill="white" stroke="#666666" points="118.75,-193.75 70.5,-193.75 70.5,-174.5 118.75,-174.5 118.75,-193.75"/>
<text xml:space="preserve" text-anchor="middle" x="94.62" y="-180.25" font-family="Helvetica,sans-Serif" font-size="10.00">cJSON</text>
</a>
</g>
</g>
<!-- Node4&#45;&gt;Node3 -->
<g id="edge3_Node000003_Node000004" class="edge">
<title>Node4&#45;&gt;Node3</title>
<g id="a_edge3_Node000003_Node000004"><a xlink:title=" ">
<path fill="none" stroke="#9a32cd" stroke-dasharray="5,2" d="M94.62,-162.73C94.62,-145.1 94.62,-120.47 94.62,-107.38"/>
<polygon fill="#9a32cd" stroke="#9a32cd" points="91.13,-162.54 94.63,-172.54 98.13,-162.54 91.13,-162.54"/>
</a>
</g>
<text xml:space="preserve" text-anchor="start" x="97.62" y="-129.75" font-family="Helvetica,sans-Serif" font-size="10.00" fill="grey">json</text>
</g>
<!-- Node4&#45;&gt;Node4 -->
<g id="edge4_Node000004_Node000004" class="edge">
<title>Node4&#45;&gt;Node4</title>
<g id="a_edge4_Node000004_Node000004"><a xlink:title=" ">
<path fill="none" stroke="#9a32cd" stroke-dasharray="5,2" d="M130.18,-192.13C134.17,-190.62 136.75,-187.95 136.75,-184.12 136.75,-177.32 128.59,-174.18 118.87,-174.71"/>
<polygon fill="#9a32cd" stroke="#9a32cd" points="129.86,-188.64 120.37,-193.35 130.72,-195.59 129.86,-188.64"/>
</a>
</g>
<text xml:space="preserve" text-anchor="start" x="139.75" y="-195.5" font-family="Helvetica,sans-Serif" font-size="10.00" fill="grey">child</text>
<text xml:space="preserve" text-anchor="start" x="139.75" y="-180.25" font-family="Helvetica,sans-Serif" font-size="10.00" fill="grey">next</text>
<text xml:space="preserve" text-anchor="start" x="139.75" y="-165" font-family="Helvetica,sans-Serif" font-size="10.00" fill="grey">prev</text>
</g>
</g>
</svg>
