<?xml version="1.0" encoding="UTF-8" standalone="no"?>
<!DOCTYPE svg PUBLIC "-//W3C//DTD SVG 1.1//EN"
 "http://www.w3.org/Graphics/SVG/1.1/DTD/svg11.dtd">
<!-- Generated by graphviz version 14.0.5 (0)
 -->
<!-- Title: ResponseContext Pages: 1 -->
<svg width="411pt" height="579pt"
 viewBox="0.00 0.00 411.00 579.00" xmlns="http://www.w3.org/2000/svg" xmlns:xlink="http://www.w3.org/1999/xlink">
<g id="graph0" class="graph" transform="scale(1 1) rotate(0) translate(4 574.5)">
<title>ResponseContext</title>
<!-- Node1 -->
<g id="Node000001" class="node">
<title>Node1</title>
<g id="a_Node000001"><a xlink:title=" ">
<polygon fill="#999999" stroke="#666666" points="273.38,-309.25 180.88,-309.25 180.88,-290 273.38,-290 273.38,-309.25"/>
<text xml:space="preserve" text-anchor="middle" x="227.12" y="-295.75" font-family="Helvetica,sans-Serif" font-size="10.00">ResponseContext</text>
</a>
</g>
</g>
<!-- Node2 -->
<g id="Node000002" class="node">
<title>Node2</title>
<g id="a_Node000002"><a xlink:href="structClientContext.html" target="_top" xlink:title="Context for a connected client.">
<polygon fill="white" stroke="#666666" points="255,-19.25 181.25,-19.25 181.25,0 255,0 255,-19.25"/>
<text xml:space="preserve" text-anchor="middle" x="218.12" y="-5.75" font-family="Helvetica,sans-Serif" font-size="10.00">ClientContext</text>
</a>
</g>
</g>
<!-- Node1&#45;&gt;Node2 -->
<g id="edge12_Node000002_Node000001" class="edge">
<title>Node1&#45;&gt;Node2</title>
<g id="a_edge12_Node000002_Node000001"><a xlink:title=" ">
<path fill="none" stroke="#9a32cd" stroke-dasharray="5,2" d="M254.66,-283.72C273.14,-271.51 294.12,-252.31 294.12,-228.12 294.12,-228.12 294.12,-228.12 294.12,-81.12 294.12,-51.25 262.17,-30.48 239.7,-19.56"/>
<polygon fill="#9a32cd" stroke="#9a32cd" points="253.05,-280.6 246.37,-288.83 256.72,-286.57 253.05,-280.6"/>
</a>
</g>
<text xml:space="preserve" text-anchor="start" x="297.12" y="-150.75" font-family="Helvetica,sans-Serif" font-size="10.00" fill="grey">res</text>
</g>
<!-- Node4 -->
<g id="Node000004" class="node">
<title>Node4</title>
<g id="a_Node000004"><a xlink:href="structEndpoint.html" target="_top" xlink:title="Represents an HTTP route.">
<polygon fill="white" stroke="#666666" points="181.88,-236.75 128.38,-236.75 128.38,-217.5 181.88,-217.5 181.88,-236.75"/>
<text xml:space="preserve" text-anchor="middle" x="155.12" y="-223.25" font-family="Helvetica,sans-Serif" font-size="10.00">Endpoint</text>
</a>
</g>
</g>
<!-- Node1&#45;&gt;Node4 -->
<g id="edge4_Node000004_Node000001" class="edge">
<title>Node1&#45;&gt;Node4</title>
<g id="a_edge4_Node000004_Node000001"><a xlink:title=" ">
<path fill="none" stroke="#9a32cd" stroke-dasharray="5,2" d="M201.89,-283.5C196.92,-280.01 191.92,-276.11 187.62,-272 176.53,-261.39 166.46,-246.64 160.56,-237.23"/>
<polygon fill="#9a32cd" stroke="#9a32cd" points="199.67,-286.23 209.95,-288.8 203.52,-280.38 199.67,-286.23"/>
</a>
</g>
<text xml:space="preserve" text-anchor="start" x="190.62" y="-259.5" font-family="Helvetica,sans-Serif" font-size="10.00" fill="grey">handler</text>
</g>
<!-- Node2&#45;&gt;Node1 -->
<g id="edge1_Node000001_Node000002" class="edge">
<title>Node2&#45;&gt;Node1</title>
<g id="a_edge1_Node000001_Node000002"><a xlink:title=" ">
<path fill="none" stroke="#9a32cd" stroke-dasharray="5,2" d="M227.08,-29.73C232.79,-43.66 239.12,-63.17 239.12,-81.12 239.12,-228.12 239.12,-228.12 239.12,-228.12 239.12,-250.47 233.19,-276.25 229.67,-289.58"/>
<polygon fill="#9a32cd" stroke="#9a32cd" points="230.42,-28.63 223.19,-20.88 224.01,-31.45 230.42,-28.63"/>
</a>
</g>
<text xml:space="preserve" text-anchor="start" x="242.12" y="-150.75" font-family="Helvetica,sans-Serif" font-size="10.00" fill="grey">ctx</text>
</g>
<!-- Node3 -->
<g id="Node000003" class="node">
<title>Node3</title>
<g id="a_Node000003"><a xlink:href="structApp.html" target="_top" xlink:title="Main application object.">
<polygon fill="white" stroke="#666666" points="171.75,-91.75 138.5,-91.75 138.5,-72.5 171.75,-72.5 171.75,-91.75"/>
<text xml:space="preserve" text-anchor="middle" x="155.12" y="-78.25" font-family="Helvetica,sans-Serif" font-size="10.00">App</text>
</a>
</g>
</g>
<!-- Node3&#45;&gt;Node2 -->
<g id="edge2_Node000002_Node000003" class="edge">
<title>Node3&#45;&gt;Node2</title>
<g id="a_edge2_Node000002_Node000003"><a xlink:title=" ">
<path fill="none" stroke="#9a32cd" stroke-dasharray="5,2" d="M170.51,-63.91C182.98,-49.95 200.06,-30.84 210.01,-19.7"/>
<polygon fill="#9a32cd" stroke="#9a32cd" points="168.17,-61.28 164.11,-71.07 173.39,-65.94 168.17,-61.28"/>
</a>
</g>
<text xml:space="preserve" text-anchor="start" x="197.12" y="-42" font-family="Helvetica,sans-Serif" font-size="10.00" fill="grey">app</text>
</g>
<!-- Node4&#45;&gt;Node3 -->
<g id="edge3_Node000003_Node000004" class="edge">
<title>Node4&#45;&gt;Node3</title>
<g id="a_edge3_Node000003_Node000004"><a xlink:title=" ">
<path fill="none" stroke="#9a32cd" stroke-dasharray="5,2" d="M155.12,-205.91C155.12,-174.34 155.12,-114.63 155.12,-92.07"/>
<polygon fill="#9a32cd" stroke="#9a32cd" points="151.63,-205.67 155.13,-215.67 158.63,-205.67 151.63,-205.67"/>
</a>
</g>
<text xml:space="preserve" text-anchor="start" x="158.12" y="-150.75" font-family="Helvetica,sans-Serif" font-size="10.00" fill="grey">endpoints</text>
</g>
<!-- Node5 -->
<g id="Node000005" class="node">
<title>Node5</title>
<g id="a_Node000005"><a xlink:href="structAppGroup.html" target="_top" xlink:title="Group of endpoints with shared root path and middleware.">
<polygon fill="white" stroke="#666666" points="118.88,-164.25 59.38,-164.25 59.38,-145 118.88,-145 118.88,-164.25"/>
<text xml:space="preserve" text-anchor="middle" x="89.12" y="-150.75" font-family="Helvetica,sans-Serif" font-size="10.00">AppGroup</text>
</a>
</g>
</g>
<!-- Node4&#45;&gt;Node5 -->
<g id="edge6_Node000005_Node000004" class="edge">
<title>Node4&#45;&gt;Node5</title>
<g id="a_edge6_Node000005_Node000004"><a xlink:title=" ">
<path fill="none" stroke="#9a32cd" stroke-dasharray="5,2" d="M117.09,-217.22C107.89,-213.27 99.01,-207.61 93.12,-199.5 85.75,-189.35 86.19,-174.2 87.45,-164.62"/>
<polygon fill="#9a32cd" stroke="#9a32cd" points="115.88,-220.5 126.47,-220.59 118.25,-213.91 115.88,-220.5"/>
</a>
</g>
<text xml:space="preserve" text-anchor="start" x="96.12" y="-187" font-family="Helvetica,sans-Serif" font-size="10.00" fill="grey">endpoints</text>
</g>
<!-- Node5&#45;&gt;Node3 -->
<g id="edge5_Node000003_Node000005" class="edge">
<title>Node5&#45;&gt;Node3</title>
<g id="a_edge5_Node000003_Node000005"><a xlink:title=" ">
<path fill="none" stroke="#9a32cd" stroke-dasharray="5,2" d="M93.47,-133.71C96.02,-125.57 99.95,-116.5 105.88,-109.75 114.46,-99.96 127.55,-93.12 138.08,-88.83"/>
<polygon fill="#9a32cd" stroke="#9a32cd" points="90.15,-132.57 91.02,-143.13 96.93,-134.33 90.15,-132.57"/>
</a>
</g>
<text xml:space="preserve" text-anchor="start" x="108.88" y="-114.5" font-family="Helvetica,sans-Serif" font-size="10.00" fill="grey">groups</text>
</g>
<!-- Node6 -->
<g id="Node000006" class="node">
<title>Node6</title>
<g id="a_Node000006"><a xlink:href="structRequest.html" target="_top" xlink:title="HTTP request structure.">
<polygon fill="white" stroke="#666666" points="60.12,-381.75 8.12,-381.75 8.12,-362.5 60.12,-362.5 60.12,-381.75"/>
<text xml:space="preserve" text-anchor="middle" x="34.12" y="-368.25" font-family="Helvetica,sans-Serif" font-size="10.00">Request</text>
</a>
</g>
</g>
<!-- Node6&#45;&gt;Node1 -->
<g id="edge13_Node000001_Node000006" class="edge">
<title>Node6&#45;&gt;Node1</title>
<g id="a_edge13_Node000001_Node000006"><a xlink:title=" ">
<path fill="none" stroke="#9a32cd" stroke-dasharray="5,2" d="M52.46,-354.91C64.07,-345.47 79.84,-334.11 95.62,-327.25 122.55,-315.56 154.82,-308.93 180.66,-305.2"/>
<polygon fill="#9a32cd" stroke="#9a32cd" points="50.3,-352.14 44.92,-361.27 54.82,-357.49 50.3,-352.14"/>
</a>
</g>
<text xml:space="preserve" text-anchor="start" x="98.62" y="-332" font-family="Helvetica,sans-Serif" font-size="10.00" fill="grey">req</text>
</g>
<!-- Node6&#45;&gt;Node2 -->
<g id="edge7_Node000002_Node000006" class="edge">
<title>Node6&#45;&gt;Node2</title>
<g id="a_edge7_Node000002_Node000006"><a xlink:title=" ">
<path fill="none" stroke="#9a32cd" stroke-dasharray="5,2" d="M32.8,-350.72C31.99,-336.64 31.12,-317.51 31.12,-300.62 31.12,-300.62 31.12,-300.62 31.12,-81.12 31.12,-49.38 126.68,-26.99 181.18,-16.81"/>
<polygon fill="#9a32cd" stroke="#9a32cd" points="29.29,-350.73 33.4,-360.49 36.28,-350.3 29.29,-350.73"/>
</a>
</g>
<text xml:space="preserve" text-anchor="start" x="34.12" y="-187" font-family="Helvetica,sans-Serif" font-size="10.00" fill="grey">req</text>
</g>
<!-- Node7 -->
<g id="Node000007" class="node">
<title>Node7</title>
<g id="a_Node000007"><a xlink:href="structKeyValue.html" target="_top" xlink:title="Fixed&#45;size key/value pair.">
<polygon fill="white" stroke="#666666" points="138.75,-469.5 81.5,-469.5 81.5,-450.25 138.75,-450.25 138.75,-469.5"/>
<text xml:space="preserve" text-anchor="middle" x="110.12" y="-456" font-family="Helvetica,sans-Serif" font-size="10.00">KeyValue</text>
</a>
</g>
</g>
<!-- Node7&#45;&gt;Node1 -->
<g id="edge14_Node000001_Node000007" class="edge">
<title>Node7&#45;&gt;Node1</title>
<g id="a_edge14_Node000001_Node000007"><a xlink:title=" ">
<path fill="none" stroke="#9a32cd" stroke-dasharray="5,2" d="M114.17,-438.85C119.39,-414.38 128.86,-374.72 137.62,-362.5 155.34,-337.78 186.17,-319.68 206.62,-309.65"/>
<polygon fill="#9a32cd" stroke="#9a32cd" points="110.76,-438.05 112.16,-448.56 117.62,-439.48 110.76,-438.05"/>
</a>
</g>
<text xml:space="preserve" text-anchor="start" x="140.62" y="-368.25" font-family="Helvetica,sans-Serif" font-size="10.00" fill="grey">headers</text>
</g>
<!-- Node7&#45;&gt;Node6 -->
<g id="edge8_Node000006_Node000007" class="edge">
<title>Node7&#45;&gt;Node6</title>
<g id="a_edge8_Node000006_Node000007"><a xlink:title=" ">
<path fill="none" stroke="#9a32cd" stroke-dasharray="5,2" d="M86.93,-443.21C82.62,-439.83 78.32,-436.11 74.62,-432.25 66.62,-423.89 48.87,-396.47 39.76,-382.1"/>
<polygon fill="#9a32cd" stroke="#9a32cd" points="84.78,-445.97 94.91,-449.07 88.92,-440.33 84.78,-445.97"/>
</a>
</g>
<text xml:space="preserve" text-anchor="start" x="77.62" y="-419.75" font-family="Helvetica,sans-Serif" font-size="10.00" fill="grey">headers</text>
<text xml:space="preserve" text-anchor="start" x="77.62" y="-404.5" font-family="Helvetica,sans-Serif" font-size="10.00" fill="grey">params</text>
</g>
<!-- Node8 -->
<g id="Node000008" class="node">
<title>Node8</title>
<g id="a_Node000008"><a xlink:href="structBody.html" target="_top" xlink:title="HTTP request or response body.">
<polygon fill="white" stroke="#666666" points="43,-469.5 5.25,-469.5 5.25,-450.25 43,-450.25 43,-469.5"/>
<text xml:space="preserve" text-anchor="middle" x="24.12" y="-456" font-family="Helvetica,sans-Serif" font-size="10.00">Body</text>
</a>
</g>
</g>
<!-- Node8&#45;&gt;Node6 -->
<g id="edge9_Node000006_Node000008" class="edge">
<title>Node8&#45;&gt;Node6</title>
<g id="a_edge9_Node000006_Node000008"><a xlink:title=" ">
<path fill="none" stroke="#9a32cd" stroke-dasharray="5,2" d="M22.78,-438.59C22.42,-427.11 22.63,-412.53 24.88,-399.75 25.96,-393.58 28.27,-386.92 30.31,-381.81"/>
<polygon fill="#9a32cd" stroke="#9a32cd" points="19.28,-438.65 23.28,-448.47 26.27,-438.3 19.28,-438.65"/>
</a>
</g>
<text xml:space="preserve" text-anchor="start" x="27.88" y="-412.12" font-family="Helvetica,sans-Serif" font-size="10.00" fill="grey">body</text>
</g>
<!-- Node9 -->
<g id="Node000009" class="node">
<title>Node9</title>
<g id="a_Node000009"><a xlink:href="structcJSON.html" target="_top" xlink:title=" ">
<polygon fill="white" stroke="#666666" points="48.25,-556.25 0,-556.25 0,-537 48.25,-537 48.25,-556.25"/>
<text xml:space="preserve" text-anchor="middle" x="24.12" y="-542.75" font-family="Helvetica,sans-Serif" font-size="10.00">cJSON</text>
</a>
</g>
</g>
<!-- Node9&#45;&gt;Node8 -->
<g id="edge10_Node000008_Node000009" class="edge">
<title>Node9&#45;&gt;Node8</title>
<g id="a_edge10_Node000008_Node000009"><a xlink:title=" ">
<path fill="none" stroke="#9a32cd" stroke-dasharray="5,2" d="M24.12,-525.23C24.12,-507.6 24.12,-482.97 24.12,-469.88"/>
<polygon fill="#9a32cd" stroke="#9a32cd" points="20.63,-525.04 24.13,-535.04 27.63,-525.04 20.63,-525.04"/>
</a>
</g>
<text xml:space="preserve" text-anchor="start" x="27.12" y="-492.25" font-family="Helvetica,sans-Serif" font-size="10.00" fill="grey">json</text>
</g>
<!-- Node9&#45;&gt;Node9 -->
<g id="edge11_Node000009_Node000009" class="edge">
<title>Node9&#45;&gt;Node9</title>
<g id="a_edge11_Node000009_Node000009"><a xlink:title=" ">
<path fill="none" stroke="#9a32cd" stroke-dasharray="5,2" d="M59.68,-554.63C63.67,-553.12 66.25,-550.45 66.25,-546.62 66.25,-539.82 58.09,-536.68 48.37,-537.21"/>
<polygon fill="#9a32cd" stroke="#9a32cd" points="59.36,-551.14 49.87,-555.85 60.22,-558.09 59.36,-551.14"/>
</a>
</g>
<text xml:space="preserve" text-anchor="start" x="69.25" y="-558" font-family="Helvetica,sans-Serif" font-size="10.00" fill="grey">child</text>
<text xml:space="preserve" text-anchor="start" x="69.25" y="-542.75" font-family="Helvetica,sans-Serif" font-size="10.00" fill="grey">next</text>
<text xml:space="preserve" text-anchor="start" x="69.25" y="-527.5" font-family="Helvetica,sans-Serif" font-size="10.00" fill="grey">prev</text>
</g>
<!-- Node10 -->
<g id="Node000010" class="node">
<title>Node10</title>
<g id="a_Node000010"><a xlink:href="structResponseData.html" target="_top" xlink:title=" ">
<polygon fill="white" stroke="#666666" points="267,-381.75 187.25,-381.75 187.25,-362.5 267,-362.5 267,-381.75"/>
<text xml:space="preserve" text-anchor="middle" x="227.12" y="-368.25" font-family="Helvetica,sans-Serif" font-size="10.00">ResponseData</text>
</a>
</g>
</g>
<!-- Node10&#45;&gt;Node1 -->
<g id="edge15_Node000001_Node000010" class="edge">
<title>Node10&#45;&gt;Node1</title>
<g id="a_edge15_Node000001_Node000010"><a xlink:title=" ">
<path fill="none" stroke="#9a32cd" stroke-dasharray="5,2" d="M227.12,-351.05C227.12,-337.44 227.12,-320.1 227.12,-309.7"/>
<polygon fill="#9a32cd" stroke="#9a32cd" points="223.63,-350.68 227.13,-360.68 230.63,-350.68 223.63,-350.68"/>
</a>
</g>
<text xml:space="preserve" text-anchor="start" x="230.12" y="-332" font-family="Helvetica,sans-Serif" font-size="10.00" fill="grey">data</text>
</g>
<!-- Node11 -->
<g id="Node000011" class="node">
<title>Node11</title>
<g id="a_Node000011"><a xlink:href="structResponseDataEntry.html" target="_top" xlink:title=" ">
<polygon fill="white" stroke="#666666" points="277.88,-469.5 176.38,-469.5 176.38,-450.25 277.88,-450.25 277.88,-469.5"/>
<text xml:space="preserve" text-anchor="middle" x="227.12" y="-456" font-family="Helvetica,sans-Serif" font-size="10.00">ResponseDataEntry</text>
</a>
</g>
</g>
<!-- Node11&#45;&gt;Node10 -->
<g id="edge16_Node000010_Node000011" class="edge">
<title>Node11&#45;&gt;Node10</title>
<g id="a_edge16_Node000010_Node000011"><a xlink:title=" ">
<path fill="none" stroke="#9a32cd" stroke-dasharray="5,2" d="M227.12,-438.54C227.12,-420.61 227.12,-395.33 227.12,-382.06"/>
<polygon fill="#9a32cd" stroke="#9a32cd" points="223.63,-438.51 227.13,-448.51 230.63,-438.51 223.63,-438.51"/>
</a>
</g>
<text xml:space="preserve" text-anchor="start" x="230.12" y="-412.12" font-family="Helvetica,sans-Serif" font-size="10.00" fill="grey">entries</text>
</g>
<!-- Node12 -->
<g id="Node000012" class="node">
<title>Node12</title>
<g id="a_Node000012"><a xlink:href="structResponseContextQuery.html" target="_top" xlink:title=" ">
<polygon fill="white" stroke="#666666" points="403.12,-381.75 285.12,-381.75 285.12,-362.5 403.12,-362.5 403.12,-381.75"/>
<text xml:space="preserve" text-anchor="middle" x="344.12" y="-368.25" font-family="Helvetica,sans-Serif" font-size="10.00">ResponseContextQuery</text>
</a>
</g>
</g>
<!-- Node12&#45;&gt;Node1 -->
<g id="edge17_Node000001_Node000012" class="edge">
<title>Node12&#45;&gt;Node1</title>
<g id="a_edge17_Node000001_Node000012"><a xlink:title=" ">
<path fill="none" stroke="#9a32cd" stroke-dasharray="5,2" d="M319.75,-356.44C296.37,-342.35 261.82,-321.53 242.19,-309.7"/>
<polygon fill="#9a32cd" stroke="#9a32cd" points="317.64,-359.25 328.01,-361.41 321.25,-353.26 317.64,-359.25"/>
</a>
</g>
<text xml:space="preserve" text-anchor="start" x="302.55" y="-332" font-family="Helvetica,sans-Serif" font-size="10.00" fill="grey">query</text>
</g>
<!-- Node13 -->
<g id="Node000013" class="node">
<title>Node13</title>
<g id="a_Node000013"><a xlink:href="structDynamicKeyValue.html" target="_top" xlink:title="Dynamic key/value pair.">
<polygon fill="white" stroke="#666666" points="391.5,-469.5 296.75,-469.5 296.75,-450.25 391.5,-450.25 391.5,-469.5"/>
<text xml:space="preserve" text-anchor="middle" x="344.12" y="-456" font-family="Helvetica,sans-Serif" font-size="10.00">DynamicKeyValue</text>
</a>
</g>
</g>
<!-- Node13&#45;&gt;Node12 -->
<g id="edge18_Node000012_Node000013" class="edge">
<title>Node13&#45;&gt;Node12</title>
<g id="a_edge18_Node000012_Node000013"><a xlink:title=" ">
<path fill="none" stroke="#9a32cd" stroke-dasharray="5,2" d="M344.12,-438.54C344.12,-420.61 344.12,-395.33 344.12,-382.06"/>
<polygon fill="#9a32cd" stroke="#9a32cd" points="340.63,-438.51 344.13,-448.51 347.63,-438.51 340.63,-438.51"/>
</a>
</g>
<text xml:space="preserve" text-anchor="start" x="347.12" y="-412.12" font-family="Helvetica,sans-Serif" font-size="10.00" fill="grey">entries</text>
</g>
</g>
</svg>
