<?xml version="1.0" encoding="UTF-8" standalone="no"?>
<!DOCTYPE svg PUBLIC "-//W3C//DTD SVG 1.1//EN"
 "http://www.w3.org/Graphics/SVG/1.1/DTD/svg11.dtd">
<!-- Generated by graphviz version 14.0.5 (0)
 -->
<!-- Title: internal_hooks::allocate Pages: 1 -->
<svg width="775pt" height="639pt"
 viewBox="0.00 0.00 775.00 639.00" xmlns="http://www.w3.org/2000/svg" xmlns:xlink="http://www.w3.org/1999/xlink">
<g id="graph0" class="graph" transform="scale(1 1) rotate(0) translate(4 634.62)">
<title>internal_hooks::allocate</title>
<!-- Node1 -->
<g id="Node000001" class="node">
<title>Node1</title>
<g id="a_Node000001"><a xlink:title=" ">
<polygon fill="#999999" stroke="#666666" points="767.25,-293.62 650,-293.62 650,-274.38 767.25,-274.38 767.25,-293.62"/>
<text xml:space="preserve" text-anchor="middle" x="708.62" y="-280.12" font-family="Helvetica,sans-Serif" font-size="10.00">internal_hooks::allocate</text>
</a>
</g>
</g>
<!-- Node1&#45;&gt;Node1 -->
<g id="edge1_Node000001_Node000001" class="edge">
<title>Node1&#45;&gt;Node1</title>
<g id="a_edge1_Node000001_Node000001"><a xlink:title=" ">
<path fill="none" stroke="#63b8ff" d="M734.42,-304.69C731.45,-308.74 722.85,-311.62 708.62,-311.62 683.33,-311.62 675.83,-302.52 686.1,-293.91"/>
<polygon fill="#63b8ff" stroke="#63b8ff" points="737.84,-303.91 731.59,-295.36 731.15,-305.95 737.84,-303.91"/>
</a>
</g>
</g>
<!-- Node2 -->
<g id="Node000002" class="node">
<title>Node2</title>
<g id="a_Node000002"><a xlink:href="cJSON_8c.html#aa05c1f56de8779ae1584c525cc81aeb5" target="_top" xlink:title=" ">
<polygon fill="white" stroke="#666666" points="614,-406.62 515.5,-406.62 515.5,-387.38 614,-387.38 614,-406.62"/>
<text xml:space="preserve" text-anchor="middle" x="564.75" y="-393.12" font-family="Helvetica,sans-Serif" font-size="10.00">cJSON_New_Item</text>
</a>
</g>
</g>
<!-- Node1&#45;&gt;Node2 -->
<g id="edge2_Node000001_Node000002" class="edge">
<title>Node1&#45;&gt;Node2</title>
<g id="a_edge2_Node000001_Node000002"><a xlink:title=" ">
<path fill="none" stroke="#63b8ff" d="M686.16,-301.1C656.06,-325.07 602.28,-367.91 578.11,-387.16"/>
<polygon fill="#63b8ff" stroke="#63b8ff" points="688.21,-303.94 693.85,-294.97 683.85,-298.46 688.21,-303.94"/>
</a>
</g>
</g>
<!-- Node9 -->
<g id="Node000009" class="node">
<title>Node9</title>
<g id="a_Node000009"><a xlink:href="cJSON_8c.html#a15067642a12599c13a0e6c0da9009be7" target="_top" xlink:title=" ">
<polygon fill="white" stroke="#666666" points="605,-556.62 524.5,-556.62 524.5,-537.38 605,-537.38 605,-556.62"/>
<text xml:space="preserve" text-anchor="middle" x="564.75" y="-543.12" font-family="Helvetica,sans-Serif" font-size="10.00">cJSON_strdup</text>
</a>
</g>
</g>
<!-- Node1&#45;&gt;Node9 -->
<g id="edge14_Node000001_Node000009" class="edge">
<title>Node1&#45;&gt;Node9</title>
<g id="a_edge14_Node000001_Node000009"><a xlink:title=" ">
<path fill="none" stroke="#63b8ff" d="M696.78,-304.11C668.28,-356.93 592.09,-498.17 571.14,-537"/>
<polygon fill="#63b8ff" stroke="#63b8ff" points="699.85,-305.78 701.52,-295.32 693.69,-302.46 699.85,-305.78"/>
</a>
</g>
</g>
<!-- Node13 -->
<g id="Node000013" class="node">
<title>Node13</title>
<g id="a_Node000013"><a xlink:href="cJSON_8c.html#ad9f9a9b2ad3154fc8033756f23c023a6" target="_top" xlink:title=" ">
<polygon fill="white" stroke="#666666" points="587.38,-142.62 542.12,-142.62 542.12,-123.38 587.38,-123.38 587.38,-142.62"/>
<text xml:space="preserve" text-anchor="middle" x="564.75" y="-129.12" font-family="Helvetica,sans-Serif" font-size="10.00">ensure</text>
</a>
</g>
</g>
<!-- Node1&#45;&gt;Node13 -->
<g id="edge19_Node000001_Node000013" class="edge">
<title>Node1&#45;&gt;Node13</title>
<g id="a_edge19_Node000001_Node000013"><a xlink:title=" ">
<path fill="none" stroke="#63b8ff" d="M690.71,-265.99C660.51,-233.85 598.3,-167.64 574.91,-142.75"/>
<polygon fill="#63b8ff" stroke="#63b8ff" points="687.88,-268.1 697.28,-272.99 692.98,-263.3 687.88,-268.1"/>
</a>
</g>
</g>
<!-- Node17 -->
<g id="Node000017" class="node">
<title>Node17</title>
<g id="a_Node000017"><a xlink:href="cJSON_8c.html#a36b0c212c0d382a4714afa8b70c1a2ee" target="_top" xlink:title=" ">
<polygon fill="white" stroke="#666666" points="63.25,-48.62 28.5,-48.62 28.5,-29.38 63.25,-29.38 63.25,-48.62"/>
<text xml:space="preserve" text-anchor="middle" x="45.88" y="-35.12" font-family="Helvetica,sans-Serif" font-size="10.00">print</text>
</a>
</g>
</g>
<!-- Node1&#45;&gt;Node17 -->
<g id="edge40_Node000001_Node000017" class="edge">
<title>Node1&#45;&gt;Node17</title>
<g id="a_edge40_Node000001_Node000017"><a xlink:title=" ">
<path fill="none" stroke="#63b8ff" d="M700.42,-263.46C687.55,-229.1 657.78,-159.29 614,-114 545.19,-42.82 521.63,0 422.62,0 422.62,0 422.62,0 290.62,0 204.27,0 102.84,-24.16 63.57,-34.45"/>
<polygon fill="#63b8ff" stroke="#63b8ff" points="697.04,-264.41 703.75,-272.61 703.62,-262.02 697.04,-264.41"/>
</a>
</g>
</g>
<!-- Node22 -->
<g id="Node000022" class="node">
<title>Node22</title>
<g id="a_Node000022"><a xlink:href="cJSON_8c.html#a699e1cebda71c2846a9a10b29b4dc407" target="_top" xlink:title=" ">
<polygon fill="white" stroke="#666666" points="603.5,-312.62 526,-312.62 526,-293.38 603.5,-293.38 603.5,-312.62"/>
<text xml:space="preserve" text-anchor="middle" x="564.75" y="-299.12" font-family="Helvetica,sans-Serif" font-size="10.00">parse_number</text>
</a>
</g>
</g>
<!-- Node1&#45;&gt;Node22 -->
<g id="edge35_Node000001_Node000022" class="edge">
<title>Node1&#45;&gt;Node22</title>
<g id="a_edge35_Node000001_Node000022"><a xlink:title=" ">
<path fill="none" stroke="#63b8ff" d="M638.17,-293.3C626.29,-294.89 614.35,-296.49 603.68,-297.92"/>
<polygon fill="#63b8ff" stroke="#63b8ff" points="638.56,-296.78 648.01,-291.98 637.63,-289.84 638.56,-296.78"/>
</a>
</g>
</g>
<!-- Node23 -->
<g id="Node000023" class="node">
<title>Node23</title>
<g id="a_Node000023"><a xlink:href="cJSON_8c.html#adf47b520af96d1bbefa2390016fbdb51" target="_top" xlink:title=" ">
<polygon fill="white" stroke="#666666" points="456.25,-274.62 387,-274.62 387,-255.38 456.25,-255.38 456.25,-274.62"/>
<text xml:space="preserve" text-anchor="middle" x="421.62" y="-261.12" font-family="Helvetica,sans-Serif" font-size="10.00">parse_string</text>
</a>
</g>
</g>
<!-- Node1&#45;&gt;Node23 -->
<g id="edge37_Node000001_Node000023" class="edge">
<title>Node1&#45;&gt;Node23</title>
<g id="a_edge37_Node000001_Node000023"><a xlink:title=" ">
<path fill="none" stroke="#63b8ff" d="M638.39,-279.38C580.73,-275.54 501.1,-270.23 456.46,-267.26"/>
<polygon fill="#63b8ff" stroke="#63b8ff" points="637.89,-282.86 648.1,-280.03 638.35,-275.87 637.89,-282.86"/>
</a>
</g>
</g>
<!-- Node3 -->
<g id="Node000003" class="node">
<title>Node3</title>
<g id="a_Node000003"><a xlink:href="cJSON_8c.html#a7916f8c63594d49f98777b2f2153e245" target="_top" xlink:title=" ">
<polygon fill="white" stroke="#666666" points="478,-501.62 365.25,-501.62 365.25,-482.38 478,-482.38 478,-501.62"/>
<text xml:space="preserve" text-anchor="middle" x="421.62" y="-488.12" font-family="Helvetica,sans-Serif" font-size="10.00">cJSON_Duplicate_rec</text>
</a>
</g>
</g>
<!-- Node2&#45;&gt;Node3 -->
<g id="edge3_Node000002_Node000003" class="edge">
<title>Node2&#45;&gt;Node3</title>
<g id="a_edge3_Node000002_Node000003"><a xlink:title=" ">
<path fill="none" stroke="#63b8ff" d="M546.11,-414.63C529.86,-430.17 504.54,-452.65 479.5,-468 470.73,-473.38 460.54,-478.09 451.22,-481.89"/>
<polygon fill="#63b8ff" stroke="#63b8ff" points="548.34,-417.35 553.06,-407.86 543.45,-412.33 548.34,-417.35"/>
</a>
</g>
</g>
<!-- Node4 -->
<g id="Node000004" class="node">
<title>Node4</title>
<g id="a_Node000004"><a xlink:href="cJSON_8h.html#abd55c37a5af547c3c1ada176e38afbc6" target="_top" xlink:title=" ">
<polygon fill="white" stroke="#666666" points="219.5,-425.62 127.75,-425.62 127.75,-406.38 219.5,-406.38 219.5,-425.62"/>
<text xml:space="preserve" text-anchor="middle" x="173.62" y="-412.12" font-family="Helvetica,sans-Serif" font-size="10.00">CJSON_PUBLIC</text>
</a>
</g>
</g>
<!-- Node2&#45;&gt;Node4 -->
<g id="edge5_Node000002_Node000004" class="edge">
<title>Node2&#45;&gt;Node4</title>
<g id="a_edge5_Node000002_Node000004"><a xlink:title=" ">
<path fill="none" stroke="#63b8ff" d="M537.29,-412.44C521.17,-420.94 499.83,-430.63 479.5,-435 388.12,-454.65 278.06,-438.24 218.35,-426.11"/>
<polygon fill="#63b8ff" stroke="#63b8ff" points="538.64,-415.69 545.73,-407.83 535.28,-409.55 538.64,-415.69"/>
</a>
</g>
</g>
<!-- Node5 -->
<g id="Node000005" class="node">
<title>Node5</title>
<g id="a_Node000005"><a xlink:href="cJSON_8c.html#a34155b75b0e70b292b338f6f41d090d6" target="_top" xlink:title=" ">
<polygon fill="white" stroke="#666666" points="466,-388.62 377.25,-388.62 377.25,-369.38 466,-369.38 466,-388.62"/>
<text xml:space="preserve" text-anchor="middle" x="421.62" y="-375.12" font-family="Helvetica,sans-Serif" font-size="10.00">create_reference</text>
</a>
</g>
</g>
<!-- Node2&#45;&gt;Node5 -->
<g id="edge6_Node000002_Node000005" class="edge">
<title>Node2&#45;&gt;Node5</title>
<g id="a_edge6_Node000002_Node000005"><a xlink:title=" ">
<path fill="none" stroke="#63b8ff" d="M504.13,-389.4C491.36,-387.77 478.1,-386.08 466.08,-384.54"/>
<polygon fill="#63b8ff" stroke="#63b8ff" points="503.32,-392.82 513.68,-390.61 504.2,-385.88 503.32,-392.82"/>
</a>
</g>
</g>
<!-- Node6 -->
<g id="Node000006" class="node">
<title>Node6</title>
<g id="a_Node000006"><a xlink:href="cJSON_8c.html#a367cc7ac5a592211d9f18dc02dd23069" target="_top" xlink:title=" ">
<polygon fill="white" stroke="#666666" points="454.75,-425.62 388.5,-425.62 388.5,-406.38 454.75,-406.38 454.75,-425.62"/>
<text xml:space="preserve" text-anchor="middle" x="421.62" y="-412.12" font-family="Helvetica,sans-Serif" font-size="10.00">parse_array</text>
</a>
</g>
</g>
<!-- Node2&#45;&gt;Node6 -->
<g id="edge7_Node000002_Node000006" class="edge">
<title>Node2&#45;&gt;Node6</title>
<g id="a_edge7_Node000002_Node000006"><a xlink:title=" ">
<path fill="none" stroke="#63b8ff" d="M504.23,-405.01C487.3,-407.29 469.51,-409.69 454.87,-411.66"/>
<polygon fill="#63b8ff" stroke="#63b8ff" points="504.24,-408.54 513.68,-403.74 503.31,-401.61 504.24,-408.54"/>
</a>
</g>
</g>
<!-- Node8 -->
<g id="Node000008" class="node">
<title>Node8</title>
<g id="a_Node000008"><a xlink:href="cJSON_8c.html#a1472ac5d1becd7d9a5e558b4c053b06a" target="_top" xlink:title=" ">
<polygon fill="white" stroke="#666666" points="209.38,-369.62 137.88,-369.62 137.88,-350.38 209.38,-350.38 209.38,-369.62"/>
<text xml:space="preserve" text-anchor="middle" x="173.62" y="-356.12" font-family="Helvetica,sans-Serif" font-size="10.00">parse_object</text>
</a>
</g>
</g>
<!-- Node2&#45;&gt;Node8 -->
<g id="edge13_Node000002_Node000008" class="edge">
<title>Node2&#45;&gt;Node8</title>
<g id="a_edge13_Node000002_Node000008"><a xlink:title=" ">
<path fill="none" stroke="#63b8ff" d="M536.93,-381.8C520.83,-373.56 499.64,-364.23 479.5,-360 383.67,-339.88 267.13,-348.84 209.86,-355.36"/>
<polygon fill="#63b8ff" stroke="#63b8ff" points="534.9,-384.69 545.37,-386.28 538.18,-378.5 534.9,-384.69"/>
</a>
</g>
</g>
<!-- Node3&#45;&gt;Node3 -->
<g id="edge4_Node000003_Node000003" class="edge">
<title>Node3&#45;&gt;Node3</title>
<g id="a_edge4_Node000003_Node000003"><a xlink:title=" ">
<path fill="none" stroke="#63b8ff" d="M444.7,-513.03C441.81,-516.9 434.12,-519.62 421.62,-519.62 398.77,-519.62 391.99,-510.52 401.27,-501.91"/>
<polygon fill="#63b8ff" stroke="#63b8ff" points="448.12,-512.26 442.34,-503.38 441.32,-513.93 448.12,-512.26"/>
</a>
</g>
</g>
<!-- Node7 -->
<g id="Node000007" class="node">
<title>Node7</title>
<g id="a_Node000007"><a xlink:href="cJSON_8c.html#afd5c0b7089e4de2fc9b2af599d4b596f" target="_top" xlink:title=" ">
<polygon fill="white" stroke="#666666" points="325.88,-388.62 257.38,-388.62 257.38,-369.38 325.88,-369.38 325.88,-388.62"/>
<text xml:space="preserve" text-anchor="middle" x="291.62" y="-375.12" font-family="Helvetica,sans-Serif" font-size="10.00">parse_value</text>
</a>
</g>
</g>
<!-- Node6&#45;&gt;Node7 -->
<g id="edge8_Node000006_Node000007" class="edge">
<title>Node6&#45;&gt;Node7</title>
<g id="a_edge8_Node000006_Node000007"><a xlink:title=" ">
<path fill="none" stroke="#63b8ff" d="M391.91,-401.96C372.44,-395.09 346.62,-387.53 326.2,-382.68"/>
<polygon fill="#63b8ff" stroke="#63b8ff" points="390.54,-405.19 401.14,-405.38 392.98,-398.62 390.54,-405.19"/>
</a>
</g>
</g>
<!-- Node7&#45;&gt;Node4 -->
<g id="edge9_Node000007_Node000004" class="edge">
<title>Node7&#45;&gt;Node4</title>
<g id="a_edge9_Node000007_Node000004"><a xlink:title=" ">
<path fill="none" stroke="#63b8ff" d="M248.16,-392.54C234.32,-396.96 219.19,-401.78 206.28,-405.9"/>
<polygon fill="#63b8ff" stroke="#63b8ff" points="249.02,-395.94 257.49,-389.57 246.89,-389.27 249.02,-395.94"/>
</a>
</g>
</g>
<!-- Node7&#45;&gt;Node6 -->
<g id="edge10_Node000007_Node000006" class="edge">
<title>Node7&#45;&gt;Node6</title>
<g id="a_edge10_Node000007_Node000006"><a xlink:title=" ">
<path fill="none" stroke="#63b8ff" d="M321.24,-393.01C341.13,-400.03 367.68,-407.78 388.33,-412.62"/>
<polygon fill="#63b8ff" stroke="#63b8ff" points="322.69,-389.81 312.1,-389.62 320.26,-396.37 322.69,-389.81"/>
</a>
</g>
</g>
<!-- Node7&#45;&gt;Node8 -->
<g id="edge11_Node000007_Node000008" class="edge">
<title>Node7&#45;&gt;Node8</title>
<g id="a_edge11_Node000007_Node000008"><a xlink:title=" ">
<path fill="none" stroke="#63b8ff" d="M253.09,-366.49C239.13,-363.65 223.36,-361.11 209.64,-359.48"/>
<polygon fill="#63b8ff" stroke="#63b8ff" points="252.31,-369.9 262.82,-368.61 253.8,-363.06 252.31,-369.9"/>
</a>
</g>
</g>
<!-- Node8&#45;&gt;Node7 -->
<g id="edge12_Node000008_Node000007" class="edge">
<title>Node8&#45;&gt;Node7</title>
<g id="a_edge12_Node000008_Node000007"><a xlink:title=" ">
<path fill="none" stroke="#63b8ff" d="M212.2,-372.52C226.64,-375.45 243.03,-378.08 257.07,-379.69"/>
<polygon fill="#63b8ff" stroke="#63b8ff" points="213.1,-369.13 202.59,-370.43 211.62,-375.97 213.1,-369.13"/>
</a>
</g>
</g>
<!-- Node9&#45;&gt;Node3 -->
<g id="edge16_Node000009_Node000003" class="edge">
<title>Node9&#45;&gt;Node3</title>
<g id="a_edge16_Node000009_Node000003"><a xlink:title=" ">
<path fill="none" stroke="#63b8ff" d="M527.42,-532.84C502.66,-523.19 470.48,-510.65 448.35,-502.02"/>
<polygon fill="#63b8ff" stroke="#63b8ff" points="525.87,-535.99 536.46,-536.36 528.41,-529.47 525.87,-535.99"/>
</a>
</g>
</g>
<!-- Node10 -->
<g id="Node000010" class="node">
<title>Node10</title>
<g id="a_Node000010"><a xlink:href="cJSON_8c.html#acc48bef0e1b495898d9489e577b91d5c" target="_top" xlink:title=" ">
<polygon fill="white" stroke="#666666" points="472,-630.62 371.25,-630.62 371.25,-611.38 472,-611.38 472,-630.62"/>
<text xml:space="preserve" text-anchor="middle" x="421.62" y="-617.12" font-family="Helvetica,sans-Serif" font-size="10.00">add_item_to_object</text>
</a>
</g>
</g>
<!-- Node9&#45;&gt;Node10 -->
<g id="edge15_Node000009_Node000010" class="edge">
<title>Node9&#45;&gt;Node10</title>
<g id="a_edge15_Node000009_Node000010"><a xlink:title=" ">
<path fill="none" stroke="#63b8ff" d="M542.51,-563.56C526.04,-575.77 502.28,-592.09 479.5,-603 473.24,-606 466.36,-608.66 459.62,-610.95"/>
<polygon fill="#63b8ff" stroke="#63b8ff" points="544.22,-566.65 550.08,-557.83 540,-561.07 544.22,-566.65"/>
</a>
</g>
</g>
<!-- Node11 -->
<g id="Node000011" class="node">
<title>Node11</title>
<g id="a_Node000011"><a xlink:href="cJSON_8h.html#acc0bf2ad0de27db33e6471754c8f3ace" target="_top" xlink:title=" ">
<polygon fill="white" stroke="#666666" points="467.5,-593.62 375.75,-593.62 375.75,-574.38 467.5,-574.38 467.5,-593.62"/>
<text xml:space="preserve" text-anchor="middle" x="421.62" y="-580.12" font-family="Helvetica,sans-Serif" font-size="10.00">CJSON_PUBLIC</text>
</a>
</g>
</g>
<!-- Node9&#45;&gt;Node11 -->
<g id="edge17_Node000009_Node000011" class="edge">
<title>Node9&#45;&gt;Node11</title>
<g id="a_edge17_Node000009_Node000011"><a xlink:title=" ">
<path fill="none" stroke="#63b8ff" d="M514.08,-560.02C496.71,-564.58 477.47,-569.62 461.14,-573.9"/>
<polygon fill="#63b8ff" stroke="#63b8ff" points="514.94,-563.42 523.72,-557.49 513.16,-556.64 514.94,-563.42"/>
</a>
</g>
</g>
<!-- Node12 -->
<g id="Node000012" class="node">
<title>Node12</title>
<g id="a_Node000012"><a xlink:href="cJSON_8c.html#afdae75197cf2c440ef858a2e93b104f2" target="_top" xlink:title=" ">
<polygon fill="white" stroke="#666666" points="479.5,-556.62 363.75,-556.62 363.75,-537.38 479.5,-537.38 479.5,-556.62"/>
<text xml:space="preserve" text-anchor="middle" x="421.62" y="-543.12" font-family="Helvetica,sans-Serif" font-size="10.00">replace_item_in_object</text>
</a>
</g>
</g>
<!-- Node9&#45;&gt;Node12 -->
<g id="edge18_Node000009_Node000012" class="edge">
<title>Node9&#45;&gt;Node12</title>
<g id="a_edge18_Node000009_Node000012"><a xlink:title=" ">
<path fill="none" stroke="#63b8ff" d="M512.79,-547C502.12,-547 490.8,-547 479.92,-547"/>
<polygon fill="#63b8ff" stroke="#63b8ff" points="512.55,-550.5 522.55,-547 512.55,-543.5 512.55,-550.5"/>
</a>
</g>
</g>
<!-- Node14 -->
<g id="Node000014" class="node">
<title>Node14</title>
<g id="a_Node000014"><a xlink:href="cJSON_8c.html#ae84642817f3965a85c7c617663250c16" target="_top" xlink:title=" ">
<polygon fill="white" stroke="#666666" points="322.12,-47.62 261.12,-47.62 261.12,-28.38 322.12,-28.38 322.12,-47.62"/>
<text xml:space="preserve" text-anchor="middle" x="291.62" y="-34.12" font-family="Helvetica,sans-Serif" font-size="10.00">print_array</text>
</a>
</g>
</g>
<!-- Node13&#45;&gt;Node14 -->
<g id="edge20_Node000013_Node000014" class="edge">
<title>Node13&#45;&gt;Node14</title>
<g id="a_edge20_Node000013_Node000014"><a xlink:title=" ">
<path fill="none" stroke="#63b8ff" d="M547.76,-114.49C532.16,-97.77 506.84,-74.01 479.5,-62 427.69,-39.24 360.56,-36.28 322.48,-36.75"/>
<polygon fill="#63b8ff" stroke="#63b8ff" points="545.07,-116.73 554.37,-121.81 550.26,-112.04 545.07,-116.73"/>
</a>
</g>
</g>
<!-- Node15 -->
<g id="Node000015" class="node">
<title>Node15</title>
<g id="a_Node000015"><a xlink:href="cJSON_8c.html#a5ba141f183b9abb4b49e38a211299c7e" target="_top" xlink:title=" ">
<polygon fill="white" stroke="#666666" points="205.25,-104.62 142,-104.62 142,-85.38 205.25,-85.38 205.25,-104.62"/>
<text xml:space="preserve" text-anchor="middle" x="173.62" y="-91.12" font-family="Helvetica,sans-Serif" font-size="10.00">print_value</text>
</a>
</g>
</g>
<!-- Node13&#45;&gt;Node15 -->
<g id="edge34_Node000013_Node000015" class="edge">
<title>Node13&#45;&gt;Node15</title>
<g id="a_edge34_Node000013_Node000015"><a xlink:title=" ">
<path fill="none" stroke="#63b8ff" d="M530.55,-125.27C515.09,-121.84 496.41,-117.92 479.5,-115 412.46,-103.44 395.63,-99.45 327.75,-95 285.44,-92.22 236.41,-92.91 205.46,-93.82"/>
<polygon fill="#63b8ff" stroke="#63b8ff" points="529.67,-128.66 540.19,-127.45 531.21,-121.83 529.67,-128.66"/>
</a>
</g>
</g>
<!-- Node18 -->
<g id="Node000018" class="node">
<title>Node18</title>
<g id="a_Node000018"><a xlink:href="cJSON_8c.html#a3d742f5c68799bca291432a9cd72f8dd" target="_top" xlink:title=" ">
<polygon fill="white" stroke="#666666" points="79,-179.62 12.75,-179.62 12.75,-160.38 79,-160.38 79,-179.62"/>
<text xml:space="preserve" text-anchor="middle" x="45.88" y="-166.12" font-family="Helvetica,sans-Serif" font-size="10.00">print_object</text>
</a>
</g>
</g>
<!-- Node13&#45;&gt;Node18 -->
<g id="edge29_Node000013_Node000018" class="edge">
<title>Node13&#45;&gt;Node18</title>
<g id="a_edge29_Node000013_Node000018"><a xlink:title=" ">
<path fill="none" stroke="#63b8ff" d="M536.18,-148.19C520.12,-156.32 499.21,-165.73 479.5,-171 328.27,-211.41 283.25,-207.02 127.75,-189 111.56,-187.12 93.91,-183.2 79.23,-179.41"/>
<polygon fill="#63b8ff" stroke="#63b8ff" points="537.39,-151.51 544.63,-143.78 534.15,-145.3 537.39,-151.51"/>
</a>
</g>
</g>
<!-- Node19 -->
<g id="Node000019" class="node">
<title>Node19</title>
<g id="a_Node000019"><a xlink:href="cJSON_8c.html#ad93d84de08872da0eaa6624be0e74a68" target="_top" xlink:title=" ">
<polygon fill="white" stroke="#666666" points="327.75,-123.62 255.5,-123.62 255.5,-104.38 327.75,-104.38 327.75,-123.62"/>
<text xml:space="preserve" text-anchor="middle" x="291.62" y="-110.12" font-family="Helvetica,sans-Serif" font-size="10.00">print_number</text>
</a>
</g>
</g>
<!-- Node13&#45;&gt;Node19 -->
<g id="edge27_Node000013_Node000019" class="edge">
<title>Node13&#45;&gt;Node19</title>
<g id="a_edge27_Node000013_Node000019"><a xlink:title=" ">
<path fill="none" stroke="#63b8ff" d="M530.61,-130.68C479.17,-127.07 380.58,-120.16 327.88,-116.47"/>
<polygon fill="#63b8ff" stroke="#63b8ff" points="530.29,-134.16 540.51,-131.37 530.78,-127.18 530.29,-134.16"/>
</a>
</g>
</g>
<!-- Node20 -->
<g id="Node000020" class="node">
<title>Node20</title>
<g id="a_Node000020"><a xlink:href="cJSON_8c.html#af5b4e769356f10d99a7f66697c42c1bb" target="_top" xlink:title=" ">
<polygon fill="white" stroke="#666666" points="461.88,-161.62 381.38,-161.62 381.38,-142.38 461.88,-142.38 461.88,-161.62"/>
<text xml:space="preserve" text-anchor="middle" x="421.62" y="-148.12" font-family="Helvetica,sans-Serif" font-size="10.00">print_string_ptr</text>
</a>
</g>
</g>
<!-- Node13&#45;&gt;Node20 -->
<g id="edge30_Node000013_Node000020" class="edge">
<title>Node13&#45;&gt;Node20</title>
<g id="a_edge30_Node000013_Node000020"><a xlink:title=" ">
<path fill="none" stroke="#63b8ff" d="M530.41,-137.49C509.94,-140.24 483.63,-143.79 462.12,-146.68"/>
<polygon fill="#63b8ff" stroke="#63b8ff" points="530.76,-140.97 540.2,-136.17 529.82,-134.04 530.76,-140.97"/>
</a>
</g>
</g>
<!-- Node14&#45;&gt;Node15 -->
<g id="edge21_Node000014_Node000015" class="edge">
<title>Node14&#45;&gt;Node15</title>
<g id="a_edge21_Node000014_Node000015"><a xlink:title=" ">
<path fill="none" stroke="#63b8ff" d="M250.36,-51.32C227.72,-61.69 201.1,-75.51 186.21,-85.06"/>
<polygon fill="#63b8ff" stroke="#63b8ff" points="251.66,-54.58 259.37,-47.31 248.81,-48.18 251.66,-54.58"/>
</a>
</g>
</g>
<!-- Node15&#45;&gt;Node14 -->
<g id="edge24_Node000015_Node000014" class="edge">
<title>Node15&#45;&gt;Node14</title>
<g id="a_edge24_Node000015_Node000014"><a xlink:title=" ">
<path fill="none" stroke="#63b8ff" d="M215.97,-81.18C238.39,-70.86 264.43,-57.32 279.08,-47.92"/>
<polygon fill="#63b8ff" stroke="#63b8ff" points="214.73,-77.9 207.03,-85.19 217.59,-84.29 214.73,-77.9"/>
</a>
</g>
</g>
<!-- Node16 -->
<g id="Node000016" class="node">
<title>Node16</title>
<g id="a_Node000016"><a xlink:href="cJSON_8c.html#aed7e219a2b9187880c97c6f0ea5fa1b4" target="_top" xlink:title=" ">
<polygon fill="white" stroke="#666666" points="91.75,-104.62 0,-104.62 0,-85.38 91.75,-85.38 91.75,-104.62"/>
<text xml:space="preserve" text-anchor="middle" x="45.88" y="-91.12" font-family="Helvetica,sans-Serif" font-size="10.00">CJSON_PUBLIC</text>
</a>
</g>
</g>
<!-- Node15&#45;&gt;Node16 -->
<g id="edge22_Node000015_Node000016" class="edge">
<title>Node15&#45;&gt;Node16</title>
<g id="a_edge22_Node000015_Node000016"><a xlink:title=" ">
<path fill="none" stroke="#63b8ff" d="M130.15,-95C117.82,-95 104.32,-95 91.84,-95"/>
<polygon fill="#63b8ff" stroke="#63b8ff" points="130.03,-98.5 140.03,-95 130.03,-91.5 130.03,-98.5"/>
</a>
</g>
</g>
<!-- Node15&#45;&gt;Node17 -->
<g id="edge23_Node000015_Node000017" class="edge">
<title>Node15&#45;&gt;Node17</title>
<g id="a_edge23_Node000015_Node000017"><a xlink:title=" ">
<path fill="none" stroke="#63b8ff" d="M139.87,-80.41C115.38,-69.51 82.92,-55.05 63.54,-46.42"/>
<polygon fill="#63b8ff" stroke="#63b8ff" points="138.2,-83.5 148.76,-84.37 141.05,-77.11 138.2,-83.5"/>
</a>
</g>
</g>
<!-- Node15&#45;&gt;Node18 -->
<g id="edge25_Node000015_Node000018" class="edge">
<title>Node15&#45;&gt;Node18</title>
<g id="a_edge25_Node000015_Node000018"><a xlink:title=" ">
<path fill="none" stroke="#63b8ff" d="M136.36,-110.45C109.37,-125.32 74.34,-146.97 57.22,-159.91"/>
<polygon fill="#63b8ff" stroke="#63b8ff" points="137.79,-113.65 144.93,-105.83 134.47,-107.49 137.79,-113.65"/>
</a>
</g>
</g>
<!-- Node18&#45;&gt;Node15 -->
<g id="edge26_Node000018_Node000015" class="edge">
<title>Node18&#45;&gt;Node15</title>
<g id="a_edge26_Node000018_Node000015"><a xlink:title=" ">
<path fill="none" stroke="#63b8ff" d="M83.1,-154.58C110.13,-139.68 145.22,-118 162.33,-105.05"/>
<polygon fill="#63b8ff" stroke="#63b8ff" points="81.66,-151.37 74.52,-159.2 84.98,-157.54 81.66,-151.37"/>
</a>
</g>
</g>
<!-- Node19&#45;&gt;Node15 -->
<g id="edge28_Node000019_Node000015" class="edge">
<title>Node19&#45;&gt;Node15</title>
<g id="a_edge28_Node000019_Node000015"><a xlink:title=" ">
<path fill="none" stroke="#63b8ff" d="M244.07,-106.37C231.11,-104.25 217.35,-102 205.53,-100.06"/>
<polygon fill="#63b8ff" stroke="#63b8ff" points="243.26,-109.79 253.7,-107.95 244.39,-102.88 243.26,-109.79"/>
</a>
</g>
</g>
<!-- Node20&#45;&gt;Node18 -->
<g id="edge31_Node000020_Node000018" class="edge">
<title>Node20&#45;&gt;Node18</title>
<g id="a_edge31_Node000020_Node000018"><a xlink:title=" ">
<path fill="none" stroke="#63b8ff" d="M369.97,-163.64C356.33,-166.27 341.54,-168.68 327.75,-170 238.19,-178.6 131.83,-174.8 79.41,-172.01"/>
<polygon fill="#63b8ff" stroke="#63b8ff" points="370.5,-167.1 379.61,-161.69 369.12,-160.24 370.5,-167.1"/>
</a>
</g>
</g>
<!-- Node21 -->
<g id="Node000021" class="node">
<title>Node21</title>
<g id="a_Node000021"><a xlink:href="cJSON_8c.html#ad087dd738e49b4258f0a3d378a121df6" target="_top" xlink:title=" ">
<polygon fill="white" stroke="#666666" points="323.62,-160.62 259.62,-160.62 259.62,-141.38 323.62,-141.38 323.62,-160.62"/>
<text xml:space="preserve" text-anchor="middle" x="291.62" y="-147.12" font-family="Helvetica,sans-Serif" font-size="10.00">print_string</text>
</a>
</g>
</g>
<!-- Node20&#45;&gt;Node21 -->
<g id="edge32_Node000020_Node000021" class="edge">
<title>Node20&#45;&gt;Node21</title>
<g id="a_edge32_Node000020_Node000021"><a xlink:title=" ">
<path fill="none" stroke="#63b8ff" d="M370.11,-151.61C354.56,-151.48 337.9,-151.35 324.03,-151.25"/>
<polygon fill="#63b8ff" stroke="#63b8ff" points="369.64,-155.1 379.66,-151.68 369.69,-148.1 369.64,-155.1"/>
</a>
</g>
</g>
<!-- Node21&#45;&gt;Node15 -->
<g id="edge33_Node000021_Node000015" class="edge">
<title>Node21&#45;&gt;Node15</title>
<g id="a_edge33_Node000021_Node000015"><a xlink:title=" ">
<path fill="none" stroke="#63b8ff" d="M259.59,-136.02C239.33,-126.24 213.43,-113.73 195.58,-105.11"/>
<polygon fill="#63b8ff" stroke="#63b8ff" points="258,-139.13 268.52,-140.33 261.04,-132.83 258,-139.13"/>
</a>
</g>
</g>
<!-- Node22&#45;&gt;Node7 -->
<g id="edge36_Node000022_Node000007" class="edge">
<title>Node22&#45;&gt;Node7</title>
<g id="a_edge36_Node000022_Node000007"><a xlink:title=" ">
<path fill="none" stroke="#63b8ff" d="M516.68,-316.19C462.28,-331.44 374.12,-356.15 326.22,-369.58"/>
<polygon fill="#63b8ff" stroke="#63b8ff" points="517.61,-319.57 526.29,-313.5 515.72,-312.83 517.61,-319.57"/>
</a>
</g>
</g>
<!-- Node23&#45;&gt;Node7 -->
<g id="edge39_Node000023_Node000007" class="edge">
<title>Node23&#45;&gt;Node7</title>
<g id="a_edge39_Node000023_Node000007"><a xlink:title=" ">
<path fill="none" stroke="#63b8ff" d="M378.76,-279.76C373.48,-282.44 368.32,-285.52 363.75,-289 333.48,-312.04 308.79,-350.8 298.2,-369"/>
<polygon fill="#63b8ff" stroke="#63b8ff" points="379.98,-283.05 387.61,-275.69 377.06,-276.69 379.98,-283.05"/>
</a>
</g>
</g>
<!-- Node23&#45;&gt;Node8 -->
<g id="edge38_Node000023_Node000008" class="edge">
<title>Node23&#45;&gt;Node8</title>
<g id="a_edge38_Node000023_Node000008"><a xlink:title=" ">
<path fill="none" stroke="#63b8ff" d="M382.36,-279.02C348.82,-291.39 298.79,-310.04 255.5,-327 236.3,-334.52 214.67,-343.36 198.62,-350"/>
<polygon fill="#63b8ff" stroke="#63b8ff" points="383.48,-282.34 391.65,-275.6 381.06,-275.77 383.48,-282.34"/>
</a>
</g>
</g>
</g>
</svg>
