<?xml version="1.0" encoding="UTF-8" standalone="no"?>
<!DOCTYPE svg PUBLIC "-//W3C//DTD SVG 1.1//EN"
 "http://www.w3.org/Graphics/SVG/1.1/DTD/svg11.dtd">
<!-- Generated by graphviz version 14.0.5 (0)
 -->
<!-- Title: App Pages: 1 -->
<svg width="547pt" height="506pt"
 viewBox="0.00 0.00 547.00 506.00" xmlns="http://www.w3.org/2000/svg" xmlns:xlink="http://www.w3.org/1999/xlink">
<g id="graph0" class="graph" transform="scale(1 1) rotate(0) translate(4 502)">
<title>App</title>
<!-- Node1 -->
<g id="Node000001" class="node">
<title>Node1</title>
<g id="a_Node000001"><a xlink:title="Main application object.">
<polygon fill="#999999" stroke="#666666" points="93.38,-309.25 60.12,-309.25 60.12,-290 93.38,-290 93.38,-309.25"/>
<text xml:space="preserve" text-anchor="middle" x="76.75" y="-295.75" font-family="Helvetica,sans-Serif" font-size="10.00">App</text>
</a>
</g>
</g>
<!-- Node4 -->
<g id="Node000004" class="node">
<title>Node4</title>
<g id="a_Node000004"><a xlink:href="structClientContext.html" target="_top" xlink:title="Context for a connected client.">
<polygon fill="white" stroke="#666666" points="185.62,-236.75 111.88,-236.75 111.88,-217.5 185.62,-217.5 185.62,-236.75"/>
<text xml:space="preserve" text-anchor="middle" x="148.75" y="-223.25" font-family="Helvetica,sans-Serif" font-size="10.00">ClientContext</text>
</a>
</g>
</g>
<!-- Node1&#45;&gt;Node4 -->
<g id="edge4_Node000004_Node000001" class="edge">
<title>Node1&#45;&gt;Node4</title>
<g id="a_edge4_Node000004_Node000001"><a xlink:title=" ">
<path fill="none" stroke="#9a32cd" stroke-dasharray="5,2" d="M93.93,-281.8C108.21,-267.82 128,-248.45 139.48,-237.2"/>
<polygon fill="#9a32cd" stroke="#9a32cd" points="91.65,-279.14 86.95,-288.64 96.54,-284.14 91.65,-279.14"/>
</a>
</g>
<text xml:space="preserve" text-anchor="start" x="124.32" y="-259.5" font-family="Helvetica,sans-Serif" font-size="10.00" fill="grey">app</text>
</g>
<!-- Node2 -->
<g id="Node000002" class="node">
<title>Node2</title>
<g id="a_Node000002"><a xlink:href="structEndpoint.html" target="_top" xlink:title="Represents an HTTP route.">
<polygon fill="white" stroke="#666666" points="103.5,-91.75 50,-91.75 50,-72.5 103.5,-72.5 103.5,-91.75"/>
<text xml:space="preserve" text-anchor="middle" x="76.75" y="-78.25" font-family="Helvetica,sans-Serif" font-size="10.00">Endpoint</text>
</a>
</g>
</g>
<!-- Node2&#45;&gt;Node1 -->
<g id="edge1_Node000001_Node000002" class="edge">
<title>Node2&#45;&gt;Node1</title>
<g id="a_edge1_Node000001_Node000002"><a xlink:title=" ">
<path fill="none" stroke="#9a32cd" stroke-dasharray="5,2" d="M76.75,-103.42C76.75,-148.93 76.75,-257.67 76.75,-289.64"/>
<polygon fill="#9a32cd" stroke="#9a32cd" points="80.25,-103.66 76.75,-93.66 73.25,-103.66 80.25,-103.66"/>
</a>
</g>
<text xml:space="preserve" text-anchor="start" x="79.75" y="-187" font-family="Helvetica,sans-Serif" font-size="10.00" fill="grey">endpoints</text>
</g>
<!-- Node13 -->
<g id="Node000013" class="node">
<title>Node13</title>
<g id="a_Node000013"><a xlink:href="structAppGroup.html" target="_top" xlink:title="Group of endpoints with shared root path and middleware.">
<polygon fill="white" stroke="#666666" points="59.5,-19.25 0,-19.25 0,0 59.5,0 59.5,-19.25"/>
<text xml:space="preserve" text-anchor="middle" x="29.75" y="-5.75" font-family="Helvetica,sans-Serif" font-size="10.00">AppGroup</text>
</a>
</g>
</g>
<!-- Node2&#45;&gt;Node13 -->
<g id="edge18_Node000013_Node000002" class="edge">
<title>Node2&#45;&gt;Node13</title>
<g id="a_edge18_Node000013_Node000002"><a xlink:title=" ">
<path fill="none" stroke="#9a32cd" stroke-dasharray="5,2" d="M64.47,-62.7C55.24,-48.87 43.01,-30.52 35.8,-19.7"/>
<polygon fill="#9a32cd" stroke="#9a32cd" points="61.5,-64.56 69.96,-70.94 67.32,-60.67 61.5,-64.56"/>
</a>
</g>
<text xml:space="preserve" text-anchor="start" x="61.84" y="-42" font-family="Helvetica,sans-Serif" font-size="10.00" fill="grey">endpoints</text>
</g>
<!-- Node3 -->
<g id="Node000003" class="node">
<title>Node3</title>
<g id="a_Node000003"><a xlink:href="structResponseContext.html" target="_top" xlink:title=" ">
<polygon fill="white" stroke="#666666" points="271,-164.25 178.5,-164.25 178.5,-145 271,-145 271,-164.25"/>
<text xml:space="preserve" text-anchor="middle" x="224.75" y="-150.75" font-family="Helvetica,sans-Serif" font-size="10.00">ResponseContext</text>
</a>
</g>
</g>
<!-- Node3&#45;&gt;Node2 -->
<g id="edge2_Node000002_Node000003" class="edge">
<title>Node3&#45;&gt;Node2</title>
<g id="a_edge2_Node000002_Node000003"><a xlink:title=" ">
<path fill="none" stroke="#9a32cd" stroke-dasharray="5,2" d="M195.56,-139.72C165.95,-125.61 120.99,-104.2 95.72,-92.16"/>
<polygon fill="#9a32cd" stroke="#9a32cd" points="193.8,-142.76 204.34,-143.9 196.82,-136.44 193.8,-142.76"/>
</a>
</g>
<text xml:space="preserve" text-anchor="start" x="171.36" y="-114.5" font-family="Helvetica,sans-Serif" font-size="10.00" fill="grey">handler</text>
</g>
<!-- Node3&#45;&gt;Node4 -->
<g id="edge10_Node000004_Node000003" class="edge">
<title>Node3&#45;&gt;Node4</title>
<g id="a_edge10_Node000004_Node000003"><a xlink:title=" ">
<path fill="none" stroke="#9a32cd" stroke-dasharray="5,2" d="M203.8,-171.59C199.56,-175.01 195.2,-178.67 191.25,-182.25 178.68,-193.65 165.22,-207.94 156.89,-217.05"/>
<polygon fill="#9a32cd" stroke="#9a32cd" points="205.77,-174.49 211.47,-165.56 201.44,-168.99 205.77,-174.49"/>
</a>
</g>
<text xml:space="preserve" text-anchor="start" x="194.25" y="-187" font-family="Helvetica,sans-Serif" font-size="10.00" fill="grey">res</text>
</g>
<!-- Node4&#45;&gt;Node3 -->
<g id="edge3_Node000003_Node000004" class="edge">
<title>Node4&#45;&gt;Node3</title>
<g id="a_edge3_Node000003_Node000004"><a xlink:title=" ">
<path fill="none" stroke="#9a32cd" stroke-dasharray="5,2" d="M144.13,-206.01C143.42,-197.95 144.18,-189.01 149,-182.25 155.96,-172.49 166.79,-166.28 178.11,-162.34"/>
<polygon fill="#9a32cd" stroke="#9a32cd" points="140.65,-206.37 145.76,-215.65 147.55,-205.2 140.65,-206.37"/>
</a>
</g>
<text xml:space="preserve" text-anchor="start" x="152" y="-187" font-family="Helvetica,sans-Serif" font-size="10.00" fill="grey">ctx</text>
</g>
<!-- Node5 -->
<g id="Node000005" class="node">
<title>Node5</title>
<g id="a_Node000005"><a xlink:href="structRequest.html" target="_top" xlink:title="HTTP request structure.">
<polygon fill="white" stroke="#666666" points="232.75,-309.25 180.75,-309.25 180.75,-290 232.75,-290 232.75,-309.25"/>
<text xml:space="preserve" text-anchor="middle" x="206.75" y="-295.75" font-family="Helvetica,sans-Serif" font-size="10.00">Request</text>
</a>
</g>
</g>
<!-- Node5&#45;&gt;Node3 -->
<g id="edge11_Node000003_Node000005" class="edge">
<title>Node5&#45;&gt;Node3</title>
<g id="a_edge11_Node000003_Node000005"><a xlink:title=" ">
<path fill="none" stroke="#9a32cd" stroke-dasharray="5,2" d="M209.3,-278.41C213.27,-246.84 220.78,-187.13 223.62,-164.57"/>
<polygon fill="#9a32cd" stroke="#9a32cd" points="205.84,-277.82 208.07,-288.18 212.79,-278.69 205.84,-277.82"/>
</a>
</g>
<text xml:space="preserve" text-anchor="start" x="219.95" y="-223.25" font-family="Helvetica,sans-Serif" font-size="10.00" fill="grey">req</text>
</g>
<!-- Node5&#45;&gt;Node4 -->
<g id="edge5_Node000004_Node000005" class="edge">
<title>Node5&#45;&gt;Node4</title>
<g id="a_edge5_Node000004_Node000005"><a xlink:title=" ">
<path fill="none" stroke="#9a32cd" stroke-dasharray="5,2" d="M192.26,-281.01C180.81,-267.09 165.29,-248.23 156.22,-237.2"/>
<polygon fill="#9a32cd" stroke="#9a32cd" points="189.39,-283.03 198.44,-288.53 194.79,-278.58 189.39,-283.03"/>
</a>
</g>
<text xml:space="preserve" text-anchor="start" x="187.65" y="-259.5" font-family="Helvetica,sans-Serif" font-size="10.00" fill="grey">req</text>
</g>
<!-- Node6 -->
<g id="Node000006" class="node">
<title>Node6</title>
<g id="a_Node000006"><a xlink:href="structKeyValue.html" target="_top" xlink:title="Fixed&#45;size key/value pair.">
<polygon fill="white" stroke="#666666" points="393.38,-397 336.12,-397 336.12,-377.75 393.38,-377.75 393.38,-397"/>
<text xml:space="preserve" text-anchor="middle" x="364.75" y="-383.5" font-family="Helvetica,sans-Serif" font-size="10.00">KeyValue</text>
</a>
</g>
</g>
<!-- Node6&#45;&gt;Node3 -->
<g id="edge12_Node000003_Node000006" class="edge">
<title>Node6&#45;&gt;Node3</title>
<g id="a_edge12_Node000003_Node000006"><a xlink:title=" ">
<path fill="none" stroke="#9a32cd" stroke-dasharray="5,2" d="M396.48,-372.5C421.61,-359.78 455.45,-338.47 473.75,-309.25 495.58,-274.4 509.85,-250.82 485.75,-217.5 460.91,-183.17 339.47,-166.38 271.34,-159.54"/>
<polygon fill="#9a32cd" stroke="#9a32cd" points="395.14,-369.25 387.67,-376.76 398.19,-375.55 395.14,-369.25"/>
</a>
</g>
<text xml:space="preserve" text-anchor="start" x="501.18" y="-259.5" font-family="Helvetica,sans-Serif" font-size="10.00" fill="grey">headers</text>
</g>
<!-- Node6&#45;&gt;Node5 -->
<g id="edge6_Node000005_Node000006" class="edge">
<title>Node6&#45;&gt;Node5</title>
<g id="a_edge6_Node000005_Node000006"><a xlink:title=" ">
<path fill="none" stroke="#9a32cd" stroke-dasharray="5,2" d="M338.32,-372.03C305.48,-354.21 250.44,-324.34 223.14,-309.52"/>
<polygon fill="#9a32cd" stroke="#9a32cd" points="336.35,-374.94 346.81,-376.64 339.69,-368.79 336.35,-374.94"/>
</a>
</g>
<text xml:space="preserve" text-anchor="start" x="316.64" y="-347.25" font-family="Helvetica,sans-Serif" font-size="10.00" fill="grey">headers</text>
<text xml:space="preserve" text-anchor="start" x="316.64" y="-332" font-family="Helvetica,sans-Serif" font-size="10.00" fill="grey">params</text>
</g>
<!-- Node7 -->
<g id="Node000007" class="node">
<title>Node7</title>
<g id="a_Node000007"><a xlink:href="structBody.html" target="_top" xlink:title="HTTP request or response body.">
<polygon fill="white" stroke="#666666" points="225.62,-397 187.88,-397 187.88,-377.75 225.62,-377.75 225.62,-397"/>
<text xml:space="preserve" text-anchor="middle" x="206.75" y="-383.5" font-family="Helvetica,sans-Serif" font-size="10.00">Body</text>
</a>
</g>
</g>
<!-- Node7&#45;&gt;Node5 -->
<g id="edge7_Node000005_Node000007" class="edge">
<title>Node7&#45;&gt;Node5</title>
<g id="a_edge7_Node000005_Node000007"><a xlink:title=" ">
<path fill="none" stroke="#9a32cd" stroke-dasharray="5,2" d="M206.75,-366.04C206.75,-348.11 206.75,-322.83 206.75,-309.56"/>
<polygon fill="#9a32cd" stroke="#9a32cd" points="203.25,-366.01 206.75,-376.01 210.25,-366.01 203.25,-366.01"/>
</a>
</g>
<text xml:space="preserve" text-anchor="start" x="209.75" y="-339.62" font-family="Helvetica,sans-Serif" font-size="10.00" fill="grey">body</text>
</g>
<!-- Node8 -->
<g id="Node000008" class="node">
<title>Node8</title>
<g id="a_Node000008"><a xlink:href="structcJSON.html" target="_top" xlink:title=" ">
<polygon fill="white" stroke="#666666" points="230.88,-483.75 182.62,-483.75 182.62,-464.5 230.88,-464.5 230.88,-483.75"/>
<text xml:space="preserve" text-anchor="middle" x="206.75" y="-470.25" font-family="Helvetica,sans-Serif" font-size="10.00">cJSON</text>
</a>
</g>
</g>
<!-- Node8&#45;&gt;Node7 -->
<g id="edge8_Node000007_Node000008" class="edge">
<title>Node8&#45;&gt;Node7</title>
<g id="a_edge8_Node000007_Node000008"><a xlink:title=" ">
<path fill="none" stroke="#9a32cd" stroke-dasharray="5,2" d="M206.75,-452.73C206.75,-435.1 206.75,-410.47 206.75,-397.38"/>
<polygon fill="#9a32cd" stroke="#9a32cd" points="203.25,-452.54 206.75,-462.54 210.25,-452.54 203.25,-452.54"/>
</a>
</g>
<text xml:space="preserve" text-anchor="start" x="209.75" y="-419.75" font-family="Helvetica,sans-Serif" font-size="10.00" fill="grey">json</text>
</g>
<!-- Node8&#45;&gt;Node8 -->
<g id="edge9_Node000008_Node000008" class="edge">
<title>Node8&#45;&gt;Node8</title>
<g id="a_edge9_Node000008_Node000008"><a xlink:title=" ">
<path fill="none" stroke="#9a32cd" stroke-dasharray="5,2" d="M242.3,-482.13C246.29,-480.62 248.88,-477.95 248.88,-474.12 248.88,-467.32 240.71,-464.18 230.99,-464.71"/>
<polygon fill="#9a32cd" stroke="#9a32cd" points="241.98,-478.64 232.49,-483.35 242.85,-485.59 241.98,-478.64"/>
</a>
</g>
<text xml:space="preserve" text-anchor="start" x="251.88" y="-485.5" font-family="Helvetica,sans-Serif" font-size="10.00" fill="grey">child</text>
<text xml:space="preserve" text-anchor="start" x="251.88" y="-470.25" font-family="Helvetica,sans-Serif" font-size="10.00" fill="grey">next</text>
<text xml:space="preserve" text-anchor="start" x="251.88" y="-455" font-family="Helvetica,sans-Serif" font-size="10.00" fill="grey">prev</text>
</g>
<!-- Node9 -->
<g id="Node000009" class="node">
<title>Node9</title>
<g id="a_Node000009"><a xlink:href="structResponseData.html" target="_top" xlink:title=" ">
<polygon fill="white" stroke="#666666" points="340.62,-236.75 260.88,-236.75 260.88,-217.5 340.62,-217.5 340.62,-236.75"/>
<text xml:space="preserve" text-anchor="middle" x="300.75" y="-223.25" font-family="Helvetica,sans-Serif" font-size="10.00">ResponseData</text>
</a>
</g>
</g>
<!-- Node9&#45;&gt;Node3 -->
<g id="edge13_Node000003_Node000009" class="edge">
<title>Node9&#45;&gt;Node3</title>
<g id="a_edge13_Node000003_Node000009"><a xlink:title=" ">
<path fill="none" stroke="#9a32cd" stroke-dasharray="5,2" d="M283.04,-209.7C267.93,-195.68 246.77,-176.05 234.54,-164.7"/>
<polygon fill="#9a32cd" stroke="#9a32cd" points="280.3,-211.93 290.01,-216.17 285.06,-206.8 280.3,-211.93"/>
</a>
</g>
<text xml:space="preserve" text-anchor="start" x="274.79" y="-187" font-family="Helvetica,sans-Serif" font-size="10.00" fill="grey">data</text>
</g>
<!-- Node10 -->
<g id="Node000010" class="node">
<title>Node10</title>
<g id="a_Node000010"><a xlink:href="structResponseDataEntry.html" target="_top" xlink:title=" ">
<polygon fill="white" stroke="#666666" points="352.5,-309.25 251,-309.25 251,-290 352.5,-290 352.5,-309.25"/>
<text xml:space="preserve" text-anchor="middle" x="301.75" y="-295.75" font-family="Helvetica,sans-Serif" font-size="10.00">ResponseDataEntry</text>
</a>
</g>
</g>
<!-- Node10&#45;&gt;Node9 -->
<g id="edge14_Node000009_Node000010" class="edge">
<title>Node10&#45;&gt;Node9</title>
<g id="a_edge14_Node000009_Node000010"><a xlink:title=" ">
<path fill="none" stroke="#9a32cd" stroke-dasharray="5,2" d="M301.47,-278.55C301.27,-264.94 301.03,-247.6 300.88,-237.2"/>
<polygon fill="#9a32cd" stroke="#9a32cd" points="297.96,-278.23 301.6,-288.18 304.96,-278.13 297.96,-278.23"/>
</a>
</g>
<text xml:space="preserve" text-anchor="start" x="304.37" y="-259.5" font-family="Helvetica,sans-Serif" font-size="10.00" fill="grey">entries</text>
</g>
<!-- Node11 -->
<g id="Node000011" class="node">
<title>Node11</title>
<g id="a_Node000011"><a xlink:href="structResponseContextQuery.html" target="_top" xlink:title=" ">
<polygon fill="white" stroke="#666666" points="476.75,-236.75 358.75,-236.75 358.75,-217.5 476.75,-217.5 476.75,-236.75"/>
<text xml:space="preserve" text-anchor="middle" x="417.75" y="-223.25" font-family="Helvetica,sans-Serif" font-size="10.00">ResponseContextQuery</text>
</a>
</g>
</g>
<!-- Node11&#45;&gt;Node3 -->
<g id="edge15_Node000003_Node000011" class="edge">
<title>Node11&#45;&gt;Node3</title>
<g id="a_edge15_Node000003_Node000011"><a xlink:title=" ">
<path fill="none" stroke="#9a32cd" stroke-dasharray="5,2" d="M383.34,-213C360.07,-204.17 328.62,-192.35 300.75,-182.25 284.32,-176.29 265.82,-169.81 251.18,-164.73"/>
<polygon fill="#9a32cd" stroke="#9a32cd" points="382.05,-216.25 392.64,-216.53 384.53,-209.71 382.05,-216.25"/>
</a>
</g>
<text xml:space="preserve" text-anchor="start" x="348.87" y="-187" font-family="Helvetica,sans-Serif" font-size="10.00" fill="grey">query</text>
</g>
<!-- Node12 -->
<g id="Node000012" class="node">
<title>Node12</title>
<g id="a_Node000012"><a xlink:href="structDynamicKeyValue.html" target="_top" xlink:title="Dynamic key/value pair.">
<polygon fill="white" stroke="#666666" points="465.12,-309.25 370.38,-309.25 370.38,-290 465.12,-290 465.12,-309.25"/>
<text xml:space="preserve" text-anchor="middle" x="417.75" y="-295.75" font-family="Helvetica,sans-Serif" font-size="10.00">DynamicKeyValue</text>
</a>
</g>
</g>
<!-- Node12&#45;&gt;Node11 -->
<g id="edge16_Node000011_Node000012" class="edge">
<title>Node12&#45;&gt;Node11</title>
<g id="a_edge16_Node000011_Node000012"><a xlink:title=" ">
<path fill="none" stroke="#9a32cd" stroke-dasharray="5,2" d="M417.75,-278.55C417.75,-264.94 417.75,-247.6 417.75,-237.2"/>
<polygon fill="#9a32cd" stroke="#9a32cd" points="414.25,-278.18 417.75,-288.18 421.25,-278.18 414.25,-278.18"/>
</a>
</g>
<text xml:space="preserve" text-anchor="start" x="420.75" y="-259.5" font-family="Helvetica,sans-Serif" font-size="10.00" fill="grey">entries</text>
</g>
<!-- Node13&#45;&gt;Node1 -->
<g id="edge17_Node000001_Node000013" class="edge">
<title>Node13&#45;&gt;Node1</title>
<g id="a_edge17_Node000001_Node000013"><a xlink:title=" ">
<path fill="none" stroke="#9a32cd" stroke-dasharray="5,2" d="M22.8,-30.34C18.48,-44.33 13.75,-63.65 13.75,-81.12 13.75,-228.12 13.75,-228.12 13.75,-228.12 13.75,-256.03 41.53,-277.96 60.2,-289.55"/>
<polygon fill="#9a32cd" stroke="#9a32cd" points="26.06,-31.63 25.88,-21.04 19.41,-29.43 26.06,-31.63"/>
</a>
</g>
<text xml:space="preserve" text-anchor="start" x="16.75" y="-150.75" font-family="Helvetica,sans-Serif" font-size="10.00" fill="grey">groups</text>
</g>
</g>
</svg>
