<?xml version="1.0" encoding="UTF-8" standalone="no"?>
<!DOCTYPE svg PUBLIC "-//W3C//DTD SVG 1.1//EN"
 "http://www.w3.org/Graphics/SVG/1.1/DTD/svg11.dtd">
<!-- Generated by graphviz version 14.0.5 (0)
 -->
<!-- Title: cJSON_Hooks::malloc_fn Pages: 1 -->
<svg width="264pt" height="45pt"
 viewBox="0.00 0.00 264.00 45.00" xmlns="http://www.w3.org/2000/svg" xmlns:xlink="http://www.w3.org/1999/xlink">
<g id="graph0" class="graph" transform="scale(1 1) rotate(0) translate(4 41.25)">
<title>cJSON_Hooks::malloc_fn</title>
<!-- Node1 -->
<g id="Node000001" class="node">
<title>Node1</title>
<g id="a_Node000001"><a xlink:title=" ">
<polygon fill="#999999" stroke="#666666" points="256.25,-19.25 127.75,-19.25 127.75,0 256.25,0 256.25,-19.25"/>
<text xml:space="preserve" text-anchor="middle" x="192" y="-5.75" font-family="Helvetica,sans-Serif" font-size="10.00">cJSON_Hooks::malloc_fn</text>
</a>
</g>
</g>
<!-- Node1&#45;&gt;Node1 -->
<g id="edge2_Node000001_Node000001" class="edge">
<title>Node1&#45;&gt;Node1</title>
<g id="a_edge2_Node000001_Node000001"><a xlink:title=" ">
<path fill="none" stroke="#63b8ff" d="M218.2,-30.32C215.18,-34.37 206.45,-37.25 192,-37.25 166.31,-37.25 158.69,-28.15 169.12,-19.54"/>
<polygon fill="#63b8ff" stroke="#63b8ff" points="221.62,-29.51 215.32,-20.98 214.93,-31.57 221.62,-29.51"/>
</a>
</g>
</g>
<!-- Node2 -->
<g id="Node000002" class="node">
<title>Node2</title>
<g id="a_Node000002"><a xlink:href="cJSON_8c.html#a9e943a63b19411e07fe82f46a56e35e5" target="_top" xlink:title=" ">
<polygon fill="white" stroke="#666666" points="91.75,-19.25 0,-19.25 0,0 91.75,0 91.75,-19.25"/>
<text xml:space="preserve" text-anchor="middle" x="45.88" y="-5.75" font-family="Helvetica,sans-Serif" font-size="10.00">CJSON_PUBLIC</text>
</a>
</g>
</g>
<!-- Node1&#45;&gt;Node2 -->
<g id="edge1_Node000001_Node000002" class="edge">
<title>Node1&#45;&gt;Node2</title>
<g id="a_edge1_Node000001_Node000002"><a xlink:title=" ">
<path fill="none" stroke="#63b8ff" d="M115.86,-9.62C107.72,-9.62 99.63,-9.62 92.01,-9.62"/>
<polygon fill="#63b8ff" stroke="#63b8ff" points="115.85,-13.13 125.85,-9.63 115.85,-6.13 115.85,-13.13"/>
</a>
</g>
</g>
</g>
</svg>
