<?xml version="1.0" encoding="UTF-8" standalone="no"?>
<!DOCTYPE svg PUBLIC "-//W3C//DTD SVG 1.1//EN"
 "http://www.w3.org/Graphics/SVG/1.1/DTD/svg11.dtd">
<!-- Generated by graphviz version 14.0.5 (0)
 -->
<!-- Title: AppGroup Pages: 1 -->
<svg width="569pt" height="361pt"
 viewBox="0.00 0.00 569.00 361.00" xmlns="http://www.w3.org/2000/svg" xmlns:xlink="http://www.w3.org/1999/xlink">
<g id="graph0" class="graph" transform="scale(1 1) rotate(0) translate(4 357)">
<title>AppGroup</title>
<!-- Node1 -->
<g id="Node000001" class="node">
<title>Node1</title>
<g id="a_Node000001"><a xlink:title="Group of endpoints with shared root path and middleware.">
<polygon fill="#999999" stroke="#666666" points="59.5,-338.75 0,-338.75 0,-319.5 59.5,-319.5 59.5,-338.75"/>
<text xml:space="preserve" text-anchor="middle" x="29.75" y="-325.25" font-family="Helvetica,sans-Serif" font-size="10.00">AppGroup</text>
</a>
</g>
</g>
<!-- Node5 -->
<g id="Node000005" class="node">
<title>Node5</title>
<g id="a_Node000005"><a xlink:href="structApp.html" target="_top" xlink:title="Main application object.">
<polygon fill="white" stroke="#666666" points="94.38,-252 61.12,-252 61.12,-232.75 94.38,-232.75 94.38,-252"/>
<text xml:space="preserve" text-anchor="middle" x="77.75" y="-238.5" font-family="Helvetica,sans-Serif" font-size="10.00">App</text>
</a>
</g>
</g>
<!-- Node1&#45;&gt;Node5 -->
<g id="edge6_Node000005_Node000001" class="edge">
<title>Node1&#45;&gt;Node5</title>
<g id="a_edge6_Node000005_Node000001"><a xlink:title=" ">
<path fill="none" stroke="#9a32cd" stroke-dasharray="5,2" d="M40.44,-309.25C50.47,-291.55 65.02,-265.85 72.65,-252.38"/>
<polygon fill="#9a32cd" stroke="#9a32cd" points="37.52,-307.31 35.63,-317.74 43.61,-310.76 37.52,-307.31"/>
</a>
</g>
<text xml:space="preserve" text-anchor="start" x="65.22" y="-274.75" font-family="Helvetica,sans-Serif" font-size="10.00" fill="grey">groups</text>
</g>
<!-- Node2 -->
<g id="Node000002" class="node">
<title>Node2</title>
<g id="a_Node000002"><a xlink:href="structEndpoint.html" target="_top" xlink:title="Represents an HTTP route.">
<polygon fill="white" stroke="#666666" points="104.5,-19.25 51,-19.25 51,0 104.5,0 104.5,-19.25"/>
<text xml:space="preserve" text-anchor="middle" x="77.75" y="-5.75" font-family="Helvetica,sans-Serif" font-size="10.00">Endpoint</text>
</a>
</g>
</g>
<!-- Node2&#45;&gt;Node1 -->
<g id="edge1_Node000001_Node000002" class="edge">
<title>Node2&#45;&gt;Node1</title>
<g id="a_edge1_Node000001_Node000002"><a xlink:title=" ">
<path fill="none" stroke="#9a32cd" stroke-dasharray="5,2" d="M46.25,-24.75C25.35,-36.5 1.75,-55.45 1.75,-81.12 1.75,-243.38 1.75,-243.38 1.75,-243.38 1.75,-272.2 16.53,-303.88 24.61,-319.05"/>
<polygon fill="#9a32cd" stroke="#9a32cd" points="47.59,-28 54.83,-20.26 44.35,-21.79 47.59,-28"/>
</a>
</g>
<text xml:space="preserve" text-anchor="start" x="4.75" y="-150.75" font-family="Helvetica,sans-Serif" font-size="10.00" fill="grey">endpoints</text>
</g>
<!-- Node2&#45;&gt;Node5 -->
<g id="edge5_Node000005_Node000002" class="edge">
<title>Node2&#45;&gt;Node5</title>
<g id="a_edge5_Node000005_Node000002"><a xlink:title=" ">
<path fill="none" stroke="#9a32cd" stroke-dasharray="5,2" d="M77.75,-30.6C77.75,-78.5 77.75,-198.44 77.75,-232.33"/>
<polygon fill="#9a32cd" stroke="#9a32cd" points="81.25,-30.87 77.75,-20.87 74.25,-30.87 81.25,-30.87"/>
</a>
</g>
<text xml:space="preserve" text-anchor="start" x="80.75" y="-114.5" font-family="Helvetica,sans-Serif" font-size="10.00" fill="grey">endpoints</text>
</g>
<!-- Node3 -->
<g id="Node000003" class="node">
<title>Node3</title>
<g id="a_Node000003"><a xlink:href="structResponseContext.html" target="_top" xlink:title=" ">
<polygon fill="white" stroke="#666666" points="291,-91.75 198.5,-91.75 198.5,-72.5 291,-72.5 291,-91.75"/>
<text xml:space="preserve" text-anchor="middle" x="244.75" y="-78.25" font-family="Helvetica,sans-Serif" font-size="10.00">ResponseContext</text>
</a>
</g>
</g>
<!-- Node3&#45;&gt;Node2 -->
<g id="edge2_Node000002_Node000003" class="edge">
<title>Node3&#45;&gt;Node2</title>
<g id="a_edge2_Node000002_Node000003"><a xlink:title=" ">
<path fill="none" stroke="#9a32cd" stroke-dasharray="5,2" d="M212.68,-67.59C179.29,-53.49 127.92,-31.81 99.16,-19.66"/>
<polygon fill="#9a32cd" stroke="#9a32cd" points="211.29,-70.8 221.87,-71.46 214.01,-64.35 211.29,-70.8"/>
</a>
</g>
<text xml:space="preserve" text-anchor="start" x="184.12" y="-42" font-family="Helvetica,sans-Serif" font-size="10.00" fill="grey">handler</text>
</g>
<!-- Node4 -->
<g id="Node000004" class="node">
<title>Node4</title>
<g id="a_Node000004"><a xlink:href="structClientContext.html" target="_top" xlink:title="Context for a connected client.">
<polygon fill="white" stroke="#666666" points="179.62,-164.25 105.88,-164.25 105.88,-145 179.62,-145 179.62,-164.25"/>
<text xml:space="preserve" text-anchor="middle" x="142.75" y="-150.75" font-family="Helvetica,sans-Serif" font-size="10.00">ClientContext</text>
</a>
</g>
</g>
<!-- Node4&#45;&gt;Node3 -->
<g id="edge3_Node000003_Node000004" class="edge">
<title>Node4&#45;&gt;Node3</title>
<g id="a_edge3_Node000003_Node000004"><a xlink:title=" ">
<path fill="none" stroke="#9a32cd" stroke-dasharray="5,2" d="M156.35,-135.53C163.55,-126.88 172.96,-116.88 183,-109.75 193.28,-102.45 205.87,-96.57 217,-92.21"/>
<polygon fill="#9a32cd" stroke="#9a32cd" points="153.65,-133.3 150.19,-143.32 159.14,-137.64 153.65,-133.3"/>
</a>
</g>
<text xml:space="preserve" text-anchor="start" x="186" y="-114.5" font-family="Helvetica,sans-Serif" font-size="10.00" fill="grey">ctx</text>
</g>
<!-- Node5&#45;&gt;Node4 -->
<g id="edge4_Node000004_Node000005" class="edge">
<title>Node5&#45;&gt;Node4</title>
<g id="a_edge4_Node000004_Node000005"><a xlink:title=" ">
<path fill="none" stroke="#9a32cd" stroke-dasharray="5,2" d="M91.42,-223.35C105.06,-205.34 125.48,-178.41 135.98,-164.56"/>
<polygon fill="#9a32cd" stroke="#9a32cd" points="88.63,-221.23 85.38,-231.32 94.21,-225.46 88.63,-221.23"/>
</a>
</g>
<text xml:space="preserve" text-anchor="start" x="124.73" y="-194.62" font-family="Helvetica,sans-Serif" font-size="10.00" fill="grey">app</text>
</g>
<!-- Node6 -->
<g id="Node000006" class="node">
<title>Node6</title>
<g id="a_Node000006"><a xlink:href="structRequest.html" target="_top" xlink:title="HTTP request structure.">
<polygon fill="white" stroke="#666666" points="326.75,-164.25 274.75,-164.25 274.75,-145 326.75,-145 326.75,-164.25"/>
<text xml:space="preserve" text-anchor="middle" x="300.75" y="-150.75" font-family="Helvetica,sans-Serif" font-size="10.00">Request</text>
</a>
</g>
</g>
<!-- Node6&#45;&gt;Node3 -->
<g id="edge7_Node000003_Node000006" class="edge">
<title>Node6&#45;&gt;Node3</title>
<g id="a_edge7_Node000003_Node000006"><a xlink:title=" ">
<path fill="none" stroke="#9a32cd" stroke-dasharray="5,2" d="M286.76,-136.01C275.7,-122.09 260.72,-103.23 251.96,-92.2"/>
<polygon fill="#9a32cd" stroke="#9a32cd" points="283.76,-137.86 292.72,-143.51 289.24,-133.5 283.76,-137.86"/>
</a>
</g>
<text xml:space="preserve" text-anchor="start" x="282.41" y="-114.5" font-family="Helvetica,sans-Serif" font-size="10.00" fill="grey">req</text>
</g>
<!-- Node7 -->
<g id="Node000007" class="node">
<title>Node7</title>
<g id="a_Node000007"><a xlink:href="structKeyValue.html" target="_top" xlink:title="Fixed&#45;size key/value pair.">
<polygon fill="white" stroke="#666666" points="251.38,-252 194.12,-252 194.12,-232.75 251.38,-232.75 251.38,-252"/>
<text xml:space="preserve" text-anchor="middle" x="222.75" y="-238.5" font-family="Helvetica,sans-Serif" font-size="10.00">KeyValue</text>
</a>
</g>
</g>
<!-- Node7&#45;&gt;Node3 -->
<g id="edge12_Node000003_Node000007" class="edge">
<title>Node7&#45;&gt;Node3</title>
<g id="a_edge12_Node000003_Node000007"><a xlink:title=" ">
<path fill="none" stroke="#9a32cd" stroke-dasharray="5,2" d="M221.64,-220.82C220.96,-201.2 220.92,-170.88 225.25,-145 228.48,-125.67 236.33,-104.03 241.02,-92.15"/>
<polygon fill="#9a32cd" stroke="#9a32cd" points="218.14,-220.91 222.08,-230.75 225.13,-220.6 218.14,-220.91"/>
</a>
</g>
<text xml:space="preserve" text-anchor="start" x="228.25" y="-150.75" font-family="Helvetica,sans-Serif" font-size="10.00" fill="grey">headers</text>
</g>
<!-- Node7&#45;&gt;Node6 -->
<g id="edge8_Node000006_Node000007" class="edge">
<title>Node7&#45;&gt;Node6</title>
<g id="a_edge8_Node000006_Node000007"><a xlink:title=" ">
<path fill="none" stroke="#9a32cd" stroke-dasharray="5,2" d="M229.5,-221.72C234.54,-209.27 242.43,-193.46 253.25,-182.25 260.34,-174.91 269.91,-169.02 278.59,-164.67"/>
<polygon fill="#9a32cd" stroke="#9a32cd" points="226.27,-220.36 226.07,-230.95 232.84,-222.8 226.27,-220.36"/>
</a>
</g>
<text xml:space="preserve" text-anchor="start" x="256.25" y="-202.25" font-family="Helvetica,sans-Serif" font-size="10.00" fill="grey">headers</text>
<text xml:space="preserve" text-anchor="start" x="256.25" y="-187" font-family="Helvetica,sans-Serif" font-size="10.00" fill="grey">params</text>
</g>
<!-- Node8 -->
<g id="Node000008" class="node">
<title>Node8</title>
<g id="a_Node000008"><a xlink:href="structBody.html" target="_top" xlink:title="HTTP request or response body.">
<polygon fill="white" stroke="#666666" points="315.62,-252 277.88,-252 277.88,-232.75 315.62,-232.75 315.62,-252"/>
<text xml:space="preserve" text-anchor="middle" x="296.75" y="-238.5" font-family="Helvetica,sans-Serif" font-size="10.00">Body</text>
</a>
</g>
</g>
<!-- Node8&#45;&gt;Node6 -->
<g id="edge9_Node000006_Node000008" class="edge">
<title>Node8&#45;&gt;Node6</title>
<g id="a_edge9_Node000006_Node000008"><a xlink:title=" ">
<path fill="none" stroke="#9a32cd" stroke-dasharray="5,2" d="M297.7,-221.04C298.53,-203.11 299.71,-177.83 300.33,-164.56"/>
<polygon fill="#9a32cd" stroke="#9a32cd" points="294.2,-220.86 297.23,-231.01 301.2,-221.18 294.2,-220.86"/>
</a>
</g>
<text xml:space="preserve" text-anchor="start" x="302.46" y="-194.62" font-family="Helvetica,sans-Serif" font-size="10.00" fill="grey">body</text>
</g>
<!-- Node9 -->
<g id="Node000009" class="node">
<title>Node9</title>
<g id="a_Node000009"><a xlink:href="structcJSON.html" target="_top" xlink:title=" ">
<polygon fill="white" stroke="#666666" points="320.88,-338.75 272.62,-338.75 272.62,-319.5 320.88,-319.5 320.88,-338.75"/>
<text xml:space="preserve" text-anchor="middle" x="296.75" y="-325.25" font-family="Helvetica,sans-Serif" font-size="10.00">cJSON</text>
</a>
</g>
</g>
<!-- Node9&#45;&gt;Node8 -->
<g id="edge10_Node000008_Node000009" class="edge">
<title>Node9&#45;&gt;Node8</title>
<g id="a_edge10_Node000008_Node000009"><a xlink:title=" ">
<path fill="none" stroke="#9a32cd" stroke-dasharray="5,2" d="M296.75,-307.73C296.75,-290.1 296.75,-265.47 296.75,-252.38"/>
<polygon fill="#9a32cd" stroke="#9a32cd" points="293.25,-307.54 296.75,-317.54 300.25,-307.54 293.25,-307.54"/>
</a>
</g>
<text xml:space="preserve" text-anchor="start" x="299.75" y="-274.75" font-family="Helvetica,sans-Serif" font-size="10.00" fill="grey">json</text>
</g>
<!-- Node9&#45;&gt;Node9 -->
<g id="edge11_Node000009_Node000009" class="edge">
<title>Node9&#45;&gt;Node9</title>
<g id="a_edge11_Node000009_Node000009"><a xlink:title=" ">
<path fill="none" stroke="#9a32cd" stroke-dasharray="5,2" d="M332.3,-337.13C336.29,-335.62 338.88,-332.95 338.88,-329.12 338.88,-322.32 330.71,-319.18 320.99,-319.71"/>
<polygon fill="#9a32cd" stroke="#9a32cd" points="331.98,-333.64 322.49,-338.35 332.85,-340.59 331.98,-333.64"/>
</a>
</g>
<text xml:space="preserve" text-anchor="start" x="341.88" y="-340.5" font-family="Helvetica,sans-Serif" font-size="10.00" fill="grey">child</text>
<text xml:space="preserve" text-anchor="start" x="341.88" y="-325.25" font-family="Helvetica,sans-Serif" font-size="10.00" fill="grey">next</text>
<text xml:space="preserve" text-anchor="start" x="341.88" y="-310" font-family="Helvetica,sans-Serif" font-size="10.00" fill="grey">prev</text>
</g>
<!-- Node10 -->
<g id="Node000010" class="node">
<title>Node10</title>
<g id="a_Node000010"><a xlink:href="structResponseData.html" target="_top" xlink:title=" ">
<polygon fill="white" stroke="#666666" points="424.62,-164.25 344.88,-164.25 344.88,-145 424.62,-145 424.62,-164.25"/>
<text xml:space="preserve" text-anchor="middle" x="384.75" y="-150.75" font-family="Helvetica,sans-Serif" font-size="10.00">ResponseData</text>
</a>
</g>
</g>
<!-- Node10&#45;&gt;Node3 -->
<g id="edge13_Node000003_Node000010" class="edge">
<title>Node10&#45;&gt;Node3</title>
<g id="a_edge13_Node000003_Node000010"><a xlink:title=" ">
<path fill="none" stroke="#9a32cd" stroke-dasharray="5,2" d="M358.83,-139.24C342.8,-130.47 321.73,-119.17 302.75,-109.75 290.44,-103.64 276.45,-97.2 265.29,-92.19"/>
<polygon fill="#9a32cd" stroke="#9a32cd" points="356.79,-142.11 367.24,-143.86 360.16,-135.97 356.79,-142.11"/>
</a>
</g>
<text xml:space="preserve" text-anchor="start" x="337.56" y="-114.5" font-family="Helvetica,sans-Serif" font-size="10.00" fill="grey">data</text>
</g>
<!-- Node11 -->
<g id="Node000011" class="node">
<title>Node11</title>
<g id="a_Node000011"><a xlink:href="structResponseDataEntry.html" target="_top" xlink:title=" ">
<polygon fill="white" stroke="#666666" points="435.5,-252 334,-252 334,-232.75 435.5,-232.75 435.5,-252"/>
<text xml:space="preserve" text-anchor="middle" x="384.75" y="-238.5" font-family="Helvetica,sans-Serif" font-size="10.00">ResponseDataEntry</text>
</a>
</g>
</g>
<!-- Node11&#45;&gt;Node10 -->
<g id="edge14_Node000010_Node000011" class="edge">
<title>Node11&#45;&gt;Node10</title>
<g id="a_edge14_Node000010_Node000011"><a xlink:title=" ">
<path fill="none" stroke="#9a32cd" stroke-dasharray="5,2" d="M384.75,-221.04C384.75,-203.11 384.75,-177.83 384.75,-164.56"/>
<polygon fill="#9a32cd" stroke="#9a32cd" points="381.25,-221.01 384.75,-231.01 388.25,-221.01 381.25,-221.01"/>
</a>
</g>
<text xml:space="preserve" text-anchor="start" x="387.75" y="-194.62" font-family="Helvetica,sans-Serif" font-size="10.00" fill="grey">entries</text>
</g>
<!-- Node12 -->
<g id="Node000012" class="node">
<title>Node12</title>
<g id="a_Node000012"><a xlink:href="structResponseContextQuery.html" target="_top" xlink:title=" ">
<polygon fill="white" stroke="#666666" points="560.75,-164.25 442.75,-164.25 442.75,-145 560.75,-145 560.75,-164.25"/>
<text xml:space="preserve" text-anchor="middle" x="501.75" y="-150.75" font-family="Helvetica,sans-Serif" font-size="10.00">ResponseContextQuery</text>
</a>
</g>
</g>
<!-- Node12&#45;&gt;Node3 -->
<g id="edge15_Node000003_Node000012" class="edge">
<title>Node12&#45;&gt;Node3</title>
<g id="a_edge15_Node000003_Node000012"><a xlink:title=" ">
<path fill="none" stroke="#9a32cd" stroke-dasharray="5,2" d="M464.75,-140.89C437.11,-131.61 398.31,-119.09 363.75,-109.75 339.43,-103.18 312.01,-96.96 289.62,-92.19"/>
<polygon fill="#9a32cd" stroke="#9a32cd" points="463.47,-144.15 474.06,-144.04 465.71,-137.52 463.47,-144.15"/>
</a>
</g>
<text xml:space="preserve" text-anchor="start" x="423.96" y="-114.5" font-family="Helvetica,sans-Serif" font-size="10.00" fill="grey">query</text>
</g>
<!-- Node13 -->
<g id="Node000013" class="node">
<title>Node13</title>
<g id="a_Node000013"><a xlink:href="structDynamicKeyValue.html" target="_top" xlink:title="Dynamic key/value pair.">
<polygon fill="white" stroke="#666666" points="549.12,-252 454.38,-252 454.38,-232.75 549.12,-232.75 549.12,-252"/>
<text xml:space="preserve" text-anchor="middle" x="501.75" y="-238.5" font-family="Helvetica,sans-Serif" font-size="10.00">DynamicKeyValue</text>
</a>
</g>
</g>
<!-- Node13&#45;&gt;Node12 -->
<g id="edge16_Node000012_Node000013" class="edge">
<title>Node13&#45;&gt;Node12</title>
<g id="a_edge16_Node000012_Node000013"><a xlink:title=" ">
<path fill="none" stroke="#9a32cd" stroke-dasharray="5,2" d="M501.75,-221.04C501.75,-203.11 501.75,-177.83 501.75,-164.56"/>
<polygon fill="#9a32cd" stroke="#9a32cd" points="498.25,-221.01 501.75,-231.01 505.25,-221.01 498.25,-221.01"/>
</a>
</g>
<text xml:space="preserve" text-anchor="start" x="504.75" y="-194.62" font-family="Helvetica,sans-Serif" font-size="10.00" fill="grey">entries</text>
</g>
</g>
</svg>
